G04*
G04 #@! TF.GenerationSoftware,Altium Limited,Altium Designer,18.1.7 (191)*
G04*
G04 Layer_Color=65535*
%FSLAX44Y44*%
%MOMM*%
G71*
G01*
G75*
%ADD10C,0.2000*%
%ADD11C,0.1500*%
D10*
X1205260Y550410D02*
G03*
X1205260Y550410I-1000J0D01*
G01*
X1332740Y314590D02*
G03*
X1332740Y314590I-1000J0D01*
G01*
D11*
X1216001Y390680D02*
Y388014D01*
Y389347D01*
X1222666D01*
X1223999Y388014D01*
Y386681D01*
X1222666Y385348D01*
X1216001Y393346D02*
X1223999D01*
Y398677D01*
X1217334Y406675D02*
X1216001Y405342D01*
Y402676D01*
X1217334Y401343D01*
X1222666D01*
X1223999Y402676D01*
Y405342D01*
X1222666Y406675D01*
X1216001Y414672D02*
Y412006D01*
Y413339D01*
X1222666D01*
X1223999Y412006D01*
Y410674D01*
X1222666Y409341D01*
X1216001Y417338D02*
X1223999D01*
Y422670D01*
X1217334Y430667D02*
X1216001Y429334D01*
Y426668D01*
X1217334Y425336D01*
X1222666D01*
X1223999Y426668D01*
Y429334D01*
X1222666Y430667D01*
X1216001Y438665D02*
Y435999D01*
Y437332D01*
X1222666D01*
X1223999Y435999D01*
Y434666D01*
X1222666Y433333D01*
X1216001Y441330D02*
X1223999D01*
Y446662D01*
X1217334Y454659D02*
X1216001Y453326D01*
Y450661D01*
X1217334Y449328D01*
X1222666D01*
X1223999Y450661D01*
Y453326D01*
X1222666Y454659D01*
X1216001Y462657D02*
Y459991D01*
Y461324D01*
X1222666D01*
X1223999Y459991D01*
Y458658D01*
X1222666Y457325D01*
X1216001Y465323D02*
X1223999D01*
Y470654D01*
X1217334Y478652D02*
X1216001Y477319D01*
Y474653D01*
X1217334Y473320D01*
X1222666D01*
X1223999Y474653D01*
Y477319D01*
X1222666Y478652D01*
M02*
