G04*
G04 #@! TF.GenerationSoftware,Altium Limited,Altium Designer,18.1.7 (191)*
G04*
G04 Layer_Color=8421504*
%FSLAX44Y44*%
%MOMM*%
G71*
G01*
G75*
%ADD11R,0.6000X0.6000*%
%ADD12R,1.1500X0.6000*%
%ADD13R,1.1500X0.3000*%
D11*
X1270080Y411000D02*
D03*
X1259920D02*
D03*
X1270080Y450000D02*
D03*
X1259920D02*
D03*
X1243080Y411000D02*
D03*
X1232920D02*
D03*
X1243080Y421000D02*
D03*
X1232920D02*
D03*
X1243080Y450000D02*
D03*
X1232920D02*
D03*
X1243080Y440000D02*
D03*
X1232920D02*
D03*
X1221080Y411000D02*
D03*
X1210920D02*
D03*
X1221080Y440000D02*
D03*
X1210920D02*
D03*
X1221080Y450000D02*
D03*
X1210920D02*
D03*
X1221080Y421000D02*
D03*
X1210920D02*
D03*
D12*
X1293030Y461410D02*
D03*
X1293000Y453910D02*
D03*
X1293030Y406910D02*
D03*
Y399410D02*
D03*
X1186970Y399410D02*
D03*
X1187000Y406910D02*
D03*
X1186970Y453910D02*
D03*
Y461410D02*
D03*
D13*
X1293030Y447910D02*
D03*
Y442910D02*
D03*
Y437910D02*
D03*
X1293000Y432910D02*
D03*
X1293030Y427910D02*
D03*
Y422910D02*
D03*
Y417910D02*
D03*
Y412910D02*
D03*
X1186970D02*
D03*
Y417910D02*
D03*
Y422910D02*
D03*
X1187000Y427910D02*
D03*
X1186970Y432910D02*
D03*
Y437910D02*
D03*
Y442910D02*
D03*
Y447910D02*
D03*
M02*
