G04*
G04 #@! TF.GenerationSoftware,Altium Limited,Altium Designer,18.1.7 (191)*
G04*
G04 Layer_Physical_Order=2*
G04 Layer_Color=16711680*
%FSLAX44Y44*%
%MOMM*%
G71*
G01*
G75*
%ADD21C,0.2540*%
%ADD22R,2.0000X1.8000*%
%ADD23R,2.0000X1.2000*%
%ADD24R,2.3000X1.2000*%
%ADD25C,0.5080*%
G36*
X1266115Y460330D02*
X1265215Y458982D01*
X1264820Y457000D01*
X1265188Y455155D01*
X1265101Y454775D01*
X1264625Y453885D01*
X1254330D01*
X1252982Y454785D01*
X1251000Y455179D01*
X1249018Y454785D01*
X1247670Y453885D01*
X1243885D01*
Y463115D01*
X1247000D01*
X1248487Y463411D01*
X1248560Y463460D01*
X1252540D01*
Y463460D01*
X1252860D01*
Y463460D01*
X1266115D01*
Y460330D01*
D02*
G37*
G36*
X1278606Y443900D02*
X1278363Y442347D01*
X1277337Y441662D01*
X1276215Y439982D01*
X1275820Y438000D01*
X1276215Y436018D01*
X1277115Y434670D01*
Y429330D01*
X1276215Y427982D01*
X1275820Y426000D01*
X1276215Y424018D01*
X1277337Y422337D01*
X1279018Y421215D01*
X1281000Y420821D01*
X1282982Y421215D01*
X1284662Y422337D01*
X1285785Y424018D01*
X1286180Y426000D01*
X1285785Y427982D01*
X1284885Y429330D01*
Y434670D01*
X1285347Y435363D01*
X1286900Y435606D01*
X1307934Y414572D01*
X1307820Y414000D01*
X1307989Y413155D01*
X1306946Y411885D01*
X1256609D01*
X1255853Y412640D01*
X1255785Y412982D01*
X1254662Y414663D01*
X1253804Y415236D01*
Y416764D01*
X1254662Y417337D01*
X1255785Y419018D01*
X1256180Y421000D01*
X1255785Y422982D01*
X1254662Y424663D01*
X1252982Y425785D01*
X1251000Y426180D01*
X1249018Y425785D01*
X1247670Y424885D01*
X1245000D01*
X1244866Y424858D01*
X1243885Y425664D01*
Y436115D01*
X1247670D01*
X1249018Y435215D01*
X1251000Y434821D01*
X1252982Y435215D01*
X1254662Y436338D01*
X1255785Y438018D01*
X1256180Y440000D01*
X1255785Y441982D01*
X1254662Y443662D01*
X1254212Y443963D01*
X1254129Y445368D01*
X1254928Y446115D01*
X1276391D01*
X1278606Y443900D01*
D02*
G37*
G36*
X1306898Y442698D02*
X1307215Y441108D01*
X1308338Y439427D01*
X1310018Y438305D01*
X1312000Y437910D01*
X1312572Y438024D01*
X1315115Y435481D01*
Y420174D01*
X1313845Y419648D01*
X1281648Y451845D01*
X1282174Y453115D01*
X1296481D01*
X1306898Y442698D01*
D02*
G37*
G36*
X1202060Y476270D02*
X1214600D01*
Y475000D01*
X1215870D01*
Y463460D01*
X1227140D01*
Y463460D01*
X1227460D01*
Y463460D01*
X1236115D01*
Y450000D01*
X1236411Y448513D01*
X1237253Y447253D01*
X1238513Y446411D01*
X1240000Y446115D01*
X1247670D01*
X1247788Y446037D01*
X1247871Y444632D01*
X1247072Y443885D01*
X1240000D01*
X1238513Y443589D01*
X1237253Y442747D01*
X1236411Y441487D01*
X1236115Y440000D01*
Y396540D01*
X1227460D01*
Y396540D01*
X1227140D01*
Y396540D01*
X1215870D01*
Y385000D01*
X1214600D01*
Y383730D01*
X1202060D01*
Y375000D01*
X1125000D01*
Y485000D01*
X1202060D01*
Y476270D01*
D02*
G37*
G36*
X1355000Y375000D02*
X1277940D01*
Y396540D01*
X1269285D01*
Y399000D01*
X1268989Y400487D01*
X1268147Y401747D01*
X1266887Y402589D01*
X1265598Y402845D01*
X1265723Y404115D01*
X1298165D01*
X1298764Y402995D01*
X1298546Y402669D01*
X1298096Y400410D01*
X1298546Y398151D01*
X1299301Y397020D01*
X1298623Y395750D01*
X1298100D01*
Y388480D01*
X1309370D01*
Y395750D01*
X1309370D01*
X1308698Y397020D01*
X1309454Y398151D01*
X1309903Y400410D01*
X1309454Y402669D01*
X1309236Y402995D01*
X1309835Y404115D01*
X1319000D01*
X1320487Y404411D01*
X1321747Y405253D01*
X1322589Y406513D01*
X1322885Y408000D01*
Y436548D01*
X1322975Y437000D01*
X1322679Y438487D01*
X1321837Y439747D01*
X1316853Y444730D01*
X1316785Y445072D01*
X1316623Y445315D01*
X1316589Y445487D01*
X1315747Y446747D01*
X1314487Y447589D01*
X1314378Y447611D01*
X1313982Y447875D01*
X1312392Y448191D01*
X1306730Y453853D01*
X1306957Y455422D01*
X1308174Y456236D01*
X1309454Y458151D01*
X1309903Y460410D01*
X1309454Y462669D01*
X1308632Y463900D01*
X1309310Y465170D01*
X1309370D01*
Y472440D01*
X1298100D01*
Y465170D01*
X1298690D01*
X1299368Y463900D01*
X1298546Y462669D01*
X1298187Y460865D01*
X1298090Y460885D01*
X1273885D01*
Y463460D01*
X1277940D01*
Y485000D01*
X1355000D01*
Y375000D01*
D02*
G37*
%LPC*%
G36*
X1195710Y482150D02*
X1184440D01*
Y474880D01*
X1195710D01*
Y482150D01*
D02*
G37*
G36*
X1181900D02*
X1170630D01*
Y474880D01*
X1181900D01*
Y482150D01*
D02*
G37*
G36*
X1158610D02*
X1145840D01*
Y474880D01*
X1158610D01*
Y482150D01*
D02*
G37*
G36*
X1143300D02*
X1130530D01*
Y474880D01*
X1143300D01*
Y482150D01*
D02*
G37*
G36*
X1181900Y472340D02*
X1170630D01*
Y465070D01*
X1170630D01*
X1171301Y463800D01*
X1170546Y462669D01*
X1170097Y460410D01*
X1170546Y458151D01*
X1171826Y456236D01*
X1173741Y454956D01*
X1176000Y454507D01*
X1178259Y454956D01*
X1180174Y456236D01*
X1181454Y458151D01*
X1181904Y460410D01*
X1181454Y462669D01*
X1180698Y463800D01*
X1181377Y465070D01*
X1181900D01*
Y472340D01*
D02*
G37*
G36*
X1195710D02*
X1184440D01*
Y465070D01*
X1195710D01*
Y472340D01*
D02*
G37*
G36*
X1158610D02*
X1145840D01*
Y465070D01*
X1158610D01*
Y472340D01*
D02*
G37*
G36*
X1143300D02*
X1130530D01*
Y465070D01*
X1143300D01*
Y472340D01*
D02*
G37*
G36*
X1213330Y473730D02*
X1202060D01*
Y463460D01*
X1213330D01*
Y473730D01*
D02*
G37*
G36*
X1203000Y455179D02*
X1201018Y454785D01*
X1199337Y453662D01*
X1198215Y451982D01*
X1197898Y450392D01*
X1194253Y446747D01*
X1193411Y445486D01*
X1193115Y444000D01*
Y426000D01*
X1193411Y424513D01*
X1194253Y423253D01*
X1197898Y419608D01*
X1198215Y418018D01*
X1199337Y416338D01*
X1200196Y415764D01*
Y414236D01*
X1199337Y413662D01*
X1198215Y411982D01*
X1197821Y410000D01*
X1198215Y408018D01*
X1199337Y406338D01*
X1201018Y405215D01*
X1203000Y404821D01*
X1204982Y405215D01*
X1206663Y406338D01*
X1207785Y408018D01*
X1208102Y409608D01*
X1211747Y413253D01*
X1212589Y414513D01*
X1212885Y416000D01*
Y434000D01*
X1212589Y435487D01*
X1211747Y436747D01*
X1208102Y440392D01*
X1207785Y441982D01*
X1206663Y443662D01*
X1205804Y444236D01*
Y445764D01*
X1206663Y446338D01*
X1207785Y448018D01*
X1208179Y450000D01*
X1207785Y451982D01*
X1206663Y453662D01*
X1204982Y454785D01*
X1203000Y455179D01*
D02*
G37*
G36*
X1195710Y395650D02*
X1184440D01*
Y388380D01*
X1195710D01*
Y395650D01*
D02*
G37*
G36*
X1176000Y406314D02*
X1173741Y405864D01*
X1171826Y404584D01*
X1170546Y402669D01*
X1170097Y400410D01*
X1170546Y398151D01*
X1171368Y396920D01*
X1170690Y395650D01*
X1170630D01*
Y388380D01*
X1181900D01*
Y395650D01*
X1181311D01*
X1180632Y396920D01*
X1181454Y398151D01*
X1181904Y400410D01*
X1181454Y402669D01*
X1180174Y404584D01*
X1178259Y405864D01*
X1176000Y406314D01*
D02*
G37*
G36*
X1158610Y395650D02*
X1145840D01*
Y388380D01*
X1158610D01*
Y395650D01*
D02*
G37*
G36*
X1143300D02*
X1130530D01*
Y388380D01*
X1143300D01*
Y395650D01*
D02*
G37*
G36*
X1213330Y396540D02*
X1202060D01*
Y386270D01*
X1213330D01*
Y396540D01*
D02*
G37*
G36*
X1195710Y385840D02*
X1184440D01*
Y378570D01*
X1195710D01*
Y385840D01*
D02*
G37*
G36*
X1181900D02*
X1170630D01*
Y378570D01*
X1181900D01*
Y385840D01*
D02*
G37*
G36*
X1158610D02*
X1145840D01*
Y378570D01*
X1158610D01*
Y385840D01*
D02*
G37*
G36*
X1143300D02*
X1130530D01*
Y378570D01*
X1143300D01*
Y385840D01*
D02*
G37*
G36*
X1349470Y482250D02*
X1336700D01*
Y474980D01*
X1349470D01*
Y482250D01*
D02*
G37*
G36*
X1309370D02*
X1298100D01*
Y474980D01*
X1309370D01*
Y482250D01*
D02*
G37*
G36*
X1295560D02*
X1284290D01*
Y474980D01*
X1295560D01*
Y482250D01*
D02*
G37*
G36*
X1334160D02*
X1321390D01*
Y474980D01*
X1334160D01*
Y482250D01*
D02*
G37*
G36*
X1349470Y472440D02*
X1336700D01*
Y465170D01*
X1349470D01*
Y472440D01*
D02*
G37*
G36*
X1334160D02*
X1321390D01*
Y465170D01*
X1334160D01*
Y472440D01*
D02*
G37*
G36*
X1295560D02*
X1284290D01*
Y465170D01*
X1295560D01*
Y472440D01*
D02*
G37*
G36*
X1349470Y395750D02*
X1336700D01*
Y388480D01*
X1349470D01*
Y395750D01*
D02*
G37*
G36*
X1295560D02*
X1284290D01*
Y388480D01*
X1295560D01*
Y395750D01*
D02*
G37*
G36*
X1334160D02*
X1321390D01*
Y388480D01*
X1334160D01*
Y395750D01*
D02*
G37*
G36*
X1349470Y385940D02*
X1336700D01*
Y378670D01*
X1349470D01*
Y385940D01*
D02*
G37*
G36*
X1334160D02*
X1321390D01*
Y378670D01*
X1334160D01*
Y385940D01*
D02*
G37*
G36*
X1309370D02*
X1298100D01*
Y378670D01*
X1309370D01*
Y385940D01*
D02*
G37*
G36*
X1295560D02*
X1284290D01*
Y378670D01*
X1295560D01*
Y385940D01*
D02*
G37*
%LPD*%
D21*
X1240000Y467000D02*
X1247000D01*
X1265400Y385000D02*
Y399000D01*
X1245000D02*
X1265400D01*
X1245000D02*
Y421000D01*
X1240000Y440000D02*
X1251000D01*
X1240000Y385000D02*
Y440000D01*
X1245000Y421000D02*
X1251000D01*
X1313000Y443090D02*
Y444000D01*
X1319000Y408000D02*
Y437000D01*
X1255000Y408000D02*
X1319000D01*
X1252000Y411000D02*
X1255000Y408000D01*
X1251000Y450000D02*
X1278000D01*
X1251000D02*
X1251000D01*
X1240000D02*
X1251000D01*
X1251000D02*
Y450000D01*
X1251000Y450000D02*
X1251000Y450000D01*
X1240000Y450000D02*
Y467000D01*
X1278000Y450000D02*
X1313000Y415000D01*
X1267000Y473000D02*
X1270000Y470000D01*
Y457000D02*
Y470000D01*
Y457000D02*
X1298090D01*
X1312000Y443090D01*
X1251000Y411000D02*
X1252000D01*
X1313000Y414000D02*
Y415000D01*
X1319000Y437000D02*
X1319090D01*
X1313000Y443090D02*
X1319090Y437000D01*
X1312000Y443090D02*
X1313000D01*
X1247000Y377000D02*
Y378000D01*
X1281000Y426000D02*
Y438000D01*
X1247000Y467000D02*
Y468000D01*
X1197000Y444000D02*
X1203000Y450000D01*
X1197000Y426000D02*
Y444000D01*
X1209000Y416000D02*
Y434000D01*
X1203000Y410000D02*
X1209000Y416000D01*
X1197000Y426000D02*
X1203000Y420000D01*
Y440000D02*
X1209000Y434000D01*
D22*
X1265400Y385000D02*
D03*
X1240000D02*
D03*
X1214600D02*
D03*
Y475000D02*
D03*
X1240000D02*
D03*
X1265400D02*
D03*
D23*
X1296830Y473710D02*
D03*
Y387210D02*
D03*
X1183170Y387110D02*
D03*
Y473610D02*
D03*
D24*
X1335430Y473710D02*
D03*
Y387210D02*
D03*
X1144570Y387110D02*
D03*
Y473610D02*
D03*
D25*
X1251000Y421000D02*
D03*
Y440000D02*
D03*
X1270000Y457000D02*
D03*
X1251000Y450000D02*
D03*
Y411000D02*
D03*
X1313000Y414000D02*
D03*
X1281000Y438000D02*
D03*
X1203000Y450000D02*
D03*
Y410000D02*
D03*
Y440000D02*
D03*
Y420000D02*
D03*
X1312000Y443090D02*
D03*
X1281000Y426000D02*
D03*
M02*
