G04*
G04 #@! TF.GenerationSoftware,Altium Limited,Altium Designer,18.1.7 (191)*
G04*
G04 Layer_Physical_Order=1*
G04 Layer_Color=255*
%FSLAX44Y44*%
%MOMM*%
G71*
G01*
G75*
%ADD12R,1.1500X0.6300*%
%ADD13R,1.0000X0.2980*%
%ADD14R,1.1500X0.6000*%
%ADD15R,1.1500X0.3000*%
%ADD16R,0.6000X0.6000*%
%ADD17R,0.6000X0.6000*%
%ADD29C,0.2540*%
%ADD30C,1.6000*%
%ADD31R,1.6000X1.6000*%
%ADD32R,2.0000X1.2000*%
%ADD33R,2.3000X1.2000*%
%ADD34C,0.5080*%
G36*
X1340000Y555000D02*
X1341477D01*
X1344375Y554423D01*
X1347105Y553293D01*
X1349562Y551651D01*
X1351651Y549562D01*
X1353293Y547105D01*
X1354424Y544375D01*
X1355000Y541477D01*
X1355000Y540000D01*
X1355000Y540000D01*
X1355000Y540000D01*
X1355000Y469890D01*
X1352870D01*
Y464200D01*
X1351600D01*
Y462930D01*
X1343310D01*
Y458510D01*
X1352460D01*
Y453470D01*
X1354000D01*
Y451260D01*
X1354000Y450010D01*
X1354000D01*
Y449990D01*
X1354000D01*
Y445010D01*
X1352811Y444814D01*
X1347711D01*
X1347552Y445052D01*
X1346381Y445835D01*
X1345000Y446109D01*
X1343619Y445835D01*
X1342448Y445052D01*
X1342289Y444814D01*
X1314459D01*
X1295447Y463827D01*
X1294696Y464328D01*
X1293810Y464505D01*
X1267190D01*
X1266304Y464328D01*
X1265553Y463827D01*
X1257951Y456225D01*
X1250260D01*
Y460140D01*
X1241970D01*
Y462680D01*
X1250260D01*
Y465070D01*
X1250710D01*
Y472340D01*
X1225630D01*
Y465070D01*
X1228038D01*
X1228424Y463800D01*
X1227936Y463474D01*
X1226997Y462068D01*
X1226667Y460410D01*
X1226997Y458752D01*
X1227837Y457495D01*
X1227667Y456849D01*
X1227328Y456225D01*
X1226000D01*
X1225114Y456048D01*
X1224363Y455547D01*
X1223862Y454796D01*
X1223686Y453910D01*
Y406910D01*
X1223862Y406024D01*
X1224363Y405273D01*
X1225114Y404772D01*
X1226000Y404595D01*
X1227328D01*
X1227667Y403971D01*
X1227837Y403326D01*
X1226997Y402068D01*
X1226667Y400410D01*
X1226997Y398752D01*
X1227936Y397346D01*
X1228573Y396920D01*
X1228188Y395650D01*
X1225630D01*
Y388380D01*
X1250710D01*
Y395650D01*
X1250260D01*
Y398140D01*
X1241970D01*
Y400680D01*
X1250260D01*
Y404595D01*
X1257131D01*
X1264363Y397363D01*
X1265114Y396862D01*
X1266000Y396685D01*
X1294000D01*
X1294886Y396862D01*
X1295637Y397363D01*
X1305959Y407686D01*
X1337500D01*
X1338386Y407862D01*
X1339137Y408363D01*
X1344720Y413946D01*
X1345000Y413891D01*
X1346381Y414165D01*
X1347552Y414948D01*
X1347711Y415186D01*
X1352811D01*
X1354000Y414990D01*
Y411260D01*
X1354000Y410010D01*
X1354000D01*
Y409990D01*
X1354000D01*
Y406530D01*
X1352460D01*
Y398470D01*
X1355000D01*
X1355000Y325000D01*
Y323523D01*
X1354424Y320625D01*
X1353293Y317895D01*
X1351651Y315438D01*
X1349562Y313349D01*
X1347105Y311707D01*
X1344375Y310576D01*
X1341477Y310000D01*
X1340000Y310000D01*
X1195000Y310000D01*
X1193523Y310000D01*
X1190625Y310576D01*
X1187895Y311707D01*
X1185438Y313349D01*
X1183349Y315438D01*
X1181707Y317895D01*
X1180576Y320625D01*
X1180000Y323523D01*
X1180000Y325000D01*
X1180000D01*
X1180000Y540000D01*
Y541477D01*
X1180576Y544375D01*
X1181707Y547105D01*
X1183349Y549562D01*
X1185438Y551651D01*
X1187895Y553293D01*
X1190625Y554423D01*
X1193523Y555000D01*
X1195000D01*
X1195000Y555000D01*
X1340000Y555000D01*
D02*
G37*
G36*
X1311642Y441085D02*
X1311431Y440224D01*
X1311153Y439814D01*
X1307459D01*
X1303637Y443637D01*
X1302886Y444138D01*
X1302000Y444314D01*
X1290394D01*
Y448500D01*
X1291580D01*
Y456500D01*
X1283580D01*
Y448500D01*
X1285766D01*
Y444000D01*
X1283580D01*
Y436000D01*
X1283580D01*
X1283376Y434814D01*
X1281624D01*
X1281420Y436000D01*
X1281420D01*
Y444000D01*
X1273420D01*
Y442314D01*
X1262711D01*
X1262552Y442552D01*
X1261381Y443335D01*
X1260204Y443569D01*
X1259137Y444637D01*
X1258386Y445138D01*
X1257500Y445314D01*
X1248720D01*
Y451595D01*
X1258910D01*
X1259796Y451772D01*
X1260547Y452273D01*
X1268149Y459875D01*
X1292851D01*
X1311642Y441085D01*
D02*
G37*
G36*
X1333123Y424402D02*
X1332258Y423558D01*
X1332000Y423609D01*
X1330619Y423335D01*
X1329448Y422552D01*
X1328665Y421381D01*
X1328391Y420000D01*
X1328665Y418619D01*
X1329448Y417448D01*
X1330619Y416665D01*
X1332000Y416391D01*
X1333381Y416665D01*
X1334552Y417448D01*
X1335335Y418619D01*
X1335609Y420000D01*
X1335762Y420186D01*
X1341010D01*
X1341688Y418915D01*
X1341665Y418881D01*
X1341391Y417500D01*
X1341446Y417220D01*
X1336541Y412314D01*
X1305000D01*
X1304114Y412138D01*
X1303363Y411637D01*
X1293041Y401315D01*
X1266959D01*
X1259727Y408547D01*
X1258976Y409048D01*
X1258090Y409225D01*
X1248750D01*
Y410596D01*
X1264131D01*
X1265446Y409280D01*
X1265391Y409000D01*
X1265665Y407619D01*
X1266448Y406448D01*
X1267619Y405665D01*
X1269000Y405391D01*
X1270381Y405665D01*
X1271552Y406448D01*
X1271711Y406685D01*
X1273920D01*
Y404000D01*
X1281920D01*
Y412000D01*
X1278093D01*
X1277886Y412138D01*
X1277000Y412314D01*
X1276114Y412138D01*
X1275907Y412000D01*
X1273920D01*
Y411315D01*
X1271711D01*
X1271552Y411552D01*
X1270381Y412335D01*
X1269000Y412609D01*
X1268720Y412554D01*
X1266727Y414547D01*
X1265976Y415048D01*
X1265090Y415224D01*
X1261870D01*
X1260638Y415316D01*
X1260638Y415316D01*
X1260638D01*
X1260522Y416494D01*
X1260694Y416529D01*
X1261381Y416665D01*
X1262552Y417448D01*
X1262711Y417686D01*
X1273920D01*
Y416000D01*
X1281920D01*
Y424000D01*
X1273920D01*
Y422314D01*
X1262711D01*
X1262552Y422552D01*
X1261381Y423335D01*
X1260000Y423609D01*
X1258619Y423335D01*
X1257448Y422552D01*
X1256665Y421381D01*
X1256391Y420000D01*
X1256665Y418619D01*
X1257448Y417448D01*
X1258619Y416665D01*
X1259306Y416529D01*
X1259478Y416494D01*
X1259362Y415316D01*
X1259362D01*
X1259362Y415316D01*
X1258130Y415224D01*
X1248720D01*
Y423748D01*
X1249990Y424133D01*
X1250448Y423448D01*
X1251619Y422665D01*
X1253000Y422391D01*
X1254381Y422665D01*
X1255552Y423448D01*
X1256335Y424619D01*
X1256529Y425596D01*
X1332761D01*
X1333123Y424402D01*
D02*
G37*
%LPC*%
G36*
X1318800Y546778D02*
X1316451Y546468D01*
X1314261Y545561D01*
X1312381Y544119D01*
X1310939Y542239D01*
X1310032Y540050D01*
X1309722Y537700D01*
X1310032Y535350D01*
X1310939Y533161D01*
X1312381Y531281D01*
X1314261Y529838D01*
X1316451Y528932D01*
X1318800Y528622D01*
X1321149Y528932D01*
X1323339Y529838D01*
X1325219Y531281D01*
X1326662Y533161D01*
X1327568Y535350D01*
X1327878Y537700D01*
X1327568Y540050D01*
X1326662Y542239D01*
X1325219Y544119D01*
X1323339Y545561D01*
X1321149Y546468D01*
X1318800Y546778D01*
D02*
G37*
G36*
X1293400D02*
X1291051Y546468D01*
X1288861Y545561D01*
X1286981Y544119D01*
X1285539Y542239D01*
X1284632Y540050D01*
X1284322Y537700D01*
X1284632Y535350D01*
X1285539Y533161D01*
X1286981Y531281D01*
X1288861Y529838D01*
X1291051Y528932D01*
X1293400Y528622D01*
X1295750Y528932D01*
X1297939Y529838D01*
X1299819Y531281D01*
X1301261Y533161D01*
X1302168Y535350D01*
X1302478Y537700D01*
X1302168Y540050D01*
X1301261Y542239D01*
X1299819Y544119D01*
X1297939Y545561D01*
X1295750Y546468D01*
X1293400Y546778D01*
D02*
G37*
G36*
X1268000D02*
X1265650Y546468D01*
X1263461Y545561D01*
X1261581Y544119D01*
X1260139Y542239D01*
X1259232Y540050D01*
X1258922Y537700D01*
X1259232Y535350D01*
X1260139Y533161D01*
X1261581Y531281D01*
X1263461Y529838D01*
X1265650Y528932D01*
X1268000Y528622D01*
X1270350Y528932D01*
X1272539Y529838D01*
X1274419Y531281D01*
X1275862Y533161D01*
X1276768Y535350D01*
X1277078Y537700D01*
X1276768Y540050D01*
X1275862Y542239D01*
X1274419Y544119D01*
X1272539Y545561D01*
X1270350Y546468D01*
X1268000Y546778D01*
D02*
G37*
G36*
X1242600D02*
X1240250Y546468D01*
X1238061Y545561D01*
X1236181Y544119D01*
X1234739Y542239D01*
X1233832Y540050D01*
X1233522Y537700D01*
X1233832Y535350D01*
X1234739Y533161D01*
X1236181Y531281D01*
X1238061Y529838D01*
X1240250Y528932D01*
X1242600Y528622D01*
X1244949Y528932D01*
X1247139Y529838D01*
X1249019Y531281D01*
X1250462Y533161D01*
X1251368Y535350D01*
X1251678Y537700D01*
X1251368Y540050D01*
X1250462Y542239D01*
X1249019Y544119D01*
X1247139Y545561D01*
X1244949Y546468D01*
X1242600Y546778D01*
D02*
G37*
G36*
X1217200D02*
X1214850Y546468D01*
X1212661Y545561D01*
X1210781Y544119D01*
X1209339Y542239D01*
X1208432Y540050D01*
X1208122Y537700D01*
X1208432Y535350D01*
X1209339Y533161D01*
X1210781Y531281D01*
X1212661Y529838D01*
X1214850Y528932D01*
X1217200Y528622D01*
X1219549Y528932D01*
X1221739Y529838D01*
X1223619Y531281D01*
X1225061Y533161D01*
X1225968Y535350D01*
X1226278Y537700D01*
X1225968Y540050D01*
X1225061Y542239D01*
X1223619Y544119D01*
X1221739Y545561D01*
X1219549Y546468D01*
X1217200Y546778D01*
D02*
G37*
G36*
X1278540Y522840D02*
X1269270D01*
Y513570D01*
X1278540D01*
Y522840D01*
D02*
G37*
G36*
X1266730D02*
X1257460D01*
Y513570D01*
X1266730D01*
Y522840D01*
D02*
G37*
G36*
X1251600Y521300D02*
X1233600D01*
Y503300D01*
X1251600D01*
Y521300D01*
D02*
G37*
G36*
X1226200D02*
X1208200D01*
Y503300D01*
X1226200D01*
Y521300D01*
D02*
G37*
G36*
X1318800Y521378D02*
X1316451Y521068D01*
X1314261Y520161D01*
X1312381Y518719D01*
X1310939Y516839D01*
X1310032Y514650D01*
X1309722Y512300D01*
X1310032Y509950D01*
X1310939Y507761D01*
X1312381Y505881D01*
X1314261Y504439D01*
X1316451Y503532D01*
X1318800Y503222D01*
X1321149Y503532D01*
X1323339Y504439D01*
X1325219Y505881D01*
X1326662Y507761D01*
X1327568Y509950D01*
X1327878Y512300D01*
X1327568Y514650D01*
X1326662Y516839D01*
X1325219Y518719D01*
X1323339Y520161D01*
X1321149Y521068D01*
X1318800Y521378D01*
D02*
G37*
G36*
X1293400D02*
X1291051Y521068D01*
X1288861Y520161D01*
X1286981Y518719D01*
X1285539Y516839D01*
X1284632Y514650D01*
X1284322Y512300D01*
X1284632Y509950D01*
X1285539Y507761D01*
X1286981Y505881D01*
X1288861Y504439D01*
X1291051Y503532D01*
X1293400Y503222D01*
X1295750Y503532D01*
X1297939Y504439D01*
X1299819Y505881D01*
X1301261Y507761D01*
X1302168Y509950D01*
X1302478Y512300D01*
X1302168Y514650D01*
X1301261Y516839D01*
X1299819Y518719D01*
X1297939Y520161D01*
X1295750Y521068D01*
X1293400Y521378D01*
D02*
G37*
G36*
X1278540Y511030D02*
X1269270D01*
Y501760D01*
X1278540D01*
Y511030D01*
D02*
G37*
G36*
X1266730D02*
X1257460D01*
Y501760D01*
X1266730D01*
Y511030D01*
D02*
G37*
G36*
X1250710Y482150D02*
X1239440D01*
Y474880D01*
X1250710D01*
Y482150D01*
D02*
G37*
G36*
X1236900D02*
X1225630D01*
Y474880D01*
X1236900D01*
Y482150D01*
D02*
G37*
G36*
X1213610D02*
X1200840D01*
Y474880D01*
X1213610D01*
Y482150D01*
D02*
G37*
G36*
X1198300D02*
X1185530D01*
Y474880D01*
X1198300D01*
Y482150D01*
D02*
G37*
G36*
X1350330Y469890D02*
X1343310D01*
Y465470D01*
X1350330D01*
Y469890D01*
D02*
G37*
G36*
X1213610Y472340D02*
X1200840D01*
Y465070D01*
X1213610D01*
Y472340D01*
D02*
G37*
G36*
X1198300D02*
X1185530D01*
Y465070D01*
X1198300D01*
Y472340D01*
D02*
G37*
G36*
X1308000Y405609D02*
X1306619Y405335D01*
X1305448Y404552D01*
X1304665Y403381D01*
X1304391Y402000D01*
X1304665Y400619D01*
X1305448Y399448D01*
X1305685Y399289D01*
Y395080D01*
X1304000D01*
Y393395D01*
X1300000D01*
Y395080D01*
X1292000D01*
Y387080D01*
X1300000D01*
Y388765D01*
X1304000D01*
Y387080D01*
X1312000D01*
Y395080D01*
X1310314D01*
Y399289D01*
X1310552Y399448D01*
X1311335Y400619D01*
X1311609Y402000D01*
X1311335Y403381D01*
X1310552Y404552D01*
X1309381Y405335D01*
X1308000Y405609D01*
D02*
G37*
G36*
X1213610Y395650D02*
X1200840D01*
Y388380D01*
X1213610D01*
Y395650D01*
D02*
G37*
G36*
X1198300D02*
X1185530D01*
Y388380D01*
X1198300D01*
Y395650D01*
D02*
G37*
G36*
X1320000Y405609D02*
X1318619Y405335D01*
X1317448Y404552D01*
X1316665Y403381D01*
X1316391Y402000D01*
X1316665Y400619D01*
X1317448Y399448D01*
X1317686Y399289D01*
Y395080D01*
X1316000D01*
Y387080D01*
X1324000D01*
Y388765D01*
X1328000D01*
Y387080D01*
X1336000D01*
Y395080D01*
X1328000D01*
Y393395D01*
X1324000D01*
Y395080D01*
X1322314D01*
Y399289D01*
X1322552Y399448D01*
X1323335Y400619D01*
X1323609Y402000D01*
X1323335Y403381D01*
X1322552Y404552D01*
X1321381Y405335D01*
X1320000Y405609D01*
D02*
G37*
G36*
X1250710Y385840D02*
X1239440D01*
Y378570D01*
X1250710D01*
Y385840D01*
D02*
G37*
G36*
X1236900D02*
X1225630D01*
Y378570D01*
X1236900D01*
Y385840D01*
D02*
G37*
G36*
X1213610D02*
X1200840D01*
Y378570D01*
X1213610D01*
Y385840D01*
D02*
G37*
G36*
X1198300D02*
X1185530D01*
Y378570D01*
X1198300D01*
Y385840D01*
D02*
G37*
G36*
X1336000Y384920D02*
X1328000D01*
Y376920D01*
X1328114D01*
X1329020Y375650D01*
X1328891Y375000D01*
X1329165Y373619D01*
X1329948Y372448D01*
X1331119Y371665D01*
X1332500Y371391D01*
X1333881Y371665D01*
X1335052Y372448D01*
X1335835Y373619D01*
X1336109Y375000D01*
X1335980Y375650D01*
X1336000Y376920D01*
X1336000Y376920D01*
X1336000Y376920D01*
Y384920D01*
D02*
G37*
G36*
X1324000D02*
X1316000D01*
Y376920D01*
X1317686D01*
Y372711D01*
X1317448Y372552D01*
X1316665Y371381D01*
X1316391Y370000D01*
X1316665Y368619D01*
X1317448Y367448D01*
X1318619Y366665D01*
X1320000Y366391D01*
X1321381Y366665D01*
X1322552Y367448D01*
X1323335Y368619D01*
X1323609Y370000D01*
X1323335Y371381D01*
X1322552Y372552D01*
X1322314Y372711D01*
Y376920D01*
X1324000D01*
Y384920D01*
D02*
G37*
G36*
X1300000D02*
X1292000D01*
Y376920D01*
X1292686D01*
Y372711D01*
X1292448Y372552D01*
X1291665Y371381D01*
X1291391Y370000D01*
X1291665Y368619D01*
X1292448Y367448D01*
X1293619Y366665D01*
X1295000Y366391D01*
X1296381Y366665D01*
X1297552Y367448D01*
X1298335Y368619D01*
X1298609Y370000D01*
X1298335Y371381D01*
X1297552Y372552D01*
X1297314Y372711D01*
Y376920D01*
X1300000D01*
Y384920D01*
D02*
G37*
G36*
X1303940Y363240D02*
X1294670D01*
Y353970D01*
X1303940D01*
Y363240D01*
D02*
G37*
G36*
X1292130D02*
X1282860D01*
Y353970D01*
X1292130D01*
Y363240D01*
D02*
G37*
G36*
X1312000Y384920D02*
X1304000D01*
Y376920D01*
X1304000Y376920D01*
X1304020Y375650D01*
X1303891Y375000D01*
X1304165Y373619D01*
X1304948Y372448D01*
X1305186Y372289D01*
Y365000D01*
X1305362Y364114D01*
X1305863Y363363D01*
X1309800Y359427D01*
Y343700D01*
X1327800D01*
Y361700D01*
X1314073D01*
X1309814Y365959D01*
Y372289D01*
X1310052Y372448D01*
X1310835Y373619D01*
X1311109Y375000D01*
X1310980Y375650D01*
X1311886Y376920D01*
X1312000D01*
Y384920D01*
D02*
G37*
G36*
X1277000Y361700D02*
X1259000D01*
Y343700D01*
X1277000D01*
Y361700D01*
D02*
G37*
G36*
X1242600Y361778D02*
X1240250Y361468D01*
X1238061Y360561D01*
X1236181Y359119D01*
X1234739Y357239D01*
X1233832Y355050D01*
X1233522Y352700D01*
X1233832Y350350D01*
X1234739Y348161D01*
X1236181Y346281D01*
X1238061Y344839D01*
X1240250Y343932D01*
X1242600Y343622D01*
X1244949Y343932D01*
X1247139Y344839D01*
X1249019Y346281D01*
X1250462Y348161D01*
X1251368Y350350D01*
X1251678Y352700D01*
X1251368Y355050D01*
X1250462Y357239D01*
X1249019Y359119D01*
X1247139Y360561D01*
X1244949Y361468D01*
X1242600Y361778D01*
D02*
G37*
G36*
X1217200D02*
X1214850Y361468D01*
X1212661Y360561D01*
X1210781Y359119D01*
X1209339Y357239D01*
X1208432Y355050D01*
X1208122Y352700D01*
X1208432Y350350D01*
X1209339Y348161D01*
X1210781Y346281D01*
X1212661Y344839D01*
X1214850Y343932D01*
X1217200Y343622D01*
X1219549Y343932D01*
X1221739Y344839D01*
X1223619Y346281D01*
X1225061Y348161D01*
X1225968Y350350D01*
X1226278Y352700D01*
X1225968Y355050D01*
X1225061Y357239D01*
X1223619Y359119D01*
X1221739Y360561D01*
X1219549Y361468D01*
X1217200Y361778D01*
D02*
G37*
G36*
X1303940Y351430D02*
X1294670D01*
Y342160D01*
X1303940D01*
Y351430D01*
D02*
G37*
G36*
X1292130D02*
X1282860D01*
Y342160D01*
X1292130D01*
Y351430D01*
D02*
G37*
G36*
X1318800Y336378D02*
X1316451Y336068D01*
X1314261Y335162D01*
X1312381Y333719D01*
X1310939Y331839D01*
X1310032Y329650D01*
X1309722Y327300D01*
X1310032Y324950D01*
X1310939Y322761D01*
X1312381Y320881D01*
X1314261Y319439D01*
X1316451Y318532D01*
X1318800Y318222D01*
X1321149Y318532D01*
X1323339Y319439D01*
X1325219Y320881D01*
X1326662Y322761D01*
X1327568Y324950D01*
X1327878Y327300D01*
X1327568Y329650D01*
X1326662Y331839D01*
X1325219Y333719D01*
X1323339Y335162D01*
X1321149Y336068D01*
X1318800Y336378D01*
D02*
G37*
G36*
X1293400D02*
X1291051Y336068D01*
X1288861Y335162D01*
X1286981Y333719D01*
X1285539Y331839D01*
X1284632Y329650D01*
X1284322Y327300D01*
X1284632Y324950D01*
X1285539Y322761D01*
X1286981Y320881D01*
X1288861Y319439D01*
X1291051Y318532D01*
X1293400Y318222D01*
X1295750Y318532D01*
X1297939Y319439D01*
X1299819Y320881D01*
X1301261Y322761D01*
X1302168Y324950D01*
X1302478Y327300D01*
X1302168Y329650D01*
X1301261Y331839D01*
X1299819Y333719D01*
X1297939Y335162D01*
X1295750Y336068D01*
X1293400Y336378D01*
D02*
G37*
G36*
X1268000D02*
X1265650Y336068D01*
X1263461Y335162D01*
X1261581Y333719D01*
X1260139Y331839D01*
X1259232Y329650D01*
X1258922Y327300D01*
X1259232Y324950D01*
X1260139Y322761D01*
X1261581Y320881D01*
X1263461Y319439D01*
X1265650Y318532D01*
X1268000Y318222D01*
X1270350Y318532D01*
X1272539Y319439D01*
X1274419Y320881D01*
X1275862Y322761D01*
X1276768Y324950D01*
X1277078Y327300D01*
X1276768Y329650D01*
X1275862Y331839D01*
X1274419Y333719D01*
X1272539Y335162D01*
X1270350Y336068D01*
X1268000Y336378D01*
D02*
G37*
G36*
X1242600D02*
X1240250Y336068D01*
X1238061Y335162D01*
X1236181Y333719D01*
X1234739Y331839D01*
X1233832Y329650D01*
X1233522Y327300D01*
X1233832Y324950D01*
X1234739Y322761D01*
X1236181Y320881D01*
X1238061Y319439D01*
X1240250Y318532D01*
X1242600Y318222D01*
X1244949Y318532D01*
X1247139Y319439D01*
X1249019Y320881D01*
X1250462Y322761D01*
X1251368Y324950D01*
X1251678Y327300D01*
X1251368Y329650D01*
X1250462Y331839D01*
X1249019Y333719D01*
X1247139Y335162D01*
X1244949Y336068D01*
X1242600Y336378D01*
D02*
G37*
G36*
X1217200D02*
X1214850Y336068D01*
X1212661Y335162D01*
X1210781Y333719D01*
X1209339Y331839D01*
X1208432Y329650D01*
X1208122Y327300D01*
X1208432Y324950D01*
X1209339Y322761D01*
X1210781Y320881D01*
X1212661Y319439D01*
X1214850Y318532D01*
X1217200Y318222D01*
X1219549Y318532D01*
X1221739Y319439D01*
X1223619Y320881D01*
X1225061Y322761D01*
X1225968Y324950D01*
X1226278Y327300D01*
X1225968Y329650D01*
X1225061Y331839D01*
X1223619Y333719D01*
X1221739Y335162D01*
X1219549Y336068D01*
X1217200Y336378D01*
D02*
G37*
G36*
X1281420Y456500D02*
X1273420D01*
Y455883D01*
X1273386Y455851D01*
X1272150Y455321D01*
X1271381Y455835D01*
X1270000Y456109D01*
X1268619Y455835D01*
X1267448Y455052D01*
X1266665Y453881D01*
X1266391Y452500D01*
X1266665Y451119D01*
X1267448Y449948D01*
X1268619Y449165D01*
X1270000Y448891D01*
X1271381Y449165D01*
X1272150Y449679D01*
X1273386Y449149D01*
X1273420Y449117D01*
Y448500D01*
X1281420D01*
Y456500D01*
D02*
G37*
G36*
X1292080Y424000D02*
X1284080D01*
Y416000D01*
X1285766D01*
Y412000D01*
X1284080D01*
Y404000D01*
X1292080D01*
Y412000D01*
X1290394D01*
Y416000D01*
X1292080D01*
Y417686D01*
X1313289D01*
X1313448Y417448D01*
X1314619Y416665D01*
X1316000Y416391D01*
X1317381Y416665D01*
X1318552Y417448D01*
X1319335Y418619D01*
X1319609Y420000D01*
X1319335Y421381D01*
X1318552Y422552D01*
X1317381Y423335D01*
X1316000Y423609D01*
X1314619Y423335D01*
X1313448Y422552D01*
X1313289Y422314D01*
X1292080D01*
Y424000D01*
D02*
G37*
%LPD*%
D12*
X1351600Y464200D02*
D03*
D13*
X1360000Y457500D02*
D03*
Y452500D02*
D03*
Y447500D02*
D03*
Y442500D02*
D03*
Y437500D02*
D03*
Y432500D02*
D03*
Y427500D02*
D03*
Y422500D02*
D03*
Y417500D02*
D03*
Y412500D02*
D03*
Y407500D02*
D03*
Y402500D02*
D03*
D14*
X1241970Y461410D02*
D03*
Y453910D02*
D03*
X1242000Y406910D02*
D03*
X1241970Y399410D02*
D03*
D15*
Y447910D02*
D03*
Y442910D02*
D03*
Y437910D02*
D03*
Y432910D02*
D03*
X1242000Y427910D02*
D03*
X1241970Y422910D02*
D03*
Y417910D02*
D03*
Y412910D02*
D03*
D16*
X1332000Y391080D02*
D03*
Y380920D02*
D03*
X1308000D02*
D03*
Y391080D02*
D03*
X1296000D02*
D03*
Y380920D02*
D03*
X1320000Y391080D02*
D03*
Y380920D02*
D03*
D17*
X1288080Y408000D02*
D03*
X1277920D02*
D03*
X1287580Y452500D02*
D03*
X1277420D02*
D03*
X1287580Y440000D02*
D03*
X1277420D02*
D03*
X1288080Y420000D02*
D03*
X1277920D02*
D03*
D29*
X1320000Y370000D02*
Y380920D01*
X1308000Y374000D02*
Y380920D01*
X1307500Y374500D02*
Y375000D01*
Y365000D02*
Y374500D01*
Y365000D02*
X1315000Y357500D01*
X1332500Y375000D02*
Y381420D01*
X1307500Y374500D02*
X1308000Y374000D01*
X1332000Y380920D02*
X1332500Y381420D01*
X1295000Y370000D02*
Y379920D01*
X1296000Y380920D01*
X1242060Y443000D02*
X1257500D01*
X1260000Y440000D02*
Y440500D01*
X1257500Y443000D02*
X1260000Y440500D01*
X1241970Y442910D02*
X1242060Y443000D01*
X1270000Y452500D02*
X1277420D01*
X1260000Y440000D02*
X1277420D01*
X1329080Y391080D02*
X1330000Y392000D01*
X1320000Y391080D02*
X1329080D01*
X1306920D02*
X1308000Y390000D01*
X1296000Y391080D02*
X1306920D01*
X1288080Y442920D02*
X1289000Y442000D01*
X1302000D01*
X1288080D02*
X1289000D01*
X1288000D02*
X1288080D01*
X1302000D02*
X1306500Y437500D01*
X1360000D01*
X1288080Y420000D02*
Y420920D01*
Y411000D02*
Y420000D01*
X1287920Y420920D02*
X1288080D01*
Y420000D02*
X1316000D01*
X1308000Y380920D02*
Y382000D01*
X1320000Y392000D02*
Y402000D01*
X1308000Y394000D02*
Y402000D01*
X1337500Y410000D02*
X1345000Y417500D01*
X1305000Y410000D02*
X1337500D01*
X1266000Y399000D02*
X1294000D01*
X1305000Y410000D01*
X1258090Y406910D02*
X1266000Y399000D01*
X1332000Y420000D02*
X1334500Y422500D01*
X1360000D01*
X1266500Y383500D02*
X1270000Y380000D01*
X1262890Y387110D02*
X1266500Y383500D01*
X1238170Y387110D02*
X1262890D01*
X1360000Y417500D02*
X1362500D01*
X1345000D02*
X1360000D01*
X1313500Y442500D02*
X1360000D01*
X1293810Y462190D02*
X1313500Y442500D01*
X1276000Y420000D02*
X1277000Y421000D01*
X1260000Y420000D02*
X1276000D01*
X1241970Y427910D02*
X1356090D01*
X1241970Y437910D02*
X1253000D01*
X1231500Y432590D02*
X1242530D01*
X1244500Y432500D02*
X1360000D01*
X1231500Y422590D02*
Y432590D01*
Y422590D02*
X1242530D01*
X1238170Y473610D02*
X1351390D01*
X1245000Y406910D02*
X1258090D01*
X1276000Y409000D02*
X1277000Y410000D01*
X1269000Y409000D02*
X1269000D01*
X1265090Y412910D02*
X1269000Y409000D01*
X1241970Y412910D02*
X1265090D01*
X1269000Y409000D02*
X1276000D01*
X1267190Y462190D02*
X1293810D01*
X1258910Y453910D02*
X1267190Y462190D01*
X1241970Y453910D02*
X1258910D01*
X1288080Y420920D02*
Y421000D01*
X1226000Y406910D02*
Y453910D01*
X1288080Y442920D02*
Y452000D01*
X1288000Y443000D02*
X1288080Y442920D01*
X1238170Y473610D02*
X1241970Y469810D01*
Y461410D02*
Y469810D01*
X1238170Y387110D02*
X1241970Y390910D01*
Y399410D01*
X1226000Y453910D02*
X1241970D01*
X1226000Y406910D02*
X1242000D01*
X1241970Y399410D02*
Y399410D01*
D30*
X1318800Y537700D02*
D03*
X1293400D02*
D03*
X1268000D02*
D03*
X1242600D02*
D03*
X1217200D02*
D03*
X1293400Y512300D02*
D03*
X1318800D02*
D03*
X1242600Y352700D02*
D03*
X1217200D02*
D03*
Y327300D02*
D03*
X1242600D02*
D03*
X1268000D02*
D03*
X1293400D02*
D03*
X1318800D02*
D03*
D31*
X1217200Y512300D02*
D03*
X1242600D02*
D03*
X1268000D02*
D03*
X1318800Y352700D02*
D03*
X1293400D02*
D03*
X1268000D02*
D03*
D32*
X1238170Y473610D02*
D03*
Y387110D02*
D03*
D33*
X1199570Y473610D02*
D03*
Y387110D02*
D03*
D34*
X1320000Y370000D02*
D03*
X1307500Y375000D02*
D03*
X1332500D02*
D03*
X1295000Y370000D02*
D03*
X1260000Y440000D02*
D03*
X1270000Y452500D02*
D03*
X1316000Y420000D02*
D03*
X1308000Y402000D02*
D03*
X1320000D02*
D03*
X1332000Y420000D02*
D03*
X1345000Y442500D02*
D03*
Y417500D02*
D03*
X1260000Y420000D02*
D03*
X1253000Y438000D02*
D03*
Y426000D02*
D03*
X1269000Y409000D02*
D03*
M02*
