G04*
G04 #@! TF.GenerationSoftware,Altium Limited,Altium Designer,18.1.7 (191)*
G04*
G04 Layer_Color=32896*
%FSLAX44Y44*%
%MOMM*%
G71*
G01*
G75*
G36*
X1199354Y452905D02*
X1199701Y452859D01*
X1200025Y452767D01*
X1200326Y452697D01*
X1200581Y452605D01*
X1200766Y452512D01*
X1200905Y452466D01*
X1200928Y452443D01*
X1200951D01*
X1201483Y452165D01*
X1201923Y451864D01*
X1202293Y451540D01*
X1202571Y451239D01*
X1202802Y450962D01*
X1202964Y450754D01*
X1203010Y450661D01*
X1203057Y450592D01*
X1203080Y450568D01*
Y450545D01*
X1203195Y450221D01*
X1203288Y449944D01*
X1203311Y449851D01*
X1203334Y449758D01*
X1203357Y449712D01*
Y449689D01*
X1203381Y449527D01*
X1203357Y449388D01*
X1203311Y449249D01*
X1203265Y449134D01*
X1203195Y449041D01*
X1203149Y448972D01*
X1203103Y448925D01*
X1203080Y448902D01*
X1202941Y448833D01*
X1202802Y448787D01*
X1202686D01*
X1202594Y448810D01*
X1202455Y448856D01*
X1202432Y448902D01*
X1202409D01*
X1202154Y449134D01*
X1201946Y449319D01*
X1201807Y449435D01*
X1201784Y449481D01*
X1201761D01*
X1201506Y449666D01*
X1201275Y449828D01*
X1201182Y449874D01*
X1201113Y449920D01*
X1201067Y449967D01*
X1201043D01*
X1200789Y450129D01*
X1200557Y450267D01*
X1200465Y450314D01*
X1200396Y450337D01*
X1200349Y450360D01*
X1200326D01*
X1200164Y450406D01*
X1200049D01*
X1199840Y450360D01*
X1199725Y450314D01*
X1199678Y450267D01*
X1199609Y450152D01*
X1199586Y450036D01*
X1199563Y449805D01*
Y449712D01*
Y449643D01*
X1199586Y449596D01*
Y449573D01*
X1199655Y449435D01*
X1199725Y449296D01*
X1199771Y449203D01*
X1199794Y449157D01*
X1199886Y449018D01*
X1199979Y448879D01*
X1200049Y448787D01*
X1200072Y448764D01*
X1200396Y448347D01*
X1200557Y448139D01*
X1200696Y447977D01*
X1200812Y447815D01*
X1200905Y447699D01*
X1200974Y447630D01*
X1200997Y447607D01*
X1201344Y447190D01*
X1201506Y447005D01*
X1201645Y446820D01*
X1201761Y446658D01*
X1201853Y446542D01*
X1201900Y446450D01*
X1201923Y446426D01*
X1202200Y446010D01*
X1202478Y445593D01*
X1202756Y445223D01*
X1202987Y444876D01*
X1203172Y444575D01*
X1203334Y444367D01*
X1203404Y444274D01*
X1203427Y444205D01*
X1203473Y444182D01*
Y444159D01*
X1203751Y443719D01*
X1204028Y443303D01*
X1204260Y442909D01*
X1204468Y442562D01*
X1204653Y442261D01*
X1204792Y442053D01*
X1204838Y441960D01*
X1204885Y441891D01*
X1204908Y441868D01*
Y441845D01*
X1205116Y441428D01*
X1205301Y441012D01*
X1205463Y440618D01*
X1205602Y440271D01*
X1205695Y439971D01*
X1205764Y439762D01*
X1205810Y439670D01*
Y439600D01*
X1205833Y439577D01*
Y439554D01*
X1205949Y439114D01*
X1206065Y438675D01*
X1206134Y438281D01*
X1206204Y437934D01*
X1206250Y437633D01*
X1206296Y437402D01*
Y437309D01*
X1206319Y437240D01*
Y437217D01*
Y437194D01*
X1206296Y436986D01*
X1206273Y436824D01*
Y436708D01*
Y436662D01*
Y436523D01*
X1206250Y436384D01*
X1206227Y436291D01*
Y436268D01*
X1206180Y436014D01*
X1206111Y435759D01*
X1205926Y435296D01*
X1205695Y434903D01*
X1205440Y434579D01*
X1205209Y434324D01*
X1205000Y434139D01*
X1204862Y434047D01*
X1204838Y434001D01*
X1204815D01*
X1204584Y433862D01*
X1204329Y433746D01*
X1204098Y433677D01*
X1203867Y433630D01*
X1203404Y433607D01*
X1202964Y433630D01*
X1202594Y433700D01*
X1202455Y433746D01*
X1202316Y433792D01*
X1202200Y433815D01*
X1202131Y433862D01*
X1202085Y433885D01*
X1202062D01*
X1201529Y434162D01*
X1201043Y434463D01*
X1200604Y434741D01*
X1200234Y435019D01*
X1199910Y435273D01*
X1199678Y435458D01*
X1199609Y435551D01*
X1199539Y435597D01*
X1199516Y435643D01*
X1199493D01*
X1199077Y436037D01*
X1198683Y436430D01*
X1198336Y436800D01*
X1198012Y437147D01*
X1197735Y437425D01*
X1197549Y437657D01*
X1197457Y437749D01*
X1197411Y437818D01*
X1197364Y437842D01*
Y437865D01*
X1197318Y437934D01*
X1197272Y438004D01*
X1197249Y438189D01*
X1197225Y438328D01*
Y438374D01*
Y438397D01*
Y438536D01*
X1197249Y438652D01*
X1197295Y438814D01*
X1197341Y438906D01*
X1197364Y438929D01*
X1197411Y438975D01*
X1197480Y439022D01*
X1197642Y439045D01*
X1197781Y439068D01*
X1198105D01*
X1198267Y439045D01*
X1198359Y438999D01*
X1198382Y438975D01*
X1198660Y438790D01*
X1198892Y438605D01*
X1198984Y438513D01*
X1199053Y438466D01*
X1199077Y438420D01*
X1199100Y438397D01*
X1199354Y438143D01*
X1199563Y437911D01*
X1199632Y437818D01*
X1199701Y437749D01*
X1199725Y437703D01*
X1199748Y437680D01*
X1200141Y437263D01*
X1200326Y437078D01*
X1200511Y436893D01*
X1200650Y436754D01*
X1200766Y436638D01*
X1200835Y436569D01*
X1200858Y436546D01*
X1201275Y436222D01*
X1201506Y436106D01*
X1201714Y435990D01*
X1201877Y435898D01*
X1202015Y435829D01*
X1202131Y435805D01*
X1202154Y435782D01*
X1202432Y435713D01*
X1202663Y435690D01*
X1202871D01*
X1203034Y435713D01*
X1203149Y435759D01*
X1203242Y435782D01*
X1203288Y435829D01*
X1203311D01*
X1203450Y435967D01*
X1203542Y436152D01*
X1203589Y436338D01*
X1203612Y436546D01*
X1203589Y436708D01*
Y436847D01*
X1203566Y436939D01*
Y436986D01*
X1203473Y437425D01*
X1203427Y437610D01*
X1203381Y437795D01*
X1203334Y437934D01*
X1203288Y438073D01*
X1203265Y438143D01*
Y438166D01*
X1203103Y438582D01*
X1203034Y438767D01*
X1202941Y438906D01*
X1202895Y439045D01*
X1202825Y439137D01*
X1202802Y439207D01*
X1202779Y439230D01*
X1202316Y440063D01*
X1201853Y440873D01*
X1201414Y441613D01*
X1201205Y441960D01*
X1201020Y442284D01*
X1200858Y442585D01*
X1200696Y442863D01*
X1200557Y443094D01*
X1200442Y443303D01*
X1200349Y443465D01*
X1200280Y443580D01*
X1200234Y443650D01*
X1200210Y443673D01*
X1199725Y444506D01*
X1199262Y445316D01*
X1198845Y446056D01*
X1198637Y446403D01*
X1198452Y446750D01*
X1198290Y447051D01*
X1198128Y447306D01*
X1197989Y447560D01*
X1197873Y447745D01*
X1197781Y447907D01*
X1197711Y448046D01*
X1197688Y448116D01*
X1197665Y448139D01*
X1197434Y448578D01*
X1197318Y448787D01*
X1197225Y448972D01*
X1197156Y449157D01*
X1197110Y449272D01*
X1197064Y449365D01*
Y449388D01*
X1196878Y449874D01*
X1196832Y450106D01*
X1196763Y450314D01*
X1196740Y450499D01*
X1196716Y450638D01*
X1196693Y450730D01*
Y450754D01*
X1196647Y451031D01*
Y451309D01*
X1196670Y451517D01*
X1196740Y451702D01*
X1196786Y451864D01*
X1196855Y451957D01*
X1196901Y452026D01*
X1196925Y452049D01*
X1197087Y452234D01*
X1197272Y452396D01*
X1197480Y452512D01*
X1197665Y452628D01*
X1197850Y452697D01*
X1197989Y452743D01*
X1198082Y452790D01*
X1198128D01*
X1198452Y452882D01*
X1198729Y452905D01*
X1198845Y452929D01*
X1199007D01*
X1199354Y452905D01*
D02*
G37*
G36*
X1304199Y452512D02*
X1305125Y452420D01*
X1305541Y452350D01*
X1305957Y452281D01*
X1306328Y452211D01*
X1306698Y452142D01*
X1306999Y452049D01*
X1307300Y451980D01*
X1307554Y451910D01*
X1307762Y451864D01*
X1307924Y451795D01*
X1308063Y451772D01*
X1308133Y451725D01*
X1308156D01*
X1308572Y451563D01*
X1308989Y451378D01*
X1309776Y450962D01*
X1310470Y450522D01*
X1310771Y450291D01*
X1311071Y450059D01*
X1311349Y449851D01*
X1311580Y449643D01*
X1311789Y449481D01*
X1311951Y449319D01*
X1312090Y449180D01*
X1312182Y449087D01*
X1312251Y449018D01*
X1312275Y448995D01*
X1312807Y448416D01*
X1313270Y447815D01*
X1313709Y447236D01*
X1314079Y446658D01*
X1314403Y446079D01*
X1314704Y445547D01*
X1314936Y445015D01*
X1315144Y444529D01*
X1315329Y444066D01*
X1315468Y443650D01*
X1315583Y443279D01*
X1315676Y442979D01*
X1315746Y442724D01*
X1315792Y442539D01*
X1315815Y442423D01*
Y442377D01*
X1315884Y441937D01*
X1315931Y441498D01*
X1315954Y441104D01*
X1315977Y440734D01*
X1316000Y440433D01*
Y440202D01*
Y440109D01*
Y440040D01*
Y440017D01*
Y439994D01*
X1315954Y439068D01*
X1315861Y438143D01*
X1315746Y437286D01*
X1315676Y436870D01*
X1315583Y436500D01*
X1315514Y436152D01*
X1315445Y435829D01*
X1315375Y435551D01*
X1315306Y435320D01*
X1315260Y435111D01*
X1315213Y434972D01*
X1315190Y434880D01*
Y434857D01*
X1314889Y434047D01*
X1314565Y433260D01*
X1314241Y432566D01*
X1314103Y432242D01*
X1313941Y431941D01*
X1313802Y431664D01*
X1313663Y431432D01*
X1313547Y431201D01*
X1313455Y431039D01*
X1313362Y430877D01*
X1313293Y430784D01*
X1313270Y430715D01*
X1313246Y430692D01*
X1312784Y429974D01*
X1312321Y429303D01*
X1311881Y428655D01*
X1311488Y428077D01*
X1311303Y427845D01*
X1311141Y427614D01*
X1311002Y427406D01*
X1310863Y427244D01*
X1310771Y427105D01*
X1310701Y427012D01*
X1310655Y426943D01*
X1310632Y426920D01*
X1309544Y425532D01*
X1309012Y424860D01*
X1308480Y424213D01*
X1307971Y423565D01*
X1307485Y422986D01*
X1306999Y422408D01*
X1306559Y421899D01*
X1306143Y421413D01*
X1305772Y420996D01*
X1305425Y420626D01*
X1305148Y420302D01*
X1304916Y420047D01*
X1304754Y419862D01*
X1304662Y419747D01*
X1304615Y419700D01*
X1303435Y418405D01*
X1302255Y417178D01*
X1301700Y416600D01*
X1301145Y416044D01*
X1300635Y415512D01*
X1300150Y415026D01*
X1299710Y414587D01*
X1299293Y414193D01*
X1298923Y413823D01*
X1298622Y413522D01*
X1298391Y413291D01*
X1298206Y413106D01*
X1298090Y413013D01*
X1298044Y412967D01*
X1297489Y412481D01*
X1297234Y412273D01*
X1297003Y412064D01*
X1296817Y411902D01*
X1296679Y411787D01*
X1296563Y411694D01*
X1296540Y411671D01*
X1295984Y411185D01*
X1295707Y410977D01*
X1295475Y410769D01*
X1295267Y410607D01*
X1295128Y410491D01*
X1295013Y410398D01*
X1294989Y410375D01*
X1294874Y410445D01*
X1294781Y410491D01*
X1294712Y410537D01*
X1294689D01*
X1294550Y410676D01*
X1294527Y410699D01*
X1294503Y410722D01*
X1293671Y411463D01*
X1292861Y412203D01*
X1292120Y412897D01*
X1291796Y413221D01*
X1291472Y413522D01*
X1291195Y413823D01*
X1290940Y414077D01*
X1290709Y414309D01*
X1290524Y414494D01*
X1290362Y414656D01*
X1290246Y414772D01*
X1290176Y414841D01*
X1290153Y414864D01*
X1289390Y415674D01*
X1288649Y416461D01*
X1287955Y417201D01*
X1287654Y417548D01*
X1287353Y417896D01*
X1287099Y418196D01*
X1286844Y418474D01*
X1286636Y418705D01*
X1286451Y418914D01*
X1286312Y419076D01*
X1286220Y419215D01*
X1286150Y419284D01*
X1286127Y419307D01*
X1285572Y419978D01*
X1285294Y420302D01*
X1285063Y420580D01*
X1284854Y420811D01*
X1284716Y420996D01*
X1284600Y421112D01*
X1284577Y421158D01*
X1284299Y421528D01*
X1284044Y421875D01*
X1283790Y422223D01*
X1283582Y422523D01*
X1283420Y422778D01*
X1283281Y422986D01*
X1283188Y423102D01*
X1283165Y423148D01*
X1282934Y423541D01*
X1282795Y423912D01*
X1282702Y424236D01*
X1282656Y424537D01*
X1282633Y424791D01*
X1282656Y424976D01*
X1282679Y425092D01*
Y425138D01*
X1282795Y425462D01*
X1282957Y425786D01*
X1283142Y426064D01*
X1283350Y426318D01*
X1283535Y426526D01*
X1283697Y426688D01*
X1283813Y426781D01*
X1283859Y426827D01*
X1284276Y427151D01*
X1284692Y427406D01*
X1285109Y427591D01*
X1285479Y427753D01*
X1285803Y427869D01*
X1286035Y427938D01*
X1286127Y427961D01*
X1286196Y427984D01*
X1286266D01*
X1286752Y428054D01*
X1287238Y428100D01*
X1288117D01*
X1288487Y428077D01*
X1288626D01*
X1288765Y428054D01*
X1288858D01*
X1288927Y428031D01*
X1288996D01*
X1289413Y427938D01*
X1289598Y427869D01*
X1289760Y427799D01*
X1289899Y427730D01*
X1290014Y427683D01*
X1290084Y427660D01*
X1290107Y427637D01*
X1290292Y427522D01*
X1290454Y427383D01*
X1290593Y427221D01*
X1290685Y427082D01*
X1290778Y426943D01*
X1290824Y426827D01*
X1290847Y426758D01*
X1290871Y426735D01*
X1290986Y426411D01*
X1291056Y426133D01*
Y426017D01*
X1291079Y425925D01*
Y425879D01*
Y425855D01*
X1291056Y425694D01*
X1291033Y425532D01*
X1290917Y425277D01*
X1290871Y425161D01*
X1290824Y425092D01*
X1290801Y425046D01*
X1290778Y425023D01*
X1290662Y424907D01*
X1290547Y424814D01*
X1290431Y424745D01*
X1290338Y424698D01*
X1290246Y424675D01*
X1290176Y424652D01*
X1290107D01*
X1289806Y424675D01*
X1289552Y424698D01*
X1289436Y424722D01*
X1289343D01*
X1289297Y424745D01*
X1289274D01*
X1289066Y424791D01*
X1288858Y424837D01*
X1288696Y424860D01*
X1288672Y424884D01*
X1288649D01*
X1288395Y424953D01*
X1288186Y424999D01*
X1288094D01*
X1288024Y425023D01*
X1287978D01*
X1287770Y424999D01*
X1287585Y424976D01*
X1287446Y424907D01*
X1287307Y424837D01*
X1287215Y424768D01*
X1287145Y424722D01*
X1287122Y424675D01*
X1287099Y424652D01*
X1287030Y424490D01*
X1286983Y424305D01*
Y424143D01*
Y424004D01*
X1287006Y423866D01*
X1287030Y423773D01*
X1287053Y423703D01*
Y423680D01*
X1287238Y423333D01*
X1287469Y423009D01*
X1287724Y422709D01*
X1288001Y422477D01*
X1288256Y422269D01*
X1288464Y422130D01*
X1288603Y422014D01*
X1288626Y421991D01*
X1288649D01*
X1289089Y421760D01*
X1289505Y421598D01*
X1289899Y421505D01*
X1290223Y421436D01*
X1290524Y421390D01*
X1290917D01*
X1291357Y421482D01*
X1291750Y421621D01*
X1292097Y421760D01*
X1292398Y421945D01*
X1292629Y422107D01*
X1292814Y422223D01*
X1292907Y422338D01*
X1292953Y422361D01*
X1293231Y422685D01*
X1293462Y423032D01*
X1293647Y423380D01*
X1293763Y423703D01*
X1293879Y423981D01*
X1293925Y424189D01*
X1293948Y424282D01*
X1293971Y424351D01*
Y424375D01*
Y424398D01*
X1294041Y425046D01*
Y425647D01*
X1294018Y426226D01*
X1293971Y426712D01*
X1293948Y426920D01*
X1293902Y427128D01*
X1293879Y427290D01*
X1293856Y427429D01*
X1293833Y427545D01*
X1293809Y427637D01*
X1293786Y427683D01*
Y427707D01*
X1293601Y428262D01*
X1293370Y428817D01*
X1293138Y429303D01*
X1292907Y429743D01*
X1292699Y430113D01*
X1292606Y430275D01*
X1292537Y430391D01*
X1292467Y430507D01*
X1292421Y430576D01*
X1292375Y430622D01*
Y430645D01*
X1292259Y430784D01*
X1292166Y430900D01*
X1292051Y430992D01*
X1291981Y431062D01*
X1291842Y431108D01*
X1291819Y431131D01*
X1291680D01*
X1291565Y431108D01*
X1291333Y431016D01*
X1291218Y430946D01*
X1291148Y430900D01*
X1291102Y430877D01*
X1291079Y430854D01*
X1290801Y430668D01*
X1290500Y430507D01*
X1289945Y430229D01*
X1289413Y430021D01*
X1288927Y429882D01*
X1288510Y429789D01*
X1288348Y429766D01*
X1288186Y429743D01*
X1288071D01*
X1287978Y429720D01*
X1287307D01*
X1286729Y429789D01*
X1286173Y429882D01*
X1285664Y430021D01*
X1285433Y430067D01*
X1285248Y430136D01*
X1285063Y430206D01*
X1284901Y430252D01*
X1284785Y430298D01*
X1284692Y430345D01*
X1284646Y430368D01*
X1284623D01*
X1284345Y430507D01*
X1284091Y430645D01*
X1283836Y430807D01*
X1283628Y430946D01*
X1283466Y431062D01*
X1283327Y431177D01*
X1283235Y431247D01*
X1283212Y431270D01*
X1283026Y431502D01*
X1282888Y431756D01*
X1282772Y432011D01*
X1282702Y432265D01*
X1282656Y432473D01*
X1282633Y432659D01*
Y432774D01*
Y432820D01*
X1282656Y433144D01*
X1282726Y433445D01*
X1282795Y433700D01*
X1282888Y433931D01*
X1283003Y434093D01*
X1283073Y434232D01*
X1283142Y434301D01*
X1283165Y434324D01*
X1283605Y434718D01*
X1283813Y434903D01*
X1284021Y435042D01*
X1284183Y435181D01*
X1284322Y435273D01*
X1284415Y435320D01*
X1284438Y435343D01*
X1284530Y435389D01*
X1284577D01*
X1284646Y435435D01*
X1284669D01*
X1285132Y435644D01*
X1285595Y435805D01*
X1286035Y435944D01*
X1286405Y436037D01*
X1286729Y436129D01*
X1286983Y436176D01*
X1287076Y436199D01*
X1287145Y436222D01*
X1287191D01*
X1287677Y436245D01*
X1288163Y436268D01*
X1288603Y436245D01*
X1288996Y436199D01*
X1289320Y436176D01*
X1289575Y436129D01*
X1289667Y436106D01*
X1289737D01*
X1289783Y436083D01*
X1289806D01*
X1290130Y436014D01*
X1290385Y435967D01*
X1290570Y435944D01*
X1290847D01*
X1290917Y435967D01*
X1290963D01*
X1291056Y436060D01*
X1291171Y436199D01*
X1291264Y436384D01*
X1291357Y436569D01*
X1291426Y436731D01*
X1291495Y436893D01*
X1291519Y436986D01*
X1291542Y437032D01*
X1291750Y437726D01*
X1291912Y438397D01*
X1292028Y439022D01*
X1292097Y439600D01*
X1292143Y439855D01*
Y440086D01*
X1292166Y440294D01*
X1292190Y440456D01*
Y440595D01*
Y440688D01*
Y440757D01*
Y440780D01*
X1292166Y441475D01*
X1292120Y442146D01*
X1292028Y442794D01*
X1291935Y443349D01*
X1291912Y443603D01*
X1291866Y443812D01*
X1291819Y444020D01*
X1291773Y444182D01*
X1291750Y444321D01*
X1291727Y444413D01*
X1291704Y444483D01*
Y444506D01*
X1291565Y444969D01*
X1291380Y445385D01*
X1291195Y445779D01*
X1291010Y446102D01*
X1290847Y446380D01*
X1290709Y446588D01*
X1290616Y446727D01*
X1290593Y446773D01*
X1290292Y447144D01*
X1289968Y447491D01*
X1289644Y447769D01*
X1289320Y448000D01*
X1289043Y448185D01*
X1288811Y448301D01*
X1288719Y448347D01*
X1288649Y448393D01*
X1288626Y448416D01*
X1288603D01*
X1288140Y448601D01*
X1287654Y448740D01*
X1287191Y448856D01*
X1286705Y448902D01*
X1286266Y448949D01*
X1285803D01*
X1285387Y448926D01*
X1284970Y448879D01*
X1284600Y448810D01*
X1284253Y448764D01*
X1283952Y448694D01*
X1283697Y448625D01*
X1283489Y448555D01*
X1283350Y448509D01*
X1283235Y448486D01*
X1283212Y448463D01*
X1282679Y448231D01*
X1282216Y448000D01*
X1281777Y447722D01*
X1281360Y447421D01*
X1280990Y447121D01*
X1280666Y446820D01*
X1280388Y446519D01*
X1280134Y446241D01*
X1279902Y445941D01*
X1279717Y445686D01*
X1279556Y445455D01*
X1279417Y445246D01*
X1279324Y445061D01*
X1279255Y444945D01*
X1279231Y444853D01*
X1279208Y444830D01*
X1279070Y444483D01*
X1279000Y444136D01*
X1278954Y443812D01*
Y443534D01*
X1278977Y443303D01*
X1279000Y443117D01*
X1279023Y443002D01*
X1279046Y442956D01*
X1279162Y442632D01*
X1279324Y442354D01*
X1279509Y442122D01*
X1279717Y441937D01*
X1279879Y441775D01*
X1280041Y441683D01*
X1280134Y441613D01*
X1280180Y441590D01*
X1280504Y441451D01*
X1280805Y441359D01*
X1281106Y441313D01*
X1281360D01*
X1281592Y441336D01*
X1281754Y441359D01*
X1281869Y441405D01*
X1281916D01*
X1282240Y441544D01*
X1282517Y441706D01*
X1282772Y441914D01*
X1282980Y442122D01*
X1283142Y442308D01*
X1283258Y442470D01*
X1283350Y442562D01*
X1283374Y442608D01*
X1283559Y442932D01*
X1283721Y443187D01*
X1283790Y443303D01*
X1283859Y443372D01*
X1283882Y443418D01*
X1283906Y443441D01*
X1284091Y443719D01*
X1284253Y443974D01*
X1284322Y444066D01*
X1284392Y444136D01*
X1284415Y444182D01*
X1284438Y444205D01*
X1284623Y444413D01*
X1284808Y444598D01*
X1284993Y444737D01*
X1285178Y444853D01*
X1285317Y444969D01*
X1285433Y445038D01*
X1285525Y445061D01*
X1285549Y445084D01*
X1285780Y445154D01*
X1286035Y445177D01*
X1286497D01*
X1286682Y445154D01*
X1286821Y445107D01*
X1286914Y445084D01*
X1286960D01*
X1287238Y444969D01*
X1287492Y444830D01*
X1287724Y444668D01*
X1287909Y444529D01*
X1288048Y444413D01*
X1288163Y444298D01*
X1288233Y444228D01*
X1288256Y444205D01*
X1288418Y443974D01*
X1288557Y443719D01*
X1288649Y443465D01*
X1288719Y443233D01*
X1288788Y443025D01*
X1288811Y442863D01*
X1288834Y442747D01*
Y442701D01*
X1288858Y442377D01*
X1288834Y442099D01*
X1288811Y441822D01*
X1288765Y441590D01*
X1288742Y441382D01*
X1288696Y441243D01*
X1288649Y441128D01*
Y441104D01*
X1288533Y440827D01*
X1288418Y440572D01*
X1288279Y440341D01*
X1288140Y440132D01*
X1288001Y439947D01*
X1287909Y439832D01*
X1287839Y439739D01*
X1287816Y439716D01*
X1287492Y439369D01*
X1287191Y439068D01*
X1286868Y438767D01*
X1286544Y438513D01*
X1286220Y438281D01*
X1285896Y438073D01*
X1285595Y437888D01*
X1285317Y437726D01*
X1285040Y437587D01*
X1284808Y437472D01*
X1284577Y437356D01*
X1284392Y437286D01*
X1284253Y437217D01*
X1284137Y437171D01*
X1284068Y437147D01*
X1284044D01*
X1283651Y437032D01*
X1283258Y436939D01*
X1282471Y436824D01*
X1281707Y436777D01*
X1281013D01*
X1280689Y436800D01*
X1280412Y436824D01*
X1280157Y436847D01*
X1279949Y436870D01*
X1279764Y436893D01*
X1279648Y436916D01*
X1279556Y436939D01*
X1279532D01*
X1279046Y437055D01*
X1278607Y437194D01*
X1278190Y437356D01*
X1277820Y437541D01*
X1277450Y437749D01*
X1277126Y437957D01*
X1276825Y438189D01*
X1276571Y438397D01*
X1276339Y438628D01*
X1276131Y438814D01*
X1275969Y439022D01*
X1275830Y439184D01*
X1275714Y439323D01*
X1275645Y439415D01*
X1275599Y439485D01*
X1275575Y439508D01*
X1275344Y439901D01*
X1275159Y440318D01*
X1275020Y440734D01*
X1274928Y441128D01*
X1274835Y441521D01*
X1274789Y441891D01*
X1274766Y442261D01*
Y442608D01*
X1274789Y442932D01*
Y443210D01*
X1274835Y443465D01*
X1274858Y443696D01*
X1274904Y443881D01*
X1274928Y443997D01*
X1274951Y444089D01*
Y444113D01*
X1275136Y444737D01*
X1275344Y445316D01*
X1275552Y445848D01*
X1275784Y446288D01*
X1275969Y446681D01*
X1276061Y446843D01*
X1276131Y446959D01*
X1276200Y447074D01*
X1276246Y447144D01*
X1276293Y447190D01*
Y447213D01*
X1276663Y447745D01*
X1277033Y448231D01*
X1277427Y448671D01*
X1277774Y449064D01*
X1278098Y449388D01*
X1278352Y449620D01*
X1278445Y449712D01*
X1278514Y449782D01*
X1278560Y449805D01*
X1278584Y449828D01*
X1279278Y450360D01*
X1279972Y450823D01*
X1280643Y451193D01*
X1281268Y451494D01*
X1281545Y451610D01*
X1281800Y451725D01*
X1282031Y451818D01*
X1282216Y451887D01*
X1282379Y451934D01*
X1282494Y451980D01*
X1282564Y452003D01*
X1282587D01*
X1283397Y452188D01*
X1284207Y452327D01*
X1284993Y452396D01*
X1285340Y452420D01*
X1285687Y452443D01*
X1285988D01*
X1286266Y452466D01*
X1286729D01*
X1286914Y452443D01*
X1287145D01*
X1287863Y452373D01*
X1288533Y452281D01*
X1289158Y452142D01*
X1289691Y452003D01*
X1289922Y451910D01*
X1290130Y451841D01*
X1290315Y451795D01*
X1290477Y451725D01*
X1290616Y451679D01*
X1290709Y451633D01*
X1290755Y451610D01*
X1290778D01*
X1291403Y451309D01*
X1292005Y450985D01*
X1292513Y450615D01*
X1292976Y450268D01*
X1293185Y450106D01*
X1293347Y449967D01*
X1293508Y449828D01*
X1293647Y449712D01*
X1293740Y449620D01*
X1293809Y449550D01*
X1293856Y449504D01*
X1293879Y449481D01*
X1294087Y449273D01*
X1294249Y449087D01*
X1294365Y448949D01*
X1294388Y448926D01*
X1294411Y448902D01*
X1294573Y448694D01*
X1294735Y448509D01*
X1294851Y448370D01*
X1294874Y448347D01*
X1294897Y448324D01*
X1295013Y448393D01*
X1295105Y448439D01*
X1295151Y448463D01*
X1295244D01*
X1295290Y448486D01*
X1295336Y448509D01*
X1295429Y448648D01*
X1295522Y448764D01*
X1295591Y448833D01*
X1295614Y448856D01*
X1295753Y448995D01*
X1295869Y449111D01*
X1295938Y449180D01*
X1295961Y449203D01*
X1296540Y449758D01*
X1297118Y450244D01*
X1297650Y450661D01*
X1298159Y451008D01*
X1298391Y451147D01*
X1298599Y451263D01*
X1298784Y451378D01*
X1298946Y451448D01*
X1299062Y451517D01*
X1299178Y451563D01*
X1299224Y451610D01*
X1299247D01*
X1299941Y451910D01*
X1300635Y452119D01*
X1301306Y452281D01*
X1301908Y452396D01*
X1302186Y452443D01*
X1302440Y452466D01*
X1302672Y452489D01*
X1302857Y452512D01*
X1303019Y452535D01*
X1303227D01*
X1304199Y452512D01*
D02*
G37*
G36*
X1241653Y449920D02*
X1241931Y449828D01*
X1242047Y449782D01*
X1242139Y449735D01*
X1242185Y449712D01*
X1242208Y449689D01*
X1242394Y449527D01*
X1242556Y449342D01*
X1242833Y448995D01*
X1242926Y448833D01*
X1243018Y448694D01*
X1243065Y448601D01*
X1243088Y448578D01*
X1243180Y448324D01*
X1243250Y448092D01*
X1243273Y447907D01*
Y447769D01*
Y447630D01*
X1243250Y447560D01*
X1243227Y447514D01*
Y447491D01*
X1243157Y447398D01*
X1243065Y447329D01*
X1242972Y447282D01*
X1242926Y447259D01*
X1242787Y447236D01*
X1242694D01*
X1242625Y447259D01*
X1242602D01*
X1242208Y447468D01*
X1242023Y447583D01*
X1241838Y447653D01*
X1241699Y447745D01*
X1241584Y447792D01*
X1241514Y447815D01*
X1241491Y447838D01*
X1241075Y448092D01*
X1240890Y448208D01*
X1240704Y448301D01*
X1240566Y448393D01*
X1240450Y448463D01*
X1240380Y448486D01*
X1240357Y448509D01*
X1240288Y448578D01*
X1240219Y448671D01*
X1240195Y448740D01*
X1240172Y448764D01*
X1240126Y448856D01*
X1240080Y448949D01*
X1240057Y449018D01*
X1240033Y449041D01*
X1240103Y449157D01*
X1240149Y449249D01*
X1240195Y449319D01*
X1240219Y449342D01*
X1240288Y449435D01*
X1240380Y449504D01*
X1240450Y449550D01*
X1240473Y449573D01*
X1240635Y449712D01*
X1240774Y449805D01*
X1240936Y449874D01*
X1241051Y449920D01*
X1241167Y449944D01*
X1241260Y449967D01*
X1241491D01*
X1241653Y449920D01*
D02*
G37*
G36*
X1211896Y449596D02*
X1211965D01*
X1212011Y449573D01*
X1212035D01*
X1212312Y449458D01*
X1212567Y449319D01*
X1212775Y449157D01*
X1212914Y448995D01*
X1213053Y448833D01*
X1213122Y448694D01*
X1213168Y448601D01*
X1213192Y448578D01*
X1213307Y448278D01*
X1213400Y447977D01*
X1213423Y447676D01*
X1213446Y447398D01*
Y447167D01*
X1213423Y446982D01*
X1213400Y446866D01*
Y446820D01*
X1213099Y446912D01*
X1212821Y447005D01*
X1212567Y447097D01*
X1212336Y447190D01*
X1212150Y447259D01*
X1212011Y447329D01*
X1211919Y447375D01*
X1211896Y447398D01*
X1211410Y447722D01*
X1211179Y447884D01*
X1210993Y448023D01*
X1210808Y448139D01*
X1210693Y448231D01*
X1210600Y448301D01*
X1210577Y448324D01*
X1210531Y448393D01*
X1210484Y448486D01*
Y448578D01*
Y448625D01*
Y448787D01*
X1210508Y448902D01*
X1210531Y448972D01*
Y448995D01*
X1210623Y449111D01*
X1210716Y449226D01*
X1210947Y449388D01*
X1211063Y449458D01*
X1211155Y449504D01*
X1211202Y449527D01*
X1211225D01*
X1211387Y449573D01*
X1211549Y449596D01*
X1211803Y449620D01*
X1211896Y449596D01*
D02*
G37*
G36*
X1211410Y445871D02*
X1211503Y445825D01*
X1211572Y445779D01*
X1211595Y445755D01*
X1211711Y445732D01*
X1211803Y445686D01*
X1211873Y445663D01*
X1211896D01*
X1212521Y445339D01*
X1213122Y445038D01*
X1213678Y444737D01*
X1214164Y444459D01*
X1214395Y444344D01*
X1214580Y444228D01*
X1214765Y444136D01*
X1214904Y444043D01*
X1215020Y443974D01*
X1215112Y443927D01*
X1215158Y443904D01*
X1215182Y443881D01*
X1215806Y443580D01*
X1216431Y443349D01*
X1217056Y443187D01*
X1217611Y443071D01*
X1217866Y443025D01*
X1218097Y443002D01*
X1218306Y442979D01*
X1218467D01*
X1218629Y442956D01*
X1218814D01*
X1218953Y442932D01*
X1219046Y442909D01*
X1219138Y442863D01*
X1219208Y442817D01*
X1219277Y442701D01*
X1219301Y442678D01*
Y442655D01*
X1219324Y442469D01*
X1219301Y442308D01*
X1219277Y442215D01*
X1219254Y442169D01*
X1219092Y442007D01*
X1218930Y441845D01*
X1218814Y441729D01*
X1218791Y441706D01*
X1218768Y441683D01*
X1218583Y441567D01*
X1218421Y441475D01*
X1218282Y441428D01*
X1218259Y441405D01*
X1218236D01*
X1217981Y441359D01*
X1217519D01*
X1217195Y441382D01*
X1216894Y441405D01*
X1216593D01*
X1216755Y441035D01*
X1216824Y440873D01*
X1216894Y440711D01*
X1216963Y440595D01*
X1216986Y440503D01*
X1217033Y440456D01*
Y440433D01*
X1217195Y440109D01*
X1217334Y439855D01*
X1217380Y439739D01*
X1217426Y439670D01*
X1217449Y439623D01*
Y439600D01*
X1217681Y439114D01*
X1217796Y438883D01*
X1217889Y438675D01*
X1217981Y438513D01*
X1218028Y438374D01*
X1218074Y438281D01*
X1218097Y438258D01*
X1218306Y437749D01*
X1218398Y437518D01*
X1218491Y437309D01*
X1218537Y437147D01*
X1218583Y437009D01*
X1218629Y436916D01*
Y436893D01*
X1218699Y436592D01*
X1218745Y436291D01*
X1218768Y436014D01*
Y435759D01*
X1218699Y435296D01*
X1218560Y434903D01*
X1218421Y434602D01*
X1218282Y434371D01*
X1218190Y434232D01*
X1218143Y434209D01*
Y434186D01*
X1217958Y434001D01*
X1217773Y433862D01*
X1217565Y433746D01*
X1217334Y433630D01*
X1216894Y433492D01*
X1216454Y433422D01*
X1216084Y433376D01*
X1215644D01*
X1215552Y433399D01*
X1215482D01*
X1215274Y433445D01*
X1215089Y433515D01*
X1214950Y433538D01*
X1214927Y433561D01*
X1214904D01*
X1214673Y433630D01*
X1214488Y433723D01*
X1214349Y433769D01*
X1214325Y433792D01*
X1214302D01*
X1213886Y434024D01*
X1213516Y434278D01*
X1213168Y434533D01*
X1212868Y434764D01*
X1212636Y434949D01*
X1212451Y435111D01*
X1212336Y435204D01*
X1212289Y435250D01*
X1211965Y435574D01*
X1211665Y435921D01*
X1211364Y436245D01*
X1211132Y436523D01*
X1210924Y436777D01*
X1210762Y436986D01*
X1210669Y437101D01*
X1210623Y437147D01*
X1210508Y437309D01*
X1210415Y437471D01*
X1210369Y437587D01*
X1210346Y437610D01*
Y437633D01*
X1210322Y437749D01*
X1210346Y437865D01*
X1210392Y438119D01*
X1210438Y438235D01*
X1210484Y438328D01*
X1210508Y438374D01*
X1210531Y438397D01*
X1210716Y438235D01*
X1210878Y438119D01*
X1210970Y438027D01*
X1211017Y438004D01*
X1211225Y437865D01*
X1211364Y437749D01*
X1211479Y437657D01*
X1211503Y437633D01*
X1211988Y437194D01*
X1212220Y436986D01*
X1212405Y436800D01*
X1212590Y436638D01*
X1212706Y436523D01*
X1212798Y436430D01*
X1212821Y436407D01*
X1213284Y435990D01*
X1213516Y435782D01*
X1213701Y435620D01*
X1213863Y435458D01*
X1214001Y435343D01*
X1214094Y435273D01*
X1214117Y435250D01*
X1214395Y435042D01*
X1214649Y434903D01*
X1214742Y434833D01*
X1214835Y434787D01*
X1214881Y434764D01*
X1214904D01*
X1215043Y434695D01*
X1215205Y434672D01*
X1215344Y434695D01*
X1215482Y434718D01*
X1215621Y434764D01*
X1215714Y434810D01*
X1215783Y434833D01*
X1215806Y434857D01*
X1215922Y434949D01*
X1216015Y435065D01*
X1216061Y435158D01*
X1216107Y435273D01*
X1216130Y435389D01*
X1216153Y435481D01*
Y435528D01*
Y435551D01*
Y435759D01*
X1216130Y435967D01*
X1216107Y436152D01*
X1216061Y436338D01*
X1216015Y436476D01*
X1215968Y436592D01*
X1215922Y436685D01*
Y436708D01*
X1215806Y436986D01*
X1215691Y437217D01*
X1215644Y437309D01*
X1215598Y437379D01*
X1215575Y437402D01*
Y437425D01*
X1215459Y437703D01*
X1215344Y437934D01*
X1215297Y438027D01*
X1215251Y438096D01*
X1215228Y438143D01*
Y438166D01*
X1214904Y438790D01*
X1214742Y439091D01*
X1214603Y439346D01*
X1214488Y439577D01*
X1214395Y439762D01*
X1214325Y439855D01*
X1214302Y439901D01*
X1213955Y440549D01*
X1213816Y440827D01*
X1213678Y441104D01*
X1213562Y441313D01*
X1213469Y441498D01*
X1213423Y441590D01*
X1213400Y441637D01*
X1213007Y442400D01*
X1212821Y442747D01*
X1212659Y443071D01*
X1212521Y443326D01*
X1212428Y443534D01*
X1212359Y443673D01*
X1212336Y443719D01*
X1211942Y444506D01*
X1211757Y444899D01*
X1211572Y445223D01*
X1211433Y445524D01*
X1211317Y445755D01*
X1211271Y445825D01*
X1211248Y445894D01*
X1211225Y445917D01*
Y445941D01*
X1211410Y445871D01*
D02*
G37*
G36*
X1252598Y452165D02*
X1252853Y452142D01*
X1253061Y452119D01*
X1253200Y452072D01*
X1253292Y452049D01*
X1253338D01*
X1254102Y451818D01*
X1254843Y451563D01*
X1255560Y451286D01*
X1256231Y450985D01*
X1256879Y450684D01*
X1257480Y450383D01*
X1258036Y450082D01*
X1258545Y449805D01*
X1259031Y449527D01*
X1259424Y449273D01*
X1259794Y449018D01*
X1260095Y448833D01*
X1260327Y448648D01*
X1260512Y448532D01*
X1260604Y448439D01*
X1260651Y448416D01*
X1261229Y447930D01*
X1261761Y447421D01*
X1262270Y446912D01*
X1262756Y446357D01*
X1263196Y445825D01*
X1263612Y445293D01*
X1263983Y444784D01*
X1264330Y444274D01*
X1264631Y443812D01*
X1264885Y443372D01*
X1265117Y442979D01*
X1265302Y442632D01*
X1265464Y442377D01*
X1265556Y442169D01*
X1265626Y442030D01*
X1265649Y442007D01*
Y441984D01*
X1265926Y441336D01*
X1266135Y440688D01*
X1266273Y440109D01*
X1266366Y439531D01*
X1266412Y439022D01*
Y438513D01*
X1266389Y438073D01*
X1266343Y437657D01*
X1266250Y437286D01*
X1266181Y436962D01*
X1266088Y436685D01*
X1265996Y436453D01*
X1265903Y436268D01*
X1265857Y436129D01*
X1265811Y436037D01*
X1265788Y436014D01*
X1265464Y435597D01*
X1265117Y435227D01*
X1264700Y434903D01*
X1264284Y434625D01*
X1263844Y434371D01*
X1263381Y434186D01*
X1262918Y434024D01*
X1262479Y433885D01*
X1262039Y433792D01*
X1261646Y433700D01*
X1261275Y433653D01*
X1260951Y433607D01*
X1260697Y433584D01*
X1260489Y433561D01*
X1260327D01*
X1259887Y433630D01*
X1259679Y433653D01*
X1259494Y433677D01*
X1259332D01*
X1259216Y433700D01*
X1259100D01*
X1258661Y433746D01*
X1258452Y433792D01*
X1258290Y433839D01*
X1258151Y433862D01*
X1258036Y433908D01*
X1257966Y433931D01*
X1257943D01*
X1257480Y434093D01*
X1257041Y434278D01*
X1256647Y434463D01*
X1256300Y434649D01*
X1256000Y434810D01*
X1255768Y434949D01*
X1255699Y434995D01*
X1255629Y435042D01*
X1255606Y435065D01*
X1255583D01*
X1255213Y435343D01*
X1254889Y435667D01*
X1254611Y436014D01*
X1254403Y436361D01*
X1254241Y436662D01*
X1254125Y436916D01*
X1254079Y437009D01*
X1254056Y437078D01*
X1254033Y437124D01*
Y437147D01*
X1253963Y437425D01*
X1253894Y437657D01*
X1253871Y437911D01*
X1253848Y438119D01*
Y438281D01*
X1253871Y438420D01*
Y438513D01*
Y438536D01*
X1253917Y438790D01*
X1253986Y439022D01*
X1254102Y439230D01*
X1254241Y439415D01*
X1254357Y439554D01*
X1254472Y439670D01*
X1254542Y439739D01*
X1254565Y439762D01*
X1254796Y439971D01*
X1255028Y440132D01*
X1255259Y440271D01*
X1255467Y440364D01*
X1255652Y440410D01*
X1255791Y440456D01*
X1255884Y440480D01*
X1256462D01*
X1256717Y440433D01*
X1256925Y440410D01*
X1257133Y440364D01*
X1257272Y440341D01*
X1257365Y440294D01*
X1257411D01*
X1257920Y440063D01*
X1258151Y439924D01*
X1258337Y439809D01*
X1258499Y439716D01*
X1258614Y439623D01*
X1258707Y439577D01*
X1258730Y439554D01*
X1258915Y439369D01*
X1259054Y439137D01*
X1259170Y438929D01*
X1259239Y438721D01*
X1259285Y438536D01*
X1259332Y438397D01*
X1259355Y438304D01*
Y438258D01*
Y438027D01*
Y437842D01*
X1259332Y437680D01*
X1259285Y437541D01*
X1259262Y437425D01*
X1259216Y437356D01*
X1259193Y437309D01*
Y437286D01*
X1259100Y437147D01*
X1258985Y437055D01*
X1258869Y436962D01*
X1258753Y436893D01*
X1258637Y436847D01*
X1258545Y436824D01*
X1258499Y436800D01*
X1258475D01*
X1258290Y436754D01*
X1257943D01*
X1257804Y436777D01*
X1257712Y436800D01*
X1257619Y436824D01*
X1257573Y436847D01*
X1257550D01*
X1257434Y436939D01*
X1257318Y437032D01*
X1257133Y437286D01*
X1257064Y437379D01*
X1257018Y437472D01*
X1256971Y437541D01*
Y437564D01*
X1256902Y437749D01*
X1256833Y437888D01*
X1256809Y437980D01*
X1256786Y438004D01*
X1256740Y438166D01*
X1256671Y438304D01*
X1256601Y438374D01*
X1256578Y438397D01*
X1256486Y438490D01*
X1256370Y438536D01*
X1256300Y438582D01*
X1256254D01*
X1256092Y438628D01*
X1255976D01*
X1255930Y438605D01*
X1255907Y438582D01*
X1255814Y438536D01*
X1255745Y438443D01*
X1255699Y438374D01*
X1255676Y438351D01*
X1255629Y438189D01*
X1255606Y438050D01*
X1255629Y437980D01*
Y437957D01*
X1255652Y437795D01*
X1255676Y437657D01*
X1255699Y437564D01*
X1255722Y437518D01*
X1255791Y437356D01*
X1255838Y437217D01*
X1255884Y437124D01*
X1255907Y437101D01*
X1256208Y436662D01*
X1256555Y436268D01*
X1256925Y435967D01*
X1257295Y435690D01*
X1257642Y435505D01*
X1257943Y435366D01*
X1258036Y435320D01*
X1258128Y435273D01*
X1258175Y435250D01*
X1258198D01*
X1258475Y435134D01*
X1258753Y435065D01*
X1259285Y434949D01*
X1259794Y434926D01*
X1260211D01*
X1260581Y434949D01*
X1260720Y434972D01*
X1260859Y434995D01*
X1260951Y435019D01*
X1261021Y435042D01*
X1261067Y435065D01*
X1261090D01*
X1261437Y435181D01*
X1261738Y435343D01*
X1261970Y435481D01*
X1262178Y435644D01*
X1262340Y435782D01*
X1262455Y435898D01*
X1262525Y435990D01*
X1262548Y436014D01*
X1262733Y436291D01*
X1262872Y436592D01*
X1262964Y436893D01*
X1263034Y437147D01*
X1263080Y437379D01*
X1263103Y437564D01*
X1263127Y437680D01*
Y437726D01*
Y438073D01*
Y438420D01*
X1263103Y438721D01*
X1263080Y438999D01*
X1263034Y439230D01*
X1263011Y439415D01*
X1262988Y439508D01*
Y439554D01*
X1262895Y439878D01*
X1262779Y440179D01*
X1262664Y440480D01*
X1262571Y440734D01*
X1262479Y440942D01*
X1262409Y441104D01*
X1262363Y441197D01*
X1262340Y441243D01*
X1262039Y441868D01*
X1261738Y442446D01*
X1261414Y442979D01*
X1261136Y443465D01*
X1260998Y443673D01*
X1260882Y443858D01*
X1260789Y444020D01*
X1260697Y444159D01*
X1260604Y444274D01*
X1260558Y444344D01*
X1260512Y444390D01*
Y444413D01*
X1260118Y444969D01*
X1259725Y445478D01*
X1259355Y445941D01*
X1258985Y446380D01*
X1258684Y446727D01*
X1258568Y446866D01*
X1258452Y446982D01*
X1258360Y447074D01*
X1258290Y447144D01*
X1258267Y447190D01*
X1258244Y447213D01*
X1257851Y447630D01*
X1257480Y448000D01*
X1257110Y448347D01*
X1256763Y448648D01*
X1256462Y448902D01*
X1256254Y449087D01*
X1256161Y449157D01*
X1256092Y449203D01*
X1256069Y449249D01*
X1256046D01*
X1255606Y449550D01*
X1255143Y449828D01*
X1254704Y450059D01*
X1254310Y450268D01*
X1253963Y450429D01*
X1253801Y450499D01*
X1253686Y450545D01*
X1253570Y450592D01*
X1253501Y450615D01*
X1253454Y450638D01*
X1253431D01*
X1253153Y450730D01*
X1252876Y450800D01*
X1252783Y450823D01*
X1252691Y450846D01*
X1252621D01*
X1252297Y450892D01*
X1252020Y450939D01*
X1251742D01*
X1251441Y450892D01*
X1251210Y450823D01*
X1251140Y450777D01*
X1251071Y450754D01*
X1251048Y450707D01*
X1251025D01*
X1250909Y450592D01*
X1250816Y450476D01*
X1250770Y450337D01*
X1250724Y450221D01*
X1250701Y450106D01*
X1250677Y450013D01*
Y449944D01*
Y449921D01*
Y449620D01*
X1250724Y449319D01*
X1250816Y449041D01*
X1250932Y448764D01*
X1251048Y448555D01*
X1251140Y448393D01*
X1251233Y448278D01*
X1251256Y448231D01*
X1251487Y447930D01*
X1251742Y447699D01*
X1251996Y447514D01*
X1252228Y447398D01*
X1252413Y447306D01*
X1252575Y447259D01*
X1252667Y447213D01*
X1252714D01*
X1252968Y447190D01*
X1253153D01*
X1253292Y447213D01*
X1253338D01*
X1253431Y447259D01*
X1253524Y447329D01*
X1253616Y447514D01*
X1253662Y447630D01*
Y447699D01*
X1253686Y447769D01*
Y447792D01*
X1253709Y447977D01*
X1253755Y448116D01*
X1253824Y448231D01*
X1253894Y448301D01*
X1253963Y448347D01*
X1254033Y448370D01*
X1254079D01*
X1254333Y448393D01*
X1254565Y448370D01*
X1254658Y448347D01*
X1254727D01*
X1254773Y448324D01*
X1254796D01*
X1254935Y448254D01*
X1255051Y448185D01*
X1255236Y448000D01*
X1255329Y447861D01*
X1255375Y447815D01*
Y447792D01*
X1255444Y447653D01*
X1255467Y447514D01*
Y447375D01*
X1255444Y447259D01*
X1255421Y447167D01*
X1255398Y447098D01*
X1255375Y447051D01*
Y447028D01*
X1255236Y446797D01*
X1255097Y446612D01*
X1254935Y446450D01*
X1254796Y446334D01*
X1254681Y446218D01*
X1254588Y446149D01*
X1254519Y446126D01*
X1254495Y446102D01*
X1254310Y445987D01*
X1254102Y445894D01*
X1253917Y445848D01*
X1253709Y445802D01*
X1253547Y445779D01*
X1253408Y445755D01*
X1252945D01*
X1252598Y445802D01*
X1252274Y445871D01*
X1251973Y445941D01*
X1251418Y446172D01*
X1250955Y446426D01*
X1250770Y446542D01*
X1250585Y446681D01*
X1250446Y446797D01*
X1250330Y446912D01*
X1250238Y446982D01*
X1250145Y447051D01*
X1250122Y447098D01*
X1250099Y447121D01*
X1249682Y447653D01*
X1249335Y448162D01*
X1249058Y448625D01*
X1248849Y449018D01*
X1248711Y449365D01*
X1248664Y449504D01*
X1248618Y449620D01*
X1248595Y449712D01*
X1248572Y449782D01*
X1248549Y449805D01*
Y449828D01*
X1248525Y450106D01*
Y450360D01*
X1248572Y450592D01*
X1248618Y450800D01*
X1248688Y450962D01*
X1248734Y451077D01*
X1248780Y451170D01*
X1248803Y451193D01*
X1248965Y451401D01*
X1249150Y451586D01*
X1249335Y451702D01*
X1249544Y451818D01*
X1249729Y451887D01*
X1249868Y451934D01*
X1249960Y451957D01*
X1250006D01*
X1250608Y452026D01*
X1250886Y452049D01*
X1251163Y452096D01*
X1251372Y452119D01*
X1251534D01*
X1251649Y452142D01*
X1251696D01*
X1252020Y452165D01*
X1252320Y452188D01*
X1252598Y452165D01*
D02*
G37*
G36*
X1241190Y446102D02*
X1241352Y446010D01*
X1241491Y445941D01*
X1241607Y445894D01*
X1241699Y445848D01*
X1241746Y445802D01*
X1241769D01*
X1242093Y445663D01*
X1242347Y445524D01*
X1242463Y445454D01*
X1242532Y445408D01*
X1242579Y445385D01*
X1242602Y445362D01*
X1243111Y445107D01*
X1243597Y444853D01*
X1244060Y444598D01*
X1244476Y444390D01*
X1244846Y444228D01*
X1244985Y444159D01*
X1245124Y444089D01*
X1245217Y444043D01*
X1245286Y443997D01*
X1245332Y443974D01*
X1245355D01*
X1245864Y443742D01*
X1246397Y443580D01*
X1246906Y443441D01*
X1247368Y443372D01*
X1247762Y443326D01*
X1247947Y443303D01*
X1248086D01*
X1248202Y443279D01*
X1248363D01*
X1248525Y443256D01*
X1248664Y443233D01*
X1248757Y443164D01*
X1248826Y443094D01*
X1248919Y442979D01*
X1248942Y442932D01*
Y442909D01*
X1248965Y442770D01*
Y442655D01*
X1248942Y442539D01*
X1248896Y442423D01*
X1248826Y442354D01*
X1248780Y442285D01*
X1248757Y442238D01*
X1248734Y442215D01*
X1248549Y442076D01*
X1248363Y441984D01*
X1248202Y441914D01*
X1248178Y441891D01*
X1248155D01*
X1247947Y441799D01*
X1247739Y441729D01*
X1247577Y441683D01*
X1247531D01*
X1247345Y441637D01*
X1246188D01*
X1246466Y441128D01*
X1246582Y440896D01*
X1246674Y440688D01*
X1246767Y440526D01*
X1246836Y440410D01*
X1246883Y440318D01*
X1246906Y440294D01*
X1247160Y439832D01*
X1247253Y439600D01*
X1247345Y439415D01*
X1247415Y439253D01*
X1247484Y439137D01*
X1247507Y439045D01*
X1247531Y439022D01*
X1247716Y438582D01*
X1247785Y438374D01*
X1247855Y438189D01*
X1247901Y438027D01*
X1247947Y437911D01*
X1247970Y437842D01*
Y437819D01*
X1248132Y437379D01*
X1248178Y437194D01*
X1248225Y437009D01*
X1248271Y436847D01*
X1248294Y436731D01*
X1248317Y436638D01*
Y436615D01*
X1248340Y436268D01*
Y435967D01*
X1248317Y435690D01*
X1248271Y435435D01*
X1248202Y435227D01*
X1248155Y435088D01*
X1248132Y434972D01*
X1248109Y434949D01*
X1247947Y434718D01*
X1247785Y434510D01*
X1247600Y434348D01*
X1247438Y434232D01*
X1247276Y434116D01*
X1247160Y434047D01*
X1247068Y434024D01*
X1247045Y434001D01*
X1246790Y433908D01*
X1246535Y433839D01*
X1246281Y433769D01*
X1246073Y433746D01*
X1245864Y433723D01*
X1245726Y433700D01*
X1245587D01*
X1245309Y433723D01*
X1245078Y433746D01*
X1244823Y433792D01*
X1244615Y433862D01*
X1244453Y433908D01*
X1244314Y433954D01*
X1244222Y433977D01*
X1244199Y434001D01*
X1243712Y434255D01*
X1243273Y434510D01*
X1242903Y434764D01*
X1242556Y435019D01*
X1242278Y435227D01*
X1242070Y435389D01*
X1241954Y435505D01*
X1241908Y435551D01*
X1241537Y435921D01*
X1241190Y436291D01*
X1240890Y436638D01*
X1240612Y436962D01*
X1240380Y437263D01*
X1240219Y437471D01*
X1240149Y437564D01*
X1240126Y437633D01*
X1240080Y437657D01*
Y437680D01*
X1239987Y437818D01*
X1239918Y437957D01*
X1239894Y438050D01*
X1239871Y438096D01*
Y438212D01*
X1239894Y438328D01*
X1240033Y438513D01*
X1240149Y438652D01*
X1240195Y438675D01*
X1240219Y438698D01*
X1240404Y438513D01*
X1240566Y438374D01*
X1240658Y438281D01*
X1240704Y438258D01*
X1240866Y438096D01*
X1241028Y437957D01*
X1241144Y437865D01*
X1241167Y437818D01*
X1241190D01*
X1241653Y437425D01*
X1241861Y437240D01*
X1242047Y437055D01*
X1242208Y436916D01*
X1242324Y436800D01*
X1242417Y436731D01*
X1242440Y436708D01*
X1242903Y436291D01*
X1243134Y436106D01*
X1243319Y435944D01*
X1243481Y435805D01*
X1243597Y435690D01*
X1243689Y435620D01*
X1243712Y435597D01*
X1243990Y435389D01*
X1244245Y435250D01*
X1244337Y435181D01*
X1244407Y435134D01*
X1244453Y435111D01*
X1244476D01*
X1244638Y435042D01*
X1244823Y435019D01*
X1244985D01*
X1245124Y435042D01*
X1245263Y435065D01*
X1245355Y435111D01*
X1245425Y435134D01*
X1245448Y435158D01*
X1245564Y435250D01*
X1245656Y435366D01*
X1245703Y435481D01*
X1245749Y435597D01*
X1245772Y435713D01*
X1245795Y435805D01*
Y435852D01*
Y435875D01*
X1245772Y436060D01*
X1245749Y436268D01*
X1245633Y436638D01*
X1245587Y436800D01*
X1245540Y436916D01*
X1245517Y437009D01*
X1245494Y437032D01*
X1245379Y437309D01*
X1245286Y437541D01*
X1245240Y437633D01*
X1245193Y437703D01*
X1245170Y437749D01*
Y437772D01*
X1245055Y438050D01*
X1244939Y438281D01*
X1244893Y438374D01*
X1244846Y438443D01*
X1244823Y438466D01*
Y438490D01*
X1244638Y438837D01*
X1244476Y439161D01*
X1244291Y439462D01*
X1244152Y439739D01*
X1244036Y439971D01*
X1243944Y440132D01*
X1243875Y440248D01*
X1243851Y440294D01*
X1243504Y440942D01*
X1243342Y441243D01*
X1243204Y441498D01*
X1243088Y441729D01*
X1242995Y441914D01*
X1242949Y442030D01*
X1242926Y442076D01*
X1242718Y442446D01*
X1242532Y442817D01*
X1242370Y443164D01*
X1242208Y443488D01*
X1242093Y443742D01*
X1242000Y443927D01*
X1241931Y444066D01*
X1241908Y444112D01*
X1241514Y444876D01*
X1241329Y445246D01*
X1241144Y445593D01*
X1241005Y445871D01*
X1240890Y446102D01*
X1240843Y446172D01*
X1240820Y446241D01*
X1240797Y446264D01*
Y446288D01*
X1241190Y446102D01*
D02*
G37*
G36*
X1230963Y446079D02*
X1231125Y446056D01*
X1231217Y446033D01*
X1231264Y446010D01*
X1232027Y445501D01*
X1232374Y445269D01*
X1232675Y445038D01*
X1232953Y444853D01*
X1233161Y444714D01*
X1233300Y444622D01*
X1233323Y444598D01*
X1233346D01*
X1233716Y444344D01*
X1234087Y444089D01*
X1234434Y443858D01*
X1234734Y443650D01*
X1235012Y443465D01*
X1235197Y443303D01*
X1235336Y443210D01*
X1235359Y443187D01*
X1235382D01*
X1235406Y443164D01*
Y443141D01*
X1235382Y443117D01*
Y443094D01*
Y442956D01*
Y442886D01*
Y442863D01*
X1235128Y442909D01*
X1234873Y442932D01*
X1234781D01*
X1234711Y442956D01*
X1234341D01*
X1234063Y442979D01*
X1233948D01*
X1233855Y443002D01*
X1233786D01*
X1233878Y442770D01*
X1233971Y442585D01*
X1234040Y442469D01*
X1234063Y442423D01*
X1234133Y442238D01*
X1234225Y442076D01*
X1234295Y441984D01*
X1234318Y441937D01*
X1234480Y441613D01*
X1234619Y441313D01*
X1234758Y441012D01*
X1234896Y440757D01*
X1234989Y440549D01*
X1235058Y440387D01*
X1235105Y440294D01*
X1235128Y440248D01*
X1235452Y439623D01*
X1235591Y439346D01*
X1235729Y439091D01*
X1235845Y438860D01*
X1235938Y438698D01*
X1235984Y438582D01*
X1236007Y438536D01*
X1236215Y438073D01*
X1236285Y437842D01*
X1236354Y437657D01*
X1236424Y437495D01*
X1236470Y437356D01*
X1236493Y437263D01*
Y437240D01*
X1236562Y436731D01*
Y436500D01*
Y436268D01*
Y436083D01*
X1236539Y435944D01*
Y435852D01*
Y435829D01*
X1236493Y435505D01*
X1236424Y435227D01*
X1236354Y434995D01*
X1236285Y434810D01*
X1236215Y434672D01*
X1236146Y434556D01*
X1236123Y434510D01*
X1236100Y434487D01*
X1235961Y434324D01*
X1235776Y434209D01*
X1235382Y434001D01*
X1235197Y433931D01*
X1235035Y433885D01*
X1234943Y433839D01*
X1234896D01*
X1234272Y433746D01*
X1233693Y433700D01*
X1233161D01*
X1232698Y433746D01*
X1232490Y433769D01*
X1232305Y433815D01*
X1232143Y433839D01*
X1232004Y433862D01*
X1231888Y433885D01*
X1231819Y433908D01*
X1231773Y433931D01*
X1231749D01*
X1231194Y434116D01*
X1230685Y434371D01*
X1230222Y434625D01*
X1229806Y434880D01*
X1229459Y435111D01*
X1229320Y435204D01*
X1229204Y435296D01*
X1229112Y435366D01*
X1229042Y435435D01*
X1229019Y435458D01*
X1228996Y435481D01*
X1228556Y435875D01*
X1228348Y436060D01*
X1228186Y436222D01*
X1228024Y436384D01*
X1227908Y436500D01*
X1227839Y436592D01*
X1227816Y436615D01*
X1227422Y437055D01*
X1227237Y437240D01*
X1227075Y437425D01*
X1226936Y437587D01*
X1226844Y437703D01*
X1226775Y437795D01*
X1226751Y437818D01*
X1226543Y438050D01*
X1226335Y438189D01*
X1226173Y438281D01*
X1226150Y438304D01*
X1226127D01*
X1225849Y438374D01*
X1225340D01*
X1225270Y438351D01*
X1225247D01*
X1224923Y438304D01*
X1224368D01*
X1224137Y438351D01*
X1223928Y438397D01*
X1223790Y438443D01*
X1223674Y438466D01*
X1223651Y438490D01*
X1223373Y438628D01*
X1223119Y438814D01*
X1222887Y438999D01*
X1222702Y439184D01*
X1222540Y439346D01*
X1222401Y439485D01*
X1222332Y439577D01*
X1222309Y439600D01*
X1222563Y439670D01*
X1222794Y439693D01*
X1223026D01*
X1223234Y439670D01*
X1223396Y439646D01*
X1223535Y439623D01*
X1223627Y439600D01*
X1223651D01*
X1223905Y439554D01*
X1224137D01*
X1224368Y439600D01*
X1224553Y439670D01*
X1224692Y439739D01*
X1224831Y439832D01*
X1224900Y439878D01*
X1224923Y439901D01*
X1224784Y440294D01*
X1224715Y440480D01*
X1224646Y440642D01*
X1224599Y440780D01*
X1224553Y440873D01*
X1224530Y440942D01*
Y440965D01*
X1224391Y441336D01*
X1224275Y441660D01*
X1224252Y441799D01*
X1224206Y441891D01*
X1224183Y441960D01*
Y441984D01*
X1224090Y442377D01*
X1224044Y442562D01*
X1224021Y442724D01*
X1223998Y442863D01*
X1223975Y442956D01*
X1223951Y443025D01*
Y443048D01*
X1223905Y443441D01*
X1223882Y443627D01*
X1223859Y443788D01*
Y443927D01*
Y444020D01*
Y444089D01*
Y444112D01*
Y444506D01*
Y444668D01*
X1223882Y444830D01*
X1223905Y444945D01*
X1223928Y445038D01*
X1223951Y445107D01*
Y445131D01*
X1224044Y445293D01*
X1224137Y445431D01*
X1224368Y445663D01*
X1224484Y445732D01*
X1224576Y445802D01*
X1224646Y445825D01*
X1224669Y445848D01*
X1224854Y445917D01*
X1225016Y445941D01*
X1225178D01*
X1225317Y445917D01*
X1225432Y445894D01*
X1225525Y445871D01*
X1225571Y445848D01*
X1225594D01*
X1225872Y445686D01*
X1226127Y445547D01*
X1226242Y445478D01*
X1226312Y445408D01*
X1226358Y445385D01*
X1226381Y445362D01*
X1226798Y445015D01*
X1227122Y444645D01*
X1227376Y444298D01*
X1227561Y443951D01*
X1227700Y443673D01*
X1227793Y443441D01*
X1227839Y443349D01*
Y443279D01*
X1227862Y443256D01*
Y443233D01*
X1227955Y442770D01*
X1227978Y442331D01*
Y441891D01*
X1227955Y441498D01*
X1227908Y441151D01*
X1227862Y440896D01*
X1227839Y440803D01*
Y440734D01*
X1227816Y440688D01*
Y440665D01*
X1227769Y440364D01*
X1227723Y440109D01*
Y439994D01*
Y439924D01*
Y439878D01*
Y439855D01*
X1227746Y439716D01*
X1227769Y439600D01*
X1227862Y439346D01*
X1227932Y439253D01*
X1227978Y439184D01*
X1228001Y439137D01*
X1228024Y439114D01*
X1228394Y438652D01*
X1228788Y438235D01*
X1229158Y437865D01*
X1229505Y437541D01*
X1229806Y437263D01*
X1230037Y437055D01*
X1230130Y436986D01*
X1230199Y436939D01*
X1230222Y436916D01*
X1230245Y436893D01*
X1230708Y436523D01*
X1231171Y436199D01*
X1231588Y435875D01*
X1231981Y435597D01*
X1232305Y435366D01*
X1232559Y435181D01*
X1232652Y435111D01*
X1232698Y435065D01*
X1232744Y435019D01*
X1232768D01*
X1232791Y434972D01*
X1232814Y434949D01*
X1232883Y434926D01*
X1232906Y434903D01*
X1233068Y434880D01*
X1233207Y434857D01*
X1233439Y434903D01*
X1233508Y434949D01*
X1233577Y434972D01*
X1233601Y435019D01*
X1233624D01*
X1233739Y435111D01*
X1233809Y435204D01*
X1233878Y435320D01*
X1233901Y435458D01*
X1233925Y435551D01*
Y435643D01*
Y435713D01*
Y435736D01*
Y435875D01*
X1233901Y436037D01*
X1233878Y436129D01*
Y436176D01*
X1233832Y436361D01*
X1233809Y436500D01*
X1233786Y436615D01*
Y436662D01*
X1233531Y437263D01*
X1233416Y437541D01*
X1233300Y437795D01*
X1233230Y438004D01*
X1233161Y438166D01*
X1233115Y438258D01*
X1233092Y438304D01*
X1232976Y438628D01*
X1232837Y438929D01*
X1232721Y439230D01*
X1232606Y439485D01*
X1232513Y439693D01*
X1232444Y439855D01*
X1232397Y439947D01*
X1232374Y439994D01*
X1232166Y440456D01*
X1231958Y440919D01*
X1231749Y441336D01*
X1231588Y441729D01*
X1231425Y442053D01*
X1231310Y442308D01*
X1231264Y442400D01*
X1231240Y442469D01*
X1231217Y442493D01*
Y442516D01*
X1231009Y442979D01*
X1230801Y443441D01*
X1230616Y443858D01*
X1230454Y444251D01*
X1230315Y444575D01*
X1230199Y444830D01*
X1230153Y444922D01*
X1230130Y444992D01*
X1230107Y445015D01*
Y445038D01*
X1230083Y445200D01*
Y445362D01*
X1230107Y445478D01*
Y445501D01*
Y445524D01*
X1230153Y445732D01*
X1230222Y445848D01*
X1230268Y445917D01*
X1230292Y445941D01*
X1230407Y446033D01*
X1230569Y446079D01*
X1230685Y446102D01*
X1230731D01*
X1230963Y446079D01*
D02*
G37*
G36*
X1252829Y429419D02*
X1253176Y429373D01*
X1253501Y429303D01*
X1253778Y429234D01*
X1254010Y429164D01*
X1254195Y429095D01*
X1254310Y429072D01*
X1254357Y429049D01*
X1254681Y428910D01*
X1254981Y428725D01*
X1255236Y428540D01*
X1255490Y428354D01*
X1255676Y428193D01*
X1255838Y428054D01*
X1255930Y427961D01*
X1255953Y427938D01*
X1256138Y427707D01*
X1256300Y427522D01*
X1256393Y427360D01*
X1256439Y427336D01*
Y427313D01*
X1256601Y427059D01*
X1256740Y426804D01*
X1256763Y426712D01*
X1256809Y426642D01*
X1256833Y426596D01*
Y426573D01*
X1256902Y426318D01*
X1256948Y426087D01*
X1256971Y425994D01*
Y425925D01*
Y425879D01*
Y425855D01*
Y425717D01*
X1256925Y425601D01*
X1256856Y425508D01*
X1256786Y425416D01*
X1256647Y425323D01*
X1256601Y425277D01*
X1256416D01*
X1256231Y425323D01*
X1256092Y425393D01*
X1256069Y425416D01*
X1256046D01*
X1255814Y425532D01*
X1255629Y425647D01*
X1255514Y425740D01*
X1255467Y425763D01*
X1255329Y425855D01*
X1255236Y425948D01*
X1255166Y426017D01*
X1255143Y426041D01*
X1255028Y426179D01*
X1254912Y426295D01*
X1254819Y426365D01*
X1254796Y426388D01*
X1254611Y426480D01*
X1254472Y426550D01*
X1254357Y426596D01*
X1254310Y426619D01*
X1254125Y426712D01*
X1253986Y426781D01*
X1253871Y426827D01*
X1253824D01*
X1253662Y426851D01*
X1253547D01*
X1253338Y426827D01*
X1253246Y426758D01*
X1253200Y426735D01*
X1253130Y426642D01*
X1253061Y426526D01*
X1253038Y426411D01*
Y426295D01*
Y426203D01*
Y426110D01*
X1253061Y426064D01*
Y426041D01*
X1253130Y425879D01*
X1253200Y425717D01*
X1253269Y425601D01*
X1253292Y425578D01*
Y425555D01*
X1253408Y425393D01*
X1253501Y425254D01*
X1253570Y425161D01*
X1253593Y425138D01*
X1253917Y424698D01*
X1254079Y424490D01*
X1254218Y424328D01*
X1254333Y424166D01*
X1254426Y424051D01*
X1254472Y423981D01*
X1254495Y423958D01*
X1254843Y423541D01*
X1254981Y423333D01*
X1255120Y423171D01*
X1255213Y423009D01*
X1255305Y422894D01*
X1255352Y422824D01*
X1255375Y422801D01*
X1255676Y422361D01*
X1255976Y421922D01*
X1256254Y421505D01*
X1256509Y421158D01*
X1256717Y420834D01*
X1256879Y420603D01*
X1256948Y420510D01*
X1256971Y420441D01*
X1257018Y420418D01*
Y420395D01*
X1257318Y419955D01*
X1257619Y419515D01*
X1257874Y419099D01*
X1258105Y418729D01*
X1258290Y418428D01*
X1258452Y418173D01*
X1258499Y418081D01*
X1258545Y418011D01*
X1258568Y417988D01*
Y417965D01*
X1258799Y417525D01*
X1258985Y417109D01*
X1259146Y416692D01*
X1259285Y416322D01*
X1259401Y415998D01*
X1259471Y415744D01*
X1259494Y415651D01*
X1259517Y415582D01*
X1259540Y415559D01*
Y415535D01*
X1259656Y415096D01*
X1259771Y414656D01*
X1259864Y414240D01*
X1259933Y413892D01*
X1260003Y413568D01*
X1260026Y413337D01*
X1260049Y413245D01*
X1260072Y413175D01*
Y413152D01*
Y413129D01*
X1260049Y412735D01*
X1260003Y412388D01*
X1259910Y412041D01*
X1259818Y411717D01*
X1259702Y411417D01*
X1259586Y411162D01*
X1259471Y410907D01*
X1259332Y410699D01*
X1259193Y410491D01*
X1259054Y410329D01*
X1258938Y410167D01*
X1258846Y410051D01*
X1258753Y409959D01*
X1258684Y409889D01*
X1258637Y409866D01*
X1258614Y409843D01*
X1258337Y409658D01*
X1258036Y409542D01*
X1257735Y409450D01*
X1257434Y409403D01*
X1257133Y409380D01*
X1256809Y409403D01*
X1256532Y409450D01*
X1256231Y409519D01*
X1255976Y409589D01*
X1255722Y409658D01*
X1255490Y409751D01*
X1255305Y409820D01*
X1255143Y409889D01*
X1255028Y409959D01*
X1254958Y409982D01*
X1254935Y410005D01*
X1254495Y410260D01*
X1254079Y410537D01*
X1253709Y410815D01*
X1253385Y411069D01*
X1253130Y411301D01*
X1252922Y411463D01*
X1252806Y411578D01*
X1252760Y411625D01*
X1252390Y411995D01*
X1252020Y412342D01*
X1251696Y412689D01*
X1251395Y412990D01*
X1251163Y413245D01*
X1250978Y413453D01*
X1250863Y413568D01*
X1250816Y413615D01*
X1250654Y413823D01*
X1250539Y414031D01*
X1250469Y414193D01*
X1250446Y414216D01*
Y414240D01*
X1250423Y414355D01*
Y414471D01*
X1250469Y414587D01*
X1250516Y414702D01*
X1250562Y414795D01*
X1250631Y414841D01*
X1250654Y414887D01*
X1250677Y414911D01*
X1250816Y415026D01*
X1250932Y415096D01*
X1251071Y415142D01*
X1251187Y415165D01*
X1251348D01*
X1251395Y415142D01*
X1251418D01*
X1251696Y415049D01*
X1251904Y414934D01*
X1251996Y414864D01*
X1252066Y414818D01*
X1252112Y414795D01*
X1252135Y414772D01*
X1252344Y414540D01*
X1252529Y414355D01*
X1252667Y414193D01*
X1252691Y414170D01*
X1252714Y414147D01*
X1252945Y413916D01*
X1253130Y413707D01*
X1253200Y413615D01*
X1253246Y413568D01*
X1253292Y413522D01*
Y413499D01*
X1253709Y413059D01*
X1253917Y412851D01*
X1254079Y412689D01*
X1254241Y412550D01*
X1254357Y412435D01*
X1254426Y412365D01*
X1254449Y412342D01*
X1254681Y412157D01*
X1254912Y411995D01*
X1255143Y411879D01*
X1255375Y411787D01*
X1255560Y411717D01*
X1255722Y411671D01*
X1255814Y411625D01*
X1255861D01*
X1256115Y411578D01*
X1256323Y411555D01*
X1256509D01*
X1256671Y411578D01*
X1256786Y411602D01*
X1256856Y411625D01*
X1256902Y411671D01*
X1256925D01*
X1257041Y411787D01*
X1257133Y411949D01*
X1257203Y412111D01*
X1257226Y412273D01*
Y412411D01*
Y412527D01*
Y412620D01*
Y412643D01*
X1257133Y413106D01*
X1257087Y413291D01*
X1257064Y413476D01*
X1257018Y413638D01*
X1256994Y413754D01*
X1256971Y413823D01*
Y413846D01*
X1256809Y414263D01*
X1256740Y414448D01*
X1256647Y414610D01*
X1256601Y414749D01*
X1256532Y414864D01*
X1256509Y414934D01*
X1256486Y414957D01*
X1256023Y415836D01*
X1255560Y416669D01*
X1255097Y417456D01*
X1254912Y417826D01*
X1254704Y418150D01*
X1254519Y418474D01*
X1254357Y418752D01*
X1254218Y419006D01*
X1254102Y419215D01*
X1254010Y419376D01*
X1253940Y419515D01*
X1253894Y419585D01*
X1253871Y419608D01*
X1253362Y420464D01*
X1252899Y421274D01*
X1252436Y422061D01*
X1252228Y422431D01*
X1252043Y422755D01*
X1251858Y423079D01*
X1251696Y423356D01*
X1251557Y423611D01*
X1251441Y423819D01*
X1251348Y423981D01*
X1251279Y424120D01*
X1251233Y424189D01*
X1251210Y424213D01*
X1251001Y424606D01*
X1250909Y424791D01*
X1250816Y424953D01*
X1250747Y425092D01*
X1250677Y425184D01*
X1250654Y425254D01*
X1250631Y425277D01*
X1250423Y425670D01*
X1250353Y425855D01*
X1250284Y426041D01*
X1250215Y426179D01*
X1250168Y426295D01*
X1250145Y426365D01*
Y426388D01*
X1250076Y426642D01*
X1250006Y426874D01*
X1249960Y427313D01*
X1249983Y427683D01*
X1250053Y428007D01*
X1250145Y428262D01*
X1250238Y428447D01*
X1250307Y428563D01*
X1250330Y428609D01*
X1250608Y428887D01*
X1250932Y429118D01*
X1251302Y429257D01*
X1251649Y429350D01*
X1251973Y429419D01*
X1252228Y429442D01*
X1252482D01*
X1252829Y429419D01*
D02*
G37*
G36*
X1174202Y428424D02*
X1174641Y428123D01*
X1175035Y427822D01*
X1175382Y427568D01*
X1175683Y427360D01*
X1175914Y427197D01*
X1175984Y427128D01*
X1176053Y427105D01*
X1176076Y427059D01*
X1176099D01*
X1176516Y426758D01*
X1176909Y426457D01*
X1177302Y426179D01*
X1177626Y425925D01*
X1177927Y425717D01*
X1178159Y425555D01*
X1178228Y425508D01*
X1178297Y425462D01*
X1178321Y425416D01*
X1178344D01*
X1178066Y425323D01*
X1177858Y425277D01*
X1177765Y425254D01*
X1177696Y425231D01*
X1177650D01*
X1177441Y425161D01*
X1177233Y425092D01*
X1177071Y425046D01*
X1177048Y425022D01*
X1177025D01*
X1177326Y424652D01*
X1177464Y424490D01*
X1177580Y424351D01*
X1177673Y424236D01*
X1177742Y424143D01*
X1177788Y424097D01*
X1177812Y424074D01*
X1178089Y423727D01*
X1178297Y423426D01*
X1178390Y423310D01*
X1178459Y423218D01*
X1178506Y423171D01*
X1178529Y423148D01*
X1178459Y423102D01*
X1178436D01*
X1178413Y423032D01*
X1178390Y423009D01*
X1177927Y423287D01*
X1177488Y423541D01*
X1177071Y423773D01*
X1176701Y424004D01*
X1176377Y424189D01*
X1176122Y424328D01*
X1176030Y424375D01*
X1175960Y424421D01*
X1175937Y424444D01*
X1175914D01*
X1174988Y424999D01*
X1174549Y425254D01*
X1174156Y425485D01*
X1173808Y425670D01*
X1173670Y425740D01*
X1173531Y425809D01*
X1173438Y425879D01*
X1173369Y425925D01*
X1173323Y425948D01*
X1173299D01*
X1173623Y426017D01*
X1173878Y426064D01*
X1173970D01*
X1174040Y426087D01*
X1174109D01*
X1174341Y426156D01*
X1174572Y426203D01*
X1174665Y426226D01*
X1174734Y426249D01*
X1174803D01*
X1174595Y426712D01*
X1174503Y426897D01*
X1174433Y427082D01*
X1174364Y427244D01*
X1174317Y427360D01*
X1174271Y427429D01*
Y427452D01*
X1174086Y427892D01*
X1173994Y428123D01*
X1173901Y428331D01*
X1173831Y428517D01*
X1173785Y428655D01*
X1173762Y428748D01*
X1173739Y428771D01*
X1174202Y428424D01*
D02*
G37*
G36*
X1194703Y421667D02*
X1194773Y421644D01*
X1194819Y421621D01*
X1194842Y421598D01*
X1194935Y421528D01*
X1195004Y421459D01*
X1195027Y421413D01*
X1195050Y421390D01*
X1195397Y421043D01*
X1195744Y420718D01*
X1196115Y420441D01*
X1196439Y420186D01*
X1196716Y420001D01*
X1196925Y419862D01*
X1197017Y419816D01*
X1197087Y419770D01*
X1197110Y419747D01*
X1197133D01*
X1197573Y419538D01*
X1197989Y419330D01*
X1198382Y419122D01*
X1198729Y418960D01*
X1199030Y418798D01*
X1199239Y418682D01*
X1199331Y418659D01*
X1199401Y418613D01*
X1199424Y418590D01*
X1199447D01*
X1199539Y418543D01*
X1199609Y418497D01*
X1199655Y418474D01*
X1199678Y418451D01*
X1199817Y418358D01*
X1199863Y418312D01*
X1199886D01*
X1199863Y418219D01*
X1199840Y418196D01*
Y418127D01*
Y418104D01*
X1199308Y418243D01*
X1199053Y418312D01*
X1198822Y418358D01*
X1198637Y418405D01*
X1198498Y418428D01*
X1198406Y418451D01*
X1198382D01*
X1198128Y418520D01*
X1197850Y418590D01*
X1197573Y418659D01*
X1197341Y418728D01*
X1197110Y418775D01*
X1196948Y418821D01*
X1196832Y418844D01*
X1196786D01*
X1197295Y417965D01*
X1197781Y417109D01*
X1198244Y416345D01*
X1198429Y415975D01*
X1198614Y415651D01*
X1198799Y415350D01*
X1198938Y415073D01*
X1199077Y414818D01*
X1199192Y414633D01*
X1199285Y414471D01*
X1199354Y414332D01*
X1199377Y414263D01*
X1199401Y414240D01*
X1199863Y413406D01*
X1200280Y412573D01*
X1200673Y411810D01*
X1200835Y411463D01*
X1200997Y411139D01*
X1201159Y410815D01*
X1201275Y410537D01*
X1201391Y410306D01*
X1201483Y410098D01*
X1201576Y409936D01*
X1201622Y409797D01*
X1201645Y409727D01*
X1201668Y409704D01*
X1201367Y409681D01*
X1201113Y409658D01*
X1200442D01*
X1200280Y409681D01*
X1199979Y409704D01*
X1199771Y409727D01*
X1199632Y409774D01*
X1199563Y409797D01*
X1199539D01*
X1199447Y409843D01*
X1199331Y409912D01*
X1199146Y410121D01*
X1198961Y410352D01*
X1198799Y410607D01*
X1198660Y410861D01*
X1198568Y411069D01*
X1198498Y411231D01*
X1198475Y411255D01*
Y411278D01*
X1198058Y412180D01*
X1197596Y413013D01*
X1197364Y413383D01*
X1197110Y413754D01*
X1196901Y414077D01*
X1196670Y414378D01*
X1196462Y414656D01*
X1196277Y414911D01*
X1196115Y415119D01*
X1195953Y415304D01*
X1195837Y415443D01*
X1195744Y415535D01*
X1195698Y415605D01*
X1195675Y415628D01*
X1195004Y416299D01*
X1194310Y416924D01*
X1193639Y417479D01*
X1193014Y417988D01*
X1192736Y418196D01*
X1192482Y418381D01*
X1192274Y418543D01*
X1192065Y418682D01*
X1191903Y418798D01*
X1191788Y418867D01*
X1191718Y418914D01*
X1191695Y418937D01*
X1191441Y419076D01*
X1191209Y419191D01*
X1191117Y419215D01*
X1191047Y419238D01*
X1191001Y419261D01*
X1190978D01*
X1190677Y419376D01*
X1190446Y419469D01*
X1190330Y419515D01*
X1190260Y419538D01*
X1190214Y419562D01*
X1190191D01*
X1189983Y419608D01*
X1189798D01*
X1189659Y419585D01*
X1189636Y419562D01*
X1189613D01*
X1189520Y419515D01*
X1189427Y419446D01*
X1189289Y419307D01*
X1189196Y419168D01*
X1189173Y419145D01*
Y419122D01*
X1189127Y418960D01*
X1189080Y418821D01*
Y418682D01*
Y418659D01*
Y418636D01*
X1189103Y418451D01*
X1189127Y418289D01*
X1189150Y418196D01*
X1189173Y418150D01*
X1189219Y418034D01*
X1189266Y417942D01*
X1189335Y417896D01*
X1189404Y417872D01*
X1189566D01*
X1189751Y417919D01*
X1189937Y417942D01*
X1190052Y417965D01*
X1190561D01*
X1190746Y417942D01*
X1190908Y417919D01*
X1191024Y417872D01*
X1191140Y417849D01*
X1191186Y417826D01*
X1191209D01*
X1191348Y417733D01*
X1191464Y417618D01*
X1191533Y417502D01*
X1191603Y417386D01*
X1191626Y417294D01*
X1191649Y417201D01*
Y417155D01*
Y417132D01*
Y416947D01*
X1191603Y416762D01*
X1191556Y416623D01*
X1191487Y416484D01*
X1191417Y416368D01*
X1191371Y416299D01*
X1191325Y416253D01*
X1191302Y416230D01*
X1191140Y416091D01*
X1190978Y415998D01*
X1190816Y415905D01*
X1190654Y415836D01*
X1190515Y415790D01*
X1190399Y415767D01*
X1190307Y415743D01*
X1189821D01*
X1189636Y415790D01*
X1189497Y415813D01*
X1189404Y415836D01*
X1189381D01*
X1189057Y415975D01*
X1188756Y416137D01*
X1188479Y416299D01*
X1188247Y416507D01*
X1188085Y416669D01*
X1187947Y416808D01*
X1187854Y416900D01*
X1187831Y416947D01*
X1187623Y417248D01*
X1187461Y417572D01*
X1187345Y417849D01*
X1187252Y418127D01*
X1187183Y418358D01*
X1187160Y418520D01*
X1187137Y418636D01*
Y418682D01*
Y418983D01*
X1187160Y419238D01*
X1187229Y419492D01*
X1187299Y419677D01*
X1187368Y419839D01*
X1187414Y419955D01*
X1187461Y420024D01*
X1187484Y420047D01*
X1187646Y420233D01*
X1187831Y420371D01*
X1188039Y420487D01*
X1188224Y420580D01*
X1188409Y420649D01*
X1188548Y420695D01*
X1188641Y420718D01*
X1188687D01*
X1189011Y420742D01*
X1189312Y420765D01*
X1189613D01*
X1189960Y420742D01*
X1190260Y420718D01*
X1190376Y420695D01*
X1190469D01*
X1190515Y420672D01*
X1190538D01*
X1190908Y420533D01*
X1191279Y420418D01*
X1191626Y420302D01*
X1191903Y420186D01*
X1192158Y420094D01*
X1192366Y420024D01*
X1192482Y419978D01*
X1192528Y419955D01*
X1193245Y419631D01*
X1193593Y419492D01*
X1193893Y419376D01*
X1194148Y419261D01*
X1194333Y419191D01*
X1194472Y419145D01*
X1194495Y419122D01*
X1194518D01*
X1194379Y419469D01*
X1194240Y419747D01*
X1194194Y419862D01*
X1194148Y419932D01*
X1194125Y419978D01*
Y420001D01*
X1193963Y420325D01*
X1193824Y420603D01*
X1193778Y420695D01*
X1193755Y420788D01*
X1193731Y420834D01*
Y420857D01*
X1193708Y420996D01*
Y421112D01*
X1193731Y421204D01*
Y421251D01*
X1193778Y421413D01*
X1193824Y421528D01*
X1193847Y421575D01*
X1193870Y421598D01*
X1193963Y421644D01*
X1194079Y421690D01*
X1194611D01*
X1194703Y421667D01*
D02*
G37*
G36*
X1176122Y422223D02*
X1176377Y422153D01*
X1176493Y422130D01*
X1176562Y422107D01*
X1176608Y422084D01*
X1176631D01*
X1176886Y421968D01*
X1177117Y421852D01*
X1177187Y421806D01*
X1177256Y421760D01*
X1177302Y421737D01*
X1177326D01*
X1177858Y421459D01*
X1178367Y421181D01*
X1178853Y420927D01*
X1179292Y420695D01*
X1179640Y420510D01*
X1179801Y420418D01*
X1179917Y420371D01*
X1180033Y420302D01*
X1180102Y420256D01*
X1180149Y420233D01*
X1180172D01*
X1180727Y420001D01*
X1181282Y419816D01*
X1181815Y419700D01*
X1182301Y419631D01*
X1182717Y419585D01*
X1182879D01*
X1183041Y419562D01*
X1183319D01*
X1183457Y419538D01*
X1183573Y419492D01*
X1183666Y419446D01*
X1183712Y419423D01*
X1183828Y419307D01*
X1183897Y419215D01*
X1183943Y419145D01*
Y419122D01*
Y418983D01*
Y418844D01*
X1183920Y418728D01*
X1183897Y418705D01*
Y418682D01*
X1183851Y418520D01*
X1183782Y418405D01*
X1183735Y418335D01*
X1183712Y418312D01*
X1183504Y418196D01*
X1183319Y418104D01*
X1183180Y418034D01*
X1183157Y418011D01*
X1183134D01*
X1182879Y417942D01*
X1182648Y417919D01*
X1182578Y417896D01*
X1182509Y417872D01*
X1182439D01*
X1182254Y417826D01*
X1182069Y417803D01*
X1181907Y417826D01*
X1181144D01*
X1181282Y417548D01*
X1181421Y417271D01*
X1181537Y417016D01*
X1181653Y416808D01*
X1181745Y416623D01*
X1181815Y416484D01*
X1181838Y416391D01*
X1181861Y416368D01*
X1182139Y415836D01*
X1182277Y415605D01*
X1182370Y415396D01*
X1182462Y415211D01*
X1182532Y415073D01*
X1182578Y414980D01*
X1182601Y414957D01*
X1182856Y414402D01*
X1182972Y414124D01*
X1183041Y413892D01*
X1183134Y413707D01*
X1183180Y413545D01*
X1183203Y413453D01*
X1183226Y413406D01*
X1183296Y413106D01*
X1183342Y412828D01*
X1183365Y412527D01*
Y412273D01*
X1183342Y412041D01*
Y411879D01*
X1183319Y411764D01*
Y411717D01*
X1183272Y411417D01*
X1183180Y411139D01*
X1183087Y410907D01*
X1182995Y410699D01*
X1182902Y410537D01*
X1182810Y410421D01*
X1182763Y410352D01*
X1182740Y410329D01*
X1182555Y410144D01*
X1182347Y410005D01*
X1182115Y409889D01*
X1181884Y409797D01*
X1181699Y409727D01*
X1181537Y409681D01*
X1181421Y409658D01*
X1181375D01*
X1181051Y409612D01*
X1180773Y409589D01*
X1180658Y409565D01*
X1180472D01*
X1180126Y409589D01*
X1179825Y409635D01*
X1179709Y409658D01*
X1179616Y409681D01*
X1179570Y409704D01*
X1179547D01*
X1178969Y409936D01*
X1178436Y410213D01*
X1177973Y410491D01*
X1177580Y410745D01*
X1177233Y411000D01*
X1177002Y411185D01*
X1176909Y411278D01*
X1176840Y411324D01*
X1176816Y411347D01*
X1176793Y411370D01*
X1176377Y411787D01*
X1175984Y412203D01*
X1175636Y412597D01*
X1175336Y412990D01*
X1175081Y413314D01*
X1174873Y413568D01*
X1174803Y413661D01*
X1174757Y413730D01*
X1174711Y413777D01*
Y413800D01*
X1174665Y413915D01*
X1174641Y414031D01*
Y414124D01*
Y414147D01*
X1174688Y414286D01*
X1174711Y414402D01*
Y414494D01*
Y414517D01*
X1174850Y414494D01*
X1174965Y414471D01*
X1175081D01*
X1175243Y414425D01*
X1175359Y414378D01*
X1175405Y414355D01*
X1175428Y414332D01*
X1175706Y414077D01*
X1175937Y413846D01*
X1176030Y413754D01*
X1176099Y413684D01*
X1176122Y413638D01*
X1176145Y413615D01*
X1176400Y413360D01*
X1176655Y413129D01*
X1176747Y413059D01*
X1176816Y412990D01*
X1176863Y412944D01*
X1176886Y412920D01*
X1177302Y412573D01*
X1177511Y412411D01*
X1177673Y412249D01*
X1177835Y412134D01*
X1177950Y412041D01*
X1178020Y411972D01*
X1178043Y411949D01*
X1178436Y411602D01*
X1178644Y411463D01*
X1178830Y411347D01*
X1178969Y411231D01*
X1179084Y411162D01*
X1179177Y411116D01*
X1179200Y411092D01*
X1179431Y410977D01*
X1179663Y410930D01*
X1179848Y410907D01*
X1180010D01*
X1180126Y410930D01*
X1180241Y410954D01*
X1180287Y411000D01*
X1180311D01*
X1180449Y411139D01*
X1180565Y411301D01*
X1180635Y411486D01*
X1180681Y411648D01*
X1180704Y411810D01*
Y411949D01*
Y412041D01*
Y412064D01*
X1180658Y412296D01*
X1180611Y412527D01*
X1180588Y412620D01*
Y412666D01*
X1180565Y412712D01*
Y412735D01*
X1180496Y412944D01*
X1180403Y413129D01*
X1180334Y413268D01*
X1180311Y413291D01*
Y413314D01*
X1180079Y413754D01*
X1179848Y414193D01*
X1179640Y414610D01*
X1179454Y414980D01*
X1179292Y415304D01*
X1179177Y415535D01*
X1179130Y415628D01*
X1179084Y415697D01*
X1179061Y415720D01*
Y415743D01*
X1178830Y416183D01*
X1178598Y416600D01*
X1178390Y416993D01*
X1178205Y417363D01*
X1178043Y417664D01*
X1177927Y417896D01*
X1177881Y417988D01*
X1177835Y418058D01*
X1177812Y418081D01*
Y418104D01*
X1177418Y418867D01*
X1177233Y419215D01*
X1177094Y419538D01*
X1176979Y419793D01*
X1176863Y420001D01*
X1176816Y420140D01*
X1176793Y420186D01*
X1176400Y420950D01*
X1176238Y421297D01*
X1176076Y421621D01*
X1175960Y421875D01*
X1175868Y422084D01*
X1175798Y422223D01*
X1175775Y422269D01*
X1176122Y422223D01*
D02*
G37*
G36*
X1203658Y428007D02*
X1203728Y427984D01*
X1203751D01*
X1203936Y427938D01*
X1204098Y427845D01*
X1204190Y427776D01*
X1204237Y427753D01*
X1204399Y427637D01*
X1204538Y427522D01*
X1204607Y427429D01*
X1204630Y427406D01*
X1204885Y427128D01*
X1205070Y426874D01*
X1205139Y426758D01*
X1205209Y426688D01*
X1205232Y426642D01*
X1205255Y426619D01*
X1205486Y426318D01*
X1205648Y426041D01*
X1205718Y425925D01*
X1205741Y425832D01*
X1205787Y425786D01*
Y425763D01*
X1205903Y425578D01*
X1206018Y425416D01*
X1206111Y425277D01*
X1206204Y425161D01*
X1206296Y425092D01*
X1206366Y425022D01*
X1206389Y424999D01*
X1206412Y424976D01*
X1206736Y424860D01*
X1207037Y424814D01*
X1207175Y424791D01*
X1207708D01*
X1208008Y424768D01*
X1208124D01*
X1208217Y424745D01*
X1208309D01*
X1208656Y424652D01*
X1208957Y424560D01*
X1209073Y424513D01*
X1209165Y424490D01*
X1209212Y424444D01*
X1209235D01*
X1209351Y424375D01*
X1209443Y424259D01*
X1209489Y424166D01*
X1209512Y424143D01*
Y424120D01*
X1209628Y423935D01*
X1209698Y423773D01*
X1209744Y423680D01*
X1209767Y423634D01*
X1209651Y423565D01*
X1209536Y423472D01*
X1209443Y423403D01*
X1209420Y423380D01*
X1209281Y423310D01*
X1209142Y423287D01*
X1209050Y423241D01*
X1209027D01*
X1208726Y423218D01*
X1208448Y423171D01*
X1208332D01*
X1208240Y423148D01*
X1207777D01*
X1207407Y423125D01*
X1207245D01*
X1207106Y423102D01*
X1206990D01*
X1207222Y422824D01*
X1207430Y422547D01*
X1207615Y422315D01*
X1207754Y422107D01*
X1207893Y421922D01*
X1207985Y421806D01*
X1208032Y421713D01*
X1208055Y421690D01*
X1208217Y421459D01*
X1208379Y421228D01*
X1208541Y421019D01*
X1208680Y420857D01*
X1208795Y420718D01*
X1208888Y420626D01*
X1208957Y420556D01*
X1208980Y420533D01*
X1209374Y420163D01*
X1209582Y420001D01*
X1209767Y419839D01*
X1209906Y419724D01*
X1210022Y419631D01*
X1210114Y419585D01*
X1210137Y419562D01*
X1210577Y419238D01*
X1210785Y419099D01*
X1210970Y418983D01*
X1211132Y418867D01*
X1211248Y418798D01*
X1211340Y418752D01*
X1211364Y418728D01*
X1211803Y418497D01*
X1212011Y418381D01*
X1212197Y418289D01*
X1212359Y418219D01*
X1212497Y418150D01*
X1212590Y418127D01*
X1212613Y418104D01*
X1213076Y417896D01*
X1213284Y417803D01*
X1213493Y417710D01*
X1213654Y417641D01*
X1213770Y417572D01*
X1213863Y417548D01*
X1213886Y417525D01*
X1213840Y417433D01*
Y417410D01*
Y417386D01*
X1213793Y417340D01*
X1213747Y417294D01*
X1213724Y417248D01*
Y417225D01*
X1213076Y417410D01*
X1212775Y417502D01*
X1212521Y417572D01*
X1212289Y417618D01*
X1212104Y417664D01*
X1211988Y417710D01*
X1211942D01*
X1211248Y417872D01*
X1210924Y417965D01*
X1210623Y418034D01*
X1210369Y418104D01*
X1210160Y418150D01*
X1210045Y418173D01*
X1209998Y418196D01*
X1210183Y417780D01*
X1210346Y417386D01*
X1210508Y417016D01*
X1210669Y416692D01*
X1210785Y416438D01*
X1210878Y416230D01*
X1210947Y416114D01*
X1210970Y416068D01*
X1211294Y415304D01*
X1211456Y414957D01*
X1211572Y414656D01*
X1211665Y414378D01*
X1211734Y414170D01*
X1211780Y414031D01*
X1211803Y414008D01*
Y413985D01*
X1211942Y413522D01*
X1212011Y413314D01*
X1212058Y413129D01*
X1212081Y412967D01*
X1212104Y412851D01*
X1212127Y412759D01*
Y412735D01*
X1212173Y412249D01*
X1212197Y412018D01*
Y411810D01*
X1212220Y411625D01*
Y411486D01*
Y411393D01*
Y411370D01*
Y411023D01*
X1212150Y410722D01*
X1212058Y410445D01*
X1211942Y410236D01*
X1211803Y410051D01*
X1211711Y409912D01*
X1211618Y409820D01*
X1211595Y409797D01*
X1211364Y409612D01*
X1211109Y409496D01*
X1210855Y409403D01*
X1210623Y409334D01*
X1210438Y409288D01*
X1210276Y409264D01*
X1209952D01*
X1209698Y409288D01*
X1209466Y409311D01*
X1209235Y409357D01*
X1209027Y409403D01*
X1208865Y409450D01*
X1208726Y409473D01*
X1208633Y409519D01*
X1208610D01*
X1208355Y409612D01*
X1208124Y409704D01*
X1207893Y409820D01*
X1207708Y409936D01*
X1207546Y410028D01*
X1207430Y410121D01*
X1207361Y410167D01*
X1207337Y410190D01*
X1207037Y410445D01*
X1206759Y410699D01*
X1206527Y410954D01*
X1206296Y411185D01*
X1206134Y411370D01*
X1205995Y411532D01*
X1205903Y411625D01*
X1205880Y411671D01*
X1205440Y412296D01*
X1205255Y412573D01*
X1205093Y412851D01*
X1204954Y413083D01*
X1204862Y413245D01*
X1204792Y413360D01*
X1204769Y413406D01*
X1204699Y413545D01*
X1204653Y413684D01*
X1204630Y413777D01*
Y413800D01*
X1204584Y413939D01*
X1204561Y414077D01*
X1204538Y414170D01*
Y414193D01*
X1204630Y414263D01*
X1204676Y414286D01*
X1204746Y414332D01*
X1204769D01*
X1205116Y413939D01*
X1205278Y413754D01*
X1205440Y413592D01*
X1205556Y413476D01*
X1205648Y413360D01*
X1205718Y413291D01*
X1205741Y413268D01*
X1206134Y412851D01*
X1206296Y412666D01*
X1206458Y412527D01*
X1206574Y412388D01*
X1206666Y412296D01*
X1206736Y412226D01*
X1206759Y412203D01*
X1207060Y411926D01*
X1207314Y411694D01*
X1207430Y411602D01*
X1207523Y411532D01*
X1207569Y411486D01*
X1207592Y411463D01*
X1207870Y411208D01*
X1208147Y411023D01*
X1208263Y410954D01*
X1208355Y410907D01*
X1208425Y410861D01*
X1208448D01*
X1208656Y410769D01*
X1208841Y410722D01*
X1209027Y410699D01*
X1209165Y410722D01*
X1209304Y410745D01*
X1209397Y410769D01*
X1209443Y410815D01*
X1209466D01*
X1209605Y410930D01*
X1209698Y411092D01*
X1209767Y411255D01*
X1209813Y411417D01*
Y411578D01*
Y411694D01*
Y411787D01*
Y411810D01*
X1209744Y412134D01*
X1209675Y412411D01*
X1209628Y412527D01*
X1209582Y412620D01*
X1209559Y412666D01*
Y412689D01*
X1209443Y413013D01*
X1209327Y413291D01*
X1209258Y413383D01*
X1209235Y413476D01*
X1209189Y413522D01*
Y413545D01*
X1208980Y414008D01*
X1208749Y414471D01*
X1208541Y414887D01*
X1208355Y415258D01*
X1208194Y415582D01*
X1208078Y415813D01*
X1208032Y415905D01*
X1207985Y415975D01*
X1207962Y415998D01*
Y416021D01*
X1207731Y416484D01*
X1207499Y416947D01*
X1207291Y417363D01*
X1207106Y417733D01*
X1206944Y418058D01*
X1206828Y418289D01*
X1206782Y418381D01*
X1206736Y418451D01*
X1206713Y418474D01*
Y418497D01*
X1206504Y418867D01*
X1206319Y419215D01*
X1206157Y419515D01*
X1205995Y419816D01*
X1205880Y420047D01*
X1205787Y420233D01*
X1205718Y420348D01*
X1205695Y420395D01*
X1205301Y421089D01*
X1205139Y421413D01*
X1204977Y421713D01*
X1204862Y421968D01*
X1204769Y422153D01*
X1204699Y422269D01*
X1204676Y422315D01*
X1204491Y422639D01*
X1204306Y422894D01*
X1204214Y422986D01*
X1204144Y423056D01*
X1204121Y423079D01*
X1204098Y423102D01*
X1203936Y423171D01*
X1203774Y423241D01*
X1203473Y423287D01*
X1203126D01*
X1202802Y423264D01*
X1202524Y423241D01*
X1202247D01*
X1201900Y423264D01*
X1201622Y423287D01*
X1201344D01*
X1201067Y423333D01*
X1200858Y423403D01*
X1200766Y423426D01*
X1200696Y423449D01*
X1200673Y423472D01*
X1200650D01*
X1200534Y423541D01*
X1200465Y423634D01*
X1200372Y423866D01*
X1200349Y423958D01*
X1200326Y424051D01*
Y424097D01*
Y424120D01*
X1200349Y424259D01*
X1200396Y424398D01*
X1200511Y424560D01*
X1200604Y424675D01*
X1200627Y424698D01*
X1200650D01*
X1200882Y424768D01*
X1201090Y424814D01*
X1201182D01*
X1201229Y424837D01*
X1201298D01*
X1201622Y424884D01*
X1201923Y424907D01*
X1202038D01*
X1202131Y424930D01*
X1202200D01*
X1202571Y424976D01*
X1202895Y424999D01*
X1203034D01*
X1203126Y425022D01*
X1203219D01*
X1203126Y425254D01*
X1203057Y425416D01*
X1203010Y425532D01*
X1202987Y425555D01*
X1202941Y425694D01*
X1202895Y425832D01*
X1202848Y425925D01*
X1202825Y425948D01*
X1202756Y426133D01*
X1202686Y426272D01*
X1202663Y426365D01*
X1202640Y426388D01*
X1202571Y426550D01*
X1202524Y426688D01*
X1202501Y426781D01*
Y426827D01*
X1202478Y427059D01*
X1202501Y427267D01*
X1202548Y427452D01*
X1202594Y427591D01*
X1202663Y427707D01*
X1202733Y427776D01*
X1202756Y427822D01*
X1202779Y427845D01*
X1202918Y427938D01*
X1203080Y428007D01*
X1203242Y428031D01*
X1203542D01*
X1203658Y428007D01*
D02*
G37*
G36*
X1263635Y429326D02*
X1263682Y429303D01*
X1263705D01*
X1264561Y429211D01*
X1265348Y429049D01*
X1266088Y428864D01*
X1266412Y428748D01*
X1266713Y428655D01*
X1266991Y428563D01*
X1267222Y428447D01*
X1267454Y428354D01*
X1267616Y428285D01*
X1267777Y428216D01*
X1267870Y428169D01*
X1267940Y428146D01*
X1267963Y428123D01*
X1268657Y427730D01*
X1269305Y427290D01*
X1269906Y426874D01*
X1270439Y426457D01*
X1270670Y426272D01*
X1270878Y426110D01*
X1271063Y425948D01*
X1271225Y425809D01*
X1271341Y425717D01*
X1271433Y425624D01*
X1271480Y425578D01*
X1271503Y425555D01*
X1271688Y425370D01*
X1271873Y425161D01*
X1272012Y424976D01*
X1272151Y424791D01*
X1272243Y424606D01*
X1272313Y424467D01*
X1272359Y424375D01*
X1272382Y424351D01*
X1272660Y423842D01*
X1272776Y423611D01*
X1272868Y423403D01*
X1272961Y423218D01*
X1273030Y423056D01*
X1273076Y422963D01*
X1273100Y422940D01*
X1273169Y422685D01*
X1273215Y422431D01*
X1273238Y422338D01*
Y422246D01*
Y422200D01*
Y422176D01*
Y421875D01*
X1273215Y421621D01*
X1273192Y421528D01*
X1273169Y421459D01*
X1273146Y421413D01*
Y421390D01*
X1273076Y421181D01*
X1273053Y420996D01*
Y420834D01*
Y420695D01*
X1273076Y420603D01*
X1273123Y420533D01*
X1273146Y420510D01*
Y420487D01*
X1273261Y420395D01*
X1273377Y420302D01*
X1273632Y420163D01*
X1273747Y420117D01*
X1273840Y420071D01*
X1273909Y420047D01*
X1273933D01*
X1274280Y419885D01*
X1274627Y419724D01*
X1274928Y419562D01*
X1275205Y419423D01*
X1275437Y419284D01*
X1275622Y419168D01*
X1275714Y419099D01*
X1275761Y419076D01*
X1276085Y418844D01*
X1276362Y418613D01*
X1276640Y418382D01*
X1276871Y418173D01*
X1277056Y417988D01*
X1277195Y417849D01*
X1277288Y417757D01*
X1277311Y417710D01*
X1277635Y417294D01*
X1277913Y416877D01*
X1278144Y416461D01*
X1278329Y416044D01*
X1278468Y415651D01*
X1278560Y415258D01*
X1278630Y414887D01*
X1278676Y414563D01*
X1278699Y414240D01*
Y413939D01*
X1278676Y413684D01*
X1278653Y413476D01*
X1278630Y413291D01*
X1278607Y413175D01*
X1278584Y413083D01*
Y413059D01*
X1278422Y412643D01*
X1278213Y412249D01*
X1277982Y411879D01*
X1277727Y411555D01*
X1277427Y411278D01*
X1277126Y411000D01*
X1276825Y410792D01*
X1276524Y410583D01*
X1276246Y410398D01*
X1275969Y410260D01*
X1275714Y410144D01*
X1275483Y410051D01*
X1275298Y409982D01*
X1275159Y409936D01*
X1275066Y409889D01*
X1275043D01*
X1274604Y409774D01*
X1274395Y409727D01*
X1274210Y409681D01*
X1274048Y409658D01*
X1273933Y409635D01*
X1273840Y409612D01*
X1273817D01*
X1273400Y409519D01*
X1273192Y409496D01*
X1273030Y409450D01*
X1272868Y409426D01*
X1272753D01*
X1272683Y409403D01*
X1272660D01*
X1272058Y409380D01*
X1271480D01*
X1270948Y409426D01*
X1270485Y409473D01*
X1270115Y409542D01*
X1269953Y409565D01*
X1269814Y409589D01*
X1269698Y409635D01*
X1269629D01*
X1269582Y409658D01*
X1269559D01*
X1269027Y409843D01*
X1268541Y410074D01*
X1268078Y410329D01*
X1267662Y410560D01*
X1267338Y410792D01*
X1267199Y410884D01*
X1267083Y410977D01*
X1266968Y411046D01*
X1266898Y411092D01*
X1266875Y411139D01*
X1266852D01*
X1266644Y411324D01*
X1266482Y411509D01*
X1266320Y411717D01*
X1266204Y411902D01*
X1265996Y412273D01*
X1265880Y412643D01*
X1265811Y412944D01*
X1265788Y413198D01*
Y413291D01*
Y413360D01*
Y413383D01*
Y413406D01*
X1265834Y413661D01*
X1265880Y413892D01*
X1266065Y414332D01*
X1266273Y414702D01*
X1266528Y415003D01*
X1266759Y415258D01*
X1266968Y415443D01*
X1267106Y415535D01*
X1267130Y415582D01*
X1267153D01*
X1267569Y415813D01*
X1268009Y415998D01*
X1268425Y416114D01*
X1268796Y416183D01*
X1269120Y416230D01*
X1269605D01*
X1270091Y416137D01*
X1270531Y415998D01*
X1270925Y415813D01*
X1271272Y415628D01*
X1271526Y415443D01*
X1271734Y415281D01*
X1271850Y415188D01*
X1271896Y415142D01*
X1272081Y414934D01*
X1272243Y414725D01*
X1272336Y414517D01*
X1272429Y414355D01*
X1272475Y414193D01*
X1272498Y414077D01*
X1272521Y414008D01*
Y413985D01*
Y413777D01*
X1272498Y413592D01*
X1272452Y413430D01*
X1272382Y413291D01*
X1272313Y413175D01*
X1272243Y413083D01*
X1272197Y413036D01*
X1272174Y413013D01*
X1272035Y412897D01*
X1271873Y412805D01*
X1271711Y412759D01*
X1271549Y412712D01*
X1271410Y412689D01*
X1271202D01*
X1270994Y412735D01*
X1270786Y412782D01*
X1270601Y412874D01*
X1270439Y412967D01*
X1270300Y413059D01*
X1270184Y413152D01*
X1270115Y413198D01*
X1270091Y413221D01*
X1269999Y413337D01*
X1269906Y413476D01*
X1269837Y413568D01*
X1269814Y413615D01*
X1269698Y413730D01*
X1269582Y413823D01*
X1269490Y413869D01*
X1269467Y413892D01*
X1269258Y413962D01*
X1269050Y414008D01*
X1268888Y414031D01*
X1268842D01*
X1268634Y414054D01*
X1268495Y414031D01*
X1268379Y414008D01*
X1268356Y413985D01*
X1268240Y413846D01*
X1268125Y413684D01*
X1268078Y413545D01*
X1268055Y413522D01*
Y413499D01*
Y413268D01*
X1268078Y413083D01*
X1268102Y412967D01*
X1268125Y412944D01*
Y412921D01*
X1268240Y412643D01*
X1268356Y412411D01*
X1268402Y412319D01*
X1268448Y412249D01*
X1268495Y412226D01*
Y412203D01*
X1268703Y411949D01*
X1268888Y411740D01*
X1269027Y411625D01*
X1269050Y411578D01*
X1269073D01*
X1269351Y411393D01*
X1269629Y411255D01*
X1269883Y411139D01*
X1270115Y411046D01*
X1270323Y410977D01*
X1270485Y410931D01*
X1270577Y410907D01*
X1270624D01*
X1271248Y410838D01*
X1271526Y410815D01*
X1272336D01*
X1272822Y410884D01*
X1273261Y411000D01*
X1273655Y411162D01*
X1273956Y411347D01*
X1274210Y411532D01*
X1274395Y411694D01*
X1274511Y411810D01*
X1274557Y411856D01*
X1274812Y412249D01*
X1274997Y412643D01*
X1275136Y413036D01*
X1275205Y413406D01*
X1275228Y413754D01*
Y414008D01*
Y414101D01*
Y414170D01*
Y414216D01*
Y414240D01*
X1275159Y414656D01*
X1275066Y415049D01*
X1274951Y415396D01*
X1274835Y415697D01*
X1274743Y415929D01*
X1274650Y416114D01*
X1274581Y416230D01*
X1274557Y416276D01*
X1274326Y416600D01*
X1274095Y416924D01*
X1273863Y417201D01*
X1273632Y417433D01*
X1273447Y417641D01*
X1273285Y417780D01*
X1273192Y417896D01*
X1273146Y417919D01*
X1272868Y418127D01*
X1272614Y418289D01*
X1272359Y418428D01*
X1272151Y418543D01*
X1271966Y418636D01*
X1271804Y418682D01*
X1271711Y418729D01*
X1271688D01*
X1271387Y418798D01*
X1271086D01*
X1270809Y418775D01*
X1270531Y418705D01*
X1270300Y418636D01*
X1270115Y418567D01*
X1269999Y418520D01*
X1269953Y418497D01*
X1269698Y418358D01*
X1269444Y418266D01*
X1269189Y418196D01*
X1268958Y418150D01*
X1268749Y418127D01*
X1268587Y418104D01*
X1268171D01*
X1267893Y418127D01*
X1267616Y418173D01*
X1267384Y418219D01*
X1267176Y418266D01*
X1267037Y418312D01*
X1266921Y418335D01*
X1266898Y418358D01*
X1266667Y418474D01*
X1266505Y418590D01*
X1266366Y418729D01*
X1266273Y418844D01*
X1266204Y418960D01*
X1266158Y419053D01*
X1266135Y419099D01*
Y419122D01*
Y419307D01*
X1266204Y419469D01*
X1266297Y419654D01*
X1266412Y419793D01*
X1266528Y419909D01*
X1266620Y420001D01*
X1266690Y420071D01*
X1266713Y420094D01*
X1266898Y420210D01*
X1267060Y420302D01*
X1267199Y420371D01*
X1267222Y420395D01*
X1267245D01*
X1267477Y420510D01*
X1267708Y420626D01*
X1267801Y420695D01*
X1267893Y420718D01*
X1267940Y420765D01*
X1267963D01*
X1267662Y420904D01*
X1267430Y421019D01*
X1267361Y421066D01*
X1267292Y421089D01*
X1267268Y421112D01*
X1267245D01*
X1267037Y421204D01*
X1266852Y421274D01*
X1266713Y421320D01*
X1266690Y421343D01*
X1266667D01*
X1265973Y421690D01*
X1265649Y421852D01*
X1265371Y421991D01*
X1265117Y422107D01*
X1264931Y422200D01*
X1264816Y422246D01*
X1264769Y422269D01*
X1264422Y422431D01*
X1264075Y422616D01*
X1263774Y422778D01*
X1263497Y422940D01*
X1263265Y423079D01*
X1263080Y423195D01*
X1262988Y423264D01*
X1262941Y423287D01*
X1262548Y423565D01*
X1262363Y423727D01*
X1262201Y423866D01*
X1262062Y423981D01*
X1261970Y424074D01*
X1261900Y424143D01*
X1261877Y424166D01*
X1261692Y424375D01*
X1261530Y424560D01*
X1261368Y424745D01*
X1261252Y424930D01*
X1261160Y425069D01*
X1261090Y425184D01*
X1261067Y425254D01*
X1261044Y425277D01*
X1260905Y425578D01*
X1260813Y425879D01*
X1260743Y426133D01*
X1260674Y426411D01*
X1260627Y426874D01*
X1260651Y427267D01*
X1260674Y427591D01*
X1260743Y427822D01*
X1260766Y427915D01*
X1260789Y427984D01*
X1260813Y428007D01*
Y428031D01*
X1260928Y428239D01*
X1261067Y428401D01*
X1261229Y428563D01*
X1261437Y428702D01*
X1261831Y428933D01*
X1262270Y429118D01*
X1262664Y429234D01*
X1262849Y429257D01*
X1262988Y429303D01*
X1263127Y429326D01*
X1263219Y429350D01*
X1263520D01*
X1263635Y429326D01*
D02*
G37*
G36*
X1160503Y422338D02*
X1160758D01*
X1160966Y422315D01*
X1161151Y422292D01*
X1161313D01*
X1161406Y422269D01*
X1161429D01*
X1162007Y422176D01*
X1162540Y422038D01*
X1163049Y421875D01*
X1163465Y421690D01*
X1163812Y421528D01*
X1163951Y421459D01*
X1164067Y421390D01*
X1164159Y421320D01*
X1164229Y421297D01*
X1164275Y421251D01*
X1164298D01*
X1164784Y420927D01*
X1165224Y420580D01*
X1165617Y420256D01*
X1165987Y419955D01*
X1166288Y419700D01*
X1166519Y419492D01*
X1166589Y419423D01*
X1166658Y419353D01*
X1166682Y419330D01*
X1166705Y419307D01*
X1167237Y418821D01*
X1167491Y418590D01*
X1167700Y418381D01*
X1167885Y418219D01*
X1168047Y418081D01*
X1168139Y417988D01*
X1168162Y417965D01*
X1168440Y417733D01*
X1168718Y417548D01*
X1168995Y417363D01*
X1169250Y417225D01*
X1169481Y417109D01*
X1169643Y417016D01*
X1169759Y416970D01*
X1169805Y416947D01*
X1170129Y416831D01*
X1170407Y416739D01*
X1170523Y416692D01*
X1170615Y416669D01*
X1170661Y416646D01*
X1170685D01*
X1170985Y416553D01*
X1171240Y416461D01*
X1171332Y416415D01*
X1171425Y416391D01*
X1171471Y416368D01*
X1171495D01*
Y416276D01*
Y416230D01*
Y416114D01*
Y416091D01*
Y416068D01*
X1171147Y415998D01*
X1170847Y415975D01*
X1170731Y415952D01*
X1170638Y415929D01*
X1170546D01*
X1170152Y415859D01*
X1169990Y415836D01*
X1169828D01*
X1169713Y415813D01*
X1169620Y415790D01*
X1169528D01*
X1169597Y415327D01*
X1169643Y415142D01*
X1169666Y414957D01*
X1169713Y414818D01*
X1169736Y414702D01*
X1169759Y414633D01*
Y414610D01*
X1169852Y414216D01*
X1169875Y414031D01*
X1169898Y413869D01*
X1169921Y413754D01*
X1169944Y413638D01*
Y413568D01*
Y413545D01*
X1169967Y413036D01*
X1169921Y412573D01*
X1169828Y412180D01*
X1169713Y411833D01*
X1169597Y411532D01*
X1169481Y411324D01*
X1169389Y411185D01*
X1169366Y411162D01*
Y411139D01*
X1169065Y410815D01*
X1168741Y410514D01*
X1168394Y410283D01*
X1168047Y410098D01*
X1167746Y409936D01*
X1167514Y409843D01*
X1167422Y409797D01*
X1167353Y409774D01*
X1167306Y409750D01*
X1167283D01*
X1166890Y409658D01*
X1166496Y409589D01*
X1166103Y409565D01*
X1165710Y409589D01*
X1165339Y409612D01*
X1164969Y409658D01*
X1164599Y409727D01*
X1164275Y409797D01*
X1163974Y409889D01*
X1163697Y409982D01*
X1163442Y410074D01*
X1163234Y410144D01*
X1163072Y410213D01*
X1162956Y410283D01*
X1162863Y410306D01*
X1162840Y410329D01*
X1162424Y410560D01*
X1162030Y410815D01*
X1161683Y411069D01*
X1161359Y411347D01*
X1161082Y411648D01*
X1160827Y411926D01*
X1160619Y412203D01*
X1160411Y412481D01*
X1160249Y412759D01*
X1160133Y412990D01*
X1160017Y413221D01*
X1159925Y413406D01*
X1159855Y413568D01*
X1159809Y413707D01*
X1159786Y413777D01*
Y413800D01*
X1160249Y413453D01*
X1160457Y413291D01*
X1160642Y413152D01*
X1160781Y413036D01*
X1160897Y412944D01*
X1160966Y412897D01*
X1160989Y412874D01*
X1161383Y412550D01*
X1161568Y412411D01*
X1161753Y412296D01*
X1161892Y412203D01*
X1162007Y412134D01*
X1162077Y412088D01*
X1162100Y412064D01*
X1162540Y411810D01*
X1162748Y411671D01*
X1162933Y411555D01*
X1163095Y411463D01*
X1163211Y411393D01*
X1163303Y411347D01*
X1163326Y411324D01*
X1163789Y411116D01*
X1164020Y411023D01*
X1164205Y410954D01*
X1164368Y410884D01*
X1164506Y410861D01*
X1164599Y410815D01*
X1164622D01*
X1165062Y410745D01*
X1165455D01*
X1165779Y410792D01*
X1166057Y410884D01*
X1166265Y410954D01*
X1166404Y411046D01*
X1166496Y411116D01*
X1166519Y411139D01*
X1166705Y411393D01*
X1166820Y411694D01*
X1166913Y412018D01*
X1166959Y412342D01*
X1166982Y412620D01*
Y412851D01*
X1166959Y412944D01*
Y413013D01*
Y413036D01*
Y413059D01*
X1166867Y413499D01*
X1166751Y413892D01*
X1166658Y414286D01*
X1166543Y414610D01*
X1166427Y414864D01*
X1166334Y415073D01*
X1166288Y415211D01*
X1166265Y415258D01*
X1166080Y415628D01*
X1165895Y415998D01*
X1165733Y416345D01*
X1165548Y416669D01*
X1165409Y416924D01*
X1165293Y417109D01*
X1165224Y417248D01*
X1165201Y417294D01*
X1165015Y417618D01*
X1164830Y417896D01*
X1164645Y418173D01*
X1164483Y418405D01*
X1164344Y418613D01*
X1164229Y418752D01*
X1164159Y418867D01*
X1164136Y418890D01*
X1163882Y419168D01*
X1163627Y419423D01*
X1163396Y419631D01*
X1163141Y419816D01*
X1162933Y419978D01*
X1162771Y420094D01*
X1162678Y420163D01*
X1162632Y420186D01*
X1162192Y420395D01*
X1162007Y420487D01*
X1161822Y420556D01*
X1161660Y420626D01*
X1161544Y420672D01*
X1161452Y420718D01*
X1161429D01*
X1160966Y420904D01*
X1160758Y420973D01*
X1160573Y421043D01*
X1160411Y421089D01*
X1160295Y421135D01*
X1160202Y421158D01*
X1160179D01*
X1160017Y421181D01*
X1159878Y421158D01*
X1159786Y421135D01*
X1159740Y421112D01*
X1159601Y421043D01*
X1159439Y421019D01*
X1159346Y420973D01*
X1159300D01*
X1159369Y420834D01*
X1159416Y420695D01*
X1159462Y420603D01*
X1159485Y420580D01*
X1159555Y420441D01*
X1159624Y420325D01*
X1159670Y420233D01*
X1159693Y420186D01*
X1159832Y420024D01*
X1159971Y419862D01*
X1160087Y419747D01*
X1160110Y419724D01*
X1160133Y419700D01*
X1160295Y419515D01*
X1160434Y419353D01*
X1160526Y419215D01*
X1160549Y419191D01*
Y419168D01*
X1160665Y418867D01*
X1160758Y418613D01*
X1160781Y418520D01*
X1160804Y418428D01*
Y418381D01*
Y418358D01*
Y418196D01*
X1160758Y418058D01*
X1160642Y417803D01*
X1160573Y417710D01*
X1160526Y417641D01*
X1160480Y417595D01*
X1160457Y417572D01*
X1160341Y417456D01*
X1160202Y417363D01*
X1160087Y417317D01*
X1159971Y417271D01*
X1159878Y417248D01*
X1159809Y417225D01*
X1159740D01*
X1159439Y417294D01*
X1159207Y417386D01*
X1159092Y417410D01*
X1159022Y417456D01*
X1158976Y417479D01*
X1158953D01*
X1158675Y417664D01*
X1158444Y417803D01*
X1158374Y417872D01*
X1158305Y417919D01*
X1158259Y417965D01*
X1158236D01*
X1157981Y418173D01*
X1157773Y418358D01*
X1157680Y418428D01*
X1157611Y418497D01*
X1157588Y418520D01*
X1157564Y418543D01*
X1157333Y418821D01*
X1157171Y419122D01*
X1157032Y419376D01*
X1156963Y419631D01*
X1156917Y419839D01*
X1156870Y420001D01*
Y420094D01*
Y420140D01*
Y420348D01*
X1156893Y420533D01*
X1156917Y420672D01*
X1156940Y420695D01*
Y420718D01*
X1157009Y420927D01*
X1157102Y421135D01*
X1157333Y421459D01*
X1157611Y421713D01*
X1157912Y421922D01*
X1158189Y422061D01*
X1158421Y422153D01*
X1158490Y422176D01*
X1158559Y422199D01*
X1158606Y422223D01*
X1158629D01*
X1159115Y422315D01*
X1159346Y422338D01*
X1159555Y422361D01*
X1159971D01*
X1160503Y422338D01*
D02*
G37*
G36*
X1236100Y422130D02*
X1236192D01*
X1236586Y422084D01*
X1236771Y422061D01*
X1236933Y422038D01*
X1237048Y422014D01*
X1237164D01*
X1237234Y421991D01*
X1237257D01*
X1238043Y421783D01*
X1238784Y421528D01*
X1239455Y421251D01*
X1239756Y421112D01*
X1240033Y420973D01*
X1240265Y420857D01*
X1240496Y420718D01*
X1240681Y420626D01*
X1240843Y420510D01*
X1240982Y420441D01*
X1241075Y420371D01*
X1241121Y420348D01*
X1241144Y420325D01*
X1241769Y419862D01*
X1242324Y419376D01*
X1242833Y418890D01*
X1243273Y418428D01*
X1243643Y418011D01*
X1243805Y417826D01*
X1243921Y417687D01*
X1244013Y417548D01*
X1244083Y417456D01*
X1244129Y417410D01*
X1244152Y417387D01*
X1244360Y417132D01*
X1244546Y416924D01*
X1244707Y416762D01*
X1244846Y416646D01*
X1244962Y416577D01*
X1245032Y416530D01*
X1245078Y416507D01*
X1245101D01*
X1245286Y416484D01*
X1245494Y416507D01*
X1245934Y416600D01*
X1246119Y416646D01*
X1246281Y416715D01*
X1246374Y416739D01*
X1246420Y416762D01*
X1246767Y416900D01*
X1247068Y417039D01*
X1247183Y417086D01*
X1247276Y417132D01*
X1247322Y417178D01*
X1247345D01*
X1247716Y417340D01*
X1248063Y417479D01*
X1248202Y417525D01*
X1248317Y417572D01*
X1248387Y417618D01*
X1248410D01*
X1248317Y417410D01*
X1248202Y417201D01*
X1248109Y417062D01*
X1248017Y416924D01*
X1247947Y416831D01*
X1247878Y416739D01*
X1247855Y416715D01*
X1247831Y416692D01*
X1247531Y416461D01*
X1247299Y416276D01*
X1247183Y416206D01*
X1247114Y416160D01*
X1247068Y416137D01*
X1247045Y416114D01*
X1246790Y415952D01*
X1246512Y415813D01*
X1246397Y415767D01*
X1246304Y415720D01*
X1246258Y415697D01*
X1246235D01*
X1246073Y415628D01*
X1245957Y415535D01*
X1245841Y415443D01*
X1245772Y415373D01*
X1245656Y415258D01*
X1245633Y415234D01*
Y415211D01*
X1245587Y415073D01*
Y414934D01*
X1245610Y414656D01*
X1245633Y414540D01*
X1245679Y414471D01*
X1245703Y414402D01*
Y414378D01*
X1245795Y414054D01*
X1245864Y413777D01*
X1245888Y413661D01*
X1245911Y413568D01*
X1245934Y413522D01*
Y413499D01*
X1245957Y412944D01*
X1245934Y412435D01*
X1245841Y411972D01*
X1245726Y411578D01*
X1245610Y411231D01*
X1245564Y411092D01*
X1245517Y410977D01*
X1245471Y410884D01*
X1245425Y410815D01*
X1245402Y410792D01*
Y410769D01*
X1245263Y410560D01*
X1245078Y410375D01*
X1244707Y410051D01*
X1244291Y409820D01*
X1243898Y409681D01*
X1243527Y409565D01*
X1243365Y409542D01*
X1243204Y409496D01*
X1243088D01*
X1242995Y409473D01*
X1242833D01*
X1242741Y409450D01*
X1242671Y409426D01*
X1242648Y409403D01*
X1242532Y409380D01*
X1242463Y409357D01*
X1241699D01*
X1241075Y409426D01*
X1240496Y409542D01*
X1240010Y409681D01*
X1239779Y409750D01*
X1239594Y409797D01*
X1239432Y409866D01*
X1239270Y409936D01*
X1239177Y409982D01*
X1239085Y410028D01*
X1239038Y410051D01*
X1239015D01*
X1238483Y410375D01*
X1237974Y410722D01*
X1237534Y411069D01*
X1237141Y411393D01*
X1236817Y411671D01*
X1236562Y411902D01*
X1236470Y411995D01*
X1236401Y412064D01*
X1236377Y412088D01*
X1236354Y412111D01*
X1236424Y412249D01*
X1236447Y412273D01*
Y412296D01*
X1236493Y412388D01*
Y412411D01*
Y412435D01*
X1236863Y412273D01*
X1237187Y412111D01*
X1237326Y412041D01*
X1237419Y411995D01*
X1237488Y411972D01*
X1237511Y411949D01*
X1237858Y411787D01*
X1238182Y411625D01*
X1238298Y411555D01*
X1238391Y411509D01*
X1238460Y411486D01*
X1238483Y411463D01*
X1238992Y411208D01*
X1239223Y411092D01*
X1239432Y411000D01*
X1239617Y410930D01*
X1239756Y410861D01*
X1239848Y410838D01*
X1239871Y410815D01*
X1240126Y410722D01*
X1240404Y410653D01*
X1240658Y410607D01*
X1240890Y410583D01*
X1241075Y410560D01*
X1241237Y410537D01*
X1241375D01*
X1241653Y410560D01*
X1241885Y410607D01*
X1242093Y410676D01*
X1242255Y410745D01*
X1242394Y410792D01*
X1242486Y410861D01*
X1242532Y410884D01*
X1242556Y410907D01*
X1242671Y411046D01*
X1242741Y411208D01*
X1242833Y411578D01*
X1242856Y411740D01*
X1242879Y411879D01*
Y411972D01*
Y411995D01*
X1242856Y412342D01*
X1242833Y412666D01*
X1242810Y412782D01*
Y412874D01*
X1242787Y412944D01*
Y412967D01*
X1242718Y413360D01*
X1242694Y413522D01*
X1242648Y413684D01*
X1242625Y413800D01*
Y413892D01*
X1242602Y413962D01*
Y413985D01*
X1242556Y414193D01*
X1242486Y414378D01*
X1242417Y414517D01*
X1242347Y414633D01*
X1242278Y414748D01*
X1242208Y414818D01*
X1242185Y414841D01*
X1242162Y414864D01*
X1241838Y415003D01*
X1241537Y415073D01*
X1241399Y415096D01*
X1241190D01*
X1240751Y415073D01*
X1240311Y415096D01*
X1239918Y415119D01*
X1239547Y415165D01*
X1239247Y415211D01*
X1239015Y415258D01*
X1238923Y415281D01*
X1238853D01*
X1238830Y415304D01*
X1238807D01*
X1238367Y415420D01*
X1237974Y415535D01*
X1237604Y415674D01*
X1237257Y415790D01*
X1236979Y415905D01*
X1236771Y415998D01*
X1236632Y416044D01*
X1236586Y416068D01*
X1236030Y416322D01*
X1235753Y416461D01*
X1235521Y416577D01*
X1235313Y416692D01*
X1235174Y416785D01*
X1235058Y416831D01*
X1235035Y416854D01*
X1234503Y417225D01*
X1234272Y417386D01*
X1234063Y417548D01*
X1233878Y417687D01*
X1233739Y417780D01*
X1233647Y417849D01*
X1233624Y417872D01*
X1233416Y418058D01*
X1233207Y418266D01*
X1233068Y418474D01*
X1232930Y418659D01*
X1232837Y418821D01*
X1232768Y418960D01*
X1232744Y419053D01*
X1232721Y419076D01*
X1232652Y419353D01*
X1232629Y419631D01*
Y419885D01*
X1232652Y420117D01*
X1232675Y420325D01*
X1232721Y420487D01*
X1232744Y420580D01*
X1232768Y420626D01*
X1232883Y420927D01*
X1233022Y421158D01*
X1233184Y421366D01*
X1233323Y421528D01*
X1233462Y421644D01*
X1233577Y421713D01*
X1233670Y421760D01*
X1233693Y421783D01*
X1233948Y421875D01*
X1234202Y421968D01*
X1234434Y422014D01*
X1234642Y422061D01*
X1234827Y422107D01*
X1234966Y422130D01*
X1235081D01*
X1235475Y422153D01*
X1235984D01*
X1236100Y422130D01*
D02*
G37*
G36*
X1220087Y422176D02*
X1220781Y422084D01*
X1221383Y421968D01*
X1221661Y421875D01*
X1221915Y421806D01*
X1222170Y421737D01*
X1222355Y421644D01*
X1222540Y421575D01*
X1222702Y421528D01*
X1222818Y421459D01*
X1222910Y421436D01*
X1222956Y421390D01*
X1222980D01*
X1223558Y421043D01*
X1224113Y420695D01*
X1224622Y420325D01*
X1225062Y419978D01*
X1225432Y419677D01*
X1225571Y419538D01*
X1225710Y419446D01*
X1225803Y419353D01*
X1225872Y419284D01*
X1225918Y419238D01*
X1225941Y419215D01*
X1226335Y418844D01*
X1226705Y418497D01*
X1227052Y418196D01*
X1227376Y417919D01*
X1227654Y417687D01*
X1227885Y417525D01*
X1228024Y417433D01*
X1228047Y417386D01*
X1228070D01*
X1228510Y417109D01*
X1228950Y416854D01*
X1229366Y416646D01*
X1229760Y416507D01*
X1230130Y416368D01*
X1230268Y416322D01*
X1230384Y416299D01*
X1230500Y416276D01*
X1230569Y416253D01*
X1230616Y416230D01*
X1230639D01*
X1230662Y416206D01*
X1230708Y416183D01*
X1230731Y416137D01*
Y416114D01*
X1230778Y416068D01*
X1230824Y415975D01*
X1230847Y415905D01*
X1230870Y415882D01*
X1230454Y415836D01*
X1230268Y415813D01*
X1230130Y415790D01*
X1229991Y415767D01*
X1229898D01*
X1229829Y415743D01*
X1229806D01*
X1229436Y415674D01*
X1229274Y415651D01*
X1229112Y415628D01*
X1228996Y415605D01*
X1228903Y415582D01*
X1228834D01*
X1228903Y415096D01*
X1228950Y414864D01*
X1228996Y414656D01*
X1229042Y414494D01*
X1229065Y414355D01*
X1229088Y414263D01*
Y414240D01*
X1229158Y413777D01*
X1229181Y413568D01*
Y413360D01*
X1229204Y413198D01*
X1229227Y413083D01*
Y412990D01*
Y412967D01*
X1229204Y412504D01*
X1229135Y412088D01*
X1229042Y411717D01*
X1228903Y411417D01*
X1228788Y411162D01*
X1228672Y410977D01*
X1228579Y410861D01*
X1228556Y410815D01*
X1228255Y410491D01*
X1227932Y410236D01*
X1227607Y410005D01*
X1227284Y409843D01*
X1227006Y409727D01*
X1226775Y409635D01*
X1226682Y409612D01*
X1226612Y409589D01*
X1226589Y409565D01*
X1226566D01*
X1226127Y409473D01*
X1225710Y409403D01*
X1225270Y409380D01*
X1224877Y409403D01*
X1224484Y409426D01*
X1224090Y409496D01*
X1223743Y409565D01*
X1223419Y409635D01*
X1223095Y409727D01*
X1222841Y409820D01*
X1222586Y409912D01*
X1222401Y410005D01*
X1222216Y410074D01*
X1222100Y410144D01*
X1222031Y410167D01*
X1222008Y410190D01*
X1221591Y410421D01*
X1221244Y410676D01*
X1220897Y410930D01*
X1220596Y411208D01*
X1220342Y411463D01*
X1220110Y411740D01*
X1219902Y412018D01*
X1219740Y412273D01*
X1219578Y412504D01*
X1219462Y412735D01*
X1219370Y412944D01*
X1219277Y413106D01*
X1219231Y413245D01*
X1219185Y413360D01*
X1219162Y413430D01*
Y413453D01*
X1219509Y413221D01*
X1219856Y412990D01*
X1220157Y412782D01*
X1220434Y412597D01*
X1220666Y412435D01*
X1220851Y412319D01*
X1220943Y412226D01*
X1220990Y412203D01*
X1221661Y411764D01*
X1221985Y411555D01*
X1222262Y411393D01*
X1222494Y411255D01*
X1222679Y411139D01*
X1222794Y411069D01*
X1222841Y411046D01*
X1223142Y410907D01*
X1223396Y410792D01*
X1223489Y410769D01*
X1223581Y410745D01*
X1223627Y410722D01*
X1223651D01*
X1223998Y410653D01*
X1224322Y410607D01*
X1224437Y410583D01*
X1224530Y410560D01*
X1224599Y410537D01*
X1224622D01*
X1224808Y410514D01*
X1224947Y410537D01*
X1225224Y410583D01*
X1225317Y410607D01*
X1225386Y410653D01*
X1225432Y410676D01*
X1225455D01*
X1225594Y410769D01*
X1225710Y410884D01*
X1225872Y411092D01*
X1225918Y411185D01*
X1225965Y411255D01*
X1225988Y411301D01*
Y411324D01*
X1226080Y411625D01*
X1226127Y411856D01*
X1226150Y411972D01*
X1226173Y412041D01*
Y412088D01*
Y412111D01*
X1226219Y412411D01*
X1226196Y412643D01*
Y412735D01*
Y412805D01*
X1226173Y412851D01*
Y412874D01*
X1226011Y413568D01*
X1225826Y414216D01*
X1225618Y414818D01*
X1225432Y415327D01*
X1225340Y415558D01*
X1225247Y415767D01*
X1225178Y415952D01*
X1225108Y416091D01*
X1225039Y416206D01*
X1225016Y416299D01*
X1224970Y416345D01*
Y416368D01*
X1224622Y416970D01*
X1224252Y417525D01*
X1223882Y418034D01*
X1223535Y418497D01*
X1223211Y418867D01*
X1223095Y419006D01*
X1222980Y419145D01*
X1222887Y419238D01*
X1222818Y419307D01*
X1222771Y419353D01*
X1222748Y419376D01*
X1222494Y419608D01*
X1222262Y419793D01*
X1222008Y419978D01*
X1221799Y420117D01*
X1221614Y420233D01*
X1221476Y420325D01*
X1221360Y420371D01*
X1221337Y420395D01*
X1220758Y420626D01*
X1220481Y420718D01*
X1220226Y420811D01*
X1219995Y420857D01*
X1219833Y420904D01*
X1219740Y420927D01*
X1219486D01*
X1219324Y420904D01*
X1219208Y420881D01*
X1219162Y420857D01*
X1218953Y420834D01*
X1218768Y420788D01*
X1218629Y420765D01*
X1218583D01*
X1218676Y420603D01*
X1218745Y420464D01*
X1218791Y420371D01*
X1218814Y420325D01*
X1218907Y420163D01*
X1219000Y420024D01*
X1219046Y419932D01*
X1219069Y419909D01*
X1219254Y419631D01*
X1219416Y419376D01*
X1219486Y419261D01*
X1219555Y419191D01*
X1219578Y419145D01*
X1219601Y419122D01*
X1219786Y418821D01*
X1219902Y418567D01*
X1219948Y418474D01*
X1219995Y418381D01*
X1220018Y418335D01*
Y418312D01*
X1220064Y418081D01*
X1220041Y417896D01*
X1220018Y417710D01*
X1219971Y417595D01*
X1219902Y417479D01*
X1219856Y417410D01*
X1219809Y417363D01*
X1219786Y417340D01*
X1219624Y417225D01*
X1219439Y417155D01*
X1219254Y417109D01*
X1219092Y417086D01*
X1218722D01*
X1218653Y417132D01*
X1218560Y417155D01*
X1218491Y417178D01*
X1218467D01*
X1218375Y417225D01*
X1218306Y417248D01*
X1218259Y417294D01*
X1218236D01*
X1217866Y417502D01*
X1217519Y417733D01*
X1217241Y417942D01*
X1217010Y418173D01*
X1216824Y418358D01*
X1216709Y418497D01*
X1216616Y418590D01*
X1216593Y418636D01*
X1216408Y418960D01*
X1216292Y419261D01*
X1216223Y419562D01*
X1216177Y419816D01*
Y420024D01*
Y420186D01*
X1216200Y420279D01*
Y420325D01*
X1216292Y420672D01*
X1216431Y420973D01*
X1216593Y421204D01*
X1216778Y421413D01*
X1216940Y421575D01*
X1217079Y421690D01*
X1217172Y421760D01*
X1217218Y421783D01*
X1217542Y421922D01*
X1217889Y422038D01*
X1218236Y422107D01*
X1218583Y422176D01*
X1218884Y422199D01*
X1219115Y422223D01*
X1219347D01*
X1220087Y422176D01*
D02*
G37*
%LPC*%
G36*
X1303690Y449018D02*
X1303250Y448995D01*
X1302857Y448972D01*
X1302487Y448902D01*
X1302139Y448856D01*
X1301839Y448787D01*
X1301561Y448717D01*
X1301330Y448625D01*
X1301121Y448555D01*
X1300959Y448509D01*
X1300844Y448463D01*
X1300774Y448439D01*
X1300751Y448416D01*
X1300358Y448231D01*
X1300011Y448000D01*
X1299317Y447514D01*
X1298738Y447005D01*
X1298460Y446750D01*
X1298229Y446496D01*
X1297998Y446264D01*
X1297812Y446033D01*
X1297650Y445848D01*
X1297512Y445663D01*
X1297396Y445524D01*
X1297327Y445408D01*
X1297280Y445339D01*
X1297257Y445316D01*
X1297049Y444922D01*
X1296910Y444552D01*
X1296841Y444182D01*
X1296794Y443881D01*
Y443603D01*
X1296817Y443418D01*
X1296841Y443279D01*
Y443256D01*
Y443233D01*
X1296956Y442863D01*
X1297118Y442539D01*
X1297327Y442285D01*
X1297535Y442053D01*
X1297720Y441891D01*
X1297882Y441775D01*
X1297998Y441706D01*
X1298044Y441683D01*
X1298345Y441544D01*
X1298645Y441451D01*
X1298900Y441428D01*
X1299155Y441405D01*
X1299340D01*
X1299502Y441428D01*
X1299594Y441451D01*
X1299641D01*
X1299941Y441544D01*
X1300196Y441683D01*
X1300427Y441845D01*
X1300635Y442007D01*
X1300797Y442169D01*
X1300913Y442308D01*
X1300983Y442400D01*
X1301006Y442423D01*
X1301214Y442770D01*
X1301399Y443048D01*
X1301469Y443164D01*
X1301538Y443256D01*
X1301561Y443303D01*
X1301584Y443326D01*
X1301792Y443673D01*
X1302001Y443951D01*
X1302093Y444066D01*
X1302139Y444136D01*
X1302186Y444182D01*
X1302209Y444205D01*
X1302371Y444413D01*
X1302556Y444598D01*
X1302741Y444760D01*
X1302903Y444876D01*
X1303042Y444992D01*
X1303158Y445061D01*
X1303250Y445107D01*
X1303273Y445131D01*
X1303505Y445246D01*
X1303736Y445293D01*
X1303944Y445339D01*
X1304153D01*
X1304338Y445316D01*
X1304477Y445293D01*
X1304592Y445269D01*
X1304615D01*
X1304916Y445154D01*
X1305194Y445015D01*
X1305425Y444876D01*
X1305634Y444737D01*
X1305772Y444622D01*
X1305888Y444506D01*
X1305957Y444436D01*
X1305981Y444413D01*
X1306166Y444205D01*
X1306305Y443951D01*
X1306420Y443719D01*
X1306513Y443488D01*
X1306582Y443279D01*
X1306629Y443117D01*
X1306652Y443002D01*
Y442956D01*
X1306698Y442678D01*
X1306721Y442400D01*
X1306698Y442146D01*
Y441937D01*
X1306652Y441752D01*
X1306629Y441613D01*
X1306605Y441521D01*
Y441498D01*
X1306536Y441243D01*
X1306420Y440989D01*
X1306328Y440757D01*
X1306212Y440549D01*
X1306120Y440387D01*
X1306050Y440248D01*
X1306004Y440156D01*
X1305981Y440132D01*
X1305703Y439762D01*
X1305402Y439415D01*
X1305078Y439114D01*
X1304731Y438814D01*
X1304384Y438559D01*
X1304037Y438328D01*
X1303690Y438119D01*
X1303366Y437934D01*
X1303042Y437749D01*
X1302764Y437610D01*
X1302487Y437495D01*
X1302278Y437402D01*
X1302070Y437333D01*
X1301931Y437286D01*
X1301839Y437240D01*
X1301816D01*
X1301306Y437101D01*
X1300797Y437009D01*
X1300311Y436986D01*
X1299826D01*
X1299363Y437009D01*
X1298946Y437078D01*
X1298530Y437147D01*
X1298136Y437240D01*
X1297789Y437356D01*
X1297489Y437472D01*
X1297211Y437587D01*
X1296979Y437680D01*
X1296794Y437772D01*
X1296655Y437842D01*
X1296563Y437888D01*
X1296540Y437911D01*
X1296401Y437980D01*
X1296239Y438073D01*
X1296146Y438143D01*
X1296100Y438166D01*
X1295961Y438235D01*
X1295799Y438304D01*
X1295707Y438328D01*
X1295661Y438351D01*
X1295475Y437980D01*
X1295313Y437610D01*
X1295151Y437263D01*
X1295036Y436986D01*
X1294920Y436731D01*
X1294828Y436523D01*
X1294781Y436407D01*
X1294758Y436361D01*
X1294573Y435990D01*
X1294411Y435667D01*
X1294272Y435343D01*
X1294133Y435065D01*
X1294018Y434834D01*
X1293948Y434649D01*
X1293902Y434533D01*
X1293879Y434487D01*
X1293833Y434348D01*
X1293786Y434209D01*
Y434116D01*
Y434093D01*
X1293763Y433931D01*
X1293786Y433792D01*
X1293809Y433723D01*
X1293833Y433700D01*
X1294156Y433052D01*
X1294295Y432751D01*
X1294434Y432473D01*
X1294527Y432242D01*
X1294619Y432080D01*
X1294666Y431964D01*
X1294689Y431918D01*
X1295036Y431224D01*
X1295198Y430923D01*
X1295360Y430622D01*
X1295475Y430368D01*
X1295568Y430183D01*
X1295637Y430067D01*
X1295661Y430021D01*
X1295869Y430298D01*
X1296008Y430530D01*
X1296077Y430622D01*
X1296123Y430692D01*
X1296146Y430715D01*
Y430738D01*
X1296331Y430969D01*
X1296470Y431177D01*
X1296517Y431270D01*
X1296563Y431316D01*
X1296586Y431363D01*
Y431386D01*
X1296956Y431872D01*
X1297327Y432311D01*
X1297697Y432705D01*
X1298044Y433052D01*
X1298322Y433330D01*
X1298553Y433538D01*
X1298645Y433607D01*
X1298715Y433653D01*
X1298738Y433700D01*
X1298761D01*
X1299247Y434047D01*
X1299733Y434324D01*
X1300196Y434556D01*
X1300659Y434718D01*
X1301052Y434857D01*
X1301214Y434903D01*
X1301353Y434949D01*
X1301469Y434972D01*
X1301561Y434995D01*
X1301607Y435019D01*
X1301630D01*
X1302001Y435088D01*
X1302371Y435134D01*
X1302718Y435158D01*
X1302996Y435181D01*
X1303459D01*
X1303574Y435158D01*
X1303620D01*
X1303967Y435088D01*
X1304315Y434972D01*
X1304615Y434810D01*
X1304893Y434672D01*
X1305125Y434510D01*
X1305287Y434394D01*
X1305402Y434301D01*
X1305448Y434278D01*
X1305726Y434024D01*
X1305934Y433769D01*
X1306120Y433538D01*
X1306281Y433283D01*
X1306374Y433075D01*
X1306467Y432913D01*
X1306490Y432820D01*
X1306513Y432774D01*
X1306605Y432450D01*
X1306652Y432126D01*
X1306698Y431802D01*
Y431525D01*
X1306675Y431270D01*
Y431062D01*
X1306652Y430946D01*
Y430923D01*
Y430900D01*
X1306559Y430553D01*
X1306397Y430229D01*
X1306235Y429951D01*
X1306050Y429743D01*
X1305865Y429581D01*
X1305726Y429442D01*
X1305634Y429373D01*
X1305587Y429350D01*
X1305263Y429211D01*
X1304939Y429118D01*
X1304615Y429072D01*
X1304083D01*
X1303875Y429095D01*
X1303759Y429141D01*
X1303713D01*
X1303597Y429188D01*
X1303482Y429234D01*
X1303389Y429280D01*
X1303366Y429303D01*
X1303273Y429350D01*
X1303181Y429396D01*
X1303111Y429419D01*
X1303088Y429442D01*
X1302834Y429558D01*
X1302556Y429650D01*
X1302301Y429720D01*
X1302047Y429743D01*
X1301538Y429766D01*
X1301075Y429720D01*
X1300682Y429627D01*
X1300497Y429581D01*
X1300358Y429535D01*
X1300242Y429511D01*
X1300150Y429465D01*
X1300103Y429442D01*
X1300080D01*
X1299779Y429303D01*
X1299502Y429141D01*
X1299247Y428979D01*
X1299016Y428817D01*
X1298622Y428470D01*
X1298298Y428146D01*
X1298067Y427845D01*
X1297905Y427614D01*
X1297859Y427522D01*
X1297812Y427475D01*
X1297789Y427429D01*
Y427406D01*
X1297558Y426874D01*
X1297489Y426619D01*
X1297396Y426388D01*
X1297350Y426179D01*
X1297303Y426041D01*
X1297257Y425948D01*
Y425902D01*
X1297188Y425323D01*
X1297164Y425069D01*
Y424814D01*
Y424606D01*
Y424444D01*
Y424351D01*
Y424305D01*
X1297188Y424004D01*
X1297257Y423703D01*
X1297442Y423195D01*
X1297674Y422755D01*
X1297951Y422385D01*
X1298206Y422107D01*
X1298437Y421899D01*
X1298530Y421829D01*
X1298599Y421783D01*
X1298645Y421737D01*
X1298669D01*
X1298923Y421598D01*
X1299178Y421505D01*
X1299455Y421413D01*
X1299710Y421366D01*
X1300196Y421343D01*
X1300635Y421366D01*
X1301029Y421436D01*
X1301191Y421459D01*
X1301330Y421505D01*
X1301422Y421552D01*
X1301515Y421575D01*
X1301561Y421598D01*
X1301584D01*
X1301931Y421783D01*
X1302232Y421945D01*
X1302371Y422014D01*
X1302464Y422084D01*
X1302510Y422107D01*
X1302533Y422130D01*
X1302926Y422361D01*
X1303088Y422454D01*
X1303227Y422570D01*
X1303343Y422662D01*
X1303435Y422732D01*
X1303482Y422778D01*
X1303505Y422801D01*
X1304106Y423287D01*
X1304685Y423796D01*
X1305217Y424305D01*
X1305749Y424791D01*
X1306235Y425300D01*
X1306698Y425786D01*
X1307115Y426249D01*
X1307485Y426688D01*
X1307832Y427105D01*
X1308156Y427475D01*
X1308410Y427822D01*
X1308618Y428100D01*
X1308804Y428331D01*
X1308919Y428517D01*
X1309012Y428609D01*
X1309035Y428655D01*
X1309428Y429280D01*
X1309799Y429928D01*
X1310146Y430576D01*
X1310470Y431224D01*
X1310747Y431849D01*
X1311002Y432450D01*
X1311233Y433052D01*
X1311441Y433607D01*
X1311627Y434139D01*
X1311765Y434602D01*
X1311904Y435019D01*
X1311997Y435389D01*
X1312090Y435690D01*
X1312136Y435898D01*
X1312159Y436037D01*
X1312182Y436083D01*
X1312344Y436824D01*
X1312437Y437541D01*
X1312483Y438212D01*
X1312506Y438814D01*
Y439091D01*
Y439346D01*
Y439554D01*
Y439739D01*
Y439878D01*
X1312483Y439994D01*
Y440063D01*
Y440086D01*
X1312390Y440827D01*
X1312228Y441544D01*
X1312043Y442192D01*
X1311927Y442493D01*
X1311835Y442770D01*
X1311719Y443025D01*
X1311627Y443279D01*
X1311534Y443465D01*
X1311465Y443650D01*
X1311395Y443788D01*
X1311349Y443881D01*
X1311303Y443951D01*
Y443974D01*
X1310932Y444598D01*
X1310539Y445154D01*
X1310146Y445686D01*
X1309776Y446126D01*
X1309475Y446519D01*
X1309336Y446658D01*
X1309220Y446797D01*
X1309128Y446889D01*
X1309058Y446959D01*
X1309012Y447005D01*
X1308989Y447028D01*
X1308457Y447468D01*
X1307878Y447861D01*
X1307323Y448162D01*
X1306790Y448416D01*
X1306559Y448509D01*
X1306328Y448578D01*
X1306143Y448648D01*
X1305957Y448717D01*
X1305819Y448764D01*
X1305726Y448787D01*
X1305657Y448810D01*
X1305634D01*
X1305125Y448902D01*
X1304615Y448972D01*
X1304153Y448995D01*
X1303690Y449018D01*
D02*
G37*
G36*
X1287701Y434139D02*
X1287492D01*
X1287053Y434093D01*
X1286682Y434001D01*
X1286358Y433885D01*
X1286081Y433746D01*
X1285872Y433630D01*
X1285710Y433515D01*
X1285618Y433422D01*
X1285595Y433399D01*
X1285479Y433260D01*
X1285410Y433121D01*
X1285363Y433006D01*
X1285340Y432913D01*
Y432820D01*
Y432751D01*
X1285363Y432705D01*
Y432682D01*
X1285410Y432566D01*
X1285502Y432450D01*
X1285687Y432311D01*
X1285780Y432265D01*
X1285872Y432219D01*
X1285919Y432196D01*
X1285942D01*
X1286243Y432126D01*
X1286567D01*
X1286891Y432149D01*
X1287191Y432173D01*
X1287446Y432219D01*
X1287631Y432288D01*
X1287770Y432311D01*
X1287793Y432335D01*
X1287816D01*
X1288186Y432496D01*
X1288510Y432659D01*
X1288788Y432867D01*
X1289019Y433052D01*
X1289205Y433237D01*
X1289343Y433376D01*
X1289436Y433468D01*
X1289459Y433515D01*
X1289158Y433723D01*
X1288834Y433885D01*
X1288510Y433977D01*
X1288186Y434070D01*
X1287909Y434116D01*
X1287701Y434139D01*
D02*
G37*
G36*
X1294989Y420279D02*
X1294272Y419839D01*
X1293948Y419631D01*
X1293647Y419446D01*
X1293393Y419284D01*
X1293208Y419168D01*
X1293092Y419099D01*
X1293046Y419076D01*
X1292328Y418613D01*
X1292005Y418405D01*
X1291704Y418219D01*
X1291449Y418058D01*
X1291241Y417942D01*
X1291125Y417849D01*
X1291079Y417826D01*
X1291657Y417225D01*
X1291935Y416947D01*
X1292190Y416692D01*
X1292398Y416484D01*
X1292583Y416322D01*
X1292675Y416206D01*
X1292722Y416160D01*
X1293323Y415559D01*
X1293601Y415281D01*
X1293879Y415003D01*
X1294087Y414795D01*
X1294249Y414633D01*
X1294365Y414517D01*
X1294411Y414471D01*
X1294503Y414378D01*
X1294573Y414332D01*
X1294666Y414286D01*
X1294897D01*
X1295059Y414378D01*
X1295198Y414471D01*
X1295290Y414540D01*
X1295336Y414563D01*
X1295938Y415165D01*
X1296216Y415466D01*
X1296494Y415720D01*
X1296702Y415929D01*
X1296864Y416091D01*
X1296979Y416183D01*
X1297026Y416230D01*
X1297697Y416877D01*
X1298021Y417178D01*
X1298298Y417456D01*
X1298553Y417710D01*
X1298738Y417896D01*
X1298877Y418011D01*
X1298900Y418058D01*
X1298923D01*
X1298414Y418173D01*
X1297951Y418289D01*
X1297558Y418428D01*
X1297234Y418543D01*
X1296956Y418659D01*
X1296748Y418752D01*
X1296632Y418821D01*
X1296586Y418844D01*
X1296262Y419076D01*
X1295938Y419307D01*
X1295684Y419562D01*
X1295429Y419770D01*
X1295244Y419978D01*
X1295105Y420140D01*
X1295013Y420233D01*
X1294989Y420279D01*
D02*
G37*
G36*
X1263913Y427522D02*
X1263774D01*
X1263659Y427498D01*
X1263566D01*
X1263381Y427475D01*
X1263219Y427406D01*
X1263057Y427336D01*
X1262941Y427244D01*
X1262849Y427151D01*
X1262779Y427082D01*
X1262756Y427036D01*
X1262733Y427012D01*
X1262641Y426851D01*
X1262594Y426665D01*
X1262571Y426480D01*
Y426295D01*
X1262594Y426110D01*
X1262617Y425971D01*
X1262641Y425879D01*
Y425855D01*
X1262710Y425601D01*
X1262803Y425370D01*
X1262918Y425184D01*
X1263034Y425023D01*
X1263127Y424907D01*
X1263219Y424814D01*
X1263288Y424768D01*
X1263312Y424745D01*
X1263682Y424444D01*
X1264006Y424189D01*
X1264145Y424097D01*
X1264237Y424027D01*
X1264307Y423981D01*
X1264330Y423958D01*
X1264746Y423727D01*
X1264955Y423634D01*
X1265140Y423541D01*
X1265278Y423472D01*
X1265417Y423426D01*
X1265487Y423403D01*
X1265510Y423380D01*
X1266112Y423171D01*
X1266412Y423079D01*
X1266690Y423009D01*
X1266898Y422940D01*
X1267083Y422894D01*
X1267199Y422870D01*
X1267245Y422847D01*
X1267893Y422685D01*
X1268194Y422593D01*
X1268472Y422523D01*
X1268703Y422454D01*
X1268865Y422408D01*
X1268981Y422385D01*
X1269027Y422361D01*
X1269096Y422477D01*
X1269120Y422523D01*
X1269212Y422662D01*
X1269235Y422685D01*
Y422709D01*
X1268958Y423264D01*
X1268657Y423796D01*
X1268379Y424259D01*
X1268102Y424675D01*
X1267847Y424999D01*
X1267754Y425138D01*
X1267662Y425254D01*
X1267569Y425346D01*
X1267523Y425416D01*
X1267477Y425439D01*
Y425462D01*
X1267060Y425902D01*
X1266620Y426272D01*
X1266181Y426596D01*
X1265764Y426851D01*
X1265394Y427059D01*
X1265232Y427128D01*
X1265093Y427198D01*
X1264978Y427244D01*
X1264885Y427290D01*
X1264839Y427313D01*
X1264816D01*
X1264561Y427406D01*
X1264307Y427452D01*
X1264098Y427498D01*
X1263913Y427522D01*
D02*
G37*
G36*
X1235984Y421135D02*
X1235822D01*
X1235706Y421089D01*
X1235567Y421019D01*
X1235475Y420950D01*
X1235406Y420881D01*
X1235359Y420834D01*
X1235336Y420811D01*
X1235244Y420672D01*
X1235174Y420533D01*
X1235128Y420395D01*
Y420279D01*
X1235105Y420163D01*
X1235128Y420071D01*
Y420024D01*
Y420001D01*
X1235220Y419677D01*
X1235336Y419423D01*
X1235406Y419307D01*
X1235429Y419238D01*
X1235475Y419191D01*
Y419168D01*
X1235706Y418867D01*
X1235938Y418590D01*
X1236169Y418335D01*
X1236377Y418127D01*
X1236562Y417942D01*
X1236701Y417826D01*
X1236794Y417733D01*
X1236840Y417710D01*
X1237141Y417502D01*
X1237465Y417317D01*
X1237766Y417178D01*
X1238043Y417039D01*
X1238275Y416947D01*
X1238460Y416877D01*
X1238576Y416831D01*
X1238622Y416808D01*
X1239062Y416646D01*
X1239247Y416577D01*
X1239432Y416507D01*
X1239594Y416484D01*
X1239709Y416438D01*
X1239802Y416415D01*
X1239825D01*
X1240334Y416345D01*
X1241005D01*
X1241144Y416368D01*
X1241283D01*
X1240936Y416877D01*
X1240589Y417363D01*
X1240288Y417803D01*
X1239987Y418173D01*
X1239756Y418497D01*
X1239571Y418728D01*
X1239501Y418821D01*
X1239455Y418890D01*
X1239409Y418914D01*
Y418937D01*
X1239015Y419353D01*
X1238599Y419724D01*
X1238182Y420047D01*
X1237789Y420302D01*
X1237442Y420533D01*
X1237164Y420672D01*
X1237072Y420742D01*
X1237002Y420788D01*
X1236956Y420811D01*
X1236933D01*
X1236655Y420950D01*
X1236401Y421043D01*
X1236308Y421066D01*
X1236215Y421089D01*
X1236169Y421112D01*
X1236146D01*
X1235984Y421135D01*
D02*
G37*
%LPD*%
M02*
