G04*
G04 #@! TF.GenerationSoftware,Altium Limited,Altium Designer,18.1.7 (191)*
G04*
G04 Layer_Color=65535*
%FSLAX44Y44*%
%MOMM*%
G71*
G01*
G75*
%ADD10C,0.2000*%
%ADD11C,0.1500*%
D10*
X1177260Y350410D02*
G03*
X1177260Y350410I-1000J0D01*
G01*
D11*
X1311001Y388680D02*
Y386014D01*
Y387347D01*
X1317666D01*
X1318999Y386014D01*
Y384681D01*
X1317666Y383348D01*
X1311001Y391346D02*
X1318999D01*
Y396677D01*
X1312334Y404675D02*
X1311001Y403342D01*
Y400676D01*
X1312334Y399343D01*
X1317666D01*
X1318999Y400676D01*
Y403342D01*
X1317666Y404675D01*
X1311001Y412672D02*
Y410006D01*
Y411339D01*
X1317666D01*
X1318999Y410006D01*
Y408674D01*
X1317666Y407341D01*
X1311001Y415338D02*
X1318999D01*
Y420670D01*
X1312334Y428667D02*
X1311001Y427334D01*
Y424668D01*
X1312334Y423335D01*
X1317666D01*
X1318999Y424668D01*
Y427334D01*
X1317666Y428667D01*
X1311001Y436665D02*
Y433999D01*
Y435332D01*
X1317666D01*
X1318999Y433999D01*
Y432666D01*
X1317666Y431333D01*
X1311001Y439330D02*
X1318999D01*
Y444662D01*
X1312334Y452659D02*
X1311001Y451326D01*
Y448661D01*
X1312334Y447328D01*
X1317666D01*
X1318999Y448661D01*
Y451326D01*
X1317666Y452659D01*
X1311001Y460657D02*
Y457991D01*
Y459324D01*
X1317666D01*
X1318999Y457991D01*
Y456658D01*
X1317666Y455325D01*
X1311001Y463323D02*
X1318999D01*
Y468654D01*
X1312334Y476652D02*
X1311001Y475319D01*
Y472653D01*
X1312334Y471320D01*
X1317666D01*
X1318999Y472653D01*
Y475319D01*
X1317666Y476652D01*
M02*
