G04*
G04 #@! TF.GenerationSoftware,Altium Limited,Altium Designer,18.1.7 (191)*
G04*
G04 Layer_Color=255*
%FSLAX44Y44*%
%MOMM*%
G71*
G01*
G75*
%ADD11R,0.6000X0.6000*%
%ADD12R,1.1500X0.6000*%
%ADD13R,1.1500X0.3000*%
%ADD22R,2.0000X1.8000*%
%ADD23R,2.0000X1.2000*%
%ADD24R,2.3000X1.2000*%
D11*
X1270080Y411000D02*
D03*
X1259920D02*
D03*
X1270080Y450000D02*
D03*
X1259920D02*
D03*
X1243080Y411000D02*
D03*
X1232920D02*
D03*
X1243080Y421000D02*
D03*
X1232920D02*
D03*
X1243080Y450000D02*
D03*
X1232920D02*
D03*
X1243080Y440000D02*
D03*
X1232920D02*
D03*
X1221080Y411000D02*
D03*
X1210920D02*
D03*
X1221080Y440000D02*
D03*
X1210920D02*
D03*
X1221080Y450000D02*
D03*
X1210920D02*
D03*
X1221080Y421000D02*
D03*
X1210920D02*
D03*
D12*
X1293030Y461410D02*
D03*
X1293000Y453910D02*
D03*
X1293030Y406910D02*
D03*
Y399410D02*
D03*
X1186970Y399410D02*
D03*
X1187000Y406910D02*
D03*
X1186970Y453910D02*
D03*
Y461410D02*
D03*
D13*
X1293030Y447910D02*
D03*
Y442910D02*
D03*
Y437910D02*
D03*
X1293000Y432910D02*
D03*
X1293030Y427910D02*
D03*
Y422910D02*
D03*
Y417910D02*
D03*
Y412910D02*
D03*
X1186970D02*
D03*
Y417910D02*
D03*
Y422910D02*
D03*
X1187000Y427910D02*
D03*
X1186970Y432910D02*
D03*
Y437910D02*
D03*
Y442910D02*
D03*
Y447910D02*
D03*
D22*
X1265400Y385000D02*
D03*
X1240000D02*
D03*
X1214600D02*
D03*
Y475000D02*
D03*
X1240000D02*
D03*
X1265400D02*
D03*
D23*
X1296830Y473710D02*
D03*
Y387210D02*
D03*
X1183170Y387110D02*
D03*
Y473610D02*
D03*
D24*
X1335430Y473710D02*
D03*
Y387210D02*
D03*
X1144570Y387110D02*
D03*
Y473610D02*
D03*
M02*
