M48
;Layer_Color=9474304
;FILE_FORMAT=4:4
METRIC,LZ
;TYPE=PLATED
T1F00S00C0.2540
T3F00S00C0.9000
;TYPE=NON_PLATED
T4F00S00C0.6500
%
T01
X01203Y0041
Y0042
Y0044
Y0045
X01251Y0045
Y0044
Y00421
Y00411
X01281Y00426
X01281Y00438
X0127Y00457
X01312Y0044309
X01313Y00414
T03
X012146Y00385
X0124
X012654
Y00475
X0124
X012146
T04
X01304Y0040041
Y0046041
X01176Y0046041
Y0040041
M30
