M48
;Layer_Color=9474304
;FILE_FORMAT=4:4
METRIC,LZ
;TYPE=PLATED
T1F00S00C0.2540
T3F00S00C0.9000
;TYPE=NON_PLATED
T4F00S00C0.6500
%
T01
X01295Y0037
X013075Y00375
X0132Y0037
X013325Y00375
X0132Y00402
X01308
X01316Y0042
X01332
X01345Y004175
Y004425
X0127Y004525
X0126Y0044
X01253Y00438
Y00426
X0126Y0042
X01269Y00409
T03
X012172Y003273
Y003527
X012426
X01268
X012934
X013188
Y003273
X012934
X01268
X012426
Y005123
Y005377
X01268
X012934
X013188
Y005123
X012934
X01268
X012172
Y005377
T04
X01231Y0040041
Y0046041
M30
