M48
;Layer_Color=9474304
;FILE_FORMAT=4:4
METRIC,LZ
;TYPE=PLATED
T1F00S00C0.2540
T3F00S00C0.6000
T4F00S00C0.8000
T5F00S00C0.8900
T6F00S00C1.5700
;TYPE=NON_PLATED
T7F00S00C0.6500
T8F00S00C0.8000
T9F00S00C1.1520
T10F00S00C2.3000
T11F00S00C3.2500
%
T01
X00218Y00293
X0023
X00209Y00335
X00247Y00359
X00253Y00354
X00272Y00356
X00262Y00366
X00257Y00371
X00254Y00392
X00284Y00378
X00304Y00387
X00316Y00386
X00342Y00389
Y00379
X00348Y00384
Y00394
Y00374
Y00364
X00343Y00359
X00348Y00354
X00327Y00359
X00315Y00328
X0037Y0035
X00376Y00355
X00386Y00359
X00394Y00371
Y00384
X00405
X00414Y00373
X00419Y00368
X00414Y00363
X00419Y00358
X00423Y00378
X00431Y00379
X00442Y00385
X00447Y00389
X00423
X00422Y00327
X00417Y00323
X00432Y00327
X00437Y00323
X00442Y00327
X00458
X00468Y00345
X00476Y00342
X00481Y00336
X0049Y00341
X00489Y00349
X00496Y0035
X00499Y00356
X00506Y00358
X00505Y00365
X00506Y00348
X00505Y00331
X00502Y003055
X00509Y00306
X00508Y00296
X00499
X00489Y00297
X00483Y00303
X00494Y00306
X00489Y00315
X00474Y0031
X00522Y00309
Y003
X00538Y00304
X00541Y0031
Y00322
X00548Y0033
X00544Y00337
X00548Y0035
X00531Y00349
X00535Y00356
X00541Y00374
X00535Y00391
X00529Y00395
X00523Y00385
X00508Y00384
X00507Y00395
X00501Y00392
X00556Y00396
X00565Y00392
X00566Y00375
Y00368
Y00351
X00576Y00342
Y00332
X00567Y00322
X00565Y00313
X00567Y00297
X00599
X00623Y00317
X00629Y00323
X00623Y00336
X00614Y00329
X00608Y00342
X00607Y00354
X00626Y00373
X00656Y00373
X00671Y00363
Y00348
Y00329
X0069Y00321
X00695Y00313
X00694Y00299
X00703Y00305
X00725
X00729Y00299
X00724Y00349
X00722Y00373
Y00383
X00698
Y00373
X00674Y00388
X00643Y00359
X00649Y00352
X00646Y00315
X00806Y00337
Y00359
Y00387
X00911Y0039
X00934Y00396
Y00382
X0094Y00371
X00948
X00961Y00396
X01022Y00392
X0104Y00392
X01048Y00385
X01029Y00372
X01035Y00397
X01045Y00401
X01041Y00413
X0103Y00416
X01021Y00418
X01023Y00403
X01002Y004
Y00419
X01049Y00423
X00955Y00437
X00961Y00444
X00966Y0045
Y00457
Y00466
X0091Y00501
X00815
X00806Y00474
X0083Y0045
X00806Y00426
X00806Y004
X00846Y00398
X0076Y00448
X00716Y0045
X00709
X00691Y00462
X00698Y00475
X00646Y00474
X00647Y00467
Y00457
X00658Y00449
X00669Y00442
X00698Y00416
X00722Y00425
X00627Y00414
X00602Y00412
Y00405
X00586Y004
X00598Y00428
X00605Y00449
X0061Y00455
X006
X00585
X0059Y0046
X0058Y00465
Y0048
X00585Y00485
X0059Y0048
X006
X0061Y00485
X00616Y00476
X00605Y00469
X00595Y00493
X00612Y005
X00645Y00496
X00653
X00649Y00491
X00654Y00488
X00659Y00491
X00665Y00502
X00643Y00488
X00575Y00485
X00577Y00451
X0057Y00448
X00533Y00437
X00543Y00421
X00533Y00409
X00535Y00399
X00514Y00412
X00506Y00425
X00501Y0043
X00496Y00416
X00491Y00421
X0048Y00419
X00481Y00404
X00488
X00493Y00399
X00501
X00512Y00443
X00507Y00462
X00527Y0046
Y00466
X00507Y00494
X00479
X00481Y00454
X00464Y00449
X00462Y00462
X0045Y00479
X00434Y00488
Y00441
X00446
X00463Y00427
X00399Y00425
X00402Y00457
X00407Y00462
X00423Y004
X00348Y00404
Y00414
X00346Y00429
X00342Y00451
X00326Y00447
X00306Y00453
X00293Y00436
X00289Y00418
X00317Y00411
X00329Y00414
X00342Y00399
X00235Y00402
X0024Y00408
X00236Y00414
X0024Y0042
X00236Y00426
X00245Y00442
T03
X00781Y00333
X00891Y00356
X00878Y00371
X00891Y00399
X00842Y00411
T04
X0041Y00297
X004354
X004608
X007656
X00791
X008164
X008418
X008672
X008926
T05
X009287Y003262
Y003491
X00977Y003592
Y003796
X009948Y003694
Y003898
Y004102
Y004306
X00977Y004204
Y004
X009287Y004405
Y004634
T06
X009859Y003135
Y004761
T07
X01023Y00365
Y00365
Y00425
Y00425
X006173Y0044857
X005573
T08
X003846Y00297
T09
X0104Y00299
X0105Y00315
Y0047
X0104Y00489
X0034Y00439
T10
X00887Y00481
T11
X010202Y003313
Y004583
M30
