G04*
G04 #@! TF.GenerationSoftware,Altium Limited,Altium Designer,18.1.7 (191)*
G04*
G04 Layer_Physical_Order=1*
G04 Layer_Color=255*
%FSLAX44Y44*%
%MOMM*%
G71*
G01*
G75*
%ADD10C,0.2000*%
%ADD12C,0.1500*%
%ADD15R,0.6000X0.6000*%
%ADD16R,0.3000X0.7000*%
%ADD17R,0.6000X0.6000*%
%ADD18R,1.1000X2.0000*%
%ADD19R,1.7000X0.6500*%
%ADD20O,1.7000X0.6500*%
%ADD21R,1.1500X0.6000*%
%ADD22R,1.1500X0.3000*%
%ADD23R,2.6000X1.7000*%
%ADD24R,1.7000X0.9000*%
%ADD25R,2.5000X0.9000*%
%ADD26R,0.4500X1.0000*%
%ADD27R,0.8000X0.8000*%
%ADD28R,1.0000X0.4500*%
%ADD29R,1.5000X1.2000*%
%ADD30R,0.9300X0.9800*%
%ADD31R,0.2800X0.2800*%
%ADD32O,0.2800X0.6600*%
%ADD33O,0.6600X0.2800*%
%ADD34R,1.2500X1.2500*%
%ADD35R,1.3000X1.5000*%
%ADD36R,1.5000X1.3000*%
%ADD37R,2.2500X0.3500*%
%ADD38R,0.6000X1.1500*%
%ADD39R,0.3000X1.1500*%
%ADD40R,0.7000X1.1000*%
G04:AMPARAMS|DCode=41|XSize=0.3mm|YSize=0.8mm|CornerRadius=0.075mm|HoleSize=0mm|Usage=FLASHONLY|Rotation=180.000|XOffset=0mm|YOffset=0mm|HoleType=Round|Shape=RoundedRectangle|*
%AMROUNDEDRECTD41*
21,1,0.3000,0.6500,0,0,180.0*
21,1,0.1500,0.8000,0,0,180.0*
1,1,0.1500,-0.0750,0.3250*
1,1,0.1500,0.0750,0.3250*
1,1,0.1500,0.0750,-0.3250*
1,1,0.1500,-0.0750,-0.3250*
%
%ADD41ROUNDEDRECTD41*%
G04:AMPARAMS|DCode=42|XSize=0.3mm|YSize=0.8mm|CornerRadius=0.075mm|HoleSize=0mm|Usage=FLASHONLY|Rotation=90.000|XOffset=0mm|YOffset=0mm|HoleType=Round|Shape=RoundedRectangle|*
%AMROUNDEDRECTD42*
21,1,0.3000,0.6500,0,0,90.0*
21,1,0.1500,0.8000,0,0,90.0*
1,1,0.1500,0.3250,0.0750*
1,1,0.1500,0.3250,-0.0750*
1,1,0.1500,-0.3250,-0.0750*
1,1,0.1500,-0.3250,0.0750*
%
%ADD42ROUNDEDRECTD42*%
%ADD43R,2.4000X1.7000*%
%ADD44R,0.9800X0.9300*%
%ADD45R,0.6000X0.2000*%
%ADD46R,1.4000X1.2000*%
%ADD47R,1.6700X0.7600*%
%ADD95C,0.3000*%
%ADD96C,0.4000*%
%ADD97C,0.5000*%
%ADD98R,4.6000X0.4000*%
%ADD99R,2.1000X0.8000*%
%ADD100R,1.6000X0.4000*%
%ADD101R,3.6000X0.4000*%
%ADD102R,1.5000X2.2000*%
%ADD103R,0.6000X0.8000*%
%ADD104R,0.4000X3.7000*%
%ADD105R,1.9000X0.6000*%
%ADD106R,1.6000X1.4000*%
%ADD107R,0.9000X1.4000*%
%ADD108R,5.3000X0.6000*%
%ADD109R,0.6000X0.4000*%
%ADD110R,0.4000X2.1000*%
%ADD111R,3.6000X1.3000*%
%ADD112R,2.2000X0.7000*%
%ADD113R,0.3000X1.7000*%
%ADD114O,1.5240X1.1000*%
%ADD115R,1.5000X1.1000*%
%ADD116O,1.5000X1.1000*%
%ADD117R,2.0000X1.2000*%
%ADD118R,2.3000X1.2000*%
%ADD119C,1.3980*%
%ADD120C,2.3550*%
%ADD121C,3.2500*%
%ADD122R,1.3980X1.3980*%
%ADD123C,1.1520*%
%ADD124R,1.2000X2.0000*%
%ADD125R,1.2000X2.3000*%
%ADD126C,0.5080*%
%ADD127C,1.0000*%
G36*
X459460Y493270D02*
X468500D01*
Y490730D01*
X459460D01*
Y485246D01*
X458287Y484760D01*
X457000Y486047D01*
Y500500D01*
X442000D01*
Y483500D01*
X449453D01*
X456213Y476741D01*
X456380Y475540D01*
X456380Y475540D01*
X456380Y475540D01*
Y471270D01*
X461920D01*
Y470000D01*
X463190D01*
Y464460D01*
X467460D01*
X468376Y463606D01*
Y451108D01*
X467106Y450723D01*
X466552Y451552D01*
X465381Y452335D01*
X464000Y452609D01*
X463996Y452609D01*
X458802Y457802D01*
X457976Y458355D01*
X457000Y458549D01*
X454549D01*
Y468000D01*
X454355Y468975D01*
X453802Y469802D01*
X437195Y486410D01*
X437335Y486619D01*
X437609Y488000D01*
X437335Y489381D01*
X436552Y490552D01*
X435381Y491335D01*
X434000Y491609D01*
X432619Y491335D01*
X431448Y490552D01*
X430665Y489381D01*
X430558Y488843D01*
X429180Y488425D01*
X423000Y494605D01*
Y502000D01*
X459460D01*
Y493270D01*
D02*
G37*
G36*
X621960Y490975D02*
Y481270D01*
X630500D01*
Y478730D01*
X621960D01*
Y470304D01*
X620787Y469818D01*
X619802Y470802D01*
X618975Y471355D01*
X618000Y471549D01*
X607554D01*
X607552Y471552D01*
X606426Y472304D01*
X606379Y472344D01*
X606026Y473700D01*
X612163Y479837D01*
X612163Y479837D01*
X612826Y480830D01*
X613059Y482000D01*
X613059Y482000D01*
Y483206D01*
X613335Y483619D01*
X613431Y484106D01*
X620787Y491461D01*
X621960Y490975D01*
D02*
G37*
G36*
X560960Y494960D02*
X563730D01*
Y501000D01*
X566270D01*
Y494960D01*
X567451D01*
Y476059D01*
X564000D01*
X562830Y475826D01*
X561837Y475163D01*
X561174Y474170D01*
X560941Y473000D01*
Y462569D01*
X538000D01*
X536634Y462297D01*
X535477Y461523D01*
X533797Y459844D01*
X532624Y460330D01*
Y479000D01*
X532148Y480148D01*
X532000Y480209D01*
Y487500D01*
X504310D01*
X504000Y487500D01*
X503040Y488248D01*
Y492730D01*
X492000D01*
Y495270D01*
X503040D01*
Y500730D01*
X503040Y501040D01*
X503788Y502000D01*
X560960D01*
Y494960D01*
D02*
G37*
G36*
X648738Y452888D02*
X648884Y452569D01*
X646198Y449882D01*
X645645Y449055D01*
X645451Y448080D01*
Y446080D01*
X642000D01*
Y438080D01*
X640987Y437460D01*
X640460D01*
Y433190D01*
X646000D01*
Y430650D01*
X640460D01*
Y426380D01*
X640460D01*
X640016Y425294D01*
X607112D01*
X606746Y426564D01*
X607119Y427122D01*
X607294Y428000D01*
Y430850D01*
X612760D01*
Y429310D01*
X617030D01*
Y437600D01*
X619570D01*
Y429310D01*
X621960D01*
Y428860D01*
X629230D01*
Y441400D01*
X630500D01*
Y442670D01*
X639040D01*
Y453451D01*
X646000D01*
X646348Y453520D01*
X647000Y453391D01*
X648136Y453617D01*
X648738Y452888D01*
D02*
G37*
G36*
X482500Y472500D02*
X504000D01*
Y468500D01*
X513351D01*
Y454000D01*
X511920D01*
Y446000D01*
X519920D01*
Y448190D01*
X520217Y448634D01*
X520489Y450000D01*
Y455376D01*
X526258D01*
X526937Y454106D01*
X526866Y454000D01*
X522080D01*
Y446000D01*
X530080D01*
Y446646D01*
X530366Y446703D01*
X531523Y447477D01*
X534287Y450240D01*
X535460Y449754D01*
Y440925D01*
X534190Y440373D01*
X533000Y440609D01*
X531619Y440335D01*
X531350Y440155D01*
X530080Y440834D01*
Y441000D01*
X522080D01*
X521460Y442013D01*
Y442540D01*
X517190D01*
Y437000D01*
X515920D01*
Y435730D01*
X510380D01*
Y432294D01*
X509011D01*
X508000Y432920D01*
Y440920D01*
X503210D01*
X502722Y442092D01*
X503702Y443080D01*
X508000D01*
Y451080D01*
X500000D01*
Y446587D01*
X498174Y444747D01*
X497000Y445231D01*
Y451080D01*
X494549D01*
Y457500D01*
X501500D01*
Y458376D01*
X508000D01*
X509148Y458852D01*
X509335Y459302D01*
X509552Y459448D01*
X510335Y460619D01*
X510609Y462000D01*
X510335Y463381D01*
X509552Y464552D01*
X509335Y464697D01*
X509148Y465148D01*
X508000Y465624D01*
X501500D01*
Y468500D01*
X482500D01*
Y465624D01*
X477194D01*
X476080Y466000D01*
Y474000D01*
X469347D01*
X468602Y475270D01*
X468693Y475431D01*
X482500D01*
Y472500D01*
D02*
G37*
G36*
X472000Y432000D02*
X462000Y432000D01*
X453000Y423000D01*
X450000Y423000D01*
X450000Y420000D01*
X407000Y420000D01*
X414000Y427000D01*
X444000D01*
X461000Y444000D01*
X472000D01*
Y432000D01*
D02*
G37*
G36*
X583000Y401882D02*
X582665Y401381D01*
X582391Y400000D01*
X582665Y398619D01*
X583000Y398118D01*
Y398000D01*
X583079D01*
X583448Y397448D01*
X584619Y396665D01*
X586000Y396391D01*
X587381Y396665D01*
X588552Y397448D01*
X588921Y398000D01*
X599000D01*
Y408220D01*
X600270Y408898D01*
X600619Y408665D01*
X602000Y408391D01*
X603381Y408665D01*
X603730Y408899D01*
X605000Y408220D01*
Y402080D01*
X613000D01*
Y403531D01*
X616000D01*
Y402080D01*
X624000D01*
Y403531D01*
X627000D01*
Y402080D01*
X632374D01*
X633136Y400810D01*
X632789Y400104D01*
X632196Y399920D01*
X627000D01*
Y394264D01*
X625827Y393778D01*
X624000Y395605D01*
Y399920D01*
X616000D01*
Y394264D01*
X614827Y393778D01*
X613000Y395605D01*
Y399920D01*
X605000D01*
Y391920D01*
X609475D01*
X612387Y389008D01*
X612379Y388937D01*
X611815Y387784D01*
X610750D01*
X610067Y387648D01*
X609488Y387262D01*
X609102Y386683D01*
X608966Y386000D01*
Y379500D01*
X609102Y378817D01*
X609488Y378238D01*
X610067Y377851D01*
X610750Y377716D01*
X612250D01*
X612933Y377851D01*
X613512Y378238D01*
X614488D01*
X615067Y377851D01*
X615750Y377716D01*
X617250D01*
X617933Y377851D01*
X618512Y378238D01*
X619488D01*
X620067Y377851D01*
X620750Y377716D01*
X622250D01*
X623451Y376787D01*
Y375554D01*
X623448Y375552D01*
X622665Y374381D01*
X622391Y373000D01*
X622665Y371619D01*
X623448Y370448D01*
X624619Y369665D01*
X626000Y369391D01*
X627381Y369665D01*
X628552Y370448D01*
X628554Y370451D01*
X650000D01*
Y368000D01*
Y310000D01*
Y304104D01*
X649488Y303762D01*
X648512D01*
X647933Y304148D01*
X647250Y304284D01*
X645750D01*
X644549Y305213D01*
Y307000D01*
X644355Y307975D01*
X643802Y308802D01*
X642975Y309355D01*
X642000Y309549D01*
X593121D01*
X593042Y309681D01*
X593762Y310951D01*
X597250D01*
X597324Y310966D01*
X600500D01*
X601183Y311101D01*
X601762Y311488D01*
X602149Y312067D01*
X602284Y312750D01*
Y313612D01*
X602460Y313858D01*
X603338Y314503D01*
X603520Y314546D01*
X604000Y314451D01*
X620446D01*
X620448Y314448D01*
X621619Y313665D01*
X623000Y313391D01*
X624381Y313665D01*
X625552Y314448D01*
X626335Y315619D01*
X626609Y317000D01*
X626335Y318381D01*
X626959Y319733D01*
X627335Y319855D01*
X627619Y319665D01*
X629000Y319391D01*
X630381Y319665D01*
X631552Y320448D01*
X632335Y321619D01*
X632609Y323000D01*
X632335Y324381D01*
X631552Y325552D01*
X630381Y326335D01*
X629000Y326609D01*
X627619Y326335D01*
X626523Y325602D01*
X617641Y325791D01*
X616972Y327076D01*
X617335Y327619D01*
X617609Y329000D01*
X617335Y330381D01*
X616552Y331552D01*
X615611Y332181D01*
X615762Y333299D01*
X615822Y333451D01*
X620446D01*
X620448Y333448D01*
X621619Y332665D01*
X623000Y332391D01*
X624381Y332665D01*
X625552Y333448D01*
X626335Y334619D01*
X626609Y336000D01*
X626335Y337381D01*
X625552Y338552D01*
X624381Y339335D01*
X623000Y339609D01*
X621619Y339335D01*
X620448Y338552D01*
X620446Y338549D01*
X611000D01*
X610025Y338355D01*
X609270Y337851D01*
D01*
X609198Y337802D01*
X607444Y336049D01*
X602996D01*
X602669Y336442D01*
X602199Y337319D01*
X602284Y337750D01*
Y339250D01*
X602149Y339933D01*
X601762Y340512D01*
Y341488D01*
X602149Y342067D01*
X602284Y342750D01*
Y344250D01*
X602155Y344899D01*
X602872Y345378D01*
X603599Y346466D01*
X603751Y347230D01*
X597250D01*
Y349770D01*
X603836D01*
X604731Y350951D01*
X605191D01*
X605619Y350665D01*
X607000Y350391D01*
X608381Y350665D01*
X609552Y351448D01*
X610335Y352619D01*
X610609Y354000D01*
X610335Y355381D01*
X609552Y356552D01*
X608381Y357335D01*
X607358Y357538D01*
X607549Y358500D01*
Y371000D01*
X607355Y371976D01*
X606802Y372802D01*
X601802Y377802D01*
X600975Y378355D01*
X600000Y378549D01*
X585000D01*
X584025Y378355D01*
X583493Y378000D01*
X579080D01*
Y370000D01*
X587080D01*
Y373451D01*
X598944D01*
X600091Y372304D01*
X599565Y371034D01*
X594000D01*
X593317Y370898D01*
X593161Y370794D01*
X591500D01*
X590622Y370619D01*
X589878Y370122D01*
X588050Y368294D01*
X583000D01*
X582122Y368119D01*
X581943Y368000D01*
X579080D01*
Y360549D01*
X576920D01*
Y368000D01*
X572804D01*
X572134Y368840D01*
X572640Y370000D01*
X576920D01*
Y378000D01*
X568920D01*
Y378000D01*
X567700Y378121D01*
X567381Y378335D01*
X566000Y378609D01*
X564619Y378335D01*
X563448Y377552D01*
X562665Y376381D01*
X562391Y375000D01*
X562665Y373619D01*
X563448Y372448D01*
X563355Y371141D01*
X563270Y371074D01*
X562000Y371689D01*
Y372080D01*
X558549D01*
Y375000D01*
X558355Y375975D01*
X557802Y376802D01*
X555900Y378705D01*
Y384950D01*
X544100D01*
X543072Y385533D01*
X538443Y390162D01*
X538609Y391000D01*
X538335Y392381D01*
X537552Y393552D01*
X536381Y394335D01*
X536291Y394353D01*
Y395647D01*
X536381Y395665D01*
X537552Y396448D01*
X538335Y397619D01*
X538609Y399000D01*
X538335Y400381D01*
X538298Y400436D01*
X538977Y401706D01*
X547000D01*
X547878Y401881D01*
X548622Y402378D01*
X557950Y411706D01*
X561000D01*
Y398000D01*
X577000D01*
Y411706D01*
X583000D01*
Y401882D01*
D02*
G37*
G36*
X449164Y415770D02*
X455750D01*
Y413230D01*
X449249D01*
X449401Y412466D01*
X450128Y411378D01*
X450845Y410899D01*
X450716Y410250D01*
Y408750D01*
X450852Y408067D01*
X451238Y407488D01*
Y406512D01*
X450852Y405933D01*
X450716Y405250D01*
Y403750D01*
X450852Y403067D01*
X451238Y402488D01*
Y401512D01*
X450852Y400933D01*
X450716Y400250D01*
Y398750D01*
X450852Y398067D01*
X451238Y397488D01*
Y396512D01*
X450852Y395933D01*
X450716Y395250D01*
Y393750D01*
X450852Y393067D01*
X451123Y392660D01*
X450914Y391870D01*
X450214Y391555D01*
X449584Y391505D01*
X449552Y391552D01*
X448381Y392335D01*
X447000Y392609D01*
X445619Y392335D01*
X444448Y391552D01*
X443665Y390381D01*
X443391Y389000D01*
X442181Y388573D01*
X442000Y388609D01*
X440619Y388335D01*
X439448Y387552D01*
X438665Y386381D01*
X438391Y385000D01*
X438665Y383619D01*
X439448Y382448D01*
X440619Y381665D01*
X440706Y381648D01*
Y363000D01*
X440881Y362122D01*
X441378Y361378D01*
X447706Y355050D01*
Y350000D01*
X447881Y349122D01*
X448378Y348378D01*
X462378Y334378D01*
X463122Y333881D01*
X464000Y333706D01*
X478275D01*
X478448Y333448D01*
X479402Y332810D01*
X479291Y331804D01*
X479191Y331540D01*
X477350D01*
Y326000D01*
X474810D01*
Y331540D01*
X470540D01*
Y331013D01*
X469920Y330000D01*
X461920D01*
Y329549D01*
X460554D01*
X460552Y329552D01*
X459381Y330335D01*
X458000Y330609D01*
X456619Y330335D01*
X455819Y329800D01*
X454638Y330283D01*
X454549Y330363D01*
Y334500D01*
X454534Y334574D01*
Y337750D01*
X454398Y338433D01*
X454263Y338636D01*
X454273Y338807D01*
X453983Y339654D01*
X453390Y340325D01*
X444034Y347453D01*
Y353500D01*
X443899Y354183D01*
X443512Y354762D01*
X442933Y355149D01*
X442250Y355284D01*
X440750D01*
X440101Y355155D01*
X439622Y355872D01*
X438534Y356599D01*
X437770Y356751D01*
Y350250D01*
X435230D01*
Y357058D01*
X434549Y357617D01*
Y378697D01*
X434609Y379000D01*
X434549Y379304D01*
Y380000D01*
X434355Y380975D01*
X433802Y381802D01*
X432975Y382355D01*
X432000Y382549D01*
X431652Y382480D01*
X431000Y382609D01*
X429619Y382335D01*
X428448Y381552D01*
X427665Y380381D01*
X427531Y379703D01*
X426975Y379554D01*
X426209Y379569D01*
X425552Y380552D01*
X424381Y381335D01*
X423000Y381609D01*
Y393000D01*
X421000D01*
X394000Y366000D01*
X390000Y366000D01*
Y388000D01*
X404000D01*
X423000Y407000D01*
Y407704D01*
X432247Y416951D01*
X448269D01*
X449164Y415770D01*
D02*
G37*
G36*
X679000Y391920D02*
X685749D01*
X686035Y391619D01*
X686580Y390650D01*
X686451Y390000D01*
Y371018D01*
X685608Y370659D01*
X685181Y370566D01*
X684683Y370898D01*
X684000Y371034D01*
X677500D01*
X676817Y370898D01*
X676238Y370512D01*
X675852Y369933D01*
X675716Y369250D01*
Y367750D01*
X675801Y367319D01*
X675331Y366442D01*
X675005Y366049D01*
X673549D01*
Y374944D01*
X675802Y377198D01*
X676355Y378024D01*
X676549Y379000D01*
Y385446D01*
X676552Y385448D01*
X677335Y386619D01*
X677609Y388000D01*
X677335Y389381D01*
X676552Y390552D01*
X676549Y390554D01*
Y392000D01*
X677000D01*
Y393371D01*
X679000D01*
Y391920D01*
D02*
G37*
G36*
X383000Y433000D02*
Y427000D01*
X387000D01*
Y420000D01*
Y419000D01*
X432000D01*
X403000Y390000D01*
X387000D01*
Y368000D01*
X380000Y362000D01*
Y419000D01*
X380000Y424000D01*
X371000Y424000D01*
X360000Y435000D01*
X360000Y444000D01*
X372000D01*
X383000Y433000D01*
D02*
G37*
G36*
X695329Y420000D02*
X695714Y418730D01*
X695448Y418552D01*
X694665Y417381D01*
X694391Y416000D01*
X694665Y414619D01*
X695448Y413448D01*
X696283Y412890D01*
X695898Y411620D01*
X694270D01*
Y407350D01*
X698540D01*
Y411203D01*
X698540Y411620D01*
X699179Y412625D01*
X699381Y412665D01*
X700552Y413448D01*
X700554Y413451D01*
X701920D01*
Y413000D01*
X709920D01*
Y420000D01*
X712080D01*
Y413000D01*
X715093D01*
X715540Y412911D01*
X715987Y413000D01*
X720080D01*
Y416395D01*
X723685Y420000D01*
X797000Y420000D01*
X797000Y345250D01*
X769000Y345250D01*
X769000Y327000D01*
X737000Y295000D01*
X731671D01*
X731286Y296270D01*
X731552Y296448D01*
X732335Y297619D01*
X732609Y299000D01*
X732335Y300381D01*
X731552Y301552D01*
X730381Y302335D01*
X729165Y302576D01*
X728704Y303156D01*
X728366Y303778D01*
X728609Y305000D01*
X728335Y306381D01*
X727552Y307552D01*
X726381Y308335D01*
X725000Y308609D01*
X723619Y308335D01*
X722448Y307552D01*
X722446Y307549D01*
X705554D01*
X705552Y307552D01*
X704381Y308335D01*
X703000Y308609D01*
X701619Y308335D01*
X700448Y307552D01*
X699665Y306381D01*
X699391Y305000D01*
X699665Y303619D01*
X700200Y302819D01*
X699717Y301638D01*
X699637Y301549D01*
X696554D01*
X696552Y301552D01*
X695381Y302335D01*
X694000Y302609D01*
X692619Y302335D01*
X691448Y301552D01*
X690665Y300381D01*
X690391Y299000D01*
X690665Y297619D01*
X691448Y296448D01*
X691714Y296270D01*
X691329Y295000D01*
X671407D01*
X670601Y295982D01*
X670604Y296000D01*
Y297980D01*
X666500D01*
Y299250D01*
X665230D01*
Y305751D01*
X664466Y305599D01*
X663378Y304872D01*
X662899Y304155D01*
X662250Y304284D01*
X660750D01*
X660067Y304148D01*
X659488Y303762D01*
X658512D01*
X657933Y304148D01*
X657250Y304284D01*
X655750D01*
X655270Y304189D01*
X654583Y304518D01*
X654000Y304963D01*
Y368668D01*
X655270Y369536D01*
X656000Y369391D01*
X657381Y369665D01*
X658552Y370448D01*
X659335Y371619D01*
X659609Y373000D01*
X659335Y374381D01*
X659049Y374809D01*
Y375269D01*
X660230Y376164D01*
Y382750D01*
X662770D01*
Y376249D01*
X663534Y376401D01*
X664622Y377128D01*
X665101Y377845D01*
X665750Y377716D01*
X667250D01*
X667668Y377799D01*
X668311Y377257D01*
X668608Y376790D01*
X668451Y376000D01*
Y365554D01*
X668448Y365552D01*
X667665Y364381D01*
X667391Y363000D01*
X667665Y361619D01*
X668448Y360448D01*
X669619Y359665D01*
X671000Y359391D01*
X672381Y359665D01*
X673552Y360448D01*
X673812Y360836D01*
X675069Y360873D01*
X675331Y360558D01*
X675801Y359681D01*
X675716Y359250D01*
Y357750D01*
X675845Y357101D01*
X675128Y356622D01*
X674401Y355534D01*
X674249Y354770D01*
X680750D01*
X687251D01*
X687244Y354804D01*
X687475Y356145D01*
X688302Y356698D01*
X690802Y359198D01*
X691355Y360025D01*
X691549Y361000D01*
Y388944D01*
X694525Y391920D01*
X697000D01*
Y394493D01*
X697355Y395025D01*
X697549Y396000D01*
X697355Y396976D01*
X697000Y397507D01*
X697000Y399920D01*
X698013Y400540D01*
X698540D01*
Y404810D01*
X693000D01*
Y406080D01*
X691730D01*
Y411620D01*
X688540D01*
Y411620D01*
X684270D01*
Y406080D01*
X681730D01*
Y411620D01*
X678540D01*
Y411700D01*
X674270D01*
Y406160D01*
X673000D01*
Y404890D01*
X667460D01*
Y400620D01*
X667987D01*
X669000Y400000D01*
X669000Y399350D01*
Y392000D01*
X671451D01*
Y390554D01*
X671448Y390552D01*
X670665Y389381D01*
X670391Y388000D01*
X670665Y386619D01*
X671448Y385448D01*
X671451Y385446D01*
Y380056D01*
X670189Y378793D01*
X669018Y379419D01*
X669034Y379500D01*
Y386000D01*
X668898Y386683D01*
X668512Y387262D01*
X667933Y387648D01*
X667250Y387784D01*
X665750D01*
X665101Y387655D01*
X664622Y388372D01*
X663534Y389099D01*
X662412Y389322D01*
X662173Y389481D01*
X661474Y390624D01*
X661549Y391000D01*
Y391920D01*
X663000D01*
Y399270D01*
X663000Y399920D01*
X664013Y400540D01*
X664540D01*
Y404810D01*
X653460D01*
Y400540D01*
X653987D01*
X655000Y399920D01*
X655000Y398507D01*
X654645Y397975D01*
X654451Y397000D01*
X654645Y396025D01*
X655000Y395493D01*
Y391920D01*
X655000D01*
X655385Y390990D01*
X654698Y390302D01*
X654145Y389476D01*
X652804Y389244D01*
X652770Y389251D01*
Y382750D01*
X650230D01*
Y389336D01*
X649049Y390231D01*
Y394500D01*
X649000Y394746D01*
X649000Y399920D01*
X650013Y400540D01*
X650540D01*
Y404810D01*
X639460D01*
Y400540D01*
X639987D01*
X641000Y399920D01*
X641000Y399270D01*
Y391920D01*
X643951D01*
Y388495D01*
X643558Y388169D01*
X642681Y387699D01*
X642250Y387784D01*
X640750D01*
X640101Y387655D01*
X639622Y388372D01*
X638534Y389099D01*
X637770Y389251D01*
Y382750D01*
X635230D01*
Y389336D01*
X634049Y390231D01*
Y391920D01*
X635000D01*
Y399920D01*
X636013Y400540D01*
X636540D01*
Y404810D01*
X631000D01*
Y407350D01*
X636540D01*
Y411620D01*
X631078D01*
X630388Y412890D01*
X630609Y414000D01*
X630335Y415381D01*
X629630Y416436D01*
X629764Y416988D01*
X630111Y417706D01*
X683000D01*
X683878Y417881D01*
X684622Y418378D01*
X685119Y419122D01*
X685294Y420000D01*
X695329D01*
D02*
G37*
G36*
X549270Y352380D02*
X552460D01*
Y352380D01*
X556730D01*
Y357920D01*
X559270D01*
Y352380D01*
X563540D01*
Y354558D01*
X564810Y355489D01*
X565000Y355451D01*
X567380D01*
Y353270D01*
X572920D01*
Y350730D01*
X567380D01*
Y348146D01*
X567080Y347000D01*
X566334Y347000D01*
X559080Y347000D01*
X558460Y348013D01*
Y348540D01*
X554190D01*
Y343000D01*
X552920D01*
Y341730D01*
X547380D01*
Y337460D01*
X553380D01*
Y334270D01*
X558920D01*
Y331730D01*
X553380D01*
Y328079D01*
X553057Y327323D01*
X552300Y327000D01*
X551780D01*
X551101Y328270D01*
X551335Y328619D01*
X551609Y330000D01*
X551335Y331381D01*
X550552Y332552D01*
X549381Y333335D01*
X548000Y333609D01*
X546619Y333335D01*
X545448Y332552D01*
X544665Y331381D01*
X544391Y330000D01*
X544665Y328619D01*
X544903Y328263D01*
X544920Y327000D01*
X544920Y327000D01*
Y324791D01*
X543650Y324406D01*
X543552Y324552D01*
X542381Y325335D01*
X541000Y325609D01*
X539619Y325335D01*
X538448Y324552D01*
X537665Y323381D01*
X537391Y322000D01*
X537665Y320619D01*
X538448Y319448D01*
X538706Y319275D01*
Y318000D01*
X538881Y317122D01*
X539378Y316378D01*
X540938Y314818D01*
X540458Y313501D01*
X539619Y313335D01*
X538448Y312552D01*
X537665Y311381D01*
X537391Y310000D01*
X537665Y308619D01*
X536952Y307401D01*
X536619Y307335D01*
X535448Y306552D01*
X534665Y305381D01*
X534391Y304000D01*
X534665Y302619D01*
X535448Y301448D01*
X535706Y301275D01*
Y301000D01*
X535881Y300122D01*
X536089Y299810D01*
X535520Y298540D01*
X531059D01*
Y312733D01*
X531163Y312837D01*
X531163Y312837D01*
X531826Y313829D01*
X532059Y315000D01*
X532059Y315000D01*
Y330733D01*
X543163Y341837D01*
X543163Y341837D01*
X543826Y342830D01*
X544059Y344000D01*
Y352380D01*
X546730D01*
Y357920D01*
X549270D01*
Y352380D01*
D02*
G37*
G36*
X524714Y314096D02*
X524941Y313901D01*
Y297000D01*
X521920D01*
Y293549D01*
X484056D01*
X476105Y301500D01*
X484802Y310198D01*
X485355Y311024D01*
X485436Y311432D01*
X486706Y311307D01*
Y304000D01*
X486881Y303122D01*
X487378Y302378D01*
X490378Y299378D01*
X491122Y298881D01*
X492000Y298706D01*
X492000Y298706D01*
X507000D01*
X507000Y298706D01*
X513000Y298706D01*
X513878Y298881D01*
X514622Y299378D01*
X517622Y302378D01*
X518119Y303122D01*
X518294Y304000D01*
Y309050D01*
X523746Y314502D01*
X524714Y314096D01*
D02*
G37*
G36*
X207000Y328000D02*
X229381Y305619D01*
X231095Y305693D01*
X233410Y303378D01*
X233411Y303378D01*
X234155Y302881D01*
X235033Y302706D01*
X235033Y302706D01*
X326000D01*
X326878Y302881D01*
X327622Y303378D01*
X333950Y309706D01*
X399000D01*
X399878Y309881D01*
X400622Y310378D01*
X403355Y313111D01*
X414463Y313589D01*
X414796Y313270D01*
X420920D01*
Y312000D01*
X422190D01*
Y306460D01*
X424000D01*
Y293000D01*
X414868D01*
X414189Y294270D01*
X414710Y295049D01*
X415098Y297000D01*
X414710Y298951D01*
X413605Y300605D01*
X411951Y301710D01*
X410000Y302098D01*
X408049Y301710D01*
X406395Y300605D01*
X405290Y298951D01*
X404902Y297000D01*
X405290Y295049D01*
X405811Y294270D01*
X405132Y293000D01*
X389468D01*
X388789Y294270D01*
X389310Y295049D01*
X389698Y297000D01*
X389310Y298951D01*
X388205Y300605D01*
X386551Y301710D01*
X384600Y302098D01*
X382649Y301710D01*
X380995Y300605D01*
X379890Y298951D01*
X379502Y297000D01*
X379890Y295049D01*
X380411Y294270D01*
X379732Y293000D01*
X233609Y293000D01*
X233609Y293000D01*
X233335Y294381D01*
X232552Y295552D01*
X231381Y296335D01*
X230000Y296609D01*
X228639Y296339D01*
X218355Y301876D01*
X216231Y303882D01*
X216364Y304240D01*
X216062Y304442D01*
X213251Y306749D01*
X211965Y308035D01*
X211965D01*
X199000Y321000D01*
X196000D01*
X196000Y328000D01*
X207000Y328000D01*
D02*
G37*
%LPC*%
G36*
X460650Y468730D02*
X456380D01*
Y464460D01*
X460650D01*
Y468730D01*
D02*
G37*
G36*
X552540Y494040D02*
X545270D01*
Y481270D01*
X552540D01*
Y494040D01*
D02*
G37*
G36*
X542730D02*
X535460D01*
Y481270D01*
X542730D01*
Y494040D01*
D02*
G37*
G36*
X552540Y478730D02*
X545270D01*
Y465960D01*
X552540D01*
Y478730D01*
D02*
G37*
G36*
X542730D02*
X535460D01*
Y465960D01*
X542730D01*
Y478730D01*
D02*
G37*
G36*
X639040Y440130D02*
X631770D01*
Y428860D01*
X639040D01*
Y440130D01*
D02*
G37*
G36*
X514650Y442540D02*
X510380D01*
Y438270D01*
X514650D01*
Y442540D01*
D02*
G37*
G36*
X555900Y400350D02*
X544100D01*
Y389050D01*
X555900D01*
Y392309D01*
X556000Y392391D01*
X557381Y392665D01*
X558552Y393448D01*
X559335Y394619D01*
X559609Y396000D01*
X559335Y397381D01*
X558552Y398552D01*
X557381Y399335D01*
X556000Y399609D01*
X555900Y399691D01*
Y400350D01*
D02*
G37*
G36*
X599000Y395000D02*
X583000D01*
Y381000D01*
X599000D01*
Y395000D01*
D02*
G37*
G36*
X565000Y395609D02*
X563619Y395335D01*
X563118Y395000D01*
X561000D01*
Y381000D01*
X577000D01*
Y395000D01*
X566882D01*
X566381Y395335D01*
X565000Y395609D01*
D02*
G37*
G36*
X671730Y411700D02*
X667460D01*
Y407430D01*
X671730D01*
Y411700D01*
D02*
G37*
G36*
X664540Y411620D02*
X660270D01*
Y407350D01*
X664540D01*
Y411620D01*
D02*
G37*
G36*
X657730D02*
X653460D01*
Y407350D01*
X657730D01*
Y411620D01*
D02*
G37*
G36*
X650540D02*
X646270D01*
Y407350D01*
X650540D01*
Y411620D01*
D02*
G37*
G36*
X643730D02*
X639460D01*
Y407350D01*
X643730D01*
Y411620D01*
D02*
G37*
G36*
X744700Y417550D02*
X726000D01*
Y413549D01*
X724000D01*
X723025Y413355D01*
X722198Y412802D01*
X716395Y407000D01*
X712080Y407000D01*
X711460Y408013D01*
Y408540D01*
X707190D01*
Y403000D01*
X705920D01*
Y401730D01*
X700380D01*
Y397460D01*
X700841D01*
X701920Y397000D01*
X701920Y396190D01*
Y389000D01*
X703371D01*
Y387000D01*
X701920D01*
Y385549D01*
X700554D01*
X700552Y385552D01*
X699381Y386335D01*
X698000Y386609D01*
X696619Y386335D01*
X695448Y385552D01*
X694665Y384381D01*
X694391Y383000D01*
X694665Y381619D01*
X695448Y380448D01*
X696619Y379665D01*
X698000Y379391D01*
X699381Y379665D01*
X700552Y380448D01*
X701319Y380018D01*
X701067Y378636D01*
X700841Y378540D01*
X700380D01*
Y374270D01*
X705920D01*
Y371730D01*
X700380D01*
Y367460D01*
X700841D01*
X701920Y367000D01*
X701920Y366190D01*
Y363605D01*
X699198Y360882D01*
X698645Y360055D01*
X698451Y359080D01*
Y355900D01*
X694650D01*
Y347255D01*
X688444Y341049D01*
X686496D01*
X686169Y341442D01*
X685699Y342319D01*
X685784Y342750D01*
Y344250D01*
X685648Y344933D01*
X685262Y345512D01*
Y346488D01*
X685648Y347067D01*
X685784Y347750D01*
Y349250D01*
X685655Y349899D01*
X686372Y350378D01*
X687099Y351466D01*
X687251Y352230D01*
X680750D01*
X674164D01*
X673269Y351049D01*
X672809D01*
X672381Y351335D01*
X671000Y351609D01*
X669619Y351335D01*
X668448Y350552D01*
X667665Y349381D01*
X667391Y348000D01*
X667665Y346619D01*
X668448Y345448D01*
X669619Y344665D01*
X671000Y344391D01*
X672381Y344665D01*
X673552Y345448D01*
X673812Y345836D01*
X675069Y345873D01*
X675331Y345558D01*
X675801Y344681D01*
X675716Y344250D01*
Y342750D01*
X675852Y342067D01*
X676238Y341488D01*
Y340512D01*
X675852Y339933D01*
X675716Y339250D01*
Y337750D01*
X675852Y337067D01*
X676238Y336488D01*
Y335512D01*
X675852Y334933D01*
X675716Y334250D01*
Y332750D01*
X675801Y332319D01*
X675331Y331442D01*
X675069Y331127D01*
X673812Y331164D01*
X673552Y331552D01*
X672381Y332335D01*
X671000Y332609D01*
X669619Y332335D01*
X668448Y331552D01*
X667665Y330381D01*
X667391Y329000D01*
X667665Y327619D01*
X668448Y326448D01*
X669619Y325665D01*
X671000Y325391D01*
X672381Y325665D01*
X672809Y325951D01*
X673269D01*
X674164Y324770D01*
X680750D01*
Y322230D01*
X674249D01*
X674401Y321466D01*
X675128Y320378D01*
X675845Y319899D01*
X675716Y319250D01*
Y317750D01*
X675852Y317067D01*
X676238Y316488D01*
X676238Y315511D01*
X675852Y314933D01*
X675716Y314250D01*
Y312750D01*
X675852Y312067D01*
X676238Y311488D01*
X676817Y311101D01*
X677500Y310966D01*
X680676D01*
X680750Y310951D01*
X692112D01*
X692448Y310448D01*
X693619Y309665D01*
X695000Y309391D01*
X696381Y309665D01*
X697552Y310448D01*
X698335Y311619D01*
X698371Y311799D01*
X698855Y312524D01*
X699049Y313500D01*
X698855Y314475D01*
X698303Y315302D01*
X697513Y315830D01*
X697490Y315930D01*
X697724Y317100D01*
X705950D01*
Y328900D01*
X701549D01*
Y333451D01*
X702920D01*
Y332000D01*
X704413D01*
X704945Y331645D01*
X705920Y331451D01*
X706895Y331645D01*
X707427Y332000D01*
X710920D01*
Y340000D01*
X702920D01*
Y338549D01*
X699000D01*
X698025Y338355D01*
X697198Y337802D01*
X696645Y336975D01*
X696451Y336000D01*
X696071Y335630D01*
X692074Y335740D01*
X692045Y335775D01*
X691627Y337022D01*
X698705Y344100D01*
X705950D01*
Y355900D01*
X703549D01*
Y358024D01*
X704525Y359000D01*
X709920D01*
X709920Y366454D01*
X711054Y367329D01*
X711084Y367327D01*
X711375Y367276D01*
X711487Y367252D01*
X711622Y367195D01*
X712018Y366548D01*
X712080Y366103D01*
X712080Y365872D01*
Y359000D01*
X720080D01*
Y359451D01*
X726000D01*
Y357150D01*
X744700D01*
Y366750D01*
X726000D01*
Y364549D01*
X720080D01*
Y367000D01*
X713135Y367000D01*
X712794Y367000D01*
X712527Y367045D01*
X712330Y367089D01*
X712255Y367121D01*
X712002Y367766D01*
X712613Y368801D01*
X712817Y369000D01*
X720080D01*
Y369000D01*
X721350Y369520D01*
X722000Y369391D01*
X723381Y369665D01*
X724552Y370448D01*
X724730Y370714D01*
X726000Y370329D01*
Y369850D01*
X744700D01*
Y379450D01*
X726000D01*
Y375671D01*
X724730Y375286D01*
X724552Y375552D01*
X723381Y376335D01*
X722000Y376609D01*
X721350Y376480D01*
X720080Y377000D01*
Y377000D01*
X720080Y377000D01*
X712817Y377000D01*
X712002Y378234D01*
X712255Y378879D01*
X712540Y379000D01*
X720080D01*
Y379000D01*
X721350Y379520D01*
X722000Y379391D01*
X723381Y379665D01*
X724552Y380448D01*
X725302Y381569D01*
X725348Y381635D01*
X726124Y382550D01*
X726815Y382550D01*
X744700D01*
Y392150D01*
X726819D01*
X726000Y392150D01*
X725549Y393233D01*
Y394167D01*
X726000Y395250D01*
X744700D01*
Y404850D01*
X726000D01*
Y402549D01*
X724000D01*
X723025Y402355D01*
X722198Y401802D01*
X721645Y400975D01*
X721616Y400828D01*
X721350Y400734D01*
X720080Y401633D01*
Y403475D01*
X724730Y408125D01*
X726000Y407950D01*
Y407950D01*
X744700D01*
Y417550D01*
D02*
G37*
G36*
X704650Y408540D02*
X700380D01*
Y404270D01*
X704650D01*
Y408540D01*
D02*
G37*
G36*
X721350Y355900D02*
X710050D01*
Y344100D01*
X721350D01*
Y344986D01*
X722619Y345665D01*
X724000Y345391D01*
X724730Y345536D01*
X726000Y344668D01*
Y344450D01*
X744700D01*
X745451Y343491D01*
Y342309D01*
X744700Y341350D01*
X744181Y341350D01*
X726000D01*
Y337549D01*
X721080D01*
Y340000D01*
X713080D01*
Y332000D01*
X714573D01*
X715105Y331645D01*
X716080Y331451D01*
X717056Y331645D01*
X717587Y332000D01*
X721080D01*
Y332451D01*
X726000D01*
Y331750D01*
X733868D01*
X734025Y331645D01*
X735000Y331451D01*
X735976Y331645D01*
X736133Y331750D01*
X744181D01*
X744700Y331750D01*
X745451Y330791D01*
Y326549D01*
X721350D01*
Y328900D01*
X710050D01*
Y317100D01*
X721350D01*
Y321451D01*
X748000D01*
X748000Y321451D01*
X748976Y321645D01*
X749802Y322197D01*
X750355Y323024D01*
X750549Y324000D01*
Y349000D01*
X750355Y349975D01*
X749802Y350802D01*
X748976Y351355D01*
X748000Y351549D01*
X744700D01*
Y354050D01*
X726000D01*
Y353332D01*
X724730Y352464D01*
X724000Y352609D01*
X722619Y352335D01*
X721350Y353014D01*
Y355900D01*
D02*
G37*
G36*
X667770Y305751D02*
Y300520D01*
X670604D01*
Y302500D01*
X670349Y303784D01*
X669622Y304872D01*
X668534Y305599D01*
X667770Y305751D01*
D02*
G37*
G36*
X551650Y348540D02*
X547380D01*
Y344270D01*
X551650D01*
Y348540D01*
D02*
G37*
G36*
X419650Y310730D02*
X415380D01*
Y306460D01*
X419650D01*
Y310730D01*
D02*
G37*
%LPD*%
D10*
X613000Y317000D02*
X622000D01*
X611500D02*
X613000D01*
X604000D02*
X611500D01*
X1047000Y391000D02*
Y420000D01*
X566000Y375000D02*
X573000D01*
X674000Y379000D02*
Y394000D01*
X671000Y328000D02*
X671500Y328500D01*
X657000Y397000D02*
X659000Y395000D01*
X656500Y373000D02*
Y382750D01*
X1040000Y392000D02*
Y421000D01*
X648000Y440000D02*
Y448080D01*
X488850Y331960D02*
X490000Y333110D01*
X815000Y471000D02*
Y502000D01*
X750000Y491000D02*
X761920D01*
Y480080D02*
X770000Y472000D01*
X761920Y480080D02*
Y481000D01*
X930000Y446000D02*
X934000Y442000D01*
X771040Y468040D02*
X772000Y469000D01*
X772920Y467080D02*
X782000Y458000D01*
X761920Y481000D02*
Y490920D01*
X709000Y441000D02*
X710000Y442000D01*
X669000Y456920D02*
X679920D01*
X657000Y457000D02*
X671000D01*
X929000Y441000D02*
X940000Y430000D01*
X543000Y382000D02*
X551000D01*
X574920Y319080D02*
Y321080D01*
X576000Y300000D02*
Y319080D01*
Y295000D02*
Y300000D01*
X556000Y370000D02*
X565000Y361000D01*
X492000Y447080D02*
Y461000D01*
X473000Y462000D02*
X498000D01*
X472000Y429500D02*
Y470000D01*
X361080Y451000D02*
X377000D01*
X360000Y449000D02*
X361080D01*
X177000Y397000D02*
X211000D01*
X357700Y335000D02*
Y344700D01*
X472000Y350000D02*
Y354000D01*
X483000Y291000D02*
X523920D01*
X472500Y301500D02*
X483000Y291000D01*
X536000Y294000D02*
X536080D01*
X505000Y328000D02*
X505786Y327214D01*
X432000Y350750D02*
Y380000D01*
X496000Y350000D02*
Y351000D01*
X493000Y354000D02*
X496000Y351000D01*
X510080Y412000D02*
X514000D01*
X1023000Y387000D02*
Y392000D01*
X506080Y408000D02*
X507080Y407000D01*
X506000Y405920D02*
X507000Y406920D01*
X505920D02*
X507000D01*
X506080Y408000D02*
X510080Y412000D01*
X605000Y500000D02*
X612000D01*
X1010000Y418500D02*
X1011995Y418400D01*
X1020000Y418000D01*
X609800Y437600D02*
Y454200D01*
X621000Y501000D02*
X648000D01*
X615000Y495000D02*
X621000Y501000D01*
X600000Y495000D02*
X615000D01*
X545000Y485000D02*
X565000D01*
Y500000D01*
X570000Y473000D02*
Y500000D01*
X580000Y465000D02*
X584000Y469000D01*
X605000D01*
X1003000Y396000D02*
Y403000D01*
X595000Y493000D02*
Y500000D01*
X550000Y460000D02*
X564000D01*
X600000Y480000D02*
Y495000D01*
Y499000D01*
X590000Y480000D02*
Y499000D01*
Y460000D02*
X595000D01*
X431500Y350250D02*
X432000Y350750D01*
X760920Y456920D02*
X772000D01*
X760080Y456080D02*
Y469920D01*
X716000Y495000D02*
X739000D01*
X664000Y469000D02*
X684000D01*
X659080Y435920D02*
X660000Y435000D01*
X658000Y435920D02*
X659080D01*
X658000Y433000D02*
Y435000D01*
X618000Y438030D02*
X627970D01*
X636000Y433000D02*
X658000D01*
X622000Y415000D02*
X627000D01*
X545030Y438030D02*
X557000D01*
X1054430Y351800D02*
X1060800D01*
X1015830Y351700D02*
X1054300D01*
X1055000Y351000D01*
X553000Y350000D02*
X572000D01*
X553000Y343000D02*
Y350000D01*
X530000Y349000D02*
Y377000D01*
X524000Y349000D02*
X530000D01*
X552000Y335000D02*
Y345000D01*
X479000Y494000D02*
X498000D01*
X481000Y450080D02*
X483000Y448080D01*
X438000Y415000D02*
X456000D01*
X350500Y449000D02*
X351000D01*
X350500D02*
Y457000D01*
X349500Y450000D02*
X350500Y449000D01*
X306000Y440000D02*
Y453000D01*
X329080Y391080D02*
X334000D01*
X315000Y424000D02*
Y425000D01*
X290000Y387000D02*
Y418000D01*
X405000Y382000D02*
X423000Y400000D01*
X403000Y384000D02*
X405000Y382000D01*
X476000Y316000D02*
Y333000D01*
X394000Y369000D02*
X395000Y370000D01*
X272000Y355000D02*
X290000Y373000D01*
X253000Y335000D02*
X258000Y330000D01*
X310000Y430000D02*
X315000Y425000D01*
X306000Y430000D02*
X310000D01*
X306000D02*
Y435000D01*
X302000Y430000D02*
X306000D01*
X290000Y418000D02*
X302000Y430000D01*
X305920Y436000D02*
Y440000D01*
Y433920D02*
Y436000D01*
X320000Y445000D02*
X323000Y442000D01*
X317080Y445000D02*
X320000D01*
X315000Y459000D02*
X326000Y448000D01*
X295920Y459000D02*
X315000D01*
X294000Y457080D02*
X295920Y459000D01*
X294000Y346080D02*
Y351000D01*
Y346000D02*
Y346080D01*
Y338000D02*
X299000D01*
X304000Y343000D01*
X178000Y392000D02*
X209000D01*
X287000Y329000D02*
X299000D01*
X287000D02*
Y347000D01*
X299000Y329000D02*
X303000Y333000D01*
X276000Y330000D02*
X280000Y334000D01*
X268080Y330000D02*
X276000D01*
X703000Y305000D02*
X725000D01*
X269000Y351000D02*
X294000D01*
X576000Y332000D02*
X590000D01*
X590000Y344000D02*
X598000D01*
X576000Y342000D02*
X588000D01*
X563000D02*
X576000D01*
X715540Y415460D02*
X722000Y421920D01*
X683000Y395920D02*
X684000D01*
X673080D02*
X683000D01*
X407000Y447500D02*
Y462000D01*
X474000Y312000D02*
X476080Y314080D01*
Y316000D01*
X595000Y293000D02*
X599000Y297000D01*
X578000Y293000D02*
X595000D01*
X576000Y295000D02*
X578000Y293000D01*
X611000Y299000D02*
Y302000D01*
X585000D02*
X611000D01*
X559000Y313000D02*
X565000D01*
X560000Y294000D02*
X560500Y293500D01*
X564000Y297000D02*
X567000D01*
X560500Y293500D02*
X564000Y297000D01*
X548000Y350000D02*
X553000D01*
X572000D02*
X573000Y351000D01*
X552000Y335000D02*
X554000Y333000D01*
X558920D01*
X535000Y390000D02*
X543000Y382000D01*
X541000Y379000D02*
X548000D01*
X541000Y374000D02*
Y379000D01*
X541000Y374000D02*
X541000Y374000D01*
X606500Y353500D02*
X607000Y354000D01*
X597250Y353500D02*
X606500D01*
X613000Y352000D02*
Y369000D01*
X608000Y347000D02*
X613000Y352000D01*
X606500Y348500D02*
X608000Y347000D01*
Y342000D02*
Y347000D01*
X602000Y380000D02*
X613000Y369000D01*
X535000Y312000D02*
Y330000D01*
X532000Y300000D02*
X536000Y296000D01*
X532000Y300000D02*
Y309000D01*
X535000Y312000D01*
Y330000D02*
X542000Y337000D01*
X597250Y328500D02*
X613500D01*
X641000Y299000D02*
Y299250D01*
X588000Y310000D02*
X591000Y307000D01*
X587000Y319000D02*
X592500Y313500D01*
X584000Y319000D02*
X587000D01*
X570000Y332000D02*
X576000D01*
X590000Y332000D02*
Y337000D01*
X590000Y332000D02*
X590000Y332000D01*
X588000Y342000D02*
X590000Y344000D01*
X548000Y357920D02*
Y359000D01*
Y350000D02*
Y357920D01*
Y349000D02*
Y350000D01*
X549000Y359000D02*
X556920D01*
X558000Y357920D01*
X566000Y368000D02*
X569000D01*
X572000Y365000D01*
X565000Y358000D02*
Y361000D01*
Y358000D02*
X583000D01*
X556000Y370000D02*
Y375000D01*
X583000Y358000D02*
X587000D01*
X583000D02*
X583080Y357920D01*
Y352000D02*
Y357920D01*
X591500Y353500D02*
X597250D01*
X587000Y358000D02*
X591500Y353500D01*
X585000Y376000D02*
X600000D01*
X551000Y380000D02*
X556000Y375000D01*
X542000Y337000D02*
X544000D01*
X535920Y368080D02*
X547920D01*
X699000Y391000D02*
Y403000D01*
Y406000D01*
X673000Y406160D02*
X693000D01*
X693080Y406000D02*
X699000D01*
X693000Y406080D02*
X693080Y406000D01*
X703920Y373000D02*
X705920Y375000D01*
X667000Y298000D02*
Y323000D01*
X666000Y406000D02*
X674000D01*
X619080Y406080D02*
X620000Y407000D01*
X652000Y382750D02*
Y406000D01*
X689000Y390000D02*
X695000Y396000D01*
X689000Y361000D02*
Y390000D01*
X686500Y358500D02*
X689000Y361000D01*
X698000Y373000D02*
X703920D01*
X693000D02*
X698000D01*
X668000Y406160D02*
X673000D01*
X693000Y373000D02*
Y385000D01*
X723000Y383000D02*
Y398000D01*
X680750Y313500D02*
X696500D01*
X705920Y334000D02*
Y336000D01*
X698150Y325150D02*
X698500Y325500D01*
X680750Y333500D02*
X699000Y333000D01*
X722000Y383000D02*
X723000D01*
X718080D02*
X722000D01*
X723000Y398000D02*
X724000Y399000D01*
X504000Y366000D02*
X505000Y365000D01*
X524000Y347920D02*
Y349000D01*
Y346920D02*
Y347920D01*
X306000Y343000D02*
Y349000D01*
X524000Y378080D02*
Y384000D01*
X523000Y385000D02*
X524000Y384000D01*
X432000Y448500D02*
Y459500D01*
X524000Y377000D02*
Y378080D01*
X485000Y399000D02*
X489000Y403000D01*
X487000Y394000D02*
X492500Y399500D01*
X463000Y418000D02*
Y424000D01*
X608500Y333500D02*
X611000Y336000D01*
X597250Y333500D02*
X608500D01*
X749300Y469700D02*
X750000Y469000D01*
X751000Y470000D02*
Y480920D01*
X735000Y469700D02*
X749300D01*
X761920Y490920D02*
X762000Y491000D01*
X771000Y468000D02*
X771040Y468040D01*
X800900Y456900D02*
X815000Y471000D01*
X790000Y456900D02*
X800900D01*
X770000Y469080D02*
Y472000D01*
X761000Y481000D02*
X761920D01*
X771040Y468040D02*
X772000Y467080D01*
X770000Y469080D02*
X771040Y468040D01*
X427000Y324162D02*
Y335000D01*
X422000Y327000D02*
Y336000D01*
X728000Y299000D02*
X728000Y299000D01*
X694000Y299000D02*
X728000D01*
X880000Y320000D02*
X891000D01*
X805450Y425450D02*
X820650D01*
X806000Y401000D02*
X806950Y400050D01*
X979000Y495000D02*
X1018211D01*
X978500D02*
X979000D01*
X966000Y482000D02*
X979000Y495000D01*
X966000Y466000D02*
Y482000D01*
X1018211Y495000D02*
X1022421Y491000D01*
X1011000Y479000D02*
X1027000D01*
X989000Y457000D02*
X1011000Y479000D01*
X966000Y457000D02*
X989000D01*
X966000Y410000D02*
Y450000D01*
X961000Y444000D02*
Y444000D01*
Y396000D02*
Y444000D01*
X961000Y444000D01*
X911000Y390000D02*
Y404000D01*
X901000Y414000D02*
X911000Y404000D01*
X820650Y360000D02*
X835000D01*
X807050Y359950D02*
X820650D01*
X934000Y382000D02*
Y396000D01*
X735000Y482400D02*
X740000D01*
X716000D02*
X735000D01*
X917000Y441000D02*
X927000D01*
X910000Y448000D02*
X917000Y441000D01*
X910000Y448000D02*
Y501000D01*
X750920Y457000D02*
X751000D01*
X740000D02*
X750920D01*
X730000Y442000D02*
X733080Y445080D01*
X760000Y470000D02*
X760080Y469920D01*
Y456080D02*
X760920Y456920D01*
X716000Y482400D02*
Y495000D01*
Y450000D02*
Y482400D01*
X684000Y469000D02*
X691000Y462000D01*
X669000Y442000D02*
Y456920D01*
X665000Y489000D02*
Y502000D01*
X657000Y481000D02*
X665000Y489000D01*
X657000Y457000D02*
Y481000D01*
X643000Y487000D02*
X653000Y477000D01*
Y453080D02*
Y477000D01*
X648000Y448080D02*
X653000Y453080D01*
X268000Y430000D02*
X280920D01*
X1035000Y409000D02*
Y420000D01*
Y407000D02*
Y409000D01*
X1035000D01*
X1020000D02*
X1035000D01*
X1018500Y407500D02*
X1020000Y409000D01*
X1012030Y407500D02*
X1018500D01*
X1035000Y407000D02*
X1035000Y407000D01*
X597250Y323500D02*
X605500D01*
X709000Y442080D02*
Y450000D01*
X710000Y442000D02*
X719920D01*
X733000Y457000D02*
X733080Y456920D01*
Y445080D02*
Y456920D01*
X830000Y450000D02*
Y496000D01*
X722000Y421920D02*
Y425000D01*
X698000Y416000D02*
X704000D01*
X736100Y411000D02*
X736350Y410750D01*
X724000Y411000D02*
X736100D01*
X716080Y403000D02*
Y403080D01*
Y393000D02*
Y403000D01*
Y403080D02*
X724000Y411000D01*
X705920Y385000D02*
Y393000D01*
X699000Y403000D02*
X703920D01*
X699000Y400080D02*
Y403000D01*
Y399000D02*
X699000Y403000D01*
X620000Y411000D02*
Y413000D01*
Y407000D02*
Y411000D01*
X698000Y383000D02*
X705000D01*
X693000Y385000D02*
X699000Y391000D01*
X632000Y437000D02*
X636000Y433000D01*
X667000Y456920D02*
X669000D01*
X619000Y456000D02*
X646000D01*
X647000Y457000D01*
X658000Y435920D02*
Y449000D01*
X658000D01*
X627000Y414000D02*
Y415000D01*
X641000Y468000D02*
Y471000D01*
X641000D02*
X644000Y474000D01*
X641000Y471000D02*
X641000D01*
X638000Y465000D02*
X641000Y468000D01*
X760080Y448080D02*
Y456080D01*
X760000Y456000D02*
X760080Y456080D01*
X772000Y467080D02*
X772920D01*
X679920Y456920D02*
X680000Y457000D01*
X830000Y496000D02*
X845000D01*
X863000Y357000D02*
X881000D01*
X861000Y349000D02*
X862000Y350000D01*
X847080Y349000D02*
X861000D01*
X847080Y337080D02*
Y348080D01*
Y349000D02*
Y362000D01*
Y348080D02*
Y349000D01*
X847000Y348000D02*
X847080Y348080D01*
X881000Y420000D02*
X881000D01*
X838000Y386000D02*
X839000Y387000D01*
X837000Y387080D02*
Y401000D01*
X825250Y412750D02*
X837000Y401000D01*
X820650Y412750D02*
X825250D01*
X837000Y386000D02*
Y387080D01*
X839000Y387000D02*
X868000D01*
X874000Y393000D01*
X837000Y377000D02*
X862000D01*
X881000Y407000D02*
Y417000D01*
Y407000D02*
X881000Y407000D01*
X874000Y400000D02*
X881000Y407000D01*
X874000Y393000D02*
Y400000D01*
X837000Y336920D02*
Y337000D01*
X806000Y336000D02*
X806550Y336550D01*
X881000Y347000D02*
Y356000D01*
Y347000D02*
X881000D01*
Y342000D02*
Y347000D01*
X847000Y337000D02*
X847080Y337080D01*
X699000Y336000D02*
X705920D01*
X699000Y326000D02*
Y336000D01*
X700000Y324000D02*
Y325000D01*
X698500Y325500D02*
X699000Y325000D01*
X689500Y338500D02*
X700000Y349000D01*
X680750Y338500D02*
X689500D01*
X698500Y325500D02*
X699000Y326000D01*
X701000Y350000D02*
Y359080D01*
X705920Y364000D01*
X684000Y457000D02*
X686000D01*
X648000Y501000D02*
X653000Y496000D01*
X501000Y392000D02*
Y392000D01*
X500000Y391000D02*
X501000Y392000D01*
X500000Y391000D02*
X500000D01*
X618000Y469000D02*
X622000Y465000D01*
X605000Y469000D02*
X618000D01*
X493000Y384000D02*
X500000Y391000D01*
X471500Y384000D02*
X493000D01*
X491000Y389000D02*
X501000Y399000D01*
X471500Y389000D02*
X491000D01*
X506080Y407000D02*
X507080D01*
X506000D02*
X506080D01*
X505920Y406920D02*
X506000Y407000D01*
X622000Y465000D02*
X638000D01*
X940000Y371000D02*
Y430000D01*
X815000Y310000D02*
X816400Y308600D01*
Y297000D02*
Y308600D01*
X418000Y322000D02*
X425000D01*
X427064Y324098D01*
X437000Y323000D02*
Y334500D01*
X535000Y390000D02*
Y391000D01*
X602500Y318500D02*
X604000Y317000D01*
X597250Y318500D02*
X602500D01*
X447000Y329000D02*
Y334500D01*
X447000Y329000D02*
X447000Y329000D01*
X447000Y323000D02*
Y329000D01*
Y323000D02*
X453000Y317000D01*
X467000D01*
X480000Y424000D02*
Y438000D01*
X480000Y424000D02*
X480000Y424000D01*
X471500Y424000D02*
X480000D01*
X481000Y450080D02*
Y454000D01*
X480000Y424000D02*
X480000Y424000D01*
X480000Y438000D02*
X482000D01*
X1064000Y355000D02*
Y436000D01*
X1060800Y351800D02*
X1064000Y355000D01*
X1056000Y436000D02*
X1064000D01*
X1054430Y351700D02*
Y351800D01*
X595000Y460000D02*
X615000D01*
X619000Y456000D01*
X604800Y447800D02*
X605000Y448000D01*
X604800Y437600D02*
Y447800D01*
X595000Y441000D02*
Y460000D01*
X564500Y438000D02*
Y459000D01*
X1012030Y426000D02*
X1013000Y435000D01*
X1047000Y420000D02*
X1049000Y422000D01*
X1036000Y425000D02*
X1040000Y421000D01*
X1036000Y425000D02*
Y438750D01*
X1046000Y455000D01*
X1032000Y423000D02*
X1035000Y420000D01*
X1032000Y423000D02*
Y439000D01*
X1048000Y385000D02*
Y386000D01*
X1040500Y377500D02*
X1048000Y385000D01*
X1012030Y377500D02*
X1040500D01*
X1035000Y397000D02*
Y407000D01*
X1027000Y479000D02*
X1040000Y466000D01*
X1022421Y491000D02*
X1034000Y480000D01*
X1035000Y407000D02*
X1035000D01*
X1012000Y352000D02*
X1012030Y364000D01*
X1005000Y387000D02*
X1008000D01*
X1002000Y382000D02*
X1005000Y387000D01*
X1000000Y380000D02*
X1002000Y382000D01*
X1038500Y382500D02*
X1047000Y391000D01*
X1012030Y382500D02*
X1038500D01*
X1027157Y412974D02*
X1030000Y416000D01*
X1012030Y412500D02*
X1027157Y412974D01*
X1004000Y394000D02*
X1007000Y392000D01*
X1003000Y396000D02*
X1004000Y394000D01*
X1003000Y403000D02*
X1008000D01*
X1023000Y403000D02*
X1023000Y397000D01*
Y393000D02*
Y397000D01*
X1012000Y397500D02*
X1023000Y397000D01*
X1012030Y387500D02*
X1023000Y387000D01*
X1060000Y464000D02*
Y475000D01*
X1046000Y455000D02*
X1060000Y464000D01*
X1032000Y439000D02*
X1040000Y453000D01*
Y466000D01*
X1034000Y480000D02*
X1055000D01*
X1060000Y475000D01*
X959000Y390000D02*
X981000D01*
X955000Y394000D02*
X959000Y390000D01*
X955000Y394000D02*
Y437000D01*
X948000Y421000D02*
Y443000D01*
Y406000D02*
Y421000D01*
X948000Y421000D01*
X966000Y410000D02*
X983000D01*
X989000Y420000D01*
X1001000D01*
X981000Y390000D02*
X990000Y380000D01*
X1000000D01*
X977000Y359200D02*
X994000Y369000D01*
X977000Y400000D02*
X994000Y390000D01*
X483000Y312000D02*
Y324000D01*
X472500Y301500D02*
X483000Y312000D01*
X930000Y461000D02*
X948000Y443000D01*
Y371000D02*
Y406000D01*
X948000Y406000D01*
X901000Y414000D02*
Y416000D01*
X795000Y387000D02*
X795000Y387000D01*
X794000Y387000D02*
X795000D01*
X806000Y387000D02*
Y387000D01*
X891000Y320000D02*
X900000D01*
X687500Y318500D02*
X690000Y321000D01*
X680750Y318500D02*
X687500D01*
X680750Y358500D02*
X686500D01*
X673000Y396000D02*
X673080Y395920D01*
X377000Y334500D02*
Y336000D01*
X370000Y343000D02*
X377000Y336000D01*
X370000Y343000D02*
Y350000D01*
X386000Y368000D02*
Y419500D01*
X382000Y364000D02*
X386000Y368000D01*
X381000Y363000D02*
X382000Y364000D01*
X381000Y360000D02*
Y363000D01*
Y346000D02*
Y360000D01*
X373000D02*
X381000D01*
Y346000D02*
X387000Y340000D01*
X376000Y345000D02*
Y353000D01*
Y345000D02*
X382000Y339000D01*
X357700Y344700D02*
X373000Y360000D01*
X245000Y442000D02*
X254000D01*
X346000Y429000D02*
X357080D01*
X267000Y347000D02*
X287000D01*
X342000Y338000D02*
X345000D01*
X327000Y359000D02*
X334000D01*
X345000Y338000D02*
Y349000D01*
X334920Y359080D02*
X345000Y349000D01*
X334920Y359000D02*
Y359080D01*
X339000Y363000D02*
X345000Y369000D01*
X336000Y363000D02*
X339000D01*
X335000Y362000D02*
X336000Y363000D01*
X386000Y359000D02*
X386500Y358500D01*
Y350250D02*
Y358500D01*
X382000Y334500D02*
Y339000D01*
X382000Y364000D02*
Y366000D01*
X387000Y335500D02*
Y340000D01*
Y334500D02*
Y335500D01*
X525000Y377000D02*
X530000D01*
X483000Y324000D02*
X485960Y326960D01*
X488850D01*
X517250Y322214D02*
X519150D01*
X504786D02*
X517250D01*
X504000Y323000D02*
X504786Y322214D01*
X505786Y327214D02*
X517250D01*
X490000Y341000D02*
X496000D01*
X490000Y333110D02*
Y341000D01*
X462000Y333000D02*
X476000D01*
X458000Y327000D02*
X465000D01*
X432000Y328000D02*
Y330000D01*
Y327000D02*
Y328000D01*
X431936Y328064D02*
X432000Y328000D01*
X431936Y328064D02*
Y333936D01*
X253000Y335000D02*
Y354000D01*
X234000Y359000D02*
X247000D01*
X206000Y387000D02*
X234000Y359000D01*
X290000Y373000D02*
Y387000D01*
X290000Y373000D02*
X290000D01*
X256000Y398000D02*
X267000Y387000D01*
Y354000D02*
Y387000D01*
X266000Y354000D02*
X267000D01*
X248000Y372000D02*
X266000Y354000D01*
X269000Y351000D01*
X246000Y368000D02*
X267000Y347000D01*
X233000Y368000D02*
X246000D01*
X209000Y392000D02*
X233000Y368000D01*
X236000Y372000D02*
X248000D01*
X211000Y397000D02*
X236000Y372000D01*
X238000Y376000D02*
X252000D01*
X238000Y376000D02*
X238000Y376000D01*
X211000Y403000D02*
X238000Y376000D01*
X252000Y376000D02*
X257000Y371000D01*
X262000Y366000D02*
Y380000D01*
X240000D02*
X262000D01*
X213000Y407000D02*
X240000Y380000D01*
X270000Y392000D02*
Y404000D01*
Y392000D02*
X284000Y378000D01*
X334000Y371000D02*
X341000D01*
X332000D02*
X334000D01*
X290000Y387000D02*
X304000D01*
X334000Y359920D02*
X334920Y359000D01*
X442000Y327000D02*
Y332000D01*
X437000Y334500D02*
X437500Y335000D01*
X422000Y336000D02*
X422000Y336000D01*
X431936Y333936D02*
X432000Y334000D01*
Y330000D02*
X432000Y330000D01*
X246000Y421000D02*
X253000Y428000D01*
X246000Y408000D02*
X251000Y403000D01*
Y398000D02*
Y403000D01*
Y398000D02*
X256000D01*
X288000Y440000D02*
X296000Y448000D01*
X275000Y440000D02*
X288000D01*
X272300D02*
X275000D01*
X269300Y443000D02*
X272300Y440000D01*
X280000Y445000D02*
Y448000D01*
X272000Y456000D02*
X280000Y448000D01*
X269300Y456000D02*
X272000D01*
X527080Y450000D02*
X529000D01*
X539000Y443000D02*
X540000Y444000D01*
X517000Y443000D02*
X539000D01*
X515920Y441920D02*
X517000Y443000D01*
X515920Y437000D02*
Y441920D01*
X527080Y437000D02*
X533000D01*
X507000Y406920D02*
X507080Y407000D01*
X255300Y443000D02*
Y455200D01*
Y430000D02*
Y443000D01*
X255000Y455500D02*
X255300Y455200D01*
X246000Y408000D02*
Y421000D01*
X423000Y400000D02*
Y400000D01*
X438000Y415000D01*
X632000Y483000D02*
X632920Y483920D01*
X627970Y438030D02*
X629000Y437000D01*
X617000Y433000D02*
X619000Y435000D01*
X570000Y438530D02*
Y448000D01*
X806000Y387000D02*
X806500Y386500D01*
X881000Y417000D02*
X881000Y417000D01*
X836920Y337000D02*
X837000D01*
X827000D02*
X836920D01*
X248000Y386000D02*
X253000Y391000D01*
X248000Y386000D02*
Y386000D01*
X240000Y386000D02*
X248000D01*
X214000Y412000D02*
X240000Y386000D01*
X270000Y418000D02*
X289000D01*
X255000Y407000D02*
X258000Y404000D01*
X255000Y407000D02*
Y416000D01*
X233000Y415000D02*
X236000D01*
X316000Y408000D02*
X321000Y413000D01*
X218000Y422000D02*
X232000Y408000D01*
X189000Y422000D02*
X218000D01*
X232000Y408000D02*
X240000D01*
X241000Y409000D01*
X223000Y432000D02*
X235000Y420000D01*
X240000D01*
X291080Y435080D02*
X292000Y436000D01*
X291080Y430000D02*
Y435080D01*
X342000Y424000D02*
X358500D01*
X283000Y456000D02*
X284000Y455000D01*
X235000Y464000D02*
X283000D01*
X213000Y442000D02*
X235000Y464000D01*
X187000Y442000D02*
X213000D01*
X233000Y468000D02*
X378000D01*
X213000Y448000D02*
X233000Y468000D01*
X189000Y448000D02*
X213000D01*
X231000Y472000D02*
X380000D01*
X212000Y453000D02*
X231000Y472000D01*
X189000Y453000D02*
X212000D01*
X412000Y447500D02*
Y458839D01*
X229000Y476000D02*
X402000D01*
X211000Y458000D02*
X229000Y476000D01*
X190000Y458000D02*
X211000D01*
X417000Y447500D02*
Y467000D01*
X227000Y480000D02*
X404000D01*
X209000Y462000D02*
X227000Y480000D01*
X190000Y462000D02*
X209000D01*
X225000Y484000D02*
X406000D01*
X208000Y467000D02*
X225000Y484000D01*
X190000Y467000D02*
X208000D01*
X223000Y488000D02*
X408000D01*
X207000Y472000D02*
X223000Y488000D01*
X191000Y472000D02*
X207000D01*
X221000Y492000D02*
X410000D01*
X206000Y477000D02*
X221000Y492000D01*
X191000Y477000D02*
X206000D01*
X219000Y496000D02*
X412000D01*
X205000Y482000D02*
X219000Y496000D01*
X191000Y482000D02*
X205000D01*
X217000Y500000D02*
X414000D01*
X204000Y487000D02*
X217000Y500000D01*
X191000Y487000D02*
X204000D01*
X283000Y464000D02*
X321000D01*
X283000Y456000D02*
Y464000D01*
X305920Y440000D02*
Y444000D01*
Y440000D02*
X306000D01*
X321000Y464000D02*
X331000Y454000D01*
Y435000D02*
Y454000D01*
X304000Y387000D02*
X305000D01*
X316000Y386000D02*
X324000D01*
X329080Y391080D01*
X299000Y392000D02*
X320000D01*
X295000Y396000D02*
X299000Y392000D01*
X310000Y378000D02*
Y391000D01*
X333000Y405000D02*
X347000D01*
X320000Y392000D02*
X333000Y405000D01*
X320000Y413000D02*
X324000Y417000D01*
Y425000D01*
X316080Y432920D02*
X324000Y425000D01*
X316080Y432920D02*
Y433000D01*
X295000Y416000D02*
X302000Y423000D01*
X295000Y396000D02*
Y416000D01*
X302000Y423000D02*
X305920D01*
X329000Y414000D02*
Y425000D01*
X323000Y431000D02*
X329000Y425000D01*
X323000Y431000D02*
Y442000D01*
X327000Y433000D02*
Y446000D01*
X326000Y447000D02*
X327000Y446000D01*
X341000Y419000D02*
X357080D01*
X327000Y433000D02*
X341000Y419000D01*
X331000Y435000D02*
X342000Y424000D01*
X459500Y414500D02*
X463000Y418000D01*
X455750Y414500D02*
X459500D01*
X394000Y384000D02*
X403000D01*
X394000Y371000D02*
Y384000D01*
Y369000D02*
Y371000D01*
X403000Y384000D02*
X405000D01*
X394000Y371000D02*
X395000Y370000D01*
X605500Y323500D02*
X629000Y323000D01*
X611000Y336000D02*
X623000D01*
X472000Y349000D02*
Y350000D01*
X471500Y349500D02*
Y354000D01*
Y349000D02*
Y349500D01*
X472000Y350000D01*
X468000Y346000D02*
X471500Y349500D01*
X468000Y345000D02*
Y346000D01*
X496000Y366000D02*
X504000D01*
X505500Y356500D02*
Y357500D01*
X501000Y362000D02*
X505500Y357500D01*
X494000Y362000D02*
X501000D01*
X497000Y358000D02*
X498000Y357000D01*
X492000Y358000D02*
X497000D01*
X490000Y354000D02*
X493000D01*
X483000Y379000D02*
X496000Y366000D01*
X482000Y374000D02*
X494000Y362000D01*
X481000Y369000D02*
X492000Y358000D01*
X407000Y368000D02*
X419000D01*
X396500Y357500D02*
X407000Y368000D01*
X396500Y350250D02*
Y357500D01*
X406000Y373000D02*
X414000D01*
X391500Y358500D02*
X406000Y373000D01*
X391500Y350250D02*
Y358500D01*
X409000Y358000D02*
X419000D01*
X414000Y363000D02*
X415000Y362000D01*
X471500Y399000D02*
X485000D01*
X492500Y399500D02*
X493000Y399000D01*
X471500Y394000D02*
X487000D01*
X493000Y399000D02*
X494000D01*
X408000Y363000D02*
X414000D01*
X401500Y356500D02*
X408000Y363000D01*
X401500Y350250D02*
Y356500D01*
X471500Y379000D02*
X483000D01*
X481000Y374000D02*
X482000D01*
X481000Y374000D02*
X481000Y374000D01*
X479000Y359000D02*
X489000Y349000D01*
X480000Y364000D02*
X490000Y354000D01*
X471500Y369000D02*
X481000D01*
X471500Y364000D02*
X480000D01*
X471500Y359000D02*
X479000D01*
X452000Y327000D02*
X458000D01*
X406500Y355500D02*
X409000Y358000D01*
X406500Y350250D02*
Y355500D01*
X471500Y404000D02*
X481000D01*
X479000Y374000D02*
X481000D01*
X472500D02*
X479000D01*
X881000Y420000D02*
Y429000D01*
Y417000D02*
Y420000D01*
X881000D02*
Y423000D01*
X881000Y343000D02*
Y347000D01*
X847080Y337000D02*
Y337080D01*
X825500Y349000D02*
X835920D01*
X847000Y337000D02*
X847080D01*
X722000Y349000D02*
X748000D01*
X717000Y324000D02*
X737000D01*
X716080Y349000D02*
X724000D01*
Y349000D02*
Y349000D01*
X820650Y359950D02*
Y360000D01*
X492900Y437221D02*
X494992Y437920D01*
X492000Y436920D02*
X492900Y437221D01*
X491000Y434000D02*
Y436000D01*
X485000Y428000D02*
X491000Y434000D01*
X494992Y437920D02*
X504000Y447000D01*
X485000Y414000D02*
Y428000D01*
X377000Y451000D02*
Y452000D01*
Y448500D02*
Y451000D01*
X469500Y399000D02*
X471500D01*
X382000Y457000D02*
X382000Y457000D01*
X350500Y457000D02*
X382000D01*
X342000Y451000D02*
X349500D01*
X360000Y430000D02*
Y449000D01*
X491000Y436000D02*
X492000Y437000D01*
X497000Y463000D02*
X498000Y462000D01*
X507000D01*
X471500Y409000D02*
X497000D01*
X544000Y436000D02*
Y437000D01*
X545000Y438000D02*
X545030Y438030D01*
X542000Y448000D02*
X543000Y449000D01*
X471000Y495000D02*
X473000Y497000D01*
Y494000D02*
X479000D01*
X499000Y476000D02*
X511000D01*
X462000Y462000D02*
Y469000D01*
X472000Y470000D02*
X472080D01*
X434000Y486000D02*
Y488000D01*
Y486000D02*
X452000Y468000D01*
Y456000D02*
Y468000D01*
Y327000D02*
Y334500D01*
X471500Y414000D02*
X485000D01*
X471000Y494000D02*
Y495000D01*
X457000Y456000D02*
X463000Y450000D01*
X452000Y456000D02*
X457000D01*
X187000Y327000D02*
X202033D01*
X187000Y322000D02*
X202033D01*
X232000Y402000D02*
X235000D01*
X217000Y417000D02*
X232000Y402000D01*
X191000Y417000D02*
X217000D01*
X221000Y427000D02*
X233000Y415000D01*
X190000Y427000D02*
X221000D01*
X191000Y432000D02*
X223000D01*
X225000Y437000D02*
X235000Y427000D01*
X192000Y437000D02*
X225000D01*
X315000Y414000D02*
X315080Y414080D01*
X357080Y414000D02*
X359500D01*
X348000D02*
X357080D01*
X347000D02*
X348000D01*
X311000Y413000D02*
X313000Y415000D01*
X399000Y425000D02*
X406500D01*
X391500D02*
X399000D01*
X406500D02*
Y432000D01*
X391500Y425000D02*
Y433750D01*
X190000Y403000D02*
X211000D01*
X447000Y450000D02*
Y467000D01*
X414000Y500000D02*
X447000Y467000D01*
X442000Y457000D02*
Y466000D01*
X412000Y496000D02*
X442000Y466000D01*
X437000Y448500D02*
Y465000D01*
X410000Y492000D02*
X437000Y465000D01*
X432000Y459500D02*
Y464000D01*
X408000Y488000D02*
X432000Y464000D01*
X427000Y448500D02*
Y463000D01*
X406000Y484000D02*
X427000Y463000D01*
X404000Y480000D02*
X417000Y467000D01*
X412064Y458902D02*
Y465936D01*
X402000Y476000D02*
X412064Y465936D01*
X442000Y448500D02*
Y457000D01*
Y447500D02*
Y448500D01*
X437000Y447500D02*
Y448500D01*
X432000Y447500D02*
Y448500D01*
X427000Y447500D02*
Y448500D01*
X347000Y405000D02*
X348000Y404000D01*
X357080Y359000D02*
X359500D01*
X343000D02*
X357080D01*
X342000D02*
X343000D01*
X357080Y364000D02*
X359500D01*
X348000D02*
X357080D01*
X347000D02*
X348000D01*
X469500Y369000D02*
X471500D01*
X468500Y359000D02*
X471500D01*
X468500Y379000D02*
X471500D01*
X190000Y387000D02*
X206000D01*
X386000Y419500D02*
X454500D01*
X372250D02*
X386000D01*
Y420000D01*
X334000Y359920D02*
Y360000D01*
X357080Y354000D02*
X358500D01*
X348000D02*
X357080D01*
X347000D02*
X348000D01*
X334000Y371000D02*
Y380920D01*
Y370080D02*
Y371000D01*
Y370000D02*
Y370080D01*
X321000Y409000D02*
Y413000D01*
X357080Y409000D02*
X358000D01*
X321000D02*
X357080D01*
Y394000D02*
X359500D01*
X348000D02*
X357080D01*
X347000D02*
X348000D01*
X357080Y389000D02*
X358500D01*
X342000D02*
X357080D01*
Y384000D02*
X359500D01*
X348000D02*
X357080D01*
X347000D02*
X348000D01*
X357080Y379000D02*
X359500D01*
X342000D02*
X357080D01*
X341000D02*
X342000D01*
X345000Y369000D02*
X357080D01*
X358500D01*
X357080Y424000D02*
X358500D01*
X351000D02*
X357080D01*
Y404000D02*
X358500D01*
X348000D02*
X357080D01*
X344000Y374000D02*
X348000D01*
X341000Y371000D02*
X344000Y374000D01*
X348000Y374000D02*
X357080D01*
X346000D02*
X348000D01*
X452000Y448500D02*
Y456000D01*
Y447500D02*
Y448500D01*
X469000Y404000D02*
X471500D01*
X402000Y448500D02*
Y457000D01*
Y446500D02*
Y448500D01*
X407000Y447500D02*
X407000Y447500D01*
X470500Y394000D02*
X471500D01*
X470500Y384000D02*
X471500D01*
Y419000D02*
X480000D01*
X470500Y389000D02*
X471500D01*
X386500Y420000D02*
X386500Y420000D01*
Y433750D01*
X454500Y419500D02*
X454500Y419500D01*
X382000Y448500D02*
Y457000D01*
X358500Y429000D02*
X358807D01*
X377000Y447500D02*
Y448500D01*
X357080Y374000D02*
X358500D01*
X387000Y445500D02*
X387000Y448500D01*
X470500Y364000D02*
X471500D01*
X387000Y448500D02*
Y459000D01*
X342000Y399000D02*
X357000D01*
X392000Y450000D02*
Y460000D01*
X380000Y472000D02*
X392000Y460000D01*
X378000Y468000D02*
X387000Y459000D01*
X479000Y374000D02*
X479000Y374000D01*
X348000D02*
X348000Y374000D01*
X192000Y412000D02*
X214000D01*
X209000Y335000D02*
Y342000D01*
X199000Y352000D02*
X209000Y342000D01*
X188000Y352000D02*
X199000D01*
X235000Y401000D02*
Y402000D01*
X191000Y407000D02*
X213000D01*
X280000Y393000D02*
X280500Y392500D01*
X427000Y324162D02*
X427064Y324098D01*
X358500Y424000D02*
X358500Y424000D01*
X412000Y458839D02*
X412064Y458902D01*
X442000Y457000D02*
X442000Y457000D01*
X432000Y459500D02*
X432000Y459500D01*
X317000Y371000D02*
X317080D01*
X387000Y335500D02*
X387000Y335500D01*
X600000Y376000D02*
X605000Y371000D01*
Y358500D02*
Y371000D01*
X597250Y358500D02*
X605000D01*
X602000Y380000D02*
Y402000D01*
X592500Y313500D02*
X597250D01*
X591000Y307000D02*
X642000D01*
Y300000D02*
Y307000D01*
X646500Y299250D02*
X651500D01*
X641500D02*
X646500D01*
X641000D02*
X641500D01*
X619080Y406080D02*
X620000D01*
X609000D02*
X619080D01*
X619000Y406000D02*
X619080Y406080D01*
X632000Y483000D02*
Y483080D01*
X977000Y359200D02*
X979200D01*
X973000D02*
X977000D01*
X990000Y370000D02*
X991000D01*
X806550Y336550D02*
X820650D01*
X807000Y360000D02*
X807050Y359950D01*
X806950Y400050D02*
X820650D01*
X805000Y425000D02*
X805450Y425450D01*
X901000Y417000D02*
Y431000D01*
X950000Y359000D02*
X975000D01*
X901000Y341000D02*
Y343000D01*
Y381000D02*
Y394000D01*
Y431000D02*
Y432000D01*
X900000Y433000D02*
X901000Y432000D01*
X900000Y321000D02*
X900000Y321000D01*
X901000Y343000D02*
Y357000D01*
Y343000D02*
X901000Y343000D01*
X722000Y425000D02*
X732000D01*
X723000Y349000D02*
X724000D01*
X735000Y334000D02*
X738000Y337000D01*
X716080Y335000D02*
X735000D01*
X716080Y334000D02*
Y336000D01*
X735080Y324000D02*
X748000D01*
X575000Y443000D02*
X577000Y451000D01*
X666000Y406000D02*
Y406080D01*
Y392000D02*
Y406000D01*
X673000Y395000D02*
X674000Y394000D01*
X671000Y376000D02*
X674000Y379000D01*
X671000Y363000D02*
Y376000D01*
X597250Y348500D02*
X606500D01*
X661500Y328500D02*
X666500Y323500D01*
X667000Y323000D01*
X666500Y323500D02*
X680750D01*
X661500Y328500D02*
Y354000D01*
Y382750D01*
Y354000D02*
X678000D01*
X671500Y328500D02*
X680750D01*
X646500Y373000D02*
Y382750D01*
X626000Y373000D02*
Y382000D01*
Y373000D02*
X646500D01*
X656000D01*
X656500D01*
X671000Y348000D02*
X671500Y348500D01*
X680750D01*
X671000Y363000D02*
X671500Y363500D01*
X680750D01*
X638000Y406080D02*
X645000D01*
X656000D01*
X636000Y390000D02*
X638000Y392000D01*
Y406080D01*
X656500Y382750D02*
Y388500D01*
X659000Y391000D01*
Y395000D01*
X662000Y385000D02*
Y388000D01*
X666000Y392000D01*
X659000Y406080D02*
X666000D01*
X651500Y382750D02*
X652000D01*
X646000Y395000D02*
X646500Y394500D01*
Y382750D02*
Y394500D01*
X631000Y406080D02*
X638000D01*
X636000Y383000D02*
Y390000D01*
X620000Y406080D02*
X631000D01*
X631000Y396000D02*
X631500Y395500D01*
Y382750D02*
Y395500D01*
X622000Y394000D02*
X626500Y389500D01*
Y382750D02*
Y389500D01*
X611000Y394000D02*
X615000Y390000D01*
X620000D01*
X621500Y388500D01*
Y382750D02*
Y388500D01*
X590000Y337000D02*
X591500Y338500D01*
X597250D01*
X748000Y324000D02*
Y349000D01*
X714080Y373000D02*
X720000D01*
X724000Y400000D02*
X734000D01*
X715080Y362000D02*
X734000D01*
D12*
X597000Y464000D02*
X617000D01*
X595500Y465500D02*
X597000Y464000D01*
X586500Y465500D02*
X595500D01*
X585000Y464000D02*
X586500Y465500D01*
X182000Y303000D02*
X200000D01*
X210000Y293000D01*
X509000Y306000D02*
X512000Y309000D01*
X502000Y306000D02*
X506500Y310500D01*
X600000Y428000D02*
Y455000D01*
X518000Y367000D02*
X524000D01*
X511500Y340250D02*
X517750D01*
X201000Y307000D02*
X213000Y295000D01*
X181500Y307000D02*
X201000D01*
X181000Y307500D02*
X181500Y307000D01*
X806000Y473000D02*
X806500Y473500D01*
X506500Y310500D02*
Y311850D01*
X489000Y315000D02*
Y322000D01*
X489250Y313750D02*
X496500D01*
X513000Y301000D02*
X516000Y304000D01*
X507000Y301000D02*
X513000Y301000D01*
X507000Y301000D02*
X507000Y301000D01*
X492000Y301000D02*
X507000D01*
X489000Y304000D02*
X492000Y301000D01*
X489000Y304000D02*
Y314000D01*
X501000Y311350D02*
X501500Y311850D01*
X501000Y311000D02*
Y311350D01*
X496000Y306000D02*
X501000Y311000D01*
X489000Y297000D02*
X492000Y294000D01*
X483000Y303000D02*
X489000Y297000D01*
X482000Y304000D02*
X483000Y303000D01*
X514000Y294000D02*
X523000Y303000D01*
X492000Y294000D02*
X514000D01*
X523000Y303000D02*
Y309000D01*
X545000Y298000D02*
X548000Y295000D01*
X541000Y298000D02*
X545000D01*
X538000Y301000D02*
X541000Y298000D01*
X516000Y310000D02*
X525000Y319000D01*
X516000Y304000D02*
Y310000D01*
X489000Y314000D02*
Y315000D01*
X525000Y319000D02*
Y336000D01*
X537000Y348000D01*
Y354000D01*
X535000Y356000D02*
X537000Y354000D01*
X217000Y295000D02*
X218000Y293000D01*
X200000Y312000D02*
X217000Y295000D01*
X199000Y312000D02*
X200000D01*
X213000Y288000D02*
Y295000D01*
X210000Y285000D02*
Y293000D01*
X199000Y317000D02*
X217000Y300000D01*
X189000Y317000D02*
X199000D01*
X217000Y300000D02*
X230000Y293000D01*
X190000Y312000D02*
X199000D01*
X181000Y312500D02*
X199000Y312000D01*
X213000Y288000D02*
X842000D01*
Y293000D01*
X868000Y285000D02*
Y294000D01*
X210000Y285000D02*
X868000D01*
X772080Y491000D02*
Y500920D01*
X672000Y495000D02*
X703000D01*
X512000Y309000D02*
Y313000D01*
X443000Y363000D02*
Y386000D01*
X511000Y353000D02*
X515000Y357000D01*
X496500Y343500D02*
X501000Y348000D01*
Y351000D01*
X503000Y353000D01*
X511000D01*
X518000Y347000D02*
Y367000D01*
Y340500D02*
Y347000D01*
X507000D02*
X518000D01*
X496500Y342150D02*
Y343500D01*
X507000Y424000D02*
Y426000D01*
X585000Y455000D02*
Y464000D01*
Y447000D02*
Y455000D01*
X580000Y480000D02*
Y500000D01*
X575000Y485000D02*
Y500000D01*
X585000Y485000D02*
Y499000D01*
X426500Y353000D02*
Y374500D01*
Y350250D02*
Y353000D01*
X424000Y377000D02*
X426500Y374500D01*
X423000Y389000D02*
X433000D01*
X436022Y385978D01*
X426000Y352500D02*
X426500Y353000D01*
X436022Y380000D02*
Y385978D01*
X548000Y321000D02*
Y330000D01*
X444692Y442962D02*
X447000Y444500D01*
X436500Y437500D02*
X444692Y442962D01*
X545000Y314000D02*
X548000D01*
X541000Y318000D02*
X545000Y314000D01*
X541000Y318000D02*
Y322000D01*
X559080Y302000D02*
X570000D01*
X561080Y322000D02*
X567000D01*
Y320000D02*
Y322000D01*
Y320000D02*
X570000Y317000D01*
Y302000D02*
Y317000D01*
X541000Y309000D02*
X543000Y307000D01*
Y303000D02*
Y307000D01*
Y303000D02*
X544000Y302000D01*
X548920D01*
X538000Y301000D02*
Y304000D01*
X583000Y366000D02*
X589000D01*
X591500Y368500D01*
X597250D01*
X602000Y417000D02*
X605000Y420000D01*
X555000Y417000D02*
X602000D01*
X548000Y410000D02*
X555000Y417000D01*
X601000Y412000D02*
X602000D01*
X599000Y414000D02*
X601000Y412000D01*
X531000Y404000D02*
X547000D01*
X557000Y414000D02*
X599000D01*
X547000Y404000D02*
X557000Y414000D01*
X452000Y439000D02*
Y447000D01*
X446750Y433750D02*
X452000Y439000D01*
X441500Y433750D02*
X446750D01*
X306000Y343000D02*
X315000D01*
X304000D02*
X306000D01*
X315000Y328000D02*
Y343000D01*
X328500Y349500D02*
Y350500D01*
Y332500D02*
Y349500D01*
X245000Y329000D02*
Y339000D01*
X328000Y331000D02*
Y332000D01*
X320000Y323000D02*
X328000Y331000D01*
X251000Y323000D02*
X320000D01*
X328000Y327000D02*
X388000D01*
X321000Y320000D02*
X328000Y327000D01*
X247000Y320000D02*
X321000D01*
X329000Y324000D02*
X391000D01*
X322000Y317000D02*
X329000Y324000D01*
X244000Y317000D02*
X322000D01*
X330000Y321000D02*
X393000D01*
X323000Y314000D02*
X330000Y321000D01*
X241033Y314000D02*
X323000D01*
X331000Y318000D02*
X395000D01*
X324000Y311000D02*
X331000Y318000D01*
X239000Y311000D02*
X324000D01*
X332000Y315000D02*
X397000D01*
X325000Y308000D02*
X332000Y315000D01*
X237016Y308000D02*
X325000D01*
X416936Y329936D02*
Y335436D01*
X333000Y312000D02*
X399000D01*
X326000Y305000D02*
X333000Y312000D01*
X235033Y305000D02*
X326000D01*
X512000Y395000D02*
X527000Y410000D01*
X512000Y388000D02*
Y395000D01*
X508000Y384000D02*
X512000Y388000D01*
X515000Y392000D02*
X532000Y409000D01*
X515000Y357000D02*
Y392000D01*
X524000Y358080D02*
Y366920D01*
Y357080D02*
Y358080D01*
X518000Y367000D02*
Y391000D01*
X531000Y404000D01*
X517750Y340250D02*
X518000Y340500D01*
X773080Y481000D02*
X789000D01*
X772080D02*
X773080D01*
X508000Y395000D02*
X530000Y417000D01*
X507000Y395000D02*
X508000D01*
X514000Y420000D02*
X537000D01*
X510000Y416000D02*
X514000Y420000D01*
X496000Y416000D02*
X510000D01*
X491000Y421000D02*
X492000Y422000D01*
X499000D01*
X501000Y420000D01*
X509000D01*
X789000Y481000D02*
X790000Y482000D01*
X772000Y501000D02*
X784000D01*
X753000D02*
X772000D01*
X772080Y500920D01*
X784000Y501000D02*
X790000Y495000D01*
X399000Y312000D02*
X416936Y329936D01*
X397000Y315000D02*
X412000Y330000D01*
X395000Y318000D02*
X407000Y330000D01*
X393000Y321000D02*
X402000Y330000D01*
X391000Y324000D02*
X397000Y330000D01*
X215033Y325000D02*
X235033Y305000D01*
X219016Y326000D02*
X237016Y308000D01*
X223000Y327000D02*
X239000Y311000D01*
X227000Y328033D02*
X241033Y314000D01*
X231000Y330000D02*
X244000Y317000D01*
X235000Y332000D02*
X247000Y320000D01*
X703000Y495000D02*
Y501000D01*
Y453000D02*
Y495000D01*
X698000Y448000D02*
X703000Y453000D01*
X690600Y482400D02*
X698000Y475000D01*
X684000Y482400D02*
X690600D01*
X698000Y458000D02*
Y475000D01*
X691000Y451000D02*
X698000Y458000D01*
X680000Y451000D02*
X691000D01*
X794000Y480000D02*
X794000Y480000D01*
X800000D01*
X806000Y474000D01*
X806500Y473500D01*
X806000Y473000D02*
Y474000D01*
X683000Y448000D02*
X698000D01*
X680000Y423000D02*
Y451000D01*
X604000Y423000D02*
X680000D01*
X683000Y420000D02*
Y448000D01*
X605000Y420000D02*
X683000D01*
X703000Y501000D02*
X753000D01*
X695000Y432000D02*
X706000D01*
Y431920D02*
Y432000D01*
X601000Y420000D02*
X604000Y423000D01*
X640000Y460000D02*
X646000Y466000D01*
X621000Y460000D02*
X640000D01*
X790000Y495000D02*
X792000D01*
X595000Y432000D02*
Y437000D01*
X591000Y428000D02*
X595000Y432000D01*
X585781Y428000D02*
X591000D01*
X553000Y420000D02*
X601000D01*
X546000Y413000D02*
X553000Y420000D01*
X600000Y423000D02*
X605000Y428000D01*
X552000Y423000D02*
X600000D01*
X545000Y416000D02*
X552000Y423000D01*
X539000Y410000D02*
X548000D01*
X540000Y413000D02*
X546000D01*
X541000Y416000D02*
X545000D01*
X539000Y414000D02*
X540000Y413000D01*
X541000Y421000D02*
X543000D01*
X539000Y423000D02*
X541000Y421000D01*
X512000Y423000D02*
X539000D01*
X537000Y420000D02*
X541000Y416000D01*
X536000Y417000D02*
X539000Y414000D01*
X530000Y417000D02*
X536000D01*
X535000Y414000D02*
X539000Y410000D01*
X531000Y414000D02*
X535000D01*
X527000Y410000D02*
X527000D01*
X531000Y414000D01*
X532000Y409000D02*
X533000D01*
X509000Y420000D02*
X512000Y423000D01*
X515000Y429000D02*
X579000D01*
X501000Y430000D02*
X514000D01*
X515000Y429000D01*
X507000Y426000D02*
X582000D01*
X501000Y430000D02*
X502000Y429000D01*
X500000D02*
X501000Y430000D01*
X605000Y428000D02*
Y433000D01*
X582000Y426000D02*
X584000Y428000D01*
X617000Y464000D02*
X621000Y460000D01*
X585000Y447000D02*
X590000D01*
X580500D02*
X585000D01*
X392000Y331000D02*
Y333000D01*
X388000Y327000D02*
X392000Y331000D01*
X388000Y327000D02*
X388000D01*
X388000Y327000D02*
X388000Y327000D01*
X388000Y327000D02*
Y327000D01*
X328000Y351000D02*
X328500Y350500D01*
X517750Y340250D02*
X518000Y340000D01*
X473000D02*
X475000Y342000D01*
X465000Y340000D02*
X473000D01*
X453000Y352000D02*
X465000Y340000D01*
X489000Y314000D02*
X489250Y313750D01*
X505850Y342150D02*
X507000Y341000D01*
X501500Y342150D02*
X505850D01*
X518000Y333000D02*
Y340000D01*
X447000Y348000D02*
X462000Y333000D01*
X412000Y330000D02*
Y334500D01*
X407000Y330000D02*
Y334500D01*
X402000Y330000D02*
Y334500D01*
X397000Y330000D02*
Y334500D01*
X392000Y333000D02*
X392000Y333000D01*
X245000Y329000D02*
X251000Y323000D01*
X188000Y367000D02*
X202000D01*
X210000Y359000D01*
Y359000D02*
Y359000D01*
X406500Y347000D02*
X407000Y334500D01*
Y335500D01*
X223000Y327000D02*
Y346000D01*
X210000Y359000D02*
X223000Y346000D01*
X447000Y389000D02*
Y390000D01*
Y363000D02*
Y389000D01*
X584000Y428000D02*
X585094D01*
X584835Y436292D02*
X585094Y428000D01*
X455750Y419500D02*
Y426750D01*
X449000Y361000D02*
X453000Y357000D01*
Y352000D02*
Y357000D01*
X443000Y363000D02*
X450000Y356000D01*
X464000Y336000D02*
X481000D01*
X450000Y350000D02*
Y356000D01*
Y350000D02*
X464000Y336000D01*
X443000Y358000D02*
X447000Y354000D01*
Y348000D02*
Y354000D01*
X436000Y381000D02*
X436001Y380978D01*
X436500Y358000D01*
X447000Y363000D02*
X449000Y361000D01*
X502000Y431000D02*
Y436000D01*
X436500Y350250D02*
Y358000D01*
X443000D01*
X449000Y361000D02*
Y361000D01*
X205000Y382000D02*
X235000Y352000D01*
Y332000D02*
Y352000D01*
X204000Y377000D02*
X231000Y350000D01*
Y330000D02*
Y350000D01*
X203000Y372000D02*
X227000Y348000D01*
Y328033D02*
Y348000D01*
X219000Y326000D02*
X219016D01*
X219000D02*
Y344000D01*
X412000Y334500D02*
Y335500D01*
X201000Y362000D02*
X219000Y344000D01*
X215000Y325000D02*
X215033D01*
X215000D02*
Y342000D01*
X202000Y355000D02*
X215000Y342000D01*
X431500Y437500D02*
X431500Y437500D01*
X422000Y444500D02*
X431500Y437500D01*
Y438500D01*
Y433750D02*
Y437500D01*
Y438500D02*
X434000Y441000D01*
X361000Y429000D02*
X368500Y419500D01*
X368507Y419558D02*
X369000Y419500D01*
X361000Y424000D02*
X368500Y414500D01*
X377000Y444500D02*
X386500Y437500D01*
X382000Y444500D02*
X391500Y437500D01*
X402000Y444500D02*
X411500Y437500D01*
X397000Y444500D02*
X406500Y437500D01*
X441500Y346500D02*
X452000Y338500D01*
X431500Y346500D02*
X442000Y338500D01*
X426500Y346500D02*
X437000Y338500D01*
X421500Y346500D02*
X432000Y338500D01*
X416500Y346500D02*
X427000Y338500D01*
X411500Y346500D02*
X422000Y338500D01*
X411500Y346500D02*
X411500Y350250D01*
X402000Y334500D02*
Y335500D01*
X401500Y347500D02*
X402000Y334500D01*
X397000D02*
Y335500D01*
X396500Y347000D02*
X397000Y334500D01*
X391500Y347000D02*
X392000Y334500D01*
X361000Y354500D02*
X369000Y365000D01*
X360940Y374046D02*
X368905Y384500D01*
X372250D01*
X361000Y359500D02*
X369000Y370000D01*
X361000Y364500D02*
X369000Y375000D01*
X361000Y369500D02*
X369000Y380000D01*
X361000Y399000D02*
X368500Y389500D01*
X361000Y404000D02*
X368500Y394500D01*
X361000Y409000D02*
X368500Y399500D01*
X361000Y414000D02*
X368500Y404500D01*
X357080Y419000D02*
X361000D01*
X368500Y409500D01*
X441500Y433750D02*
Y437500D01*
X436500D02*
X436500Y433750D01*
X417000Y444500D02*
X426500Y437500D01*
X412000Y444500D02*
X421500Y437500D01*
X407000Y444500D02*
X416500Y437500D01*
X392000Y444500D02*
X401500Y437500D01*
Y433750D02*
Y437500D01*
X387000Y444500D02*
X396500Y437500D01*
Y433750D02*
Y437500D01*
X459500Y384500D02*
X468000Y394000D01*
X459500Y389500D02*
X468000Y399000D01*
X459500Y394500D02*
X468000Y404000D01*
X459500Y399500D02*
X468000Y409000D01*
X459500Y404500D02*
X468000Y414000D01*
X456500Y410000D02*
X459500Y409500D01*
X468000Y419000D01*
X471500D01*
X459500Y364000D02*
X468000Y354000D01*
X459500Y369000D02*
X468000Y359000D01*
X459044Y374537D02*
X468000Y364000D01*
X459044Y379537D02*
X468000Y369000D01*
X441500Y433750D02*
X442000Y437000D01*
X411000D02*
X411500Y433750D01*
X407000Y447500D02*
Y448500D01*
X202000Y355000D02*
Y355000D01*
X200000Y357000D02*
X202000Y355000D01*
X188000Y357000D02*
X200000D01*
X189000Y362000D02*
X201000D01*
X189000Y372000D02*
X203000D01*
X191000Y377000D02*
X204000D01*
X190000Y382000D02*
X205000D01*
X416936Y335436D02*
X417000Y335500D01*
X579000Y429000D02*
X580500Y430500D01*
Y437030D01*
X590000Y441000D02*
Y447000D01*
X580500Y438030D02*
Y447000D01*
D15*
X525920Y293000D02*
D03*
X536080D02*
D03*
X559080Y313000D02*
D03*
X548920D02*
D03*
X575920Y300000D02*
D03*
X586080D02*
D03*
X559080Y293000D02*
D03*
X548920D02*
D03*
X559080Y323000D02*
D03*
X548920D02*
D03*
X559080Y303000D02*
D03*
X548920D02*
D03*
X719920Y442000D02*
D03*
X730080D02*
D03*
X762920Y481000D02*
D03*
X773080D02*
D03*
X762920Y491000D02*
D03*
X773080D02*
D03*
X762080Y457000D02*
D03*
X751920D02*
D03*
X762080Y470000D02*
D03*
X751920D02*
D03*
X526080Y450000D02*
D03*
X515920D02*
D03*
X495920Y407000D02*
D03*
X506080D02*
D03*
X569080Y333000D02*
D03*
X558920D02*
D03*
X258420Y404000D02*
D03*
X268580D02*
D03*
X461920Y470000D02*
D03*
X472080D02*
D03*
X476080Y326000D02*
D03*
X465920D02*
D03*
X350920Y451000D02*
D03*
X361080D02*
D03*
X476080Y316000D02*
D03*
X465920D02*
D03*
X316080Y436000D02*
D03*
X305920D02*
D03*
Y424000D02*
D03*
X316080D02*
D03*
Y447000D02*
D03*
X305920D02*
D03*
X280920Y430000D02*
D03*
X291080D02*
D03*
X257920Y330000D02*
D03*
X268080D02*
D03*
X515920Y437000D02*
D03*
X526080D02*
D03*
X431080Y312000D02*
D03*
X420920D02*
D03*
X586080Y310000D02*
D03*
X575920D02*
D03*
X836920Y362000D02*
D03*
X847080D02*
D03*
X836920Y337000D02*
D03*
X847080D02*
D03*
X836920Y349000D02*
D03*
X847080D02*
D03*
X705920Y393000D02*
D03*
X716080D02*
D03*
X705920Y417000D02*
D03*
X716080D02*
D03*
X705920Y383000D02*
D03*
X716080D02*
D03*
X586080Y320000D02*
D03*
X575920D02*
D03*
X572920Y374000D02*
D03*
X583080D02*
D03*
X572920Y364000D02*
D03*
X583080D02*
D03*
X705920Y373000D02*
D03*
X716080D02*
D03*
X717080Y336000D02*
D03*
X706920D02*
D03*
X716080Y363000D02*
D03*
X705920D02*
D03*
X716080Y403000D02*
D03*
X705920D02*
D03*
X563080Y343000D02*
D03*
X552920D02*
D03*
X583080Y352000D02*
D03*
X572920D02*
D03*
D16*
X575000Y501000D02*
D03*
X605000D02*
D03*
X565000D02*
D03*
X570000D02*
D03*
X580000D02*
D03*
X595000D02*
D03*
X600000D02*
D03*
X585000D02*
D03*
X590000D02*
D03*
D17*
X752000Y491080D02*
D03*
Y480920D02*
D03*
X709000Y442080D02*
D03*
Y431920D02*
D03*
X663000Y467080D02*
D03*
Y456920D02*
D03*
X773000D02*
D03*
Y467080D02*
D03*
X646000Y442080D02*
D03*
Y431920D02*
D03*
X294000Y335920D02*
D03*
Y346080D02*
D03*
X524000Y378080D02*
D03*
Y367920D02*
D03*
X334000Y361920D02*
D03*
Y372080D02*
D03*
X482000Y447080D02*
D03*
Y436920D02*
D03*
X548000Y357920D02*
D03*
Y368080D02*
D03*
X504000Y447080D02*
D03*
Y436920D02*
D03*
X294000Y446920D02*
D03*
Y457080D02*
D03*
X282000Y446920D02*
D03*
Y457080D02*
D03*
X493000Y447080D02*
D03*
Y436920D02*
D03*
X334000Y382920D02*
D03*
Y393080D02*
D03*
X524000Y347920D02*
D03*
Y358080D02*
D03*
X837000Y387080D02*
D03*
Y376920D02*
D03*
X583000Y331920D02*
D03*
Y342080D02*
D03*
X693000Y395920D02*
D03*
Y406080D02*
D03*
X558000Y357920D02*
D03*
Y368080D02*
D03*
X609000Y395920D02*
D03*
Y406080D02*
D03*
X620000Y395920D02*
D03*
Y406080D02*
D03*
X631000D02*
D03*
Y395920D02*
D03*
X645000D02*
D03*
Y406080D02*
D03*
X659000Y395920D02*
D03*
Y406080D02*
D03*
X673000Y396000D02*
D03*
Y406160D02*
D03*
X683000Y395920D02*
D03*
Y406080D02*
D03*
D18*
X695000Y435000D02*
D03*
X659000D02*
D03*
D19*
X846000Y456900D02*
D03*
X735000Y457000D02*
D03*
D20*
X846000Y469600D02*
D03*
Y482300D02*
D03*
Y495000D02*
D03*
X790000Y456900D02*
D03*
Y469600D02*
D03*
Y482300D02*
D03*
Y495000D02*
D03*
X735000Y469700D02*
D03*
Y482400D02*
D03*
Y495100D02*
D03*
X679000Y457000D02*
D03*
Y469700D02*
D03*
Y482400D02*
D03*
Y495100D02*
D03*
D21*
X1012030Y364000D02*
D03*
Y371500D02*
D03*
X1012000Y418500D02*
D03*
X1012030Y426000D02*
D03*
D22*
Y377500D02*
D03*
Y382500D02*
D03*
Y387500D02*
D03*
Y392500D02*
D03*
X1012000Y397500D02*
D03*
X1012030Y402500D02*
D03*
Y407500D02*
D03*
Y412500D02*
D03*
D23*
X518000Y478000D02*
D03*
D24*
X492000Y463000D02*
D03*
Y494000D02*
D03*
D25*
X496000Y478000D02*
D03*
D26*
X881000Y379000D02*
D03*
Y357000D02*
D03*
X901000Y379000D02*
D03*
Y357000D02*
D03*
Y343000D02*
D03*
Y321000D02*
D03*
X881000Y343000D02*
D03*
Y321000D02*
D03*
X901000Y431000D02*
D03*
Y453000D02*
D03*
X881000Y431000D02*
D03*
Y453000D02*
D03*
X901000Y395000D02*
D03*
Y417000D02*
D03*
X881000Y395000D02*
D03*
Y417000D02*
D03*
D27*
X269000Y416000D02*
D03*
X255000D02*
D03*
X269300Y430000D02*
D03*
X255300D02*
D03*
X269300Y443000D02*
D03*
X255300D02*
D03*
X269300Y456000D02*
D03*
X255300D02*
D03*
D28*
X306500Y349500D02*
D03*
X328500D02*
D03*
X306500Y333000D02*
D03*
X328500D02*
D03*
D29*
X862000Y400954D02*
D03*
Y373046D02*
D03*
Y325046D02*
D03*
Y352954D02*
D03*
D30*
X700300Y350000D02*
D03*
X715700D02*
D03*
X700300Y323000D02*
D03*
X715700D02*
D03*
X343300Y335000D02*
D03*
X358700D02*
D03*
D31*
X496500Y342150D02*
D03*
X501500D02*
D03*
X506500D02*
D03*
X511500D02*
D03*
X519150Y332214D02*
D03*
Y327214D02*
D03*
Y322214D02*
D03*
X511500Y311850D02*
D03*
X506500D02*
D03*
X501500D02*
D03*
X496500D02*
D03*
X488850Y321960D02*
D03*
Y326960D02*
D03*
Y331960D02*
D03*
D32*
X496500Y340250D02*
D03*
X501500D02*
D03*
X506500D02*
D03*
X511500D02*
D03*
Y313750D02*
D03*
X506500D02*
D03*
X501500D02*
D03*
X496500D02*
D03*
D33*
X517250Y332214D02*
D03*
Y327214D02*
D03*
Y322214D02*
D03*
X490750Y321960D02*
D03*
Y326960D02*
D03*
Y331960D02*
D03*
D34*
X504000Y327000D02*
D03*
D35*
X449500Y492000D02*
D03*
X468500D02*
D03*
D36*
X842000Y438500D02*
D03*
Y419500D02*
D03*
X862000Y438500D02*
D03*
Y419500D02*
D03*
D37*
X181000Y457500D02*
D03*
Y452500D02*
D03*
Y447500D02*
D03*
Y442500D02*
D03*
Y302500D02*
D03*
Y307500D02*
D03*
Y312500D02*
D03*
Y317500D02*
D03*
Y322500D02*
D03*
Y327500D02*
D03*
Y352500D02*
D03*
Y357500D02*
D03*
Y362500D02*
D03*
Y367500D02*
D03*
Y372500D02*
D03*
Y377500D02*
D03*
Y382500D02*
D03*
Y387500D02*
D03*
Y392500D02*
D03*
Y397500D02*
D03*
Y402500D02*
D03*
Y407500D02*
D03*
Y412500D02*
D03*
Y417500D02*
D03*
Y422500D02*
D03*
Y427500D02*
D03*
Y432500D02*
D03*
Y437500D02*
D03*
Y462500D02*
D03*
Y487500D02*
D03*
Y482500D02*
D03*
Y477500D02*
D03*
Y472500D02*
D03*
Y467500D02*
D03*
D38*
X618300Y437600D02*
D03*
X610800D02*
D03*
X563800Y437570D02*
D03*
X556300Y437600D02*
D03*
D39*
X604800D02*
D03*
X599800D02*
D03*
X594800D02*
D03*
X589800D02*
D03*
X584800Y437570D02*
D03*
X579800Y437600D02*
D03*
X574800D02*
D03*
X569800D02*
D03*
D40*
X280500Y337500D02*
D03*
Y396500D02*
D03*
X243500D02*
D03*
Y337500D02*
D03*
D41*
X452000Y448500D02*
D03*
X447000D02*
D03*
X442000D02*
D03*
X437000D02*
D03*
X432000D02*
D03*
X427000D02*
D03*
X422000D02*
D03*
X417000D02*
D03*
X412000D02*
D03*
X407000D02*
D03*
X402000D02*
D03*
X397000D02*
D03*
X392000D02*
D03*
X387000D02*
D03*
X382000D02*
D03*
X377000D02*
D03*
X452000Y334500D02*
D03*
X447000D02*
D03*
X442000D02*
D03*
X437000D02*
D03*
X432000D02*
D03*
X427000D02*
D03*
X422000D02*
D03*
X417000D02*
D03*
X412000D02*
D03*
X407000D02*
D03*
X402000D02*
D03*
X397000D02*
D03*
X392000D02*
D03*
X387000D02*
D03*
X382000D02*
D03*
X377000D02*
D03*
X386500Y350250D02*
D03*
X391500D02*
D03*
X396500D02*
D03*
X401500D02*
D03*
X406500D02*
D03*
X411500D02*
D03*
X416500D02*
D03*
X421500D02*
D03*
X426500D02*
D03*
X431500D02*
D03*
X436500D02*
D03*
X441500D02*
D03*
X386500Y433750D02*
D03*
X391500D02*
D03*
X396500D02*
D03*
X401500D02*
D03*
X406500D02*
D03*
X411500D02*
D03*
X416500D02*
D03*
X421500D02*
D03*
X426500D02*
D03*
X431500D02*
D03*
X436500D02*
D03*
X441500D02*
D03*
X666500Y382750D02*
D03*
X661500D02*
D03*
X656500D02*
D03*
X651500D02*
D03*
X646500D02*
D03*
X641500D02*
D03*
X636500D02*
D03*
X631500D02*
D03*
X626500D02*
D03*
X621500D02*
D03*
X616500D02*
D03*
X611500D02*
D03*
X666500Y299250D02*
D03*
X661500D02*
D03*
X656500D02*
D03*
X651500D02*
D03*
X646500D02*
D03*
X641500D02*
D03*
X636500D02*
D03*
X631500D02*
D03*
X626500D02*
D03*
X621500D02*
D03*
X616500D02*
D03*
X611500D02*
D03*
D42*
X471500Y354000D02*
D03*
Y359000D02*
D03*
Y364000D02*
D03*
Y369000D02*
D03*
Y374000D02*
D03*
Y379000D02*
D03*
Y384000D02*
D03*
Y389000D02*
D03*
Y394000D02*
D03*
Y399000D02*
D03*
Y404000D02*
D03*
Y409000D02*
D03*
Y414000D02*
D03*
Y419000D02*
D03*
Y424000D02*
D03*
Y429000D02*
D03*
X357080Y354000D02*
D03*
Y359000D02*
D03*
Y364000D02*
D03*
Y369000D02*
D03*
Y374000D02*
D03*
Y379000D02*
D03*
Y384000D02*
D03*
Y389000D02*
D03*
Y394000D02*
D03*
Y399000D02*
D03*
Y404000D02*
D03*
Y409000D02*
D03*
Y414000D02*
D03*
Y419000D02*
D03*
Y424000D02*
D03*
Y429000D02*
D03*
X372250Y419500D02*
D03*
X372250Y414500D02*
D03*
X372250Y409500D02*
D03*
X372250Y404500D02*
D03*
Y399500D02*
D03*
Y394500D02*
D03*
Y389500D02*
D03*
Y384500D02*
D03*
X372250Y379500D02*
D03*
X372250Y374500D02*
D03*
Y369500D02*
D03*
Y364500D02*
D03*
X455750Y419500D02*
D03*
Y414500D02*
D03*
Y409500D02*
D03*
Y404500D02*
D03*
Y399500D02*
D03*
Y394500D02*
D03*
Y389500D02*
D03*
Y384500D02*
D03*
Y379500D02*
D03*
Y374500D02*
D03*
Y369500D02*
D03*
Y364500D02*
D03*
X680750Y313500D02*
D03*
X680750Y318500D02*
D03*
X680750Y323500D02*
D03*
X680750Y328500D02*
D03*
Y333500D02*
D03*
Y338500D02*
D03*
Y343500D02*
D03*
Y348500D02*
D03*
X680750Y353500D02*
D03*
X680750Y358500D02*
D03*
Y363500D02*
D03*
Y368500D02*
D03*
X597250Y313500D02*
D03*
Y318500D02*
D03*
Y323500D02*
D03*
Y328500D02*
D03*
Y333500D02*
D03*
Y338500D02*
D03*
Y343500D02*
D03*
Y348500D02*
D03*
Y353500D02*
D03*
Y358500D02*
D03*
Y363500D02*
D03*
Y368500D02*
D03*
D43*
X310600Y407500D02*
D03*
Y370500D02*
D03*
D44*
X550000Y394700D02*
D03*
Y379300D02*
D03*
D45*
X620000Y411000D02*
D03*
Y415000D02*
D03*
D46*
X591000Y388000D02*
D03*
Y405000D02*
D03*
X569000D02*
D03*
Y388000D02*
D03*
D47*
X735350Y425450D02*
D03*
Y412750D02*
D03*
Y400050D02*
D03*
Y387350D02*
D03*
Y374650D02*
D03*
Y361950D02*
D03*
Y349250D02*
D03*
Y336550D02*
D03*
X820650D02*
D03*
Y349250D02*
D03*
Y361950D02*
D03*
Y374650D02*
D03*
Y387350D02*
D03*
Y400050D02*
D03*
Y412750D02*
D03*
Y425450D02*
D03*
D95*
X547920Y368080D02*
X548000Y368000D01*
X528000Y293000D02*
Y314000D01*
X437000Y297000D02*
Y299000D01*
X528000Y314000D02*
X529000Y315000D01*
X525920Y293000D02*
X528000D01*
X529000Y315000D02*
Y332000D01*
X541000Y344000D01*
X535000Y365000D02*
X541000Y359000D01*
Y344000D02*
Y359000D01*
X535000Y365000D02*
Y369000D01*
X465000Y309000D02*
X472500Y301500D01*
X610000Y485000D02*
X621000Y496000D01*
X564000Y473000D02*
X570000D01*
X601000D01*
X564000Y460000D02*
Y473000D01*
X610000Y482000D02*
Y485000D01*
X601000Y473000D02*
X610000Y482000D01*
X447000Y309000D02*
X465000D01*
X890000Y398000D02*
Y453000D01*
X891000Y320000D02*
Y356000D01*
Y296000D02*
Y320000D01*
X890000Y453000D02*
X890000D01*
X621000Y496000D02*
X644000D01*
X529000Y387000D02*
Y395000D01*
Y387000D02*
X535000Y381000D01*
X529000Y395000D02*
X533000Y399000D01*
X437000Y299000D02*
X437000D01*
X447000Y309000D01*
X431080Y312000D02*
X444000D01*
X447000Y309000D01*
X535000Y369000D02*
Y381000D01*
Y369000D02*
X535920Y368080D01*
X1015000Y372000D02*
X1029000Y372000D01*
D96*
X516920Y450000D02*
Y472920D01*
X867600Y295000D02*
Y310000D01*
X644000Y496000D02*
X649000Y491000D01*
X610000Y485000D02*
Y485000D01*
X654000Y488000D02*
X656000D01*
X653000D02*
X654000D01*
X649000Y491000D02*
X652000Y488000D01*
X648000Y492000D02*
X649000Y491000D01*
X656000Y488000D02*
X659000Y491000D01*
X649000D02*
X649000D01*
X781000Y310000D02*
X815000D01*
X781000D02*
Y333000D01*
X846000Y398000D02*
X860000D01*
X815000Y310000D02*
X867600D01*
X405000Y312000D02*
X420920D01*
X394000Y301000D02*
X405000Y312000D01*
X431000Y295000D02*
X431080Y295080D01*
X538000Y459000D02*
X564500D01*
X795000Y387000D02*
X806000D01*
X529000Y450000D02*
X538000Y459000D01*
X516920Y472920D02*
X517000Y473000D01*
X459000Y479000D02*
X491000D01*
X448000Y490000D02*
X459000Y479000D01*
X447500Y490000D02*
X448000D01*
D97*
X862000Y419500D02*
X864500D01*
X842000D02*
X862000D01*
X864500D02*
X866000Y418000D01*
X795000Y387000D02*
X795000D01*
X795000Y325000D02*
X861000D01*
X795000D02*
Y387000D01*
D98*
X867000Y443000D02*
D03*
D99*
X890500Y453000D02*
D03*
D100*
X479000Y494000D02*
D03*
D101*
X490000Y462000D02*
D03*
D102*
X523500Y468000D02*
D03*
D103*
X369000Y446000D02*
D03*
D104*
X472000Y451500D02*
D03*
D105*
X181500Y325000D02*
D03*
D106*
X907000Y359000D02*
D03*
D107*
X910500Y359000D02*
D03*
D108*
X925500Y363000D02*
D03*
D109*
X620000Y412996D02*
D03*
D110*
X901000Y385500D02*
D03*
Y349500D02*
D03*
X881000Y384500D02*
D03*
D111*
X960000Y359500D02*
D03*
D112*
X892000Y387500D02*
D03*
D113*
X564500Y450500D02*
D03*
D114*
X435400Y297000D02*
D03*
D115*
X892600D02*
D03*
D116*
X867200D02*
D03*
X841800D02*
D03*
X816400D02*
D03*
X791000D02*
D03*
X460800D02*
D03*
X765600D02*
D03*
D117*
X1015830Y351800D02*
D03*
Y438300D02*
D03*
Y438200D02*
D03*
Y351700D02*
D03*
D118*
X1054430Y351800D02*
D03*
Y438300D02*
D03*
Y438200D02*
D03*
Y351700D02*
D03*
D119*
X928700Y440500D02*
D03*
Y463400D02*
D03*
Y349100D02*
D03*
Y326200D02*
D03*
X977000Y359200D02*
D03*
X994800Y369400D02*
D03*
X977000Y379600D02*
D03*
X994800Y389800D02*
D03*
X977000Y400000D02*
D03*
X994800Y410200D02*
D03*
X977000Y420400D02*
D03*
D120*
X985900Y476100D02*
D03*
Y313500D02*
D03*
D121*
X1020200Y458300D02*
D03*
Y331300D02*
D03*
D122*
X994800Y430600D02*
D03*
D123*
X1040000Y299000D02*
D03*
Y489000D02*
D03*
X340000Y439000D02*
D03*
X1050000Y315000D02*
D03*
Y470000D02*
D03*
D124*
X630500Y441400D02*
D03*
X544000D02*
D03*
D125*
X630500Y480000D02*
D03*
X544000D02*
D03*
D126*
X509000Y306000D02*
D03*
X502000Y305500D02*
D03*
X499000Y296000D02*
D03*
X508000D02*
D03*
X522000Y300000D02*
D03*
X494000Y306000D02*
D03*
X483000Y303000D02*
D03*
X489000Y297000D02*
D03*
X522000Y309000D02*
D03*
X535000Y356000D02*
D03*
X218000Y293000D02*
D03*
X230000D02*
D03*
X506000Y348000D02*
D03*
Y358000D02*
D03*
X496000Y350000D02*
D03*
X489000Y349000D02*
D03*
X512000Y443000D02*
D03*
X514000Y412000D02*
D03*
X616000Y476000D02*
D03*
X612000Y500000D02*
D03*
X580000Y465000D02*
D03*
X585000Y455000D02*
D03*
X580000Y480000D02*
D03*
X575000Y485000D02*
D03*
X595000Y493000D02*
D03*
X600000Y480000D02*
D03*
X585000Y485000D02*
D03*
X590000Y480000D02*
D03*
Y460000D02*
D03*
X423000Y389000D02*
D03*
Y378000D02*
D03*
X431000Y379000D02*
D03*
X306000Y453000D02*
D03*
X505000Y331000D02*
D03*
X703000Y305000D02*
D03*
X565000Y392000D02*
D03*
X586000Y400000D02*
D03*
X474000Y310000D02*
D03*
X599000Y297000D02*
D03*
X567000D02*
D03*
X548000Y330000D02*
D03*
X565000Y313000D02*
D03*
X567000Y322000D02*
D03*
X566000Y351000D02*
D03*
X541000Y374000D02*
D03*
X607000Y354000D02*
D03*
X608000Y342000D02*
D03*
X541000Y322000D02*
D03*
Y310000D02*
D03*
X538000Y304000D02*
D03*
X614000Y329000D02*
D03*
X576000Y332000D02*
D03*
Y342000D02*
D03*
X566000Y368000D02*
D03*
Y375000D02*
D03*
X602000Y412000D02*
D03*
X544000Y337000D02*
D03*
X695000Y313000D02*
D03*
X505000Y365000D02*
D03*
X531000Y349000D02*
D03*
X446000Y441000D02*
D03*
X434000D02*
D03*
X315000Y328000D02*
D03*
X523000Y385000D02*
D03*
X507000Y395000D02*
D03*
X508000Y384000D02*
D03*
X496000Y416000D02*
D03*
X491000Y421000D02*
D03*
X463000Y427000D02*
D03*
X507000Y494000D02*
D03*
X815000Y501000D02*
D03*
X729000Y299000D02*
D03*
X725000Y305000D02*
D03*
X694000Y299000D02*
D03*
X966000Y466000D02*
D03*
Y457000D02*
D03*
Y450000D02*
D03*
X961000Y444000D02*
D03*
X911000Y390000D02*
D03*
X955000Y437000D02*
D03*
X934000Y396000D02*
D03*
Y382000D02*
D03*
X716000Y450000D02*
D03*
X698000Y475000D02*
D03*
X691000Y462000D02*
D03*
X665000Y502000D02*
D03*
X659000Y491000D02*
D03*
X654000Y488000D02*
D03*
X649000Y491000D02*
D03*
X645000Y496000D02*
D03*
X450000Y479000D02*
D03*
X709000Y450000D02*
D03*
X806000Y474000D02*
D03*
X830000Y450000D02*
D03*
X722000Y373000D02*
D03*
X698000D02*
D03*
X722000Y383000D02*
D03*
X698000D02*
D03*
Y416000D02*
D03*
X669000Y442000D02*
D03*
X647000Y457000D02*
D03*
X658000Y449000D02*
D03*
X627000Y414000D02*
D03*
X806000Y359000D02*
D03*
X646000Y474000D02*
D03*
X760000Y448000D02*
D03*
X846000Y398000D02*
D03*
X643000Y488000D02*
D03*
X653000Y496000D02*
D03*
X647000Y467000D02*
D03*
X598000Y428000D02*
D03*
X602000Y405000D02*
D03*
X543000Y421000D02*
D03*
X506000Y425000D02*
D03*
X501000Y430000D02*
D03*
Y392000D02*
D03*
X605000Y469000D02*
D03*
X910000Y501000D02*
D03*
X501000Y399000D02*
D03*
X417000Y323000D02*
D03*
X437000D02*
D03*
X535000Y399000D02*
D03*
Y391000D02*
D03*
X548000Y350000D02*
D03*
X605000Y449000D02*
D03*
X600000Y455000D02*
D03*
X610000D02*
D03*
Y485000D02*
D03*
X1049000Y423000D02*
D03*
X1041000Y413000D02*
D03*
X1029000Y372000D02*
D03*
X1021000Y418000D02*
D03*
X1045000Y401000D02*
D03*
X1048000Y385000D02*
D03*
X1035000Y397000D02*
D03*
X1040000Y392000D02*
D03*
X1002000Y419000D02*
D03*
X1030000Y416000D02*
D03*
X1002000Y400000D02*
D03*
X961000Y396000D02*
D03*
X1023000Y403000D02*
D03*
X1022000Y392000D02*
D03*
X529000Y395000D02*
D03*
X948000Y371000D02*
D03*
X940000D02*
D03*
X690000Y321000D02*
D03*
X674000Y388000D02*
D03*
X376000Y355000D02*
D03*
X245000Y442000D02*
D03*
X346000Y429000D02*
D03*
X370000Y350000D02*
D03*
X386000Y359000D02*
D03*
X533000Y409000D02*
D03*
X490000Y341000D02*
D03*
X476000Y342000D02*
D03*
X489000Y315000D02*
D03*
X481000Y336000D02*
D03*
X247000Y359000D02*
D03*
X253000Y354000D02*
D03*
X272000Y356000D02*
D03*
X262000Y366000D02*
D03*
X284000Y378000D02*
D03*
X327000Y359000D02*
D03*
X442000Y327000D02*
D03*
X422000D02*
D03*
X432000D02*
D03*
X533000Y437000D02*
D03*
X423000Y400000D02*
D03*
X442000Y385000D02*
D03*
X447000Y389000D02*
D03*
X806000Y387000D02*
D03*
X254000Y392000D02*
D03*
X289000Y418000D02*
D03*
X240000Y408000D02*
D03*
X236000Y426000D02*
D03*
X240000Y420000D02*
D03*
X236000Y414000D02*
D03*
X293000Y436000D02*
D03*
X316000Y386000D02*
D03*
X304000Y387000D02*
D03*
X257000Y371000D02*
D03*
X329000Y414000D02*
D03*
X326000Y447000D02*
D03*
X405000Y384000D02*
D03*
X394000Y371000D02*
D03*
Y384000D02*
D03*
X623000Y317000D02*
D03*
X629000Y323000D02*
D03*
X623000Y336000D02*
D03*
X499000Y356000D02*
D03*
X414000Y373000D02*
D03*
X419000Y368000D02*
D03*
X414000Y363000D02*
D03*
X419000Y358000D02*
D03*
X493000Y399000D02*
D03*
X488000Y404000D02*
D03*
X468000Y345000D02*
D03*
X458000Y327000D02*
D03*
X481000Y404000D02*
D03*
X556000Y396000D02*
D03*
X342000Y451000D02*
D03*
X507000Y462000D02*
D03*
X527000Y460000D02*
D03*
Y466000D02*
D03*
X481000Y454000D02*
D03*
X479000Y494000D02*
D03*
X462000Y462000D02*
D03*
X434000Y488000D02*
D03*
X464000Y449000D02*
D03*
X317000Y411000D02*
D03*
X399000Y425000D02*
D03*
X407000Y462000D02*
D03*
X402000Y457000D02*
D03*
X480000Y419000D02*
D03*
X348000Y414000D02*
D03*
Y404000D02*
D03*
X342000Y399000D02*
D03*
X348000Y394000D02*
D03*
X343000Y359000D02*
D03*
X342000Y389000D02*
D03*
Y379000D02*
D03*
X348000Y384000D02*
D03*
Y354000D02*
D03*
Y364000D02*
D03*
Y374000D02*
D03*
X209000Y335000D02*
D03*
X235000Y402000D02*
D03*
X649000Y352000D02*
D03*
X643000Y359000D02*
D03*
X646000Y315000D02*
D03*
X626000Y373000D02*
D03*
X806000Y337000D02*
D03*
Y426000D02*
D03*
X806000Y400000D02*
D03*
X577000Y451000D02*
D03*
X570000Y448000D02*
D03*
X722000Y425000D02*
D03*
X671000Y329000D02*
D03*
X656000Y373000D02*
D03*
X671000Y348000D02*
D03*
Y363000D02*
D03*
X724000Y349000D02*
D03*
D127*
X781000Y333000D02*
D03*
X842000Y411000D02*
D03*
X878000Y371000D02*
D03*
X891000Y356000D02*
D03*
X891000Y399000D02*
D03*
M02*
