G04*
G04 #@! TF.GenerationSoftware,Altium Limited,Altium Designer,18.1.7 (191)*
G04*
G04 Layer_Color=255*
%FSLAX44Y44*%
%MOMM*%
G71*
G01*
G75*
%ADD21R,1.1500X0.6000*%
%ADD22R,1.1500X0.3000*%
%ADD114O,1.5240X1.1000*%
%ADD115R,1.5000X1.1000*%
%ADD116O,1.5000X1.1000*%
%ADD117R,2.0000X1.2000*%
%ADD118R,2.3000X1.2000*%
%ADD119C,1.3980*%
%ADD120C,2.3550*%
%ADD121C,3.2500*%
%ADD122R,1.3980X1.3980*%
%ADD123C,1.1520*%
%ADD124R,1.2000X2.0000*%
%ADD125R,1.2000X2.3000*%
%ADD128R,3.0000X0.3500*%
D21*
X1012030Y426000D02*
D03*
Y418500D02*
D03*
X1012000Y371500D02*
D03*
X1012030Y364000D02*
D03*
D22*
Y412500D02*
D03*
Y407500D02*
D03*
Y402500D02*
D03*
Y397500D02*
D03*
X1012000Y392500D02*
D03*
X1012030Y387500D02*
D03*
Y382500D02*
D03*
Y377500D02*
D03*
D114*
X435400Y297000D02*
D03*
D115*
X892600D02*
D03*
D116*
X867200D02*
D03*
X841800D02*
D03*
X816400D02*
D03*
X791000D02*
D03*
X460800D02*
D03*
X765600D02*
D03*
D117*
X1015830Y351800D02*
D03*
Y438300D02*
D03*
Y438200D02*
D03*
Y351700D02*
D03*
D118*
X1054430Y351800D02*
D03*
Y438300D02*
D03*
Y438200D02*
D03*
Y351700D02*
D03*
D119*
X928700Y440500D02*
D03*
Y463400D02*
D03*
Y349100D02*
D03*
Y326200D02*
D03*
X977000Y359200D02*
D03*
X994800Y369400D02*
D03*
X977000Y379600D02*
D03*
X994800Y389800D02*
D03*
X977000Y400000D02*
D03*
X994800Y410200D02*
D03*
X977000Y420400D02*
D03*
D120*
X985900Y476100D02*
D03*
Y313500D02*
D03*
D121*
X1020200Y458300D02*
D03*
Y331300D02*
D03*
D122*
X994800Y430600D02*
D03*
D123*
X1040000Y299000D02*
D03*
Y489000D02*
D03*
X340000Y439000D02*
D03*
X1050000Y315000D02*
D03*
Y470000D02*
D03*
D124*
X630500Y441400D02*
D03*
X544000D02*
D03*
D125*
X630500Y480000D02*
D03*
X544000D02*
D03*
D128*
X184750Y325000D02*
D03*
Y460000D02*
D03*
Y455000D02*
D03*
Y450000D02*
D03*
Y445000D02*
D03*
Y485250D02*
D03*
Y465250D02*
D03*
Y475250D02*
D03*
Y470250D02*
D03*
Y480250D02*
D03*
Y440000D02*
D03*
Y430000D02*
D03*
Y410000D02*
D03*
Y390000D02*
D03*
Y370000D02*
D03*
Y350000D02*
D03*
Y310000D02*
D03*
Y435000D02*
D03*
Y415000D02*
D03*
Y425000D02*
D03*
Y420000D02*
D03*
Y395000D02*
D03*
Y405000D02*
D03*
Y400000D02*
D03*
Y375000D02*
D03*
Y385000D02*
D03*
Y380000D02*
D03*
Y355000D02*
D03*
Y365000D02*
D03*
Y360000D02*
D03*
Y315000D02*
D03*
Y320000D02*
D03*
Y305000D02*
D03*
M02*
