G04*
G04 #@! TF.GenerationSoftware,Altium Limited,Altium Designer,18.1.7 (191)*
G04*
G04 Layer_Color=255*
%FSLAX44Y44*%
%MOMM*%
G71*
G01*
G75*
%ADD15R,0.9800X0.9300*%
%ADD16R,0.6000X0.6000*%
%ADD17R,0.6000X0.6000*%
%ADD18R,0.6000X0.2000*%
%ADD19R,1.5000X1.3000*%
%ADD20R,1.4000X1.2000*%
%ADD21R,2.4000X1.7000*%
G04:AMPARAMS|DCode=22|XSize=0.3mm|YSize=0.8mm|CornerRadius=0.075mm|HoleSize=0mm|Usage=FLASHONLY|Rotation=270.000|XOffset=0mm|YOffset=0mm|HoleType=Round|Shape=RoundedRectangle|*
%AMROUNDEDRECTD22*
21,1,0.3000,0.6500,0,0,270.0*
21,1,0.1500,0.8000,0,0,270.0*
1,1,0.1500,-0.3250,-0.0750*
1,1,0.1500,-0.3250,0.0750*
1,1,0.1500,0.3250,0.0750*
1,1,0.1500,0.3250,-0.0750*
%
%ADD22ROUNDEDRECTD22*%
G04:AMPARAMS|DCode=23|XSize=0.3mm|YSize=0.8mm|CornerRadius=0.075mm|HoleSize=0mm|Usage=FLASHONLY|Rotation=0.000|XOffset=0mm|YOffset=0mm|HoleType=Round|Shape=RoundedRectangle|*
%AMROUNDEDRECTD23*
21,1,0.3000,0.6500,0,0,0.0*
21,1,0.1500,0.8000,0,0,0.0*
1,1,0.1500,0.0750,-0.3250*
1,1,0.1500,-0.0750,-0.3250*
1,1,0.1500,-0.0750,0.3250*
1,1,0.1500,0.0750,0.3250*
%
%ADD23ROUNDEDRECTD23*%
%ADD24R,0.2800X0.2800*%
%ADD25O,0.2800X0.6600*%
%ADD26O,0.6600X0.2800*%
%ADD27R,1.2500X1.2500*%
%ADD28R,1.7000X0.9000*%
%ADD29R,2.5000X0.9000*%
%ADD30R,2.6000X1.7000*%
%ADD31R,1.6700X0.7600*%
%ADD32R,0.7000X1.1000*%
%ADD33R,0.8000X0.8000*%
%ADD34R,0.5500X0.8000*%
%ADD35R,0.9300X0.9800*%
%ADD36R,0.6000X1.1500*%
%ADD37R,0.3000X1.1500*%
%ADD38R,2.2500X0.3500*%
%ADD39R,0.2000X0.6000*%
%ADD40R,0.4500X1.0000*%
%ADD41R,1.5000X1.2000*%
%ADD42R,1.3000X1.5000*%
%ADD125C,1.1520*%
%ADD126C,1.5080*%
%ADD127R,1.5080X1.5080*%
%ADD128C,1.3980*%
%ADD129C,2.3550*%
%ADD130C,3.2500*%
%ADD131R,1.3980X1.3980*%
%ADD132R,1.2000X2.0000*%
%ADD133R,1.2000X2.3000*%
D15*
X545000Y379300D02*
D03*
Y394700D02*
D03*
D16*
X553000Y309080D02*
D03*
Y298920D02*
D03*
X496000Y396080D02*
D03*
Y385920D02*
D03*
X658000Y472920D02*
D03*
Y483080D02*
D03*
X646000Y472920D02*
D03*
Y483080D02*
D03*
X658000Y449080D02*
D03*
Y438920D02*
D03*
X646000Y449080D02*
D03*
Y438920D02*
D03*
X837000Y345080D02*
D03*
Y334920D02*
D03*
Y314920D02*
D03*
Y325080D02*
D03*
X578000Y327920D02*
D03*
Y338080D02*
D03*
X689000Y367920D02*
D03*
Y378080D02*
D03*
X527000Y436920D02*
D03*
Y447080D02*
D03*
X460000Y301920D02*
D03*
Y312080D02*
D03*
X334000Y381920D02*
D03*
Y392080D02*
D03*
X493000Y447080D02*
D03*
Y436920D02*
D03*
X282000Y413920D02*
D03*
Y424080D02*
D03*
X504000Y447080D02*
D03*
Y436920D02*
D03*
X554000Y347920D02*
D03*
Y358080D02*
D03*
X604000Y395920D02*
D03*
Y406080D02*
D03*
X615000Y395920D02*
D03*
Y406080D02*
D03*
X626000D02*
D03*
Y395920D02*
D03*
X640000D02*
D03*
Y406080D02*
D03*
X654000Y395920D02*
D03*
Y406080D02*
D03*
X668000Y396000D02*
D03*
Y406160D02*
D03*
X689000Y346920D02*
D03*
Y357080D02*
D03*
X437000Y312000D02*
D03*
Y301840D02*
D03*
X482000Y436920D02*
D03*
Y447080D02*
D03*
X334000Y359920D02*
D03*
Y370080D02*
D03*
X448000Y312080D02*
D03*
Y301920D02*
D03*
D17*
X578080Y308000D02*
D03*
X567920D02*
D03*
X850920Y345000D02*
D03*
X861080D02*
D03*
X850920Y373000D02*
D03*
X861080D02*
D03*
X703920Y322000D02*
D03*
X714080D02*
D03*
X703920Y332000D02*
D03*
X714080D02*
D03*
X724920Y302000D02*
D03*
X735080D02*
D03*
X703920Y302000D02*
D03*
X714080D02*
D03*
X703920Y378000D02*
D03*
X714080D02*
D03*
X703920Y403000D02*
D03*
X714080D02*
D03*
X703920Y363000D02*
D03*
X714080D02*
D03*
X578080Y298000D02*
D03*
X567920D02*
D03*
X578080Y318000D02*
D03*
X567920D02*
D03*
Y369000D02*
D03*
X578080D02*
D03*
X567920Y360000D02*
D03*
X578080D02*
D03*
X531080Y378000D02*
D03*
X520920D02*
D03*
X421080Y302000D02*
D03*
X410920D02*
D03*
X281920Y449000D02*
D03*
X292080D02*
D03*
X281920Y437000D02*
D03*
X292080D02*
D03*
X495920Y407000D02*
D03*
X506080D02*
D03*
X703920Y353000D02*
D03*
X714080D02*
D03*
X714080Y312000D02*
D03*
X703920D02*
D03*
X714080Y342000D02*
D03*
X703920D02*
D03*
X714080Y388000D02*
D03*
X703920D02*
D03*
X564080Y328000D02*
D03*
X553920D02*
D03*
X564080Y338000D02*
D03*
X553920D02*
D03*
X578080Y348000D02*
D03*
X567920D02*
D03*
X502080Y302000D02*
D03*
X491920D02*
D03*
X315080Y437000D02*
D03*
X304920D02*
D03*
X312080Y353000D02*
D03*
X301920D02*
D03*
X315080Y425000D02*
D03*
X304920D02*
D03*
X470920Y302000D02*
D03*
X481080D02*
D03*
X361080Y451000D02*
D03*
X350920D02*
D03*
X472080Y470000D02*
D03*
X461920D02*
D03*
D18*
X615000Y413000D02*
D03*
Y417000D02*
D03*
D19*
X900000Y453500D02*
D03*
Y472500D02*
D03*
X878000Y453500D02*
D03*
Y472500D02*
D03*
D20*
X586000Y387000D02*
D03*
Y404000D02*
D03*
X564000D02*
D03*
Y387000D02*
D03*
D21*
X310600Y407500D02*
D03*
Y370500D02*
D03*
D22*
X675750Y313500D02*
D03*
X675750Y318500D02*
D03*
X675750Y323500D02*
D03*
X675750Y328500D02*
D03*
Y333500D02*
D03*
Y338500D02*
D03*
Y343500D02*
D03*
Y348500D02*
D03*
X675750Y353500D02*
D03*
X675750Y358500D02*
D03*
Y363500D02*
D03*
Y368500D02*
D03*
X592250Y313500D02*
D03*
Y318500D02*
D03*
Y323500D02*
D03*
Y328500D02*
D03*
Y333500D02*
D03*
Y338500D02*
D03*
Y343500D02*
D03*
Y348500D02*
D03*
Y353500D02*
D03*
Y358500D02*
D03*
Y363500D02*
D03*
Y368500D02*
D03*
X372250Y419500D02*
D03*
X372250Y414500D02*
D03*
X372250Y409500D02*
D03*
X372250Y404500D02*
D03*
Y399500D02*
D03*
Y394500D02*
D03*
Y389500D02*
D03*
Y384500D02*
D03*
X372250Y379500D02*
D03*
X372250Y374500D02*
D03*
Y369500D02*
D03*
Y364500D02*
D03*
X455750Y419500D02*
D03*
Y414500D02*
D03*
Y409500D02*
D03*
Y404500D02*
D03*
Y399500D02*
D03*
Y394500D02*
D03*
Y389500D02*
D03*
Y384500D02*
D03*
Y379500D02*
D03*
Y374500D02*
D03*
Y369500D02*
D03*
Y364500D02*
D03*
X471500Y354000D02*
D03*
Y359000D02*
D03*
Y364000D02*
D03*
Y369000D02*
D03*
Y374000D02*
D03*
Y379000D02*
D03*
Y384000D02*
D03*
Y389000D02*
D03*
Y394000D02*
D03*
Y399000D02*
D03*
Y404000D02*
D03*
Y409000D02*
D03*
Y414000D02*
D03*
Y419000D02*
D03*
Y424000D02*
D03*
Y429000D02*
D03*
X357080Y354000D02*
D03*
Y359000D02*
D03*
Y364000D02*
D03*
Y369000D02*
D03*
Y374000D02*
D03*
Y379000D02*
D03*
Y384000D02*
D03*
Y389000D02*
D03*
Y394000D02*
D03*
Y399000D02*
D03*
Y404000D02*
D03*
Y409000D02*
D03*
Y414000D02*
D03*
Y419000D02*
D03*
Y424000D02*
D03*
Y429000D02*
D03*
D23*
X661500Y382750D02*
D03*
X656500D02*
D03*
X651500D02*
D03*
X646500D02*
D03*
X641500D02*
D03*
X636500D02*
D03*
X631500D02*
D03*
X626500D02*
D03*
X621500D02*
D03*
X616500D02*
D03*
X611500D02*
D03*
X606500D02*
D03*
X661500Y299250D02*
D03*
X656500D02*
D03*
X651500D02*
D03*
X646500D02*
D03*
X641500D02*
D03*
X636500D02*
D03*
X631500D02*
D03*
X626500D02*
D03*
X621500D02*
D03*
X616500D02*
D03*
X611500D02*
D03*
X606500D02*
D03*
X386500Y350250D02*
D03*
X391500D02*
D03*
X396500D02*
D03*
X401500D02*
D03*
X406500D02*
D03*
X411500D02*
D03*
X416500D02*
D03*
X421500D02*
D03*
X426500D02*
D03*
X431500D02*
D03*
X436500D02*
D03*
X441500D02*
D03*
X386500Y433750D02*
D03*
X391500D02*
D03*
X396500D02*
D03*
X401500D02*
D03*
X406500D02*
D03*
X411500D02*
D03*
X416500D02*
D03*
X421500D02*
D03*
X426500D02*
D03*
X431500D02*
D03*
X436500D02*
D03*
X441500D02*
D03*
X452000Y448500D02*
D03*
X447000D02*
D03*
X442000D02*
D03*
X437000D02*
D03*
X432000D02*
D03*
X427000D02*
D03*
X422000D02*
D03*
X417000D02*
D03*
X412000D02*
D03*
X407000D02*
D03*
X402000D02*
D03*
X397000D02*
D03*
X392000D02*
D03*
X387000D02*
D03*
X382000D02*
D03*
X377000D02*
D03*
X452000Y334500D02*
D03*
X447000D02*
D03*
X442000D02*
D03*
X437000D02*
D03*
X432000D02*
D03*
X427000D02*
D03*
X422000D02*
D03*
X417000D02*
D03*
X412000D02*
D03*
X407000D02*
D03*
X402000D02*
D03*
X397000D02*
D03*
X392000D02*
D03*
X387000D02*
D03*
X382000D02*
D03*
X377000D02*
D03*
D24*
X492350Y311810D02*
D03*
X487350D02*
D03*
X482350D02*
D03*
X477350D02*
D03*
X469700Y321746D02*
D03*
Y326746D02*
D03*
Y331746D02*
D03*
X477350Y342110D02*
D03*
X482350D02*
D03*
X487350D02*
D03*
X492350D02*
D03*
X500000Y332000D02*
D03*
Y327000D02*
D03*
Y322000D02*
D03*
D25*
X492350Y313710D02*
D03*
X487350D02*
D03*
X482350D02*
D03*
X477350D02*
D03*
Y340210D02*
D03*
X482350D02*
D03*
X487350D02*
D03*
X492350D02*
D03*
D26*
X471600Y321746D02*
D03*
Y326746D02*
D03*
Y331746D02*
D03*
X498100Y332000D02*
D03*
Y327000D02*
D03*
Y322000D02*
D03*
D27*
X484850Y326960D02*
D03*
D28*
X492000Y494000D02*
D03*
Y463000D02*
D03*
D29*
X496000Y478000D02*
D03*
D30*
X518000D02*
D03*
D31*
X735350Y403450D02*
D03*
Y390750D02*
D03*
Y378050D02*
D03*
Y365350D02*
D03*
Y352650D02*
D03*
Y339950D02*
D03*
Y327250D02*
D03*
Y314550D02*
D03*
X820650D02*
D03*
Y327250D02*
D03*
Y339950D02*
D03*
Y352650D02*
D03*
Y365350D02*
D03*
Y378050D02*
D03*
Y390750D02*
D03*
Y403450D02*
D03*
D32*
X280500Y337500D02*
D03*
Y396500D02*
D03*
X243500D02*
D03*
Y337500D02*
D03*
D33*
X269300Y441000D02*
D03*
X255300D02*
D03*
X269300Y428000D02*
D03*
X255300D02*
D03*
X269300Y415000D02*
D03*
X255300D02*
D03*
D34*
X527000Y365500D02*
D03*
X536500Y342500D02*
D03*
X517500D02*
D03*
X527000Y303500D02*
D03*
X517500Y326500D02*
D03*
X536500D02*
D03*
D35*
X342300Y335000D02*
D03*
X357700D02*
D03*
D36*
X619000Y438030D02*
D03*
X611500D02*
D03*
X564500Y438000D02*
D03*
X557000Y438030D02*
D03*
D37*
X605500D02*
D03*
X600500D02*
D03*
X595500D02*
D03*
X590500D02*
D03*
X585500Y438000D02*
D03*
X580500Y438030D02*
D03*
X575500D02*
D03*
X570500D02*
D03*
D38*
X181000Y457500D02*
D03*
Y452500D02*
D03*
Y447500D02*
D03*
Y442500D02*
D03*
Y302500D02*
D03*
Y307500D02*
D03*
Y312500D02*
D03*
Y317500D02*
D03*
Y322500D02*
D03*
Y327500D02*
D03*
Y352500D02*
D03*
Y357500D02*
D03*
Y362500D02*
D03*
Y367500D02*
D03*
Y372500D02*
D03*
Y377500D02*
D03*
Y382500D02*
D03*
Y387500D02*
D03*
Y392500D02*
D03*
Y397500D02*
D03*
Y402500D02*
D03*
Y407500D02*
D03*
Y412500D02*
D03*
Y417500D02*
D03*
Y422500D02*
D03*
Y427500D02*
D03*
Y432500D02*
D03*
Y437500D02*
D03*
Y462500D02*
D03*
Y487500D02*
D03*
Y482500D02*
D03*
Y477500D02*
D03*
Y472500D02*
D03*
Y467500D02*
D03*
D39*
X613000Y317000D02*
D03*
X609000D02*
D03*
X605000Y323000D02*
D03*
X601000D02*
D03*
X613000Y330000D02*
D03*
X609000D02*
D03*
D40*
X900000Y359000D02*
D03*
Y337000D02*
D03*
X877000Y359000D02*
D03*
Y337000D02*
D03*
X900000Y323000D02*
D03*
Y301000D02*
D03*
X877000Y323000D02*
D03*
Y301000D02*
D03*
X900000Y411000D02*
D03*
Y433000D02*
D03*
X877000Y411000D02*
D03*
Y433000D02*
D03*
X900000Y375000D02*
D03*
Y397000D02*
D03*
X877000Y375000D02*
D03*
Y397000D02*
D03*
D41*
X856000Y413954D02*
D03*
Y386046D02*
D03*
X855000Y304046D02*
D03*
Y331954D02*
D03*
D42*
X448500Y492000D02*
D03*
X467500D02*
D03*
D125*
X1050000Y315000D02*
D03*
X340000Y439000D02*
D03*
X1050000Y470000D02*
D03*
D126*
X688800Y442680D02*
D03*
X739600D02*
D03*
X815800D02*
D03*
D127*
X841200D02*
D03*
D128*
X928700Y440500D02*
D03*
Y463400D02*
D03*
Y349100D02*
D03*
Y326200D02*
D03*
X977000Y359200D02*
D03*
X994800Y369400D02*
D03*
X977000Y379600D02*
D03*
X994800Y389800D02*
D03*
X977000Y400000D02*
D03*
X994800Y410200D02*
D03*
X977000Y420400D02*
D03*
D129*
X985900Y476100D02*
D03*
Y313500D02*
D03*
D130*
X1020200Y458300D02*
D03*
Y331300D02*
D03*
D131*
X994800Y430600D02*
D03*
D132*
X631200Y441830D02*
D03*
X544700D02*
D03*
D133*
X631200Y480430D02*
D03*
X544700D02*
D03*
M02*
