G04*
G04 #@! TF.GenerationSoftware,Altium Limited,Altium Designer,18.1.7 (191)*
G04*
G04 Layer_Physical_Order=1*
G04 Layer_Color=255*
%FSLAX44Y44*%
%MOMM*%
G71*
G01*
G75*
%ADD11C,0.2000*%
%ADD14R,1.5500X0.3000*%
%ADD15R,2.7500X1.2000*%
%ADD16R,1.5000X1.2000*%
%ADD17R,0.6000X0.6000*%
%ADD18O,1.7000X0.6500*%
%ADD19R,1.7000X0.6500*%
%ADD20R,0.6000X0.6000*%
%ADD21R,0.5500X0.8000*%
%ADD33O,3.0160X1.5080*%
%ADD34C,6.0000*%
%ADD35C,0.5080*%
G36*
X1925000Y1438174D02*
Y1432580D01*
X1925000D01*
Y1432420D01*
X1925000D01*
Y1422420D01*
X1926941D01*
Y1418416D01*
X1926727Y1418273D01*
X1925723Y1416771D01*
X1925371Y1415000D01*
X1925723Y1413229D01*
X1926727Y1411727D01*
X1926941Y1411584D01*
Y1409192D01*
X1925702Y1408945D01*
X1923965Y1407785D01*
X1922805Y1406048D01*
X1922707Y1405559D01*
X1903767D01*
X1892163Y1417163D01*
X1891171Y1417826D01*
X1890000Y1418059D01*
X1890000Y1418059D01*
X1842500D01*
X1842500Y1418059D01*
X1841329Y1417826D01*
X1840337Y1417163D01*
X1833733Y1410559D01*
X1829750D01*
Y1424000D01*
Y1432399D01*
X1831020Y1432785D01*
X1831727Y1431727D01*
X1833229Y1430723D01*
X1835000Y1430371D01*
X1836771Y1430723D01*
X1838273Y1431727D01*
X1838470Y1432021D01*
X1874460D01*
Y1428690D01*
X1880000D01*
X1885540D01*
Y1432960D01*
X1885000D01*
Y1438254D01*
X1886187Y1439441D01*
X1890750D01*
Y1438000D01*
X1900250D01*
Y1439441D01*
X1909750D01*
Y1438000D01*
X1919250D01*
Y1439441D01*
X1923733D01*
X1925000Y1438174D01*
D02*
G37*
G36*
X2170000Y1230000D02*
X1827250D01*
Y1244000D01*
X1829750D01*
Y1249000D01*
Y1259000D01*
Y1269000D01*
Y1279000D01*
Y1289000D01*
Y1299000D01*
Y1309000D01*
Y1319000D01*
Y1329000D01*
Y1339000D01*
Y1349441D01*
X1886584D01*
X1886727Y1349227D01*
X1888229Y1348223D01*
X1888100Y1346954D01*
X1875500D01*
Y1330954D01*
X1894500D01*
Y1330954D01*
X1895500D01*
Y1330954D01*
X1914500D01*
Y1330954D01*
X1915500D01*
Y1330954D01*
X1934500D01*
Y1336941D01*
X1936584D01*
X1936727Y1336727D01*
X1936941Y1336584D01*
Y1301267D01*
X1932837Y1297163D01*
X1932174Y1296171D01*
X1931941Y1295000D01*
X1931941Y1295000D01*
Y1291853D01*
X1927750D01*
X1925702Y1291445D01*
X1923965Y1290285D01*
X1922805Y1288548D01*
X1922397Y1286500D01*
X1922805Y1284452D01*
X1923965Y1282715D01*
X1925702Y1281555D01*
X1927750Y1281147D01*
X1938250D01*
X1940298Y1281555D01*
X1940997Y1282021D01*
X1945000D01*
Y1280460D01*
X1944460D01*
Y1276000D01*
X1943195Y1275848D01*
X1942035Y1277585D01*
X1940298Y1278745D01*
X1938250Y1279153D01*
X1927750D01*
X1925702Y1278745D01*
X1923965Y1277585D01*
X1922805Y1275848D01*
X1922397Y1273800D01*
X1922805Y1271752D01*
X1923965Y1270015D01*
X1925702Y1268855D01*
X1927750Y1268447D01*
X1929941D01*
Y1266453D01*
X1927750D01*
X1925702Y1266045D01*
X1923965Y1264885D01*
X1922805Y1263148D01*
X1922397Y1261100D01*
X1922805Y1259052D01*
X1923965Y1257315D01*
X1925702Y1256155D01*
X1927750Y1255747D01*
X1938250D01*
X1940298Y1256155D01*
X1941595Y1257021D01*
X1945000D01*
Y1255080D01*
X1945000D01*
Y1254920D01*
X1945000D01*
Y1244920D01*
X1946941D01*
Y1243059D01*
X1941992D01*
X1941607Y1244329D01*
X1942035Y1244615D01*
X1943195Y1246352D01*
X1943603Y1248400D01*
X1943195Y1250449D01*
X1942035Y1252185D01*
X1940298Y1253345D01*
X1938250Y1253753D01*
X1927750D01*
X1925702Y1253345D01*
X1923989Y1252201D01*
X1923273Y1253273D01*
X1921771Y1254277D01*
X1920000Y1254629D01*
X1918229Y1254277D01*
X1916727Y1253273D01*
X1915723Y1251771D01*
X1915371Y1250000D01*
X1915723Y1248229D01*
X1916727Y1246727D01*
X1918229Y1245723D01*
X1920000Y1245371D01*
X1920725Y1245515D01*
X1921600Y1245341D01*
X1921600Y1245341D01*
X1923480D01*
X1923965Y1244615D01*
X1924393Y1244329D01*
X1924008Y1243059D01*
X1916267D01*
X1908059Y1251267D01*
Y1266584D01*
X1908273Y1266727D01*
X1909277Y1268229D01*
X1909629Y1270000D01*
X1909277Y1271771D01*
X1908273Y1273273D01*
X1906771Y1274277D01*
X1905000Y1274629D01*
X1903229Y1274277D01*
X1901727Y1273273D01*
X1900723Y1271771D01*
X1900371Y1270000D01*
X1900723Y1268229D01*
X1901727Y1266727D01*
X1901941Y1266584D01*
Y1250000D01*
X1901941Y1250000D01*
X1902174Y1248829D01*
X1902837Y1247837D01*
X1912837Y1237837D01*
X1912837Y1237837D01*
X1913829Y1237174D01*
X1915000Y1236941D01*
X1950000D01*
X1951171Y1237174D01*
X1952163Y1237837D01*
X1952826Y1238829D01*
X1953059Y1240000D01*
Y1244022D01*
X1953957Y1244920D01*
X1955000Y1244920D01*
Y1244920D01*
X1955000D01*
Y1244920D01*
X1965000D01*
Y1254540D01*
X1965540D01*
Y1258810D01*
X1960000D01*
Y1260080D01*
X1958730D01*
Y1265620D01*
X1954460D01*
Y1265080D01*
X1945000D01*
Y1263139D01*
X1943197D01*
X1943195Y1263148D01*
X1942035Y1264885D01*
X1940298Y1266045D01*
X1938250Y1266453D01*
X1936059D01*
Y1268447D01*
X1938250D01*
X1940298Y1268855D01*
X1942035Y1270015D01*
X1943195Y1271752D01*
X1944460Y1271600D01*
Y1269380D01*
X1948730D01*
Y1274920D01*
X1950000D01*
Y1276190D01*
X1955540D01*
Y1280460D01*
X1955000D01*
Y1290080D01*
X1945000D01*
Y1288139D01*
X1943277D01*
X1943195Y1288548D01*
X1942035Y1290285D01*
X1940298Y1291445D01*
X1938250Y1291853D01*
X1938059D01*
Y1293733D01*
X1942163Y1297837D01*
X1942163Y1297837D01*
X1942826Y1298829D01*
X1943059Y1300000D01*
Y1336584D01*
X1943273Y1336727D01*
X1944277Y1338229D01*
X1944629Y1340000D01*
X1944277Y1341771D01*
X1943273Y1343273D01*
X1941771Y1344277D01*
X1940000Y1344629D01*
X1938229Y1344277D01*
X1936727Y1343273D01*
X1936584Y1343059D01*
X1934500D01*
Y1346954D01*
X1915500D01*
Y1346954D01*
X1914500D01*
Y1346954D01*
X1895500D01*
Y1346954D01*
X1894500D01*
Y1346954D01*
X1891900D01*
X1891772Y1348223D01*
X1893273Y1349227D01*
X1894277Y1350729D01*
X1894629Y1352500D01*
X1894277Y1354271D01*
X1894462Y1355203D01*
X1894663Y1355337D01*
X1901267Y1361941D01*
X1924225D01*
X1925702Y1360955D01*
X1927750Y1360547D01*
X1938250D01*
X1940298Y1360955D01*
X1942035Y1362115D01*
X1943195Y1363852D01*
X1943603Y1365900D01*
X1943195Y1367948D01*
X1942035Y1369685D01*
X1940298Y1370845D01*
X1938250Y1371253D01*
X1927750D01*
X1925702Y1370845D01*
X1923965Y1369685D01*
X1922878Y1368059D01*
X1900000D01*
X1900000Y1368059D01*
X1898829Y1367826D01*
X1897837Y1367163D01*
X1891233Y1360559D01*
X1886790D01*
X1886493Y1361829D01*
X1887704Y1363641D01*
X1887901Y1364630D01*
X1877000D01*
Y1365900D01*
X1875730D01*
Y1371803D01*
X1871750D01*
X1869491Y1371354D01*
X1867576Y1370074D01*
X1866810Y1368929D01*
X1865540Y1369314D01*
Y1370460D01*
X1865000D01*
Y1380080D01*
X1863059D01*
Y1381941D01*
X1865000D01*
X1865000Y1381941D01*
X1866171Y1382174D01*
X1866398Y1382326D01*
X1867314Y1381411D01*
X1866805Y1380648D01*
X1866397Y1378600D01*
X1866805Y1376552D01*
X1867965Y1374815D01*
X1869702Y1373655D01*
X1871750Y1373247D01*
X1882250D01*
X1884298Y1373655D01*
X1885186Y1374247D01*
X1886727Y1374227D01*
X1888229Y1373223D01*
X1890000Y1372871D01*
X1891771Y1373223D01*
X1893273Y1374227D01*
X1894277Y1375729D01*
X1894629Y1377500D01*
X1894277Y1379271D01*
X1893273Y1380773D01*
X1891771Y1381777D01*
X1890000Y1382129D01*
X1888229Y1381777D01*
X1888052Y1381659D01*
X1886520D01*
X1886035Y1382385D01*
X1884298Y1383545D01*
X1882250Y1383953D01*
X1871750D01*
X1869702Y1383545D01*
X1869598Y1383476D01*
X1868788Y1384463D01*
X1870518Y1386192D01*
X1871750Y1385947D01*
X1882250D01*
X1884298Y1386355D01*
X1886035Y1387515D01*
X1887195Y1389252D01*
X1887603Y1391300D01*
X1888779Y1391895D01*
X1897837Y1382837D01*
X1897837Y1382837D01*
X1898829Y1382174D01*
X1900000Y1381941D01*
X1922321D01*
X1922920Y1380821D01*
X1922805Y1380648D01*
X1922397Y1378600D01*
X1922805Y1376552D01*
X1923965Y1374815D01*
X1925702Y1373655D01*
X1927750Y1373247D01*
X1938250D01*
X1940298Y1373655D01*
X1942035Y1374815D01*
X1942520Y1375541D01*
X1943874D01*
X1944920Y1375000D01*
Y1365000D01*
X1954540D01*
Y1364460D01*
X1958810D01*
Y1370000D01*
X1960080D01*
Y1371270D01*
X1965620D01*
Y1375540D01*
X1965000D01*
Y1376861D01*
X1983813D01*
X1994441Y1366233D01*
Y1340122D01*
X1990460D01*
X1987970Y1339794D01*
X1985649Y1338833D01*
X1983656Y1337304D01*
X1982127Y1335311D01*
X1981166Y1332991D01*
X1980838Y1330500D01*
X1981166Y1328010D01*
X1982127Y1325689D01*
X1983656Y1323696D01*
X1985649Y1322167D01*
X1987970Y1321206D01*
X1990460Y1320878D01*
X2005540D01*
X2008031Y1321206D01*
X2010351Y1322167D01*
X2012344Y1323696D01*
X2013873Y1325689D01*
X2014834Y1328010D01*
X2015162Y1330500D01*
X2014834Y1332991D01*
X2013873Y1335311D01*
X2012344Y1337304D01*
X2010351Y1338833D01*
X2008031Y1339794D01*
X2005540Y1340122D01*
X2000559D01*
Y1367500D01*
X2000326Y1368671D01*
X1999663Y1369663D01*
X1999663Y1369663D01*
X1987243Y1382083D01*
X1986250Y1382746D01*
X1985080Y1382979D01*
X1985080Y1382979D01*
X1965898D01*
X1965000Y1383877D01*
X1965000Y1384920D01*
X1965000D01*
Y1385080D01*
X1965000D01*
Y1395080D01*
X1959326D01*
X1956119Y1398287D01*
X1956605Y1399460D01*
X1958810D01*
Y1405000D01*
Y1410540D01*
X1954540D01*
Y1410000D01*
X1944920D01*
Y1400559D01*
X1943612D01*
X1943013Y1401679D01*
X1943195Y1401952D01*
X1943603Y1404000D01*
X1943195Y1406048D01*
X1942035Y1407785D01*
X1940298Y1408945D01*
X1938250Y1409353D01*
X1933059D01*
Y1411584D01*
X1933273Y1411727D01*
X1934277Y1413229D01*
X1934629Y1415000D01*
X1934277Y1416771D01*
X1933273Y1418273D01*
X1933059Y1418416D01*
Y1422420D01*
X1935000D01*
Y1422420D01*
X1935000D01*
Y1422420D01*
X1945000D01*
Y1424361D01*
X1977420D01*
X1977420Y1424361D01*
X1978591Y1424594D01*
X1979583Y1425257D01*
X1986267Y1431941D01*
X2031608D01*
X2032127Y1430689D01*
X2033656Y1428696D01*
X2035649Y1427167D01*
X2037970Y1426206D01*
X2040460Y1425878D01*
X2055540D01*
X2058031Y1426206D01*
X2060351Y1427167D01*
X2062344Y1428696D01*
X2063873Y1430689D01*
X2064834Y1433010D01*
X2065162Y1435500D01*
X2064834Y1437991D01*
X2063873Y1440311D01*
X2062344Y1442304D01*
X2060351Y1443833D01*
X2058031Y1444794D01*
X2055540Y1445122D01*
X2040460D01*
X2037970Y1444794D01*
X2035649Y1443833D01*
X2033656Y1442304D01*
X2032127Y1440311D01*
X2031194Y1438059D01*
X1985000D01*
X1985000Y1438059D01*
X1983829Y1437826D01*
X1982837Y1437163D01*
X1982837Y1437163D01*
X1976153Y1430479D01*
X1945000D01*
Y1432040D01*
X1945540D01*
Y1436310D01*
X1940000D01*
Y1437580D01*
X1938730D01*
Y1443120D01*
X1934460D01*
Y1442580D01*
X1929246D01*
X1927163Y1444663D01*
X1926171Y1445326D01*
X1925000Y1445559D01*
X1925000Y1445559D01*
X1919250D01*
Y1450000D01*
X1909750D01*
Y1445559D01*
X1900250D01*
Y1450000D01*
X1890750D01*
Y1445559D01*
X1884920D01*
X1883750Y1445326D01*
X1882757Y1444663D01*
X1880674Y1442580D01*
X1875000D01*
Y1438139D01*
X1838363D01*
X1838273Y1438273D01*
X1836771Y1439277D01*
X1835000Y1439629D01*
X1833229Y1439277D01*
X1831727Y1438273D01*
X1830723Y1436771D01*
X1830716Y1436734D01*
X1829750Y1436000D01*
X1827250D01*
Y1450500D01*
X1795750D01*
Y1434500D01*
X1810250D01*
Y1424000D01*
Y1414000D01*
Y1404000D01*
X1817704D01*
X1818000Y1403941D01*
X1818296Y1404000D01*
X1829750D01*
Y1404441D01*
X1835000D01*
X1835000Y1404441D01*
X1836171Y1404674D01*
X1837163Y1405337D01*
X1843767Y1411941D01*
X1888733D01*
X1900337Y1400337D01*
X1900337Y1400337D01*
X1901329Y1399674D01*
X1902500Y1399441D01*
X1908456D01*
X1908942Y1398268D01*
X1907753Y1397079D01*
X1907500Y1397129D01*
X1905729Y1396777D01*
X1904227Y1395773D01*
X1903223Y1394271D01*
X1902871Y1392500D01*
X1903223Y1390729D01*
X1904159Y1389329D01*
X1904041Y1388823D01*
X1903689Y1388059D01*
X1901267D01*
X1887500Y1401826D01*
Y1409250D01*
X1866500D01*
Y1408059D01*
X1865000D01*
Y1410080D01*
X1855000D01*
X1855000Y1410080D01*
Y1410080D01*
X1845000D01*
Y1400080D01*
X1845000D01*
Y1399920D01*
X1845000D01*
Y1390317D01*
X1844802Y1390034D01*
X1843972Y1389336D01*
X1842500Y1389629D01*
X1840729Y1389277D01*
X1839227Y1388273D01*
X1838223Y1386771D01*
X1837871Y1385000D01*
X1837921Y1384747D01*
X1833733Y1380559D01*
X1829750D01*
Y1386000D01*
X1810250D01*
Y1374000D01*
Y1364000D01*
Y1354000D01*
Y1344000D01*
Y1334000D01*
Y1324000D01*
Y1314000D01*
Y1304000D01*
Y1294000D01*
Y1284000D01*
Y1274000D01*
Y1264000D01*
Y1254000D01*
Y1245500D01*
X1795750D01*
Y1230000D01*
X1772808D01*
X1772543Y1231265D01*
X1774632Y1232868D01*
X1776235Y1234957D01*
X1777243Y1237390D01*
X1777586Y1240000D01*
X1777243Y1242610D01*
X1776235Y1245043D01*
X1774632Y1247132D01*
X1772543Y1248735D01*
X1770110Y1249743D01*
X1767500Y1250086D01*
X1764890Y1249743D01*
X1762457Y1248735D01*
X1760368Y1247132D01*
X1758765Y1245043D01*
X1757757Y1242610D01*
X1757414Y1240000D01*
X1757757Y1237390D01*
X1758765Y1234957D01*
X1760368Y1232868D01*
X1762457Y1231265D01*
X1762192Y1230000D01*
X1325000D01*
X1325000Y1398164D01*
X1326192Y1398604D01*
X1327303Y1397303D01*
X1331133Y1394031D01*
X1335427Y1391400D01*
X1340081Y1389472D01*
X1344979Y1388296D01*
X1350000Y1387901D01*
X1355021Y1388296D01*
X1359919Y1389472D01*
X1364573Y1391400D01*
X1368867Y1394031D01*
X1372697Y1397303D01*
X1375969Y1401133D01*
X1378600Y1405427D01*
X1380528Y1410081D01*
X1381704Y1414979D01*
X1382099Y1420000D01*
X1381704Y1425021D01*
X1380528Y1429919D01*
X1378600Y1434573D01*
X1375969Y1438867D01*
X1372697Y1442697D01*
X1368867Y1445969D01*
X1364573Y1448600D01*
X1359919Y1450528D01*
X1356995Y1451230D01*
X1357145Y1452500D01*
X2170000Y1452500D01*
X2170000Y1230000D01*
D02*
G37*
%LPC*%
G36*
X1910290Y1427540D02*
X1906270D01*
Y1422270D01*
X1910290D01*
Y1427540D01*
D02*
G37*
G36*
X1903730D02*
X1899710D01*
Y1422270D01*
X1903730D01*
Y1427540D01*
D02*
G37*
G36*
X1885540Y1426150D02*
X1881270D01*
Y1421880D01*
X1885540D01*
Y1426150D01*
D02*
G37*
G36*
X1878730D02*
X1874460D01*
Y1421880D01*
X1878730D01*
Y1426150D01*
D02*
G37*
G36*
X1910290Y1419730D02*
X1906270D01*
Y1414460D01*
X1910290D01*
Y1419730D01*
D02*
G37*
G36*
X1903730D02*
X1899710D01*
Y1414460D01*
X1903730D01*
Y1419730D01*
D02*
G37*
G36*
X1945540Y1443120D02*
X1941270D01*
Y1438850D01*
X1945540D01*
Y1443120D01*
D02*
G37*
G36*
X1767500Y1447565D02*
X1765542Y1447307D01*
X1763718Y1446551D01*
X1762151Y1445349D01*
X1760949Y1443782D01*
X1760193Y1441958D01*
X1759935Y1440000D01*
X1760193Y1438042D01*
X1760949Y1436218D01*
X1762151Y1434651D01*
X1763718Y1433449D01*
X1765542Y1432693D01*
X1767500Y1432435D01*
X1769458Y1432693D01*
X1771282Y1433449D01*
X1772849Y1434651D01*
X1774051Y1436218D01*
X1774807Y1438042D01*
X1775065Y1440000D01*
X1774807Y1441958D01*
X1774051Y1443782D01*
X1772849Y1445349D01*
X1771282Y1446551D01*
X1769458Y1447307D01*
X1767500Y1447565D01*
D02*
G37*
G36*
X1755290Y1434040D02*
X1746270D01*
Y1431270D01*
X1755290D01*
Y1434040D01*
D02*
G37*
G36*
X1743730D02*
X1734710D01*
Y1431270D01*
X1743730D01*
Y1434040D01*
D02*
G37*
G36*
X1755290Y1428730D02*
X1745000D01*
X1734710D01*
Y1426270D01*
X1745000D01*
X1755290D01*
Y1428730D01*
D02*
G37*
G36*
Y1423730D02*
X1745000D01*
X1734710D01*
Y1421270D01*
X1745000D01*
X1755290D01*
Y1423730D01*
D02*
G37*
G36*
Y1418730D02*
X1745000D01*
X1734710D01*
Y1416270D01*
X1745000D01*
X1755290D01*
Y1418730D01*
D02*
G37*
G36*
Y1413730D02*
X1745000D01*
X1734710D01*
Y1411270D01*
X1745000D01*
X1755290D01*
Y1413730D01*
D02*
G37*
G36*
X1965620Y1410540D02*
X1961350D01*
Y1406270D01*
X1965620D01*
Y1410540D01*
D02*
G37*
G36*
X1755290Y1408730D02*
X1746270D01*
Y1405960D01*
X1755290D01*
Y1408730D01*
D02*
G37*
G36*
X1743730D02*
X1734710D01*
Y1405960D01*
X1743730D01*
Y1408730D01*
D02*
G37*
G36*
X1965620Y1403730D02*
X1961350D01*
Y1399460D01*
X1965620D01*
Y1403730D01*
D02*
G37*
G36*
X2005540Y1410122D02*
X1990460D01*
X1987970Y1409794D01*
X1985649Y1408833D01*
X1983656Y1407304D01*
X1982127Y1405311D01*
X1981166Y1402991D01*
X1980838Y1400500D01*
X1981166Y1398010D01*
X1982127Y1395689D01*
X1983656Y1393696D01*
X1985649Y1392167D01*
X1987970Y1391206D01*
X1990460Y1390878D01*
X2005540D01*
X2008031Y1391206D01*
X2010351Y1392167D01*
X2012344Y1393696D01*
X2013873Y1395689D01*
X2014834Y1398010D01*
X2015162Y1400500D01*
X2014834Y1402991D01*
X2013873Y1405311D01*
X2012344Y1407304D01*
X2010351Y1408833D01*
X2008031Y1409794D01*
X2005540Y1410122D01*
D02*
G37*
G36*
X1835000Y1399629D02*
X1833229Y1399277D01*
X1831727Y1398273D01*
X1831584Y1398059D01*
X1805000D01*
X1803829Y1397826D01*
X1802837Y1397163D01*
X1778733Y1373059D01*
X1754749D01*
Y1378500D01*
X1754747D01*
Y1388500D01*
X1735247D01*
Y1376500D01*
X1735249D01*
Y1373500D01*
X1735247D01*
Y1366500D01*
Y1356500D01*
X1735249D01*
Y1353500D01*
X1735247D01*
Y1346500D01*
X1735250D01*
Y1336500D01*
Y1326500D01*
Y1316500D01*
Y1306500D01*
Y1296500D01*
Y1286500D01*
Y1276500D01*
Y1266500D01*
Y1256500D01*
Y1246500D01*
X1754750D01*
Y1256500D01*
Y1266500D01*
Y1276500D01*
Y1286500D01*
Y1296500D01*
Y1306500D01*
Y1316500D01*
Y1326941D01*
X1763733D01*
X1785421Y1305253D01*
X1785371Y1305000D01*
X1785723Y1303229D01*
X1786727Y1301727D01*
X1788229Y1300723D01*
X1790000Y1300371D01*
X1791771Y1300723D01*
X1793273Y1301727D01*
X1794277Y1303229D01*
X1794629Y1305000D01*
X1794277Y1306771D01*
X1793273Y1308273D01*
X1791771Y1309277D01*
X1791389Y1309353D01*
Y1310647D01*
X1791771Y1310723D01*
X1793273Y1311727D01*
X1794277Y1313229D01*
X1794629Y1315000D01*
X1794277Y1316771D01*
X1793273Y1318273D01*
X1791771Y1319277D01*
X1790000Y1319629D01*
X1789747Y1319579D01*
X1772163Y1337163D01*
X1771171Y1337826D01*
X1770000Y1338059D01*
X1770000Y1338059D01*
X1754750D01*
Y1348500D01*
X1754747D01*
Y1351500D01*
X1754749D01*
Y1358500D01*
X1754747D01*
Y1366941D01*
X1780000D01*
X1780000Y1366941D01*
X1781171Y1367174D01*
X1782163Y1367837D01*
X1806267Y1391941D01*
X1831584D01*
X1831727Y1391727D01*
X1833229Y1390723D01*
X1835000Y1390371D01*
X1836771Y1390723D01*
X1838273Y1391727D01*
X1839277Y1393229D01*
X1839629Y1395000D01*
X1839277Y1396771D01*
X1838273Y1398273D01*
X1836771Y1399277D01*
X1835000Y1399629D01*
D02*
G37*
G36*
X1882250Y1371803D02*
X1878270D01*
Y1367170D01*
X1887901D01*
X1887704Y1368159D01*
X1886424Y1370074D01*
X1884509Y1371354D01*
X1882250Y1371803D01*
D02*
G37*
G36*
X1965620Y1368730D02*
X1961350D01*
Y1364460D01*
X1965620D01*
Y1368730D01*
D02*
G37*
G36*
X2055540Y1375122D02*
X2040460D01*
X2037970Y1374794D01*
X2035649Y1373833D01*
X2033656Y1372304D01*
X2032127Y1370311D01*
X2031166Y1367991D01*
X2030838Y1365500D01*
X2031166Y1363010D01*
X2032127Y1360689D01*
X2033656Y1358696D01*
X2035649Y1357167D01*
X2037970Y1356206D01*
X2040460Y1355878D01*
X2055540D01*
X2058031Y1356206D01*
X2060351Y1357167D01*
X2062344Y1358696D01*
X2063873Y1360689D01*
X2064834Y1363010D01*
X2065162Y1365500D01*
X2064834Y1367991D01*
X2063873Y1370311D01*
X2062344Y1372304D01*
X2060351Y1373833D01*
X2058031Y1374794D01*
X2055540Y1375122D01*
D02*
G37*
G36*
X1883730Y1319586D02*
X1874960D01*
Y1312316D01*
X1883730D01*
Y1319586D01*
D02*
G37*
G36*
X1935040D02*
X1926270D01*
Y1312316D01*
X1935040D01*
Y1319586D01*
D02*
G37*
G36*
Y1309776D02*
X1926270D01*
Y1302506D01*
X1935040D01*
Y1309776D01*
D02*
G37*
G36*
X1923730Y1319586D02*
X1906270D01*
Y1311046D01*
Y1302506D01*
X1923730D01*
Y1311046D01*
Y1319586D01*
D02*
G37*
G36*
X1903730D02*
X1886270D01*
Y1311046D01*
Y1302506D01*
X1903730D01*
Y1311046D01*
Y1319586D01*
D02*
G37*
G36*
X1883730Y1309776D02*
X1874960D01*
Y1302506D01*
X1883730D01*
Y1309776D01*
D02*
G37*
G36*
X1887500Y1291750D02*
X1866500D01*
Y1288059D01*
X1865000D01*
Y1290080D01*
X1855000D01*
Y1281190D01*
X1855000Y1280080D01*
X1855000Y1278957D01*
X1854528Y1278485D01*
X1853273Y1278273D01*
X1851771Y1279277D01*
X1850000Y1279629D01*
X1848229Y1279277D01*
X1846727Y1278273D01*
X1845723Y1276771D01*
X1845371Y1275000D01*
X1845723Y1273229D01*
X1846727Y1271727D01*
X1848229Y1270723D01*
X1850000Y1270371D01*
X1851771Y1270723D01*
X1853273Y1271727D01*
X1853416Y1271941D01*
X1855000D01*
Y1269920D01*
X1856941D01*
Y1265080D01*
X1855000D01*
Y1255460D01*
X1854460D01*
Y1251190D01*
X1860000D01*
Y1249920D01*
X1861270D01*
Y1244380D01*
X1865540D01*
Y1244986D01*
X1866810Y1245372D01*
X1867576Y1244226D01*
X1869491Y1242946D01*
X1871750Y1242497D01*
X1875730D01*
Y1248400D01*
Y1254304D01*
X1871750D01*
X1869491Y1253854D01*
X1867576Y1252574D01*
X1866810Y1251429D01*
X1865540Y1251814D01*
Y1255460D01*
X1865000D01*
Y1265080D01*
X1863059D01*
Y1269920D01*
X1865000D01*
Y1278810D01*
X1865000Y1279920D01*
X1865000Y1281043D01*
X1865230Y1281273D01*
X1866500Y1281250D01*
Y1281250D01*
X1873941D01*
Y1279153D01*
X1871750D01*
X1869702Y1278745D01*
X1867965Y1277585D01*
X1866805Y1275848D01*
X1866397Y1273800D01*
X1866805Y1271752D01*
X1867965Y1270015D01*
X1869702Y1268855D01*
X1871750Y1268447D01*
X1882250D01*
X1884298Y1268855D01*
X1886035Y1270015D01*
X1887195Y1271752D01*
X1887603Y1273800D01*
X1887195Y1275848D01*
X1886035Y1277585D01*
X1884298Y1278745D01*
X1882250Y1279153D01*
X1880059D01*
Y1281250D01*
X1887500D01*
Y1291750D01*
D02*
G37*
G36*
X2055540Y1305122D02*
X2040460D01*
X2037970Y1304794D01*
X2035649Y1303833D01*
X2033656Y1302304D01*
X2032127Y1300311D01*
X2031166Y1297990D01*
X2030838Y1295500D01*
X2031166Y1293010D01*
X2032127Y1290689D01*
X2033656Y1288696D01*
X2035649Y1287167D01*
X2037970Y1286206D01*
X2040460Y1285878D01*
X2055540D01*
X2058031Y1286206D01*
X2060351Y1287167D01*
X2062344Y1288696D01*
X2063873Y1290689D01*
X2064834Y1293010D01*
X2065162Y1295500D01*
X2064834Y1297990D01*
X2063873Y1300311D01*
X2062344Y1302304D01*
X2060351Y1303833D01*
X2058031Y1304794D01*
X2055540Y1305122D01*
D02*
G37*
G36*
X1910000Y1283059D02*
X1910000Y1283059D01*
X1900000D01*
X1898829Y1282826D01*
X1897837Y1282163D01*
X1897837Y1282163D01*
X1892837Y1277163D01*
X1892174Y1276171D01*
X1891941Y1275000D01*
X1891941Y1275000D01*
Y1266267D01*
X1889833Y1264159D01*
X1886520D01*
X1886035Y1264885D01*
X1884298Y1266045D01*
X1882250Y1266453D01*
X1871750D01*
X1869702Y1266045D01*
X1867965Y1264885D01*
X1866805Y1263148D01*
X1866397Y1261100D01*
X1866805Y1259052D01*
X1867965Y1257315D01*
X1869702Y1256155D01*
X1871750Y1255747D01*
X1882250D01*
X1884298Y1256155D01*
X1886035Y1257315D01*
X1886520Y1258041D01*
X1891100D01*
X1891100Y1258041D01*
X1892271Y1258274D01*
X1893263Y1258937D01*
X1897163Y1262837D01*
X1897163Y1262837D01*
X1897826Y1263829D01*
X1898059Y1265000D01*
X1898059Y1265000D01*
Y1273733D01*
X1901267Y1276941D01*
X1908733D01*
X1910421Y1275253D01*
X1910371Y1275000D01*
X1910723Y1273229D01*
X1911727Y1271727D01*
X1913229Y1270723D01*
X1915000Y1270371D01*
X1916771Y1270723D01*
X1918273Y1271727D01*
X1919277Y1273229D01*
X1919629Y1275000D01*
X1919277Y1276771D01*
X1918273Y1278273D01*
X1916771Y1279277D01*
X1915000Y1279629D01*
X1914747Y1279579D01*
X1912163Y1282163D01*
X1911171Y1282826D01*
X1910000Y1283059D01*
D02*
G37*
G36*
X1955540Y1273650D02*
X1951270D01*
Y1269380D01*
X1955540D01*
Y1273650D01*
D02*
G37*
G36*
X2005540Y1270667D02*
X1999270D01*
Y1261770D01*
X2015540D01*
X2015361Y1263131D01*
X2014345Y1265583D01*
X2012729Y1267689D01*
X2010623Y1269305D01*
X2008171Y1270321D01*
X2005540Y1270667D01*
D02*
G37*
G36*
X1996730D02*
X1990460D01*
X1987829Y1270321D01*
X1985376Y1269305D01*
X1983271Y1267689D01*
X1981655Y1265583D01*
X1980639Y1263131D01*
X1980460Y1261770D01*
X1996730D01*
Y1270667D01*
D02*
G37*
G36*
X1965540Y1265620D02*
X1961270D01*
Y1261350D01*
X1965540D01*
Y1265620D01*
D02*
G37*
G36*
X2015540Y1259230D02*
X1999270D01*
Y1250333D01*
X2005540D01*
X2008171Y1250679D01*
X2010623Y1251695D01*
X2012729Y1253311D01*
X2014345Y1255416D01*
X2015361Y1257869D01*
X2015540Y1259230D01*
D02*
G37*
G36*
X1996730D02*
X1980460D01*
X1980639Y1257869D01*
X1981655Y1255416D01*
X1983271Y1253311D01*
X1985376Y1251695D01*
X1987829Y1250679D01*
X1990460Y1250333D01*
X1996730D01*
Y1259230D01*
D02*
G37*
G36*
X1882250Y1254304D02*
X1878270D01*
Y1249670D01*
X1887901D01*
X1887704Y1250659D01*
X1886424Y1252574D01*
X1884509Y1253854D01*
X1882250Y1254304D01*
D02*
G37*
G36*
X1858730Y1248650D02*
X1854460D01*
Y1244380D01*
X1858730D01*
Y1248650D01*
D02*
G37*
G36*
X1887901Y1247130D02*
X1878270D01*
Y1242497D01*
X1882250D01*
X1884509Y1242946D01*
X1886424Y1244226D01*
X1887704Y1246141D01*
X1887901Y1247130D01*
D02*
G37*
%LPD*%
D11*
X1925000Y1300000D02*
Y1311046D01*
X1885000Y1300000D02*
Y1311046D01*
X1925000D02*
X1928954D01*
X1905000D02*
X1925000D01*
X1885000D02*
X1905000D01*
X1928954D02*
X1930000Y1310000D01*
X1880000Y1340000D02*
X1940000D01*
X1930000Y1285000D02*
X1935000Y1290000D01*
X1940000Y1300000D02*
Y1340000D01*
X1935000Y1295000D02*
X1940000Y1300000D01*
X1935000Y1290000D02*
Y1295000D01*
X1820000Y1357000D02*
X1820500Y1357500D01*
X1985000Y1435000D02*
X2040000D01*
X1977420Y1427420D02*
X1985000Y1435000D01*
X1940000Y1427420D02*
X1977420D01*
X1850080Y1405000D02*
X1875000D01*
X1900000Y1385000D02*
X1942500D01*
X1881000Y1404000D02*
X1900000Y1385000D01*
X1877000Y1404000D02*
X1881000D01*
X1905000Y1250000D02*
Y1270000D01*
X1910000Y1280000D02*
X1915000Y1275000D01*
X1900000Y1280000D02*
X1910000D01*
X1895000Y1275000D02*
X1900000Y1280000D01*
X1895000Y1265000D02*
Y1275000D01*
X1891100Y1261100D02*
X1895000Y1265000D01*
X1877000Y1261100D02*
X1891100D01*
X1994920Y1260080D02*
X1995000Y1260000D01*
X1960000Y1260080D02*
X1994920D01*
X1920000Y1250000D02*
X1921600Y1248400D01*
X1933000D01*
X1997500Y1335000D02*
Y1367500D01*
X1985080Y1379920D02*
X1997500Y1367500D01*
X1960000Y1379920D02*
X1985080D01*
X1835000Y1407500D02*
X1842500Y1415000D01*
X1890000D01*
X1884920Y1442500D02*
X1925000D01*
X1835080Y1435080D02*
X1880000D01*
X1950000Y1400080D02*
Y1405000D01*
X1959920Y1249920D02*
X1960000Y1250000D01*
X1930000Y1415000D02*
Y1424920D01*
Y1405000D02*
Y1415000D01*
X1915000Y1240000D02*
X1950000D01*
X1905000Y1250000D02*
X1915000Y1240000D01*
X1950000D02*
Y1249920D01*
X1850000Y1275000D02*
X1859920D01*
X1860000Y1274920D01*
X1765000Y1330000D02*
X1790000Y1305000D01*
X1745000Y1330000D02*
X1765000D01*
X1770000Y1335000D02*
X1790000Y1315000D01*
X1745000Y1335000D02*
X1770000D01*
X1960000Y1260080D02*
Y1275000D01*
X1950000Y1249920D02*
X1959920D01*
X1935000Y1260000D02*
X1935080Y1260080D01*
X1950000D01*
X1869920Y1249920D02*
X1870000Y1250000D01*
X1860000Y1249920D02*
X1869920D01*
X1860000Y1260080D02*
Y1274920D01*
Y1260000D02*
Y1260080D01*
X1860080Y1285000D02*
X1875000D01*
X1860000Y1285080D02*
X1860080Y1285000D01*
X1950080Y1275000D02*
X1960000D01*
X1950000Y1274920D02*
X1950080Y1275000D01*
X1893400Y1248400D02*
X1895000Y1250000D01*
X1877000Y1248400D02*
X1893400D01*
X1935000Y1285000D02*
X1935080Y1285080D01*
X1950000D01*
X1895000Y1422500D02*
X1905000D01*
X1940000Y1440000D02*
Y1445000D01*
X1930000Y1427420D02*
X1940000D01*
X1930000Y1275000D02*
X1933000Y1272000D01*
Y1261100D02*
Y1272000D01*
X1877000Y1286500D02*
Y1287000D01*
Y1273800D02*
Y1286500D01*
Y1287000D02*
X1877500Y1287500D01*
X1947500Y1397500D02*
X1950000Y1400000D01*
X1912500Y1397500D02*
X1947500D01*
X1907500Y1392500D02*
X1912500Y1397500D01*
X1840000Y1375000D02*
X1850000D01*
X1837500Y1372500D02*
X1840000Y1375000D01*
X1820000Y1372500D02*
X1837500Y1372500D01*
X1835000Y1377500D02*
X1842500Y1385000D01*
X1820000Y1377500D02*
X1835000D01*
X1835000Y1435000D02*
X1835080Y1435080D01*
X1780000Y1370000D02*
X1805000Y1395000D01*
X1835000D02*
X1835000Y1395000D01*
X1805000Y1395000D02*
X1835000D01*
X1744998Y1370000D02*
X1780000D01*
X1902500Y1402500D02*
X1932500D01*
X1890000Y1415000D02*
X1902500Y1402500D01*
X1820000Y1407500D02*
X1835000D01*
X1888900Y1378600D02*
X1890000Y1377500D01*
X1877000Y1378600D02*
X1888900D01*
X1822500Y1352500D02*
X1890000D01*
X1820000D02*
X1822500D01*
X1820500Y1357500D02*
X1892500D01*
X1820000D02*
X1820500D01*
X1900000Y1365000D02*
X1930000D01*
X1892500Y1357500D02*
X1900000Y1365000D01*
X1822000Y1353000D02*
X1822500Y1352500D01*
X1890000Y1427500D02*
X1895000Y1422500D01*
X1889920Y1427420D02*
X1890000Y1427500D01*
X1880000Y1427420D02*
X1889920D01*
X1880000Y1437580D02*
X1884920Y1442500D01*
X1925000D02*
X1929920Y1437580D01*
X1930000D01*
X1960080Y1405000D02*
Y1414920D01*
Y1360080D02*
Y1370000D01*
X1960000Y1380000D02*
Y1380080D01*
X1950000Y1390080D02*
X1960000Y1380080D01*
X1950000Y1400080D02*
X1960000Y1390080D01*
X1948600Y1378600D02*
X1950000Y1380000D01*
Y1379920D02*
Y1380000D01*
Y1370080D02*
Y1379920D01*
X1949920Y1370000D02*
X1950000Y1370080D01*
X1935080Y1390080D02*
X1950000D01*
X1935000Y1390000D02*
X1935080Y1390080D01*
X1933000Y1378600D02*
X1948600D01*
X1860000Y1364920D02*
X1874920D01*
X1850000D02*
X1860000D01*
X1874920D02*
X1875000Y1365000D01*
X1860000Y1385000D02*
Y1394920D01*
Y1375000D02*
Y1385000D01*
X1865000D01*
X1860000D02*
X1860000D01*
X1865000D02*
X1871300Y1391300D01*
X1877000D01*
X1860000Y1375000D02*
X1860000Y1375000D01*
X1850000Y1405080D02*
X1850080Y1405000D01*
X1850000Y1394920D02*
Y1395000D01*
Y1375080D02*
Y1394920D01*
X1819500Y1422500D02*
X1820000D01*
X1819000Y1422000D02*
X1819500Y1422500D01*
X1821000Y1417000D02*
X1821500Y1417500D01*
X1818500Y1407500D02*
X1820000D01*
X1818000Y1407000D02*
X1818500Y1407500D01*
X1820000Y1408000D02*
Y1412500D01*
X1820000Y1408000D02*
X1820000Y1408000D01*
X1770000Y1410000D02*
X1780000Y1400000D01*
X1745000Y1425000D02*
Y1430000D01*
Y1420000D02*
Y1425000D01*
Y1415000D02*
Y1420000D01*
Y1410000D02*
Y1415000D01*
X1745000Y1430000D02*
X1745000Y1430000D01*
X1745000Y1410000D02*
X1770000D01*
D14*
X1820000Y1317500D02*
D03*
Y1432500D02*
D03*
Y1427500D02*
D03*
Y1422500D02*
D03*
Y1417500D02*
D03*
Y1412500D02*
D03*
Y1407500D02*
D03*
Y1377500D02*
D03*
Y1372500D02*
D03*
Y1367500D02*
D03*
Y1362500D02*
D03*
Y1357500D02*
D03*
Y1352500D02*
D03*
Y1347500D02*
D03*
Y1342500D02*
D03*
Y1337500D02*
D03*
Y1332500D02*
D03*
Y1327500D02*
D03*
X1745000Y1280000D02*
D03*
Y1425000D02*
D03*
Y1430000D02*
D03*
Y1415000D02*
D03*
Y1410000D02*
D03*
X1744998Y1385000D02*
D03*
Y1365000D02*
D03*
X1744999Y1375000D02*
D03*
X1744998Y1370000D02*
D03*
X1745000Y1345000D02*
D03*
X1744999Y1355000D02*
D03*
X1744998Y1350000D02*
D03*
X1745000Y1325000D02*
D03*
Y1335000D02*
D03*
Y1330000D02*
D03*
Y1305000D02*
D03*
Y1315000D02*
D03*
Y1310000D02*
D03*
X1744998Y1360000D02*
D03*
Y1380000D02*
D03*
X1745000Y1420000D02*
D03*
Y1320000D02*
D03*
Y1340000D02*
D03*
X1820000Y1312500D02*
D03*
Y1382500D02*
D03*
Y1322500D02*
D03*
X1745000Y1295000D02*
D03*
Y1290000D02*
D03*
Y1285000D02*
D03*
Y1300000D02*
D03*
X1820000Y1307500D02*
D03*
Y1302500D02*
D03*
Y1297500D02*
D03*
Y1292500D02*
D03*
Y1287500D02*
D03*
Y1282500D02*
D03*
Y1277500D02*
D03*
Y1272500D02*
D03*
Y1267500D02*
D03*
Y1262500D02*
D03*
Y1257500D02*
D03*
X1745000Y1275000D02*
D03*
Y1270000D02*
D03*
Y1265000D02*
D03*
Y1260000D02*
D03*
Y1255000D02*
D03*
X1820000Y1252500D02*
D03*
Y1247500D02*
D03*
X1745000Y1250000D02*
D03*
D15*
X1811500Y1442500D02*
D03*
Y1237500D02*
D03*
D16*
X1925000Y1311046D02*
D03*
Y1338954D02*
D03*
X1905000Y1311046D02*
D03*
Y1338954D02*
D03*
X1885000Y1311046D02*
D03*
Y1338954D02*
D03*
D17*
X1960000Y1249920D02*
D03*
Y1260080D02*
D03*
X1860000D02*
D03*
Y1249920D02*
D03*
Y1285080D02*
D03*
Y1274920D02*
D03*
X1950000Y1249920D02*
D03*
Y1260080D02*
D03*
Y1285080D02*
D03*
Y1274920D02*
D03*
X1940000Y1427420D02*
D03*
Y1437580D02*
D03*
X1950000Y1379920D02*
D03*
Y1390080D02*
D03*
X1960000Y1390080D02*
D03*
Y1379920D02*
D03*
X1850000Y1394920D02*
D03*
Y1405080D02*
D03*
Y1375080D02*
D03*
Y1364920D02*
D03*
X1860000Y1405080D02*
D03*
Y1394920D02*
D03*
X1860000Y1375080D02*
D03*
Y1364920D02*
D03*
X1930000Y1437580D02*
D03*
Y1427420D02*
D03*
X1880000D02*
D03*
Y1437580D02*
D03*
D18*
X1933000Y1248400D02*
D03*
Y1261100D02*
D03*
Y1273800D02*
D03*
Y1286500D02*
D03*
X1877000Y1248400D02*
D03*
Y1261100D02*
D03*
Y1273800D02*
D03*
X1933000Y1365900D02*
D03*
Y1378600D02*
D03*
Y1391300D02*
D03*
Y1404000D02*
D03*
X1877000Y1365900D02*
D03*
Y1378600D02*
D03*
Y1391300D02*
D03*
D19*
Y1286500D02*
D03*
Y1404000D02*
D03*
D20*
X1949920Y1405000D02*
D03*
X1960080D02*
D03*
X1949920Y1370000D02*
D03*
X1960080D02*
D03*
D21*
X1914500Y1444000D02*
D03*
X1895500D02*
D03*
X1905000Y1421000D02*
D03*
D33*
X1998000Y1260500D02*
D03*
X2048000Y1295500D02*
D03*
X1998000Y1330500D02*
D03*
X2048000Y1365500D02*
D03*
X1998000Y1400500D02*
D03*
X2048000Y1435500D02*
D03*
D34*
X1350000Y1420000D02*
D03*
D35*
X1960000Y1450000D02*
D03*
X1905000D02*
D03*
X1850000D02*
D03*
Y1230000D02*
D03*
X1905000D02*
D03*
X1960000D02*
D03*
X1780000Y1400000D02*
D03*
X1770000Y1410000D02*
D03*
X1925000Y1300000D02*
D03*
X1885000D02*
D03*
X1940000Y1340000D02*
D03*
X1942500Y1385000D02*
D03*
X1915000Y1275000D02*
D03*
X1905000Y1270000D02*
D03*
X1920000Y1250000D02*
D03*
X1930000Y1415000D02*
D03*
X1850000Y1275000D02*
D03*
X1790000Y1315000D02*
D03*
Y1305000D02*
D03*
X1960000Y1275000D02*
D03*
X1895000Y1250000D02*
D03*
X1940000Y1445000D02*
D03*
X1907500Y1392500D02*
D03*
X1842500Y1385000D02*
D03*
X1835000Y1435000D02*
D03*
Y1395000D02*
D03*
X1890000Y1377500D02*
D03*
Y1352500D02*
D03*
X1960000Y1415000D02*
D03*
Y1360000D02*
D03*
X1890000Y1427500D02*
D03*
M02*
