G04*
G04 #@! TF.GenerationSoftware,Altium Limited,Altium Designer,18.1.7 (191)*
G04*
G04 Layer_Physical_Order=2*
G04 Layer_Color=16711680*
%FSLAX44Y44*%
%MOMM*%
G71*
G01*
G75*
%ADD11C,0.2000*%
%ADD33O,3.0160X1.5080*%
%ADD34C,6.0000*%
%ADD35C,0.5080*%
G36*
X2170000Y1230000D02*
X1772808Y1230000D01*
X1772543Y1231265D01*
X1774632Y1232868D01*
X1776235Y1234957D01*
X1777243Y1237390D01*
X1777586Y1240000D01*
X1777243Y1242610D01*
X1776235Y1245043D01*
X1774632Y1247132D01*
X1772543Y1248735D01*
X1770110Y1249743D01*
X1767500Y1250086D01*
X1764890Y1249743D01*
X1762457Y1248735D01*
X1760368Y1247132D01*
X1758765Y1245043D01*
X1757757Y1242610D01*
X1757414Y1240000D01*
X1757757Y1237390D01*
X1758765Y1234957D01*
X1760368Y1232868D01*
X1762457Y1231265D01*
X1762193Y1230000D01*
X1325000Y1230000D01*
X1325000Y1398164D01*
X1326192Y1398604D01*
X1327303Y1397303D01*
X1331133Y1394031D01*
X1335427Y1391400D01*
X1340081Y1389472D01*
X1344979Y1388296D01*
X1350000Y1387901D01*
X1355021Y1388296D01*
X1359919Y1389472D01*
X1364573Y1391400D01*
X1368867Y1394031D01*
X1372697Y1397303D01*
X1375969Y1401133D01*
X1378600Y1405427D01*
X1380528Y1410081D01*
X1381704Y1414979D01*
X1382099Y1420000D01*
X1381704Y1425021D01*
X1380528Y1429919D01*
X1378600Y1434573D01*
X1375969Y1438867D01*
X1372697Y1442697D01*
X1368867Y1445969D01*
X1364573Y1448600D01*
X1359919Y1450528D01*
X1356995Y1451230D01*
X1357145Y1452500D01*
X2170000Y1452500D01*
X2170000Y1230000D01*
D02*
G37*
%LPC*%
G36*
X1767500Y1447565D02*
X1765542Y1447307D01*
X1763718Y1446551D01*
X1762151Y1445349D01*
X1760949Y1443782D01*
X1760193Y1441958D01*
X1759935Y1440000D01*
X1760193Y1438042D01*
X1760949Y1436218D01*
X1762151Y1434651D01*
X1763718Y1433449D01*
X1765542Y1432693D01*
X1767500Y1432435D01*
X1769458Y1432693D01*
X1771282Y1433449D01*
X1772849Y1434651D01*
X1774051Y1436218D01*
X1774807Y1438042D01*
X1775065Y1440000D01*
X1774807Y1441958D01*
X1774051Y1443782D01*
X1772849Y1445349D01*
X1771282Y1446551D01*
X1769458Y1447307D01*
X1767500Y1447565D01*
D02*
G37*
G36*
X2055540Y1445122D02*
X2040460D01*
X2037970Y1444794D01*
X2035649Y1443833D01*
X2033656Y1442304D01*
X2032127Y1440311D01*
X2031166Y1437991D01*
X2030838Y1435500D01*
X2031166Y1433010D01*
X2032127Y1430689D01*
X2033656Y1428696D01*
X2035649Y1427167D01*
X2037970Y1426206D01*
X2040460Y1425878D01*
X2055540D01*
X2058031Y1426206D01*
X2060351Y1427167D01*
X2062344Y1428696D01*
X2063873Y1430689D01*
X2064834Y1433010D01*
X2065162Y1435500D01*
X2064834Y1437991D01*
X2063873Y1440311D01*
X2062344Y1442304D01*
X2060351Y1443833D01*
X2058031Y1444794D01*
X2055540Y1445122D01*
D02*
G37*
G36*
X1930000Y1419629D02*
X1928229Y1419277D01*
X1926727Y1418273D01*
X1925723Y1416771D01*
X1925371Y1415000D01*
X1925723Y1413229D01*
X1926727Y1411727D01*
X1928229Y1410723D01*
X1930000Y1410371D01*
X1930253Y1410421D01*
X1936941Y1403733D01*
Y1343416D01*
X1936727Y1343273D01*
X1935723Y1341771D01*
X1935371Y1340000D01*
X1935723Y1338229D01*
X1936727Y1336727D01*
X1938229Y1335723D01*
X1940000Y1335371D01*
X1941771Y1335723D01*
X1943273Y1336727D01*
X1944277Y1338229D01*
X1944629Y1340000D01*
X1944277Y1341771D01*
X1943273Y1343273D01*
X1943059Y1343416D01*
Y1380482D01*
X1944271Y1380723D01*
X1945773Y1381727D01*
X1945916Y1381941D01*
X1975000D01*
X1975000Y1381941D01*
X1976171Y1382174D01*
X1977163Y1382837D01*
X1986246Y1391920D01*
X1987970Y1391206D01*
X1990460Y1390878D01*
X2005540D01*
X2008031Y1391206D01*
X2010351Y1392167D01*
X2012344Y1393696D01*
X2013873Y1395689D01*
X2014834Y1398010D01*
X2015162Y1400500D01*
X2014834Y1402991D01*
X2013873Y1405311D01*
X2012344Y1407304D01*
X2010351Y1408833D01*
X2008031Y1409794D01*
X2005540Y1410122D01*
X1990460D01*
X1987970Y1409794D01*
X1985649Y1408833D01*
X1983656Y1407304D01*
X1982127Y1405311D01*
X1981166Y1402991D01*
X1980838Y1400500D01*
X1981166Y1398010D01*
X1981903Y1396229D01*
X1973733Y1388059D01*
X1945916D01*
X1945773Y1388273D01*
X1944271Y1389277D01*
X1943059Y1389518D01*
Y1405000D01*
X1942826Y1406171D01*
X1942163Y1407163D01*
X1942163Y1407163D01*
X1934579Y1414747D01*
X1934629Y1415000D01*
X1934277Y1416771D01*
X1933273Y1418273D01*
X1931771Y1419277D01*
X1930000Y1419629D01*
D02*
G37*
G36*
X1835000Y1439629D02*
X1833229Y1439277D01*
X1831727Y1438273D01*
X1830723Y1436771D01*
X1830371Y1435000D01*
X1830723Y1433229D01*
X1831727Y1431727D01*
X1831941Y1431584D01*
Y1398416D01*
X1831727Y1398273D01*
X1830723Y1396771D01*
X1830371Y1395000D01*
X1830723Y1393229D01*
X1831727Y1391727D01*
X1833229Y1390723D01*
X1835000Y1390371D01*
X1836771Y1390723D01*
X1838273Y1391727D01*
X1839277Y1393229D01*
X1839629Y1395000D01*
X1839277Y1396771D01*
X1838273Y1398273D01*
X1838059Y1398416D01*
Y1431584D01*
X1838273Y1431727D01*
X1839277Y1433229D01*
X1839629Y1435000D01*
X1839277Y1436771D01*
X1838273Y1438273D01*
X1836771Y1439277D01*
X1835000Y1439629D01*
D02*
G37*
G36*
X1907500Y1397129D02*
X1905729Y1396777D01*
X1904227Y1395773D01*
X1903223Y1394271D01*
X1902871Y1392500D01*
X1902921Y1392247D01*
X1898733Y1388059D01*
X1845916D01*
X1845773Y1388273D01*
X1844271Y1389277D01*
X1842500Y1389629D01*
X1840729Y1389277D01*
X1839227Y1388273D01*
X1838223Y1386771D01*
X1837871Y1385000D01*
X1838223Y1383229D01*
X1839227Y1381727D01*
X1840729Y1380723D01*
X1842500Y1380371D01*
X1844271Y1380723D01*
X1845773Y1381727D01*
X1845916Y1381941D01*
X1886189D01*
X1886541Y1381177D01*
X1886659Y1380671D01*
X1885723Y1379271D01*
X1885371Y1377500D01*
X1885723Y1375729D01*
X1886727Y1374227D01*
X1886941Y1374084D01*
Y1355916D01*
X1886727Y1355773D01*
X1885723Y1354271D01*
X1885371Y1352500D01*
X1885723Y1350729D01*
X1886727Y1349227D01*
X1888229Y1348223D01*
X1890000Y1347871D01*
X1891771Y1348223D01*
X1893273Y1349227D01*
X1894277Y1350729D01*
X1894629Y1352500D01*
X1894277Y1354271D01*
X1893273Y1355773D01*
X1893059Y1355916D01*
Y1374084D01*
X1893273Y1374227D01*
X1894277Y1375729D01*
X1894629Y1377500D01*
X1894277Y1379271D01*
X1893341Y1380671D01*
X1893459Y1381177D01*
X1893811Y1381941D01*
X1900000D01*
X1900000Y1381941D01*
X1901171Y1382174D01*
X1902163Y1382837D01*
X1907247Y1387921D01*
X1907500Y1387871D01*
X1909271Y1388223D01*
X1910773Y1389227D01*
X1911777Y1390729D01*
X1912129Y1392500D01*
X1911777Y1394271D01*
X1910773Y1395773D01*
X1909271Y1396777D01*
X1907500Y1397129D01*
D02*
G37*
G36*
X2005540Y1340122D02*
X1990460D01*
X1987970Y1339794D01*
X1985649Y1338833D01*
X1983656Y1337304D01*
X1982127Y1335311D01*
X1981166Y1332991D01*
X1980838Y1330500D01*
X1981166Y1328010D01*
X1982127Y1325689D01*
X1983656Y1323696D01*
X1985649Y1322167D01*
X1987970Y1321206D01*
X1990460Y1320878D01*
X2005540D01*
X2008031Y1321206D01*
X2010351Y1322167D01*
X2012344Y1323696D01*
X2013873Y1325689D01*
X2014834Y1328010D01*
X2015162Y1330500D01*
X2014834Y1332991D01*
X2013873Y1335311D01*
X2012344Y1337304D01*
X2010351Y1338833D01*
X2008031Y1339794D01*
X2005540Y1340122D01*
D02*
G37*
G36*
X2055540Y1375122D02*
X2040460D01*
X2037970Y1374794D01*
X2035649Y1373833D01*
X2033656Y1372304D01*
X2032127Y1370311D01*
X2031166Y1367991D01*
X2030838Y1365500D01*
X2031166Y1363010D01*
X2032127Y1360689D01*
X2033656Y1358696D01*
X2035649Y1357167D01*
X2037970Y1356206D01*
X2040460Y1355878D01*
X2041941D01*
Y1336267D01*
X2023733Y1318059D01*
X2010000D01*
X2010000Y1318059D01*
X2008829Y1317826D01*
X2007837Y1317163D01*
X2007837Y1317163D01*
X1983733Y1293059D01*
X1950000D01*
X1950000Y1293059D01*
X1948829Y1292826D01*
X1947837Y1292163D01*
X1947837Y1292163D01*
X1933733Y1278059D01*
X1918416D01*
X1918273Y1278273D01*
X1916771Y1279277D01*
X1915000Y1279629D01*
X1913229Y1279277D01*
X1911727Y1278273D01*
X1910723Y1276771D01*
X1910371Y1275000D01*
X1910723Y1273229D01*
X1911727Y1271727D01*
X1913229Y1270723D01*
X1915000Y1270371D01*
X1916771Y1270723D01*
X1918273Y1271727D01*
X1918416Y1271941D01*
X1935000D01*
X1935000Y1271941D01*
X1936171Y1272174D01*
X1937163Y1272837D01*
X1951267Y1286941D01*
X1985000D01*
X1985000Y1286941D01*
X1986264Y1285898D01*
X1986304Y1285629D01*
X1953733Y1253059D01*
X1923416D01*
X1923273Y1253273D01*
X1921771Y1254277D01*
X1920000Y1254629D01*
X1918229Y1254277D01*
X1916727Y1253273D01*
X1915723Y1251771D01*
X1915371Y1250000D01*
X1915723Y1248229D01*
X1916727Y1246727D01*
X1918229Y1245723D01*
X1920000Y1245371D01*
X1921771Y1245723D01*
X1923273Y1246727D01*
X1923416Y1246941D01*
X1955000D01*
X1955000Y1246941D01*
X1956171Y1247174D01*
X1957163Y1247837D01*
X2001267Y1291941D01*
X2031608D01*
X2032127Y1290689D01*
X2033656Y1288696D01*
X2035649Y1287167D01*
X2037970Y1286206D01*
X2040460Y1285878D01*
X2055540D01*
X2058031Y1286206D01*
X2060351Y1287167D01*
X2062344Y1288696D01*
X2063873Y1290689D01*
X2064834Y1293010D01*
X2065162Y1295500D01*
X2064834Y1297990D01*
X2063873Y1300311D01*
X2062344Y1302304D01*
X2060351Y1303833D01*
X2058031Y1304794D01*
X2055540Y1305122D01*
X2040460D01*
X2037970Y1304794D01*
X2035649Y1303833D01*
X2033656Y1302304D01*
X2032127Y1300311D01*
X2031194Y1298059D01*
X2000000D01*
X1998736Y1299102D01*
X1998696Y1299371D01*
X2011267Y1311941D01*
X2025000D01*
X2025000Y1311941D01*
X2026171Y1312174D01*
X2027163Y1312837D01*
X2047163Y1332837D01*
X2047826Y1333829D01*
X2048059Y1335000D01*
Y1355878D01*
X2055540D01*
X2058031Y1356206D01*
X2060351Y1357167D01*
X2062344Y1358696D01*
X2063873Y1360689D01*
X2064834Y1363010D01*
X2065162Y1365500D01*
X2064834Y1367991D01*
X2063873Y1370311D01*
X2062344Y1372304D01*
X2060351Y1373833D01*
X2058031Y1374794D01*
X2055540Y1375122D01*
D02*
G37*
G36*
X1790000Y1319629D02*
X1788229Y1319277D01*
X1786727Y1318273D01*
X1785723Y1316771D01*
X1785371Y1315000D01*
X1785723Y1313229D01*
X1786727Y1311727D01*
X1788229Y1310723D01*
X1788611Y1310647D01*
Y1309353D01*
X1788229Y1309277D01*
X1786727Y1308273D01*
X1785723Y1306771D01*
X1785371Y1305000D01*
X1785723Y1303229D01*
X1786727Y1301727D01*
X1788229Y1300723D01*
X1790000Y1300371D01*
X1791771Y1300723D01*
X1793273Y1301727D01*
X1793416Y1301941D01*
X1833733D01*
X1846941Y1288733D01*
Y1278416D01*
X1846727Y1278273D01*
X1845723Y1276771D01*
X1845371Y1275000D01*
X1845723Y1273229D01*
X1846727Y1271727D01*
X1848229Y1270723D01*
X1850000Y1270371D01*
X1851771Y1270723D01*
X1853273Y1271727D01*
X1854277Y1273229D01*
X1854629Y1275000D01*
X1854277Y1276771D01*
X1853273Y1278273D01*
X1853059Y1278416D01*
Y1290000D01*
X1853059Y1290000D01*
X1852826Y1291171D01*
X1852163Y1292163D01*
X1852163Y1292163D01*
X1837163Y1307163D01*
X1836171Y1307826D01*
X1835000Y1308059D01*
X1835000Y1308059D01*
X1793416D01*
X1793273Y1308273D01*
X1791771Y1309277D01*
X1791389Y1309353D01*
Y1310647D01*
X1791771Y1310723D01*
X1793273Y1311727D01*
X1793416Y1311941D01*
X1843733D01*
X1887837Y1267837D01*
X1888829Y1267174D01*
X1890000Y1266941D01*
X1901584D01*
X1901727Y1266727D01*
X1903229Y1265723D01*
X1905000Y1265371D01*
X1906771Y1265723D01*
X1908273Y1266727D01*
X1909277Y1268229D01*
X1909629Y1270000D01*
X1909277Y1271771D01*
X1908273Y1273273D01*
X1906771Y1274277D01*
X1905000Y1274629D01*
X1903229Y1274277D01*
X1901727Y1273273D01*
X1901584Y1273059D01*
X1891267D01*
X1847163Y1317163D01*
X1846171Y1317826D01*
X1845000Y1318059D01*
X1845000Y1318059D01*
X1793416D01*
X1793273Y1318273D01*
X1791771Y1319277D01*
X1790000Y1319629D01*
D02*
G37*
G36*
X2005540Y1270667D02*
X1999270D01*
Y1261770D01*
X2015540D01*
X2015361Y1263131D01*
X2014345Y1265583D01*
X2012729Y1267689D01*
X2010623Y1269305D01*
X2008171Y1270321D01*
X2005540Y1270667D01*
D02*
G37*
G36*
X1996730D02*
X1990460D01*
X1987829Y1270321D01*
X1985376Y1269305D01*
X1983271Y1267689D01*
X1981655Y1265583D01*
X1980639Y1263131D01*
X1980460Y1261770D01*
X1996730D01*
Y1270667D01*
D02*
G37*
G36*
X2015540Y1259230D02*
X1999270D01*
Y1250333D01*
X2005540D01*
X2008171Y1250679D01*
X2010623Y1251695D01*
X2012729Y1253311D01*
X2014345Y1255416D01*
X2015361Y1257869D01*
X2015540Y1259230D01*
D02*
G37*
G36*
X1996730D02*
X1980460D01*
X1980639Y1257869D01*
X1981655Y1255416D01*
X1983271Y1253311D01*
X1985376Y1251695D01*
X1987829Y1250679D01*
X1990460Y1250333D01*
X1996730D01*
Y1259230D01*
D02*
G37*
%LPD*%
D11*
X1930000Y1415000D02*
X1940000Y1405000D01*
Y1340000D02*
Y1405000D01*
X1975000Y1385000D02*
X1990000Y1400000D01*
X1942500Y1385000D02*
X1975000D01*
X1915000Y1275000D02*
X1935000D01*
X1950000Y1290000D01*
X1985000D01*
X2010000Y1315000D01*
X1890000Y1270000D02*
X1905000D01*
X1845000Y1315000D02*
X1890000Y1270000D01*
X2000000Y1295000D02*
X2050000D01*
X1955000Y1250000D02*
X2000000Y1295000D01*
X1920000Y1250000D02*
X1955000D01*
X2045000Y1335000D02*
Y1365000D01*
X2025000Y1315000D02*
X2045000Y1335000D01*
X2010000Y1315000D02*
X2025000D01*
X1850000Y1275000D02*
Y1290000D01*
X1835000Y1305000D02*
X1850000Y1290000D01*
X1790000Y1305000D02*
X1835000D01*
X1790000Y1315000D02*
X1845000D01*
X1900000Y1385000D02*
X1907500Y1392500D01*
X1842500Y1385000D02*
X1900000D01*
X1835000Y1395000D02*
Y1435000D01*
X1890000Y1352500D02*
Y1377500D01*
D33*
X1998000Y1260500D02*
D03*
X2048000Y1295500D02*
D03*
X1998000Y1330500D02*
D03*
X2048000Y1365500D02*
D03*
X1998000Y1400500D02*
D03*
X2048000Y1435500D02*
D03*
D34*
X1350000Y1420000D02*
D03*
D35*
X1960000Y1450000D02*
D03*
X1905000D02*
D03*
X1850000D02*
D03*
Y1230000D02*
D03*
X1905000D02*
D03*
X1960000D02*
D03*
X1780000Y1400000D02*
D03*
X1770000Y1410000D02*
D03*
X1925000Y1300000D02*
D03*
X1885000D02*
D03*
X1940000Y1340000D02*
D03*
X1942500Y1385000D02*
D03*
X1915000Y1275000D02*
D03*
X1905000Y1270000D02*
D03*
X1920000Y1250000D02*
D03*
X1930000Y1415000D02*
D03*
X1850000Y1275000D02*
D03*
X1790000Y1315000D02*
D03*
Y1305000D02*
D03*
X1960000Y1275000D02*
D03*
X1895000Y1250000D02*
D03*
X1940000Y1445000D02*
D03*
X1907500Y1392500D02*
D03*
X1842500Y1385000D02*
D03*
X1835000Y1435000D02*
D03*
Y1395000D02*
D03*
X1890000Y1377500D02*
D03*
Y1352500D02*
D03*
X1960000Y1415000D02*
D03*
Y1360000D02*
D03*
X1890000Y1427500D02*
D03*
M02*
