M48
;Layer_Color=9474304
;FILE_FORMAT=4:4
METRIC,LZ
;TYPE=PLATED
T1F00S00C0.2540
T2F00S00C1.0000
T3F00S00C4.2200
;TYPE=NON_PLATED
T4F00S00C1.1000
T5F00S00C1.6000
%
T01
X0185Y0123
Y01275
X01885Y013
X01925
X01915Y01275
X01905Y0127
X01895Y0125
X0192
X01905Y0123
X0196
X0196Y01275
Y0136
X0194Y0134
X019425Y01385
X0193Y01415
X0196
X0196Y0145
X0194Y01445
X01905Y0145
X0189Y014275
Y013775
Y013525
X019075Y013925
X018425Y01385
X01835Y01395
Y01435
X0185Y0145
X0178Y014
X0177Y0141
X0179Y01315
Y01305
T02
X01998Y012605
Y013305
Y014005
X02048Y013655
Y012955
Y014355
T03
X0135Y0142
T04
X017675Y0144
T05
X017675Y0124
M30
