G04*
G04 #@! TF.GenerationSoftware,Altium Limited,Altium Designer,18.1.7 (191)*
G04*
G04 Layer_Color=8388736*
%FSLAX44Y44*%
%MOMM*%
G71*
G01*
G75*
%ADD36R,2.8750X15.0250*%
%ADD37R,2.8500X3.6250*%
%ADD38R,2.4532X0.5532*%
%ADD39R,1.0032X1.0032*%
%ADD40R,0.8032X0.8032*%
%ADD41R,0.8032X0.8032*%
%ADD42R,2.2032X1.3032*%
%ADD43R,1.9032X0.8532*%
%ADD44O,1.9032X0.8532*%
%ADD45R,2.8032X1.9032*%
%ADD46R,1.9032X1.1032*%
%ADD47R,2.7032X1.1032*%
%ADD48R,1.2032X0.6532*%
%ADD49R,0.4832X0.4832*%
%ADD50O,0.4832X0.8632*%
%ADD51O,0.8632X0.4832*%
%ADD52R,1.4532X1.4532*%
%ADD53R,1.5032X1.7032*%
%ADD54R,1.3532X0.8032*%
%ADD55R,1.3532X0.5032*%
%ADD56R,1.1332X1.1832*%
%ADD57R,0.9032X1.3032*%
G04:AMPARAMS|DCode=58|XSize=0.5032mm|YSize=1.0032mm|CornerRadius=0.1766mm|HoleSize=0mm|Usage=FLASHONLY|Rotation=180.000|XOffset=0mm|YOffset=0mm|HoleType=Round|Shape=RoundedRectangle|*
%AMROUNDEDRECTD58*
21,1,0.5032,0.6500,0,0,180.0*
21,1,0.1500,1.0032,0,0,180.0*
1,1,0.3532,-0.0750,0.3250*
1,1,0.3532,0.0750,0.3250*
1,1,0.3532,0.0750,-0.3250*
1,1,0.3532,-0.0750,-0.3250*
%
%ADD58ROUNDEDRECTD58*%
G04:AMPARAMS|DCode=59|XSize=0.5032mm|YSize=1.0032mm|CornerRadius=0.1766mm|HoleSize=0mm|Usage=FLASHONLY|Rotation=90.000|XOffset=0mm|YOffset=0mm|HoleType=Round|Shape=RoundedRectangle|*
%AMROUNDEDRECTD59*
21,1,0.5032,0.6500,0,0,90.0*
21,1,0.1500,1.0032,0,0,90.0*
1,1,0.3532,0.3250,0.0750*
1,1,0.3532,0.3250,-0.0750*
1,1,0.3532,-0.3250,-0.0750*
1,1,0.3532,-0.3250,0.0750*
%
%ADD59ROUNDEDRECTD59*%
%ADD60R,2.6032X1.9032*%
%ADD61C,0.2032*%
%ADD62R,2.2032X1.4032*%
%ADD63R,2.5032X1.4032*%
D36*
X180376Y419125D02*
D03*
D37*
X180250Y313875D02*
D03*
D38*
X181000Y467500D02*
D03*
Y472500D02*
D03*
Y477500D02*
D03*
Y482500D02*
D03*
Y487500D02*
D03*
Y462500D02*
D03*
Y437500D02*
D03*
Y432500D02*
D03*
Y427500D02*
D03*
Y422500D02*
D03*
Y417500D02*
D03*
Y412500D02*
D03*
Y407500D02*
D03*
Y402500D02*
D03*
Y397500D02*
D03*
Y392500D02*
D03*
Y387500D02*
D03*
Y382500D02*
D03*
Y377500D02*
D03*
Y372500D02*
D03*
Y367500D02*
D03*
Y362500D02*
D03*
Y357500D02*
D03*
Y352500D02*
D03*
Y327500D02*
D03*
Y322500D02*
D03*
Y317500D02*
D03*
Y312500D02*
D03*
Y307500D02*
D03*
Y302500D02*
D03*
Y442500D02*
D03*
Y447500D02*
D03*
Y452500D02*
D03*
Y457500D02*
D03*
D39*
X255300Y443000D02*
D03*
X269300D02*
D03*
X269000Y416000D02*
D03*
X255000D02*
D03*
X269300Y430000D02*
D03*
X255300D02*
D03*
X269300Y456000D02*
D03*
X255300D02*
D03*
D40*
X525920Y292000D02*
D03*
X536080D02*
D03*
X624080Y478000D02*
D03*
X613920D02*
D03*
X624080Y458000D02*
D03*
X613920D02*
D03*
X624080Y498000D02*
D03*
X613920D02*
D03*
Y468000D02*
D03*
X624080D02*
D03*
X613920Y488000D02*
D03*
X624080D02*
D03*
X454080Y298000D02*
D03*
X443920D02*
D03*
X526080Y447000D02*
D03*
X515920D02*
D03*
X495920Y407000D02*
D03*
X506080D02*
D03*
X258420Y404000D02*
D03*
X268580D02*
D03*
X461920Y470000D02*
D03*
X472080D02*
D03*
X476080Y326000D02*
D03*
X465920D02*
D03*
X350920Y457000D02*
D03*
X361080D02*
D03*
X476080Y316000D02*
D03*
X465920D02*
D03*
X316080Y436000D02*
D03*
X305920D02*
D03*
Y424000D02*
D03*
X316080D02*
D03*
Y447000D02*
D03*
X305920D02*
D03*
X280920Y430000D02*
D03*
X291080D02*
D03*
X257920Y330000D02*
D03*
X268080D02*
D03*
X476080Y298000D02*
D03*
X465920D02*
D03*
X429080D02*
D03*
X418920D02*
D03*
D41*
X534000Y393920D02*
D03*
Y404080D02*
D03*
X524000Y393920D02*
D03*
Y404080D02*
D03*
X548000Y359080D02*
D03*
Y348920D02*
D03*
X294000Y335920D02*
D03*
Y346080D02*
D03*
X524000Y379080D02*
D03*
Y368920D02*
D03*
X334000Y361920D02*
D03*
Y372080D02*
D03*
X482000Y447080D02*
D03*
Y436920D02*
D03*
X548000Y368920D02*
D03*
Y379080D02*
D03*
X504000Y447080D02*
D03*
Y436920D02*
D03*
X294000Y446920D02*
D03*
Y457080D02*
D03*
X282000Y446920D02*
D03*
Y457080D02*
D03*
X493000Y447080D02*
D03*
Y436920D02*
D03*
X334000Y382920D02*
D03*
Y393080D02*
D03*
X524000Y348920D02*
D03*
Y359080D02*
D03*
D42*
X555000Y331000D02*
D03*
Y295000D02*
D03*
D43*
X598000Y459000D02*
D03*
D44*
Y471700D02*
D03*
Y484400D02*
D03*
Y497100D02*
D03*
X542000Y459000D02*
D03*
Y471700D02*
D03*
Y484400D02*
D03*
Y497100D02*
D03*
D45*
X515000Y478000D02*
D03*
D46*
X489000Y463000D02*
D03*
Y494000D02*
D03*
D47*
X493000Y478000D02*
D03*
D48*
X306500Y349500D02*
D03*
X328500D02*
D03*
X306500Y333000D02*
D03*
X328500D02*
D03*
D49*
X496500Y342150D02*
D03*
X501500D02*
D03*
X506500D02*
D03*
X511500D02*
D03*
X519150Y332214D02*
D03*
Y327214D02*
D03*
Y322214D02*
D03*
X511500Y311850D02*
D03*
X506500D02*
D03*
X501500D02*
D03*
X496500D02*
D03*
X488850Y321960D02*
D03*
Y326960D02*
D03*
Y331960D02*
D03*
D50*
X496500Y340250D02*
D03*
X501500D02*
D03*
X506500D02*
D03*
X511500D02*
D03*
Y313750D02*
D03*
X506500D02*
D03*
X501500D02*
D03*
X496500D02*
D03*
D51*
X517250Y332214D02*
D03*
Y327214D02*
D03*
Y322214D02*
D03*
X490750Y321960D02*
D03*
Y326960D02*
D03*
Y331960D02*
D03*
D52*
X504000Y327000D02*
D03*
D53*
X449500Y492000D02*
D03*
X468500D02*
D03*
D54*
X568030Y364000D02*
D03*
Y371500D02*
D03*
X568000Y418500D02*
D03*
X568030Y426000D02*
D03*
D55*
Y377500D02*
D03*
Y382500D02*
D03*
Y387500D02*
D03*
Y392500D02*
D03*
X568000Y397500D02*
D03*
X568030Y402500D02*
D03*
Y407500D02*
D03*
Y412500D02*
D03*
D56*
X343300Y335000D02*
D03*
X358700D02*
D03*
D57*
X280500Y337500D02*
D03*
Y396500D02*
D03*
X243500D02*
D03*
Y337500D02*
D03*
D58*
X452000Y448500D02*
D03*
X447000D02*
D03*
X442000D02*
D03*
X437000D02*
D03*
X432000D02*
D03*
X427000D02*
D03*
X422000D02*
D03*
X417000D02*
D03*
X412000D02*
D03*
X407000D02*
D03*
X402000D02*
D03*
X397000D02*
D03*
X392000D02*
D03*
X387000D02*
D03*
X382000D02*
D03*
X377000D02*
D03*
X452000Y334500D02*
D03*
X447000D02*
D03*
X442000D02*
D03*
X437000D02*
D03*
X432000D02*
D03*
X427000D02*
D03*
X422000D02*
D03*
X417000D02*
D03*
X412000D02*
D03*
X407000D02*
D03*
X402000D02*
D03*
X397000D02*
D03*
X392000D02*
D03*
X387000D02*
D03*
X382000D02*
D03*
X377000D02*
D03*
X386500Y350250D02*
D03*
X391500D02*
D03*
X396500D02*
D03*
X401500D02*
D03*
X406500D02*
D03*
X411500D02*
D03*
X416500D02*
D03*
X421500D02*
D03*
X426500D02*
D03*
X431500D02*
D03*
X436500D02*
D03*
X441500D02*
D03*
X386500Y433750D02*
D03*
X391500D02*
D03*
X396500D02*
D03*
X401500D02*
D03*
X406500D02*
D03*
X411500D02*
D03*
X416500D02*
D03*
X421500D02*
D03*
X426500D02*
D03*
X431500D02*
D03*
X436500D02*
D03*
X441500D02*
D03*
D59*
X471500Y354000D02*
D03*
Y359000D02*
D03*
Y364000D02*
D03*
Y369000D02*
D03*
Y374000D02*
D03*
Y379000D02*
D03*
Y384000D02*
D03*
Y389000D02*
D03*
Y394000D02*
D03*
Y399000D02*
D03*
Y404000D02*
D03*
Y409000D02*
D03*
Y414000D02*
D03*
Y419000D02*
D03*
Y424000D02*
D03*
Y429000D02*
D03*
X357080Y354000D02*
D03*
Y359000D02*
D03*
Y364000D02*
D03*
Y369000D02*
D03*
Y374000D02*
D03*
Y379000D02*
D03*
Y384000D02*
D03*
Y389000D02*
D03*
Y394000D02*
D03*
Y399000D02*
D03*
Y404000D02*
D03*
Y409000D02*
D03*
Y414000D02*
D03*
Y419000D02*
D03*
Y424000D02*
D03*
Y429000D02*
D03*
X372250Y419500D02*
D03*
X372250Y414500D02*
D03*
X372250Y409500D02*
D03*
X372250Y404500D02*
D03*
Y399500D02*
D03*
Y394500D02*
D03*
Y389500D02*
D03*
Y384500D02*
D03*
X372250Y379500D02*
D03*
X372250Y374500D02*
D03*
Y369500D02*
D03*
Y364500D02*
D03*
X455750Y419500D02*
D03*
Y414500D02*
D03*
Y409500D02*
D03*
Y404500D02*
D03*
Y399500D02*
D03*
Y394500D02*
D03*
Y389500D02*
D03*
Y384500D02*
D03*
Y379500D02*
D03*
Y374500D02*
D03*
Y369500D02*
D03*
Y364500D02*
D03*
D60*
X310600Y407500D02*
D03*
Y370500D02*
D03*
D61*
X601000Y314000D02*
D03*
X579000Y365000D02*
D03*
Y425000D02*
D03*
D62*
X571830Y351800D02*
D03*
Y438300D02*
D03*
D63*
X610430Y351800D02*
D03*
Y438300D02*
D03*
M02*
