G04*
G04 #@! TF.GenerationSoftware,Altium Limited,Altium Designer,18.1.7 (191)*
G04*
G04 Layer_Color=255*
%FSLAX44Y44*%
%MOMM*%
G71*
G01*
G75*
%ADD123C,1.1520*%
%ADD124C,1.5080*%
%ADD125R,1.5080X1.5080*%
%ADD126C,1.3980*%
%ADD127C,2.3550*%
%ADD128C,3.2500*%
%ADD129R,1.3980X1.3980*%
%ADD130R,1.2000X2.0000*%
%ADD131R,1.2000X2.3000*%
%ADD134R,3.0000X0.3500*%
D123*
X1050000Y315000D02*
D03*
X340000Y439000D02*
D03*
X1050000Y470000D02*
D03*
D124*
X688800Y442680D02*
D03*
X739600D02*
D03*
X815800D02*
D03*
D125*
X841200D02*
D03*
D126*
X928700Y440500D02*
D03*
Y463400D02*
D03*
Y349100D02*
D03*
Y326200D02*
D03*
X977000Y359200D02*
D03*
X994800Y369400D02*
D03*
X977000Y379600D02*
D03*
X994800Y389800D02*
D03*
X977000Y400000D02*
D03*
X994800Y410200D02*
D03*
X977000Y420400D02*
D03*
D127*
X985900Y476100D02*
D03*
Y313500D02*
D03*
D128*
X1020200Y458300D02*
D03*
Y331300D02*
D03*
D129*
X994800Y430600D02*
D03*
D130*
X631200Y441830D02*
D03*
X544700D02*
D03*
D131*
X631200Y480430D02*
D03*
X544700D02*
D03*
D134*
X184750Y325000D02*
D03*
Y460000D02*
D03*
Y455000D02*
D03*
Y450000D02*
D03*
Y445000D02*
D03*
Y485250D02*
D03*
Y465250D02*
D03*
Y475250D02*
D03*
Y470250D02*
D03*
Y480250D02*
D03*
Y440000D02*
D03*
Y430000D02*
D03*
Y410000D02*
D03*
Y390000D02*
D03*
Y370000D02*
D03*
Y350000D02*
D03*
Y310000D02*
D03*
Y435000D02*
D03*
Y415000D02*
D03*
Y425000D02*
D03*
Y420000D02*
D03*
Y395000D02*
D03*
Y405000D02*
D03*
Y400000D02*
D03*
Y375000D02*
D03*
Y385000D02*
D03*
Y380000D02*
D03*
Y355000D02*
D03*
Y365000D02*
D03*
Y360000D02*
D03*
Y315000D02*
D03*
Y320000D02*
D03*
Y305000D02*
D03*
M02*
