G04*
G04 #@! TF.GenerationSoftware,Altium Limited,Altium Designer,18.1.7 (191)*
G04*
G04 Layer_Color=8388736*
%FSLAX44Y44*%
%MOMM*%
G71*
G01*
G75*
%ADD48R,2.8750X3.6750*%
%ADD49R,2.8750X14.9250*%
%ADD50R,0.8032X0.8032*%
%ADD51R,0.8032X0.8032*%
%ADD52R,1.3032X2.2032*%
%ADD53R,1.9032X0.8532*%
%ADD54O,1.9032X0.8532*%
%ADD55R,1.3532X0.8032*%
%ADD56R,1.3532X0.5032*%
%ADD57R,2.8032X1.9032*%
%ADD58R,1.9032X1.1032*%
%ADD59R,2.7032X1.1032*%
%ADD60R,0.6532X1.2032*%
%ADD61R,1.0032X1.0032*%
%ADD62R,1.2032X0.6532*%
%ADD63R,1.7032X1.4032*%
%ADD64R,1.1332X1.1832*%
%ADD65R,0.4832X0.4832*%
%ADD66O,0.4832X0.8632*%
%ADD67O,0.8632X0.4832*%
%ADD68R,1.4532X1.4532*%
%ADD69R,1.5032X1.7032*%
%ADD70R,1.7032X1.5032*%
%ADD71R,2.4532X0.5532*%
%ADD72R,0.8032X1.3532*%
%ADD73R,0.5032X1.3532*%
%ADD74R,0.9032X1.3032*%
G04:AMPARAMS|DCode=75|XSize=0.5032mm|YSize=1.0032mm|CornerRadius=0.1766mm|HoleSize=0mm|Usage=FLASHONLY|Rotation=180.000|XOffset=0mm|YOffset=0mm|HoleType=Round|Shape=RoundedRectangle|*
%AMROUNDEDRECTD75*
21,1,0.5032,0.6500,0,0,180.0*
21,1,0.1500,1.0032,0,0,180.0*
1,1,0.3532,-0.0750,0.3250*
1,1,0.3532,0.0750,0.3250*
1,1,0.3532,0.0750,-0.3250*
1,1,0.3532,-0.0750,-0.3250*
%
%ADD75ROUNDEDRECTD75*%
G04:AMPARAMS|DCode=76|XSize=0.5032mm|YSize=1.0032mm|CornerRadius=0.1766mm|HoleSize=0mm|Usage=FLASHONLY|Rotation=90.000|XOffset=0mm|YOffset=0mm|HoleType=Round|Shape=RoundedRectangle|*
%AMROUNDEDRECTD76*
21,1,0.5032,0.6500,0,0,90.0*
21,1,0.1500,1.0032,0,0,90.0*
1,1,0.3532,0.3250,0.0750*
1,1,0.3532,0.3250,-0.0750*
1,1,0.3532,-0.3250,-0.0750*
1,1,0.3532,-0.3250,0.0750*
%
%ADD76ROUNDEDRECTD76*%
%ADD77R,2.6032X1.9032*%
%ADD78R,1.1832X1.1332*%
%ADD79R,1.6032X1.4032*%
%ADD80R,1.8732X0.9632*%
%ADD81C,1.7272*%
%ADD82C,0.2032*%
%ADD83R,1.7272X1.7272*%
%ADD84R,2.2032X1.4032*%
%ADD85R,2.5032X1.4032*%
%ADD86C,1.6012*%
%ADD87C,2.5582*%
%ADD88C,3.4532*%
%ADD89R,1.6012X1.6012*%
%ADD90C,1.3552*%
%ADD91R,1.4032X2.2032*%
%ADD92R,1.4032X2.5032*%
D48*
X180125Y314125D02*
D03*
D49*
X180375Y419625D02*
D03*
D50*
X558080Y307000D02*
D03*
X547920D02*
D03*
X558080Y316000D02*
D03*
X547920D02*
D03*
X719920Y442000D02*
D03*
X730080D02*
D03*
X762920Y481000D02*
D03*
X773080D02*
D03*
X762920Y491000D02*
D03*
X773080D02*
D03*
X762080Y457000D02*
D03*
X751920D02*
D03*
X762080Y470000D02*
D03*
X751920D02*
D03*
X526080Y450000D02*
D03*
X515920D02*
D03*
X495920Y407000D02*
D03*
X506080D02*
D03*
X564080Y328000D02*
D03*
X553920D02*
D03*
X258420Y404000D02*
D03*
X268580D02*
D03*
X461920Y470000D02*
D03*
X472080D02*
D03*
X476080Y326000D02*
D03*
X465920D02*
D03*
X350920Y451000D02*
D03*
X361080D02*
D03*
X476080Y316000D02*
D03*
X465920D02*
D03*
X316080Y434000D02*
D03*
X305920D02*
D03*
Y423000D02*
D03*
X316080D02*
D03*
Y445000D02*
D03*
X305920D02*
D03*
X536080Y294000D02*
D03*
X525920D02*
D03*
X490080Y298000D02*
D03*
X479920D02*
D03*
X280920Y430000D02*
D03*
X291080D02*
D03*
X257920Y330000D02*
D03*
X268080D02*
D03*
X515920Y437000D02*
D03*
X526080D02*
D03*
X431080Y312000D02*
D03*
X420920D02*
D03*
X578080Y306000D02*
D03*
X567920D02*
D03*
X836920Y362000D02*
D03*
X847080D02*
D03*
X836920Y337000D02*
D03*
X847080D02*
D03*
X836920Y349000D02*
D03*
X847080D02*
D03*
X703920Y393000D02*
D03*
X714080D02*
D03*
X703920Y414000D02*
D03*
X714080D02*
D03*
X703920Y383000D02*
D03*
X714080D02*
D03*
X578080Y297000D02*
D03*
X567920D02*
D03*
X578080Y316000D02*
D03*
X567920D02*
D03*
Y370000D02*
D03*
X578080D02*
D03*
X567920Y360000D02*
D03*
X578080D02*
D03*
X703920Y373000D02*
D03*
X714080D02*
D03*
X715080Y336000D02*
D03*
X704920D02*
D03*
X714080Y363000D02*
D03*
X703920D02*
D03*
X714080Y403000D02*
D03*
X703920D02*
D03*
X564080Y338000D02*
D03*
X553920D02*
D03*
X578080Y348000D02*
D03*
X567920D02*
D03*
D51*
X752000Y491080D02*
D03*
Y480920D02*
D03*
X709000Y442080D02*
D03*
Y431920D02*
D03*
X663000Y467080D02*
D03*
Y456920D02*
D03*
X773000D02*
D03*
Y467080D02*
D03*
X646000Y442080D02*
D03*
Y431920D02*
D03*
X294000Y342920D02*
D03*
Y353080D02*
D03*
X524000Y378080D02*
D03*
Y367920D02*
D03*
X334000Y361920D02*
D03*
Y372080D02*
D03*
X482000Y447080D02*
D03*
Y436920D02*
D03*
X543000Y357920D02*
D03*
Y368080D02*
D03*
X504000Y447080D02*
D03*
Y436920D02*
D03*
X294000Y446920D02*
D03*
Y457080D02*
D03*
X282000Y446920D02*
D03*
Y457080D02*
D03*
X493000Y447080D02*
D03*
Y436920D02*
D03*
X334000Y382920D02*
D03*
Y393080D02*
D03*
X524000Y347920D02*
D03*
Y358080D02*
D03*
X837000Y387080D02*
D03*
Y376920D02*
D03*
X578000Y327920D02*
D03*
Y338080D02*
D03*
X690000Y395920D02*
D03*
Y406080D02*
D03*
X554000Y347920D02*
D03*
Y358080D02*
D03*
X604000Y395920D02*
D03*
Y406080D02*
D03*
X615000Y395920D02*
D03*
Y406080D02*
D03*
X626000D02*
D03*
Y395920D02*
D03*
X640000D02*
D03*
Y406080D02*
D03*
X654000Y395920D02*
D03*
Y406080D02*
D03*
X668000Y396000D02*
D03*
Y406160D02*
D03*
X679000Y395920D02*
D03*
Y406080D02*
D03*
D52*
X695000Y435000D02*
D03*
X659000D02*
D03*
D53*
X846000Y456900D02*
D03*
X735000Y457000D02*
D03*
D54*
X846000Y469600D02*
D03*
Y482300D02*
D03*
Y495000D02*
D03*
X790000Y456900D02*
D03*
Y469600D02*
D03*
Y482300D02*
D03*
Y495000D02*
D03*
X735000Y469700D02*
D03*
Y482400D02*
D03*
Y495100D02*
D03*
X679000Y457000D02*
D03*
Y469700D02*
D03*
Y482400D02*
D03*
Y495100D02*
D03*
D55*
X1012030Y364000D02*
D03*
Y371500D02*
D03*
X1012000Y418500D02*
D03*
X1012030Y426000D02*
D03*
D56*
Y377500D02*
D03*
Y382500D02*
D03*
Y387500D02*
D03*
Y392500D02*
D03*
X1012000Y397500D02*
D03*
X1012030Y402500D02*
D03*
Y407500D02*
D03*
Y412500D02*
D03*
D57*
X518000Y478000D02*
D03*
D58*
X492000Y463000D02*
D03*
Y494000D02*
D03*
D59*
X496000Y478000D02*
D03*
D60*
X881000Y379000D02*
D03*
Y357000D02*
D03*
X901000Y379000D02*
D03*
Y357000D02*
D03*
Y343000D02*
D03*
Y321000D02*
D03*
X881000Y343000D02*
D03*
Y321000D02*
D03*
X901000Y431000D02*
D03*
Y453000D02*
D03*
X881000Y431000D02*
D03*
Y453000D02*
D03*
X901000Y395000D02*
D03*
Y417000D02*
D03*
X881000Y395000D02*
D03*
Y417000D02*
D03*
D61*
X269000Y416000D02*
D03*
X255000D02*
D03*
X269300Y430000D02*
D03*
X255300D02*
D03*
X269300Y443000D02*
D03*
X255300D02*
D03*
X269300Y456000D02*
D03*
X255300D02*
D03*
D62*
X306500Y349500D02*
D03*
X328500D02*
D03*
X306500Y333000D02*
D03*
X328500D02*
D03*
D63*
X862000Y400954D02*
D03*
Y373046D02*
D03*
Y325046D02*
D03*
Y352954D02*
D03*
D64*
X698300Y350000D02*
D03*
X713700D02*
D03*
X698300Y323000D02*
D03*
X713700D02*
D03*
X343300Y335000D02*
D03*
X358700D02*
D03*
D65*
X496500Y342150D02*
D03*
X501500D02*
D03*
X506500D02*
D03*
X511500D02*
D03*
X519150Y332214D02*
D03*
Y327214D02*
D03*
Y322214D02*
D03*
X511500Y311850D02*
D03*
X506500D02*
D03*
X501500D02*
D03*
X496500D02*
D03*
X488850Y321960D02*
D03*
Y326960D02*
D03*
Y331960D02*
D03*
D66*
X496500Y340250D02*
D03*
X501500D02*
D03*
X506500D02*
D03*
X511500D02*
D03*
Y313750D02*
D03*
X506500D02*
D03*
X501500D02*
D03*
X496500D02*
D03*
D67*
X517250Y332214D02*
D03*
Y327214D02*
D03*
Y322214D02*
D03*
X490750Y321960D02*
D03*
Y326960D02*
D03*
Y331960D02*
D03*
D68*
X504000Y327000D02*
D03*
D69*
X449500Y492000D02*
D03*
X468500D02*
D03*
D70*
X842000Y438500D02*
D03*
Y419500D02*
D03*
X862000Y438500D02*
D03*
Y419500D02*
D03*
D71*
X181000Y457500D02*
D03*
Y452500D02*
D03*
Y447500D02*
D03*
Y442500D02*
D03*
Y302500D02*
D03*
Y307500D02*
D03*
Y312500D02*
D03*
Y317500D02*
D03*
Y322500D02*
D03*
Y327500D02*
D03*
Y352500D02*
D03*
Y357500D02*
D03*
Y362500D02*
D03*
Y367500D02*
D03*
Y372500D02*
D03*
Y377500D02*
D03*
Y382500D02*
D03*
Y387500D02*
D03*
Y392500D02*
D03*
Y397500D02*
D03*
Y402500D02*
D03*
Y407500D02*
D03*
Y412500D02*
D03*
Y417500D02*
D03*
Y422500D02*
D03*
Y427500D02*
D03*
Y432500D02*
D03*
Y437500D02*
D03*
Y462500D02*
D03*
Y487500D02*
D03*
Y482500D02*
D03*
Y477500D02*
D03*
Y472500D02*
D03*
Y467500D02*
D03*
D72*
X618300Y437600D02*
D03*
X610800D02*
D03*
X563800Y437570D02*
D03*
X556300Y437600D02*
D03*
D73*
X604800D02*
D03*
X599800D02*
D03*
X594800D02*
D03*
X589800D02*
D03*
X584800Y437570D02*
D03*
X579800Y437600D02*
D03*
X574800D02*
D03*
X569800D02*
D03*
D74*
X280500Y337500D02*
D03*
Y396500D02*
D03*
X243500D02*
D03*
Y337500D02*
D03*
D75*
X452000Y448500D02*
D03*
X447000D02*
D03*
X442000D02*
D03*
X437000D02*
D03*
X432000D02*
D03*
X427000D02*
D03*
X422000D02*
D03*
X417000D02*
D03*
X412000D02*
D03*
X407000D02*
D03*
X402000D02*
D03*
X397000D02*
D03*
X392000D02*
D03*
X387000D02*
D03*
X382000D02*
D03*
X377000D02*
D03*
X452000Y334500D02*
D03*
X447000D02*
D03*
X442000D02*
D03*
X437000D02*
D03*
X432000D02*
D03*
X427000D02*
D03*
X422000D02*
D03*
X417000D02*
D03*
X412000D02*
D03*
X407000D02*
D03*
X402000D02*
D03*
X397000D02*
D03*
X392000D02*
D03*
X387000D02*
D03*
X382000D02*
D03*
X377000D02*
D03*
X386500Y350250D02*
D03*
X391500D02*
D03*
X396500D02*
D03*
X401500D02*
D03*
X406500D02*
D03*
X411500D02*
D03*
X416500D02*
D03*
X421500D02*
D03*
X426500D02*
D03*
X431500D02*
D03*
X436500D02*
D03*
X441500D02*
D03*
X386500Y433750D02*
D03*
X391500D02*
D03*
X396500D02*
D03*
X401500D02*
D03*
X406500D02*
D03*
X411500D02*
D03*
X416500D02*
D03*
X421500D02*
D03*
X426500D02*
D03*
X431500D02*
D03*
X436500D02*
D03*
X441500D02*
D03*
X661500Y382750D02*
D03*
X656500D02*
D03*
X651500D02*
D03*
X646500D02*
D03*
X641500D02*
D03*
X636500D02*
D03*
X631500D02*
D03*
X626500D02*
D03*
X621500D02*
D03*
X616500D02*
D03*
X611500D02*
D03*
X606500D02*
D03*
X661500Y299250D02*
D03*
X656500D02*
D03*
X651500D02*
D03*
X646500D02*
D03*
X641500D02*
D03*
X636500D02*
D03*
X631500D02*
D03*
X626500D02*
D03*
X621500D02*
D03*
X616500D02*
D03*
X611500D02*
D03*
X606500D02*
D03*
D76*
X471500Y354000D02*
D03*
Y359000D02*
D03*
Y364000D02*
D03*
Y369000D02*
D03*
Y374000D02*
D03*
Y379000D02*
D03*
Y384000D02*
D03*
Y389000D02*
D03*
Y394000D02*
D03*
Y399000D02*
D03*
Y404000D02*
D03*
Y409000D02*
D03*
Y414000D02*
D03*
Y419000D02*
D03*
Y424000D02*
D03*
Y429000D02*
D03*
X357080Y354000D02*
D03*
Y359000D02*
D03*
Y364000D02*
D03*
Y369000D02*
D03*
Y374000D02*
D03*
Y379000D02*
D03*
Y384000D02*
D03*
Y389000D02*
D03*
Y394000D02*
D03*
Y399000D02*
D03*
Y404000D02*
D03*
Y409000D02*
D03*
Y414000D02*
D03*
Y419000D02*
D03*
Y424000D02*
D03*
Y429000D02*
D03*
X372250Y419500D02*
D03*
X372250Y414500D02*
D03*
X372250Y409500D02*
D03*
X372250Y404500D02*
D03*
Y399500D02*
D03*
Y394500D02*
D03*
Y389500D02*
D03*
Y384500D02*
D03*
X372250Y379500D02*
D03*
X372250Y374500D02*
D03*
Y369500D02*
D03*
Y364500D02*
D03*
X455750Y419500D02*
D03*
Y414500D02*
D03*
Y409500D02*
D03*
Y404500D02*
D03*
Y399500D02*
D03*
Y394500D02*
D03*
Y389500D02*
D03*
Y384500D02*
D03*
Y379500D02*
D03*
Y374500D02*
D03*
Y369500D02*
D03*
Y364500D02*
D03*
X675750Y313500D02*
D03*
X675750Y318500D02*
D03*
X675750Y323500D02*
D03*
X675750Y328500D02*
D03*
Y333500D02*
D03*
Y338500D02*
D03*
Y343500D02*
D03*
Y348500D02*
D03*
X675750Y353500D02*
D03*
X675750Y358500D02*
D03*
Y363500D02*
D03*
Y368500D02*
D03*
X592250Y313500D02*
D03*
Y318500D02*
D03*
Y323500D02*
D03*
Y328500D02*
D03*
Y333500D02*
D03*
Y338500D02*
D03*
Y343500D02*
D03*
Y348500D02*
D03*
Y353500D02*
D03*
Y358500D02*
D03*
Y363500D02*
D03*
Y368500D02*
D03*
D77*
X310600Y407500D02*
D03*
Y370500D02*
D03*
D78*
X545000Y394700D02*
D03*
Y379300D02*
D03*
D79*
X586000Y387000D02*
D03*
Y404000D02*
D03*
X564000D02*
D03*
Y387000D02*
D03*
D80*
X735350Y425450D02*
D03*
Y412750D02*
D03*
Y400050D02*
D03*
Y387350D02*
D03*
Y374650D02*
D03*
Y361950D02*
D03*
Y349250D02*
D03*
Y336550D02*
D03*
X820650D02*
D03*
Y349250D02*
D03*
Y361950D02*
D03*
Y374650D02*
D03*
Y387350D02*
D03*
Y400050D02*
D03*
Y412750D02*
D03*
Y425450D02*
D03*
D81*
X765600Y297000D02*
D03*
X460800D02*
D03*
X791000D02*
D03*
X816400D02*
D03*
X841800D02*
D03*
X867200D02*
D03*
X435400D02*
D03*
D82*
X384600D02*
D03*
X410000D02*
D03*
X887000Y481000D02*
D03*
X1023000Y365000D02*
D03*
Y425000D02*
D03*
Y425000D02*
D03*
Y365000D02*
D03*
X617300Y448570D02*
D03*
X557300D02*
D03*
D83*
X892600Y297000D02*
D03*
D84*
X1015830Y351800D02*
D03*
Y438300D02*
D03*
Y438200D02*
D03*
Y351700D02*
D03*
D85*
X1054430Y351800D02*
D03*
Y438300D02*
D03*
Y438200D02*
D03*
Y351700D02*
D03*
D86*
X928700Y440500D02*
D03*
Y463400D02*
D03*
Y349100D02*
D03*
Y326200D02*
D03*
X977000Y359200D02*
D03*
X994800Y369400D02*
D03*
X977000Y379600D02*
D03*
X994800Y389800D02*
D03*
X977000Y400000D02*
D03*
X994800Y410200D02*
D03*
X977000Y420400D02*
D03*
D87*
X985900Y476100D02*
D03*
Y313500D02*
D03*
D88*
X1020200Y458300D02*
D03*
Y331300D02*
D03*
D89*
X994800Y430600D02*
D03*
D90*
X1040000Y299000D02*
D03*
Y489000D02*
D03*
X340000Y439000D02*
D03*
X1050000Y315000D02*
D03*
Y470000D02*
D03*
D91*
X630500Y441400D02*
D03*
X544000D02*
D03*
D92*
X630500Y480000D02*
D03*
X544000D02*
D03*
M02*
