G04*
G04 #@! TF.GenerationSoftware,Altium Limited,Altium Designer,18.1.7 (191)*
G04*
G04 Layer_Physical_Order=2*
G04 Layer_Color=16711680*
%FSLAX44Y44*%
%MOMM*%
G71*
G01*
G75*
%ADD10C,0.2000*%
%ADD13C,0.1500*%
%ADD80C,0.4000*%
%ADD123C,1.1520*%
%ADD124C,1.5080*%
%ADD125R,1.5080X1.5080*%
%ADD126C,1.3980*%
%ADD127C,2.3550*%
%ADD128C,3.2500*%
%ADD129R,1.3980X1.3980*%
%ADD130R,1.2000X2.0000*%
%ADD131R,1.2000X2.3000*%
%ADD132C,0.5080*%
%ADD133C,1.0000*%
%ADD134R,3.0000X0.3500*%
%ADD135R,2.8000X3.8000*%
%ADD136R,24.9000X1.7000*%
%ADD137R,2.5000X1.1000*%
%ADD138R,0.7000X9.3000*%
%ADD139R,6.9000X1.0000*%
%ADD140R,1.3000X3.2000*%
%ADD141R,2.7000X3.1000*%
%ADD142R,37.7000X1.0000*%
%ADD143R,2.3000X2.1000*%
G36*
X410427Y457874D02*
Y430000D01*
X410622Y429015D01*
X411180Y428180D01*
X456517Y382844D01*
X455991Y381573D01*
X414000D01*
X413015Y381378D01*
X412180Y380820D01*
X377260Y345899D01*
X375882Y346317D01*
X375828Y346586D01*
X374930Y347930D01*
X373586Y348828D01*
X372000Y349144D01*
X370414Y348828D01*
X369070Y347930D01*
X368172Y346586D01*
X368169Y346573D01*
X337009D01*
X336483Y347843D01*
X340066Y351427D01*
X344832D01*
X345070Y351070D01*
X346414Y350172D01*
X348000Y349856D01*
X349586Y350172D01*
X350930Y351070D01*
X351828Y352414D01*
X352144Y354000D01*
X351828Y355586D01*
X350930Y356930D01*
X349586Y357828D01*
X348250Y358094D01*
X347782Y359000D01*
X348250Y359906D01*
X349586Y360172D01*
X350930Y361070D01*
X351828Y362414D01*
X352144Y364000D01*
X351828Y365586D01*
X350930Y366930D01*
X349586Y367828D01*
X348000Y368144D01*
X347882Y368120D01*
X347373Y368686D01*
X348000Y369856D01*
X349586Y370172D01*
X350930Y371070D01*
X351828Y372414D01*
X352144Y374000D01*
X351828Y375586D01*
X350930Y376930D01*
X349586Y377828D01*
X348000Y378144D01*
X347292Y379000D01*
X348000Y379856D01*
X349586Y380172D01*
X350930Y381070D01*
X351828Y382414D01*
X352144Y384000D01*
X351828Y385586D01*
X350930Y386930D01*
X349586Y387828D01*
X348000Y388144D01*
X347292Y389000D01*
X348000Y389856D01*
X349586Y390172D01*
X350930Y391070D01*
X351828Y392414D01*
X352144Y394000D01*
X351914Y395157D01*
X352677Y396427D01*
X354000D01*
X354985Y396622D01*
X355820Y397180D01*
X357820Y399180D01*
X358378Y400015D01*
X358573Y401000D01*
Y406000D01*
X358378Y406985D01*
X357820Y407820D01*
X354820Y410820D01*
X353985Y411378D01*
X353000Y411573D01*
X352677D01*
X351914Y412844D01*
X352144Y414000D01*
X351828Y415586D01*
X350930Y416930D01*
X349586Y417828D01*
X348000Y418144D01*
X346414Y417828D01*
X345070Y416930D01*
X344832Y416573D01*
X338066D01*
X327820Y426820D01*
X326985Y427378D01*
X326000Y427573D01*
X264066D01*
X259386Y432253D01*
X259872Y433427D01*
X320832D01*
X321070Y433070D01*
X322414Y432172D01*
X324000Y431856D01*
X325586Y432172D01*
X326930Y433070D01*
X327828Y434414D01*
X328144Y436000D01*
X327828Y437586D01*
X326930Y438930D01*
X325586Y439828D01*
X324000Y440144D01*
X322414Y439828D01*
X321070Y438930D01*
X320832Y438573D01*
X298872D01*
X298386Y439747D01*
X305579Y446940D01*
X306000Y446856D01*
X307586Y447172D01*
X308930Y448070D01*
X309828Y449414D01*
X310144Y451000D01*
X310060Y451421D01*
X313066Y454426D01*
X398832D01*
X399070Y454070D01*
X400414Y453172D01*
X402000Y452856D01*
X403586Y453172D01*
X404930Y454070D01*
X405828Y455414D01*
X406092Y456742D01*
X406602Y457398D01*
X407258Y457908D01*
X408586Y458172D01*
X409157Y458553D01*
X410427Y457874D01*
D02*
G37*
G36*
X755000Y502000D02*
X755000Y296573D01*
X684066D01*
X608820Y371820D01*
X607985Y372378D01*
X607000Y372573D01*
X579942D01*
X579263Y373843D01*
X579378Y374015D01*
X579573Y375000D01*
Y398832D01*
X579930Y399070D01*
X580828Y400414D01*
X581144Y402000D01*
X580828Y403586D01*
X579930Y404930D01*
X578586Y405828D01*
X577000Y406144D01*
X575414Y405828D01*
X574070Y404930D01*
X573172Y403586D01*
X572856Y402000D01*
X573172Y400414D01*
X574070Y399070D01*
X574426Y398832D01*
Y377573D01*
X555000D01*
X554843Y377542D01*
X553573Y378494D01*
Y380832D01*
X553930Y381070D01*
X554828Y382414D01*
X555144Y384000D01*
X554828Y385586D01*
X553930Y386930D01*
X552586Y387828D01*
X551000Y388144D01*
X549414Y387828D01*
X548070Y386930D01*
X547172Y385586D01*
X546856Y384000D01*
X547172Y382414D01*
X548070Y381070D01*
X548427Y380832D01*
Y354000D01*
X548622Y353015D01*
X549180Y352180D01*
X550015Y351622D01*
X551000Y351427D01*
X563427D01*
Y331000D01*
X563622Y330015D01*
X564180Y329180D01*
X566940Y326421D01*
X566856Y326000D01*
X567172Y324414D01*
X568070Y323070D01*
X569414Y322172D01*
X571000Y321856D01*
X572586Y322172D01*
X573930Y323070D01*
X574828Y324414D01*
X575144Y326000D01*
X574828Y327586D01*
X573930Y328930D01*
X572586Y329828D01*
X571000Y330144D01*
X570882Y330120D01*
X570372Y330686D01*
X571000Y331856D01*
X572586Y332172D01*
X573930Y333070D01*
X574828Y334414D01*
X575144Y336000D01*
X574828Y337586D01*
X573930Y338930D01*
X573573Y339168D01*
Y358000D01*
X573378Y358985D01*
X573263Y359156D01*
X573942Y360426D01*
X606934D01*
X678341Y289020D01*
X677814Y287750D01*
X233000Y287750D01*
Y295000D01*
X211000Y295000D01*
X203000Y303000D01*
X201000D01*
Y327000D01*
X213000D01*
X233000Y307000D01*
Y307701D01*
X234173Y308187D01*
X243180Y299180D01*
X244015Y298622D01*
X245000Y298427D01*
X432839D01*
X433823Y298622D01*
X434658Y299180D01*
X449820Y314342D01*
X450378Y315177D01*
X450573Y316161D01*
Y330934D01*
X465066Y345426D01*
X469533D01*
X469914Y345172D01*
X471500Y344856D01*
X473086Y345172D01*
X474430Y346070D01*
X475328Y347414D01*
X475644Y349000D01*
X475328Y350586D01*
X474430Y351930D01*
X473086Y352828D01*
X471500Y353144D01*
X469914Y352828D01*
X468570Y351930D01*
X467672Y350586D01*
X467669Y350573D01*
X464000D01*
X463015Y350378D01*
X462180Y349820D01*
X446180Y333820D01*
X445622Y332985D01*
X445426Y332000D01*
Y329126D01*
X444156Y328447D01*
X443586Y328828D01*
X442000Y329144D01*
X440414Y328828D01*
X439070Y327930D01*
X438172Y326586D01*
X437908Y325258D01*
X437589Y324847D01*
X436539Y324877D01*
X436120Y325118D01*
X435828Y326586D01*
X434930Y327930D01*
X433586Y328828D01*
X432000Y329144D01*
X431580Y329060D01*
X430820Y329820D01*
X429985Y330378D01*
X429000Y330574D01*
X420000D01*
X419015Y330378D01*
X418180Y329820D01*
X412030Y323669D01*
X385072D01*
X384546Y324939D01*
X416033Y356427D01*
X476832D01*
X477070Y356070D01*
X478414Y355172D01*
X480000Y354856D01*
X481586Y355172D01*
X482930Y356070D01*
X483168Y356427D01*
X490299D01*
X490684Y355157D01*
X490180Y354820D01*
X470180Y334820D01*
X469622Y333985D01*
X469426Y333000D01*
Y323830D01*
X469402Y323820D01*
X468157Y323619D01*
X467541Y324541D01*
X463911Y328171D01*
X463828Y328586D01*
X462930Y329930D01*
X461586Y330828D01*
X460000Y331144D01*
X458414Y330828D01*
X457070Y329930D01*
X456172Y328586D01*
X455856Y327000D01*
X456172Y325414D01*
X457070Y324070D01*
X458414Y323172D01*
X458829Y323089D01*
X461407Y320512D01*
Y308000D01*
X461680Y306625D01*
X462459Y305459D01*
X463625Y304681D01*
X465000Y304407D01*
X480000D01*
X481375Y304681D01*
X482541Y305459D01*
X483320Y306625D01*
X483593Y308000D01*
Y327512D01*
X491488Y335407D01*
X496062D01*
X496414Y335172D01*
X498000Y334856D01*
X499586Y335172D01*
X500157Y335553D01*
X501427Y334874D01*
Y316677D01*
X500157Y315914D01*
X499000Y316144D01*
X497414Y315828D01*
X496070Y314930D01*
X495172Y313586D01*
X494856Y312000D01*
X495172Y310414D01*
X496070Y309070D01*
X497414Y308172D01*
X499000Y307856D01*
X500586Y308172D01*
X501930Y309070D01*
X502168Y309426D01*
X504000D01*
X504985Y309622D01*
X505820Y310180D01*
X506378Y311015D01*
X506573Y312000D01*
Y320128D01*
X507747Y320614D01*
X528180Y300180D01*
X529015Y299622D01*
X530000Y299427D01*
X618000D01*
X618985Y299622D01*
X619820Y300180D01*
X631820Y312180D01*
X632378Y313015D01*
X632574Y314000D01*
Y325000D01*
X632378Y325985D01*
X631820Y326820D01*
X627820Y330820D01*
X626985Y331378D01*
X626000Y331573D01*
X621168D01*
X620930Y331930D01*
X619586Y332828D01*
X618000Y333144D01*
X616414Y332828D01*
X615070Y331930D01*
X614172Y330586D01*
X613856Y329000D01*
X614172Y327414D01*
X615070Y326070D01*
X616414Y325172D01*
X618000Y324856D01*
X619072Y325070D01*
X619102Y325056D01*
X620056Y324102D01*
X620070Y324072D01*
X619856Y323000D01*
X620070Y321928D01*
X620056Y321898D01*
X619102Y320944D01*
X619072Y320930D01*
X618000Y321144D01*
X616414Y320828D01*
X615070Y319930D01*
X614172Y318586D01*
X613856Y317000D01*
X614172Y315414D01*
X614814Y314453D01*
X612934Y312573D01*
X535066D01*
X518573Y329066D01*
Y330874D01*
X519843Y331553D01*
X520414Y331172D01*
X522000Y330856D01*
X522421Y330940D01*
X524180Y329180D01*
X525015Y328622D01*
X526000Y328427D01*
X543832D01*
X544070Y328070D01*
X545414Y327172D01*
X547000Y326856D01*
X548586Y327172D01*
X549930Y328070D01*
X550828Y329414D01*
X551144Y331000D01*
X550828Y332586D01*
X549930Y333930D01*
X548586Y334828D01*
X547000Y335144D01*
X545414Y334828D01*
X544070Y333930D01*
X543832Y333573D01*
X527066D01*
X526060Y334579D01*
X526144Y335000D01*
X525828Y336586D01*
X524930Y337930D01*
X523586Y338828D01*
X523573Y338831D01*
Y346998D01*
X524430Y347570D01*
X525328Y348914D01*
X525644Y350500D01*
X525328Y352086D01*
X524430Y353430D01*
X523086Y354328D01*
X521500Y354644D01*
X519914Y354328D01*
X519816Y354263D01*
X518405Y354847D01*
X518378Y354985D01*
X517820Y355820D01*
X502820Y370820D01*
X501985Y371378D01*
X501000Y371573D01*
X489678D01*
X488914Y372844D01*
X489144Y374000D01*
X488828Y375586D01*
X487930Y376930D01*
X486586Y377828D01*
X485258Y378092D01*
X485131Y378191D01*
X485124Y378199D01*
Y379801D01*
X485131Y379809D01*
X485258Y379908D01*
X486586Y380172D01*
X487930Y381070D01*
X488828Y382414D01*
X489144Y384000D01*
X488828Y385586D01*
X487930Y386930D01*
X486586Y387828D01*
X485258Y388092D01*
X485131Y388191D01*
X484925Y389485D01*
X485179Y389892D01*
X486586Y390172D01*
X487930Y391070D01*
X488828Y392414D01*
X489144Y394000D01*
X488828Y395586D01*
X487930Y396930D01*
X486586Y397828D01*
X485073Y398129D01*
X485004Y398236D01*
X485028Y398755D01*
X486000Y399856D01*
X487586Y400172D01*
X488930Y401070D01*
X489828Y402414D01*
X490144Y404000D01*
X489828Y405586D01*
X488930Y406930D01*
X487586Y407828D01*
X486000Y408144D01*
X484414Y407828D01*
X483070Y406930D01*
X482832Y406573D01*
X464066D01*
X434899Y435740D01*
X435317Y437118D01*
X435586Y437172D01*
X436930Y438070D01*
X437828Y439414D01*
X438144Y441000D01*
X437828Y442586D01*
X436930Y443930D01*
X436573Y444168D01*
Y473000D01*
X436378Y473985D01*
X435820Y474820D01*
X424242Y486397D01*
X424728Y487570D01*
X428790D01*
X430180Y486180D01*
X430447Y486002D01*
X431070Y485070D01*
X432414Y484172D01*
X434000Y483856D01*
X435586Y484172D01*
X436930Y485070D01*
X437391Y485760D01*
X438911Y486144D01*
X439038Y486113D01*
X439427Y485824D01*
Y457000D01*
X439622Y456015D01*
X440180Y455180D01*
X475940Y419421D01*
X475856Y419000D01*
X476172Y417414D01*
X477070Y416070D01*
X478414Y415172D01*
X480000Y414856D01*
X480421Y414940D01*
X483180Y412180D01*
X484015Y411622D01*
X485000Y411427D01*
X486832D01*
X487070Y411070D01*
X488414Y410172D01*
X490000Y409856D01*
X491586Y410172D01*
X492930Y411070D01*
X493828Y412414D01*
X494144Y414000D01*
X493828Y415586D01*
X492930Y416930D01*
X491586Y417828D01*
X490000Y418144D01*
X488414Y417828D01*
X487070Y416930D01*
X485707Y416932D01*
X484060Y418579D01*
X484144Y419000D01*
X483828Y420586D01*
X482930Y421930D01*
X481586Y422828D01*
X480000Y423144D01*
X479580Y423060D01*
X444574Y458066D01*
Y488000D01*
X444378Y488985D01*
X443820Y489820D01*
X440194Y493445D01*
X440680Y494618D01*
X444742D01*
X497426Y441934D01*
Y430967D01*
X497172Y430586D01*
X496856Y429000D01*
X497172Y427414D01*
X497475Y426960D01*
X496489Y426151D01*
X471820Y450820D01*
X470985Y451378D01*
X470000Y451573D01*
X467168D01*
X466930Y451930D01*
X465586Y452828D01*
X464000Y453144D01*
X462414Y452828D01*
X461070Y451930D01*
X460172Y450586D01*
X459856Y449000D01*
X460172Y447414D01*
X461070Y446070D01*
X462414Y445172D01*
X464000Y444856D01*
X465586Y445172D01*
X466930Y446070D01*
X467168Y446427D01*
X468934D01*
X496979Y418381D01*
X497172Y417414D01*
X498070Y416070D01*
X499414Y415172D01*
X501000Y414856D01*
X502156Y415086D01*
X503427Y414323D01*
Y408000D01*
X503526Y407500D01*
X503427Y407000D01*
Y403168D01*
X503070Y402930D01*
X502172Y401586D01*
X501856Y400000D01*
X502172Y398414D01*
X503070Y397070D01*
X504414Y396172D01*
X506000Y395856D01*
X507586Y396172D01*
X508930Y397070D01*
X509828Y398414D01*
X510144Y400000D01*
X509828Y401586D01*
X508930Y402930D01*
X508573Y403168D01*
Y404934D01*
X508820Y405180D01*
X509378Y406015D01*
X509574Y407000D01*
Y407000D01*
X509378Y407985D01*
X508820Y408820D01*
X508573Y409066D01*
Y420832D01*
X508930Y421070D01*
X509828Y422414D01*
X510144Y424000D01*
X509828Y425586D01*
X508930Y426930D01*
X508573Y427168D01*
Y443000D01*
X508378Y443985D01*
X507820Y444820D01*
X451813Y500827D01*
X452299Y502000D01*
X755000Y502000D01*
D02*
G37*
G36*
X328517Y377843D02*
X327991Y376573D01*
X289000D01*
X288986Y376571D01*
X288820Y376820D01*
X282386Y383253D01*
X282872Y384426D01*
X321934D01*
X328517Y377843D01*
D02*
G37*
%LPC*%
G36*
X340000Y446347D02*
X338098Y446096D01*
X336327Y445363D01*
X334805Y444195D01*
X333638Y442673D01*
X332904Y440901D01*
X332653Y439000D01*
X332904Y437099D01*
X333638Y435327D01*
X334805Y433805D01*
X336327Y432637D01*
X338098Y431903D01*
X340000Y431653D01*
X341902Y431903D01*
X343673Y432637D01*
X345195Y433805D01*
X346363Y435327D01*
X347096Y437099D01*
X347347Y439000D01*
X347096Y440901D01*
X346363Y442673D01*
X345195Y444195D01*
X343673Y445363D01*
X341902Y446096D01*
X340000Y446347D01*
D02*
G37*
G36*
X639740Y494470D02*
X632470D01*
Y481700D01*
X639740D01*
Y494470D01*
D02*
G37*
G36*
X553240D02*
X545970D01*
Y481700D01*
X553240D01*
Y494470D01*
D02*
G37*
G36*
X629930D02*
X622660D01*
Y481700D01*
X629930D01*
Y494470D01*
D02*
G37*
G36*
X543430D02*
X536160D01*
Y481700D01*
X543430D01*
Y494470D01*
D02*
G37*
G36*
X639740Y479160D02*
X632470D01*
Y466390D01*
X639740D01*
Y479160D01*
D02*
G37*
G36*
X629930D02*
X622660D01*
Y466390D01*
X629930D01*
Y479160D01*
D02*
G37*
G36*
X553240D02*
X545970D01*
Y466390D01*
X553240D01*
Y479160D01*
D02*
G37*
G36*
X543430D02*
X536160D01*
Y466390D01*
X543430D01*
Y479160D01*
D02*
G37*
G36*
X629930Y454370D02*
X622660D01*
Y452905D01*
X621692Y452537D01*
X621390Y452477D01*
X619863Y453497D01*
X618000Y453867D01*
X616137Y453497D01*
X614558Y452442D01*
X613503Y450863D01*
X613133Y449000D01*
X613503Y447137D01*
X614558Y445558D01*
X616137Y444503D01*
X618000Y444132D01*
X619863Y444503D01*
X621390Y445523D01*
X621692Y445463D01*
X622660Y445095D01*
Y443100D01*
X629930D01*
Y454370D01*
D02*
G37*
G36*
X740870Y452680D02*
Y443950D01*
X749600D01*
X749420Y445311D01*
X748405Y447763D01*
X746789Y449869D01*
X744684Y451485D01*
X742231Y452500D01*
X740870Y452680D01*
D02*
G37*
G36*
X738330D02*
X736969Y452500D01*
X734517Y451485D01*
X732411Y449869D01*
X730795Y447763D01*
X729780Y445311D01*
X729600Y443950D01*
X738330D01*
Y452680D01*
D02*
G37*
G36*
X639740Y454370D02*
X632470D01*
Y443100D01*
X639740D01*
Y454370D01*
D02*
G37*
G36*
X688800Y451822D02*
X686434Y451511D01*
X684229Y450597D01*
X682336Y449145D01*
X680883Y447251D01*
X679969Y445046D01*
X679658Y442680D01*
X679969Y440314D01*
X680883Y438109D01*
X682336Y436216D01*
X684229Y434763D01*
X686434Y433849D01*
X688800Y433538D01*
X691166Y433849D01*
X693371Y434763D01*
X695265Y436216D01*
X696717Y438109D01*
X697631Y440314D01*
X697942Y442680D01*
X697631Y445046D01*
X696717Y447251D01*
X695265Y449145D01*
X693371Y450597D01*
X691166Y451511D01*
X688800Y451822D01*
D02*
G37*
G36*
X749600Y441410D02*
X740870D01*
Y432680D01*
X742231Y432859D01*
X744684Y433875D01*
X746789Y435491D01*
X748405Y437597D01*
X749420Y440049D01*
X749600Y441410D01*
D02*
G37*
G36*
X738330D02*
X729600D01*
X729780Y440049D01*
X730795Y437597D01*
X732411Y435491D01*
X734517Y433875D01*
X736969Y432859D01*
X738330Y432680D01*
Y441410D01*
D02*
G37*
G36*
X639740Y440560D02*
X632470D01*
Y429290D01*
X639740D01*
Y440560D01*
D02*
G37*
G36*
X629930D02*
X622660D01*
Y429290D01*
X629930D01*
Y440560D01*
D02*
G37*
G36*
X553240D02*
X545970D01*
Y429290D01*
X553240D01*
Y440560D01*
D02*
G37*
G36*
X508000Y498144D02*
X506414Y497828D01*
X505070Y496930D01*
X504172Y495586D01*
X503856Y494000D01*
X504172Y492414D01*
X504427Y492033D01*
Y465168D01*
X504070Y464930D01*
X503172Y463586D01*
X502856Y462000D01*
X503172Y460414D01*
X504070Y459070D01*
X505414Y458172D01*
X507000Y457856D01*
X508255Y458106D01*
X513427Y452934D01*
Y395000D01*
X513622Y394015D01*
X514180Y393180D01*
X516706Y390655D01*
X516614Y389294D01*
X516070Y388930D01*
X515172Y387586D01*
X514856Y386000D01*
X515172Y384414D01*
X516070Y383070D01*
X517414Y382172D01*
X518719Y381912D01*
X519847Y381420D01*
X520016Y380848D01*
X520159Y380269D01*
X520193Y380248D01*
X520204Y380210D01*
X520404Y379963D01*
X520485Y379919D01*
X520520Y379834D01*
X521029Y379623D01*
X521513Y379360D01*
X521601Y379386D01*
X521687Y379350D01*
X531000Y379350D01*
X532166Y379834D01*
X532650Y381000D01*
Y396124D01*
X533631Y396930D01*
X534000Y396856D01*
X535586Y397172D01*
X536930Y398070D01*
X537828Y399414D01*
X538144Y401000D01*
X537828Y402586D01*
X536930Y403930D01*
X536573Y404168D01*
Y429290D01*
X543430D01*
Y441830D01*
X544700D01*
Y443100D01*
X553240D01*
Y445245D01*
X554510Y445630D01*
X554558Y445558D01*
X556137Y444503D01*
X558000Y444132D01*
X559863Y444503D01*
X561442Y445558D01*
X562497Y447137D01*
X562868Y449000D01*
X562695Y449870D01*
X563865Y450496D01*
X565940Y448420D01*
X565856Y448000D01*
X566172Y446414D01*
X567070Y445070D01*
X568414Y444172D01*
X570000Y443856D01*
X571586Y444172D01*
X572039Y444475D01*
X572849Y443489D01*
X555934Y426573D01*
X549000D01*
X548015Y426378D01*
X547180Y425820D01*
X544421Y423060D01*
X544000Y423144D01*
X542414Y422828D01*
X541070Y421930D01*
X540172Y420586D01*
X539856Y419000D01*
X540172Y417414D01*
X541070Y416070D01*
X542414Y415172D01*
X543517Y414953D01*
X544026Y413665D01*
X542421Y412060D01*
X542000Y412144D01*
X540414Y411828D01*
X539070Y410930D01*
X538172Y409586D01*
X537856Y408000D01*
X538172Y406414D01*
X539070Y405070D01*
X540414Y404172D01*
X542000Y403856D01*
X543586Y404172D01*
X544930Y405070D01*
X545828Y406414D01*
X546144Y408000D01*
X546060Y408420D01*
X552579Y414940D01*
X553000Y414856D01*
X554586Y415172D01*
X555930Y416070D01*
X556828Y417414D01*
X557144Y419000D01*
X556914Y420157D01*
X556924Y420304D01*
X557466Y421302D01*
X557701Y421566D01*
X557985Y421622D01*
X558820Y422180D01*
X578820Y442180D01*
X579378Y443015D01*
X579573Y444000D01*
Y447832D01*
X579930Y448070D01*
X580828Y449414D01*
X581144Y451000D01*
X580828Y452586D01*
X579930Y453930D01*
X578586Y454828D01*
X577000Y455144D01*
X575414Y454828D01*
X574070Y453930D01*
X573172Y452586D01*
X573121Y452330D01*
X571710Y451745D01*
X571586Y451828D01*
X570000Y452144D01*
X569580Y452060D01*
X563820Y457820D01*
X562985Y458378D01*
X562000Y458573D01*
X534000D01*
X533920Y458558D01*
X532650Y459544D01*
Y466000D01*
X532166Y467166D01*
X531000Y467650D01*
X519000Y467650D01*
X517834Y467166D01*
X517350Y466000D01*
Y457948D01*
X516177Y457462D01*
X511021Y462619D01*
X510828Y463586D01*
X509930Y464930D01*
X509574Y465168D01*
Y490169D01*
X509586Y490172D01*
X510930Y491070D01*
X511828Y492414D01*
X512144Y494000D01*
X511828Y495586D01*
X510930Y496930D01*
X509586Y497828D01*
X508000Y498144D01*
D02*
G37*
G36*
X704000Y400144D02*
X702414Y399828D01*
X701070Y398930D01*
X700172Y397586D01*
X699856Y396000D01*
X700172Y394414D01*
X701070Y393070D01*
X701427Y392832D01*
Y390976D01*
X700157Y390591D01*
X699930Y390930D01*
X698586Y391828D01*
X697000Y392144D01*
X695414Y391828D01*
X694070Y390930D01*
X693172Y389586D01*
X692856Y388000D01*
X693172Y386414D01*
X694070Y385070D01*
X694427Y384832D01*
Y356168D01*
X694070Y355930D01*
X693172Y354586D01*
X692857Y353000D01*
X693172Y351414D01*
X694070Y350070D01*
X695414Y349172D01*
X697000Y348856D01*
X698586Y349172D01*
X699930Y350070D01*
X700828Y351414D01*
X701144Y353000D01*
X700828Y354586D01*
X699930Y355930D01*
X699574Y356168D01*
Y367024D01*
X700844Y367409D01*
X701070Y367070D01*
X702414Y366172D01*
X704000Y365856D01*
X705586Y366172D01*
X706930Y367070D01*
X707828Y368414D01*
X708144Y370000D01*
X707828Y371586D01*
X706930Y372930D01*
X706573Y373168D01*
Y392832D01*
X706930Y393070D01*
X707828Y394414D01*
X708144Y396000D01*
X707828Y397586D01*
X706930Y398930D01*
X705586Y399828D01*
X704000Y400144D01*
D02*
G37*
G36*
X722000Y407144D02*
X720414Y406828D01*
X719070Y405930D01*
X718172Y404586D01*
X717857Y403000D01*
X718172Y401414D01*
X719070Y400070D01*
X719427Y399832D01*
Y376066D01*
X707180Y363820D01*
X706622Y362985D01*
X706427Y362000D01*
Y347066D01*
X689421Y330060D01*
X689000Y330144D01*
X687414Y329828D01*
X686070Y328930D01*
X685172Y327586D01*
X684856Y326000D01*
X685172Y324414D01*
X686070Y323070D01*
X687414Y322172D01*
X689000Y321856D01*
X690586Y322172D01*
X691040Y322475D01*
X691849Y321489D01*
X689420Y319060D01*
X689000Y319144D01*
X687414Y318828D01*
X686070Y317930D01*
X685172Y316586D01*
X684856Y315000D01*
X685172Y313414D01*
X686070Y312070D01*
X687414Y311172D01*
X689000Y310856D01*
X690586Y311172D01*
X691930Y312070D01*
X692828Y313414D01*
X693144Y315000D01*
X693060Y315421D01*
X715820Y338180D01*
X716378Y339015D01*
X716573Y340000D01*
Y356934D01*
X720745Y361106D01*
X722000Y360856D01*
X723586Y361172D01*
X724930Y362070D01*
X725828Y363414D01*
X726144Y365000D01*
X725828Y366586D01*
X724930Y367930D01*
X723586Y368828D01*
X722000Y369144D01*
X721475Y369039D01*
X720849Y370210D01*
X723820Y373180D01*
X724378Y374015D01*
X724574Y375000D01*
Y399832D01*
X724930Y400070D01*
X725828Y401414D01*
X726144Y403000D01*
X725828Y404586D01*
X724930Y405930D01*
X723586Y406828D01*
X722000Y407144D01*
D02*
G37*
G36*
X651000Y377144D02*
X649414Y376828D01*
X648070Y375930D01*
X647172Y374586D01*
X646856Y373000D01*
X647172Y371414D01*
X648070Y370070D01*
X649414Y369172D01*
X651000Y368856D01*
X652586Y369172D01*
X653930Y370070D01*
X655293Y370067D01*
X661940Y363420D01*
X661856Y363000D01*
X662172Y361414D01*
X663070Y360070D01*
X663427Y359832D01*
Y351168D01*
X663070Y350930D01*
X662172Y349586D01*
X661856Y348000D01*
X662172Y346414D01*
X663070Y345070D01*
X663427Y344832D01*
Y332168D01*
X663070Y331930D01*
X662172Y330586D01*
X661856Y329000D01*
X662172Y327414D01*
X663070Y326070D01*
X664414Y325172D01*
X666000Y324856D01*
X667586Y325172D01*
X668930Y326070D01*
X669828Y327414D01*
X670144Y329000D01*
X669828Y330586D01*
X668930Y331930D01*
X668574Y332168D01*
Y344832D01*
X668930Y345070D01*
X669828Y346414D01*
X670144Y348000D01*
X669828Y349586D01*
X668930Y350930D01*
X668574Y351168D01*
Y359832D01*
X668930Y360070D01*
X669828Y361414D01*
X670144Y363000D01*
X669828Y364586D01*
X668930Y365930D01*
X667586Y366828D01*
X666000Y367144D01*
X665580Y367060D01*
X657820Y374820D01*
X656985Y375378D01*
X656000Y375573D01*
X654168D01*
X653930Y375930D01*
X652586Y376828D01*
X651000Y377144D01*
D02*
G37*
G36*
X722000Y357144D02*
X720414Y356828D01*
X719070Y355930D01*
X718172Y354586D01*
X717857Y353000D01*
X718172Y351414D01*
X719070Y350070D01*
X719427Y349832D01*
Y330168D01*
X719070Y329930D01*
X718172Y328586D01*
X717857Y327000D01*
X718172Y325414D01*
X719070Y324070D01*
X720414Y323172D01*
X722000Y322856D01*
X723586Y323172D01*
X724930Y324070D01*
X725828Y325414D01*
X726144Y327000D01*
X725828Y328586D01*
X724930Y329930D01*
X724574Y330168D01*
Y349832D01*
X724930Y350070D01*
X725828Y351414D01*
X726144Y353000D01*
X725828Y354586D01*
X724930Y355930D01*
X723586Y356828D01*
X722000Y357144D01*
D02*
G37*
%LPD*%
G36*
X531000Y449825D02*
X530172Y448586D01*
X529856Y447000D01*
X530172Y445414D01*
X531000Y444175D01*
Y403825D01*
X530172Y402586D01*
X529856Y401000D01*
X530172Y399414D01*
X531000Y398175D01*
Y381000D01*
X521687Y381000D01*
X521487Y381247D01*
X521746Y382947D01*
X521930Y383070D01*
X522828Y384414D01*
X523144Y386000D01*
X522828Y387586D01*
X522074Y388715D01*
Y391500D01*
X521878Y392485D01*
X521320Y393320D01*
X519000Y395639D01*
X519000Y466000D01*
X531000Y466000D01*
Y449825D01*
D02*
G37*
D10*
X604000Y323000D02*
Y348000D01*
X602000Y321000D02*
X604000Y323000D01*
X602000Y348000D02*
X604000D01*
X601000Y347000D02*
X602000Y348000D01*
X462000Y461000D02*
X463000Y462000D01*
X561000Y364000D02*
X562000Y363000D01*
X521000Y335000D02*
Y348000D01*
Y335000D02*
X522000Y334000D01*
X577000Y375000D02*
Y403000D01*
X480500Y358500D02*
X481000Y359000D01*
X480000Y358000D02*
X481000D01*
X480000D02*
X480500Y358500D01*
X618000Y302000D02*
X630000Y314000D01*
X530000Y302000D02*
X618000D01*
X508000Y324000D02*
X530000Y302000D01*
X492000Y353000D02*
X496000D01*
X569000Y449000D02*
X570000D01*
X533000Y401000D02*
X534000Y400000D01*
X519000Y386000D02*
X519500Y386500D01*
Y391500D01*
X516000Y395000D02*
X519500Y391500D01*
X910000Y331000D02*
X928000Y349000D01*
X910000Y302000D02*
Y331000D01*
X902000Y294000D02*
X910000Y302000D01*
X898500Y294000D02*
X902000D01*
X507000Y462000D02*
Y493000D01*
X950000Y442000D02*
X1004000D01*
X931000Y461000D02*
X950000Y442000D01*
X880000Y325000D02*
X886000D01*
X965000Y410000D02*
X997000D01*
X882000Y331000D02*
X886000D01*
X880000D02*
X882000D01*
X815000D02*
X880000D01*
X1004000Y442000D02*
X1007000Y439000D01*
X974000Y425000D02*
X978000Y421000D01*
X914000Y388000D02*
X918000D01*
X990000Y432000D02*
X992000Y434000D01*
X915000Y394000D02*
X918000D01*
X914000D02*
X915000D01*
X816000D02*
X914000D01*
X295000Y440000D02*
X306000Y451000D01*
X228000Y440000D02*
X295000D01*
X218000Y430000D02*
X228000Y440000D01*
X323000Y436000D02*
X324000Y437000D01*
X230000Y436000D02*
X323000D01*
X219000Y425000D02*
X230000Y436000D01*
X256000Y432000D02*
X263000Y425000D01*
X232000Y432000D02*
X256000D01*
X220000Y420000D02*
X232000Y432000D01*
X291000Y457000D02*
X292000Y458000D01*
X239000Y462000D02*
X292000D01*
X212000Y435000D02*
X239000Y462000D01*
X197000Y435000D02*
X212000D01*
X485000Y384000D02*
X486000D01*
X459000D02*
X485000D01*
X238000Y467000D02*
X410000D01*
X211000Y440000D02*
X238000Y467000D01*
X199000Y440000D02*
X211000D01*
X480000Y389000D02*
X481000D01*
X460000D02*
X480000D01*
X236000Y471000D02*
X412000D01*
X210000Y445000D02*
X236000Y471000D01*
X195500Y445000D02*
X210000D01*
X234000Y475000D02*
X414000D01*
X209000Y450000D02*
X234000Y475000D01*
X195500Y450000D02*
X209000D01*
X480000Y399000D02*
X481000D01*
X462000D02*
X480000D01*
X232000Y479000D02*
X415572D01*
X208000Y455000D02*
X232000Y479000D01*
X196500Y455000D02*
X208000D01*
X196500Y460000D02*
X207000D01*
X230096Y483096D02*
X417904D01*
X207000Y460000D02*
X230096Y483096D01*
X433000Y441000D02*
X434000Y442000D01*
X227620Y486620D02*
X420380D01*
X206000Y465000D02*
X227620Y486620D01*
X193000Y465000D02*
X206000D01*
X225144Y490144D02*
X429856D01*
X205000Y470000D02*
X225144Y490144D01*
X197500Y470000D02*
X205000D01*
X222668Y493668D02*
X436332D01*
X204000Y475000D02*
X222668Y493668D01*
X198500Y475000D02*
X204000D01*
X500000Y429000D02*
Y443000D01*
X220192Y497192D02*
X445808D01*
X203000Y480000D02*
X220192Y497192D01*
X198500Y480000D02*
X203000D01*
X218000Y501000D02*
X448000D01*
X202000Y485000D02*
X218000Y501000D01*
X200000Y485000D02*
X202000D01*
X326000Y425000D02*
X337000Y414000D01*
X263000Y425000D02*
X326000D01*
X292000Y462000D02*
X407000D01*
X292000Y458000D02*
Y462000D01*
X313000Y446000D02*
X316000D01*
X320000Y450000D01*
X337000Y414000D02*
X347000D01*
X334000Y409000D02*
X353000D01*
X323000Y420000D02*
X334000Y409000D01*
X323000Y420000D02*
X323000D01*
X258000D02*
X323000D01*
X320000Y451000D02*
X342000D01*
X794000Y356000D02*
Y362000D01*
X784000Y346000D02*
X794000Y356000D01*
X784000Y302000D02*
Y346000D01*
X697000Y353000D02*
Y388000D01*
X508000Y462000D02*
X516000Y454000D01*
Y395000D02*
Y454000D01*
X506000Y424000D02*
Y443000D01*
Y408000D02*
Y424000D01*
Y408000D02*
X507000Y407000D01*
X448000Y501000D02*
X506000Y443000D01*
X507000Y462000D02*
X508000D01*
X506500Y406500D02*
X507000Y407000D01*
X500000Y419000D02*
X501000D01*
X470000Y449000D02*
X500000Y419000D01*
X464000Y449000D02*
X470000D01*
X506000Y400000D02*
Y407000D01*
X436332Y493668D02*
X442000Y488000D01*
Y457000D02*
Y488000D01*
Y457000D02*
X480000Y419000D01*
X485000Y414000D02*
X490000D01*
X480000Y419000D02*
X485000Y414000D01*
X549000Y424000D02*
X557000D01*
X544000Y419000D02*
X549000Y424000D01*
X557000D02*
X577000Y444000D01*
X542000Y408000D02*
X553000Y419000D01*
X630000Y314000D02*
Y325000D01*
X616000Y306000D02*
X624000Y314000D01*
X532000Y306000D02*
X616000D01*
X618000Y314000D02*
Y317000D01*
X614000Y310000D02*
X618000Y314000D01*
X624000Y314000D02*
Y323000D01*
X608000Y363000D02*
X681000Y290000D01*
X607000Y370000D02*
X683000Y294000D01*
X721000Y403000D02*
X722000Y402000D01*
X709000Y346000D02*
Y362000D01*
X690500Y327500D02*
X709000Y346000D01*
X714000Y340000D02*
Y358000D01*
X689000Y315000D02*
X714000Y340000D01*
X522000Y335000D02*
X526000Y331000D01*
X546000D01*
X534000Y401000D02*
Y446000D01*
Y400000D02*
Y401000D01*
X533000D02*
X534000D01*
X516000Y328000D02*
Y354000D01*
X501000Y369000D02*
X516000Y354000D01*
X480000Y369000D02*
X501000D01*
X512000Y326000D02*
Y352000D01*
X500000Y364000D02*
X512000Y352000D01*
X485000Y364000D02*
X500000D01*
X508000Y324000D02*
Y350000D01*
X499000Y359000D02*
X508000Y350000D01*
X481000Y359000D02*
X499000D01*
X501000Y350000D02*
X504000Y347000D01*
X534000Y456000D02*
X562000D01*
X534000Y447000D02*
Y456000D01*
X445808Y497192D02*
X500000Y443000D01*
X534000Y310000D02*
X614000D01*
X683000Y294000D02*
X898500Y294000D01*
X932000Y290000D02*
X933000Y291000D01*
X681000Y290000D02*
X932000Y290000D01*
X886000Y325000D02*
X941000Y380000D01*
X816000Y325000D02*
X882000D01*
X886000Y331000D02*
X965000Y410000D01*
X806000Y340000D02*
X815000Y331000D01*
X806000Y315000D02*
X816000Y325000D01*
X933000Y291000D02*
X933000D01*
X816000Y388000D02*
X915000D01*
X577000Y444000D02*
Y451000D01*
X562000Y456000D02*
X569000Y449000D01*
X504000Y312000D02*
Y347000D01*
X499000Y312000D02*
X504000D01*
X561000Y321000D02*
X602000D01*
X561000D02*
Y347000D01*
X551000Y354000D02*
Y383000D01*
Y354000D02*
X566000D01*
X555000Y375000D02*
X577000D01*
X566000Y331000D02*
Y354000D01*
Y331000D02*
X571000Y326000D01*
X555000Y358000D02*
Y375000D01*
X571000Y336000D02*
Y358000D01*
X555000D02*
X571000D01*
X562000Y363000D02*
X608000D01*
X561000Y370000D02*
X607000D01*
X516000Y328000D02*
X534000Y310000D01*
X512000Y326000D02*
X532000Y306000D01*
X1007000Y365000D02*
Y439000D01*
X933000Y291000D02*
X1007000Y365000D01*
X941000Y380000D02*
X975000D01*
X955000Y425000D02*
X974000D01*
X918000Y388000D02*
X955000Y425000D01*
X956000Y432000D02*
X990000D01*
X918000Y394000D02*
X956000Y432000D01*
X806000Y404000D02*
X816000Y394000D01*
X806000Y378000D02*
X816000Y388000D01*
X704000Y370000D02*
Y397000D01*
X697000Y353000D02*
X697000Y353000D01*
X722000Y375000D02*
Y402000D01*
X709000Y362000D02*
X722000Y375000D01*
X561000Y347000D02*
X561000Y347000D01*
X561000D02*
X561000Y347000D01*
X540000Y345000D02*
X561000D01*
X537000Y348000D02*
X540000Y345000D01*
X561000Y347000D02*
X561000D01*
X472000Y333000D02*
X492000Y353000D01*
X480500Y358500D02*
X481000Y358000D01*
X480000Y359000D02*
X480500Y358500D01*
X414967Y359000D02*
X480000D01*
X481000D01*
X618000Y329000D02*
X626000D01*
X630000Y325000D01*
X481000Y454000D02*
X494000Y441000D01*
X473000Y462000D02*
X481000Y454000D01*
X463000Y462000D02*
X473000D01*
X292000Y457000D02*
Y458000D01*
X291000Y457000D02*
X292000D01*
X415000Y369000D02*
X480000D01*
X617000Y329000D02*
X618000D01*
X414984Y364000D02*
X485000D01*
X462000Y461000D02*
Y462000D01*
X432000Y488000D02*
X434000D01*
X429856Y490144D02*
X432000Y488000D01*
X714000Y358000D02*
X721000Y365000D01*
X704000Y397000D02*
X704000Y397000D01*
X704000D02*
X704000D01*
X666000Y328000D02*
Y329000D01*
Y348000D01*
Y363000D01*
X656000Y373000D02*
X666000Y363000D01*
X651000Y373000D02*
X656000D01*
X721000Y353000D02*
Y354000D01*
X722000Y327000D02*
Y353000D01*
X427000Y309000D02*
X437000Y319000D01*
X248000Y309000D02*
X427000D01*
X464000Y348000D02*
X471500D01*
X210000Y336000D02*
X245000Y301000D01*
X442000Y316000D02*
Y325000D01*
X431000Y305000D02*
X442000Y316000D01*
X247000Y305000D02*
X431000D01*
X485000Y394000D02*
X486000D01*
X461000D02*
X485000D01*
X472000Y315000D02*
Y333000D01*
X448000Y332000D02*
X464000Y348000D01*
X448000Y316161D02*
Y332000D01*
X432839Y301000D02*
X448000Y316161D01*
X499000Y313000D02*
X499076Y312994D01*
X399000Y385000D02*
Y425000D01*
X400000Y426000D01*
X257000Y405000D02*
X348000D01*
X243000Y420000D02*
X244000Y421000D01*
X253000Y397000D02*
X325000D01*
X248000Y402000D02*
X253000Y397000D01*
X236000Y402000D02*
X248000D01*
X248000Y421000D02*
X258000Y411000D01*
X242000Y409000D02*
X247000D01*
X255000Y401000D02*
X327000D01*
X247000Y409000D02*
X255000Y401000D01*
X247000Y415000D02*
X257000Y405000D01*
X237000Y415000D02*
X247000D01*
X244000Y421000D02*
X248000D01*
X251000Y427000D02*
X258000Y420000D01*
X238000Y427000D02*
X251000D01*
X214000Y415000D02*
X242000Y387000D01*
X196000Y415000D02*
X214000D01*
X198000Y410000D02*
X213000D01*
X185750Y420000D02*
X220000D01*
X198000Y425000D02*
X219000D01*
X198000Y430000D02*
X218000D01*
X415572Y479000D02*
X425000Y469572D01*
X244000Y328000D02*
X281000D01*
X222000Y350000D02*
X244000Y328000D01*
X293000Y353000D02*
X302000Y344000D01*
X252000Y353000D02*
X293000D01*
X248000Y357000D02*
X252000Y353000D01*
X291000Y349000D02*
X300000Y340000D01*
X249000Y349000D02*
X291000D01*
X242000Y356000D02*
X249000Y349000D01*
X289000Y345000D02*
X298000Y336000D01*
X247000Y345000D02*
X289000D01*
X238000Y354000D02*
X247000Y345000D01*
X287000Y341000D02*
X295856Y332144D01*
X246000Y341000D02*
X287000D01*
X234000Y353000D02*
X246000Y341000D01*
X285000Y337000D02*
X293380Y328620D01*
X245000Y337000D02*
X285000D01*
X230000Y352000D02*
X245000Y337000D01*
X283000Y333000D02*
X290904Y325096D01*
X244000Y333000D02*
X283000D01*
X226000Y351000D02*
X244000Y333000D01*
X281000Y327000D02*
Y328000D01*
X306000Y451000D02*
X312000Y457000D01*
X258000Y411000D02*
X317000D01*
X331000Y379000D02*
X341000D01*
X323000Y387000D02*
X331000Y379000D01*
X242000Y387000D02*
X323000D01*
X332000Y384000D02*
X347000D01*
X324000Y392000D02*
X332000Y384000D01*
X254000Y392000D02*
X324000D01*
X333000Y389000D02*
X340000D01*
X325000Y397000D02*
X333000Y389000D01*
X334000Y394000D02*
X347000D01*
X327000Y401000D02*
X334000Y394000D01*
X304000Y354000D02*
X327000D01*
X296000Y362000D02*
X304000Y354000D01*
X271000Y362000D02*
X296000D01*
X259000Y363000D02*
X260000D01*
X261000D01*
X303000Y349000D02*
X334000D01*
X295000Y357000D02*
X303000Y349000D01*
X266000Y357000D02*
X295000D01*
X302000Y344000D02*
X371000D01*
X300000Y340000D02*
X375000D01*
X339000Y354000D02*
X348000D01*
X334000Y349000D02*
X339000Y354000D01*
X415000Y374000D02*
X486000D01*
X377000Y336000D02*
X415000Y374000D01*
X298000Y336000D02*
X377000D01*
X414000Y379000D02*
X481000D01*
X375000Y340000D02*
X414000Y379000D01*
X371000Y344000D02*
X372000Y345000D01*
X343000Y349000D02*
X354000D01*
X357000Y352000D01*
X434000Y442000D02*
Y473000D01*
X420380Y486620D02*
X434000Y473000D01*
X429000Y438000D02*
Y472000D01*
X417904Y483096D02*
X429000Y472000D01*
X425000Y436000D02*
Y469572D01*
X421000Y434000D02*
Y468000D01*
X414000Y475000D02*
X421000Y468000D01*
X417000Y432000D02*
Y466000D01*
X412000Y471000D02*
X417000Y466000D01*
X413000Y430000D02*
Y464000D01*
X413000D02*
X413000D01*
X410000Y467000D02*
X413000Y464000D01*
X312000Y457000D02*
X402000D01*
X306000Y451000D02*
Y451000D01*
X295856Y332144D02*
X378144D01*
X293380Y328620D02*
X379604D01*
X290904Y325096D02*
X381063D01*
X286904Y321096D02*
X385096D01*
X281000Y327000D02*
X286904Y321096D01*
X260000Y363000D02*
X266000Y357000D01*
X270000Y363000D02*
X271000Y362000D01*
X272484Y372516D02*
X279000Y366000D01*
X334000D02*
X341000Y359000D01*
X279000Y366000D02*
X334000D01*
X342000Y370000D02*
X348000Y364000D01*
X283000Y370000D02*
X342000D01*
X273000Y380000D02*
X283000Y370000D01*
X250000Y317000D02*
X417000D01*
X218000Y349000D02*
X250000Y317000D01*
X214000Y348000D02*
X249000Y313000D01*
X210000Y347000D02*
X248000Y309000D01*
X202000Y350000D02*
X247000Y305000D01*
X270000Y363000D02*
Y363000D01*
X252000Y370000D02*
X263000D01*
X270000Y363000D01*
X417000Y317000D02*
X418000Y318000D01*
X245000Y301000D02*
X432839D01*
X357000Y352000D02*
X375000D01*
X248000Y357000D02*
Y358000D01*
X413000Y430000D02*
X459000Y384000D01*
X417000Y432000D02*
X460000Y389000D01*
X421000Y434000D02*
X461000Y394000D01*
X425000Y436000D02*
X462000Y399000D01*
X463000Y404000D02*
X486000D01*
X429000Y438000D02*
X463000Y404000D01*
X402000Y457000D02*
Y458000D01*
X342000Y399000D02*
X354000D01*
X341000D02*
X342000D01*
X354000D02*
X356000Y401000D01*
Y406000D01*
X353000Y409000D02*
X356000Y406000D01*
X343000Y359000D02*
Y359000D01*
X289000Y374000D02*
X345000D01*
X288000Y373000D02*
X289000Y374000D01*
X385096Y321096D02*
X413096D01*
X385000Y321000D02*
X385096Y321096D01*
X378144Y332144D02*
X415000Y369000D01*
X379604Y328620D02*
X414984Y364000D01*
X381063Y325096D02*
X414967Y359000D01*
X381063Y325096D02*
X381096D01*
X382000Y326000D01*
X379604Y328620D02*
X379620D01*
X380000Y329000D01*
X238000Y380000D02*
X273000D01*
X287000Y374000D02*
Y375000D01*
X278500Y383500D02*
X287000Y375000D01*
X239500Y383500D02*
X278500D01*
X197274Y325000D02*
X203967D01*
X197000Y350000D02*
X202000D01*
X210000Y347000D02*
Y351000D01*
X206000Y355000D02*
X210000Y351000D01*
X197000Y355000D02*
X206000D01*
X198000Y360000D02*
X210000D01*
X214000Y348000D02*
Y356000D01*
X210000Y360000D02*
X214000Y356000D01*
X218000Y349000D02*
Y359000D01*
X212000Y365000D02*
X218000Y359000D01*
X196000Y365000D02*
X212000D01*
X222000Y350000D02*
X224000Y348000D01*
X222000Y350000D02*
Y350000D01*
X226000Y351000D02*
Y363000D01*
X230000Y352000D02*
Y364000D01*
X234000Y353000D02*
Y365000D01*
X214000Y370000D02*
X222000Y362000D01*
Y350000D02*
Y362000D01*
X214000Y375000D02*
X226000Y363000D01*
X214000Y380000D02*
X230000Y364000D01*
X214000Y385000D02*
X234000Y365000D01*
X238000Y354000D02*
Y366000D01*
X214000Y390000D02*
X238000Y366000D01*
X194000Y375000D02*
X214000D01*
X196000Y380000D02*
X214000D01*
X193000Y390000D02*
X214000D01*
X197000Y405000D02*
X213000D01*
X196000Y400000D02*
X213000D01*
Y395000D02*
X242000Y366000D01*
X197000Y395000D02*
X213000D01*
X237000Y376000D02*
X269000D01*
X213000Y400000D02*
X237000Y376000D01*
X213000Y405000D02*
X238000Y380000D01*
X213000Y410000D02*
X239500Y383500D01*
X242000Y356000D02*
Y366000D01*
X269000Y376000D02*
X272484Y372516D01*
X272484D01*
X184750Y370000D02*
X214000D01*
X184750Y385000D02*
X214000D01*
X197274Y320000D02*
X203967D01*
X198274Y315000D02*
X204967D01*
X198274Y310000D02*
X204967D01*
X198274Y305000D02*
X204967D01*
X413096Y321096D02*
X420000Y328000D01*
X429000D01*
X432000Y325000D01*
X417572Y317572D02*
X422000Y322000D01*
X249000Y313000D02*
X421838D01*
D13*
X399000Y385000D02*
X437000D01*
X392000D02*
X399000D01*
D80*
X490000Y339000D02*
X498000D01*
X480000Y329000D02*
X490000Y339000D01*
X480000Y308000D02*
Y329000D01*
X465000Y308000D02*
X480000D01*
X460000Y327000D02*
X465000Y322000D01*
Y308000D02*
Y322000D01*
D123*
X1050000Y315000D02*
D03*
X340000Y439000D02*
D03*
X1050000Y470000D02*
D03*
D124*
X688800Y442680D02*
D03*
X739600D02*
D03*
X815800D02*
D03*
D125*
X841200D02*
D03*
D126*
X928700Y440500D02*
D03*
Y463400D02*
D03*
Y349100D02*
D03*
Y326200D02*
D03*
X977000Y359200D02*
D03*
X994800Y369400D02*
D03*
X977000Y379600D02*
D03*
X994800Y389800D02*
D03*
X977000Y400000D02*
D03*
X994800Y410200D02*
D03*
X977000Y420400D02*
D03*
D127*
X985900Y476100D02*
D03*
Y313500D02*
D03*
D128*
X1020200Y458300D02*
D03*
Y331300D02*
D03*
D129*
X994800Y430600D02*
D03*
D130*
X631200Y441830D02*
D03*
X544700D02*
D03*
D131*
X631200Y480430D02*
D03*
X544700D02*
D03*
D132*
X604000Y348000D02*
D03*
X560000Y363000D02*
D03*
Y370000D02*
D03*
X519000Y386000D02*
D03*
X508000Y494000D02*
D03*
X313000Y446000D02*
D03*
X324000Y436000D02*
D03*
X323000Y420000D02*
D03*
X342000Y451000D02*
D03*
X784000Y302000D02*
D03*
X619000Y423000D02*
D03*
X697000Y388000D02*
D03*
X507000Y462000D02*
D03*
X501000Y419000D02*
D03*
X506000Y400000D02*
D03*
X527000Y393000D02*
D03*
Y386000D02*
D03*
X521500Y350500D02*
D03*
X490000Y414000D02*
D03*
X542000Y408000D02*
D03*
X544000Y419000D02*
D03*
X553000D02*
D03*
X547000Y331000D02*
D03*
X522000Y335000D02*
D03*
Y457000D02*
D03*
X528000D02*
D03*
Y463000D02*
D03*
X522000D02*
D03*
X534000Y401000D02*
D03*
X506000Y424000D02*
D03*
X501000Y350000D02*
D03*
X534000Y447000D02*
D03*
X501000Y429000D02*
D03*
X496000Y354000D02*
D03*
X551000Y384000D02*
D03*
X577000Y402000D02*
D03*
X806000Y315000D02*
D03*
Y340000D02*
D03*
Y404000D02*
D03*
X806000Y378000D02*
D03*
X704000Y396000D02*
D03*
X537000Y351000D02*
D03*
X689000Y326000D02*
D03*
Y315000D02*
D03*
X480000Y359000D02*
D03*
X624000Y323000D02*
D03*
X618000Y317000D02*
D03*
Y329000D02*
D03*
X577000Y451000D02*
D03*
X570000Y448000D02*
D03*
X488000Y324000D02*
D03*
X481000Y454000D02*
D03*
X479000Y494000D02*
D03*
X462000Y462000D02*
D03*
X434000Y488000D02*
D03*
X722000Y403000D02*
D03*
Y365000D02*
D03*
X704000Y370000D02*
D03*
X666000Y329000D02*
D03*
X651000Y373000D02*
D03*
X666000Y348000D02*
D03*
Y363000D02*
D03*
X561000Y347000D02*
D03*
X571000Y326000D02*
D03*
Y336000D02*
D03*
X722000Y327000D02*
D03*
Y353000D02*
D03*
X697000D02*
D03*
X458000Y320000D02*
D03*
X423000Y315000D02*
D03*
X460000Y327000D02*
D03*
X442000Y325000D02*
D03*
X465000Y335000D02*
D03*
X509000Y303000D02*
D03*
X472000Y315000D02*
D03*
X464000Y449000D02*
D03*
X399000Y385000D02*
D03*
X242000Y409000D02*
D03*
X281000Y328000D02*
D03*
X317000Y411000D02*
D03*
X372000Y345000D02*
D03*
X327000Y354000D02*
D03*
X343000Y349000D02*
D03*
X306000Y451000D02*
D03*
X392000Y385000D02*
D03*
X437000D02*
D03*
X392000Y367000D02*
D03*
X449000Y349000D02*
D03*
X399000Y425000D02*
D03*
X252000Y370000D02*
D03*
X376000Y352000D02*
D03*
X248000Y358000D02*
D03*
X293000Y381000D02*
D03*
X498000Y339000D02*
D03*
X499000Y312000D02*
D03*
X434000Y441000D02*
D03*
X407000Y462000D02*
D03*
X402000Y457000D02*
D03*
X480000Y419000D02*
D03*
X485000Y364000D02*
D03*
Y374000D02*
D03*
Y384000D02*
D03*
Y394000D02*
D03*
X486000Y404000D02*
D03*
X471500Y349000D02*
D03*
X348000Y414000D02*
D03*
Y404000D02*
D03*
X342000Y399000D02*
D03*
X348000Y394000D02*
D03*
X343000Y359000D02*
D03*
X342000Y389000D02*
D03*
Y379000D02*
D03*
X348000Y384000D02*
D03*
X480000Y399000D02*
D03*
Y389000D02*
D03*
Y379000D02*
D03*
Y369000D02*
D03*
X348000Y354000D02*
D03*
Y364000D02*
D03*
X273000Y372000D02*
D03*
X348000Y374000D02*
D03*
X437000Y320000D02*
D03*
X209000Y335000D02*
D03*
X260000Y364000D02*
D03*
X235000Y402000D02*
D03*
X237000Y415000D02*
D03*
X242000Y421000D02*
D03*
X254000Y392000D02*
D03*
X292000Y457000D02*
D03*
X432000Y325000D02*
D03*
X422000Y322000D02*
D03*
X238000Y427000D02*
D03*
D133*
X863000Y360000D02*
D03*
X849000D02*
D03*
X889000Y356000D02*
D03*
Y378000D02*
D03*
D134*
X184750Y325000D02*
D03*
Y460000D02*
D03*
Y455000D02*
D03*
Y450000D02*
D03*
Y445000D02*
D03*
Y485250D02*
D03*
Y465250D02*
D03*
Y475250D02*
D03*
Y470250D02*
D03*
Y480250D02*
D03*
Y440000D02*
D03*
Y430000D02*
D03*
Y410000D02*
D03*
Y390000D02*
D03*
Y370000D02*
D03*
Y350000D02*
D03*
Y310000D02*
D03*
Y435000D02*
D03*
Y415000D02*
D03*
Y425000D02*
D03*
Y420000D02*
D03*
Y395000D02*
D03*
Y405000D02*
D03*
Y400000D02*
D03*
Y375000D02*
D03*
Y385000D02*
D03*
Y380000D02*
D03*
Y355000D02*
D03*
Y365000D02*
D03*
Y360000D02*
D03*
Y315000D02*
D03*
Y320000D02*
D03*
Y305000D02*
D03*
D135*
X986000Y481000D02*
D03*
D136*
X875500Y493500D02*
D03*
D137*
X806500Y442500D02*
D03*
D138*
X796500Y401500D02*
D03*
D139*
X833500Y360000D02*
D03*
D140*
X888500Y368000D02*
D03*
D141*
X395500Y436500D02*
D03*
D142*
X398500Y293000D02*
D03*
D143*
X184500Y314500D02*
D03*
M02*
