M48
;Layer_Color=9474304
;FILE_FORMAT=4:4
METRIC,LZ
;TYPE=PLATED
T2F00S00C0.5500
;TYPE=NON_PLATED
%
G90
G05
T02
G00X0102108Y003517
M15
G01X0101058
M16
G00X0102108Y003518
M15
G01X0101058
M16
G00X0106068Y003518
M15
G01X0104818
M16
G00X0106068Y003517
M15
G01X0104818
M16
G00X0106068Y004382
M15
G01X0104818
M16
G00X0106068Y004383
M15
G01X0104818
M16
G00X0102108Y004383
M15
G01X0101058
M16
G00X0102108Y004382
M15
G01X0101058
M16
G00X006305Y0044665
M15
G01Y0043615
M16
G00X006305Y0048625
M15
G01Y0047375
M16
G00X00544Y0048625
M15
G01Y0047375
M16
G00X00544Y0044665
M15
G01Y0043615
M16
M17
M30
