G04*
G04 #@! TF.GenerationSoftware,Altium Limited,Altium Designer,18.1.7 (191)*
G04*
G04 Layer_Color=8421504*
%FSLAX44Y44*%
%MOMM*%
G71*
G01*
G75*
%ADD15R,0.6000X0.6000*%
%ADD16R,0.6000X0.6000*%
%ADD17R,1.1000X2.0000*%
%ADD18R,1.7000X0.6500*%
%ADD19O,1.7000X0.6500*%
%ADD20R,1.1500X0.6000*%
%ADD21R,1.1500X0.3000*%
%ADD22R,2.6000X1.7000*%
%ADD23R,1.7000X0.9000*%
%ADD24R,2.5000X0.9000*%
%ADD25R,0.4500X1.0000*%
%ADD26R,0.8000X0.8000*%
%ADD27R,1.0000X0.4500*%
%ADD28R,1.5000X1.2000*%
%ADD29R,0.9300X0.9800*%
%ADD30R,0.2000X0.6000*%
%ADD31R,0.2800X0.2800*%
%ADD32O,0.2800X0.6600*%
%ADD33O,0.6600X0.2800*%
%ADD34R,1.2500X1.2500*%
%ADD35R,1.3000X1.5000*%
%ADD36R,1.5000X1.3000*%
%ADD37R,2.2500X0.3500*%
%ADD38R,0.6000X1.1500*%
%ADD39R,0.3000X1.1500*%
%ADD40R,0.7000X1.1000*%
G04:AMPARAMS|DCode=41|XSize=0.3mm|YSize=0.8mm|CornerRadius=0.075mm|HoleSize=0mm|Usage=FLASHONLY|Rotation=180.000|XOffset=0mm|YOffset=0mm|HoleType=Round|Shape=RoundedRectangle|*
%AMROUNDEDRECTD41*
21,1,0.3000,0.6500,0,0,180.0*
21,1,0.1500,0.8000,0,0,180.0*
1,1,0.1500,-0.0750,0.3250*
1,1,0.1500,0.0750,0.3250*
1,1,0.1500,0.0750,-0.3250*
1,1,0.1500,-0.0750,-0.3250*
%
%ADD41ROUNDEDRECTD41*%
G04:AMPARAMS|DCode=42|XSize=0.3mm|YSize=0.8mm|CornerRadius=0.075mm|HoleSize=0mm|Usage=FLASHONLY|Rotation=90.000|XOffset=0mm|YOffset=0mm|HoleType=Round|Shape=RoundedRectangle|*
%AMROUNDEDRECTD42*
21,1,0.3000,0.6500,0,0,90.0*
21,1,0.1500,0.8000,0,0,90.0*
1,1,0.1500,0.3250,0.0750*
1,1,0.1500,0.3250,-0.0750*
1,1,0.1500,-0.3250,-0.0750*
1,1,0.1500,-0.3250,0.0750*
%
%ADD42ROUNDEDRECTD42*%
%ADD43R,2.4000X1.7000*%
%ADD44R,0.9800X0.9300*%
%ADD45R,0.6000X0.2000*%
%ADD46R,1.4000X1.2000*%
%ADD47R,1.6700X0.7600*%
D15*
X558080Y307000D02*
D03*
X547920D02*
D03*
X558080Y316000D02*
D03*
X547920D02*
D03*
X719920Y442000D02*
D03*
X730080D02*
D03*
X762920Y481000D02*
D03*
X773080D02*
D03*
X762920Y491000D02*
D03*
X773080D02*
D03*
X762080Y457000D02*
D03*
X751920D02*
D03*
X762080Y470000D02*
D03*
X751920D02*
D03*
X526080Y450000D02*
D03*
X515920D02*
D03*
X495920Y407000D02*
D03*
X506080D02*
D03*
X564080Y328000D02*
D03*
X553920D02*
D03*
X258420Y404000D02*
D03*
X268580D02*
D03*
X461920Y470000D02*
D03*
X472080D02*
D03*
X476080Y326000D02*
D03*
X465920D02*
D03*
X350920Y451000D02*
D03*
X361080D02*
D03*
X476080Y316000D02*
D03*
X465920D02*
D03*
X316080Y434000D02*
D03*
X305920D02*
D03*
Y423000D02*
D03*
X316080D02*
D03*
Y445000D02*
D03*
X305920D02*
D03*
X536080Y294000D02*
D03*
X525920D02*
D03*
X490080Y298000D02*
D03*
X479920D02*
D03*
X280920Y430000D02*
D03*
X291080D02*
D03*
X257920Y330000D02*
D03*
X268080D02*
D03*
X515920Y437000D02*
D03*
X526080D02*
D03*
X431080Y312000D02*
D03*
X420920D02*
D03*
X578080Y306000D02*
D03*
X567920D02*
D03*
X836920Y362000D02*
D03*
X847080D02*
D03*
X836920Y337000D02*
D03*
X847080D02*
D03*
X836920Y349000D02*
D03*
X847080D02*
D03*
X703920Y393000D02*
D03*
X714080D02*
D03*
X703920Y414000D02*
D03*
X714080D02*
D03*
X703920Y383000D02*
D03*
X714080D02*
D03*
X578080Y297000D02*
D03*
X567920D02*
D03*
X578080Y316000D02*
D03*
X567920D02*
D03*
Y370000D02*
D03*
X578080D02*
D03*
X567920Y360000D02*
D03*
X578080D02*
D03*
X703920Y373000D02*
D03*
X714080D02*
D03*
X715080Y336000D02*
D03*
X704920D02*
D03*
X714080Y363000D02*
D03*
X703920D02*
D03*
X714080Y403000D02*
D03*
X703920D02*
D03*
X564080Y338000D02*
D03*
X553920D02*
D03*
X578080Y348000D02*
D03*
X567920D02*
D03*
D16*
X752000Y491080D02*
D03*
Y480920D02*
D03*
X709000Y442080D02*
D03*
Y431920D02*
D03*
X663000Y467080D02*
D03*
Y456920D02*
D03*
X773000D02*
D03*
Y467080D02*
D03*
X646000Y442080D02*
D03*
Y431920D02*
D03*
X294000Y342920D02*
D03*
Y353080D02*
D03*
X524000Y378080D02*
D03*
Y367920D02*
D03*
X334000Y361920D02*
D03*
Y372080D02*
D03*
X482000Y447080D02*
D03*
Y436920D02*
D03*
X543000Y357920D02*
D03*
Y368080D02*
D03*
X504000Y447080D02*
D03*
Y436920D02*
D03*
X294000Y446920D02*
D03*
Y457080D02*
D03*
X282000Y446920D02*
D03*
Y457080D02*
D03*
X493000Y447080D02*
D03*
Y436920D02*
D03*
X334000Y382920D02*
D03*
Y393080D02*
D03*
X524000Y347920D02*
D03*
Y358080D02*
D03*
X837000Y387080D02*
D03*
Y376920D02*
D03*
X578000Y327920D02*
D03*
Y338080D02*
D03*
X690000Y395920D02*
D03*
Y406080D02*
D03*
X554000Y347920D02*
D03*
Y358080D02*
D03*
X604000Y395920D02*
D03*
Y406080D02*
D03*
X615000Y395920D02*
D03*
Y406080D02*
D03*
X626000D02*
D03*
Y395920D02*
D03*
X640000D02*
D03*
Y406080D02*
D03*
X654000Y395920D02*
D03*
Y406080D02*
D03*
X668000Y396000D02*
D03*
Y406160D02*
D03*
X679000Y395920D02*
D03*
Y406080D02*
D03*
D17*
X695000Y435000D02*
D03*
X659000D02*
D03*
D18*
X846000Y456900D02*
D03*
X735000Y457000D02*
D03*
D19*
X846000Y469600D02*
D03*
Y482300D02*
D03*
Y495000D02*
D03*
X790000Y456900D02*
D03*
Y469600D02*
D03*
Y482300D02*
D03*
Y495000D02*
D03*
X735000Y469700D02*
D03*
Y482400D02*
D03*
Y495100D02*
D03*
X679000Y457000D02*
D03*
Y469700D02*
D03*
Y482400D02*
D03*
Y495100D02*
D03*
D20*
X1012030Y364000D02*
D03*
Y371500D02*
D03*
X1012000Y418500D02*
D03*
X1012030Y426000D02*
D03*
D21*
Y377500D02*
D03*
Y382500D02*
D03*
Y387500D02*
D03*
Y392500D02*
D03*
X1012000Y397500D02*
D03*
X1012030Y402500D02*
D03*
Y407500D02*
D03*
Y412500D02*
D03*
D22*
X518000Y478000D02*
D03*
D23*
X492000Y463000D02*
D03*
Y494000D02*
D03*
D24*
X496000Y478000D02*
D03*
D25*
X881000Y379000D02*
D03*
Y357000D02*
D03*
X901000Y379000D02*
D03*
Y357000D02*
D03*
Y343000D02*
D03*
Y321000D02*
D03*
X881000Y343000D02*
D03*
Y321000D02*
D03*
X901000Y431000D02*
D03*
Y453000D02*
D03*
X881000Y431000D02*
D03*
Y453000D02*
D03*
X901000Y395000D02*
D03*
Y417000D02*
D03*
X881000Y395000D02*
D03*
Y417000D02*
D03*
D26*
X269000Y416000D02*
D03*
X255000D02*
D03*
X269300Y430000D02*
D03*
X255300D02*
D03*
X269300Y443000D02*
D03*
X255300D02*
D03*
X269300Y456000D02*
D03*
X255300D02*
D03*
D27*
X306500Y349500D02*
D03*
X328500D02*
D03*
X306500Y333000D02*
D03*
X328500D02*
D03*
D28*
X862000Y400954D02*
D03*
Y373046D02*
D03*
Y325046D02*
D03*
Y352954D02*
D03*
D29*
X698300Y350000D02*
D03*
X713700D02*
D03*
X698300Y323000D02*
D03*
X713700D02*
D03*
X343300Y335000D02*
D03*
X358700D02*
D03*
D30*
X605000Y323000D02*
D03*
X601000D02*
D03*
X613000Y330000D02*
D03*
X609000D02*
D03*
X613000Y317000D02*
D03*
X609000D02*
D03*
D31*
X496500Y342150D02*
D03*
X501500D02*
D03*
X506500D02*
D03*
X511500D02*
D03*
X519150Y332214D02*
D03*
Y327214D02*
D03*
Y322214D02*
D03*
X511500Y311850D02*
D03*
X506500D02*
D03*
X501500D02*
D03*
X496500D02*
D03*
X488850Y321960D02*
D03*
Y326960D02*
D03*
Y331960D02*
D03*
D32*
X496500Y340250D02*
D03*
X501500D02*
D03*
X506500D02*
D03*
X511500D02*
D03*
Y313750D02*
D03*
X506500D02*
D03*
X501500D02*
D03*
X496500D02*
D03*
D33*
X517250Y332214D02*
D03*
Y327214D02*
D03*
Y322214D02*
D03*
X490750Y321960D02*
D03*
Y326960D02*
D03*
Y331960D02*
D03*
D34*
X504000Y327000D02*
D03*
D35*
X449500Y492000D02*
D03*
X468500D02*
D03*
D36*
X842000Y438500D02*
D03*
Y419500D02*
D03*
X862000Y438500D02*
D03*
Y419500D02*
D03*
D37*
X181000Y457500D02*
D03*
Y452500D02*
D03*
Y447500D02*
D03*
Y442500D02*
D03*
Y302500D02*
D03*
Y307500D02*
D03*
Y312500D02*
D03*
Y317500D02*
D03*
Y322500D02*
D03*
Y327500D02*
D03*
Y352500D02*
D03*
Y357500D02*
D03*
Y362500D02*
D03*
Y367500D02*
D03*
Y372500D02*
D03*
Y377500D02*
D03*
Y382500D02*
D03*
Y387500D02*
D03*
Y392500D02*
D03*
Y397500D02*
D03*
Y402500D02*
D03*
Y407500D02*
D03*
Y412500D02*
D03*
Y417500D02*
D03*
Y422500D02*
D03*
Y427500D02*
D03*
Y432500D02*
D03*
Y437500D02*
D03*
Y462500D02*
D03*
Y487500D02*
D03*
Y482500D02*
D03*
Y477500D02*
D03*
Y472500D02*
D03*
Y467500D02*
D03*
D38*
X618300Y437600D02*
D03*
X610800D02*
D03*
X563800Y437570D02*
D03*
X556300Y437600D02*
D03*
D39*
X604800D02*
D03*
X599800D02*
D03*
X594800D02*
D03*
X589800D02*
D03*
X584800Y437570D02*
D03*
X579800Y437600D02*
D03*
X574800D02*
D03*
X569800D02*
D03*
D40*
X280500Y337500D02*
D03*
Y396500D02*
D03*
X243500D02*
D03*
Y337500D02*
D03*
D41*
X452000Y448500D02*
D03*
X447000D02*
D03*
X442000D02*
D03*
X437000D02*
D03*
X432000D02*
D03*
X427000D02*
D03*
X422000D02*
D03*
X417000D02*
D03*
X412000D02*
D03*
X407000D02*
D03*
X402000D02*
D03*
X397000D02*
D03*
X392000D02*
D03*
X387000D02*
D03*
X382000D02*
D03*
X377000D02*
D03*
X452000Y334500D02*
D03*
X447000D02*
D03*
X442000D02*
D03*
X437000D02*
D03*
X432000D02*
D03*
X427000D02*
D03*
X422000D02*
D03*
X417000D02*
D03*
X412000D02*
D03*
X407000D02*
D03*
X402000D02*
D03*
X397000D02*
D03*
X392000D02*
D03*
X387000D02*
D03*
X382000D02*
D03*
X377000D02*
D03*
X386500Y350250D02*
D03*
X391500D02*
D03*
X396500D02*
D03*
X401500D02*
D03*
X406500D02*
D03*
X411500D02*
D03*
X416500D02*
D03*
X421500D02*
D03*
X426500D02*
D03*
X431500D02*
D03*
X436500D02*
D03*
X441500D02*
D03*
X386500Y433750D02*
D03*
X391500D02*
D03*
X396500D02*
D03*
X401500D02*
D03*
X406500D02*
D03*
X411500D02*
D03*
X416500D02*
D03*
X421500D02*
D03*
X426500D02*
D03*
X431500D02*
D03*
X436500D02*
D03*
X441500D02*
D03*
X661500Y382750D02*
D03*
X656500D02*
D03*
X651500D02*
D03*
X646500D02*
D03*
X641500D02*
D03*
X636500D02*
D03*
X631500D02*
D03*
X626500D02*
D03*
X621500D02*
D03*
X616500D02*
D03*
X611500D02*
D03*
X606500D02*
D03*
X661500Y299250D02*
D03*
X656500D02*
D03*
X651500D02*
D03*
X646500D02*
D03*
X641500D02*
D03*
X636500D02*
D03*
X631500D02*
D03*
X626500D02*
D03*
X621500D02*
D03*
X616500D02*
D03*
X611500D02*
D03*
X606500D02*
D03*
D42*
X471500Y354000D02*
D03*
Y359000D02*
D03*
Y364000D02*
D03*
Y369000D02*
D03*
Y374000D02*
D03*
Y379000D02*
D03*
Y384000D02*
D03*
Y389000D02*
D03*
Y394000D02*
D03*
Y399000D02*
D03*
Y404000D02*
D03*
Y409000D02*
D03*
Y414000D02*
D03*
Y419000D02*
D03*
Y424000D02*
D03*
Y429000D02*
D03*
X357080Y354000D02*
D03*
Y359000D02*
D03*
Y364000D02*
D03*
Y369000D02*
D03*
Y374000D02*
D03*
Y379000D02*
D03*
Y384000D02*
D03*
Y389000D02*
D03*
Y394000D02*
D03*
Y399000D02*
D03*
Y404000D02*
D03*
Y409000D02*
D03*
Y414000D02*
D03*
Y419000D02*
D03*
Y424000D02*
D03*
Y429000D02*
D03*
X372250Y419500D02*
D03*
X372250Y414500D02*
D03*
X372250Y409500D02*
D03*
X372250Y404500D02*
D03*
Y399500D02*
D03*
Y394500D02*
D03*
Y389500D02*
D03*
Y384500D02*
D03*
X372250Y379500D02*
D03*
X372250Y374500D02*
D03*
Y369500D02*
D03*
Y364500D02*
D03*
X455750Y419500D02*
D03*
Y414500D02*
D03*
Y409500D02*
D03*
Y404500D02*
D03*
Y399500D02*
D03*
Y394500D02*
D03*
Y389500D02*
D03*
Y384500D02*
D03*
Y379500D02*
D03*
Y374500D02*
D03*
Y369500D02*
D03*
Y364500D02*
D03*
X675750Y313500D02*
D03*
X675750Y318500D02*
D03*
X675750Y323500D02*
D03*
X675750Y328500D02*
D03*
Y333500D02*
D03*
Y338500D02*
D03*
Y343500D02*
D03*
Y348500D02*
D03*
X675750Y353500D02*
D03*
X675750Y358500D02*
D03*
Y363500D02*
D03*
Y368500D02*
D03*
X592250Y313500D02*
D03*
Y318500D02*
D03*
Y323500D02*
D03*
Y328500D02*
D03*
Y333500D02*
D03*
Y338500D02*
D03*
Y343500D02*
D03*
Y348500D02*
D03*
Y353500D02*
D03*
Y358500D02*
D03*
Y363500D02*
D03*
Y368500D02*
D03*
D43*
X310600Y407500D02*
D03*
Y370500D02*
D03*
D44*
X545000Y394700D02*
D03*
Y379300D02*
D03*
D45*
X615000Y411000D02*
D03*
Y415000D02*
D03*
D46*
X586000Y387000D02*
D03*
Y404000D02*
D03*
X564000D02*
D03*
Y387000D02*
D03*
D47*
X735350Y425450D02*
D03*
Y412750D02*
D03*
Y400050D02*
D03*
Y387350D02*
D03*
Y374650D02*
D03*
Y361950D02*
D03*
Y349250D02*
D03*
Y336550D02*
D03*
X820650D02*
D03*
Y349250D02*
D03*
Y361950D02*
D03*
Y374650D02*
D03*
Y387350D02*
D03*
Y400050D02*
D03*
Y412750D02*
D03*
Y425450D02*
D03*
M02*
