G04*
G04 #@! TF.GenerationSoftware,Altium Limited,Altium Designer,18.1.7 (191)*
G04*
G04 Layer_Color=16711935*
%FSLAX44Y44*%
%MOMM*%
G71*
G01*
G75*
%ADD55R,1.3532X0.8032*%
%ADD56R,1.3532X0.5032*%
%ADD81C,1.7272*%
%ADD82R,1.7272X1.7272*%
%ADD83C,0.2032*%
%ADD84R,2.2032X1.4032*%
%ADD85R,2.5032X1.4032*%
%ADD86C,1.6012*%
%ADD87C,2.5582*%
%ADD88C,3.4532*%
%ADD89R,1.6012X1.6012*%
%ADD90C,1.3552*%
%ADD91R,1.4032X2.2032*%
%ADD92R,1.4032X2.5032*%
%ADD131R,3.6250X19.8500*%
%ADD132R,3.2032X0.5532*%
D55*
X1012030Y426000D02*
D03*
Y418500D02*
D03*
X1012000Y371500D02*
D03*
X1012030Y364000D02*
D03*
D56*
Y412500D02*
D03*
Y407500D02*
D03*
Y402500D02*
D03*
Y397500D02*
D03*
X1012000Y392500D02*
D03*
X1012030Y387500D02*
D03*
Y382500D02*
D03*
Y377500D02*
D03*
D81*
X435400Y297000D02*
D03*
X867200D02*
D03*
X841800D02*
D03*
X816400D02*
D03*
X791000D02*
D03*
X460800D02*
D03*
X765600D02*
D03*
D82*
X892600D02*
D03*
D83*
X410000D02*
D03*
X384600D02*
D03*
X887000Y481000D02*
D03*
X1023000Y365000D02*
D03*
Y425000D02*
D03*
Y425000D02*
D03*
Y365000D02*
D03*
X617300Y448570D02*
D03*
X557300D02*
D03*
D84*
X1015830Y351800D02*
D03*
Y438300D02*
D03*
Y438200D02*
D03*
Y351700D02*
D03*
D85*
X1054430Y351800D02*
D03*
Y438300D02*
D03*
Y438200D02*
D03*
Y351700D02*
D03*
D86*
X928700Y440500D02*
D03*
Y463400D02*
D03*
Y349100D02*
D03*
Y326200D02*
D03*
X977000Y359200D02*
D03*
X994800Y369400D02*
D03*
X977000Y379600D02*
D03*
X994800Y389800D02*
D03*
X977000Y400000D02*
D03*
X994800Y410200D02*
D03*
X977000Y420400D02*
D03*
D87*
X985900Y476100D02*
D03*
Y313500D02*
D03*
D88*
X1020200Y458300D02*
D03*
Y331300D02*
D03*
D89*
X994800Y430600D02*
D03*
D90*
X1040000Y299000D02*
D03*
Y489000D02*
D03*
X340000Y439000D02*
D03*
X1050000Y315000D02*
D03*
Y470000D02*
D03*
D91*
X630500Y441400D02*
D03*
X544000D02*
D03*
D92*
X630500Y480000D02*
D03*
X544000D02*
D03*
D131*
X184125Y395000D02*
D03*
D132*
X184750Y325000D02*
D03*
Y460000D02*
D03*
Y455000D02*
D03*
Y450000D02*
D03*
Y445000D02*
D03*
Y485250D02*
D03*
Y465250D02*
D03*
Y475250D02*
D03*
Y470250D02*
D03*
Y480250D02*
D03*
Y440000D02*
D03*
Y430000D02*
D03*
Y410000D02*
D03*
Y390000D02*
D03*
Y370000D02*
D03*
Y350000D02*
D03*
Y310000D02*
D03*
Y435000D02*
D03*
Y415000D02*
D03*
Y425000D02*
D03*
Y420000D02*
D03*
Y395000D02*
D03*
Y405000D02*
D03*
Y400000D02*
D03*
Y375000D02*
D03*
Y385000D02*
D03*
Y380000D02*
D03*
Y355000D02*
D03*
Y365000D02*
D03*
Y360000D02*
D03*
Y315000D02*
D03*
Y320000D02*
D03*
Y305000D02*
D03*
M02*
