G04*
G04 #@! TF.GenerationSoftware,Altium Limited,Altium Designer,18.1.7 (191)*
G04*
G04 Layer_Physical_Order=1*
G04 Layer_Color=255*
%FSLAX44Y44*%
%MOMM*%
G71*
G01*
G75*
%ADD10C,0.2000*%
%ADD13C,0.1500*%
%ADD14C,0.2540*%
%ADD15R,0.9800X0.9300*%
%ADD16R,0.6000X0.6000*%
%ADD17R,0.6000X0.6000*%
%ADD18R,0.6000X0.2000*%
%ADD19R,1.5000X1.3000*%
%ADD20R,1.4000X1.2000*%
%ADD21R,2.4000X1.7000*%
G04:AMPARAMS|DCode=22|XSize=0.3mm|YSize=0.8mm|CornerRadius=0.075mm|HoleSize=0mm|Usage=FLASHONLY|Rotation=270.000|XOffset=0mm|YOffset=0mm|HoleType=Round|Shape=RoundedRectangle|*
%AMROUNDEDRECTD22*
21,1,0.3000,0.6500,0,0,270.0*
21,1,0.1500,0.8000,0,0,270.0*
1,1,0.1500,-0.3250,-0.0750*
1,1,0.1500,-0.3250,0.0750*
1,1,0.1500,0.3250,0.0750*
1,1,0.1500,0.3250,-0.0750*
%
%ADD22ROUNDEDRECTD22*%
G04:AMPARAMS|DCode=23|XSize=0.3mm|YSize=0.8mm|CornerRadius=0.075mm|HoleSize=0mm|Usage=FLASHONLY|Rotation=0.000|XOffset=0mm|YOffset=0mm|HoleType=Round|Shape=RoundedRectangle|*
%AMROUNDEDRECTD23*
21,1,0.3000,0.6500,0,0,0.0*
21,1,0.1500,0.8000,0,0,0.0*
1,1,0.1500,0.0750,-0.3250*
1,1,0.1500,-0.0750,-0.3250*
1,1,0.1500,-0.0750,0.3250*
1,1,0.1500,0.0750,0.3250*
%
%ADD23ROUNDEDRECTD23*%
%ADD24R,0.2800X0.2800*%
%ADD25O,0.2800X0.6600*%
%ADD26O,0.6600X0.2800*%
%ADD27R,1.2500X1.2500*%
%ADD28R,1.7000X0.9000*%
%ADD29R,2.5000X0.9000*%
%ADD30R,2.6000X1.7000*%
%ADD31R,1.6700X0.7600*%
%ADD32R,0.7000X1.1000*%
%ADD33R,0.8000X0.8000*%
%ADD34R,0.5500X0.8000*%
%ADD35R,0.9300X0.9800*%
%ADD36R,0.6000X1.1500*%
%ADD37R,0.3000X1.1500*%
%ADD38R,2.2500X0.3500*%
%ADD39R,0.2000X0.6000*%
%ADD40R,0.4500X1.0000*%
%ADD41R,1.5000X1.2000*%
%ADD42R,1.3000X1.5000*%
%ADD81C,0.3000*%
%ADD82C,0.4000*%
%ADD83R,3.0000X0.4000*%
%ADD84R,0.4000X1.7000*%
%ADD85R,1.6000X0.6000*%
%ADD86R,0.9000X3.6000*%
%ADD87R,4.6000X0.6000*%
%ADD88R,4.6000X0.9000*%
%ADD89R,1.0000X1.7000*%
%ADD90R,6.1000X0.5000*%
%ADD91R,10.4000X0.9000*%
%ADD92R,0.6000X0.4000*%
%ADD93R,1.6000X0.4000*%
%ADD94R,3.6000X0.4000*%
%ADD95R,0.4000X0.6000*%
%ADD96R,0.4000X0.9000*%
%ADD97R,1.1000X4.5000*%
%ADD98R,11.0000X0.4000*%
%ADD99R,1.1000X2.3000*%
%ADD100R,12.0000X1.0000*%
%ADD101R,1.0000X2.8000*%
%ADD102R,8.6000X1.2000*%
%ADD103R,0.4000X1.7000*%
%ADD104R,0.4000X2.0000*%
%ADD105R,2.3000X0.8000*%
%ADD106R,6.3000X0.7000*%
%ADD107R,1.2000X3.5000*%
%ADD108R,9.1000X0.7000*%
%ADD109R,0.4000X0.6000*%
%ADD110R,0.4000X2.1000*%
%ADD111R,3.6000X1.3000*%
%ADD112R,8.1000X1.4000*%
%ADD113R,2.5000X0.7000*%
%ADD114R,3.3000X1.2000*%
%ADD115R,1.3000X6.0000*%
%ADD116R,1.3000X6.1000*%
%ADD117R,0.4000X2.5000*%
%ADD118R,0.3000X2.5000*%
%ADD119R,9.3000X1.2000*%
%ADD120R,1.2000X2.2000*%
%ADD121R,0.6000X0.8000*%
%ADD122R,0.4000X3.7000*%
%ADD123R,32.5000X0.3000*%
%ADD124R,1.9000X1.1500*%
%ADD125C,1.1520*%
%ADD126C,1.5080*%
%ADD127R,1.5080X1.5080*%
%ADD128C,1.3980*%
%ADD129C,2.3550*%
%ADD130C,3.2500*%
%ADD131R,1.3980X1.3980*%
%ADD132R,1.2000X2.0000*%
%ADD133R,1.2000X2.3000*%
%ADD134C,0.5080*%
%ADD135C,1.0000*%
G36*
X472000Y433000D02*
X465000D01*
X456000Y424000D01*
X451000Y424000D01*
X449000Y422000D01*
X449000Y420000D01*
X447000Y420000D01*
X407000D01*
X414000Y427000D01*
X444000D01*
X461000Y444000D01*
X472000D01*
Y433000D01*
D02*
G37*
G36*
X755000Y295000D02*
X666407D01*
X665601Y295982D01*
X665604Y296000D01*
Y297980D01*
X661500D01*
Y299250D01*
X660230D01*
Y305751D01*
X659466Y305599D01*
X658378Y304872D01*
X658238Y304662D01*
X658137Y304642D01*
X657250Y304818D01*
X656000D01*
Y376146D01*
X657250D01*
X658534Y376401D01*
X659622Y377128D01*
X659762Y377338D01*
X659863Y377358D01*
X660750Y377181D01*
X662250D01*
X662372Y377206D01*
X663459Y376161D01*
X663427Y376000D01*
Y366168D01*
X663070Y365930D01*
X662172Y364586D01*
X661856Y363000D01*
X662172Y361414D01*
X663070Y360070D01*
X664414Y359172D01*
X666000Y358856D01*
X667586Y359172D01*
X668905Y360053D01*
X669093Y360018D01*
X670182Y359250D01*
Y357750D01*
X670358Y356863D01*
X670338Y356762D01*
X670128Y356622D01*
X669401Y355534D01*
X669249Y354770D01*
X675750D01*
Y352230D01*
X669181D01*
X669166Y352193D01*
X668103Y351483D01*
X667586Y351828D01*
X666000Y352144D01*
X664414Y351828D01*
X663070Y350930D01*
X662172Y349586D01*
X661856Y348000D01*
X662172Y346414D01*
X663070Y345070D01*
X664414Y344172D01*
X666000Y343856D01*
X667586Y344172D01*
X668905Y345053D01*
X669093Y345018D01*
X670182Y344250D01*
Y342750D01*
X670358Y341863D01*
X670804Y341000D01*
X670358Y340137D01*
X670182Y339250D01*
Y337750D01*
X670358Y336863D01*
X670804Y336000D01*
X670358Y335137D01*
X670182Y334250D01*
Y332750D01*
X669093Y331982D01*
X668905Y331946D01*
X667586Y332828D01*
X666000Y333144D01*
X664414Y332828D01*
X663070Y331930D01*
X662172Y330586D01*
X661856Y329000D01*
X662172Y327414D01*
X663070Y326070D01*
X664414Y325172D01*
X666000Y324856D01*
X667586Y325172D01*
X668103Y325517D01*
X669166Y324807D01*
X669181Y324770D01*
X675750D01*
Y322230D01*
X669249D01*
X669401Y321466D01*
X670128Y320378D01*
X670338Y320238D01*
X670358Y320137D01*
X670182Y319250D01*
Y317750D01*
X670358Y316863D01*
X670861Y316110D01*
X670358Y315137D01*
X670182Y314250D01*
Y312750D01*
X670358Y311863D01*
X670861Y311110D01*
X671613Y310608D01*
X672500Y310431D01*
X679000D01*
X679887Y310608D01*
X680639Y311110D01*
X680851Y311427D01*
X687033D01*
X687414Y311172D01*
X689000Y310856D01*
X690586Y311172D01*
X691930Y312070D01*
X692157Y312409D01*
X693427Y312024D01*
Y302000D01*
X693622Y301015D01*
X694180Y300180D01*
X695015Y299622D01*
X696000Y299426D01*
X699396D01*
Y297476D01*
X708286D01*
X708444Y297476D01*
X709556D01*
X709714Y297476D01*
X718604D01*
Y299427D01*
X720396D01*
Y297476D01*
X729286D01*
X729444Y297476D01*
X730556D01*
X730714Y297476D01*
X739604D01*
Y299427D01*
X748000D01*
X748000Y299426D01*
X748985Y299622D01*
X749820Y300180D01*
X750378Y301015D01*
X750574Y302000D01*
Y327000D01*
X750378Y327985D01*
X749820Y328820D01*
X750198Y330095D01*
X750586Y330172D01*
X751930Y331070D01*
X752828Y332414D01*
X753144Y334000D01*
X752828Y335586D01*
X751930Y336930D01*
X750586Y337828D01*
X749000Y338144D01*
X747414Y337828D01*
X746494Y337213D01*
X745224Y337776D01*
Y345274D01*
X725476D01*
Y342573D01*
X718604D01*
Y346524D01*
X710266D01*
X709485Y347431D01*
X709484Y347450D01*
X710253Y348476D01*
X718604D01*
Y348854D01*
X719874Y349533D01*
X720414Y349172D01*
X722000Y348856D01*
X723586Y349172D01*
X724206Y349586D01*
X725476Y348907D01*
Y347326D01*
X745224D01*
Y357974D01*
X725476D01*
Y357093D01*
X724206Y356414D01*
X723586Y356828D01*
X722000Y357144D01*
X720414Y356828D01*
X719874Y356467D01*
X718604Y357146D01*
X718604Y357524D01*
X718604Y358794D01*
Y360854D01*
X719874Y361533D01*
X720414Y361172D01*
X722000Y360856D01*
X723586Y361172D01*
X724206Y361586D01*
X725476Y360907D01*
Y360026D01*
X745224D01*
Y370674D01*
X725476D01*
X725286Y370861D01*
Y371535D01*
X726478Y372726D01*
X745224D01*
Y383374D01*
X725476D01*
Y380573D01*
X722000D01*
X721015Y380378D01*
X720180Y379820D01*
X719874Y379361D01*
X718604Y379747D01*
Y382524D01*
X718604D01*
Y383476D01*
X718604D01*
Y386176D01*
X725476D01*
Y385426D01*
X745224D01*
Y396074D01*
X725476D01*
Y391323D01*
X718604D01*
Y392524D01*
X714329D01*
X714080Y392573D01*
X713831Y392524D01*
X710073Y392524D01*
X709460Y393540D01*
X708943Y393540D01*
X708143Y394409D01*
X707907Y394810D01*
X708144Y396000D01*
X707904Y397206D01*
X708444Y398476D01*
X709556D01*
X709714Y398476D01*
X718604D01*
Y398854D01*
X719874Y399533D01*
X720414Y399172D01*
X722000Y398856D01*
X723586Y399172D01*
X724206Y399586D01*
X725476Y398907D01*
Y398126D01*
X745224D01*
Y408774D01*
X725476D01*
Y407093D01*
X724206Y406414D01*
X723586Y406828D01*
X722000Y407144D01*
X720414Y406828D01*
X719874Y406467D01*
X718604Y407146D01*
Y407524D01*
X709714D01*
X709556Y407524D01*
X708444D01*
X708286Y407524D01*
X699396D01*
Y398476D01*
X699396D01*
X700096Y397206D01*
X699856Y396000D01*
X700093Y394810D01*
X699345Y393540D01*
X698380D01*
Y389270D01*
X703920D01*
Y386730D01*
X698380D01*
Y382460D01*
X699396D01*
Y373476D01*
X699907D01*
X700586Y372206D01*
X700172Y371586D01*
X699856Y370000D01*
X700096Y368794D01*
X699396Y367524D01*
X699396D01*
Y358540D01*
X698380D01*
Y354270D01*
X703920D01*
Y351730D01*
X698380D01*
Y347460D01*
X698590D01*
X699396Y346524D01*
X699396Y346190D01*
Y340574D01*
X681808D01*
X681131Y341841D01*
X681142Y341863D01*
X681319Y342750D01*
Y344250D01*
X682360Y345426D01*
X684476D01*
Y342396D01*
X693524D01*
Y351444D01*
X694540Y351540D01*
Y355810D01*
X689000D01*
Y358350D01*
X694540D01*
Y362620D01*
X694473D01*
X693524Y363396D01*
X693524Y371927D01*
X694540Y372540D01*
X694540Y373057D01*
X694540Y373057D01*
Y376810D01*
X683460D01*
Y373057D01*
X683460Y373057D01*
X683460Y372540D01*
X684476Y371927D01*
X684476Y371270D01*
Y366115D01*
X682491Y364131D01*
X681235Y364670D01*
X681142Y365137D01*
X680697Y366000D01*
X681142Y366863D01*
X681319Y367750D01*
Y369250D01*
X681142Y370137D01*
X680639Y370889D01*
X679887Y371392D01*
X679000Y371568D01*
X672500D01*
X671613Y371392D01*
X670861Y370889D01*
X670358Y370137D01*
X670182Y369250D01*
Y367893D01*
X669972Y367564D01*
X669175Y366859D01*
X668653Y367008D01*
X668574Y367072D01*
Y374934D01*
X670820Y377180D01*
X671377Y378015D01*
X671573Y379000D01*
Y391476D01*
X672524D01*
X672524Y400007D01*
X673540Y400620D01*
X673540Y401137D01*
X673540Y401137D01*
Y404890D01*
X662460D01*
Y401137D01*
X662460Y401137D01*
X662460Y400620D01*
X663476Y400007D01*
X663476Y399350D01*
Y391476D01*
X666426D01*
Y380525D01*
X665839Y380079D01*
X664569Y380709D01*
Y386000D01*
X664392Y386887D01*
X663889Y387639D01*
X663137Y388142D01*
X662250Y388318D01*
X660750D01*
X659863Y388142D01*
X659762Y388162D01*
X659622Y388372D01*
X658534Y389099D01*
X657612Y389282D01*
X656937Y390415D01*
X657426Y391396D01*
X658524D01*
X658524Y399927D01*
X659540Y400540D01*
X659540Y401057D01*
X659540Y401057D01*
Y404810D01*
X648460D01*
Y401057D01*
X648460Y401057D01*
X648460Y400540D01*
X649476Y399927D01*
X649476Y397249D01*
X649427Y397000D01*
X649476Y396751D01*
Y391396D01*
X649476Y391396D01*
X649551Y390126D01*
X649122Y389485D01*
X647781Y389249D01*
X647770Y389251D01*
Y382750D01*
X645230D01*
Y389361D01*
X644232Y390126D01*
X644322Y391396D01*
X644524D01*
X644524Y399927D01*
X645540Y400540D01*
X645540Y401057D01*
X645540Y401057D01*
Y404810D01*
X634460D01*
Y401057D01*
X634460Y401057D01*
X634460Y400540D01*
X635476Y399927D01*
X635476Y399270D01*
Y391396D01*
X638927D01*
Y389142D01*
X638747Y388914D01*
X637657Y388238D01*
X637250Y388318D01*
X635750D01*
X634863Y388142D01*
X634762Y388162D01*
X634622Y388372D01*
X633534Y389099D01*
X632770Y389251D01*
Y382750D01*
X630230D01*
Y389361D01*
X629232Y390126D01*
X629322Y391396D01*
X630524D01*
Y400444D01*
X631540Y400540D01*
Y404810D01*
X626000D01*
Y406080D01*
X624730D01*
Y411620D01*
X620540D01*
Y416540D01*
X619650D01*
Y417000D01*
X619524Y417303D01*
Y418961D01*
X620586Y419172D01*
X621825Y420000D01*
X745385D01*
X745710Y419493D01*
X745936Y418730D01*
X745172Y417586D01*
X744856Y416000D01*
X745172Y414414D01*
X746070Y413070D01*
X747414Y412172D01*
X749000Y411856D01*
X750586Y412172D01*
X751930Y413070D01*
X752828Y414414D01*
X753144Y416000D01*
X752828Y417586D01*
X752064Y418730D01*
X752290Y419493D01*
X752615Y420000D01*
X755000D01*
Y295000D01*
D02*
G37*
G36*
X996000Y396000D02*
X996000Y386000D01*
X988000Y386000D01*
X981000Y393000D01*
X973000D01*
X973000Y407000D01*
X985000D01*
X996000Y396000D01*
D02*
G37*
G36*
X383000Y433000D02*
Y427000D01*
X387000D01*
Y419000D01*
X432000D01*
X403000Y390000D01*
X387000D01*
Y368000D01*
X380000Y362000D01*
Y419000D01*
X380000Y424000D01*
X371000Y424000D01*
X360000Y435000D01*
X360000Y444000D01*
X372000D01*
X383000Y433000D01*
D02*
G37*
G36*
X211000Y398000D02*
X242000Y367000D01*
Y362000D01*
X236000Y362000D01*
X207000Y391000D01*
X196000Y391000D01*
X196000Y398000D01*
X211000Y398000D01*
D02*
G37*
G36*
X449000Y398000D02*
X448000Y397000D01*
X425000D01*
X423000Y395000D01*
Y358000D01*
X384000D01*
Y360000D01*
X392000Y368000D01*
Y385000D01*
X404000D01*
X434000Y415000D01*
X449000D01*
Y398000D01*
D02*
G37*
G36*
X996000Y363000D02*
X986000Y353000D01*
X977000D01*
X977833Y363833D01*
X990000Y376000D01*
X996000Y376000D01*
Y363000D01*
D02*
G37*
G36*
X650000Y310000D02*
X610000D01*
Y312350D01*
X613000D01*
X613303Y312476D01*
X615524D01*
Y312476D01*
X616794Y313096D01*
X618000Y312856D01*
X619586Y313172D01*
X620930Y314070D01*
X621828Y315414D01*
X622144Y317000D01*
X621931Y318072D01*
X621944Y318102D01*
X622898Y319056D01*
X622928Y319069D01*
X624000Y318856D01*
X625586Y319172D01*
X626930Y320070D01*
X627828Y321414D01*
X628144Y323000D01*
X627828Y324586D01*
X626930Y325930D01*
X625586Y326828D01*
X624000Y327144D01*
X622928Y326931D01*
X622898Y326944D01*
X621944Y327898D01*
X621931Y327928D01*
X622144Y329000D01*
X621828Y330586D01*
X620930Y331930D01*
X619586Y332828D01*
X618000Y333144D01*
X616794Y332904D01*
X615524Y333644D01*
Y334524D01*
X613303D01*
X613000Y334650D01*
X610000D01*
Y365000D01*
X650000D01*
Y310000D01*
D02*
G37*
G36*
X207000Y328000D02*
X238000Y297000D01*
Y294000D01*
X224000Y294000D01*
X203000Y315000D01*
X196000D01*
X196000Y328000D01*
X207000Y328000D01*
D02*
G37*
%LPC*%
G36*
X673540Y411700D02*
X669270D01*
Y407430D01*
X673540D01*
Y411700D01*
D02*
G37*
G36*
X666730D02*
X662460D01*
Y407430D01*
X666730D01*
Y411700D01*
D02*
G37*
G36*
X631540Y411620D02*
X627270D01*
Y407350D01*
X631540D01*
Y411620D01*
D02*
G37*
G36*
X659540D02*
X655270D01*
Y407350D01*
X659540D01*
Y411620D01*
D02*
G37*
G36*
X652730D02*
X648460D01*
Y407350D01*
X652730D01*
Y411620D01*
D02*
G37*
G36*
X645540D02*
X641270D01*
Y407350D01*
X645540D01*
Y411620D01*
D02*
G37*
G36*
X638730D02*
X634460D01*
Y407350D01*
X638730D01*
Y411620D01*
D02*
G37*
G36*
X694540Y383620D02*
X690270D01*
Y379350D01*
X694540D01*
Y383620D01*
D02*
G37*
G36*
X687730D02*
X683460D01*
Y379350D01*
X687730D01*
Y383620D01*
D02*
G37*
G36*
X662770Y305751D02*
Y300520D01*
X665604D01*
Y302500D01*
X665349Y303784D01*
X664622Y304872D01*
X663534Y305599D01*
X662770Y305751D01*
D02*
G37*
%LPD*%
D10*
X575000Y394000D02*
X582000Y401000D01*
X575000Y377000D02*
Y394000D01*
X571000Y326000D02*
X585000D01*
X585000Y344000D02*
X593000D01*
X577080Y336080D02*
X585000Y344000D01*
X562080Y336080D02*
X577080D01*
X547000Y357000D02*
X560000D01*
X547000Y324000D02*
Y357000D01*
X546000Y380000D02*
X547000Y379000D01*
Y357000D02*
Y379000D01*
X580000Y371000D02*
X585000Y376000D01*
X595000D01*
X600000Y371000D01*
Y358500D02*
Y371000D01*
X592250Y358500D02*
X600000D01*
X602000Y348000D02*
X604000D01*
X602000Y348000D02*
X602000Y348000D01*
X647000Y483000D02*
X660000D01*
X479000Y494000D02*
X498000D01*
X527000Y437000D02*
X544000D01*
X481000Y450080D02*
X483000Y448080D01*
X561000Y347000D02*
X567920D01*
X554000Y326000D02*
Y346920D01*
X468000Y335000D02*
X471000Y332000D01*
X480000Y326000D02*
X482000Y324000D01*
X501080Y303000D02*
X508000D01*
X434000Y415000D02*
X456000D01*
X350500Y449000D02*
Y457000D01*
Y449000D02*
X351000D01*
X349500Y450000D02*
X350500Y449000D01*
X304920Y436920D02*
X305000Y437000D01*
X302920Y437920D02*
X304000Y439000D01*
X329080Y391080D02*
X334000D01*
X302920Y437000D02*
Y437080D01*
X373000Y354000D02*
X379000D01*
X455000Y302000D02*
X469000D01*
X422000D02*
X454000D01*
X604000Y350000D02*
Y373000D01*
X597000Y380000D02*
X604000Y373000D01*
X597000Y380000D02*
Y410000D01*
X602000Y348000D02*
X604000Y350000D01*
X579000Y360000D02*
X583000D01*
X585000Y362000D01*
Y366000D01*
X587500Y368500D01*
X592250D01*
X567000Y362000D02*
X568000Y361000D01*
X561000Y362000D02*
X567000D01*
X560000Y363000D02*
X561000Y362000D01*
X567000Y370000D02*
X567000Y370000D01*
X560000Y370000D02*
X567000D01*
X930000Y446000D02*
X934000Y442000D01*
X929000Y440000D02*
Y443000D01*
X520000Y350000D02*
X521000Y351000D01*
X509000Y494000D02*
Y496000D01*
X472000Y429500D02*
Y470000D01*
X473000Y462000D02*
X498000D01*
X492000Y447080D02*
Y461000D01*
X578000Y348000D02*
X580000D01*
X578000D02*
Y353500D01*
X568000Y316000D02*
X570000Y318000D01*
X568000Y309920D02*
X569920Y308000D01*
X498250Y335000D02*
Y339000D01*
X493000D02*
X498250D01*
X498100Y332000D02*
Y335000D01*
X361080Y451000D02*
X377000D01*
X360000Y449000D02*
X361080D01*
X255000Y398000D02*
Y441000D01*
X243500Y398000D02*
X255000D01*
X177000Y397000D02*
X198000D01*
X178000Y392000D02*
X199000D01*
X387000Y326000D02*
Y335500D01*
X449000Y313080D02*
X450000Y312080D01*
X565920Y320000D02*
X567920Y318000D01*
X551000Y320000D02*
X565920D01*
X547000Y324000D02*
X551000Y320000D01*
X569000Y299000D02*
Y307000D01*
X568000Y298000D02*
X569000Y299000D01*
X567920Y307000D02*
X569000D01*
X567920Y318000D02*
X569920D01*
X568000Y309920D02*
Y316000D01*
X579000D02*
X585000D01*
X587500Y313500D02*
X592250D01*
X585000Y316000D02*
X587500Y313500D01*
X613000Y329000D02*
X618000D01*
X636000Y299000D02*
Y299250D01*
X578000Y307000D02*
X637000D01*
X530000Y365500D02*
Y378000D01*
Y365500D02*
X537500D01*
X528000D02*
X530000D01*
X527000D02*
X528000D01*
X526750Y365750D02*
X527000Y366000D01*
X528000Y365000D02*
Y365500D01*
X491000Y381000D02*
X496000Y386000D01*
X529000Y408000D02*
X542000D01*
X496000Y375000D02*
X529000Y408000D01*
X496000Y354000D02*
Y375000D01*
X527000Y447080D02*
X535000D01*
X492500Y311750D02*
X499000D01*
X527000Y401000D02*
X534000D01*
X501000Y375000D02*
X527000Y401000D01*
X501000Y350000D02*
Y375000D01*
X506000Y373000D02*
X519000Y386000D01*
X506000Y358000D02*
Y373000D01*
X530000Y460000D02*
Y477000D01*
X500000Y327000D02*
X518000D01*
X492900Y437221D02*
X494992Y437920D01*
X492000Y436920D02*
X492900Y437221D01*
X491000Y434000D02*
Y436000D01*
X485000Y428000D02*
X491000Y434000D01*
X494992Y437920D02*
X504000Y447000D01*
X485000Y414000D02*
Y428000D01*
X1006000Y442000D02*
X1010000Y438000D01*
Y364000D02*
Y438000D01*
X972200Y326200D02*
X1010000Y364000D01*
X934000Y442000D02*
X1006000D01*
X514000Y501000D02*
X900000D01*
X509000Y496000D02*
X514000Y501000D01*
X915000Y457000D02*
Y486000D01*
X900000Y501000D02*
X915000Y486000D01*
Y457000D02*
X929000Y443000D01*
X928700Y326200D02*
X972200D01*
X827000Y315000D02*
X837000D01*
X806000Y314000D02*
X806550Y314550D01*
X820650Y343000D02*
X838000D01*
X377000Y451000D02*
Y452000D01*
Y448500D02*
Y451000D01*
X806000Y379000D02*
X806950Y378050D01*
X805450Y403450D02*
X820650D01*
X637000Y300000D02*
Y307000D01*
X641500Y299250D02*
X646500D01*
X636500D02*
X641500D01*
X636000D02*
X636500D01*
X245000Y500000D02*
X414000D01*
X232000Y487000D02*
X245000Y500000D01*
X191000Y487000D02*
X232000D01*
X247000Y496000D02*
X412000D01*
X233000Y482000D02*
X247000Y496000D01*
X191000Y482000D02*
X233000D01*
X249000Y492000D02*
X410000D01*
X234000Y477000D02*
X249000Y492000D01*
X191000Y477000D02*
X234000D01*
X251000Y488000D02*
X408000D01*
X235000Y472000D02*
X251000Y488000D01*
X191000Y472000D02*
X235000D01*
X253000Y484000D02*
X406000D01*
X236000Y467000D02*
X253000Y484000D01*
X190000Y467000D02*
X236000D01*
X417000Y447500D02*
Y467000D01*
X255000Y480000D02*
X404000D01*
X237000Y462000D02*
X255000Y480000D01*
X190000Y462000D02*
X237000D01*
X412000Y447500D02*
Y458839D01*
X257000Y476000D02*
X402000D01*
X239000Y458000D02*
X257000Y476000D01*
X190000Y458000D02*
X239000D01*
X259000Y472000D02*
X380000D01*
X240000Y453000D02*
X259000Y472000D01*
X189000Y453000D02*
X240000D01*
X261000Y468000D02*
X378000D01*
X241000Y448000D02*
X261000Y468000D01*
X189000Y448000D02*
X241000D01*
X335000Y424000D02*
X358500D01*
X263000Y464000D02*
X304000D01*
X241000Y442000D02*
X263000Y464000D01*
X187000Y442000D02*
X241000D01*
X407000Y447500D02*
Y462000D01*
X485000Y384000D02*
X486000D01*
X471500D02*
X485000D01*
X480000Y389000D02*
X481000D01*
X471500D02*
X480000D01*
X492000Y394000D02*
X494000D01*
X485000D02*
X492000D01*
X471500Y399000D02*
X480000D01*
X469500D02*
X471500D01*
X331000Y428000D02*
X335000Y424000D01*
X331000Y428000D02*
Y437000D01*
X304000Y464000D02*
X331000Y437000D01*
X324000Y436000D02*
X327000Y433000D01*
Y426000D02*
Y433000D01*
Y426000D02*
X334000Y419000D01*
X357080D01*
X324000Y436000D02*
Y437000D01*
X554000Y347000D02*
X561000D01*
X382000Y457000D02*
X382000Y457000D01*
X350500Y457000D02*
X382000D01*
X310000Y446000D02*
X313000D01*
X323000Y420000D02*
Y429000D01*
X316000Y436000D02*
X323000Y429000D01*
X342000Y451000D02*
X349500D01*
X872000Y472000D02*
Y472500D01*
X218500Y291500D02*
X773500D01*
X784000Y302000D01*
X689000Y354000D02*
X697000D01*
X662000Y298000D02*
Y323000D01*
X661000Y406000D02*
X669000D01*
X614080Y406080D02*
X615000Y407000D01*
X647000Y382750D02*
Y406000D01*
X848000Y419000D02*
X854000Y413000D01*
X697000Y419000D02*
X848000D01*
X697000Y406000D02*
Y419000D01*
X615000Y420000D02*
X618000Y423000D01*
X615000Y417000D02*
Y420000D01*
X620000Y424000D02*
X630000D01*
X619000Y423000D02*
X620000Y424000D01*
X614000Y417000D02*
X615000D01*
X697000Y388000D02*
Y406000D01*
X696840Y406160D02*
X697000Y406000D01*
X668000Y406160D02*
X696840D01*
X697000Y388000D02*
X701920D01*
X689000Y354000D02*
Y357080D01*
X614080Y406080D02*
X615000D01*
X604000D02*
X614080D01*
X614000Y406000D02*
X614080Y406080D01*
X615000Y407000D02*
Y413000D01*
X360000Y430000D02*
Y449000D01*
X506000Y358000D02*
X514000Y350000D01*
X491000Y436000D02*
X492000Y437000D01*
X497000Y463000D02*
X498000Y462000D01*
X507000D01*
X501000Y419000D02*
X544000D01*
X490000Y414000D02*
X582000D01*
X588000Y420000D01*
X506000Y400000D02*
Y406920D01*
X507000D02*
X507080Y407000D01*
X514000Y350000D02*
X520000D01*
X471500Y409000D02*
X497000D01*
X553000Y419000D02*
X581000D01*
X738000Y483000D02*
X743000D01*
X854000Y305000D02*
Y306500D01*
X798000D02*
X854000D01*
X888000Y301000D02*
X898000D01*
X877000D02*
X888000D01*
Y309000D01*
Y288000D02*
Y301000D01*
X887500Y309500D02*
X888000Y309000D01*
X900000Y433000D02*
Y452000D01*
Y432000D02*
Y433000D01*
X877000Y436000D02*
X899000D01*
X877000D02*
Y452000D01*
Y433000D02*
Y436000D01*
Y432000D02*
Y433000D01*
X202500Y307500D02*
X218500Y291500D01*
X878000Y472500D02*
X900000D01*
X872000D02*
X878000D01*
X588000Y420000D02*
X598000D01*
X619000Y432000D02*
Y435000D01*
X597000Y410000D02*
X619000Y432000D01*
X696000Y312000D02*
Y328000D01*
X690000Y334000D02*
X696000Y328000D01*
X676750Y334000D02*
X690000D01*
X713080Y365000D02*
X722000D01*
X676750Y314000D02*
X689000D01*
X181000Y307500D02*
X202500D01*
X216033Y288000D02*
X888000D01*
X202033Y302000D02*
X216033Y288000D01*
X543000Y337000D02*
Y360000D01*
X536500Y330500D02*
X543000Y337000D01*
X536500Y326500D02*
Y330500D01*
X499250Y335000D02*
X522000D01*
X580000Y424000D02*
X584000Y428000D01*
X507000Y424000D02*
X580000D01*
X501000Y429000D02*
X579000D01*
X500000D02*
X501000D01*
X579000D02*
X580500Y430500D01*
X491000Y351000D02*
Y381000D01*
X503409Y342500D02*
X516500D01*
X497273Y347000D02*
X503409Y342500D01*
X495000Y347000D02*
X497273D01*
X646000Y483080D02*
X648000D01*
X632000D02*
X646000D01*
X480000Y438000D02*
X482000D01*
X480000Y424000D02*
Y438000D01*
X498250Y339000D02*
Y340000D01*
Y335000D02*
X499250D01*
X498100D02*
X498250D01*
X560000Y357000D02*
X563500Y353500D01*
X491000Y351000D02*
X495000Y347000D01*
X499250Y332040D02*
Y335000D01*
X537500Y365500D02*
X543000Y360000D01*
X527000Y362500D02*
Y365500D01*
X658000Y431000D02*
X659000D01*
X658000D02*
Y438920D01*
X646000Y431000D02*
Y438920D01*
X632000Y483000D02*
Y483080D01*
X646000Y483000D02*
Y483080D01*
X658000Y472920D02*
Y473000D01*
Y449080D02*
Y472920D01*
X646000Y450000D02*
Y472920D01*
X899000Y452000D02*
X900000D01*
X877000D02*
X877000D01*
X586000Y424000D02*
X596000D01*
X581000Y419000D02*
X586000Y424000D01*
X584000Y428000D02*
X585781D01*
X580500Y430500D02*
Y437030D01*
X825000Y391000D02*
X833000D01*
X844000Y373000D02*
Y391000D01*
X833000D02*
X844000D01*
X837000Y314920D02*
Y315000D01*
X820650Y339950D02*
Y343000D01*
X844000Y337000D02*
Y346000D01*
X837000Y337000D02*
X844000D01*
X837000Y335920D02*
Y337000D01*
X824000Y327000D02*
X837000D01*
Y335920D01*
Y325080D02*
Y327000D01*
X596000Y430000D02*
Y438000D01*
X606000Y428000D02*
Y434000D01*
X598000Y420000D02*
X606000Y428000D01*
X596000Y424000D02*
X600500Y428500D01*
Y437030D01*
X594000Y428000D02*
X596000Y430000D01*
X585781Y428000D02*
X594000D01*
X585500Y437000D02*
X585781Y428000D01*
X565000Y326000D02*
X571000D01*
X977000Y359200D02*
X979200D01*
X973000D02*
X977000D01*
X990000Y370000D02*
X991000D01*
X979200Y359200D02*
X990000Y370000D01*
X876000Y337000D02*
X877000Y336000D01*
X877000Y339000D02*
Y351000D01*
X844000D02*
X877000D01*
X847920Y373000D02*
X848920Y372000D01*
X844000Y373000D02*
X847920D01*
X844000Y346000D02*
X850000D01*
X844000D02*
Y351000D01*
X806550Y314550D02*
X820650D01*
X807000Y340000D02*
X807050Y339950D01*
X820650D01*
X806950Y378050D02*
X820650D01*
X805000Y403000D02*
X805450Y403450D01*
X900000Y397000D02*
X954000D01*
X900000D02*
Y411000D01*
X952000Y397000D02*
X956000Y401000D01*
X972000D01*
X950000Y359000D02*
X975000D01*
X900000Y321000D02*
Y323000D01*
X844000Y396000D02*
X875000D01*
X844000Y391000D02*
Y396000D01*
X859000Y386000D02*
X860080D01*
Y372000D02*
Y386000D01*
X860000Y335000D02*
Y345920D01*
X860080Y346000D01*
X820650Y390750D02*
X821900Y392000D01*
X900000Y361000D02*
Y374000D01*
X877000Y367000D02*
Y374000D01*
Y361000D02*
Y367000D01*
X899000D01*
X877000D02*
X877000D01*
X877000Y361000D02*
X877000Y361000D01*
X900000Y411000D02*
Y412000D01*
X899000Y413000D02*
X900000Y412000D01*
X877000Y409000D02*
X877000Y409000D01*
Y397000D02*
Y409000D01*
X899000Y301000D02*
X899000Y301000D01*
X875920Y326920D02*
X876000Y327000D01*
X877000Y323000D02*
Y336000D01*
X900000Y323000D02*
Y337000D01*
Y323000D02*
X900000Y323000D01*
X703920Y396080D02*
X704000Y396000D01*
X703920Y396080D02*
Y403000D01*
X722000D02*
X732000D01*
X714080D02*
X722000D01*
X722000Y327000D02*
X748000D01*
X721000D02*
X722000D01*
Y327000D01*
Y322000D02*
Y327000D01*
X714080Y322000D02*
X722000D01*
X713000Y331080D02*
Y332000D01*
X703920Y322000D02*
X713000Y331080D01*
X733000Y312000D02*
X736000Y315000D01*
X714080Y313000D02*
X733000D01*
X714080Y312000D02*
Y314000D01*
X696000Y302000D02*
Y312000D01*
X703920D01*
X696000Y302000D02*
X703920D01*
X702000Y340000D02*
X704000Y342000D01*
X703920Y331080D02*
X704000Y331000D01*
X703920Y331080D02*
Y340000D01*
X735080Y302000D02*
X748000D01*
X715000D02*
X724920D01*
X537000Y344000D02*
Y351000D01*
X601500Y348500D02*
X602000Y348000D01*
X697000Y354000D02*
Y382080D01*
X680500Y358500D02*
X688000Y366000D01*
X675750Y358500D02*
X680500D01*
X677000Y354000D02*
X688500D01*
X666000Y328000D02*
X666500Y328500D01*
X652000Y397000D02*
X654000Y395000D01*
X651500Y373000D02*
Y382750D01*
X676750Y348000D02*
X688000D01*
X678750Y338000D02*
X704000D01*
X681000Y318000D02*
X689000Y326000D01*
X676750Y318000D02*
X681000D01*
X722000Y365000D02*
Y378000D01*
X517500Y326500D02*
X518000Y327000D01*
X471750D02*
X480000D01*
X471500Y359000D02*
X480000D01*
X481000D01*
X605000Y323000D02*
X624000D01*
X613000Y317000D02*
X617000D01*
X480000Y369000D02*
X481000D01*
X471500D02*
X480000D01*
X485000Y364000D02*
X486000D01*
X471500D02*
X485000D01*
X608500Y328500D02*
X609000Y329000D01*
X592250Y328500D02*
X608500D01*
X600500Y323500D02*
X601000Y323000D01*
X592250Y323500D02*
X600500D01*
X608000Y317000D02*
X609000Y316000D01*
X599000Y317000D02*
X608000D01*
X597500Y318500D02*
X599000Y317000D01*
X592250Y318500D02*
X597500D01*
X544000Y436000D02*
Y437000D01*
X570500Y438030D02*
Y447500D01*
X570000Y448000D02*
X570500Y447500D01*
X575500Y441030D02*
Y450000D01*
X481000Y450080D02*
Y454000D01*
X530000Y460000D02*
X564500D01*
Y438000D02*
Y460000D01*
X545000Y438000D02*
X545030Y438030D01*
X557000D01*
X542000Y448000D02*
X543000Y449000D01*
X471000Y495000D02*
X473000Y497000D01*
Y494000D02*
X479000D01*
X499000Y476000D02*
X511000D01*
X462000Y462000D02*
Y469000D01*
X472000Y470000D02*
X472080D01*
X434000Y486000D02*
Y488000D01*
Y486000D02*
X452000Y468000D01*
Y456000D02*
Y468000D01*
X590000Y441000D02*
Y447000D01*
X580500D02*
X590000D01*
X580500Y438030D02*
Y447000D01*
X713080Y403000D02*
X714080D01*
X697000Y378080D02*
X697000Y382080D01*
X690000Y378080D02*
X697000D01*
X703920Y365000D02*
Y378000D01*
X697000Y378080D02*
Y388000D01*
X661000Y406000D02*
Y406080D01*
Y392000D02*
Y406000D01*
X668000Y395000D02*
X669000Y394000D01*
Y379000D02*
Y394000D01*
X666000Y376000D02*
X669000Y379000D01*
X666000Y363000D02*
Y376000D01*
X578080Y299000D02*
X606000D01*
X592250Y348500D02*
X601500D01*
X656500Y328500D02*
X661500Y323500D01*
X662000Y323000D01*
X661500Y323500D02*
X675750D01*
X656500Y328500D02*
Y354000D01*
Y382750D01*
Y354000D02*
X673000D01*
X666500Y328500D02*
X675750D01*
X641500Y373000D02*
Y382750D01*
X621000Y373000D02*
Y382000D01*
Y373000D02*
X641500D01*
X651000D01*
X651500D01*
X666000Y348000D02*
X666500Y348500D01*
X675750D01*
X666000Y363000D02*
X666500Y363500D01*
X675750D01*
X633000Y406080D02*
X640000D01*
X651000D01*
X631000Y390000D02*
X633000Y392000D01*
Y406080D01*
X651500Y382750D02*
Y388500D01*
X654000Y391000D01*
Y395000D01*
X657000Y385000D02*
Y388000D01*
X661000Y392000D01*
X654000Y406080D02*
X661000D01*
X646500Y382750D02*
X647000D01*
X641000Y395000D02*
X641500Y394500D01*
Y382750D02*
Y394500D01*
X626000Y406080D02*
X633000D01*
X631000Y383000D02*
Y390000D01*
X615000Y406080D02*
X626000D01*
X626000Y396000D02*
X626500Y395500D01*
Y382750D02*
Y395500D01*
X617000Y394000D02*
X621500Y389500D01*
Y382750D02*
Y389500D01*
X606000Y394000D02*
X610000Y390000D01*
X615000D01*
X616500Y388500D01*
Y382750D02*
Y388500D01*
X563500Y353500D02*
X578000D01*
X592250D01*
X585000Y326000D02*
Y337000D01*
X586500Y338500D01*
X592250D01*
X562000Y336000D02*
X562080Y336080D01*
X748000Y302000D02*
Y327000D01*
X697000Y353000D02*
X703920D01*
X696000D02*
X697000D01*
X714080D02*
X720000D01*
X722000Y378000D02*
X732000D01*
X703920D02*
X705000D01*
X713080Y388750D02*
X734350D01*
X714080Y378000D02*
Y390000D01*
X703920Y302000D02*
X704000D01*
X713080Y340000D02*
X732000D01*
X481080Y302000D02*
Y302920D01*
X477500Y306500D02*
X481080Y302920D01*
X477500Y306500D02*
Y310850D01*
X454000Y316000D02*
X458000Y320000D01*
X454000Y302000D02*
Y316000D01*
X449000Y317000D02*
X452000Y320000D01*
X449000Y313080D02*
Y317000D01*
X452000Y320000D02*
Y334000D01*
X447000Y322000D02*
Y329000D01*
X439000Y314000D02*
X447000Y322000D01*
X432064Y323226D02*
Y329936D01*
X411000Y302000D02*
Y307000D01*
X282000Y336000D02*
X282080Y336080D01*
X431936Y316936D02*
Y323098D01*
X425000Y310000D02*
X431936Y316936D01*
X414000Y310000D02*
X425000D01*
X411000Y307000D02*
X414000Y310000D01*
X465000Y335000D02*
Y336000D01*
X466000Y335000D02*
X468000D01*
X465000D02*
X466000D01*
X465000Y335000D02*
Y335000D01*
X472000Y349000D02*
Y354000D01*
X487000Y342150D02*
Y345000D01*
Y340150D02*
Y342150D01*
X472000Y349000D02*
X483000D01*
X487000Y345000D01*
X471750Y327000D02*
Y330750D01*
X472000Y317000D02*
Y321536D01*
X487000Y338000D02*
Y340150D01*
X461000Y312080D02*
X469080D01*
X452000Y327000D02*
X460000D01*
X469080Y312080D02*
X472000Y315000D01*
X452000Y327000D02*
Y334500D01*
X447000Y329000D02*
X447000Y329000D01*
Y334500D01*
X502000Y431000D02*
Y436000D01*
X327000Y389000D02*
X329080Y391080D01*
X327000Y362000D02*
Y389000D01*
X471500Y394000D02*
X485000D01*
X471500Y414000D02*
X485000D01*
X480000Y424000D02*
X480000Y424000D01*
X471500D02*
X480000D01*
X492500Y303500D02*
Y310850D01*
X472500Y314000D02*
X477000D01*
X499000Y313000D02*
Y321000D01*
Y311750D02*
Y312000D01*
X471000Y494000D02*
Y495000D01*
X399000Y385000D02*
X404000D01*
X392000D02*
X399000D01*
X457000Y456000D02*
X463000Y450000D01*
X452000Y456000D02*
X457000D01*
X404000Y385000D02*
X434000Y415000D01*
X187000Y327000D02*
X202033D01*
X187000Y322000D02*
X202033D01*
X232000Y402000D02*
X235000D01*
X217000Y417000D02*
X232000Y402000D01*
X191000Y417000D02*
X217000D01*
X219000Y422000D02*
X232000Y409000D01*
Y409000D02*
Y409000D01*
Y409000D02*
X241000D01*
X189000Y422000D02*
X219000D01*
X310080Y353000D02*
X312000Y354920D01*
X233000Y415000D02*
X236000D01*
X221000Y427000D02*
X233000Y415000D01*
X190000Y427000D02*
X221000D01*
X316000Y408000D02*
X321000Y413000D01*
X234000Y421000D02*
X242000D01*
X223000Y432000D02*
X234000Y421000D01*
X191000Y432000D02*
X223000D01*
X235000Y427000D02*
X238000D01*
X225000Y437000D02*
X235000Y427000D01*
X192000Y437000D02*
X225000D01*
X293000Y343000D02*
Y381000D01*
Y343000D02*
X309000Y327000D01*
X320000D01*
X339000Y338000D02*
X342000D01*
X334000Y343000D02*
X339000Y338000D01*
X334000Y343000D02*
Y354000D01*
X350000Y327000D02*
Y342000D01*
X343000Y349000D02*
X350000Y342000D01*
X334000Y371000D02*
X341000D01*
X332000D02*
X334000D01*
X243096Y306904D02*
X391904D01*
X223000Y327000D02*
X243096Y306904D01*
X391904D02*
X407000Y322000D01*
X390000Y311000D02*
X402000Y323000D01*
X244033Y311000D02*
X390000D01*
X227000Y328033D02*
X244033Y311000D01*
X388000Y315000D02*
X397000Y324000D01*
X246000Y315000D02*
X388000D01*
X231000Y330000D02*
X246000Y315000D01*
X392000Y325000D02*
Y330000D01*
X386000Y319000D02*
X392000Y325000D01*
X248000Y319000D02*
X386000D01*
X235000Y332000D02*
X248000Y319000D01*
X384000Y323000D02*
X387000Y326000D01*
X359000Y323000D02*
X384000D01*
X359000D02*
Y332000D01*
X372000Y344000D02*
X377000D01*
X281000Y328000D02*
Y336000D01*
X270000Y323000D02*
X359000D01*
X256000Y337000D02*
X270000Y323000D01*
X320000Y327000D02*
Y355000D01*
Y327000D02*
X350000D01*
X382000D02*
X382000Y327000D01*
X366000Y327000D02*
X382000D01*
X366000D02*
Y347000D01*
X253000Y391000D02*
X254000Y390000D01*
X327000Y354000D02*
X334000D01*
Y359920D01*
X385500Y344000D02*
X386500Y345000D01*
X377000Y344000D02*
X385500D01*
X377000Y334500D02*
Y344000D01*
X320000Y355000D02*
X327000Y362000D01*
X292080Y437000D02*
X306000Y450920D01*
Y451000D01*
Y442000D02*
X310000Y446000D01*
X306000Y440000D02*
Y442000D01*
X299920Y424920D02*
X301920D01*
X293000Y418000D02*
X299920Y424920D01*
X293000Y381000D02*
Y418000D01*
X304920Y425000D02*
Y436920D01*
X315000Y414000D02*
X315080Y414080D01*
Y425000D01*
X357080Y414000D02*
X359500D01*
X348000D02*
X357080D01*
X347000D02*
X348000D01*
X255000Y398000D02*
X267000D01*
Y358000D02*
Y398000D01*
X243500Y396500D02*
Y398000D01*
X254000Y387000D02*
Y390000D01*
X239000Y387000D02*
X254000D01*
X260000Y364000D02*
Y376000D01*
X244000D02*
X260000D01*
X256000Y358000D02*
X267000D01*
X256000Y337000D02*
Y358000D01*
X255500Y337500D02*
X256000Y337000D01*
X243500Y337500D02*
X255500D01*
X294000Y353000D02*
X301920D01*
X310000Y367000D02*
X312000Y365000D01*
Y354920D02*
Y365000D01*
X302920Y437080D02*
Y437920D01*
Y437080D02*
X303000Y437000D01*
X311000Y413000D02*
X313000Y415000D01*
X392000Y367000D02*
Y385000D01*
X379000Y354000D02*
X392000Y367000D01*
X399000Y425000D02*
X406500D01*
X391500D02*
X399000D01*
X406500D02*
Y432000D01*
X391500Y425000D02*
Y433750D01*
X416936Y319936D02*
Y335436D01*
X396476Y299476D02*
X416936Y319936D01*
X395476Y299476D02*
X396476D01*
X412000Y321000D02*
Y334500D01*
X394000Y303000D02*
X412000Y321000D01*
X242016Y303000D02*
X394000D01*
X407000Y322000D02*
Y334500D01*
X402000Y323000D02*
Y334500D01*
X397000Y324000D02*
Y334500D01*
X240557Y299476D02*
X395476D01*
X215033Y325000D02*
X240557Y299476D01*
X250000Y364000D02*
X256000Y358000D01*
X238000Y364000D02*
X250000D01*
X244000Y370000D02*
X252000D01*
X211000Y403000D02*
X244000Y370000D01*
X190000Y403000D02*
X211000D01*
X213000Y407000D02*
X244000Y376000D01*
X205000Y382000D02*
X235000Y352000D01*
Y332000D02*
Y352000D01*
X204000Y377000D02*
X231000Y350000D01*
Y330000D02*
Y350000D01*
X203000Y372000D02*
X227000Y348000D01*
Y328033D02*
Y348000D01*
X210000Y359000D02*
X223000Y346000D01*
Y327000D02*
Y346000D01*
X219016Y326000D02*
X242016Y303000D01*
X219000Y326000D02*
X219016D01*
X219000D02*
Y344000D01*
X412000Y334500D02*
Y335500D01*
X201000Y362000D02*
X219000Y344000D01*
X215000Y325000D02*
X215033D01*
X215000D02*
Y342000D01*
X202000Y355000D02*
X215000Y342000D01*
X244000Y338000D02*
X245000D01*
X447000Y450000D02*
Y467000D01*
X414000Y500000D02*
X447000Y467000D01*
X442000Y457000D02*
Y466000D01*
X412000Y496000D02*
X442000Y466000D01*
X437000Y448500D02*
Y465000D01*
X410000Y492000D02*
X437000Y465000D01*
X432000Y459500D02*
Y464000D01*
X408000Y488000D02*
X432000Y464000D01*
X427000Y448500D02*
Y463000D01*
X406000Y484000D02*
X427000Y463000D01*
X404000Y480000D02*
X417000Y467000D01*
X412064Y458902D02*
Y465936D01*
X402000Y476000D02*
X412064Y465936D01*
X442000Y448500D02*
Y457000D01*
Y447500D02*
Y448500D01*
X437000Y447500D02*
Y448500D01*
X432000D02*
Y459500D01*
Y447500D02*
Y448500D01*
X427000Y447500D02*
Y448500D01*
X321000Y377000D02*
Y390000D01*
X336000Y405000D01*
X347000D01*
X348000Y404000D01*
X357080Y359000D02*
X359500D01*
X343000D02*
X357080D01*
X342000D02*
X343000D01*
X357080Y364000D02*
X359500D01*
X348000D02*
X357080D01*
X347000D02*
X348000D01*
X422000Y322000D02*
Y336000D01*
X427000Y324162D02*
Y335000D01*
X469500Y369000D02*
X471500D01*
X468500Y359000D02*
X471500D01*
Y379000D02*
X481000D01*
X468500D02*
X471500D01*
X368500Y349500D02*
X373000Y354000D01*
X386000Y368000D02*
Y419500D01*
X376000Y358000D02*
X386000Y368000D01*
X371000Y358000D02*
X376000D01*
X366000Y347000D02*
X368500Y349500D01*
X386500Y345000D02*
Y349000D01*
X206000Y387000D02*
X235000Y358000D01*
X248000D01*
X190000Y387000D02*
X206000D01*
X386000Y419500D02*
X454500D01*
X372250D02*
X386000D01*
Y420000D01*
X357700Y344700D02*
X371000Y358000D01*
X357700Y335000D02*
Y344700D01*
X334000Y359920D02*
Y360000D01*
X357080Y354000D02*
X358500D01*
X348000D02*
X357080D01*
X347000D02*
X348000D01*
X334000Y371000D02*
Y380920D01*
Y370080D02*
Y371000D01*
Y370000D02*
Y370080D01*
Y370000D02*
X335000Y369000D01*
X321000Y409000D02*
Y413000D01*
X357080Y409000D02*
X358000D01*
X321000D02*
X357080D01*
Y394000D02*
X359500D01*
X348000D02*
X357080D01*
X347000D02*
X348000D01*
X357080Y389000D02*
X358500D01*
X342000D02*
X357080D01*
Y384000D02*
X359500D01*
X348000D02*
X357080D01*
X347000D02*
X348000D01*
X357080Y379000D02*
X359500D01*
X342000D02*
X357080D01*
X341000D02*
X342000D01*
X335000Y362000D02*
X338000D01*
X345000Y369000D01*
X357080D01*
X358500D01*
X357080Y424000D02*
X358500D01*
X351000D02*
X357080D01*
Y404000D02*
X358500D01*
X348000D02*
X357080D01*
X344000Y374000D02*
X348000D01*
X341000Y371000D02*
X344000Y374000D01*
X348000Y374000D02*
X357080D01*
X346000D02*
X348000D01*
X452000Y448500D02*
Y456000D01*
X482500Y312850D02*
X487500D01*
X452000Y447500D02*
Y448500D01*
X471500Y404000D02*
X486000D01*
X469000D02*
X471500D01*
X402000Y448500D02*
Y457000D01*
Y446500D02*
Y448500D01*
X407000Y447500D02*
X407000Y447500D01*
X470500Y394000D02*
X471500D01*
X470500Y384000D02*
X471500D01*
Y419000D02*
X480000D01*
X479000Y374000D02*
X486000D01*
X472500D02*
X479000D01*
X470500Y389000D02*
X471500D01*
X487000Y340150D02*
X487000Y340150D01*
X386500Y420000D02*
X386500Y420000D01*
Y433750D01*
X454500Y419500D02*
X454500Y419500D01*
X382000Y334500D02*
Y337500D01*
Y327000D02*
Y334500D01*
Y448500D02*
Y457000D01*
X358500Y429000D02*
X358807D01*
X377000Y447500D02*
Y448500D01*
X471500Y349000D02*
Y354000D01*
X437000Y334500D02*
X437500Y335000D01*
X437000Y319000D02*
Y334500D01*
X407000D02*
Y335500D01*
X406500Y347000D02*
X407000Y334500D01*
X402000D02*
Y335500D01*
X401500Y347500D02*
X402000Y334500D01*
X397000D02*
Y335500D01*
X396500Y347000D02*
X397000Y334500D01*
X391500Y347000D02*
X392000Y334500D01*
X357080Y374000D02*
X358500D01*
X387000Y445500D02*
X387000Y448500D01*
X470500Y364000D02*
X471500D01*
X387000Y448500D02*
Y459000D01*
X342000Y399000D02*
X357000D01*
X392000Y450000D02*
Y460000D01*
X380000Y472000D02*
X392000Y460000D01*
X378000Y468000D02*
X387000Y459000D01*
X479000Y374000D02*
X479000Y374000D01*
X348000D02*
X348000Y374000D01*
X442000Y325000D02*
X443000Y324000D01*
X442000Y325000D02*
Y332000D01*
X273000Y372000D02*
Y404000D01*
X275000Y406000D01*
X214000Y412000D02*
X239000Y387000D01*
X192000Y412000D02*
X214000D01*
X209000Y335000D02*
Y342000D01*
X199000Y352000D02*
X209000Y342000D01*
X188000Y352000D02*
X199000D01*
X235000Y401000D02*
Y402000D01*
X202000Y355000D02*
Y355000D01*
X200000Y357000D02*
X202000Y355000D01*
X188000Y357000D02*
X200000D01*
X189000Y362000D02*
X201000D01*
X210000Y359000D02*
Y359000D01*
X202000Y367000D02*
X210000Y359000D01*
X188000Y367000D02*
X202000D01*
X189000Y372000D02*
X203000D01*
X191000Y377000D02*
X204000D01*
X190000Y382000D02*
X205000D01*
X191000Y407000D02*
X213000D01*
X275000Y406000D02*
X286000D01*
X243500Y396500D02*
Y396500D01*
X243000Y397000D02*
X243500Y396500D01*
X277300Y435000D02*
X282000D01*
X269300Y427000D02*
X277300Y435000D01*
X276300Y447000D02*
X280000D01*
X269300Y440000D02*
X276300Y447000D01*
X292000Y456000D02*
X292080Y455920D01*
Y449000D02*
Y455920D01*
X283000Y424000D02*
X289000Y418000D01*
Y409000D02*
Y418000D01*
X286000Y406000D02*
X289000Y409000D01*
X280000Y393000D02*
X280500Y392500D01*
Y337500D02*
Y392500D01*
Y393500D02*
X281000Y394000D01*
X187000Y302000D02*
X202033D01*
X187000Y317000D02*
X202033D01*
X424000Y315000D02*
X427064Y318064D01*
X427000Y324162D02*
X427064Y324098D01*
Y318064D02*
Y324098D01*
X416936Y335436D02*
X417000Y335500D01*
X431936Y323098D02*
X432064Y323226D01*
X432000Y330000D02*
X432064Y329936D01*
X358500Y424000D02*
X358500Y424000D01*
X412000Y458839D02*
X412064Y458902D01*
X442000Y457000D02*
X442000Y457000D01*
X432000Y459500D02*
X432000Y459500D01*
X317000Y371000D02*
X317080D01*
X387000Y335500D02*
X387000Y335500D01*
D13*
X465500Y335500D02*
X466000Y335000D01*
X443000Y358000D02*
X465500Y335500D01*
X482000Y342000D02*
Y345000D01*
X481000Y346000D02*
X482000Y345000D01*
X477000Y346000D02*
X481000D01*
X482000Y338000D02*
X482000Y338000D01*
X473000Y344000D02*
X477000Y346000D01*
X466000Y340000D02*
X478000D01*
X466000Y335000D02*
X466000D01*
X466000Y344000D02*
X473000D01*
X431500Y390000D02*
X445000D01*
Y361000D02*
Y390000D01*
Y361000D02*
X466000Y340000D01*
X477250Y340750D02*
X478000Y340000D01*
X449000Y361000D02*
X466000Y344000D01*
X449000Y361000D02*
Y394000D01*
X426500D02*
X449000D01*
X426500Y353000D02*
Y394000D01*
X431500Y353000D02*
Y390000D01*
X436500Y358000D02*
Y384500D01*
Y350250D02*
Y358000D01*
X443000D01*
X449000Y361000D02*
Y361000D01*
X431500Y437500D02*
X431500Y437500D01*
X422000Y444500D02*
X431500Y437500D01*
Y438500D01*
Y433750D02*
Y437500D01*
Y438500D02*
X434000Y441000D01*
X458500Y419500D02*
X468500Y429500D01*
X455750Y419500D02*
X458500D01*
X361000Y429000D02*
X368500Y419500D01*
X368507Y419558D02*
X369000Y419500D01*
X361000Y424000D02*
X368500Y414500D01*
X377000Y444500D02*
X386500Y437500D01*
X382000Y444500D02*
X391500Y437500D01*
X402000Y444500D02*
X411500Y437500D01*
X397000Y444500D02*
X406500Y437500D01*
X426000Y352500D02*
X426500Y353000D01*
X441500Y346500D02*
X452000Y338500D01*
X431500Y346500D02*
X442000Y338500D01*
X426500Y346500D02*
X437000Y338500D01*
X421500Y346500D02*
X432000Y338500D01*
X416500Y346500D02*
X427000Y338500D01*
X411500Y346500D02*
X422000Y338500D01*
X411500Y346500D02*
X411500Y350250D01*
X361000Y354500D02*
X369000Y365000D01*
X360940Y374046D02*
X368905Y384500D01*
X372250D01*
X361000Y359500D02*
X369000Y370000D01*
X361000Y364500D02*
X369000Y375000D01*
X361000Y369500D02*
X369000Y380000D01*
X361000Y399000D02*
X368500Y389500D01*
X361000Y404000D02*
X368500Y394500D01*
X361000Y409000D02*
X368500Y399500D01*
X361000Y414000D02*
X368500Y404500D01*
X357080Y419000D02*
X361000D01*
X368500Y409500D01*
X441500Y437500D02*
X452000Y444500D01*
X441500Y433750D02*
Y437500D01*
X436500D02*
X447000Y444500D01*
X436500Y437500D02*
X436500Y433750D01*
X417000Y444500D02*
X426500Y437500D01*
X412000Y444500D02*
X421500Y437500D01*
X407000Y444500D02*
X416500Y437500D01*
X392000Y444500D02*
X401500Y437500D01*
Y433750D02*
Y437500D01*
X387000Y444500D02*
X396500Y437500D01*
Y433750D02*
Y437500D01*
X459500Y384500D02*
X468000Y394000D01*
X459500Y389500D02*
X468000Y399000D01*
X459500Y394500D02*
X468000Y404000D01*
X459500Y399500D02*
X468000Y409000D01*
X459500Y404500D02*
X468000Y414000D01*
X456500Y410000D02*
X459500Y409500D01*
X468000Y419000D01*
X471500D01*
X459500Y364000D02*
X468000Y354000D01*
X459500Y369000D02*
X468000Y359000D01*
X459044Y374537D02*
X468000Y364000D01*
X459044Y379537D02*
X468000Y369000D01*
X441500Y433750D02*
X442000Y437000D01*
X411000D02*
X411500Y433750D01*
X407000Y447500D02*
Y448500D01*
D14*
X272000Y414000D02*
X272080Y413920D01*
X282000D01*
D15*
X545000Y379300D02*
D03*
Y394700D02*
D03*
D16*
X553000Y309080D02*
D03*
Y298920D02*
D03*
X496000Y396080D02*
D03*
Y385920D02*
D03*
X658000Y472920D02*
D03*
Y483080D02*
D03*
X646000Y472920D02*
D03*
Y483080D02*
D03*
X658000Y449080D02*
D03*
Y438920D02*
D03*
X646000Y449080D02*
D03*
Y438920D02*
D03*
X837000Y345080D02*
D03*
Y334920D02*
D03*
Y314920D02*
D03*
Y325080D02*
D03*
X578000Y327920D02*
D03*
Y338080D02*
D03*
X689000Y367920D02*
D03*
Y378080D02*
D03*
X527000Y436920D02*
D03*
Y447080D02*
D03*
X460000Y301920D02*
D03*
Y312080D02*
D03*
X334000Y381920D02*
D03*
Y392080D02*
D03*
X493000Y447080D02*
D03*
Y436920D02*
D03*
X282000Y413920D02*
D03*
Y424080D02*
D03*
X504000Y447080D02*
D03*
Y436920D02*
D03*
X554000Y347920D02*
D03*
Y358080D02*
D03*
X604000Y395920D02*
D03*
Y406080D02*
D03*
X615000Y395920D02*
D03*
Y406080D02*
D03*
X626000D02*
D03*
Y395920D02*
D03*
X640000D02*
D03*
Y406080D02*
D03*
X654000Y395920D02*
D03*
Y406080D02*
D03*
X668000Y396000D02*
D03*
Y406160D02*
D03*
X689000Y346920D02*
D03*
Y357080D02*
D03*
X437000Y312000D02*
D03*
Y301840D02*
D03*
X482000Y436920D02*
D03*
Y447080D02*
D03*
X334000Y359920D02*
D03*
Y370080D02*
D03*
X448000Y312080D02*
D03*
Y301920D02*
D03*
D17*
X578080Y308000D02*
D03*
X567920D02*
D03*
X850920Y345000D02*
D03*
X861080D02*
D03*
X850920Y373000D02*
D03*
X861080D02*
D03*
X703920Y322000D02*
D03*
X714080D02*
D03*
X703920Y332000D02*
D03*
X714080D02*
D03*
X724920Y302000D02*
D03*
X735080D02*
D03*
X703920Y302000D02*
D03*
X714080D02*
D03*
X703920Y378000D02*
D03*
X714080D02*
D03*
X703920Y403000D02*
D03*
X714080D02*
D03*
X703920Y363000D02*
D03*
X714080D02*
D03*
X578080Y298000D02*
D03*
X567920D02*
D03*
X578080Y318000D02*
D03*
X567920D02*
D03*
Y369000D02*
D03*
X578080D02*
D03*
X567920Y360000D02*
D03*
X578080D02*
D03*
X531080Y378000D02*
D03*
X520920D02*
D03*
X421080Y302000D02*
D03*
X410920D02*
D03*
X281920Y449000D02*
D03*
X292080D02*
D03*
X281920Y437000D02*
D03*
X292080D02*
D03*
X495920Y407000D02*
D03*
X506080D02*
D03*
X703920Y353000D02*
D03*
X714080D02*
D03*
X714080Y312000D02*
D03*
X703920D02*
D03*
X714080Y342000D02*
D03*
X703920D02*
D03*
X714080Y388000D02*
D03*
X703920D02*
D03*
X564080Y328000D02*
D03*
X553920D02*
D03*
X564080Y338000D02*
D03*
X553920D02*
D03*
X578080Y348000D02*
D03*
X567920D02*
D03*
X502080Y302000D02*
D03*
X491920D02*
D03*
X315080Y437000D02*
D03*
X304920D02*
D03*
X312080Y353000D02*
D03*
X301920D02*
D03*
X315080Y425000D02*
D03*
X304920D02*
D03*
X470920Y302000D02*
D03*
X481080D02*
D03*
X361080Y451000D02*
D03*
X350920D02*
D03*
X472080Y470000D02*
D03*
X461920D02*
D03*
D18*
X615000Y413000D02*
D03*
Y417000D02*
D03*
D19*
X900000Y453500D02*
D03*
Y472500D02*
D03*
X878000Y453500D02*
D03*
Y472500D02*
D03*
D20*
X586000Y387000D02*
D03*
Y404000D02*
D03*
X564000D02*
D03*
Y387000D02*
D03*
D21*
X310600Y407500D02*
D03*
Y370500D02*
D03*
D22*
X675750Y313500D02*
D03*
X675750Y318500D02*
D03*
X675750Y323500D02*
D03*
X675750Y328500D02*
D03*
Y333500D02*
D03*
Y338500D02*
D03*
Y343500D02*
D03*
Y348500D02*
D03*
X675750Y353500D02*
D03*
X675750Y358500D02*
D03*
Y363500D02*
D03*
Y368500D02*
D03*
X592250Y313500D02*
D03*
Y318500D02*
D03*
Y323500D02*
D03*
Y328500D02*
D03*
Y333500D02*
D03*
Y338500D02*
D03*
Y343500D02*
D03*
Y348500D02*
D03*
Y353500D02*
D03*
Y358500D02*
D03*
Y363500D02*
D03*
Y368500D02*
D03*
X372250Y419500D02*
D03*
X372250Y414500D02*
D03*
X372250Y409500D02*
D03*
X372250Y404500D02*
D03*
Y399500D02*
D03*
Y394500D02*
D03*
Y389500D02*
D03*
Y384500D02*
D03*
X372250Y379500D02*
D03*
X372250Y374500D02*
D03*
Y369500D02*
D03*
Y364500D02*
D03*
X455750Y419500D02*
D03*
Y414500D02*
D03*
Y409500D02*
D03*
Y404500D02*
D03*
Y399500D02*
D03*
Y394500D02*
D03*
Y389500D02*
D03*
Y384500D02*
D03*
Y379500D02*
D03*
Y374500D02*
D03*
Y369500D02*
D03*
Y364500D02*
D03*
X471500Y354000D02*
D03*
Y359000D02*
D03*
Y364000D02*
D03*
Y369000D02*
D03*
Y374000D02*
D03*
Y379000D02*
D03*
Y384000D02*
D03*
Y389000D02*
D03*
Y394000D02*
D03*
Y399000D02*
D03*
Y404000D02*
D03*
Y409000D02*
D03*
Y414000D02*
D03*
Y419000D02*
D03*
Y424000D02*
D03*
Y429000D02*
D03*
X357080Y354000D02*
D03*
Y359000D02*
D03*
Y364000D02*
D03*
Y369000D02*
D03*
Y374000D02*
D03*
Y379000D02*
D03*
Y384000D02*
D03*
Y389000D02*
D03*
Y394000D02*
D03*
Y399000D02*
D03*
Y404000D02*
D03*
Y409000D02*
D03*
Y414000D02*
D03*
Y419000D02*
D03*
Y424000D02*
D03*
Y429000D02*
D03*
D23*
X661500Y382750D02*
D03*
X656500D02*
D03*
X651500D02*
D03*
X646500D02*
D03*
X641500D02*
D03*
X636500D02*
D03*
X631500D02*
D03*
X626500D02*
D03*
X621500D02*
D03*
X616500D02*
D03*
X611500D02*
D03*
X606500D02*
D03*
X661500Y299250D02*
D03*
X656500D02*
D03*
X651500D02*
D03*
X646500D02*
D03*
X641500D02*
D03*
X636500D02*
D03*
X631500D02*
D03*
X626500D02*
D03*
X621500D02*
D03*
X616500D02*
D03*
X611500D02*
D03*
X606500D02*
D03*
X386500Y350250D02*
D03*
X391500D02*
D03*
X396500D02*
D03*
X401500D02*
D03*
X406500D02*
D03*
X411500D02*
D03*
X416500D02*
D03*
X421500D02*
D03*
X426500D02*
D03*
X431500D02*
D03*
X436500D02*
D03*
X441500D02*
D03*
X386500Y433750D02*
D03*
X391500D02*
D03*
X396500D02*
D03*
X401500D02*
D03*
X406500D02*
D03*
X411500D02*
D03*
X416500D02*
D03*
X421500D02*
D03*
X426500D02*
D03*
X431500D02*
D03*
X436500D02*
D03*
X441500D02*
D03*
X452000Y448500D02*
D03*
X447000D02*
D03*
X442000D02*
D03*
X437000D02*
D03*
X432000D02*
D03*
X427000D02*
D03*
X422000D02*
D03*
X417000D02*
D03*
X412000D02*
D03*
X407000D02*
D03*
X402000D02*
D03*
X397000D02*
D03*
X392000D02*
D03*
X387000D02*
D03*
X382000D02*
D03*
X377000D02*
D03*
X452000Y334500D02*
D03*
X447000D02*
D03*
X442000D02*
D03*
X437000D02*
D03*
X432000D02*
D03*
X427000D02*
D03*
X422000D02*
D03*
X417000D02*
D03*
X412000D02*
D03*
X407000D02*
D03*
X402000D02*
D03*
X397000D02*
D03*
X392000D02*
D03*
X387000D02*
D03*
X382000D02*
D03*
X377000D02*
D03*
D24*
X492350Y311810D02*
D03*
X487350D02*
D03*
X482350D02*
D03*
X477350D02*
D03*
X469700Y321746D02*
D03*
Y326746D02*
D03*
Y331746D02*
D03*
X477350Y342110D02*
D03*
X482350D02*
D03*
X487350D02*
D03*
X492350D02*
D03*
X500000Y332000D02*
D03*
Y327000D02*
D03*
Y322000D02*
D03*
D25*
X492350Y313710D02*
D03*
X487350D02*
D03*
X482350D02*
D03*
X477350D02*
D03*
Y340210D02*
D03*
X482350D02*
D03*
X487350D02*
D03*
X492350D02*
D03*
D26*
X471600Y321746D02*
D03*
Y326746D02*
D03*
Y331746D02*
D03*
X498100Y332000D02*
D03*
Y327000D02*
D03*
Y322000D02*
D03*
D27*
X484850Y326960D02*
D03*
D28*
X492000Y494000D02*
D03*
Y463000D02*
D03*
D29*
X496000Y478000D02*
D03*
D30*
X518000D02*
D03*
D31*
X735350Y403450D02*
D03*
Y390750D02*
D03*
Y378050D02*
D03*
Y365350D02*
D03*
Y352650D02*
D03*
Y339950D02*
D03*
Y327250D02*
D03*
Y314550D02*
D03*
X820650D02*
D03*
Y327250D02*
D03*
Y339950D02*
D03*
Y352650D02*
D03*
Y365350D02*
D03*
Y378050D02*
D03*
Y390750D02*
D03*
Y403450D02*
D03*
D32*
X280500Y337500D02*
D03*
Y396500D02*
D03*
X243500D02*
D03*
Y337500D02*
D03*
D33*
X269300Y441000D02*
D03*
X255300D02*
D03*
X269300Y428000D02*
D03*
X255300D02*
D03*
X269300Y415000D02*
D03*
X255300D02*
D03*
D34*
X527000Y365500D02*
D03*
X536500Y342500D02*
D03*
X517500D02*
D03*
X527000Y303500D02*
D03*
X517500Y326500D02*
D03*
X536500D02*
D03*
D35*
X342300Y335000D02*
D03*
X357700D02*
D03*
D36*
X619000Y438030D02*
D03*
X611500D02*
D03*
X564500Y438000D02*
D03*
X557000Y438030D02*
D03*
D37*
X605500D02*
D03*
X600500D02*
D03*
X595500D02*
D03*
X590500D02*
D03*
X585500Y438000D02*
D03*
X580500Y438030D02*
D03*
X575500D02*
D03*
X570500D02*
D03*
D38*
X181000Y457500D02*
D03*
Y452500D02*
D03*
Y447500D02*
D03*
Y442500D02*
D03*
Y302500D02*
D03*
Y307500D02*
D03*
Y312500D02*
D03*
Y317500D02*
D03*
Y322500D02*
D03*
Y327500D02*
D03*
Y352500D02*
D03*
Y357500D02*
D03*
Y362500D02*
D03*
Y367500D02*
D03*
Y372500D02*
D03*
Y377500D02*
D03*
Y382500D02*
D03*
Y387500D02*
D03*
Y392500D02*
D03*
Y397500D02*
D03*
Y402500D02*
D03*
Y407500D02*
D03*
Y412500D02*
D03*
Y417500D02*
D03*
Y422500D02*
D03*
Y427500D02*
D03*
Y432500D02*
D03*
Y437500D02*
D03*
Y462500D02*
D03*
Y487500D02*
D03*
Y482500D02*
D03*
Y477500D02*
D03*
Y472500D02*
D03*
Y467500D02*
D03*
D39*
X613000Y317000D02*
D03*
X609000D02*
D03*
X605000Y323000D02*
D03*
X601000D02*
D03*
X613000Y330000D02*
D03*
X609000D02*
D03*
D40*
X900000Y359000D02*
D03*
Y337000D02*
D03*
X877000Y359000D02*
D03*
Y337000D02*
D03*
X900000Y323000D02*
D03*
Y301000D02*
D03*
X877000Y323000D02*
D03*
Y301000D02*
D03*
X900000Y411000D02*
D03*
Y433000D02*
D03*
X877000Y411000D02*
D03*
Y433000D02*
D03*
X900000Y375000D02*
D03*
Y397000D02*
D03*
X877000Y375000D02*
D03*
Y397000D02*
D03*
D41*
X856000Y413954D02*
D03*
Y386046D02*
D03*
X855000Y304046D02*
D03*
Y331954D02*
D03*
D42*
X448500Y492000D02*
D03*
X467500D02*
D03*
D81*
X520000Y378000D02*
Y379000D01*
X527000Y386000D01*
D82*
X520000Y357000D02*
Y376000D01*
Y357000D02*
X528000D01*
Y327000D02*
Y357000D01*
X518000Y327000D02*
X528000D01*
X459000Y479000D02*
X491000D01*
X448000Y490000D02*
X459000Y479000D01*
X447500Y490000D02*
X448000D01*
D83*
X541000Y313000D02*
D03*
D84*
X528000Y320500D02*
D03*
D85*
X907000Y330000D02*
D03*
D86*
X910500Y345000D02*
D03*
D87*
X929000Y363000D02*
D03*
D88*
X777000Y315500D02*
D03*
D89*
X795000Y311500D02*
D03*
D90*
X820500Y305500D02*
D03*
D91*
X805000Y415500D02*
D03*
D92*
X615000Y415000D02*
D03*
D93*
X479000Y494000D02*
D03*
D94*
X490000Y462000D02*
D03*
D95*
X527000Y298000D02*
D03*
D96*
Y389500D02*
D03*
D97*
X739500Y461500D02*
D03*
D98*
X690000Y483000D02*
D03*
D99*
X739500Y434500D02*
D03*
D100*
X685000Y428000D02*
D03*
D101*
X689000Y453000D02*
D03*
D102*
X651000Y461000D02*
D03*
D103*
X877000Y441500D02*
D03*
D104*
X900000Y441000D02*
D03*
D105*
X888500Y433000D02*
D03*
D106*
X865500Y453500D02*
D03*
D107*
X816000Y458500D02*
D03*
D108*
X855500Y472500D02*
D03*
D109*
X611000Y317000D02*
D03*
X603000Y323000D02*
D03*
X611000Y330000D02*
D03*
D110*
X900000Y365500D02*
D03*
Y329500D02*
D03*
X877000Y364500D02*
D03*
D111*
X960000Y359500D02*
D03*
D112*
X939500Y400000D02*
D03*
D113*
X889500Y367500D02*
D03*
D114*
X859500Y360000D02*
D03*
D115*
X888500Y403000D02*
D03*
D116*
Y331500D02*
D03*
D117*
X611000Y454500D02*
D03*
D118*
X564500D02*
D03*
D119*
X565500Y461000D02*
D03*
D120*
X525000Y468000D02*
D03*
D121*
X369000Y446000D02*
D03*
D122*
X472000Y451500D02*
D03*
D123*
X393500Y295500D02*
D03*
D124*
X181500Y322250D02*
D03*
D125*
X1050000Y315000D02*
D03*
X340000Y439000D02*
D03*
X1050000Y470000D02*
D03*
D126*
X688800Y442680D02*
D03*
X739600D02*
D03*
X815800D02*
D03*
D127*
X841200D02*
D03*
D128*
X928700Y440500D02*
D03*
Y463400D02*
D03*
Y349100D02*
D03*
Y326200D02*
D03*
X977000Y359200D02*
D03*
X994800Y369400D02*
D03*
X977000Y379600D02*
D03*
X994800Y389800D02*
D03*
X977000Y400000D02*
D03*
X994800Y410200D02*
D03*
X977000Y420400D02*
D03*
D129*
X985900Y476100D02*
D03*
Y313500D02*
D03*
D130*
X1020200Y458300D02*
D03*
Y331300D02*
D03*
D131*
X994800Y430600D02*
D03*
D132*
X631200Y441830D02*
D03*
X544700D02*
D03*
D133*
X631200Y480430D02*
D03*
X544700D02*
D03*
D134*
X749000Y334000D02*
D03*
Y416000D02*
D03*
X645000Y345000D02*
D03*
X635000Y357000D02*
D03*
X644000Y315000D02*
D03*
X615000Y346000D02*
D03*
X551000Y396000D02*
D03*
X560000Y384000D02*
D03*
X575000Y377000D02*
D03*
X621000Y373000D02*
D03*
X604000Y348000D02*
D03*
X560000Y363000D02*
D03*
Y370000D02*
D03*
X519000Y386000D02*
D03*
X508000Y494000D02*
D03*
X313000Y446000D02*
D03*
X324000Y436000D02*
D03*
X323000Y420000D02*
D03*
X342000Y451000D02*
D03*
X784000Y302000D02*
D03*
X619000Y423000D02*
D03*
X507000Y462000D02*
D03*
X501000Y419000D02*
D03*
X506000Y400000D02*
D03*
X527000Y393000D02*
D03*
Y386000D02*
D03*
X521500Y350500D02*
D03*
X490000Y414000D02*
D03*
X542000Y408000D02*
D03*
X544000Y419000D02*
D03*
X553000D02*
D03*
X547000Y331000D02*
D03*
X522000Y335000D02*
D03*
Y457000D02*
D03*
X528000D02*
D03*
Y463000D02*
D03*
X522000D02*
D03*
X534000Y401000D02*
D03*
X506000Y424000D02*
D03*
X501000Y350000D02*
D03*
X534000Y447000D02*
D03*
X501000Y429000D02*
D03*
X496000Y354000D02*
D03*
X806000Y315000D02*
D03*
Y340000D02*
D03*
Y404000D02*
D03*
X806000Y378000D02*
D03*
X704000Y396000D02*
D03*
X537000Y351000D02*
D03*
X689000Y326000D02*
D03*
Y315000D02*
D03*
X480000Y359000D02*
D03*
X624000Y323000D02*
D03*
X618000Y317000D02*
D03*
Y329000D02*
D03*
X577000Y451000D02*
D03*
X570000Y448000D02*
D03*
X488000Y324000D02*
D03*
X481000Y454000D02*
D03*
X479000Y494000D02*
D03*
X462000Y462000D02*
D03*
X434000Y488000D02*
D03*
X722000Y403000D02*
D03*
Y365000D02*
D03*
X704000Y370000D02*
D03*
X666000Y329000D02*
D03*
X651000Y373000D02*
D03*
X666000Y348000D02*
D03*
Y363000D02*
D03*
X561000Y347000D02*
D03*
X571000Y326000D02*
D03*
Y336000D02*
D03*
X722000Y327000D02*
D03*
Y353000D02*
D03*
X697000D02*
D03*
X458000Y320000D02*
D03*
X423000Y315000D02*
D03*
X460000Y327000D02*
D03*
X442000Y325000D02*
D03*
X465000Y335000D02*
D03*
X509000Y303000D02*
D03*
X472000Y315000D02*
D03*
X464000Y449000D02*
D03*
X399000Y385000D02*
D03*
X242000Y409000D02*
D03*
X281000Y328000D02*
D03*
X317000Y411000D02*
D03*
X372000Y345000D02*
D03*
X327000Y354000D02*
D03*
X343000Y349000D02*
D03*
X306000Y451000D02*
D03*
X392000Y385000D02*
D03*
X437000D02*
D03*
X392000Y367000D02*
D03*
X449000Y349000D02*
D03*
X399000Y425000D02*
D03*
X252000Y370000D02*
D03*
X376000Y352000D02*
D03*
X248000Y358000D02*
D03*
X293000Y381000D02*
D03*
X498000Y339000D02*
D03*
X499000Y312000D02*
D03*
X434000Y441000D02*
D03*
X407000Y462000D02*
D03*
X402000Y457000D02*
D03*
X480000Y419000D02*
D03*
X485000Y364000D02*
D03*
Y374000D02*
D03*
Y384000D02*
D03*
Y394000D02*
D03*
X486000Y404000D02*
D03*
X471500Y349000D02*
D03*
X348000Y414000D02*
D03*
Y404000D02*
D03*
X342000Y399000D02*
D03*
X348000Y394000D02*
D03*
X343000Y359000D02*
D03*
X342000Y389000D02*
D03*
Y379000D02*
D03*
X348000Y384000D02*
D03*
X480000Y399000D02*
D03*
Y389000D02*
D03*
Y379000D02*
D03*
Y369000D02*
D03*
X348000Y354000D02*
D03*
Y364000D02*
D03*
X273000Y372000D02*
D03*
X348000Y374000D02*
D03*
X437000Y320000D02*
D03*
X209000Y335000D02*
D03*
X260000Y364000D02*
D03*
X235000Y402000D02*
D03*
X237000Y415000D02*
D03*
X242000Y421000D02*
D03*
X254000Y392000D02*
D03*
X292000Y457000D02*
D03*
X432000Y325000D02*
D03*
X422000Y322000D02*
D03*
X238000Y427000D02*
D03*
D135*
X863000Y360000D02*
D03*
X849000D02*
D03*
X889000Y356000D02*
D03*
Y378000D02*
D03*
M02*
