M48
;Layer_Color=9474304
;FILE_FORMAT=4:4
METRIC,LZ
;TYPE=PLATED
T1F00S00C0.2540
T3F00S00C0.6000
T4F00S00C0.8900
T5F00S00C1.0000
T6F00S00C1.5700
;TYPE=NON_PLATED
T7F00S00C0.6500
T8F00S00C1.1520
T9F00S00C3.2500
%
T01
X00209Y00335
X00248Y00358
X00252Y0037
X0026Y00364
X00273Y00372
X00293Y00381
X00254Y00392
X00281Y00328
X00327Y00354
X00343Y00359
X00348Y00354
X00343Y00349
X00348Y00364
Y00374
Y00384
Y00394
X00342Y00389
Y00379
X00392Y00385
Y00367
X00376Y00352
X00372Y00345
X00399Y00385
X00437
X0048Y00389
X00485Y00394
Y00384
X0048Y00379
X00485Y00374
Y00364
X0048Y00369
Y00359
X004715Y00349
X00465Y00335
X0046Y00327
X00458Y0032
X00472Y00315
X00488Y00324
X00499Y00312
X00509Y00303
X00522Y00335
X005215Y003505
X00537Y00351
X00561Y00347
X0056Y00363
Y0037
X0056Y00384
X00551Y00396
X00527Y00393
Y00386
X00519
X00501Y0035
X00496Y00354
X00498Y00339
X00547Y00331
X00571Y00336
Y00326
X00618Y00329
X00624Y00323
X00618Y00317
X00644Y00315
X00645Y00345
X00635Y00357
X00621Y00373
X00651Y00373
X00666Y00363
Y00348
Y00329
X00689Y00326
Y00315
X00722Y00327
Y00353
Y00365
X00704Y0037
X00697Y00353
X00704Y00396
X00749Y00334
X00784Y00302
X00615Y00346
X00604Y00348
X00575Y00377
X00449Y00349
X00442Y00325
X00437Y0032
X00432Y00325
X00422Y00322
X00423Y00315
X00806
Y0034
X00806Y00378
X00806Y00404
X00749Y00416
X00722Y00403
X00619Y00423
X00553Y00419
X00544
X00542Y00408
X00534Y00401
X00506Y004
Y00424
X00501Y00419
Y00429
X0049Y00414
X00486Y00404
X0048Y00399
Y00419
X00481Y00454
X00464Y00449
X00462Y00462
X00507
X00522Y00463
Y00457
X00528
Y00463
X00534Y00447
X0057Y00448
X00577Y00451
X00508Y00494
X00479
X00434Y00488
Y00441
X00407Y00462
X00402Y00457
X00399Y00425
X00348Y00414
Y00404
X00342Y00399
X00317Y00411
X00323Y0042
X00324Y00436
X00313Y00446
X00306Y00451
X00292Y00457
X00342Y00451
X00238Y00427
X00242Y00421
X00237Y00415
X00242Y00409
X00235Y00402
T03
X00849Y0036
X00863
X00889Y00356
Y00378
T04
X009287Y003262
Y003491
X00977Y003592
Y003796
X009948Y003694
Y003898
Y004102
Y004306
X00977Y004204
Y004
X009287Y004405
Y004634
T05
X008158Y0044268
X008412
X007396
X006888
T06
X009859Y003135
Y004761
T07
X00558Y00449
X00618
T08
X0105Y00315
Y0047
X0034Y00439
T09
X010202Y003313
Y004583
M30
