G04*
G04 #@! TF.GenerationSoftware,Altium Limited,Altium Designer,18.1.7 (191)*
G04*
G04 Layer_Color=32896*
%FSLAX44Y44*%
%MOMM*%
G71*
G01*
G75*
G36*
X326603Y425523D02*
X327089Y425458D01*
X327542Y425328D01*
X327963Y425231D01*
X328319Y425102D01*
X328578Y424972D01*
X328773Y424907D01*
X328805Y424875D01*
X328838D01*
X329582Y424487D01*
X330198Y424066D01*
X330716Y423612D01*
X331105Y423191D01*
X331428Y422803D01*
X331655Y422511D01*
X331720Y422382D01*
X331785Y422284D01*
X331817Y422252D01*
Y422220D01*
X331979Y421766D01*
X332108Y421378D01*
X332141Y421248D01*
X332173Y421119D01*
X332206Y421054D01*
Y421021D01*
X332238Y420795D01*
X332206Y420600D01*
X332141Y420406D01*
X332076Y420244D01*
X331979Y420115D01*
X331914Y420017D01*
X331849Y419953D01*
X331817Y419920D01*
X331623Y419823D01*
X331428Y419758D01*
X331266D01*
X331137Y419791D01*
X330943Y419855D01*
X330910Y419920D01*
X330878D01*
X330522Y420244D01*
X330230Y420503D01*
X330036Y420665D01*
X330003Y420730D01*
X329971D01*
X329615Y420989D01*
X329291Y421216D01*
X329161Y421280D01*
X329064Y421345D01*
X328999Y421410D01*
X328967D01*
X328611Y421637D01*
X328287Y421831D01*
X328158Y421896D01*
X328060Y421928D01*
X327996Y421960D01*
X327963D01*
X327737Y422025D01*
X327575D01*
X327283Y421960D01*
X327121Y421896D01*
X327056Y421831D01*
X326959Y421669D01*
X326927Y421507D01*
X326894Y421183D01*
Y421054D01*
Y420957D01*
X326927Y420892D01*
Y420859D01*
X327024Y420665D01*
X327121Y420471D01*
X327186Y420341D01*
X327218Y420276D01*
X327348Y420082D01*
X327477Y419888D01*
X327575Y419758D01*
X327607Y419726D01*
X328060Y419143D01*
X328287Y418852D01*
X328481Y418625D01*
X328643Y418398D01*
X328773Y418236D01*
X328870Y418139D01*
X328902Y418107D01*
X329388Y417524D01*
X329615Y417265D01*
X329809Y417006D01*
X329971Y416779D01*
X330101Y416617D01*
X330165Y416487D01*
X330198Y416455D01*
X330586Y415872D01*
X330975Y415289D01*
X331364Y414771D01*
X331687Y414285D01*
X331946Y413864D01*
X332173Y413573D01*
X332270Y413443D01*
X332303Y413346D01*
X332368Y413314D01*
Y413281D01*
X332756Y412666D01*
X333145Y412083D01*
X333469Y411533D01*
X333760Y411047D01*
X334019Y410626D01*
X334213Y410334D01*
X334278Y410205D01*
X334343Y410108D01*
X334375Y410075D01*
Y410043D01*
X334667Y409460D01*
X334926Y408877D01*
X335153Y408326D01*
X335347Y407841D01*
X335476Y407420D01*
X335574Y407128D01*
X335638Y406999D01*
Y406902D01*
X335671Y406869D01*
Y406837D01*
X335833Y406221D01*
X335995Y405606D01*
X336092Y405056D01*
X336189Y404570D01*
X336254Y404149D01*
X336319Y403825D01*
Y403695D01*
X336351Y403598D01*
Y403566D01*
Y403533D01*
X336319Y403242D01*
X336286Y403015D01*
Y402853D01*
Y402789D01*
Y402594D01*
X336254Y402400D01*
X336221Y402270D01*
Y402238D01*
X336157Y401882D01*
X336059Y401526D01*
X335800Y400878D01*
X335476Y400327D01*
X335120Y399874D01*
X334796Y399518D01*
X334505Y399259D01*
X334311Y399129D01*
X334278Y399064D01*
X334246D01*
X333922Y398870D01*
X333566Y398708D01*
X333242Y398611D01*
X332918Y398546D01*
X332270Y398514D01*
X331655Y398546D01*
X331137Y398643D01*
X330943Y398708D01*
X330748Y398773D01*
X330586Y398805D01*
X330489Y398870D01*
X330424Y398902D01*
X330392D01*
X329647Y399291D01*
X328967Y399712D01*
X328352Y400101D01*
X327834Y400489D01*
X327380Y400845D01*
X327056Y401105D01*
X326959Y401234D01*
X326862Y401299D01*
X326830Y401364D01*
X326797D01*
X326214Y401914D01*
X325664Y402465D01*
X325178Y402983D01*
X324725Y403469D01*
X324336Y403857D01*
X324077Y404181D01*
X323947Y404311D01*
X323883Y404408D01*
X323818Y404440D01*
Y404473D01*
X323753Y404570D01*
X323688Y404667D01*
X323656Y404926D01*
X323624Y405120D01*
Y405185D01*
Y405218D01*
Y405412D01*
X323656Y405574D01*
X323721Y405800D01*
X323786Y405930D01*
X323818Y405962D01*
X323883Y406027D01*
X323980Y406092D01*
X324207Y406124D01*
X324401Y406157D01*
X324854D01*
X325081Y406124D01*
X325210Y406059D01*
X325243Y406027D01*
X325631Y405768D01*
X325955Y405509D01*
X326085Y405379D01*
X326182Y405315D01*
X326214Y405250D01*
X326247Y405218D01*
X326603Y404861D01*
X326894Y404537D01*
X326992Y404408D01*
X327089Y404311D01*
X327121Y404246D01*
X327154Y404213D01*
X327704Y403631D01*
X327963Y403372D01*
X328222Y403112D01*
X328417Y402918D01*
X328578Y402756D01*
X328676Y402659D01*
X328708Y402627D01*
X329291Y402173D01*
X329615Y402011D01*
X329906Y401849D01*
X330133Y401720D01*
X330327Y401623D01*
X330489Y401590D01*
X330522Y401558D01*
X330910Y401461D01*
X331234Y401428D01*
X331525D01*
X331752Y401461D01*
X331914Y401526D01*
X332044Y401558D01*
X332108Y401623D01*
X332141D01*
X332335Y401817D01*
X332465Y402076D01*
X332529Y402335D01*
X332562Y402627D01*
X332529Y402853D01*
Y403048D01*
X332497Y403177D01*
Y403242D01*
X332368Y403857D01*
X332303Y404116D01*
X332238Y404375D01*
X332173Y404570D01*
X332108Y404764D01*
X332076Y404861D01*
Y404894D01*
X331849Y405476D01*
X331752Y405736D01*
X331623Y405930D01*
X331558Y406124D01*
X331461Y406254D01*
X331428Y406351D01*
X331396Y406383D01*
X330748Y407549D01*
X330101Y408683D01*
X329485Y409719D01*
X329194Y410205D01*
X328935Y410658D01*
X328708Y411079D01*
X328481Y411468D01*
X328287Y411792D01*
X328125Y412083D01*
X327996Y412310D01*
X327898Y412472D01*
X327834Y412569D01*
X327801Y412601D01*
X327121Y413767D01*
X326474Y414901D01*
X325891Y415937D01*
X325599Y416423D01*
X325340Y416908D01*
X325113Y417329D01*
X324887Y417686D01*
X324692Y418042D01*
X324530Y418301D01*
X324401Y418528D01*
X324304Y418722D01*
X324271Y418819D01*
X324239Y418852D01*
X323915Y419467D01*
X323753Y419758D01*
X323624Y420017D01*
X323526Y420276D01*
X323462Y420438D01*
X323397Y420568D01*
Y420600D01*
X323138Y421280D01*
X323073Y421604D01*
X322976Y421896D01*
X322943Y422155D01*
X322911Y422349D01*
X322879Y422479D01*
Y422511D01*
X322814Y422900D01*
Y423288D01*
X322846Y423580D01*
X322943Y423839D01*
X323008Y424066D01*
X323105Y424195D01*
X323170Y424292D01*
X323203Y424325D01*
X323429Y424584D01*
X323688Y424810D01*
X323980Y424972D01*
X324239Y425134D01*
X324498Y425231D01*
X324692Y425296D01*
X324822Y425361D01*
X324887D01*
X325340Y425490D01*
X325729Y425523D01*
X325891Y425555D01*
X326117D01*
X326603Y425523D01*
D02*
G37*
G36*
X473339Y424972D02*
X474635Y424843D01*
X475218Y424746D01*
X475801Y424649D01*
X476319Y424551D01*
X476837Y424454D01*
X477258Y424325D01*
X477679Y424227D01*
X478035Y424130D01*
X478327Y424066D01*
X478553Y423968D01*
X478748Y423936D01*
X478845Y423871D01*
X478877D01*
X479460Y423644D01*
X480043Y423386D01*
X481144Y422803D01*
X482116Y422187D01*
X482537Y421863D01*
X482958Y421539D01*
X483346Y421248D01*
X483670Y420957D01*
X483962Y420730D01*
X484188Y420503D01*
X484383Y420309D01*
X484512Y420179D01*
X484609Y420082D01*
X484642Y420050D01*
X485387Y419240D01*
X486034Y418398D01*
X486650Y417589D01*
X487168Y416779D01*
X487621Y415969D01*
X488042Y415224D01*
X488366Y414480D01*
X488657Y413800D01*
X488917Y413152D01*
X489111Y412569D01*
X489273Y412051D01*
X489402Y411630D01*
X489500Y411273D01*
X489564Y411014D01*
X489597Y410853D01*
Y410788D01*
X489694Y410172D01*
X489759Y409557D01*
X489791Y409007D01*
X489823Y408488D01*
X489856Y408067D01*
Y407743D01*
Y407614D01*
Y407517D01*
Y407484D01*
Y407452D01*
X489791Y406157D01*
X489661Y404861D01*
X489500Y403663D01*
X489402Y403080D01*
X489273Y402562D01*
X489176Y402076D01*
X489078Y401623D01*
X488981Y401234D01*
X488884Y400910D01*
X488820Y400619D01*
X488755Y400424D01*
X488722Y400295D01*
Y400263D01*
X488301Y399129D01*
X487848Y398028D01*
X487394Y397057D01*
X487200Y396603D01*
X486973Y396182D01*
X486779Y395793D01*
X486585Y395470D01*
X486423Y395146D01*
X486293Y394919D01*
X486164Y394692D01*
X486067Y394563D01*
X486034Y394466D01*
X486002Y394433D01*
X485354Y393429D01*
X484707Y392490D01*
X484091Y391583D01*
X483541Y390774D01*
X483282Y390450D01*
X483055Y390126D01*
X482861Y389835D01*
X482666Y389608D01*
X482537Y389414D01*
X482440Y389284D01*
X482375Y389187D01*
X482342Y389155D01*
X480820Y387211D01*
X480075Y386272D01*
X479331Y385365D01*
X478618Y384459D01*
X477938Y383649D01*
X477258Y382839D01*
X476643Y382127D01*
X476060Y381447D01*
X475542Y380864D01*
X475056Y380346D01*
X474667Y379892D01*
X474343Y379536D01*
X474117Y379277D01*
X473987Y379115D01*
X473922Y379050D01*
X472271Y377237D01*
X470619Y375520D01*
X469842Y374711D01*
X469065Y373934D01*
X468352Y373189D01*
X467672Y372509D01*
X467057Y371893D01*
X466474Y371343D01*
X465956Y370825D01*
X465535Y370404D01*
X465211Y370080D01*
X464952Y369821D01*
X464790Y369691D01*
X464725Y369626D01*
X463948Y368946D01*
X463592Y368655D01*
X463268Y368363D01*
X463009Y368137D01*
X462814Y367975D01*
X462652Y367845D01*
X462620Y367813D01*
X461843Y367133D01*
X461454Y366841D01*
X461130Y366550D01*
X460839Y366323D01*
X460644Y366161D01*
X460483Y366032D01*
X460450Y365999D01*
X460288Y366096D01*
X460159Y366161D01*
X460062Y366226D01*
X460029D01*
X459835Y366420D01*
X459803Y366453D01*
X459770Y366485D01*
X458604Y367521D01*
X457471Y368558D01*
X456435Y369529D01*
X455981Y369983D01*
X455528Y370404D01*
X455139Y370825D01*
X454783Y371181D01*
X454459Y371505D01*
X454200Y371764D01*
X453973Y371991D01*
X453811Y372152D01*
X453714Y372249D01*
X453682Y372282D01*
X452613Y373415D01*
X451577Y374516D01*
X450605Y375553D01*
X450184Y376039D01*
X449763Y376524D01*
X449407Y376945D01*
X449051Y377334D01*
X448759Y377658D01*
X448500Y377949D01*
X448306Y378176D01*
X448176Y378370D01*
X448079Y378467D01*
X448047Y378500D01*
X447270Y379439D01*
X446881Y379892D01*
X446557Y380281D01*
X446266Y380605D01*
X446071Y380864D01*
X445909Y381026D01*
X445877Y381091D01*
X445488Y381609D01*
X445132Y382095D01*
X444776Y382580D01*
X444484Y383001D01*
X444258Y383358D01*
X444063Y383649D01*
X443934Y383811D01*
X443901Y383876D01*
X443578Y384426D01*
X443383Y384944D01*
X443254Y385398D01*
X443189Y385819D01*
X443157Y386175D01*
X443189Y386434D01*
X443221Y386596D01*
Y386661D01*
X443383Y387114D01*
X443610Y387568D01*
X443869Y387956D01*
X444161Y388312D01*
X444420Y388604D01*
X444646Y388831D01*
X444808Y388960D01*
X444873Y389025D01*
X445456Y389478D01*
X446039Y389835D01*
X446622Y390094D01*
X447140Y390320D01*
X447593Y390482D01*
X447917Y390579D01*
X448047Y390612D01*
X448144Y390644D01*
X448241D01*
X448921Y390741D01*
X449601Y390806D01*
X450832D01*
X451350Y390774D01*
X451544D01*
X451739Y390741D01*
X451868D01*
X451965Y390709D01*
X452062D01*
X452645Y390579D01*
X452905Y390482D01*
X453131Y390385D01*
X453326Y390288D01*
X453487Y390223D01*
X453585Y390191D01*
X453617Y390159D01*
X453876Y389996D01*
X454103Y389802D01*
X454297Y389576D01*
X454427Y389381D01*
X454556Y389187D01*
X454621Y389025D01*
X454653Y388928D01*
X454686Y388895D01*
X454848Y388442D01*
X454945Y388053D01*
Y387892D01*
X454977Y387762D01*
Y387697D01*
Y387665D01*
X454945Y387438D01*
X454912Y387211D01*
X454750Y386855D01*
X454686Y386693D01*
X454621Y386596D01*
X454589Y386531D01*
X454556Y386499D01*
X454394Y386337D01*
X454232Y386208D01*
X454070Y386110D01*
X453941Y386046D01*
X453811Y386013D01*
X453714Y385981D01*
X453617D01*
X453196Y386013D01*
X452840Y386046D01*
X452678Y386078D01*
X452548D01*
X452483Y386110D01*
X452451D01*
X452160Y386175D01*
X451868Y386240D01*
X451642Y386272D01*
X451609Y386305D01*
X451577D01*
X451221Y386402D01*
X450929Y386467D01*
X450799D01*
X450702Y386499D01*
X450638D01*
X450346Y386467D01*
X450087Y386434D01*
X449893Y386337D01*
X449698Y386240D01*
X449569Y386143D01*
X449472Y386078D01*
X449439Y386013D01*
X449407Y385981D01*
X449310Y385754D01*
X449245Y385495D01*
Y385268D01*
Y385074D01*
X449277Y384880D01*
X449310Y384750D01*
X449342Y384653D01*
Y384621D01*
X449601Y384135D01*
X449925Y383681D01*
X450281Y383260D01*
X450670Y382937D01*
X451026Y382645D01*
X451318Y382451D01*
X451512Y382289D01*
X451544Y382257D01*
X451577D01*
X452192Y381933D01*
X452775Y381706D01*
X453326Y381576D01*
X453779Y381479D01*
X454200Y381414D01*
X454750D01*
X455366Y381544D01*
X455916Y381738D01*
X456402Y381933D01*
X456823Y382192D01*
X457147Y382418D01*
X457406Y382580D01*
X457536Y382742D01*
X457600Y382775D01*
X457989Y383228D01*
X458313Y383714D01*
X458572Y384200D01*
X458734Y384653D01*
X458896Y385042D01*
X458960Y385333D01*
X458993Y385463D01*
X459025Y385560D01*
Y385592D01*
Y385625D01*
X459122Y386531D01*
Y387373D01*
X459090Y388183D01*
X459025Y388863D01*
X458993Y389155D01*
X458928Y389446D01*
X458896Y389673D01*
X458863Y389867D01*
X458831Y390029D01*
X458799Y390159D01*
X458766Y390223D01*
Y390256D01*
X458507Y391033D01*
X458183Y391810D01*
X457859Y392490D01*
X457536Y393106D01*
X457244Y393624D01*
X457115Y393850D01*
X457017Y394012D01*
X456920Y394174D01*
X456856Y394271D01*
X456791Y394336D01*
Y394369D01*
X456629Y394563D01*
X456499Y394725D01*
X456337Y394854D01*
X456240Y394951D01*
X456046Y395016D01*
X456013Y395049D01*
X455819D01*
X455657Y395016D01*
X455333Y394887D01*
X455172Y394790D01*
X455074Y394725D01*
X455009Y394692D01*
X454977Y394660D01*
X454589Y394401D01*
X454168Y394174D01*
X453390Y393786D01*
X452645Y393494D01*
X451965Y393300D01*
X451382Y393170D01*
X451156Y393138D01*
X450929Y393106D01*
X450767D01*
X450638Y393073D01*
X449698D01*
X448889Y393170D01*
X448111Y393300D01*
X447399Y393494D01*
X447075Y393559D01*
X446816Y393656D01*
X446557Y393753D01*
X446330Y393818D01*
X446168Y393883D01*
X446039Y393947D01*
X445974Y393980D01*
X445942D01*
X445553Y394174D01*
X445197Y394369D01*
X444841Y394595D01*
X444549Y394790D01*
X444323Y394951D01*
X444128Y395113D01*
X443999Y395210D01*
X443966Y395243D01*
X443707Y395567D01*
X443513Y395923D01*
X443351Y396279D01*
X443254Y396636D01*
X443189Y396927D01*
X443157Y397186D01*
Y397348D01*
Y397413D01*
X443189Y397866D01*
X443286Y398287D01*
X443383Y398643D01*
X443513Y398967D01*
X443675Y399194D01*
X443772Y399388D01*
X443869Y399485D01*
X443901Y399518D01*
X444517Y400068D01*
X444808Y400327D01*
X445100Y400522D01*
X445326Y400716D01*
X445521Y400845D01*
X445650Y400910D01*
X445683Y400943D01*
X445812Y401007D01*
X445877D01*
X445974Y401072D01*
X446007D01*
X446654Y401364D01*
X447302Y401590D01*
X447917Y401785D01*
X448435Y401914D01*
X448889Y402044D01*
X449245Y402108D01*
X449375Y402141D01*
X449472Y402173D01*
X449537D01*
X450216Y402206D01*
X450897Y402238D01*
X451512Y402206D01*
X452062Y402141D01*
X452516Y402108D01*
X452872Y402044D01*
X453002Y402011D01*
X453099D01*
X453164Y401979D01*
X453196D01*
X453649Y401882D01*
X454006Y401817D01*
X454265Y401785D01*
X454653D01*
X454750Y401817D01*
X454815D01*
X454945Y401947D01*
X455107Y402141D01*
X455236Y402400D01*
X455366Y402659D01*
X455463Y402886D01*
X455560Y403112D01*
X455592Y403242D01*
X455625Y403307D01*
X455916Y404278D01*
X456143Y405218D01*
X456305Y406092D01*
X456402Y406902D01*
X456467Y407258D01*
Y407582D01*
X456499Y407873D01*
X456532Y408100D01*
Y408294D01*
Y408424D01*
Y408521D01*
Y408553D01*
X456499Y409525D01*
X456435Y410464D01*
X456305Y411371D01*
X456175Y412148D01*
X456143Y412504D01*
X456078Y412796D01*
X456013Y413087D01*
X455949Y413314D01*
X455916Y413508D01*
X455884Y413638D01*
X455852Y413735D01*
Y413767D01*
X455657Y414415D01*
X455398Y414998D01*
X455139Y415548D01*
X454880Y416002D01*
X454653Y416390D01*
X454459Y416682D01*
X454329Y416876D01*
X454297Y416941D01*
X453876Y417459D01*
X453423Y417945D01*
X452969Y418333D01*
X452516Y418657D01*
X452127Y418916D01*
X451803Y419078D01*
X451674Y419143D01*
X451577Y419208D01*
X451544Y419240D01*
X451512D01*
X450864Y419499D01*
X450184Y419694D01*
X449537Y419855D01*
X448856Y419920D01*
X448241Y419985D01*
X447593D01*
X447010Y419953D01*
X446427Y419888D01*
X445909Y419791D01*
X445424Y419726D01*
X445003Y419629D01*
X444646Y419532D01*
X444355Y419435D01*
X444161Y419370D01*
X443999Y419337D01*
X443966Y419305D01*
X443221Y418981D01*
X442574Y418657D01*
X441958Y418269D01*
X441375Y417848D01*
X440857Y417427D01*
X440404Y417006D01*
X440015Y416585D01*
X439659Y416196D01*
X439335Y415775D01*
X439076Y415419D01*
X438849Y415095D01*
X438655Y414803D01*
X438526Y414544D01*
X438428Y414382D01*
X438396Y414253D01*
X438364Y414221D01*
X438169Y413735D01*
X438072Y413249D01*
X438007Y412796D01*
Y412407D01*
X438040Y412083D01*
X438072Y411824D01*
X438105Y411662D01*
X438137Y411597D01*
X438299Y411144D01*
X438526Y410755D01*
X438785Y410432D01*
X439076Y410172D01*
X439303Y409946D01*
X439529Y409816D01*
X439659Y409719D01*
X439724Y409687D01*
X440177Y409492D01*
X440598Y409363D01*
X441019Y409298D01*
X441375D01*
X441699Y409330D01*
X441926Y409363D01*
X442088Y409427D01*
X442153D01*
X442606Y409622D01*
X442995Y409849D01*
X443351Y410140D01*
X443642Y410432D01*
X443869Y410690D01*
X444031Y410917D01*
X444161Y411047D01*
X444193Y411111D01*
X444452Y411565D01*
X444679Y411921D01*
X444776Y412083D01*
X444873Y412180D01*
X444905Y412245D01*
X444938Y412277D01*
X445197Y412666D01*
X445424Y413022D01*
X445521Y413152D01*
X445618Y413249D01*
X445650Y413314D01*
X445683Y413346D01*
X445942Y413638D01*
X446201Y413897D01*
X446460Y414091D01*
X446719Y414253D01*
X446913Y414415D01*
X447075Y414512D01*
X447205Y414544D01*
X447237Y414577D01*
X447561Y414674D01*
X447917Y414706D01*
X448565D01*
X448824Y414674D01*
X449018Y414609D01*
X449148Y414577D01*
X449213D01*
X449601Y414415D01*
X449958Y414221D01*
X450281Y413994D01*
X450540Y413800D01*
X450735Y413638D01*
X450897Y413476D01*
X450994Y413378D01*
X451026Y413346D01*
X451253Y413022D01*
X451447Y412666D01*
X451577Y412310D01*
X451674Y411986D01*
X451771Y411694D01*
X451803Y411468D01*
X451836Y411306D01*
Y411241D01*
X451868Y410788D01*
X451836Y410399D01*
X451803Y410010D01*
X451739Y409687D01*
X451706Y409395D01*
X451642Y409201D01*
X451577Y409039D01*
Y409007D01*
X451415Y408618D01*
X451253Y408262D01*
X451059Y407938D01*
X450864Y407646D01*
X450670Y407387D01*
X450540Y407225D01*
X450443Y407096D01*
X450411Y407063D01*
X449958Y406578D01*
X449537Y406157D01*
X449083Y405736D01*
X448630Y405379D01*
X448176Y405056D01*
X447723Y404764D01*
X447302Y404505D01*
X446913Y404278D01*
X446525Y404084D01*
X446201Y403922D01*
X445877Y403760D01*
X445618Y403663D01*
X445424Y403566D01*
X445262Y403501D01*
X445164Y403469D01*
X445132D01*
X444582Y403307D01*
X444031Y403177D01*
X442930Y403015D01*
X441861Y402951D01*
X440890D01*
X440436Y402983D01*
X440048Y403015D01*
X439691Y403048D01*
X439400Y403080D01*
X439141Y403112D01*
X438979Y403145D01*
X438849Y403177D01*
X438817D01*
X438137Y403339D01*
X437522Y403534D01*
X436939Y403760D01*
X436421Y404019D01*
X435902Y404311D01*
X435449Y404602D01*
X435028Y404926D01*
X434672Y405218D01*
X434348Y405541D01*
X434056Y405800D01*
X433830Y406092D01*
X433635Y406319D01*
X433474Y406513D01*
X433376Y406642D01*
X433312Y406740D01*
X433279Y406772D01*
X432955Y407323D01*
X432696Y407905D01*
X432502Y408488D01*
X432372Y409039D01*
X432243Y409590D01*
X432178Y410108D01*
X432146Y410626D01*
Y411111D01*
X432178Y411565D01*
Y411954D01*
X432243Y412310D01*
X432275Y412634D01*
X432340Y412893D01*
X432372Y413055D01*
X432405Y413184D01*
Y413217D01*
X432664Y414091D01*
X432955Y414901D01*
X433247Y415645D01*
X433571Y416261D01*
X433830Y416811D01*
X433959Y417038D01*
X434056Y417200D01*
X434154Y417362D01*
X434218Y417459D01*
X434283Y417524D01*
Y417556D01*
X434801Y418301D01*
X435319Y418981D01*
X435870Y419596D01*
X436356Y420147D01*
X436809Y420600D01*
X437165Y420924D01*
X437295Y421054D01*
X437392Y421151D01*
X437457Y421183D01*
X437489Y421216D01*
X438461Y421960D01*
X439432Y422608D01*
X440372Y423126D01*
X441246Y423547D01*
X441634Y423709D01*
X441991Y423871D01*
X442315Y424001D01*
X442574Y424098D01*
X442800Y424163D01*
X442962Y424227D01*
X443060Y424260D01*
X443092D01*
X444225Y424519D01*
X445359Y424713D01*
X446460Y424810D01*
X446946Y424843D01*
X447431Y424875D01*
X447852D01*
X448241Y424908D01*
X448889D01*
X449148Y424875D01*
X449472D01*
X450476Y424778D01*
X451415Y424649D01*
X452289Y424454D01*
X453034Y424260D01*
X453358Y424130D01*
X453649Y424033D01*
X453908Y423968D01*
X454135Y423871D01*
X454329Y423806D01*
X454459Y423742D01*
X454524Y423709D01*
X454556D01*
X455430Y423288D01*
X456273Y422835D01*
X456985Y422317D01*
X457633Y421831D01*
X457924Y421604D01*
X458151Y421410D01*
X458378Y421216D01*
X458572Y421054D01*
X458701Y420924D01*
X458799Y420827D01*
X458863Y420762D01*
X458896Y420730D01*
X459187Y420438D01*
X459414Y420179D01*
X459576Y419985D01*
X459608Y419953D01*
X459641Y419920D01*
X459867Y419629D01*
X460094Y419370D01*
X460256Y419175D01*
X460288Y419143D01*
X460321Y419111D01*
X460483Y419208D01*
X460612Y419273D01*
X460677Y419305D01*
X460806D01*
X460871Y419337D01*
X460936Y419370D01*
X461065Y419564D01*
X461195Y419726D01*
X461292Y419823D01*
X461325Y419855D01*
X461519Y420050D01*
X461681Y420212D01*
X461778Y420309D01*
X461810Y420341D01*
X462620Y421119D01*
X463430Y421799D01*
X464174Y422382D01*
X464887Y422867D01*
X465211Y423062D01*
X465502Y423223D01*
X465761Y423386D01*
X465988Y423483D01*
X466150Y423580D01*
X466312Y423644D01*
X466377Y423709D01*
X466409D01*
X467381Y424130D01*
X468352Y424422D01*
X469291Y424649D01*
X470133Y424810D01*
X470522Y424875D01*
X470878Y424908D01*
X471202Y424940D01*
X471461Y424972D01*
X471688Y425005D01*
X471979D01*
X473339Y424972D01*
D02*
G37*
G36*
X385803Y421345D02*
X386191Y421216D01*
X386353Y421151D01*
X386483Y421086D01*
X386548Y421054D01*
X386580Y421021D01*
X386839Y420795D01*
X387066Y420536D01*
X387454Y420050D01*
X387584Y419823D01*
X387714Y419629D01*
X387778Y419499D01*
X387811Y419467D01*
X387940Y419111D01*
X388037Y418787D01*
X388070Y418528D01*
Y418333D01*
Y418139D01*
X388037Y418042D01*
X388005Y417977D01*
Y417945D01*
X387908Y417815D01*
X387778Y417718D01*
X387649Y417653D01*
X387584Y417621D01*
X387390Y417589D01*
X387260D01*
X387163Y417621D01*
X387131D01*
X386580Y417912D01*
X386321Y418074D01*
X386062Y418172D01*
X385868Y418301D01*
X385706Y418366D01*
X385608Y418398D01*
X385576Y418430D01*
X384993Y418787D01*
X384734Y418949D01*
X384475Y419078D01*
X384281Y419208D01*
X384119Y419305D01*
X384022Y419337D01*
X383989Y419370D01*
X383892Y419467D01*
X383795Y419596D01*
X383763Y419693D01*
X383730Y419726D01*
X383665Y419855D01*
X383601Y419985D01*
X383568Y420082D01*
X383536Y420115D01*
X383633Y420276D01*
X383698Y420406D01*
X383763Y420503D01*
X383795Y420536D01*
X383892Y420665D01*
X384022Y420762D01*
X384119Y420827D01*
X384151Y420859D01*
X384378Y421054D01*
X384572Y421183D01*
X384799Y421280D01*
X384961Y421345D01*
X385123Y421378D01*
X385252Y421410D01*
X385576D01*
X385803Y421345D01*
D02*
G37*
G36*
X344156Y420892D02*
X344253D01*
X344318Y420859D01*
X344350D01*
X344739Y420698D01*
X345095Y420503D01*
X345386Y420276D01*
X345581Y420050D01*
X345775Y419823D01*
X345872Y419629D01*
X345937Y419499D01*
X345969Y419467D01*
X346131Y419046D01*
X346261Y418625D01*
X346293Y418204D01*
X346325Y417815D01*
Y417491D01*
X346293Y417232D01*
X346261Y417070D01*
Y417006D01*
X345840Y417135D01*
X345451Y417265D01*
X345095Y417394D01*
X344771Y417524D01*
X344512Y417621D01*
X344318Y417718D01*
X344188Y417783D01*
X344156Y417815D01*
X343476Y418269D01*
X343152Y418495D01*
X342893Y418690D01*
X342634Y418852D01*
X342472Y418981D01*
X342342Y419078D01*
X342310Y419111D01*
X342245Y419208D01*
X342180Y419337D01*
Y419467D01*
Y419532D01*
Y419758D01*
X342213Y419920D01*
X342245Y420017D01*
Y420050D01*
X342374Y420212D01*
X342504Y420374D01*
X342828Y420600D01*
X342990Y420698D01*
X343119Y420762D01*
X343184Y420795D01*
X343217D01*
X343443Y420859D01*
X343670Y420892D01*
X344026Y420924D01*
X344156Y420892D01*
D02*
G37*
G36*
X343476Y415678D02*
X343605Y415613D01*
X343702Y415548D01*
X343735Y415516D01*
X343897Y415484D01*
X344026Y415419D01*
X344123Y415386D01*
X344156D01*
X345030Y414933D01*
X345872Y414512D01*
X346649Y414091D01*
X347329Y413702D01*
X347653Y413540D01*
X347912Y413378D01*
X348171Y413249D01*
X348366Y413119D01*
X348528Y413022D01*
X348657Y412957D01*
X348722Y412925D01*
X348754Y412893D01*
X349629Y412472D01*
X350503Y412148D01*
X351377Y411921D01*
X352155Y411759D01*
X352511Y411694D01*
X352835Y411662D01*
X353126Y411630D01*
X353353D01*
X353580Y411597D01*
X353839D01*
X354033Y411565D01*
X354163Y411533D01*
X354292Y411468D01*
X354389Y411403D01*
X354487Y411241D01*
X354519Y411209D01*
Y411176D01*
X354551Y410917D01*
X354519Y410690D01*
X354487Y410561D01*
X354454Y410496D01*
X354227Y410270D01*
X354001Y410043D01*
X353839Y409881D01*
X353806Y409849D01*
X353774Y409816D01*
X353515Y409654D01*
X353288Y409525D01*
X353094Y409460D01*
X353061Y409427D01*
X353029D01*
X352673Y409363D01*
X352025D01*
X351572Y409395D01*
X351151Y409427D01*
X350730D01*
X350956Y408909D01*
X351054Y408683D01*
X351151Y408456D01*
X351248Y408294D01*
X351280Y408164D01*
X351345Y408100D01*
Y408067D01*
X351572Y407614D01*
X351766Y407258D01*
X351831Y407096D01*
X351896Y406999D01*
X351928Y406934D01*
Y406902D01*
X352252Y406221D01*
X352414Y405897D01*
X352543Y405606D01*
X352673Y405379D01*
X352738Y405185D01*
X352803Y405056D01*
X352835Y405023D01*
X353126Y404311D01*
X353256Y403987D01*
X353385Y403695D01*
X353450Y403469D01*
X353515Y403274D01*
X353580Y403145D01*
Y403112D01*
X353677Y402691D01*
X353742Y402270D01*
X353774Y401882D01*
Y401526D01*
X353677Y400878D01*
X353483Y400327D01*
X353288Y399906D01*
X353094Y399582D01*
X352964Y399388D01*
X352900Y399356D01*
Y399323D01*
X352640Y399064D01*
X352382Y398870D01*
X352090Y398708D01*
X351766Y398546D01*
X351151Y398352D01*
X350536Y398255D01*
X350017Y398190D01*
X349402D01*
X349272Y398222D01*
X349175D01*
X348884Y398287D01*
X348625Y398384D01*
X348430Y398417D01*
X348398Y398449D01*
X348366D01*
X348042Y398546D01*
X347783Y398676D01*
X347589Y398741D01*
X347556Y398773D01*
X347524D01*
X346941Y399097D01*
X346423Y399453D01*
X345937Y399809D01*
X345516Y400133D01*
X345192Y400392D01*
X344933Y400619D01*
X344771Y400748D01*
X344706Y400813D01*
X344253Y401267D01*
X343832Y401752D01*
X343411Y402206D01*
X343087Y402594D01*
X342795Y402951D01*
X342569Y403242D01*
X342439Y403404D01*
X342374Y403469D01*
X342213Y403695D01*
X342083Y403922D01*
X342018Y404084D01*
X341986Y404116D01*
Y404149D01*
X341954Y404311D01*
X341986Y404473D01*
X342051Y404829D01*
X342115Y404991D01*
X342180Y405120D01*
X342213Y405185D01*
X342245Y405218D01*
X342504Y404991D01*
X342731Y404829D01*
X342860Y404699D01*
X342925Y404667D01*
X343217Y404473D01*
X343411Y404311D01*
X343573Y404181D01*
X343605Y404149D01*
X344285Y403533D01*
X344609Y403242D01*
X344868Y402983D01*
X345127Y402756D01*
X345289Y402594D01*
X345419Y402465D01*
X345451Y402432D01*
X346099Y401849D01*
X346423Y401558D01*
X346682Y401331D01*
X346908Y401105D01*
X347103Y400943D01*
X347232Y400845D01*
X347265Y400813D01*
X347653Y400522D01*
X348009Y400327D01*
X348139Y400230D01*
X348269Y400165D01*
X348333Y400133D01*
X348366D01*
X348560Y400036D01*
X348787Y400004D01*
X348981Y400036D01*
X349175Y400068D01*
X349370Y400133D01*
X349499Y400198D01*
X349596Y400230D01*
X349629Y400262D01*
X349791Y400392D01*
X349920Y400554D01*
X349985Y400684D01*
X350050Y400845D01*
X350082Y401007D01*
X350115Y401137D01*
Y401202D01*
Y401234D01*
Y401526D01*
X350082Y401817D01*
X350050Y402076D01*
X349985Y402335D01*
X349920Y402529D01*
X349855Y402691D01*
X349791Y402821D01*
Y402853D01*
X349629Y403242D01*
X349467Y403566D01*
X349402Y403695D01*
X349337Y403792D01*
X349305Y403825D01*
Y403857D01*
X349143Y404246D01*
X348981Y404570D01*
X348916Y404699D01*
X348852Y404796D01*
X348819Y404861D01*
Y404894D01*
X348366Y405768D01*
X348139Y406189D01*
X347945Y406545D01*
X347783Y406869D01*
X347653Y407128D01*
X347556Y407258D01*
X347524Y407323D01*
X347038Y408229D01*
X346844Y408618D01*
X346649Y409007D01*
X346487Y409298D01*
X346358Y409557D01*
X346293Y409687D01*
X346261Y409751D01*
X345710Y410820D01*
X345451Y411306D01*
X345224Y411759D01*
X345030Y412116D01*
X344901Y412407D01*
X344803Y412601D01*
X344771Y412666D01*
X344220Y413767D01*
X343961Y414318D01*
X343702Y414771D01*
X343508Y415192D01*
X343346Y415516D01*
X343281Y415613D01*
X343249Y415710D01*
X343217Y415743D01*
Y415775D01*
X343476Y415678D01*
D02*
G37*
G36*
X401121Y424487D02*
X401477Y424454D01*
X401769Y424422D01*
X401963Y424357D01*
X402092Y424325D01*
X402157D01*
X403226Y424001D01*
X404262Y423644D01*
X405266Y423256D01*
X406205Y422835D01*
X407112Y422414D01*
X407954Y421993D01*
X408731Y421572D01*
X409444Y421183D01*
X410124Y420795D01*
X410675Y420438D01*
X411193Y420082D01*
X411614Y419823D01*
X411937Y419564D01*
X412197Y419402D01*
X412326Y419272D01*
X412391Y419240D01*
X413200Y418560D01*
X413945Y417848D01*
X414658Y417135D01*
X415338Y416358D01*
X415953Y415613D01*
X416536Y414868D01*
X417054Y414156D01*
X417540Y413443D01*
X417961Y412796D01*
X418317Y412180D01*
X418641Y411630D01*
X418900Y411144D01*
X419127Y410788D01*
X419257Y410496D01*
X419354Y410302D01*
X419386Y410270D01*
Y410237D01*
X419775Y409330D01*
X420066Y408424D01*
X420260Y407614D01*
X420390Y406804D01*
X420455Y406092D01*
Y405379D01*
X420422Y404764D01*
X420358Y404181D01*
X420228Y403663D01*
X420131Y403210D01*
X420001Y402821D01*
X419872Y402497D01*
X419742Y402238D01*
X419678Y402044D01*
X419613Y401914D01*
X419580Y401882D01*
X419127Y401299D01*
X418641Y400781D01*
X418058Y400327D01*
X417475Y399939D01*
X416860Y399582D01*
X416212Y399323D01*
X415565Y399097D01*
X414949Y398902D01*
X414334Y398773D01*
X413783Y398643D01*
X413265Y398578D01*
X412812Y398514D01*
X412456Y398481D01*
X412164Y398449D01*
X411937D01*
X411322Y398546D01*
X411031Y398578D01*
X410772Y398611D01*
X410545D01*
X410383Y398643D01*
X410221D01*
X409606Y398708D01*
X409314Y398773D01*
X409088Y398838D01*
X408893Y398870D01*
X408731Y398935D01*
X408634Y398967D01*
X408602D01*
X407954Y399194D01*
X407339Y399453D01*
X406788Y399712D01*
X406302Y399971D01*
X405882Y400198D01*
X405558Y400392D01*
X405461Y400457D01*
X405363Y400522D01*
X405331Y400554D01*
X405299D01*
X404780Y400943D01*
X404327Y401396D01*
X403938Y401882D01*
X403647Y402368D01*
X403420Y402789D01*
X403258Y403145D01*
X403194Y403274D01*
X403161Y403372D01*
X403129Y403436D01*
Y403469D01*
X403032Y403857D01*
X402934Y404181D01*
X402902Y404537D01*
X402870Y404829D01*
Y405056D01*
X402902Y405250D01*
Y405379D01*
Y405412D01*
X402967Y405768D01*
X403064Y406092D01*
X403226Y406383D01*
X403420Y406642D01*
X403582Y406837D01*
X403744Y406999D01*
X403841Y407096D01*
X403874Y407128D01*
X404198Y407420D01*
X404521Y407646D01*
X404845Y407841D01*
X405137Y407970D01*
X405396Y408035D01*
X405590Y408100D01*
X405720Y408132D01*
X406529D01*
X406885Y408067D01*
X407177Y408035D01*
X407468Y407970D01*
X407663Y407938D01*
X407792Y407873D01*
X407857D01*
X408569Y407549D01*
X408893Y407355D01*
X409152Y407193D01*
X409379Y407063D01*
X409541Y406934D01*
X409670Y406869D01*
X409703Y406837D01*
X409962Y406578D01*
X410156Y406254D01*
X410318Y405962D01*
X410415Y405671D01*
X410480Y405412D01*
X410545Y405218D01*
X410577Y405088D01*
Y405023D01*
Y404699D01*
Y404440D01*
X410545Y404213D01*
X410480Y404019D01*
X410448Y403857D01*
X410383Y403760D01*
X410351Y403695D01*
Y403663D01*
X410221Y403469D01*
X410059Y403339D01*
X409897Y403210D01*
X409735Y403112D01*
X409573Y403048D01*
X409444Y403015D01*
X409379Y402983D01*
X409347D01*
X409088Y402918D01*
X408602D01*
X408408Y402951D01*
X408278Y402983D01*
X408148Y403015D01*
X408084Y403048D01*
X408051D01*
X407889Y403177D01*
X407727Y403307D01*
X407468Y403663D01*
X407371Y403792D01*
X407306Y403922D01*
X407242Y404019D01*
Y404052D01*
X407145Y404311D01*
X407047Y404505D01*
X407015Y404635D01*
X406983Y404667D01*
X406918Y404894D01*
X406821Y405088D01*
X406724Y405185D01*
X406691Y405218D01*
X406562Y405347D01*
X406400Y405412D01*
X406302Y405476D01*
X406238D01*
X406011Y405541D01*
X405849D01*
X405784Y405509D01*
X405752Y405476D01*
X405622Y405412D01*
X405525Y405282D01*
X405461Y405185D01*
X405428Y405153D01*
X405363Y404926D01*
X405331Y404732D01*
X405363Y404635D01*
Y404602D01*
X405396Y404375D01*
X405428Y404181D01*
X405461Y404052D01*
X405493Y403987D01*
X405590Y403760D01*
X405655Y403566D01*
X405720Y403436D01*
X405752Y403404D01*
X406173Y402789D01*
X406659Y402238D01*
X407177Y401817D01*
X407695Y401428D01*
X408181Y401169D01*
X408602Y400975D01*
X408731Y400910D01*
X408861Y400845D01*
X408926Y400813D01*
X408958D01*
X409347Y400651D01*
X409735Y400554D01*
X410480Y400392D01*
X411193Y400360D01*
X411776D01*
X412294Y400392D01*
X412488Y400424D01*
X412682Y400457D01*
X412812Y400489D01*
X412909Y400522D01*
X412974Y400554D01*
X413006D01*
X413492Y400716D01*
X413913Y400943D01*
X414237Y401137D01*
X414528Y401364D01*
X414755Y401558D01*
X414917Y401720D01*
X415014Y401849D01*
X415046Y401882D01*
X415305Y402270D01*
X415500Y402691D01*
X415629Y403112D01*
X415727Y403469D01*
X415791Y403792D01*
X415824Y404052D01*
X415856Y404213D01*
Y404278D01*
Y404764D01*
Y405250D01*
X415824Y405671D01*
X415791Y406059D01*
X415727Y406383D01*
X415694Y406642D01*
X415662Y406772D01*
Y406837D01*
X415532Y407290D01*
X415370Y407711D01*
X415208Y408132D01*
X415079Y408488D01*
X414949Y408780D01*
X414852Y409007D01*
X414787Y409136D01*
X414755Y409201D01*
X414334Y410075D01*
X413913Y410885D01*
X413460Y411630D01*
X413071Y412310D01*
X412877Y412601D01*
X412715Y412860D01*
X412585Y413087D01*
X412456Y413281D01*
X412326Y413443D01*
X412261Y413540D01*
X412197Y413605D01*
Y413638D01*
X411646Y414415D01*
X411096Y415127D01*
X410577Y415775D01*
X410059Y416390D01*
X409638Y416876D01*
X409476Y417070D01*
X409314Y417232D01*
X409185Y417362D01*
X409088Y417459D01*
X409055Y417524D01*
X409023Y417556D01*
X408472Y418139D01*
X407954Y418657D01*
X407436Y419143D01*
X406950Y419564D01*
X406529Y419920D01*
X406238Y420179D01*
X406108Y420276D01*
X406011Y420341D01*
X405979Y420406D01*
X405946D01*
X405331Y420827D01*
X404683Y421216D01*
X404068Y421539D01*
X403517Y421831D01*
X403032Y422058D01*
X402805Y422155D01*
X402643Y422220D01*
X402481Y422284D01*
X402384Y422317D01*
X402319Y422349D01*
X402287D01*
X401898Y422479D01*
X401510Y422576D01*
X401380Y422608D01*
X401250Y422641D01*
X401153D01*
X400700Y422705D01*
X400311Y422770D01*
X399923D01*
X399502Y422705D01*
X399178Y422608D01*
X399081Y422543D01*
X398983Y422511D01*
X398951Y422446D01*
X398919D01*
X398757Y422284D01*
X398627Y422122D01*
X398563Y421928D01*
X398498Y421766D01*
X398465Y421604D01*
X398433Y421475D01*
Y421378D01*
Y421345D01*
Y420924D01*
X398498Y420503D01*
X398627Y420115D01*
X398789Y419726D01*
X398951Y419435D01*
X399081Y419208D01*
X399210Y419046D01*
X399243Y418981D01*
X399566Y418560D01*
X399923Y418236D01*
X400279Y417977D01*
X400603Y417815D01*
X400862Y417686D01*
X401088Y417621D01*
X401218Y417556D01*
X401283D01*
X401639Y417524D01*
X401898D01*
X402092Y417556D01*
X402157D01*
X402287Y417621D01*
X402416Y417718D01*
X402546Y417977D01*
X402611Y418139D01*
Y418236D01*
X402643Y418333D01*
Y418366D01*
X402675Y418625D01*
X402740Y418819D01*
X402837Y418981D01*
X402934Y419078D01*
X403032Y419143D01*
X403129Y419175D01*
X403194D01*
X403550Y419208D01*
X403874Y419175D01*
X404003Y419143D01*
X404100D01*
X404165Y419111D01*
X404198D01*
X404392Y419013D01*
X404554Y418916D01*
X404813Y418657D01*
X404942Y418463D01*
X405007Y418398D01*
Y418366D01*
X405104Y418172D01*
X405137Y417977D01*
Y417783D01*
X405104Y417621D01*
X405072Y417491D01*
X405039Y417394D01*
X405007Y417329D01*
Y417297D01*
X404813Y416973D01*
X404618Y416714D01*
X404392Y416487D01*
X404198Y416325D01*
X404035Y416164D01*
X403906Y416066D01*
X403809Y416034D01*
X403777Y416002D01*
X403517Y415840D01*
X403226Y415710D01*
X402967Y415645D01*
X402675Y415581D01*
X402449Y415548D01*
X402254Y415516D01*
X401607D01*
X401121Y415581D01*
X400667Y415678D01*
X400247Y415775D01*
X399469Y416099D01*
X398822Y416455D01*
X398563Y416617D01*
X398303Y416811D01*
X398109Y416973D01*
X397947Y417135D01*
X397818Y417232D01*
X397688Y417329D01*
X397656Y417394D01*
X397623Y417427D01*
X397040Y418172D01*
X396555Y418884D01*
X396166Y419532D01*
X395874Y420082D01*
X395680Y420568D01*
X395615Y420762D01*
X395551Y420924D01*
X395518Y421054D01*
X395486Y421151D01*
X395453Y421183D01*
Y421216D01*
X395421Y421604D01*
Y421960D01*
X395486Y422284D01*
X395551Y422576D01*
X395648Y422803D01*
X395713Y422964D01*
X395777Y423094D01*
X395810Y423126D01*
X396036Y423418D01*
X396296Y423677D01*
X396555Y423839D01*
X396846Y424001D01*
X397105Y424098D01*
X397299Y424163D01*
X397429Y424195D01*
X397494D01*
X398336Y424292D01*
X398724Y424325D01*
X399113Y424389D01*
X399404Y424422D01*
X399631D01*
X399793Y424454D01*
X399858D01*
X400311Y424487D01*
X400732Y424519D01*
X401121Y424487D01*
D02*
G37*
G36*
X385155Y416002D02*
X385382Y415872D01*
X385576Y415775D01*
X385738Y415710D01*
X385868Y415645D01*
X385932Y415581D01*
X385965D01*
X386418Y415386D01*
X386774Y415192D01*
X386936Y415095D01*
X387033Y415030D01*
X387098Y414998D01*
X387131Y414965D01*
X387843Y414609D01*
X388523Y414253D01*
X389171Y413897D01*
X389754Y413605D01*
X390272Y413378D01*
X390466Y413281D01*
X390661Y413184D01*
X390790Y413119D01*
X390887Y413055D01*
X390952Y413022D01*
X390984D01*
X391697Y412698D01*
X392442Y412472D01*
X393154Y412277D01*
X393802Y412180D01*
X394352Y412116D01*
X394612Y412083D01*
X394806D01*
X394968Y412051D01*
X395194D01*
X395421Y412018D01*
X395615Y411986D01*
X395745Y411889D01*
X395842Y411792D01*
X395972Y411630D01*
X396004Y411565D01*
Y411533D01*
X396036Y411338D01*
Y411176D01*
X396004Y411014D01*
X395939Y410852D01*
X395842Y410755D01*
X395777Y410658D01*
X395745Y410593D01*
X395713Y410561D01*
X395453Y410367D01*
X395194Y410237D01*
X394968Y410140D01*
X394935Y410108D01*
X394903D01*
X394612Y409978D01*
X394320Y409881D01*
X394093Y409816D01*
X394029D01*
X393769Y409751D01*
X392150D01*
X392539Y409039D01*
X392701Y408715D01*
X392830Y408424D01*
X392960Y408197D01*
X393057Y408035D01*
X393122Y407905D01*
X393154Y407873D01*
X393510Y407225D01*
X393640Y406902D01*
X393769Y406642D01*
X393867Y406416D01*
X393964Y406254D01*
X393996Y406124D01*
X394029Y406092D01*
X394288Y405476D01*
X394385Y405185D01*
X394482Y404926D01*
X394547Y404699D01*
X394612Y404537D01*
X394644Y404440D01*
Y404408D01*
X394871Y403792D01*
X394935Y403533D01*
X395000Y403274D01*
X395065Y403048D01*
X395097Y402886D01*
X395130Y402756D01*
Y402724D01*
X395162Y402238D01*
Y401817D01*
X395130Y401428D01*
X395065Y401072D01*
X394968Y400781D01*
X394903Y400586D01*
X394871Y400424D01*
X394838Y400392D01*
X394612Y400068D01*
X394385Y399777D01*
X394126Y399550D01*
X393899Y399388D01*
X393672Y399226D01*
X393510Y399129D01*
X393381Y399097D01*
X393349Y399064D01*
X392992Y398935D01*
X392636Y398838D01*
X392280Y398741D01*
X391988Y398708D01*
X391697Y398676D01*
X391502Y398643D01*
X391308D01*
X390920Y398676D01*
X390596Y398708D01*
X390239Y398773D01*
X389948Y398870D01*
X389721Y398935D01*
X389527Y398999D01*
X389398Y399032D01*
X389365Y399064D01*
X388685Y399421D01*
X388070Y399777D01*
X387552Y400133D01*
X387066Y400489D01*
X386677Y400781D01*
X386386Y401007D01*
X386224Y401169D01*
X386159Y401234D01*
X385641Y401752D01*
X385155Y402270D01*
X384734Y402756D01*
X384346Y403210D01*
X384022Y403631D01*
X383795Y403922D01*
X383698Y404052D01*
X383665Y404149D01*
X383601Y404181D01*
Y404213D01*
X383471Y404408D01*
X383374Y404602D01*
X383341Y404732D01*
X383309Y404796D01*
Y404958D01*
X383341Y405120D01*
X383536Y405379D01*
X383698Y405574D01*
X383763Y405606D01*
X383795Y405639D01*
X384054Y405379D01*
X384281Y405185D01*
X384410Y405056D01*
X384475Y405023D01*
X384702Y404796D01*
X384928Y404602D01*
X385090Y404473D01*
X385123Y404408D01*
X385155D01*
X385803Y403857D01*
X386094Y403598D01*
X386353Y403339D01*
X386580Y403145D01*
X386742Y402983D01*
X386871Y402886D01*
X386904Y402853D01*
X387552Y402270D01*
X387875Y402011D01*
X388134Y401785D01*
X388361Y401590D01*
X388523Y401428D01*
X388653Y401331D01*
X388685Y401299D01*
X389074Y401007D01*
X389430Y400813D01*
X389559Y400716D01*
X389657Y400651D01*
X389721Y400619D01*
X389754D01*
X389980Y400522D01*
X390239Y400489D01*
X390466D01*
X390661Y400522D01*
X390855Y400554D01*
X390984Y400619D01*
X391082Y400651D01*
X391114Y400684D01*
X391276Y400813D01*
X391405Y400975D01*
X391470Y401137D01*
X391535Y401299D01*
X391567Y401461D01*
X391600Y401590D01*
Y401655D01*
Y401688D01*
X391567Y401947D01*
X391535Y402238D01*
X391373Y402756D01*
X391308Y402983D01*
X391244Y403145D01*
X391211Y403274D01*
X391179Y403307D01*
X391017Y403695D01*
X390887Y404019D01*
X390822Y404149D01*
X390758Y404246D01*
X390725Y404311D01*
Y404343D01*
X390563Y404732D01*
X390401Y405056D01*
X390337Y405185D01*
X390272Y405282D01*
X390239Y405315D01*
Y405347D01*
X389980Y405833D01*
X389754Y406286D01*
X389495Y406707D01*
X389300Y407096D01*
X389138Y407420D01*
X389009Y407646D01*
X388912Y407808D01*
X388879Y407873D01*
X388394Y408780D01*
X388167Y409201D01*
X387973Y409557D01*
X387811Y409881D01*
X387681Y410140D01*
X387616Y410302D01*
X387584Y410367D01*
X387293Y410885D01*
X387033Y411403D01*
X386807Y411889D01*
X386580Y412342D01*
X386418Y412698D01*
X386289Y412957D01*
X386191Y413152D01*
X386159Y413217D01*
X385608Y414285D01*
X385349Y414803D01*
X385090Y415289D01*
X384896Y415678D01*
X384734Y416002D01*
X384669Y416099D01*
X384637Y416196D01*
X384604Y416228D01*
Y416261D01*
X385155Y416002D01*
D02*
G37*
G36*
X370841Y415969D02*
X371068Y415937D01*
X371197Y415905D01*
X371262Y415872D01*
X372331Y415160D01*
X372816Y414836D01*
X373237Y414512D01*
X373626Y414253D01*
X373918Y414059D01*
X374112Y413929D01*
X374144Y413897D01*
X374177D01*
X374695Y413540D01*
X375213Y413184D01*
X375699Y412860D01*
X376120Y412569D01*
X376508Y412310D01*
X376767Y412083D01*
X376962Y411954D01*
X376994Y411921D01*
X377026D01*
X377059Y411889D01*
Y411856D01*
X377026Y411824D01*
Y411792D01*
Y411597D01*
Y411500D01*
Y411468D01*
X376670Y411533D01*
X376314Y411565D01*
X376184D01*
X376087Y411597D01*
X375569D01*
X375181Y411630D01*
X375019D01*
X374889Y411662D01*
X374792D01*
X374921Y411338D01*
X375051Y411079D01*
X375148Y410917D01*
X375181Y410852D01*
X375278Y410593D01*
X375407Y410367D01*
X375504Y410237D01*
X375537Y410172D01*
X375763Y409719D01*
X375958Y409298D01*
X376152Y408877D01*
X376346Y408521D01*
X376476Y408229D01*
X376573Y408003D01*
X376638Y407873D01*
X376670Y407808D01*
X377124Y406934D01*
X377318Y406545D01*
X377512Y406189D01*
X377674Y405865D01*
X377804Y405639D01*
X377868Y405476D01*
X377901Y405412D01*
X378192Y404764D01*
X378289Y404440D01*
X378387Y404181D01*
X378484Y403954D01*
X378549Y403760D01*
X378581Y403631D01*
Y403598D01*
X378678Y402886D01*
Y402562D01*
Y402238D01*
Y401979D01*
X378646Y401785D01*
Y401655D01*
Y401623D01*
X378581Y401169D01*
X378484Y400781D01*
X378387Y400457D01*
X378289Y400198D01*
X378192Y400004D01*
X378095Y399841D01*
X378063Y399777D01*
X378030Y399744D01*
X377836Y399518D01*
X377577Y399356D01*
X377026Y399064D01*
X376767Y398967D01*
X376541Y398902D01*
X376411Y398838D01*
X376346D01*
X375472Y398708D01*
X374662Y398643D01*
X373918D01*
X373270Y398708D01*
X372978Y398741D01*
X372719Y398805D01*
X372492Y398838D01*
X372298Y398870D01*
X372136Y398902D01*
X372039Y398935D01*
X371974Y398967D01*
X371942D01*
X371165Y399226D01*
X370452Y399582D01*
X369805Y399939D01*
X369222Y400295D01*
X368736Y400619D01*
X368542Y400748D01*
X368380Y400878D01*
X368250Y400975D01*
X368153Y401072D01*
X368121Y401105D01*
X368088Y401137D01*
X367473Y401688D01*
X367181Y401947D01*
X366955Y402173D01*
X366728Y402400D01*
X366566Y402562D01*
X366469Y402691D01*
X366437Y402724D01*
X365886Y403339D01*
X365627Y403598D01*
X365400Y403857D01*
X365206Y404084D01*
X365076Y404246D01*
X364979Y404375D01*
X364947Y404408D01*
X364655Y404732D01*
X364364Y404926D01*
X364137Y405056D01*
X364105Y405088D01*
X364072D01*
X363684Y405185D01*
X362971D01*
X362874Y405153D01*
X362842D01*
X362388Y405088D01*
X361611D01*
X361287Y405153D01*
X360996Y405218D01*
X360802Y405282D01*
X360640Y405315D01*
X360607Y405347D01*
X360219Y405541D01*
X359862Y405800D01*
X359538Y406059D01*
X359280Y406319D01*
X359053Y406545D01*
X358858Y406740D01*
X358761Y406869D01*
X358729Y406902D01*
X359085Y406999D01*
X359409Y407031D01*
X359733D01*
X360024Y406999D01*
X360251Y406966D01*
X360445Y406934D01*
X360575Y406902D01*
X360607D01*
X360964Y406837D01*
X361287D01*
X361611Y406902D01*
X361870Y406999D01*
X362065Y407096D01*
X362259Y407225D01*
X362356Y407290D01*
X362388Y407323D01*
X362194Y407873D01*
X362097Y408132D01*
X362000Y408359D01*
X361935Y408553D01*
X361870Y408683D01*
X361838Y408780D01*
Y408812D01*
X361644Y409330D01*
X361482Y409784D01*
X361449Y409978D01*
X361385Y410108D01*
X361352Y410205D01*
Y410237D01*
X361223Y410788D01*
X361158Y411047D01*
X361125Y411273D01*
X361093Y411468D01*
X361061Y411597D01*
X361028Y411694D01*
Y411727D01*
X360964Y412277D01*
X360931Y412537D01*
X360899Y412763D01*
Y412957D01*
Y413087D01*
Y413184D01*
Y413217D01*
Y413767D01*
Y413994D01*
X360931Y414221D01*
X360964Y414382D01*
X360996Y414512D01*
X361028Y414609D01*
Y414641D01*
X361158Y414868D01*
X361287Y415062D01*
X361611Y415386D01*
X361773Y415484D01*
X361903Y415581D01*
X362000Y415613D01*
X362032Y415645D01*
X362291Y415743D01*
X362518Y415775D01*
X362745D01*
X362939Y415743D01*
X363101Y415710D01*
X363230Y415678D01*
X363295Y415645D01*
X363328D01*
X363716Y415419D01*
X364072Y415224D01*
X364234Y415127D01*
X364332Y415030D01*
X364396Y414998D01*
X364429Y414965D01*
X365012Y414480D01*
X365465Y413961D01*
X365821Y413476D01*
X366080Y412990D01*
X366275Y412601D01*
X366404Y412277D01*
X366469Y412148D01*
Y412051D01*
X366501Y412018D01*
Y411986D01*
X366631Y411338D01*
X366663Y410723D01*
Y410108D01*
X366631Y409557D01*
X366566Y409071D01*
X366501Y408715D01*
X366469Y408586D01*
Y408488D01*
X366437Y408424D01*
Y408391D01*
X366372Y407970D01*
X366307Y407614D01*
Y407452D01*
Y407355D01*
Y407290D01*
Y407258D01*
X366339Y407063D01*
X366372Y406902D01*
X366501Y406545D01*
X366599Y406416D01*
X366663Y406319D01*
X366696Y406254D01*
X366728Y406221D01*
X367246Y405574D01*
X367797Y404991D01*
X368315Y404473D01*
X368801Y404019D01*
X369222Y403631D01*
X369546Y403339D01*
X369675Y403242D01*
X369772Y403177D01*
X369805Y403145D01*
X369837Y403112D01*
X370485Y402594D01*
X371132Y402141D01*
X371715Y401688D01*
X372266Y401299D01*
X372719Y400975D01*
X373075Y400716D01*
X373205Y400619D01*
X373270Y400554D01*
X373335Y400489D01*
X373367D01*
X373399Y400424D01*
X373432Y400392D01*
X373529Y400360D01*
X373561Y400327D01*
X373788Y400295D01*
X373982Y400262D01*
X374306Y400327D01*
X374403Y400392D01*
X374500Y400424D01*
X374533Y400489D01*
X374565D01*
X374727Y400619D01*
X374824Y400748D01*
X374921Y400910D01*
X374954Y401105D01*
X374986Y401234D01*
Y401364D01*
Y401461D01*
Y401493D01*
Y401688D01*
X374954Y401914D01*
X374921Y402044D01*
Y402108D01*
X374857Y402368D01*
X374824Y402562D01*
X374792Y402724D01*
Y402789D01*
X374436Y403631D01*
X374274Y404019D01*
X374112Y404375D01*
X374015Y404667D01*
X373918Y404894D01*
X373853Y405023D01*
X373820Y405088D01*
X373658Y405541D01*
X373464Y405962D01*
X373302Y406383D01*
X373140Y406740D01*
X373011Y407031D01*
X372914Y407258D01*
X372849Y407387D01*
X372816Y407452D01*
X372525Y408100D01*
X372234Y408747D01*
X371942Y409330D01*
X371715Y409881D01*
X371489Y410334D01*
X371327Y410690D01*
X371262Y410820D01*
X371230Y410917D01*
X371197Y410950D01*
Y410982D01*
X370906Y411630D01*
X370614Y412277D01*
X370355Y412860D01*
X370128Y413411D01*
X369934Y413864D01*
X369772Y414221D01*
X369707Y414350D01*
X369675Y414447D01*
X369643Y414480D01*
Y414512D01*
X369610Y414739D01*
Y414965D01*
X369643Y415127D01*
Y415160D01*
Y415192D01*
X369707Y415484D01*
X369805Y415645D01*
X369869Y415743D01*
X369902Y415775D01*
X370064Y415905D01*
X370290Y415969D01*
X370452Y416002D01*
X370517D01*
X370841Y415969D01*
D02*
G37*
G36*
X401445Y392652D02*
X401931Y392587D01*
X402384Y392490D01*
X402772Y392393D01*
X403096Y392296D01*
X403355Y392199D01*
X403517Y392166D01*
X403582Y392134D01*
X404035Y391940D01*
X404456Y391680D01*
X404813Y391421D01*
X405169Y391162D01*
X405428Y390936D01*
X405655Y390741D01*
X405784Y390612D01*
X405817Y390579D01*
X406076Y390256D01*
X406302Y389996D01*
X406432Y389770D01*
X406497Y389737D01*
Y389705D01*
X406724Y389349D01*
X406918Y388993D01*
X406950Y388863D01*
X407015Y388766D01*
X407047Y388701D01*
Y388669D01*
X407145Y388312D01*
X407209Y387989D01*
X407242Y387859D01*
Y387762D01*
Y387697D01*
Y387665D01*
Y387471D01*
X407177Y387309D01*
X407080Y387179D01*
X406983Y387049D01*
X406788Y386920D01*
X406724Y386855D01*
X406464D01*
X406205Y386920D01*
X406011Y387017D01*
X405979Y387049D01*
X405946D01*
X405622Y387211D01*
X405363Y387373D01*
X405201Y387503D01*
X405137Y387535D01*
X404942Y387665D01*
X404813Y387794D01*
X404716Y387892D01*
X404683Y387924D01*
X404521Y388118D01*
X404359Y388280D01*
X404230Y388377D01*
X404198Y388410D01*
X403938Y388539D01*
X403744Y388636D01*
X403582Y388701D01*
X403517Y388733D01*
X403258Y388863D01*
X403064Y388960D01*
X402902Y389025D01*
X402837D01*
X402611Y389057D01*
X402449D01*
X402157Y389025D01*
X402028Y388928D01*
X401963Y388895D01*
X401866Y388766D01*
X401769Y388604D01*
X401736Y388442D01*
Y388280D01*
Y388151D01*
Y388021D01*
X401769Y387956D01*
Y387924D01*
X401866Y387697D01*
X401963Y387471D01*
X402060Y387309D01*
X402092Y387276D01*
Y387244D01*
X402254Y387017D01*
X402384Y386823D01*
X402481Y386693D01*
X402513Y386661D01*
X402967Y386045D01*
X403194Y385754D01*
X403388Y385527D01*
X403550Y385301D01*
X403679Y385139D01*
X403744Y385042D01*
X403777Y385009D01*
X404262Y384426D01*
X404456Y384135D01*
X404651Y383908D01*
X404780Y383681D01*
X404910Y383520D01*
X404975Y383422D01*
X405007Y383390D01*
X405428Y382775D01*
X405849Y382159D01*
X406238Y381576D01*
X406594Y381091D01*
X406885Y380637D01*
X407112Y380313D01*
X407209Y380184D01*
X407242Y380087D01*
X407306Y380054D01*
Y380022D01*
X407727Y379407D01*
X408148Y378791D01*
X408505Y378208D01*
X408829Y377690D01*
X409088Y377269D01*
X409314Y376913D01*
X409379Y376783D01*
X409444Y376686D01*
X409476Y376654D01*
Y376622D01*
X409800Y376006D01*
X410059Y375423D01*
X410286Y374840D01*
X410480Y374322D01*
X410642Y373869D01*
X410739Y373512D01*
X410772Y373383D01*
X410804Y373286D01*
X410836Y373254D01*
Y373221D01*
X410998Y372606D01*
X411160Y371990D01*
X411290Y371408D01*
X411387Y370922D01*
X411484Y370468D01*
X411516Y370145D01*
X411549Y370015D01*
X411581Y369918D01*
Y369885D01*
Y369853D01*
X411549Y369302D01*
X411484Y368817D01*
X411354Y368331D01*
X411225Y367878D01*
X411063Y367457D01*
X410901Y367100D01*
X410739Y366744D01*
X410545Y366453D01*
X410351Y366161D01*
X410156Y365934D01*
X409994Y365708D01*
X409865Y365546D01*
X409735Y365416D01*
X409638Y365319D01*
X409573Y365287D01*
X409541Y365254D01*
X409152Y364995D01*
X408731Y364833D01*
X408310Y364704D01*
X407889Y364639D01*
X407468Y364607D01*
X407015Y364639D01*
X406626Y364704D01*
X406205Y364801D01*
X405849Y364898D01*
X405493Y364995D01*
X405169Y365125D01*
X404910Y365222D01*
X404683Y365319D01*
X404521Y365416D01*
X404424Y365449D01*
X404392Y365481D01*
X403777Y365837D01*
X403194Y366226D01*
X402675Y366614D01*
X402222Y366971D01*
X401866Y367295D01*
X401574Y367521D01*
X401412Y367683D01*
X401348Y367748D01*
X400829Y368266D01*
X400311Y368752D01*
X399858Y369238D01*
X399437Y369659D01*
X399113Y370015D01*
X398854Y370306D01*
X398692Y370468D01*
X398627Y370533D01*
X398400Y370825D01*
X398239Y371116D01*
X398142Y371343D01*
X398109Y371375D01*
Y371408D01*
X398077Y371569D01*
Y371731D01*
X398142Y371893D01*
X398206Y372055D01*
X398271Y372185D01*
X398368Y372249D01*
X398400Y372314D01*
X398433Y372347D01*
X398627Y372509D01*
X398789Y372606D01*
X398983Y372671D01*
X399145Y372703D01*
X399372D01*
X399437Y372671D01*
X399469D01*
X399858Y372541D01*
X400149Y372379D01*
X400279Y372282D01*
X400376Y372217D01*
X400441Y372185D01*
X400473Y372152D01*
X400765Y371828D01*
X401024Y371569D01*
X401218Y371343D01*
X401250Y371310D01*
X401283Y371278D01*
X401607Y370954D01*
X401866Y370663D01*
X401963Y370533D01*
X402028Y370468D01*
X402092Y370404D01*
Y370371D01*
X402675Y369756D01*
X402967Y369464D01*
X403194Y369238D01*
X403420Y369043D01*
X403582Y368881D01*
X403679Y368784D01*
X403712Y368752D01*
X404035Y368493D01*
X404359Y368266D01*
X404683Y368104D01*
X405007Y367975D01*
X405266Y367878D01*
X405493Y367813D01*
X405622Y367748D01*
X405687D01*
X406043Y367683D01*
X406335Y367651D01*
X406594D01*
X406821Y367683D01*
X406983Y367716D01*
X407080Y367748D01*
X407145Y367813D01*
X407177D01*
X407339Y367975D01*
X407468Y368201D01*
X407565Y368428D01*
X407598Y368655D01*
Y368849D01*
Y369011D01*
Y369141D01*
Y369173D01*
X407468Y369821D01*
X407404Y370080D01*
X407371Y370339D01*
X407306Y370565D01*
X407274Y370727D01*
X407242Y370825D01*
Y370857D01*
X407015Y371440D01*
X406918Y371699D01*
X406788Y371926D01*
X406724Y372120D01*
X406626Y372282D01*
X406594Y372379D01*
X406562Y372411D01*
X405914Y373642D01*
X405266Y374808D01*
X404618Y375909D01*
X404359Y376427D01*
X404068Y376881D01*
X403809Y377334D01*
X403582Y377723D01*
X403388Y378079D01*
X403226Y378370D01*
X403096Y378597D01*
X402999Y378791D01*
X402934Y378888D01*
X402902Y378921D01*
X402190Y380119D01*
X401542Y381253D01*
X400894Y382354D01*
X400603Y382872D01*
X400344Y383325D01*
X400085Y383779D01*
X399858Y384167D01*
X399664Y384523D01*
X399502Y384815D01*
X399372Y385042D01*
X399275Y385236D01*
X399210Y385333D01*
X399178Y385365D01*
X398886Y385916D01*
X398757Y386175D01*
X398627Y386402D01*
X398530Y386596D01*
X398433Y386726D01*
X398400Y386823D01*
X398368Y386855D01*
X398077Y387406D01*
X397980Y387665D01*
X397882Y387924D01*
X397785Y388118D01*
X397720Y388280D01*
X397688Y388377D01*
Y388410D01*
X397591Y388766D01*
X397494Y389090D01*
X397429Y389705D01*
X397461Y390223D01*
X397559Y390677D01*
X397688Y391033D01*
X397818Y391292D01*
X397915Y391454D01*
X397947Y391519D01*
X398336Y391907D01*
X398789Y392231D01*
X399307Y392425D01*
X399793Y392555D01*
X400247Y392652D01*
X400603Y392685D01*
X400959D01*
X401445Y392652D01*
D02*
G37*
G36*
X291401Y391259D02*
X292016Y390839D01*
X292566Y390418D01*
X293052Y390061D01*
X293473Y389770D01*
X293797Y389543D01*
X293894Y389446D01*
X293991Y389414D01*
X294024Y389349D01*
X294056D01*
X294639Y388928D01*
X295190Y388507D01*
X295740Y388118D01*
X296194Y387762D01*
X296614Y387471D01*
X296938Y387244D01*
X297036Y387179D01*
X297133Y387114D01*
X297165Y387049D01*
X297197D01*
X296809Y386920D01*
X296517Y386855D01*
X296388Y386823D01*
X296291Y386790D01*
X296226D01*
X295934Y386693D01*
X295643Y386596D01*
X295416Y386531D01*
X295384Y386499D01*
X295352D01*
X295772Y385981D01*
X295967Y385754D01*
X296129Y385560D01*
X296258Y385398D01*
X296355Y385268D01*
X296420Y385204D01*
X296453Y385171D01*
X296841Y384685D01*
X297133Y384264D01*
X297262Y384102D01*
X297359Y383973D01*
X297424Y383908D01*
X297456Y383876D01*
X297359Y383811D01*
X297327D01*
X297295Y383714D01*
X297262Y383681D01*
X296614Y384070D01*
X295999Y384426D01*
X295416Y384750D01*
X294898Y385074D01*
X294445Y385333D01*
X294088Y385527D01*
X293959Y385592D01*
X293862Y385657D01*
X293829Y385689D01*
X293797D01*
X292502Y386466D01*
X291886Y386823D01*
X291336Y387147D01*
X290850Y387406D01*
X290656Y387503D01*
X290461Y387600D01*
X290332Y387697D01*
X290235Y387762D01*
X290170Y387794D01*
X290138D01*
X290591Y387892D01*
X290947Y387956D01*
X291077D01*
X291174Y387989D01*
X291271D01*
X291595Y388086D01*
X291919Y388151D01*
X292048Y388183D01*
X292145Y388215D01*
X292243D01*
X291951Y388863D01*
X291821Y389122D01*
X291724Y389381D01*
X291627Y389608D01*
X291562Y389770D01*
X291498Y389867D01*
Y389899D01*
X291239Y390515D01*
X291109Y390839D01*
X290979Y391130D01*
X290882Y391389D01*
X290818Y391583D01*
X290785Y391713D01*
X290753Y391745D01*
X291401Y391259D01*
D02*
G37*
G36*
X320094Y381803D02*
X320191Y381771D01*
X320256Y381738D01*
X320288Y381706D01*
X320418Y381609D01*
X320515Y381512D01*
X320547Y381447D01*
X320579Y381414D01*
X321065Y380929D01*
X321551Y380475D01*
X322069Y380087D01*
X322523Y379730D01*
X322911Y379471D01*
X323203Y379277D01*
X323332Y379212D01*
X323429Y379147D01*
X323462Y379115D01*
X323494D01*
X324109Y378824D01*
X324692Y378532D01*
X325243Y378241D01*
X325729Y378014D01*
X326150Y377787D01*
X326441Y377625D01*
X326571Y377593D01*
X326668Y377528D01*
X326700Y377496D01*
X326732D01*
X326862Y377431D01*
X326959Y377366D01*
X327024Y377334D01*
X327056Y377302D01*
X327251Y377172D01*
X327315Y377107D01*
X327348D01*
X327315Y376978D01*
X327283Y376945D01*
Y376848D01*
Y376816D01*
X326538Y377010D01*
X326182Y377107D01*
X325858Y377172D01*
X325599Y377237D01*
X325405Y377269D01*
X325275Y377302D01*
X325243D01*
X324887Y377399D01*
X324498Y377496D01*
X324109Y377593D01*
X323786Y377690D01*
X323462Y377755D01*
X323235Y377820D01*
X323073Y377852D01*
X323008D01*
X323721Y376622D01*
X324401Y375423D01*
X325048Y374355D01*
X325308Y373836D01*
X325567Y373383D01*
X325826Y372962D01*
X326020Y372573D01*
X326214Y372217D01*
X326376Y371958D01*
X326506Y371731D01*
X326603Y371537D01*
X326635Y371440D01*
X326668Y371408D01*
X327315Y370242D01*
X327898Y369076D01*
X328449Y368007D01*
X328676Y367521D01*
X328902Y367068D01*
X329129Y366614D01*
X329291Y366226D01*
X329453Y365902D01*
X329582Y365611D01*
X329712Y365384D01*
X329777Y365190D01*
X329809Y365092D01*
X329841Y365060D01*
X329421Y365028D01*
X329064Y364995D01*
X328125D01*
X327898Y365028D01*
X327477Y365060D01*
X327186Y365092D01*
X326992Y365157D01*
X326894Y365190D01*
X326862D01*
X326732Y365254D01*
X326571Y365351D01*
X326311Y365643D01*
X326053Y365967D01*
X325826Y366323D01*
X325631Y366679D01*
X325502Y366971D01*
X325405Y367197D01*
X325372Y367230D01*
Y367262D01*
X324789Y368525D01*
X324142Y369691D01*
X323818Y370209D01*
X323462Y370727D01*
X323170Y371181D01*
X322846Y371602D01*
X322555Y371990D01*
X322296Y372347D01*
X322069Y372638D01*
X321842Y372897D01*
X321680Y373092D01*
X321551Y373221D01*
X321486Y373318D01*
X321454Y373351D01*
X320515Y374290D01*
X319543Y375164D01*
X318604Y375941D01*
X317729Y376654D01*
X317341Y376945D01*
X316985Y377204D01*
X316693Y377431D01*
X316402Y377625D01*
X316175Y377787D01*
X316013Y377884D01*
X315916Y377949D01*
X315884Y377982D01*
X315527Y378176D01*
X315203Y378338D01*
X315074Y378370D01*
X314977Y378403D01*
X314912Y378435D01*
X314880D01*
X314459Y378597D01*
X314135Y378727D01*
X313973Y378791D01*
X313876Y378824D01*
X313811Y378856D01*
X313778D01*
X313487Y378921D01*
X313228D01*
X313034Y378888D01*
X313001Y378856D01*
X312969D01*
X312839Y378791D01*
X312710Y378694D01*
X312516Y378500D01*
X312386Y378306D01*
X312354Y378273D01*
Y378241D01*
X312289Y378014D01*
X312224Y377820D01*
Y377625D01*
Y377593D01*
Y377561D01*
X312256Y377302D01*
X312289Y377075D01*
X312321Y376945D01*
X312354Y376881D01*
X312418Y376719D01*
X312483Y376589D01*
X312580Y376524D01*
X312677Y376492D01*
X312904D01*
X313163Y376557D01*
X313422Y376589D01*
X313584Y376622D01*
X314297D01*
X314556Y376589D01*
X314783Y376557D01*
X314944Y376492D01*
X315106Y376460D01*
X315171Y376427D01*
X315203D01*
X315398Y376298D01*
X315560Y376136D01*
X315657Y375974D01*
X315754Y375812D01*
X315786Y375682D01*
X315819Y375553D01*
Y375488D01*
Y375456D01*
Y375197D01*
X315754Y374938D01*
X315689Y374743D01*
X315592Y374549D01*
X315495Y374387D01*
X315430Y374290D01*
X315365Y374225D01*
X315333Y374193D01*
X315106Y373998D01*
X314880Y373869D01*
X314653Y373739D01*
X314426Y373642D01*
X314232Y373577D01*
X314070Y373545D01*
X313941Y373512D01*
X313260D01*
X313001Y373577D01*
X312807Y373610D01*
X312677Y373642D01*
X312645D01*
X312192Y373836D01*
X311771Y374063D01*
X311382Y374290D01*
X311058Y374581D01*
X310832Y374808D01*
X310637Y375002D01*
X310508Y375132D01*
X310475Y375197D01*
X310184Y375618D01*
X309957Y376071D01*
X309795Y376460D01*
X309666Y376848D01*
X309569Y377172D01*
X309536Y377399D01*
X309504Y377561D01*
Y377625D01*
Y378046D01*
X309536Y378403D01*
X309633Y378759D01*
X309730Y379018D01*
X309828Y379245D01*
X309892Y379407D01*
X309957Y379504D01*
X309989Y379536D01*
X310216Y379795D01*
X310475Y379990D01*
X310767Y380151D01*
X311026Y380281D01*
X311285Y380378D01*
X311479Y380443D01*
X311609Y380475D01*
X311674D01*
X312127Y380508D01*
X312548Y380540D01*
X312969D01*
X313455Y380508D01*
X313876Y380475D01*
X314038Y380443D01*
X314167D01*
X314232Y380410D01*
X314264D01*
X314783Y380216D01*
X315301Y380054D01*
X315786Y379892D01*
X316175Y379730D01*
X316531Y379601D01*
X316823Y379504D01*
X316985Y379439D01*
X317049Y379407D01*
X318053Y378953D01*
X318539Y378759D01*
X318960Y378597D01*
X319316Y378435D01*
X319576Y378338D01*
X319770Y378273D01*
X319802Y378241D01*
X319834D01*
X319640Y378727D01*
X319446Y379115D01*
X319381Y379277D01*
X319316Y379374D01*
X319284Y379439D01*
Y379471D01*
X319057Y379925D01*
X318863Y380313D01*
X318798Y380443D01*
X318766Y380573D01*
X318733Y380637D01*
Y380670D01*
X318701Y380864D01*
Y381026D01*
X318733Y381155D01*
Y381220D01*
X318798Y381447D01*
X318863Y381609D01*
X318895Y381674D01*
X318928Y381706D01*
X319057Y381771D01*
X319219Y381836D01*
X319964D01*
X320094Y381803D01*
D02*
G37*
G36*
X294088Y382580D02*
X294445Y382483D01*
X294607Y382451D01*
X294704Y382418D01*
X294769Y382386D01*
X294801D01*
X295157Y382224D01*
X295481Y382062D01*
X295578Y381997D01*
X295675Y381933D01*
X295740Y381900D01*
X295772D01*
X296517Y381512D01*
X297230Y381123D01*
X297910Y380767D01*
X298525Y380443D01*
X299011Y380184D01*
X299238Y380054D01*
X299400Y379990D01*
X299562Y379892D01*
X299659Y379828D01*
X299723Y379795D01*
X299756D01*
X300533Y379471D01*
X301310Y379212D01*
X302055Y379050D01*
X302735Y378953D01*
X303318Y378888D01*
X303545D01*
X303772Y378856D01*
X304160D01*
X304354Y378824D01*
X304516Y378759D01*
X304646Y378694D01*
X304711Y378662D01*
X304873Y378500D01*
X304970Y378370D01*
X305035Y378273D01*
Y378241D01*
Y378046D01*
Y377852D01*
X305002Y377690D01*
X304970Y377658D01*
Y377625D01*
X304905Y377399D01*
X304808Y377237D01*
X304743Y377140D01*
X304711Y377107D01*
X304419Y376945D01*
X304160Y376816D01*
X303966Y376719D01*
X303934Y376686D01*
X303901D01*
X303545Y376589D01*
X303221Y376557D01*
X303124Y376524D01*
X303027Y376492D01*
X302930D01*
X302670Y376427D01*
X302411Y376395D01*
X302185Y376427D01*
X301116D01*
X301310Y376039D01*
X301505Y375650D01*
X301667Y375294D01*
X301828Y375002D01*
X301958Y374743D01*
X302055Y374549D01*
X302088Y374419D01*
X302120Y374387D01*
X302509Y373642D01*
X302703Y373318D01*
X302832Y373027D01*
X302962Y372768D01*
X303059Y372573D01*
X303124Y372444D01*
X303156Y372411D01*
X303512Y371634D01*
X303674Y371246D01*
X303772Y370922D01*
X303901Y370663D01*
X303966Y370436D01*
X303998Y370306D01*
X304031Y370242D01*
X304128Y369821D01*
X304193Y369432D01*
X304225Y369011D01*
Y368655D01*
X304193Y368331D01*
Y368104D01*
X304160Y367942D01*
Y367878D01*
X304095Y367457D01*
X303966Y367068D01*
X303836Y366744D01*
X303707Y366453D01*
X303577Y366226D01*
X303448Y366064D01*
X303383Y365967D01*
X303351Y365934D01*
X303092Y365675D01*
X302800Y365481D01*
X302476Y365319D01*
X302152Y365190D01*
X301893Y365092D01*
X301667Y365028D01*
X301505Y364995D01*
X301440D01*
X300986Y364930D01*
X300598Y364898D01*
X300436Y364866D01*
X300177D01*
X299691Y364898D01*
X299270Y364963D01*
X299108Y364995D01*
X298979Y365028D01*
X298914Y365060D01*
X298881D01*
X298072Y365384D01*
X297327Y365773D01*
X296679Y366161D01*
X296129Y366517D01*
X295643Y366874D01*
X295319Y367133D01*
X295190Y367262D01*
X295092Y367327D01*
X295060Y367359D01*
X295028Y367392D01*
X294445Y367975D01*
X293894Y368558D01*
X293408Y369108D01*
X292987Y369659D01*
X292631Y370112D01*
X292340Y370468D01*
X292243Y370598D01*
X292178Y370695D01*
X292113Y370760D01*
Y370792D01*
X292048Y370954D01*
X292016Y371116D01*
Y371246D01*
Y371278D01*
X292081Y371472D01*
X292113Y371634D01*
Y371764D01*
Y371796D01*
X292307Y371764D01*
X292469Y371731D01*
X292631D01*
X292858Y371667D01*
X293020Y371602D01*
X293085Y371569D01*
X293117Y371537D01*
X293505Y371181D01*
X293829Y370857D01*
X293959Y370727D01*
X294056Y370630D01*
X294088Y370565D01*
X294121Y370533D01*
X294477Y370177D01*
X294833Y369853D01*
X294963Y369756D01*
X295060Y369659D01*
X295125Y369594D01*
X295157Y369562D01*
X295740Y369076D01*
X296032Y368849D01*
X296258Y368622D01*
X296485Y368461D01*
X296647Y368331D01*
X296744Y368234D01*
X296776Y368201D01*
X297327Y367716D01*
X297618Y367521D01*
X297878Y367359D01*
X298072Y367197D01*
X298234Y367100D01*
X298363Y367035D01*
X298396Y367003D01*
X298720Y366841D01*
X299043Y366777D01*
X299302Y366744D01*
X299529D01*
X299691Y366777D01*
X299853Y366809D01*
X299918Y366874D01*
X299950D01*
X300145Y367068D01*
X300306Y367295D01*
X300403Y367554D01*
X300468Y367780D01*
X300501Y368007D01*
Y368201D01*
Y368331D01*
Y368363D01*
X300436Y368687D01*
X300371Y369011D01*
X300339Y369141D01*
Y369205D01*
X300306Y369270D01*
Y369302D01*
X300209Y369594D01*
X300080Y369853D01*
X299982Y370047D01*
X299950Y370080D01*
Y370112D01*
X299626Y370727D01*
X299302Y371343D01*
X299011Y371926D01*
X298752Y372444D01*
X298525Y372897D01*
X298363Y373221D01*
X298298Y373351D01*
X298234Y373448D01*
X298201Y373480D01*
Y373512D01*
X297878Y374128D01*
X297554Y374711D01*
X297262Y375261D01*
X297003Y375779D01*
X296776Y376200D01*
X296614Y376524D01*
X296550Y376654D01*
X296485Y376751D01*
X296453Y376783D01*
Y376816D01*
X295902Y377884D01*
X295643Y378370D01*
X295449Y378824D01*
X295287Y379180D01*
X295125Y379471D01*
X295060Y379666D01*
X295028Y379730D01*
X294477Y380799D01*
X294250Y381285D01*
X294024Y381738D01*
X293862Y382095D01*
X293732Y382386D01*
X293635Y382580D01*
X293603Y382645D01*
X294088Y382580D01*
D02*
G37*
G36*
X332627Y390677D02*
X332724Y390644D01*
X332756D01*
X333015Y390579D01*
X333242Y390450D01*
X333372Y390353D01*
X333436Y390320D01*
X333663Y390158D01*
X333857Y389996D01*
X333954Y389867D01*
X333987Y389835D01*
X334343Y389446D01*
X334602Y389090D01*
X334699Y388928D01*
X334796Y388831D01*
X334829Y388766D01*
X334861Y388733D01*
X335185Y388312D01*
X335412Y387924D01*
X335509Y387762D01*
X335541Y387632D01*
X335606Y387568D01*
Y387535D01*
X335768Y387276D01*
X335930Y387049D01*
X336059Y386855D01*
X336189Y386693D01*
X336319Y386596D01*
X336416Y386499D01*
X336448Y386466D01*
X336480Y386434D01*
X336934Y386272D01*
X337355Y386208D01*
X337549Y386175D01*
X338294D01*
X338715Y386143D01*
X338877D01*
X339007Y386110D01*
X339136D01*
X339622Y385981D01*
X340043Y385851D01*
X340205Y385787D01*
X340334Y385754D01*
X340399Y385689D01*
X340431D01*
X340593Y385592D01*
X340723Y385430D01*
X340788Y385301D01*
X340820Y385268D01*
Y385236D01*
X340982Y384977D01*
X341079Y384750D01*
X341144Y384621D01*
X341176Y384556D01*
X341014Y384459D01*
X340852Y384329D01*
X340723Y384232D01*
X340690Y384200D01*
X340496Y384102D01*
X340302Y384070D01*
X340172Y384005D01*
X340140D01*
X339719Y383973D01*
X339330Y383908D01*
X339168D01*
X339039Y383876D01*
X338391D01*
X337873Y383843D01*
X337646D01*
X337452Y383811D01*
X337290D01*
X337614Y383422D01*
X337905Y383034D01*
X338164Y382710D01*
X338359Y382418D01*
X338553Y382159D01*
X338683Y381997D01*
X338747Y381868D01*
X338780Y381836D01*
X339007Y381512D01*
X339233Y381188D01*
X339460Y380896D01*
X339654Y380670D01*
X339816Y380475D01*
X339946Y380346D01*
X340043Y380249D01*
X340075Y380216D01*
X340626Y379698D01*
X340917Y379471D01*
X341176Y379245D01*
X341371Y379083D01*
X341533Y378953D01*
X341662Y378888D01*
X341694Y378856D01*
X342310Y378403D01*
X342601Y378208D01*
X342860Y378046D01*
X343087Y377884D01*
X343249Y377787D01*
X343378Y377723D01*
X343411Y377690D01*
X344026Y377366D01*
X344318Y377204D01*
X344577Y377075D01*
X344803Y376978D01*
X344998Y376881D01*
X345127Y376848D01*
X345160Y376816D01*
X345807Y376524D01*
X346099Y376395D01*
X346390Y376265D01*
X346617Y376168D01*
X346779Y376071D01*
X346908Y376039D01*
X346941Y376006D01*
X346876Y375877D01*
Y375844D01*
Y375812D01*
X346811Y375747D01*
X346746Y375682D01*
X346714Y375618D01*
Y375585D01*
X345807Y375844D01*
X345386Y375974D01*
X345030Y376071D01*
X344706Y376136D01*
X344447Y376200D01*
X344285Y376265D01*
X344220D01*
X343249Y376492D01*
X342795Y376622D01*
X342374Y376719D01*
X342018Y376816D01*
X341727Y376881D01*
X341565Y376913D01*
X341500Y376945D01*
X341759Y376362D01*
X341986Y375812D01*
X342213Y375294D01*
X342439Y374840D01*
X342601Y374484D01*
X342731Y374193D01*
X342828Y374031D01*
X342860Y373966D01*
X343314Y372897D01*
X343540Y372411D01*
X343702Y371990D01*
X343832Y371602D01*
X343929Y371310D01*
X343994Y371116D01*
X344026Y371084D01*
Y371051D01*
X344220Y370404D01*
X344318Y370112D01*
X344382Y369853D01*
X344415Y369626D01*
X344447Y369464D01*
X344479Y369335D01*
Y369302D01*
X344544Y368622D01*
X344577Y368299D01*
Y368007D01*
X344609Y367748D01*
Y367554D01*
Y367424D01*
Y367392D01*
Y366906D01*
X344512Y366485D01*
X344382Y366096D01*
X344220Y365805D01*
X344026Y365546D01*
X343897Y365351D01*
X343767Y365222D01*
X343735Y365190D01*
X343411Y364930D01*
X343055Y364769D01*
X342698Y364639D01*
X342374Y364542D01*
X342115Y364477D01*
X341889Y364445D01*
X341435D01*
X341079Y364477D01*
X340755Y364510D01*
X340431Y364574D01*
X340140Y364639D01*
X339913Y364704D01*
X339719Y364736D01*
X339589Y364801D01*
X339557D01*
X339201Y364930D01*
X338877Y365060D01*
X338553Y365222D01*
X338294Y365384D01*
X338067Y365513D01*
X337905Y365643D01*
X337808Y365708D01*
X337776Y365740D01*
X337355Y366096D01*
X336966Y366453D01*
X336642Y366809D01*
X336319Y367133D01*
X336092Y367392D01*
X335897Y367618D01*
X335768Y367748D01*
X335736Y367813D01*
X335120Y368687D01*
X334861Y369076D01*
X334635Y369464D01*
X334440Y369788D01*
X334311Y370015D01*
X334213Y370177D01*
X334181Y370242D01*
X334084Y370436D01*
X334019Y370630D01*
X333987Y370760D01*
Y370792D01*
X333922Y370987D01*
X333890Y371181D01*
X333857Y371310D01*
Y371343D01*
X333987Y371440D01*
X334052Y371472D01*
X334149Y371537D01*
X334181D01*
X334667Y370987D01*
X334894Y370727D01*
X335120Y370501D01*
X335282Y370339D01*
X335412Y370177D01*
X335509Y370080D01*
X335541Y370047D01*
X336092Y369464D01*
X336319Y369205D01*
X336545Y369011D01*
X336707Y368817D01*
X336837Y368687D01*
X336934Y368590D01*
X336966Y368558D01*
X337387Y368169D01*
X337743Y367845D01*
X337905Y367716D01*
X338035Y367618D01*
X338100Y367554D01*
X338132Y367521D01*
X338521Y367165D01*
X338909Y366906D01*
X339071Y366809D01*
X339201Y366744D01*
X339298Y366679D01*
X339330D01*
X339622Y366550D01*
X339881Y366485D01*
X340140Y366453D01*
X340334Y366485D01*
X340529Y366517D01*
X340658Y366550D01*
X340723Y366614D01*
X340755D01*
X340950Y366777D01*
X341079Y367003D01*
X341176Y367230D01*
X341241Y367457D01*
Y367683D01*
Y367845D01*
Y367975D01*
Y368007D01*
X341144Y368461D01*
X341047Y368849D01*
X340982Y369011D01*
X340917Y369141D01*
X340885Y369205D01*
Y369238D01*
X340723Y369691D01*
X340561Y370080D01*
X340464Y370209D01*
X340431Y370339D01*
X340367Y370404D01*
Y370436D01*
X340075Y371084D01*
X339751Y371731D01*
X339460Y372314D01*
X339201Y372832D01*
X338974Y373286D01*
X338812Y373610D01*
X338747Y373739D01*
X338683Y373836D01*
X338650Y373869D01*
Y373901D01*
X338326Y374549D01*
X338003Y375197D01*
X337711Y375779D01*
X337452Y376298D01*
X337225Y376751D01*
X337063Y377075D01*
X336999Y377204D01*
X336934Y377302D01*
X336901Y377334D01*
Y377366D01*
X336610Y377884D01*
X336351Y378370D01*
X336124Y378791D01*
X335897Y379212D01*
X335736Y379536D01*
X335606Y379795D01*
X335509Y379957D01*
X335476Y380022D01*
X334926Y380993D01*
X334699Y381447D01*
X334473Y381868D01*
X334311Y382224D01*
X334181Y382483D01*
X334084Y382645D01*
X334052Y382710D01*
X333792Y383163D01*
X333533Y383520D01*
X333404Y383649D01*
X333307Y383746D01*
X333274Y383779D01*
X333242Y383811D01*
X333015Y383908D01*
X332789Y384005D01*
X332368Y384070D01*
X331882D01*
X331428Y384038D01*
X331040Y384005D01*
X330651D01*
X330165Y384038D01*
X329777Y384070D01*
X329388D01*
X328999Y384135D01*
X328708Y384232D01*
X328578Y384264D01*
X328481Y384297D01*
X328449Y384329D01*
X328417D01*
X328255Y384426D01*
X328158Y384556D01*
X328028Y384880D01*
X327996Y385009D01*
X327963Y385139D01*
Y385204D01*
Y385236D01*
X327996Y385430D01*
X328060Y385625D01*
X328222Y385851D01*
X328352Y386013D01*
X328384Y386045D01*
X328417D01*
X328740Y386143D01*
X329032Y386208D01*
X329161D01*
X329226Y386240D01*
X329323D01*
X329777Y386305D01*
X330198Y386337D01*
X330360D01*
X330489Y386369D01*
X330586D01*
X331105Y386434D01*
X331558Y386466D01*
X331752D01*
X331882Y386499D01*
X332011D01*
X331882Y386823D01*
X331785Y387049D01*
X331720Y387211D01*
X331687Y387244D01*
X331623Y387438D01*
X331558Y387632D01*
X331493Y387762D01*
X331461Y387794D01*
X331364Y388053D01*
X331266Y388248D01*
X331234Y388377D01*
X331202Y388410D01*
X331105Y388636D01*
X331040Y388831D01*
X331007Y388960D01*
Y389025D01*
X330975Y389349D01*
X331007Y389640D01*
X331072Y389899D01*
X331137Y390094D01*
X331234Y390256D01*
X331331Y390353D01*
X331364Y390418D01*
X331396Y390450D01*
X331590Y390579D01*
X331817Y390677D01*
X332044Y390709D01*
X332465D01*
X332627Y390677D01*
D02*
G37*
G36*
X416568Y392523D02*
X416633Y392490D01*
X416666D01*
X417864Y392361D01*
X418965Y392134D01*
X420001Y391875D01*
X420455Y391713D01*
X420876Y391583D01*
X421264Y391454D01*
X421588Y391292D01*
X421912Y391162D01*
X422139Y391065D01*
X422365Y390968D01*
X422495Y390903D01*
X422592Y390871D01*
X422625Y390839D01*
X423596Y390288D01*
X424503Y389673D01*
X425345Y389090D01*
X426090Y388507D01*
X426414Y388248D01*
X426705Y388021D01*
X426964Y387794D01*
X427191Y387600D01*
X427353Y387471D01*
X427482Y387341D01*
X427547Y387276D01*
X427579Y387244D01*
X427839Y386985D01*
X428098Y386693D01*
X428292Y386434D01*
X428486Y386175D01*
X428616Y385916D01*
X428713Y385722D01*
X428778Y385592D01*
X428810Y385560D01*
X429199Y384847D01*
X429361Y384524D01*
X429490Y384232D01*
X429620Y383973D01*
X429717Y383746D01*
X429782Y383617D01*
X429814Y383584D01*
X429911Y383228D01*
X429976Y382872D01*
X430008Y382742D01*
Y382613D01*
Y382548D01*
Y382516D01*
Y382095D01*
X429976Y381738D01*
X429944Y381609D01*
X429911Y381512D01*
X429879Y381447D01*
Y381414D01*
X429782Y381123D01*
X429749Y380864D01*
Y380637D01*
Y380443D01*
X429782Y380313D01*
X429846Y380216D01*
X429879Y380184D01*
Y380151D01*
X430041Y380022D01*
X430203Y379892D01*
X430559Y379698D01*
X430721Y379633D01*
X430850Y379569D01*
X430947Y379536D01*
X430980D01*
X431466Y379310D01*
X431951Y379083D01*
X432372Y378856D01*
X432761Y378662D01*
X433085Y378467D01*
X433344Y378306D01*
X433474Y378208D01*
X433538Y378176D01*
X433992Y377852D01*
X434380Y377528D01*
X434769Y377205D01*
X435093Y376913D01*
X435352Y376654D01*
X435546Y376460D01*
X435676Y376330D01*
X435708Y376265D01*
X436161Y375682D01*
X436550Y375099D01*
X436874Y374516D01*
X437133Y373934D01*
X437327Y373383D01*
X437457Y372832D01*
X437554Y372314D01*
X437619Y371861D01*
X437651Y371408D01*
Y370987D01*
X437619Y370630D01*
X437586Y370339D01*
X437554Y370080D01*
X437522Y369918D01*
X437489Y369788D01*
Y369756D01*
X437262Y369173D01*
X436971Y368622D01*
X436647Y368104D01*
X436291Y367651D01*
X435870Y367262D01*
X435449Y366874D01*
X435028Y366582D01*
X434607Y366291D01*
X434218Y366032D01*
X433830Y365837D01*
X433474Y365675D01*
X433150Y365546D01*
X432891Y365449D01*
X432696Y365384D01*
X432567Y365319D01*
X432534D01*
X431919Y365157D01*
X431628Y365093D01*
X431368Y365028D01*
X431142Y364995D01*
X430980Y364963D01*
X430850Y364930D01*
X430818D01*
X430235Y364801D01*
X429944Y364769D01*
X429717Y364704D01*
X429490Y364672D01*
X429328D01*
X429231Y364639D01*
X429199D01*
X428357Y364607D01*
X427547D01*
X426802Y364672D01*
X426155Y364736D01*
X425636Y364833D01*
X425410Y364866D01*
X425215Y364898D01*
X425053Y364963D01*
X424956D01*
X424892Y364995D01*
X424859D01*
X424114Y365254D01*
X423434Y365578D01*
X422786Y365934D01*
X422203Y366258D01*
X421750Y366582D01*
X421556Y366712D01*
X421394Y366841D01*
X421232Y366938D01*
X421135Y367003D01*
X421102Y367068D01*
X421070D01*
X420779Y367327D01*
X420552Y367586D01*
X420325Y367878D01*
X420163Y368137D01*
X419872Y368655D01*
X419710Y369173D01*
X419613Y369594D01*
X419580Y369950D01*
Y370080D01*
Y370177D01*
Y370209D01*
Y370242D01*
X419645Y370598D01*
X419710Y370922D01*
X419969Y371537D01*
X420260Y372055D01*
X420617Y372476D01*
X420941Y372832D01*
X421232Y373092D01*
X421426Y373221D01*
X421459Y373286D01*
X421491D01*
X422074Y373610D01*
X422689Y373869D01*
X423272Y374031D01*
X423790Y374128D01*
X424244Y374193D01*
X424924D01*
X425604Y374063D01*
X426219Y373869D01*
X426770Y373610D01*
X427256Y373351D01*
X427612Y373092D01*
X427903Y372865D01*
X428065Y372735D01*
X428130Y372671D01*
X428389Y372379D01*
X428616Y372088D01*
X428745Y371796D01*
X428875Y371570D01*
X428940Y371343D01*
X428972Y371181D01*
X429004Y371084D01*
Y371051D01*
Y370760D01*
X428972Y370501D01*
X428907Y370274D01*
X428810Y370080D01*
X428713Y369918D01*
X428616Y369788D01*
X428551Y369724D01*
X428519Y369691D01*
X428324Y369529D01*
X428098Y369400D01*
X427871Y369335D01*
X427644Y369270D01*
X427450Y369238D01*
X427158D01*
X426867Y369302D01*
X426576Y369367D01*
X426316Y369497D01*
X426090Y369626D01*
X425895Y369756D01*
X425733Y369885D01*
X425636Y369950D01*
X425604Y369983D01*
X425474Y370145D01*
X425345Y370339D01*
X425248Y370468D01*
X425215Y370533D01*
X425053Y370695D01*
X424892Y370825D01*
X424762Y370889D01*
X424730Y370922D01*
X424438Y371019D01*
X424147Y371084D01*
X423920Y371116D01*
X423855D01*
X423564Y371148D01*
X423369Y371116D01*
X423208Y371084D01*
X423175Y371051D01*
X423013Y370857D01*
X422851Y370630D01*
X422786Y370436D01*
X422754Y370404D01*
Y370371D01*
Y370047D01*
X422786Y369788D01*
X422819Y369626D01*
X422851Y369594D01*
Y369562D01*
X423013Y369173D01*
X423175Y368849D01*
X423240Y368720D01*
X423305Y368622D01*
X423369Y368590D01*
Y368558D01*
X423661Y368201D01*
X423920Y367910D01*
X424114Y367748D01*
X424147Y367683D01*
X424179D01*
X424568Y367424D01*
X424956Y367230D01*
X425312Y367068D01*
X425636Y366938D01*
X425928Y366841D01*
X426155Y366777D01*
X426284Y366744D01*
X426349D01*
X427223Y366647D01*
X427612Y366615D01*
X428745D01*
X429425Y366712D01*
X430041Y366874D01*
X430591Y367100D01*
X431012Y367359D01*
X431368Y367618D01*
X431628Y367845D01*
X431790Y368007D01*
X431854Y368072D01*
X432211Y368622D01*
X432470Y369173D01*
X432664Y369724D01*
X432761Y370242D01*
X432793Y370728D01*
Y371084D01*
Y371213D01*
Y371310D01*
Y371375D01*
Y371408D01*
X432696Y371991D01*
X432567Y372541D01*
X432405Y373027D01*
X432243Y373448D01*
X432113Y373772D01*
X431984Y374031D01*
X431887Y374193D01*
X431854Y374257D01*
X431530Y374711D01*
X431207Y375164D01*
X430883Y375553D01*
X430559Y375877D01*
X430300Y376168D01*
X430073Y376362D01*
X429944Y376524D01*
X429879Y376557D01*
X429490Y376848D01*
X429134Y377075D01*
X428778Y377269D01*
X428486Y377431D01*
X428227Y377561D01*
X428000Y377626D01*
X427871Y377690D01*
X427839D01*
X427417Y377787D01*
X426996D01*
X426608Y377755D01*
X426219Y377658D01*
X425895Y377561D01*
X425636Y377463D01*
X425474Y377399D01*
X425410Y377366D01*
X425053Y377172D01*
X424697Y377043D01*
X424341Y376945D01*
X424017Y376881D01*
X423726Y376848D01*
X423499Y376816D01*
X422916D01*
X422527Y376848D01*
X422139Y376913D01*
X421815Y376978D01*
X421523Y377043D01*
X421329Y377107D01*
X421167Y377140D01*
X421135Y377172D01*
X420811Y377334D01*
X420584Y377496D01*
X420390Y377690D01*
X420260Y377852D01*
X420163Y378014D01*
X420098Y378144D01*
X420066Y378208D01*
Y378241D01*
Y378500D01*
X420163Y378727D01*
X420293Y378986D01*
X420455Y379180D01*
X420617Y379342D01*
X420746Y379471D01*
X420843Y379569D01*
X420876Y379601D01*
X421135Y379763D01*
X421362Y379892D01*
X421556Y379990D01*
X421588Y380022D01*
X421621D01*
X421944Y380184D01*
X422268Y380346D01*
X422398Y380443D01*
X422527Y380475D01*
X422592Y380540D01*
X422625D01*
X422203Y380734D01*
X421880Y380896D01*
X421782Y380961D01*
X421685Y380993D01*
X421653Y381026D01*
X421621D01*
X421329Y381155D01*
X421070Y381253D01*
X420876Y381317D01*
X420843Y381350D01*
X420811D01*
X419839Y381836D01*
X419386Y382062D01*
X418997Y382257D01*
X418641Y382418D01*
X418382Y382548D01*
X418220Y382613D01*
X418155Y382645D01*
X417670Y382872D01*
X417184Y383131D01*
X416763Y383358D01*
X416374Y383584D01*
X416050Y383779D01*
X415791Y383941D01*
X415662Y384038D01*
X415597Y384070D01*
X415046Y384459D01*
X414787Y384685D01*
X414561Y384880D01*
X414366Y385042D01*
X414237Y385171D01*
X414140Y385268D01*
X414107Y385301D01*
X413848Y385592D01*
X413621Y385851D01*
X413395Y386110D01*
X413233Y386369D01*
X413103Y386564D01*
X413006Y386726D01*
X412974Y386823D01*
X412941Y386855D01*
X412747Y387276D01*
X412618Y387697D01*
X412520Y388053D01*
X412423Y388442D01*
X412359Y389090D01*
X412391Y389640D01*
X412423Y390094D01*
X412520Y390418D01*
X412553Y390547D01*
X412585Y390644D01*
X412618Y390677D01*
Y390709D01*
X412780Y391000D01*
X412974Y391227D01*
X413200Y391454D01*
X413492Y391648D01*
X414043Y391972D01*
X414658Y392231D01*
X415208Y392393D01*
X415467Y392425D01*
X415662Y392490D01*
X415856Y392523D01*
X415986Y392555D01*
X416407D01*
X416568Y392523D01*
D02*
G37*
G36*
X272229Y382742D02*
X272585D01*
X272876Y382710D01*
X273135Y382677D01*
X273362D01*
X273492Y382645D01*
X273524D01*
X274334Y382516D01*
X275079Y382321D01*
X275791Y382095D01*
X276374Y381836D01*
X276860Y381609D01*
X277054Y381512D01*
X277216Y381414D01*
X277345Y381317D01*
X277443Y381285D01*
X277507Y381220D01*
X277540D01*
X278220Y380767D01*
X278835Y380281D01*
X279386Y379828D01*
X279904Y379407D01*
X280325Y379050D01*
X280649Y378759D01*
X280746Y378662D01*
X280843Y378565D01*
X280875Y378532D01*
X280908Y378500D01*
X281653Y377820D01*
X282009Y377496D01*
X282300Y377204D01*
X282559Y376978D01*
X282786Y376783D01*
X282916Y376654D01*
X282948Y376622D01*
X283337Y376298D01*
X283725Y376039D01*
X284114Y375779D01*
X284470Y375585D01*
X284794Y375423D01*
X285021Y375294D01*
X285183Y375229D01*
X285247Y375197D01*
X285701Y375035D01*
X286089Y374905D01*
X286251Y374840D01*
X286381Y374808D01*
X286446Y374776D01*
X286478D01*
X286899Y374646D01*
X287255Y374516D01*
X287385Y374452D01*
X287514Y374419D01*
X287579Y374387D01*
X287612D01*
Y374257D01*
Y374193D01*
Y374031D01*
Y373998D01*
Y373966D01*
X287126Y373869D01*
X286705Y373836D01*
X286543Y373804D01*
X286413Y373772D01*
X286284D01*
X285733Y373675D01*
X285506Y373642D01*
X285280D01*
X285118Y373610D01*
X284988Y373577D01*
X284859D01*
X284956Y372930D01*
X285021Y372671D01*
X285053Y372411D01*
X285118Y372217D01*
X285150Y372055D01*
X285183Y371958D01*
Y371926D01*
X285312Y371375D01*
X285345Y371116D01*
X285377Y370889D01*
X285409Y370727D01*
X285442Y370565D01*
Y370468D01*
Y370436D01*
X285474Y369724D01*
X285409Y369076D01*
X285280Y368525D01*
X285118Y368040D01*
X284956Y367618D01*
X284794Y367327D01*
X284664Y367133D01*
X284632Y367100D01*
Y367068D01*
X284211Y366614D01*
X283758Y366194D01*
X283272Y365870D01*
X282786Y365611D01*
X282365Y365384D01*
X282041Y365254D01*
X281912Y365190D01*
X281814Y365157D01*
X281750Y365125D01*
X281717D01*
X281167Y364995D01*
X280616Y364898D01*
X280066Y364866D01*
X279515Y364898D01*
X278997Y364930D01*
X278479Y364995D01*
X277961Y365092D01*
X277507Y365190D01*
X277086Y365319D01*
X276698Y365449D01*
X276341Y365578D01*
X276050Y365675D01*
X275823Y365773D01*
X275661Y365870D01*
X275532Y365902D01*
X275499Y365934D01*
X274916Y366258D01*
X274366Y366614D01*
X273880Y366971D01*
X273427Y367359D01*
X273038Y367780D01*
X272682Y368169D01*
X272390Y368558D01*
X272099Y368946D01*
X271872Y369335D01*
X271710Y369659D01*
X271549Y369982D01*
X271419Y370242D01*
X271322Y370468D01*
X271257Y370663D01*
X271225Y370760D01*
Y370792D01*
X271872Y370306D01*
X272164Y370080D01*
X272423Y369885D01*
X272617Y369724D01*
X272779Y369594D01*
X272876Y369529D01*
X272909Y369497D01*
X273459Y369043D01*
X273718Y368849D01*
X273977Y368687D01*
X274172Y368558D01*
X274334Y368461D01*
X274431Y368396D01*
X274463Y368363D01*
X275079Y368007D01*
X275370Y367813D01*
X275629Y367651D01*
X275856Y367521D01*
X276018Y367424D01*
X276147Y367359D01*
X276180Y367327D01*
X276827Y367035D01*
X277151Y366906D01*
X277410Y366809D01*
X277637Y366712D01*
X277831Y366679D01*
X277961Y366614D01*
X277993D01*
X278608Y366517D01*
X279159D01*
X279612Y366582D01*
X280001Y366712D01*
X280292Y366809D01*
X280487Y366938D01*
X280616Y367035D01*
X280649Y367068D01*
X280908Y367424D01*
X281070Y367845D01*
X281199Y368299D01*
X281264Y368752D01*
X281296Y369141D01*
Y369464D01*
X281264Y369594D01*
Y369691D01*
Y369724D01*
Y369756D01*
X281134Y370371D01*
X280972Y370922D01*
X280843Y371472D01*
X280681Y371926D01*
X280519Y372282D01*
X280390Y372573D01*
X280325Y372768D01*
X280292Y372832D01*
X280033Y373351D01*
X279774Y373869D01*
X279548Y374355D01*
X279289Y374808D01*
X279094Y375164D01*
X278932Y375423D01*
X278835Y375618D01*
X278803Y375682D01*
X278544Y376136D01*
X278285Y376524D01*
X278025Y376913D01*
X277799Y377237D01*
X277605Y377528D01*
X277443Y377723D01*
X277345Y377884D01*
X277313Y377917D01*
X276957Y378306D01*
X276601Y378662D01*
X276277Y378953D01*
X275921Y379212D01*
X275629Y379439D01*
X275402Y379601D01*
X275273Y379698D01*
X275208Y379730D01*
X274593Y380022D01*
X274334Y380151D01*
X274074Y380249D01*
X273848Y380346D01*
X273686Y380410D01*
X273556Y380475D01*
X273524D01*
X272876Y380734D01*
X272585Y380831D01*
X272326Y380929D01*
X272099Y380993D01*
X271937Y381058D01*
X271808Y381091D01*
X271775D01*
X271549Y381123D01*
X271354Y381091D01*
X271225Y381058D01*
X271160Y381026D01*
X270966Y380929D01*
X270739Y380896D01*
X270609Y380831D01*
X270545D01*
X270642Y380637D01*
X270707Y380443D01*
X270771Y380313D01*
X270804Y380281D01*
X270901Y380087D01*
X270998Y379925D01*
X271063Y379795D01*
X271095Y379730D01*
X271289Y379504D01*
X271484Y379277D01*
X271646Y379115D01*
X271678Y379083D01*
X271710Y379050D01*
X271937Y378791D01*
X272131Y378565D01*
X272261Y378370D01*
X272293Y378338D01*
Y378306D01*
X272455Y377884D01*
X272585Y377528D01*
X272617Y377399D01*
X272650Y377269D01*
Y377204D01*
Y377172D01*
Y376945D01*
X272585Y376751D01*
X272423Y376395D01*
X272326Y376265D01*
X272261Y376168D01*
X272196Y376103D01*
X272164Y376071D01*
X272002Y375909D01*
X271808Y375779D01*
X271646Y375715D01*
X271484Y375650D01*
X271354Y375617D01*
X271257Y375585D01*
X271160D01*
X270739Y375682D01*
X270415Y375812D01*
X270253Y375844D01*
X270156Y375909D01*
X270091Y375941D01*
X270059D01*
X269670Y376200D01*
X269346Y376395D01*
X269249Y376492D01*
X269152Y376557D01*
X269087Y376622D01*
X269055D01*
X268699Y376913D01*
X268407Y377172D01*
X268278Y377269D01*
X268181Y377366D01*
X268148Y377399D01*
X268116Y377431D01*
X267792Y377820D01*
X267565Y378241D01*
X267371Y378597D01*
X267274Y378953D01*
X267209Y379245D01*
X267144Y379471D01*
Y379601D01*
Y379666D01*
Y379957D01*
X267176Y380216D01*
X267209Y380410D01*
X267241Y380443D01*
Y380475D01*
X267339Y380767D01*
X267468Y381058D01*
X267792Y381512D01*
X268181Y381868D01*
X268601Y382159D01*
X268990Y382354D01*
X269314Y382483D01*
X269411Y382515D01*
X269508Y382548D01*
X269573Y382580D01*
X269605D01*
X270285Y382710D01*
X270609Y382742D01*
X270901Y382775D01*
X271484D01*
X272229Y382742D01*
D02*
G37*
G36*
X378030Y382451D02*
X378160D01*
X378711Y382386D01*
X378969Y382354D01*
X379196Y382321D01*
X379358Y382289D01*
X379520D01*
X379617Y382257D01*
X379650D01*
X380751Y381965D01*
X381787Y381609D01*
X382726Y381220D01*
X383147Y381026D01*
X383536Y380831D01*
X383860Y380670D01*
X384184Y380475D01*
X384443Y380346D01*
X384669Y380184D01*
X384864Y380087D01*
X384993Y379990D01*
X385058Y379957D01*
X385090Y379925D01*
X385965Y379277D01*
X386742Y378597D01*
X387454Y377917D01*
X388070Y377269D01*
X388588Y376686D01*
X388815Y376427D01*
X388977Y376233D01*
X389106Y376039D01*
X389203Y375909D01*
X389268Y375844D01*
X389300Y375812D01*
X389592Y375456D01*
X389851Y375164D01*
X390078Y374938D01*
X390272Y374776D01*
X390434Y374678D01*
X390531Y374614D01*
X390596Y374581D01*
X390628D01*
X390887Y374549D01*
X391179Y374581D01*
X391794Y374711D01*
X392053Y374776D01*
X392280Y374873D01*
X392409Y374905D01*
X392474Y374938D01*
X392960Y375132D01*
X393381Y375326D01*
X393543Y375391D01*
X393672Y375456D01*
X393737Y375520D01*
X393769D01*
X394288Y375747D01*
X394773Y375941D01*
X394968Y376006D01*
X395130Y376071D01*
X395227Y376136D01*
X395259D01*
X395130Y375844D01*
X394968Y375553D01*
X394838Y375359D01*
X394709Y375164D01*
X394612Y375035D01*
X394514Y374905D01*
X394482Y374873D01*
X394450Y374840D01*
X394029Y374516D01*
X393705Y374257D01*
X393543Y374160D01*
X393446Y374095D01*
X393381Y374063D01*
X393349Y374031D01*
X392992Y373804D01*
X392604Y373610D01*
X392442Y373545D01*
X392312Y373480D01*
X392247Y373448D01*
X392215D01*
X391988Y373351D01*
X391826Y373221D01*
X391665Y373092D01*
X391567Y372994D01*
X391405Y372832D01*
X391373Y372800D01*
Y372768D01*
X391308Y372573D01*
Y372379D01*
X391341Y371990D01*
X391373Y371828D01*
X391438Y371731D01*
X391470Y371634D01*
Y371602D01*
X391600Y371148D01*
X391697Y370760D01*
X391729Y370598D01*
X391762Y370468D01*
X391794Y370404D01*
Y370371D01*
X391826Y369594D01*
X391794Y368881D01*
X391665Y368234D01*
X391502Y367683D01*
X391341Y367197D01*
X391276Y367003D01*
X391211Y366841D01*
X391146Y366712D01*
X391082Y366614D01*
X391049Y366582D01*
Y366550D01*
X390855Y366258D01*
X390596Y365999D01*
X390078Y365546D01*
X389495Y365222D01*
X388944Y365028D01*
X388426Y364866D01*
X388199Y364833D01*
X387973Y364769D01*
X387811D01*
X387681Y364736D01*
X387454D01*
X387325Y364704D01*
X387228Y364671D01*
X387195Y364639D01*
X387033Y364607D01*
X386936Y364574D01*
X385868D01*
X384993Y364671D01*
X384184Y364833D01*
X383503Y365028D01*
X383180Y365125D01*
X382920Y365190D01*
X382694Y365287D01*
X382467Y365384D01*
X382338Y365449D01*
X382208Y365513D01*
X382143Y365546D01*
X382111D01*
X381366Y365999D01*
X380654Y366485D01*
X380038Y366971D01*
X379488Y367424D01*
X379034Y367813D01*
X378678Y368137D01*
X378549Y368266D01*
X378451Y368363D01*
X378419Y368396D01*
X378387Y368428D01*
X378484Y368622D01*
X378516Y368655D01*
Y368687D01*
X378581Y368817D01*
Y368849D01*
Y368881D01*
X379099Y368655D01*
X379552Y368428D01*
X379747Y368331D01*
X379876Y368266D01*
X379973Y368234D01*
X380006Y368201D01*
X380492Y367975D01*
X380945Y367748D01*
X381107Y367651D01*
X381236Y367586D01*
X381334Y367554D01*
X381366Y367521D01*
X382079Y367165D01*
X382402Y367003D01*
X382694Y366874D01*
X382953Y366777D01*
X383147Y366679D01*
X383277Y366647D01*
X383309Y366614D01*
X383665Y366485D01*
X384054Y366388D01*
X384410Y366323D01*
X384734Y366291D01*
X384993Y366258D01*
X385220Y366226D01*
X385414D01*
X385803Y366258D01*
X386127Y366323D01*
X386418Y366420D01*
X386645Y366517D01*
X386839Y366582D01*
X386969Y366679D01*
X387033Y366712D01*
X387066Y366744D01*
X387228Y366938D01*
X387325Y367165D01*
X387454Y367683D01*
X387487Y367910D01*
X387519Y368104D01*
Y368234D01*
Y368266D01*
X387487Y368752D01*
X387454Y369205D01*
X387422Y369367D01*
Y369497D01*
X387390Y369594D01*
Y369626D01*
X387293Y370177D01*
X387260Y370404D01*
X387195Y370630D01*
X387163Y370792D01*
Y370922D01*
X387131Y371019D01*
Y371051D01*
X387066Y371343D01*
X386969Y371602D01*
X386871Y371796D01*
X386774Y371958D01*
X386677Y372120D01*
X386580Y372217D01*
X386548Y372249D01*
X386515Y372282D01*
X386062Y372476D01*
X385641Y372573D01*
X385447Y372606D01*
X385155D01*
X384540Y372573D01*
X383924Y372606D01*
X383374Y372638D01*
X382856Y372703D01*
X382435Y372768D01*
X382111Y372832D01*
X381981Y372865D01*
X381884D01*
X381852Y372897D01*
X381819D01*
X381204Y373059D01*
X380654Y373221D01*
X380135Y373415D01*
X379650Y373577D01*
X379261Y373739D01*
X378969Y373869D01*
X378775Y373933D01*
X378711Y373966D01*
X377933Y374322D01*
X377545Y374516D01*
X377221Y374678D01*
X376929Y374840D01*
X376735Y374970D01*
X376573Y375035D01*
X376541Y375067D01*
X375796Y375585D01*
X375472Y375812D01*
X375181Y376039D01*
X374921Y376233D01*
X374727Y376362D01*
X374598Y376460D01*
X374565Y376492D01*
X374274Y376751D01*
X373982Y377043D01*
X373788Y377334D01*
X373594Y377593D01*
X373464Y377820D01*
X373367Y378014D01*
X373335Y378144D01*
X373302Y378176D01*
X373205Y378565D01*
X373173Y378953D01*
Y379310D01*
X373205Y379633D01*
X373237Y379925D01*
X373302Y380151D01*
X373335Y380281D01*
X373367Y380346D01*
X373529Y380767D01*
X373723Y381091D01*
X373950Y381382D01*
X374144Y381609D01*
X374338Y381771D01*
X374500Y381868D01*
X374630Y381933D01*
X374662Y381965D01*
X375019Y382095D01*
X375375Y382224D01*
X375699Y382289D01*
X375990Y382354D01*
X376249Y382418D01*
X376443Y382451D01*
X376605D01*
X377156Y382483D01*
X377868D01*
X378030Y382451D01*
D02*
G37*
G36*
X355620Y382516D02*
X356591Y382386D01*
X357434Y382224D01*
X357822Y382095D01*
X358178Y381997D01*
X358535Y381900D01*
X358794Y381771D01*
X359053Y381674D01*
X359280Y381609D01*
X359441Y381512D01*
X359571Y381479D01*
X359636Y381414D01*
X359668D01*
X360478Y380929D01*
X361255Y380443D01*
X361967Y379925D01*
X362583Y379439D01*
X363101Y379018D01*
X363295Y378824D01*
X363489Y378694D01*
X363619Y378565D01*
X363716Y378467D01*
X363781Y378403D01*
X363813Y378370D01*
X364364Y377852D01*
X364882Y377366D01*
X365368Y376945D01*
X365821Y376557D01*
X366210Y376233D01*
X366534Y376006D01*
X366728Y375877D01*
X366760Y375812D01*
X366793D01*
X367408Y375423D01*
X368023Y375067D01*
X368606Y374776D01*
X369157Y374581D01*
X369675Y374387D01*
X369869Y374322D01*
X370031Y374290D01*
X370193Y374257D01*
X370290Y374225D01*
X370355Y374193D01*
X370387D01*
X370420Y374160D01*
X370485Y374128D01*
X370517Y374063D01*
Y374031D01*
X370582Y373966D01*
X370647Y373836D01*
X370679Y373739D01*
X370711Y373707D01*
X370128Y373642D01*
X369869Y373610D01*
X369675Y373577D01*
X369481Y373545D01*
X369351D01*
X369254Y373512D01*
X369222D01*
X368703Y373415D01*
X368477Y373383D01*
X368250Y373351D01*
X368088Y373318D01*
X367959Y373286D01*
X367862D01*
X367959Y372606D01*
X368023Y372282D01*
X368088Y371990D01*
X368153Y371764D01*
X368185Y371569D01*
X368218Y371440D01*
Y371408D01*
X368315Y370760D01*
X368347Y370468D01*
Y370177D01*
X368380Y369950D01*
X368412Y369788D01*
Y369659D01*
Y369626D01*
X368380Y368979D01*
X368283Y368396D01*
X368153Y367878D01*
X367959Y367457D01*
X367797Y367100D01*
X367635Y366841D01*
X367505Y366679D01*
X367473Y366614D01*
X367052Y366161D01*
X366599Y365805D01*
X366145Y365481D01*
X365692Y365254D01*
X365303Y365092D01*
X364979Y364963D01*
X364850Y364930D01*
X364753Y364898D01*
X364720Y364866D01*
X364688D01*
X364072Y364736D01*
X363489Y364639D01*
X362874Y364607D01*
X362324Y364639D01*
X361773Y364671D01*
X361223Y364769D01*
X360737Y364866D01*
X360283Y364963D01*
X359830Y365092D01*
X359474Y365222D01*
X359118Y365351D01*
X358858Y365481D01*
X358599Y365578D01*
X358438Y365675D01*
X358340Y365708D01*
X358308Y365740D01*
X357725Y366064D01*
X357239Y366420D01*
X356753Y366777D01*
X356332Y367165D01*
X355976Y367521D01*
X355652Y367910D01*
X355361Y368299D01*
X355134Y368655D01*
X354907Y368979D01*
X354746Y369302D01*
X354616Y369594D01*
X354487Y369821D01*
X354422Y370015D01*
X354357Y370177D01*
X354325Y370274D01*
Y370306D01*
X354810Y369983D01*
X355296Y369659D01*
X355717Y369367D01*
X356106Y369108D01*
X356430Y368881D01*
X356689Y368720D01*
X356818Y368590D01*
X356883Y368558D01*
X357822Y367942D01*
X358275Y367651D01*
X358664Y367424D01*
X358988Y367230D01*
X359247Y367068D01*
X359409Y366971D01*
X359474Y366938D01*
X359895Y366744D01*
X360251Y366582D01*
X360381Y366550D01*
X360510Y366517D01*
X360575Y366485D01*
X360607D01*
X361093Y366388D01*
X361546Y366323D01*
X361708Y366291D01*
X361838Y366258D01*
X361935Y366226D01*
X361967D01*
X362226Y366194D01*
X362421Y366226D01*
X362809Y366291D01*
X362939Y366323D01*
X363036Y366388D01*
X363101Y366420D01*
X363133D01*
X363328Y366550D01*
X363489Y366712D01*
X363716Y367003D01*
X363781Y367133D01*
X363846Y367230D01*
X363878Y367295D01*
Y367327D01*
X364008Y367748D01*
X364072Y368072D01*
X364105Y368234D01*
X364137Y368331D01*
Y368396D01*
Y368428D01*
X364202Y368849D01*
X364170Y369173D01*
Y369302D01*
Y369400D01*
X364137Y369464D01*
Y369497D01*
X363910Y370468D01*
X363651Y371375D01*
X363360Y372217D01*
X363101Y372930D01*
X362971Y373254D01*
X362842Y373545D01*
X362745Y373804D01*
X362648Y373998D01*
X362550Y374160D01*
X362518Y374290D01*
X362453Y374355D01*
Y374387D01*
X361967Y375229D01*
X361449Y376006D01*
X360931Y376719D01*
X360445Y377366D01*
X359992Y377884D01*
X359830Y378079D01*
X359668Y378273D01*
X359538Y378403D01*
X359441Y378500D01*
X359377Y378565D01*
X359344Y378597D01*
X358988Y378921D01*
X358664Y379180D01*
X358308Y379439D01*
X358017Y379633D01*
X357757Y379795D01*
X357563Y379925D01*
X357401Y379990D01*
X357369Y380022D01*
X356559Y380346D01*
X356171Y380475D01*
X355814Y380605D01*
X355490Y380670D01*
X355264Y380734D01*
X355134Y380767D01*
X354778D01*
X354551Y380734D01*
X354389Y380702D01*
X354325Y380670D01*
X354033Y380637D01*
X353774Y380573D01*
X353580Y380540D01*
X353515D01*
X353644Y380313D01*
X353742Y380119D01*
X353806Y379990D01*
X353839Y379925D01*
X353968Y379698D01*
X354098Y379504D01*
X354163Y379374D01*
X354195Y379342D01*
X354454Y378953D01*
X354681Y378597D01*
X354778Y378435D01*
X354875Y378338D01*
X354907Y378273D01*
X354940Y378241D01*
X355199Y377820D01*
X355361Y377463D01*
X355426Y377334D01*
X355490Y377204D01*
X355523Y377140D01*
Y377107D01*
X355588Y376783D01*
X355555Y376524D01*
X355523Y376265D01*
X355458Y376103D01*
X355361Y375941D01*
X355296Y375844D01*
X355231Y375779D01*
X355199Y375747D01*
X354972Y375585D01*
X354713Y375488D01*
X354454Y375423D01*
X354227Y375391D01*
X353709D01*
X353612Y375456D01*
X353483Y375488D01*
X353385Y375520D01*
X353353D01*
X353223Y375585D01*
X353126Y375618D01*
X353061Y375682D01*
X353029D01*
X352511Y375974D01*
X352025Y376298D01*
X351637Y376589D01*
X351313Y376913D01*
X351054Y377172D01*
X350892Y377366D01*
X350762Y377496D01*
X350730Y377561D01*
X350471Y378014D01*
X350309Y378435D01*
X350212Y378856D01*
X350147Y379212D01*
Y379504D01*
Y379730D01*
X350179Y379860D01*
Y379925D01*
X350309Y380410D01*
X350503Y380831D01*
X350730Y381155D01*
X350989Y381447D01*
X351216Y381674D01*
X351410Y381836D01*
X351539Y381933D01*
X351604Y381965D01*
X352058Y382159D01*
X352543Y382321D01*
X353029Y382418D01*
X353515Y382516D01*
X353936Y382548D01*
X354260Y382580D01*
X354584D01*
X355620Y382516D01*
D02*
G37*
%LPC*%
G36*
X472627Y420082D02*
X472012Y420050D01*
X471461Y420017D01*
X470943Y419920D01*
X470457Y419855D01*
X470036Y419758D01*
X469647Y419661D01*
X469324Y419532D01*
X469032Y419435D01*
X468806Y419370D01*
X468644Y419305D01*
X468546Y419273D01*
X468514Y419240D01*
X467963Y418981D01*
X467478Y418657D01*
X466506Y417977D01*
X465697Y417265D01*
X465308Y416908D01*
X464984Y416552D01*
X464660Y416228D01*
X464401Y415905D01*
X464174Y415645D01*
X463980Y415386D01*
X463818Y415192D01*
X463721Y415030D01*
X463656Y414933D01*
X463624Y414901D01*
X463332Y414350D01*
X463138Y413832D01*
X463041Y413314D01*
X462976Y412893D01*
Y412504D01*
X463009Y412245D01*
X463041Y412051D01*
Y412018D01*
Y411986D01*
X463203Y411468D01*
X463430Y411014D01*
X463721Y410658D01*
X464013Y410334D01*
X464272Y410108D01*
X464498Y409946D01*
X464660Y409849D01*
X464725Y409816D01*
X465146Y409622D01*
X465567Y409492D01*
X465923Y409460D01*
X466279Y409427D01*
X466539D01*
X466765Y409460D01*
X466895Y409492D01*
X466960D01*
X467381Y409622D01*
X467737Y409816D01*
X468061Y410043D01*
X468352Y410270D01*
X468579Y410496D01*
X468741Y410690D01*
X468838Y410820D01*
X468870Y410853D01*
X469162Y411338D01*
X469421Y411727D01*
X469518Y411889D01*
X469615Y412018D01*
X469647Y412083D01*
X469680Y412116D01*
X469971Y412601D01*
X470263Y412990D01*
X470392Y413152D01*
X470457Y413249D01*
X470522Y413314D01*
X470554Y413346D01*
X470781Y413638D01*
X471040Y413897D01*
X471299Y414123D01*
X471526Y414285D01*
X471720Y414447D01*
X471882Y414544D01*
X472012Y414609D01*
X472044Y414641D01*
X472368Y414803D01*
X472692Y414868D01*
X472983Y414933D01*
X473275D01*
X473534Y414901D01*
X473728Y414868D01*
X473890Y414836D01*
X473922D01*
X474343Y414674D01*
X474732Y414480D01*
X475056Y414285D01*
X475347Y414091D01*
X475542Y413929D01*
X475704Y413767D01*
X475801Y413670D01*
X475833Y413638D01*
X476092Y413346D01*
X476287Y412990D01*
X476448Y412666D01*
X476578Y412342D01*
X476675Y412051D01*
X476740Y411824D01*
X476772Y411662D01*
Y411597D01*
X476837Y411209D01*
X476869Y410820D01*
X476837Y410464D01*
Y410172D01*
X476772Y409913D01*
X476740Y409719D01*
X476707Y409590D01*
Y409557D01*
X476610Y409201D01*
X476448Y408845D01*
X476319Y408521D01*
X476157Y408229D01*
X476027Y408003D01*
X475930Y407808D01*
X475866Y407679D01*
X475833Y407646D01*
X475444Y407128D01*
X475023Y406642D01*
X474570Y406221D01*
X474084Y405800D01*
X473599Y405444D01*
X473113Y405120D01*
X472627Y404829D01*
X472174Y404570D01*
X471720Y404311D01*
X471332Y404116D01*
X470943Y403955D01*
X470652Y403825D01*
X470360Y403728D01*
X470166Y403663D01*
X470036Y403598D01*
X470004D01*
X469291Y403404D01*
X468579Y403274D01*
X467899Y403242D01*
X467219D01*
X466571Y403274D01*
X465988Y403372D01*
X465405Y403469D01*
X464855Y403598D01*
X464369Y403760D01*
X463948Y403922D01*
X463559Y404084D01*
X463235Y404213D01*
X462976Y404343D01*
X462782Y404440D01*
X462652Y404505D01*
X462620Y404537D01*
X462426Y404635D01*
X462199Y404764D01*
X462070Y404861D01*
X462005Y404894D01*
X461810Y404991D01*
X461584Y405088D01*
X461454Y405120D01*
X461389Y405153D01*
X461130Y404635D01*
X460904Y404116D01*
X460677Y403631D01*
X460515Y403242D01*
X460353Y402886D01*
X460224Y402594D01*
X460159Y402432D01*
X460126Y402368D01*
X459867Y401849D01*
X459641Y401396D01*
X459446Y400943D01*
X459252Y400554D01*
X459090Y400230D01*
X458993Y399971D01*
X458928Y399809D01*
X458896Y399744D01*
X458831Y399550D01*
X458766Y399356D01*
Y399226D01*
Y399194D01*
X458734Y398967D01*
X458766Y398773D01*
X458799Y398676D01*
X458831Y398643D01*
X459284Y397737D01*
X459479Y397315D01*
X459673Y396927D01*
X459803Y396603D01*
X459932Y396376D01*
X459997Y396214D01*
X460029Y396150D01*
X460515Y395178D01*
X460742Y394757D01*
X460968Y394336D01*
X461130Y393980D01*
X461260Y393721D01*
X461357Y393559D01*
X461389Y393494D01*
X461681Y393883D01*
X461875Y394207D01*
X461972Y394336D01*
X462037Y394433D01*
X462070Y394466D01*
Y394498D01*
X462328Y394822D01*
X462523Y395113D01*
X462588Y395243D01*
X462652Y395308D01*
X462685Y395372D01*
Y395405D01*
X463203Y396085D01*
X463721Y396700D01*
X464239Y397251D01*
X464725Y397737D01*
X465114Y398125D01*
X465438Y398417D01*
X465567Y398514D01*
X465664Y398579D01*
X465697Y398643D01*
X465729D01*
X466409Y399129D01*
X467089Y399518D01*
X467737Y399842D01*
X468385Y400068D01*
X468935Y400263D01*
X469162Y400327D01*
X469356Y400392D01*
X469518Y400424D01*
X469647Y400457D01*
X469712Y400489D01*
X469745D01*
X470263Y400586D01*
X470781Y400651D01*
X471267Y400684D01*
X471655Y400716D01*
X472303D01*
X472465Y400684D01*
X472530D01*
X473016Y400586D01*
X473501Y400424D01*
X473922Y400198D01*
X474311Y400004D01*
X474635Y399777D01*
X474861Y399615D01*
X475023Y399485D01*
X475088Y399453D01*
X475477Y399097D01*
X475768Y398741D01*
X476027Y398417D01*
X476254Y398060D01*
X476384Y397769D01*
X476513Y397542D01*
X476546Y397413D01*
X476578Y397348D01*
X476707Y396894D01*
X476772Y396441D01*
X476837Y395988D01*
Y395599D01*
X476805Y395243D01*
Y394951D01*
X476772Y394790D01*
Y394757D01*
Y394725D01*
X476643Y394239D01*
X476416Y393786D01*
X476189Y393397D01*
X475930Y393106D01*
X475671Y392879D01*
X475477Y392685D01*
X475347Y392587D01*
X475283Y392555D01*
X474829Y392361D01*
X474376Y392231D01*
X473922Y392166D01*
X473177D01*
X472886Y392199D01*
X472724Y392263D01*
X472659D01*
X472497Y392328D01*
X472336Y392393D01*
X472206Y392458D01*
X472174Y392490D01*
X472044Y392555D01*
X471914Y392620D01*
X471817Y392652D01*
X471785Y392685D01*
X471429Y392846D01*
X471040Y392976D01*
X470684Y393073D01*
X470328Y393106D01*
X469615Y393138D01*
X468968Y393073D01*
X468417Y392944D01*
X468158Y392879D01*
X467963Y392814D01*
X467802Y392782D01*
X467672Y392717D01*
X467607Y392685D01*
X467575D01*
X467154Y392490D01*
X466765Y392263D01*
X466409Y392037D01*
X466085Y391810D01*
X465535Y391324D01*
X465081Y390871D01*
X464757Y390450D01*
X464531Y390126D01*
X464466Y389996D01*
X464401Y389932D01*
X464369Y389867D01*
Y389835D01*
X464045Y389090D01*
X463948Y388733D01*
X463818Y388410D01*
X463754Y388118D01*
X463689Y387924D01*
X463624Y387794D01*
Y387730D01*
X463527Y386920D01*
X463494Y386564D01*
Y386208D01*
Y385916D01*
Y385689D01*
Y385560D01*
Y385495D01*
X463527Y385074D01*
X463624Y384653D01*
X463883Y383941D01*
X464207Y383325D01*
X464595Y382807D01*
X464952Y382418D01*
X465276Y382127D01*
X465405Y382030D01*
X465502Y381965D01*
X465567Y381900D01*
X465599D01*
X465956Y381706D01*
X466312Y381576D01*
X466701Y381447D01*
X467057Y381382D01*
X467737Y381350D01*
X468352Y381382D01*
X468903Y381479D01*
X469129Y381512D01*
X469324Y381576D01*
X469453Y381641D01*
X469583Y381674D01*
X469647Y381706D01*
X469680D01*
X470166Y381965D01*
X470587Y382192D01*
X470781Y382289D01*
X470911Y382386D01*
X470975Y382418D01*
X471008Y382451D01*
X471558Y382775D01*
X471785Y382904D01*
X471979Y383066D01*
X472141Y383196D01*
X472271Y383293D01*
X472336Y383358D01*
X472368Y383390D01*
X473210Y384070D01*
X474020Y384782D01*
X474764Y385495D01*
X475509Y386175D01*
X476189Y386888D01*
X476837Y387568D01*
X477420Y388215D01*
X477938Y388831D01*
X478424Y389414D01*
X478877Y389932D01*
X479234Y390418D01*
X479525Y390806D01*
X479784Y391130D01*
X479946Y391389D01*
X480075Y391519D01*
X480108Y391583D01*
X480658Y392458D01*
X481177Y393365D01*
X481662Y394271D01*
X482116Y395178D01*
X482504Y396053D01*
X482861Y396894D01*
X483185Y397737D01*
X483476Y398514D01*
X483735Y399259D01*
X483929Y399906D01*
X484124Y400489D01*
X484253Y401007D01*
X484383Y401428D01*
X484448Y401720D01*
X484480Y401914D01*
X484512Y401979D01*
X484739Y403015D01*
X484869Y404019D01*
X484933Y404958D01*
X484966Y405800D01*
Y406189D01*
Y406545D01*
Y406837D01*
Y407096D01*
Y407290D01*
X484933Y407452D01*
Y407549D01*
Y407582D01*
X484804Y408618D01*
X484577Y409622D01*
X484318Y410529D01*
X484156Y410950D01*
X484026Y411338D01*
X483865Y411694D01*
X483735Y412051D01*
X483605Y412310D01*
X483508Y412569D01*
X483411Y412763D01*
X483346Y412893D01*
X483282Y412990D01*
Y413022D01*
X482763Y413897D01*
X482213Y414674D01*
X481662Y415419D01*
X481144Y416034D01*
X480723Y416585D01*
X480529Y416779D01*
X480367Y416973D01*
X480237Y417103D01*
X480140Y417200D01*
X480075Y417265D01*
X480043Y417297D01*
X479298Y417912D01*
X478489Y418463D01*
X477711Y418884D01*
X476967Y419240D01*
X476643Y419370D01*
X476319Y419467D01*
X476060Y419564D01*
X475801Y419661D01*
X475606Y419726D01*
X475477Y419758D01*
X475380Y419791D01*
X475347D01*
X474635Y419920D01*
X473922Y420017D01*
X473275Y420050D01*
X472627Y420082D01*
D02*
G37*
G36*
X450249Y399259D02*
X449958D01*
X449342Y399194D01*
X448824Y399064D01*
X448371Y398902D01*
X447982Y398708D01*
X447691Y398546D01*
X447464Y398384D01*
X447334Y398255D01*
X447302Y398222D01*
X447140Y398028D01*
X447043Y397834D01*
X446978Y397672D01*
X446946Y397542D01*
Y397413D01*
Y397315D01*
X446978Y397251D01*
Y397218D01*
X447043Y397057D01*
X447172Y396894D01*
X447431Y396700D01*
X447561Y396636D01*
X447691Y396571D01*
X447755Y396538D01*
X447788D01*
X448209Y396441D01*
X448662D01*
X449115Y396474D01*
X449537Y396506D01*
X449893Y396571D01*
X450152Y396668D01*
X450346Y396700D01*
X450378Y396733D01*
X450411D01*
X450929Y396959D01*
X451382Y397186D01*
X451771Y397477D01*
X452095Y397737D01*
X452354Y397996D01*
X452548Y398190D01*
X452678Y398320D01*
X452710Y398384D01*
X452289Y398676D01*
X451836Y398902D01*
X451382Y399032D01*
X450929Y399161D01*
X450540Y399226D01*
X450249Y399259D01*
D02*
G37*
G36*
X460450Y379860D02*
X459446Y379245D01*
X458993Y378953D01*
X458572Y378694D01*
X458216Y378467D01*
X457957Y378306D01*
X457795Y378208D01*
X457730Y378176D01*
X456726Y377528D01*
X456273Y377237D01*
X455852Y376978D01*
X455495Y376751D01*
X455204Y376589D01*
X455042Y376460D01*
X454977Y376427D01*
X455787Y375585D01*
X456175Y375197D01*
X456532Y374840D01*
X456823Y374549D01*
X457082Y374322D01*
X457212Y374160D01*
X457276Y374095D01*
X458119Y373254D01*
X458507Y372865D01*
X458896Y372476D01*
X459187Y372185D01*
X459414Y371958D01*
X459576Y371796D01*
X459641Y371731D01*
X459770Y371602D01*
X459867Y371537D01*
X459997Y371472D01*
X460321D01*
X460547Y371602D01*
X460742Y371731D01*
X460871Y371828D01*
X460936Y371861D01*
X461778Y372703D01*
X462167Y373124D01*
X462555Y373480D01*
X462847Y373772D01*
X463073Y373998D01*
X463235Y374128D01*
X463300Y374193D01*
X464239Y375099D01*
X464693Y375520D01*
X465081Y375909D01*
X465438Y376265D01*
X465697Y376524D01*
X465891Y376686D01*
X465923Y376751D01*
X465956D01*
X465243Y376913D01*
X464595Y377075D01*
X464045Y377269D01*
X463592Y377431D01*
X463203Y377593D01*
X462911Y377723D01*
X462749Y377820D01*
X462685Y377852D01*
X462231Y378176D01*
X461778Y378500D01*
X461422Y378856D01*
X461065Y379148D01*
X460806Y379439D01*
X460612Y379666D01*
X460483Y379795D01*
X460450Y379860D01*
D02*
G37*
G36*
X416957Y389996D02*
X416763D01*
X416601Y389964D01*
X416471D01*
X416212Y389932D01*
X415986Y389835D01*
X415759Y389737D01*
X415597Y389608D01*
X415467Y389478D01*
X415370Y389381D01*
X415338Y389316D01*
X415305Y389284D01*
X415176Y389057D01*
X415111Y388798D01*
X415079Y388539D01*
Y388280D01*
X415111Y388021D01*
X415144Y387827D01*
X415176Y387697D01*
Y387665D01*
X415273Y387309D01*
X415403Y386985D01*
X415565Y386726D01*
X415727Y386499D01*
X415856Y386337D01*
X415986Y386208D01*
X416083Y386143D01*
X416115Y386110D01*
X416633Y385689D01*
X417087Y385333D01*
X417281Y385204D01*
X417411Y385106D01*
X417508Y385042D01*
X417540Y385009D01*
X418123Y384685D01*
X418414Y384556D01*
X418674Y384426D01*
X418868Y384329D01*
X419062Y384264D01*
X419159Y384232D01*
X419192Y384200D01*
X420034Y383908D01*
X420455Y383779D01*
X420843Y383681D01*
X421135Y383584D01*
X421394Y383520D01*
X421556Y383487D01*
X421621Y383455D01*
X422527Y383228D01*
X422948Y383098D01*
X423337Y383001D01*
X423661Y382904D01*
X423887Y382839D01*
X424049Y382807D01*
X424114Y382775D01*
X424211Y382937D01*
X424244Y383001D01*
X424373Y383196D01*
X424406Y383228D01*
Y383260D01*
X424017Y384038D01*
X423596Y384782D01*
X423208Y385430D01*
X422819Y386013D01*
X422463Y386467D01*
X422333Y386661D01*
X422203Y386823D01*
X422074Y386952D01*
X422009Y387049D01*
X421944Y387082D01*
Y387114D01*
X421362Y387730D01*
X420746Y388248D01*
X420131Y388701D01*
X419548Y389057D01*
X419030Y389349D01*
X418803Y389446D01*
X418609Y389543D01*
X418447Y389608D01*
X418317Y389673D01*
X418253Y389705D01*
X418220D01*
X417864Y389835D01*
X417508Y389899D01*
X417216Y389964D01*
X416957Y389996D01*
D02*
G37*
G36*
X377868Y381058D02*
X377642D01*
X377480Y380993D01*
X377285Y380896D01*
X377156Y380799D01*
X377059Y380702D01*
X376994Y380637D01*
X376962Y380605D01*
X376832Y380410D01*
X376735Y380216D01*
X376670Y380022D01*
Y379860D01*
X376638Y379698D01*
X376670Y379568D01*
Y379504D01*
Y379471D01*
X376800Y379018D01*
X376962Y378662D01*
X377059Y378500D01*
X377091Y378403D01*
X377156Y378338D01*
Y378306D01*
X377480Y377884D01*
X377804Y377496D01*
X378128Y377140D01*
X378419Y376848D01*
X378678Y376589D01*
X378872Y376427D01*
X379002Y376298D01*
X379067Y376265D01*
X379488Y375974D01*
X379941Y375715D01*
X380362Y375520D01*
X380751Y375326D01*
X381075Y375197D01*
X381334Y375099D01*
X381496Y375035D01*
X381560Y375002D01*
X382176Y374776D01*
X382435Y374678D01*
X382694Y374581D01*
X382920Y374549D01*
X383082Y374484D01*
X383212Y374452D01*
X383244D01*
X383957Y374355D01*
X384896D01*
X385090Y374387D01*
X385285D01*
X384799Y375099D01*
X384313Y375779D01*
X383892Y376395D01*
X383471Y376913D01*
X383147Y377366D01*
X382888Y377690D01*
X382791Y377820D01*
X382726Y377917D01*
X382661Y377949D01*
Y377982D01*
X382111Y378565D01*
X381528Y379083D01*
X380945Y379536D01*
X380395Y379892D01*
X379909Y380216D01*
X379520Y380410D01*
X379391Y380508D01*
X379293Y380573D01*
X379229Y380605D01*
X379196D01*
X378808Y380799D01*
X378451Y380929D01*
X378322Y380961D01*
X378192Y380993D01*
X378128Y381026D01*
X378095D01*
X377868Y381058D01*
D02*
G37*
%LPD*%
M02*
