G04*
G04 #@! TF.GenerationSoftware,Altium Limited,Altium Designer,18.1.7 (191)*
G04*
G04 Layer_Physical_Order=2*
G04 Layer_Color=16711680*
%FSLAX44Y44*%
%MOMM*%
G71*
G01*
G75*
%ADD11C,0.2000*%
%ADD12C,0.1500*%
%ADD62C,0.4000*%
%ADD69R,2.0000X1.2000*%
%ADD70R,2.3000X1.2000*%
%ADD71R,4.0000X4.0000*%
%ADD72C,0.5080*%
%ADD73R,3.0000X0.3500*%
%ADD74R,2.7000X3.1000*%
%ADD75R,4.3000X6.8000*%
%ADD76R,37.7000X1.0000*%
%ADD77R,2.3000X2.1000*%
G36*
X410427Y457874D02*
Y430000D01*
X410622Y429015D01*
X411180Y428180D01*
X456517Y382844D01*
X455991Y381573D01*
X414000D01*
X413015Y381378D01*
X412180Y380820D01*
X377260Y345899D01*
X375882Y346317D01*
X375828Y346586D01*
X374930Y347930D01*
X373586Y348828D01*
X372000Y349144D01*
X370414Y348828D01*
X369070Y347930D01*
X368172Y346586D01*
X368169Y346573D01*
X337009D01*
X336483Y347843D01*
X340066Y351427D01*
X344832D01*
X345070Y351070D01*
X346414Y350172D01*
X348000Y349856D01*
X349586Y350172D01*
X350930Y351070D01*
X351828Y352414D01*
X352144Y354000D01*
X351828Y355586D01*
X350930Y356930D01*
X349586Y357828D01*
X348250Y358094D01*
X347782Y359000D01*
X348250Y359906D01*
X349586Y360172D01*
X350930Y361070D01*
X351828Y362414D01*
X352144Y364000D01*
X351828Y365586D01*
X350930Y366930D01*
X349586Y367828D01*
X348000Y368144D01*
X347882Y368120D01*
X347373Y368686D01*
X348000Y369856D01*
X349586Y370172D01*
X350930Y371070D01*
X351828Y372414D01*
X352144Y374000D01*
X351828Y375586D01*
X350930Y376930D01*
X349586Y377828D01*
X348000Y378144D01*
X347292Y379000D01*
X348000Y379856D01*
X349586Y380172D01*
X350930Y381070D01*
X351828Y382414D01*
X352144Y384000D01*
X351828Y385586D01*
X350930Y386930D01*
X349586Y387828D01*
X348000Y388144D01*
X347292Y389000D01*
X348000Y389856D01*
X349586Y390172D01*
X350930Y391070D01*
X351828Y392414D01*
X352144Y394000D01*
X351914Y395157D01*
X352677Y396427D01*
X354000D01*
X354985Y396622D01*
X355820Y397180D01*
X357820Y399180D01*
X358378Y400015D01*
X358573Y401000D01*
Y406000D01*
X358378Y406985D01*
X357820Y407820D01*
X354820Y410820D01*
X353985Y411378D01*
X353000Y411573D01*
X352677D01*
X351914Y412844D01*
X352144Y414000D01*
X351828Y415586D01*
X350930Y416930D01*
X349586Y417828D01*
X348000Y418144D01*
X346745Y417894D01*
X331820Y432820D01*
X330985Y433378D01*
X330111Y433551D01*
X329867Y433878D01*
X329447Y434843D01*
X329828Y435414D01*
X330144Y437000D01*
X329828Y438586D01*
X328930Y439930D01*
X327586Y440828D01*
X326000Y441144D01*
X324414Y440828D01*
X323070Y439930D01*
X322832Y439573D01*
X233000D01*
Y441361D01*
X240066Y448427D01*
X302832D01*
X303070Y448070D01*
X304414Y447172D01*
X306000Y446856D01*
X307586Y447172D01*
X308930Y448070D01*
X309828Y449414D01*
X310144Y451000D01*
X310060Y451421D01*
X313066Y454426D01*
X398832D01*
X399070Y454070D01*
X400414Y453172D01*
X402000Y452856D01*
X403586Y453172D01*
X404930Y454070D01*
X405828Y455414D01*
X406092Y456742D01*
X406602Y457398D01*
X407258Y457908D01*
X408586Y458172D01*
X409157Y458553D01*
X410427Y457874D01*
D02*
G37*
G36*
X491427Y465934D02*
Y450000D01*
X491622Y449015D01*
X492180Y448180D01*
X499427Y440934D01*
Y432168D01*
X499070Y431930D01*
X498172Y430586D01*
X497856Y429000D01*
X498172Y427414D01*
X499070Y426070D01*
X499427Y425832D01*
Y418000D01*
X499432Y417975D01*
X499172Y417586D01*
X499118Y417317D01*
X497740Y416899D01*
X467587Y447053D01*
X467828Y447414D01*
X468144Y449000D01*
X467828Y450586D01*
X466930Y451930D01*
X465586Y452828D01*
X464000Y453144D01*
X462414Y452828D01*
X461843Y452447D01*
X460574Y453126D01*
Y473000D01*
X460378Y473985D01*
X459820Y474820D01*
X441194Y493445D01*
X441680Y494618D01*
X462742D01*
X491427Y465934D01*
D02*
G37*
G36*
X524000Y445824D02*
X516306D01*
Y430776D01*
X524000D01*
X524000Y373639D01*
X512180Y361820D01*
X511622Y360985D01*
X511427Y360000D01*
Y336041D01*
X507879Y333000D01*
X488000Y333000D01*
Y345360D01*
X488820Y346180D01*
X489378Y347015D01*
X489573Y348000D01*
Y351526D01*
X491000Y353111D01*
Y355361D01*
X512579Y376940D01*
X513000Y376856D01*
X514586Y377172D01*
X515930Y378070D01*
X516828Y379414D01*
X517144Y381000D01*
X516828Y382586D01*
X515930Y383930D01*
Y385070D01*
X516828Y386414D01*
X517144Y388000D01*
X516828Y389586D01*
X516587Y389947D01*
X516820Y390180D01*
X517378Y391015D01*
X517574Y392000D01*
Y424000D01*
X517378Y424985D01*
X516820Y425820D01*
X512573Y430066D01*
Y440000D01*
X512378Y440985D01*
X511820Y441820D01*
X500573Y453066D01*
Y460000D01*
X524000Y460000D01*
Y445824D01*
D02*
G37*
G36*
X328517Y377843D02*
X327991Y376573D01*
X289000D01*
X288986Y376571D01*
X288820Y376820D01*
X282386Y383253D01*
X282872Y384426D01*
X321934D01*
X328517Y377843D01*
D02*
G37*
G36*
X501180Y406180D02*
X502015Y405622D01*
X503000Y405426D01*
X506169D01*
X506172Y405414D01*
X507070Y404070D01*
X508414Y403172D01*
X510000Y402856D01*
X511157Y403086D01*
X512427Y402323D01*
Y393066D01*
X510735Y391374D01*
X510070Y390930D01*
X509172Y389586D01*
X508856Y388000D01*
X509172Y386414D01*
X510070Y385070D01*
Y383930D01*
X509172Y382586D01*
X508856Y381000D01*
X508940Y380579D01*
X492173Y363813D01*
X491000Y364299D01*
Y385000D01*
Y394856D01*
X491000Y394856D01*
X492586Y395172D01*
X493930Y396070D01*
X494828Y397414D01*
X495144Y399000D01*
X494828Y400586D01*
X494574Y400967D01*
Y408000D01*
X494378Y408985D01*
X493820Y409820D01*
X491000Y412640D01*
Y414701D01*
X492173Y415187D01*
X501180Y406180D01*
D02*
G37*
G36*
X544460Y482270D02*
X567000D01*
Y481000D01*
X568270D01*
Y458460D01*
X587000D01*
Y331540D01*
X568270D01*
Y309000D01*
X567000D01*
Y307730D01*
X544460D01*
Y289000D01*
X233000D01*
Y295000D01*
X211000Y295000D01*
X203000Y303000D01*
X201000D01*
Y327000D01*
X213000D01*
X233000Y307000D01*
Y307701D01*
X234173Y308187D01*
X243180Y299180D01*
X244015Y298622D01*
X245000Y298427D01*
X432839D01*
X433823Y298622D01*
X434658Y299180D01*
X449820Y314342D01*
X450378Y315177D01*
X450573Y316161D01*
Y330934D01*
X465066Y345426D01*
X469533D01*
X469914Y345172D01*
X471500Y344856D01*
X473086Y345172D01*
X474430Y346070D01*
X475328Y347414D01*
X475644Y349000D01*
X475328Y350586D01*
X474430Y351930D01*
X473086Y352828D01*
X471500Y353144D01*
X469914Y352828D01*
X468570Y351930D01*
X467672Y350586D01*
X467669Y350573D01*
X464000D01*
X463015Y350378D01*
X462180Y349820D01*
X446180Y333820D01*
X445622Y332985D01*
X445426Y332000D01*
Y329126D01*
X444156Y328447D01*
X443586Y328828D01*
X442000Y329144D01*
X440414Y328828D01*
X439070Y327930D01*
X438172Y326586D01*
X437856Y325000D01*
X437000Y323990D01*
X436144Y325000D01*
X435828Y326586D01*
X434930Y327930D01*
X433586Y328828D01*
X432000Y329144D01*
X431580Y329060D01*
X430820Y329820D01*
X429985Y330378D01*
X429000Y330574D01*
X420000D01*
X419015Y330378D01*
X418180Y329820D01*
X412030Y323669D01*
X385072D01*
X384546Y324939D01*
X416033Y356427D01*
X476832D01*
X477070Y356070D01*
X478414Y355172D01*
X480000Y354856D01*
X481586Y355172D01*
X482930Y356070D01*
X483828Y357414D01*
X484092Y358742D01*
X484602Y359398D01*
X485258Y359908D01*
X486586Y360172D01*
X487040Y360475D01*
X487849Y359489D01*
X485180Y356820D01*
X484622Y355985D01*
X484426Y355000D01*
Y349066D01*
X470180Y334820D01*
X469622Y333985D01*
X469426Y333000D01*
Y323830D01*
X469402Y323820D01*
X468157Y323619D01*
X467541Y324541D01*
X463911Y328171D01*
X463828Y328586D01*
X462930Y329930D01*
X461586Y330828D01*
X460000Y331144D01*
X458414Y330828D01*
X457070Y329930D01*
X456172Y328586D01*
X455856Y327000D01*
X456172Y325414D01*
X457070Y324070D01*
X458414Y323172D01*
X458829Y323089D01*
X461407Y320512D01*
Y308000D01*
X461680Y306625D01*
X462459Y305459D01*
X463625Y304681D01*
X465000Y304407D01*
X478000D01*
X479375Y304681D01*
X480541Y305459D01*
X481320Y306625D01*
X481593Y308000D01*
Y328512D01*
X484488Y331407D01*
X487864D01*
X488000Y331350D01*
X504124Y331350D01*
X504565Y330159D01*
X498149Y324660D01*
X497528Y323870D01*
X497258Y322903D01*
X496675Y315334D01*
X496070Y314930D01*
X495172Y313586D01*
X494856Y312000D01*
X495172Y310414D01*
X496070Y309070D01*
X497414Y308172D01*
X499000Y307856D01*
X500586Y308172D01*
X501930Y309070D01*
X502828Y310414D01*
X503144Y312000D01*
X502828Y313586D01*
X501930Y314930D01*
X501813Y315009D01*
X502308Y321446D01*
X506716Y325224D01*
X508106Y324743D01*
X508172Y324414D01*
X509070Y323070D01*
X510414Y322172D01*
X512000Y321856D01*
X513586Y322172D01*
X514930Y323070D01*
X515828Y324414D01*
X516144Y326000D01*
X516060Y326421D01*
X525066Y335427D01*
X531832D01*
X532070Y335070D01*
X533414Y334172D01*
X535000Y333856D01*
X536586Y334172D01*
X537930Y335070D01*
X538828Y336414D01*
X539144Y338000D01*
X538828Y339586D01*
X537930Y340930D01*
X536586Y341828D01*
X535772Y341990D01*
X535897Y343260D01*
X540370D01*
Y350530D01*
X527830D01*
Y351800D01*
X526560D01*
Y360340D01*
X519639D01*
X519153Y361513D01*
X536820Y379180D01*
X537378Y380015D01*
X537573Y381000D01*
Y408832D01*
X537930Y409070D01*
X538828Y410414D01*
X539144Y412000D01*
X538828Y413586D01*
X537930Y414930D01*
X536586Y415828D01*
X535000Y416144D01*
X533414Y415828D01*
X532070Y414930D01*
X531172Y413586D01*
X530856Y412000D01*
X531172Y410414D01*
X532070Y409070D01*
X532426Y408832D01*
Y382066D01*
X526823Y376462D01*
X525650Y376948D01*
X525649Y429760D01*
X526560D01*
Y438300D01*
Y446840D01*
X525649D01*
Y460000D01*
X525166Y461166D01*
X524000Y461650D01*
X500573Y461650D01*
Y470000D01*
X500378Y470985D01*
X499820Y471820D01*
X471813Y499827D01*
X472299Y501000D01*
X544460D01*
Y482270D01*
D02*
G37*
%LPC*%
G36*
X565730Y479730D02*
X544460D01*
Y458460D01*
X565730D01*
Y479730D01*
D02*
G37*
G36*
X580470Y446840D02*
X567700D01*
Y439570D01*
X580470D01*
Y446840D01*
D02*
G37*
G36*
X540370D02*
X529100D01*
Y439570D01*
X540370D01*
Y446840D01*
D02*
G37*
G36*
X565160D02*
X552390D01*
Y439570D01*
X565160D01*
Y446840D01*
D02*
G37*
G36*
X580470Y437030D02*
X567700D01*
Y429760D01*
X580470D01*
Y437030D01*
D02*
G37*
G36*
X565160D02*
X552390D01*
Y429760D01*
X565160D01*
Y437030D01*
D02*
G37*
G36*
X540370D02*
X529100D01*
Y429760D01*
X531245D01*
X531630Y428490D01*
X531558Y428442D01*
X530503Y426863D01*
X530132Y425000D01*
X530503Y423137D01*
X531558Y421558D01*
X533137Y420503D01*
X535000Y420132D01*
X536863Y420503D01*
X538442Y421558D01*
X539497Y423137D01*
X539868Y425000D01*
X539497Y426863D01*
X538442Y428442D01*
X538370Y428490D01*
X538755Y429760D01*
X540370D01*
Y437030D01*
D02*
G37*
G36*
X580470Y360340D02*
X567700D01*
Y353070D01*
X580470D01*
Y360340D01*
D02*
G37*
G36*
X535000Y369868D02*
X533137Y369497D01*
X531558Y368442D01*
X530503Y366863D01*
X530132Y365000D01*
X530503Y363137D01*
X531524Y361610D01*
X531463Y361308D01*
X531095Y360340D01*
X529100D01*
Y353070D01*
X540370D01*
Y360340D01*
X538905D01*
X538537Y361308D01*
X538476Y361610D01*
X539497Y363137D01*
X539868Y365000D01*
X539497Y366863D01*
X538442Y368442D01*
X536863Y369497D01*
X535000Y369868D01*
D02*
G37*
G36*
X565160Y360340D02*
X552390D01*
Y353070D01*
X565160D01*
Y360340D01*
D02*
G37*
G36*
X580470Y350530D02*
X567700D01*
Y343260D01*
X580470D01*
Y350530D01*
D02*
G37*
G36*
X565160D02*
X552390D01*
Y343260D01*
X565160D01*
Y350530D01*
D02*
G37*
G36*
X565730Y331540D02*
X544460D01*
Y310270D01*
X565730D01*
Y331540D01*
D02*
G37*
%LPD*%
D11*
X493000Y426000D02*
X494000D01*
X482000Y455000D02*
Y456000D01*
X427000Y309000D02*
X437000Y319000D01*
X248000Y309000D02*
X427000D01*
X464000Y348000D02*
X471500D01*
X210000Y336000D02*
X245000Y301000D01*
X458000Y442000D02*
X492000Y408000D01*
X442000Y316000D02*
Y325000D01*
X431000Y305000D02*
X442000Y316000D01*
X247000Y305000D02*
X431000D01*
X512000Y389000D02*
X515000Y392000D01*
X483000Y436000D02*
X493000Y426000D01*
X483000Y436000D02*
Y455000D01*
X502000Y418000D02*
X504000Y416000D01*
X502000Y429000D02*
Y442000D01*
Y418000D02*
Y429000D01*
X494000Y450000D02*
X502000Y442000D01*
X485000Y394000D02*
X486000D01*
X461000D02*
X485000D01*
X487000Y355000D02*
X513000Y381000D01*
X487000Y348000D02*
Y355000D01*
X491000Y399000D02*
X492000Y400000D01*
X494000Y450000D02*
Y467000D01*
X510000Y429000D02*
X515000Y424000D01*
X498000Y452000D02*
Y470000D01*
X510000Y429000D02*
Y440000D01*
X498000Y452000D02*
X510000Y440000D01*
X514000Y334857D02*
Y360000D01*
X499823Y322706D02*
X514000Y334857D01*
X499076Y312994D02*
X499823Y322706D01*
X514000Y360000D02*
X535000Y381000D01*
X524000Y338000D02*
X535000D01*
X512000Y326000D02*
X524000Y338000D01*
X472000Y315000D02*
Y333000D01*
X487000Y348000D01*
X448000Y332000D02*
X464000Y348000D01*
X448000Y316161D02*
Y332000D01*
X432839Y301000D02*
X448000Y316161D01*
X499000Y357000D02*
X520000Y378000D01*
X499000Y313000D02*
X499076Y312994D01*
X515000Y392000D02*
Y424000D01*
X473000Y465000D02*
X482000Y456000D01*
X535000Y381000D02*
Y412000D01*
X339000Y446000D02*
X342000Y449000D01*
X503000Y408000D02*
X510000D01*
X464000Y447000D02*
X503000Y408000D01*
X464000Y447000D02*
Y449000D01*
X399000Y385000D02*
Y425000D01*
X400000Y426000D01*
X257000Y405000D02*
X348000D01*
X243000Y420000D02*
X244000Y421000D01*
X253000Y397000D02*
X325000D01*
X248000Y402000D02*
X253000Y397000D01*
X236000Y402000D02*
X248000D01*
X248000Y421000D02*
X258000Y411000D01*
X242000Y409000D02*
X247000D01*
X255000Y401000D02*
X327000D01*
X247000Y409000D02*
X255000Y401000D01*
X247000Y415000D02*
X257000Y405000D01*
X237000Y415000D02*
X247000D01*
X244000Y421000D02*
X248000D01*
X258000Y420000D02*
X332000D01*
X251000Y427000D02*
X258000Y420000D01*
X238000Y427000D02*
X251000D01*
X214000Y415000D02*
X242000Y387000D01*
X196000Y415000D02*
X214000D01*
X198000Y410000D02*
X213000D01*
X185750Y420000D02*
X220000D01*
X233000Y433000D01*
X318000D01*
X231000Y437000D02*
X326000D01*
X219000Y425000D02*
X231000Y437000D01*
X198000Y425000D02*
X219000D01*
X239000Y451000D02*
X306000D01*
X218000Y430000D02*
X239000Y451000D01*
X198000Y430000D02*
X218000D01*
X442000Y471000D02*
X452000D01*
X422856Y490144D02*
X442000Y471000D01*
X231095Y490144D02*
X422856D01*
X291000Y457000D02*
X292000Y458000D01*
X284000Y463000D02*
X291000Y456000D01*
Y457000D01*
X245000Y463000D02*
X284000D01*
X217000Y435000D02*
X245000Y463000D01*
X197000Y435000D02*
X217000D01*
X243000Y467000D02*
X410000D01*
X216000Y440000D02*
X243000Y467000D01*
X199000Y440000D02*
X216000D01*
X241000Y471000D02*
X412000D01*
X215000Y445000D02*
X241000Y471000D01*
X195500Y445000D02*
X215000D01*
X239000Y475000D02*
X414000D01*
X214000Y450000D02*
X239000Y475000D01*
X195500Y450000D02*
X214000D01*
X237000Y479000D02*
X415572D01*
X213000Y455000D02*
X237000Y479000D01*
X196500Y455000D02*
X213000D01*
X415572Y479000D02*
X425000Y469572D01*
X520000Y378000D02*
Y418000D01*
X244000Y328000D02*
X281000D01*
X222000Y350000D02*
X244000Y328000D01*
X293000Y353000D02*
X302000Y344000D01*
X252000Y353000D02*
X293000D01*
X248000Y357000D02*
X252000Y353000D01*
X291000Y349000D02*
X300000Y340000D01*
X249000Y349000D02*
X291000D01*
X242000Y356000D02*
X249000Y349000D01*
X289000Y345000D02*
X298000Y336000D01*
X247000Y345000D02*
X289000D01*
X238000Y354000D02*
X247000Y345000D01*
X287000Y341000D02*
X295856Y332144D01*
X246000Y341000D02*
X287000D01*
X234000Y353000D02*
X246000Y341000D01*
X285000Y337000D02*
X293380Y328620D01*
X245000Y337000D02*
X285000D01*
X230000Y352000D02*
X245000Y337000D01*
X283000Y333000D02*
X290904Y325096D01*
X244000Y333000D02*
X283000D01*
X226000Y351000D02*
X244000Y333000D01*
X281000Y327000D02*
Y328000D01*
X467000Y501000D02*
X498000Y470000D01*
X492000Y400000D02*
Y408000D01*
X458000Y442000D02*
Y473000D01*
X316000Y446000D02*
X339000D01*
X306000Y451000D02*
X312000Y457000D01*
X292000D02*
X297000Y462000D01*
X258000Y411000D02*
X317000D01*
X331000Y379000D02*
X341000D01*
X323000Y387000D02*
X331000Y379000D01*
X242000Y387000D02*
X323000D01*
X332000Y384000D02*
X347000D01*
X324000Y392000D02*
X332000Y384000D01*
X254000Y392000D02*
X324000D01*
X333000Y389000D02*
X340000D01*
X325000Y397000D02*
X333000Y389000D01*
X334000Y394000D02*
X347000D01*
X327000Y401000D02*
X334000Y394000D01*
X304000Y354000D02*
X327000D01*
X296000Y362000D02*
X304000Y354000D01*
X271000Y362000D02*
X296000D01*
X259000Y363000D02*
X260000D01*
X261000D01*
X303000Y349000D02*
X334000D01*
X295000Y357000D02*
X303000Y349000D01*
X266000Y357000D02*
X295000D01*
X302000Y344000D02*
X371000D01*
X300000Y340000D02*
X375000D01*
X339000Y354000D02*
X348000D01*
X334000Y349000D02*
X339000Y354000D01*
X415000Y374000D02*
X486000D01*
X377000Y336000D02*
X415000Y374000D01*
X298000Y336000D02*
X377000D01*
X414000Y379000D02*
X481000D01*
X375000Y340000D02*
X414000Y379000D01*
X371000Y344000D02*
X372000Y345000D01*
X343000Y349000D02*
X354000D01*
X357000Y352000D01*
X437332Y493668D02*
X458000Y473000D01*
X229635Y493668D02*
X437332D01*
X433000Y441000D02*
X434000Y442000D01*
Y473000D01*
X420380Y486620D02*
X434000Y473000D01*
X232620Y486620D02*
X420380D01*
X211000Y465000D02*
X232620Y486620D01*
X429000Y438000D02*
Y472000D01*
X417904Y483096D02*
X429000Y472000D01*
X235096Y483096D02*
X417904D01*
X425000Y436000D02*
Y469572D01*
X421000Y434000D02*
Y468000D01*
X414000Y475000D02*
X421000Y468000D01*
X417000Y432000D02*
Y466000D01*
X412000Y471000D02*
X417000Y466000D01*
X413000Y430000D02*
Y464000D01*
X413000D02*
X413000D01*
X410000Y467000D02*
X413000Y464000D01*
X297000Y462000D02*
X407000D01*
X312000Y457000D02*
X402000D01*
X306000Y451000D02*
Y451000D01*
X341000Y409000D02*
X353000D01*
X332000Y420000D02*
X341000Y409000D01*
X330000Y431000D02*
X347000Y414000D01*
X320000Y431000D02*
X330000D01*
X318000Y433000D02*
X320000Y431000D01*
X295856Y332144D02*
X378144D01*
X293380Y328620D02*
X379604D01*
X290904Y325096D02*
X381063D01*
X286904Y321096D02*
X385096D01*
X281000Y327000D02*
X286904Y321096D01*
X260000Y363000D02*
X266000Y357000D01*
X270000Y363000D02*
X271000Y362000D01*
X272484Y372516D02*
X279000Y366000D01*
X334000D02*
X341000Y359000D01*
X279000Y366000D02*
X334000D01*
X342000Y370000D02*
X348000Y364000D01*
X283000Y370000D02*
X342000D01*
X273000Y380000D02*
X283000Y370000D01*
X250000Y317000D02*
X417000D01*
X218000Y349000D02*
X250000Y317000D01*
X214000Y348000D02*
X249000Y313000D01*
X210000Y347000D02*
X248000Y309000D01*
X202000Y350000D02*
X247000Y305000D01*
X270000Y363000D02*
Y363000D01*
X415000Y369000D02*
X481000D01*
X252000Y370000D02*
X263000D01*
X270000Y363000D01*
X417000Y317000D02*
X418000Y318000D01*
X245000Y301000D02*
X432839D01*
X357000Y352000D02*
X375000D01*
X248000Y357000D02*
Y358000D01*
X463568Y501000D02*
X467000D01*
X463808Y497192D02*
X494000Y467000D01*
X228176Y497192D02*
X463808D01*
X227000Y501000D02*
X463000D01*
X473000Y465000D02*
Y473000D01*
X210967Y475000D02*
X229635Y493668D01*
X459000Y384000D02*
X486000D01*
X413000Y430000D02*
X459000Y384000D01*
X460000Y389000D02*
X481000D01*
X417000Y432000D02*
X460000Y389000D01*
X421000Y434000D02*
X461000Y394000D01*
X462000Y399000D02*
X481000D01*
X425000Y436000D02*
X462000Y399000D01*
X463000Y404000D02*
X486000D01*
X429000Y438000D02*
X463000Y404000D01*
X402000Y457000D02*
Y458000D01*
X414984Y364000D02*
X486000D01*
X210000Y484000D02*
X227000Y501000D01*
X342000Y399000D02*
X354000D01*
X341000D02*
X342000D01*
X354000D02*
X356000Y401000D01*
Y406000D01*
X353000Y409000D02*
X356000Y406000D01*
X343000Y359000D02*
Y359000D01*
X289000Y374000D02*
X345000D01*
X288000Y373000D02*
X289000Y374000D01*
X385096Y321096D02*
X413096D01*
X385000Y321000D02*
X385096Y321096D01*
X218000Y466000D02*
X235096Y483096D01*
X218000Y466000D02*
X218000D01*
X212000Y460000D02*
X218000Y466000D01*
X196500Y460000D02*
X212000D01*
X378144Y332144D02*
X415000Y369000D01*
X414967Y359000D02*
X481000D01*
X379604Y328620D02*
X414984Y364000D01*
X381063Y325096D02*
X414967Y359000D01*
X381063Y325096D02*
X381096D01*
X382000Y326000D01*
X379604Y328620D02*
X379620D01*
X380000Y329000D01*
X238000Y380000D02*
X273000D01*
X287000Y374000D02*
Y375000D01*
X278500Y383500D02*
X287000Y375000D01*
X239500Y383500D02*
X278500D01*
X198500Y480000D02*
X210984D01*
X228176Y497192D01*
X197274Y325000D02*
X203967D01*
X197000Y350000D02*
X202000D01*
X210000Y347000D02*
Y351000D01*
X206000Y355000D02*
X210000Y351000D01*
X197000Y355000D02*
X206000D01*
X198000Y360000D02*
X210000D01*
X214000Y348000D02*
Y356000D01*
X210000Y360000D02*
X214000Y356000D01*
X218000Y349000D02*
Y359000D01*
X212000Y365000D02*
X218000Y359000D01*
X196000Y365000D02*
X212000D01*
X222000Y350000D02*
X224000Y348000D01*
X222000Y350000D02*
Y350000D01*
X226000Y351000D02*
Y363000D01*
X230000Y352000D02*
Y364000D01*
X234000Y353000D02*
Y365000D01*
X214000Y370000D02*
X222000Y362000D01*
Y350000D02*
Y362000D01*
X214000Y375000D02*
X226000Y363000D01*
X214000Y380000D02*
X230000Y364000D01*
X214000Y385000D02*
X234000Y365000D01*
X238000Y354000D02*
Y366000D01*
X214000Y390000D02*
X238000Y366000D01*
X194000Y375000D02*
X214000D01*
X196000Y380000D02*
X214000D01*
X193000Y390000D02*
X214000D01*
X197000Y405000D02*
X213000D01*
X196000Y400000D02*
X213000D01*
Y395000D02*
X242000Y366000D01*
X197000Y395000D02*
X213000D01*
X237000Y376000D02*
X269000D01*
X213000Y400000D02*
X237000Y376000D01*
X213000Y405000D02*
X238000Y380000D01*
X213000Y410000D02*
X239500Y383500D01*
X242000Y356000D02*
Y366000D01*
X269000Y376000D02*
X272484Y372516D01*
X272484D01*
X184750Y370000D02*
X214000D01*
X184750Y385000D02*
X214000D01*
X193000Y465000D02*
X211000D01*
X197500Y470000D02*
X210951D01*
X231095Y490144D01*
X198500Y475000D02*
X210967D01*
X197274Y320000D02*
X203967D01*
X198274Y315000D02*
X204967D01*
X198274Y310000D02*
X204967D01*
X198274Y305000D02*
X204967D01*
X413096Y321096D02*
X420000Y328000D01*
X429000D01*
X432000Y325000D01*
X417572Y317572D02*
X422000Y322000D01*
X249000Y313000D02*
X421838D01*
X199000Y484000D02*
X210000D01*
D12*
X399000Y385000D02*
X437000D01*
X392000D02*
X399000D01*
D62*
X460000Y327000D02*
X465000Y322000D01*
Y308000D02*
Y322000D01*
Y308000D02*
X478000D01*
Y330000D01*
X495000Y335000D02*
X499000Y339000D01*
X483000Y335000D02*
X495000D01*
X478000Y330000D02*
X483000Y335000D01*
D69*
X527830Y438300D02*
D03*
Y351800D02*
D03*
D70*
X566430Y438300D02*
D03*
Y351800D02*
D03*
D71*
X567000Y309000D02*
D03*
Y481000D02*
D03*
D72*
X458000Y320000D02*
D03*
X423000Y315000D02*
D03*
X460000Y327000D02*
D03*
X442000Y325000D02*
D03*
X503000Y416000D02*
D03*
X502000Y429000D02*
D03*
X494000Y425000D02*
D03*
X465000Y335000D02*
D03*
X513000Y381000D02*
D03*
Y388000D02*
D03*
X491000Y399000D02*
D03*
X535000Y338000D02*
D03*
X512000Y326000D02*
D03*
X509000Y303000D02*
D03*
X472000Y315000D02*
D03*
X505000Y455000D02*
D03*
X483000D02*
D03*
X482000Y495000D02*
D03*
X342000Y449000D02*
D03*
X464000D02*
D03*
X399000Y385000D02*
D03*
X242000Y409000D02*
D03*
X281000Y328000D02*
D03*
X317000Y411000D02*
D03*
X372000Y345000D02*
D03*
X327000Y354000D02*
D03*
X343000Y349000D02*
D03*
X452000Y471000D02*
D03*
X306000Y451000D02*
D03*
X316000Y446000D02*
D03*
X326000Y437000D02*
D03*
X332000Y420000D02*
D03*
X392000Y385000D02*
D03*
X437000D02*
D03*
X392000Y367000D02*
D03*
X449000Y349000D02*
D03*
X399000Y425000D02*
D03*
X252000Y370000D02*
D03*
X376000Y352000D02*
D03*
X248000Y358000D02*
D03*
X293000Y381000D02*
D03*
X535000Y412000D02*
D03*
X499000Y339000D02*
D03*
X485000Y325000D02*
D03*
X499000Y312000D02*
D03*
X510000Y407000D02*
D03*
X473000Y473000D02*
D03*
X434000Y441000D02*
D03*
X407000Y462000D02*
D03*
X402000Y457000D02*
D03*
X480000Y419000D02*
D03*
X485000Y364000D02*
D03*
Y374000D02*
D03*
Y384000D02*
D03*
Y394000D02*
D03*
X486000Y404000D02*
D03*
X471500Y349000D02*
D03*
X348000Y414000D02*
D03*
Y404000D02*
D03*
X342000Y399000D02*
D03*
X348000Y394000D02*
D03*
X343000Y359000D02*
D03*
X342000Y389000D02*
D03*
Y379000D02*
D03*
X348000Y384000D02*
D03*
X480000Y399000D02*
D03*
Y389000D02*
D03*
Y379000D02*
D03*
Y369000D02*
D03*
Y359000D02*
D03*
X348000Y354000D02*
D03*
Y364000D02*
D03*
X273000Y372000D02*
D03*
X348000Y374000D02*
D03*
X437000Y320000D02*
D03*
X209000Y335000D02*
D03*
X260000Y364000D02*
D03*
X235000Y402000D02*
D03*
X237000Y415000D02*
D03*
X242000Y421000D02*
D03*
X254000Y392000D02*
D03*
X292000Y457000D02*
D03*
X432000Y325000D02*
D03*
X422000Y322000D02*
D03*
X238000Y427000D02*
D03*
D73*
X184750Y325000D02*
D03*
Y460000D02*
D03*
Y455000D02*
D03*
Y450000D02*
D03*
Y445000D02*
D03*
Y485250D02*
D03*
Y465250D02*
D03*
Y475250D02*
D03*
Y470250D02*
D03*
Y480250D02*
D03*
Y440000D02*
D03*
Y430000D02*
D03*
Y410000D02*
D03*
Y390000D02*
D03*
Y370000D02*
D03*
Y350000D02*
D03*
Y310000D02*
D03*
Y435000D02*
D03*
Y415000D02*
D03*
Y425000D02*
D03*
Y420000D02*
D03*
Y395000D02*
D03*
Y405000D02*
D03*
Y400000D02*
D03*
Y375000D02*
D03*
Y385000D02*
D03*
Y380000D02*
D03*
Y355000D02*
D03*
Y365000D02*
D03*
Y360000D02*
D03*
Y315000D02*
D03*
Y320000D02*
D03*
Y305000D02*
D03*
D74*
X395500Y436500D02*
D03*
D75*
X565500Y323000D02*
D03*
D76*
X398500Y293000D02*
D03*
D77*
X184500Y314500D02*
D03*
M02*
