G04*
G04 #@! TF.GenerationSoftware,Altium Limited,Altium Designer,18.1.7 (191)*
G04*
G04 Layer_Physical_Order=1*
G04 Layer_Color=255*
%FSLAX44Y44*%
%MOMM*%
G71*
G01*
G75*
%ADD12R,0.6000X0.6000*%
%ADD13R,1.1500X0.6000*%
%ADD14R,1.1500X0.3000*%
%ADD23C,0.2540*%
%ADD24R,1.6000X1.6000*%
%ADD25R,2.0000X1.8000*%
%ADD26R,2.0000X1.2000*%
%ADD27R,2.3000X1.2000*%
%ADD28C,0.5080*%
G36*
X1284290Y465170D02*
X1284740D01*
Y462680D01*
X1293030D01*
Y460140D01*
X1284740D01*
Y456225D01*
X1248049D01*
X1240447Y463827D01*
X1239696Y464328D01*
X1238810Y464505D01*
X1212190D01*
X1211304Y464328D01*
X1210553Y463827D01*
X1202951Y456225D01*
X1195260D01*
Y460140D01*
X1186970D01*
Y462680D01*
X1195260D01*
Y465070D01*
X1195710D01*
Y471296D01*
X1284290D01*
Y465170D01*
D02*
G37*
G36*
X1355000Y375000D02*
X1276400D01*
Y395000D01*
X1254400D01*
Y375000D01*
X1251000D01*
Y395000D01*
X1229000D01*
Y375000D01*
X1227140D01*
Y383730D01*
X1214600D01*
Y386270D01*
X1227140D01*
Y396540D01*
X1228350Y396685D01*
X1276000D01*
X1276886Y396862D01*
X1277637Y397363D01*
X1283567Y403293D01*
X1284740Y402807D01*
Y400680D01*
X1293030D01*
Y398140D01*
X1284740D01*
Y395750D01*
X1284290D01*
Y388480D01*
X1296830D01*
X1309370D01*
Y395750D01*
X1306962D01*
X1306576Y397020D01*
X1307064Y397346D01*
X1308003Y398752D01*
X1308333Y400410D01*
X1308003Y402068D01*
X1307064Y403474D01*
X1305658Y404413D01*
X1304000Y404743D01*
X1302590Y404463D01*
X1301320Y404950D01*
Y404950D01*
X1299780D01*
Y410410D01*
Y420596D01*
X1303000D01*
X1303886Y420772D01*
X1304637Y421273D01*
X1305138Y422024D01*
X1305314Y422910D01*
Y432910D01*
X1305138Y433796D01*
X1305765Y434814D01*
X1305903Y434938D01*
X1306249Y434912D01*
X1306619Y434665D01*
X1308000Y434391D01*
X1309381Y434665D01*
X1310552Y435448D01*
X1311335Y436619D01*
X1311609Y438000D01*
X1311335Y439381D01*
X1310552Y440552D01*
X1309381Y441335D01*
X1308000Y441609D01*
X1306619Y441335D01*
X1305448Y440552D01*
X1305289Y440314D01*
X1299780D01*
Y450410D01*
X1299750D01*
Y455870D01*
X1301320D01*
X1301320Y455870D01*
X1302590Y456357D01*
X1304000Y456077D01*
X1305658Y456407D01*
X1307064Y457346D01*
X1308003Y458752D01*
X1308333Y460410D01*
X1308003Y462068D01*
X1307064Y463474D01*
X1306427Y463900D01*
X1306812Y465170D01*
X1309370D01*
Y472440D01*
X1296830D01*
Y473710D01*
X1295560D01*
Y482250D01*
X1284290D01*
Y475924D01*
X1195710D01*
Y482150D01*
X1184440D01*
Y473610D01*
X1183170D01*
Y472340D01*
X1170630D01*
Y465070D01*
X1173038D01*
X1173424Y463800D01*
X1172936Y463474D01*
X1171997Y462068D01*
X1171667Y460410D01*
X1171997Y458752D01*
X1172837Y457495D01*
X1172667Y456849D01*
X1172328Y456225D01*
X1171000D01*
X1170114Y456048D01*
X1169363Y455547D01*
X1168862Y454796D01*
X1168686Y453910D01*
Y406910D01*
X1168862Y406024D01*
X1169363Y405273D01*
X1170114Y404772D01*
X1171000Y404595D01*
X1172328D01*
X1172667Y403971D01*
X1172837Y403326D01*
X1171997Y402068D01*
X1171667Y400410D01*
X1171997Y398752D01*
X1172936Y397346D01*
X1173573Y396920D01*
X1173188Y395650D01*
X1170630D01*
Y388380D01*
X1183170D01*
Y387110D01*
X1184440D01*
Y378570D01*
X1195710D01*
Y384795D01*
X1202060D01*
Y375000D01*
X1125000D01*
Y485000D01*
X1355000D01*
Y375000D01*
D02*
G37*
G36*
X1245453Y452273D02*
X1246204Y451772D01*
X1247090Y451595D01*
X1261734D01*
X1262036Y451154D01*
X1262296Y450326D01*
X1261665Y449381D01*
X1261391Y448000D01*
X1261665Y446619D01*
X1262448Y445448D01*
X1263619Y444665D01*
X1264026Y444585D01*
X1263901Y443315D01*
X1237080D01*
Y446000D01*
X1235395D01*
Y450000D01*
X1237080D01*
Y458000D01*
X1229080D01*
Y450000D01*
X1230766D01*
Y446000D01*
X1229080D01*
Y438000D01*
X1237080D01*
Y438685D01*
X1269000D01*
X1269886Y438862D01*
X1270637Y439363D01*
X1271869Y440596D01*
X1286280D01*
Y435410D01*
X1286250Y435410D01*
Y435405D01*
X1285087Y435224D01*
X1205314D01*
Y437910D01*
X1205138Y438796D01*
X1204696Y439457D01*
X1204735Y439975D01*
X1204942Y440870D01*
X1205547Y441273D01*
X1214720Y450446D01*
X1215000Y450391D01*
X1216381Y450665D01*
X1217552Y451448D01*
X1217711Y451685D01*
X1218920D01*
Y450000D01*
X1226920D01*
Y458000D01*
X1218920D01*
Y456315D01*
X1217711D01*
X1217552Y456552D01*
X1216381Y457335D01*
X1215000Y457609D01*
X1213619Y457335D01*
X1212448Y456552D01*
X1211665Y455381D01*
X1211391Y454000D01*
X1211446Y453720D01*
X1202951Y445224D01*
X1193720D01*
Y451595D01*
X1203910D01*
X1204796Y451772D01*
X1205547Y452273D01*
X1213149Y459875D01*
X1237851D01*
X1245453Y452273D01*
D02*
G37*
G36*
X1286280Y425410D02*
Y420224D01*
X1278452D01*
X1278000Y420314D01*
X1272959D01*
X1270717Y422557D01*
X1269966Y423058D01*
X1269080Y423234D01*
X1245402D01*
X1245000Y423315D01*
X1237080D01*
Y424000D01*
X1229080D01*
Y416000D01*
X1230766D01*
Y412000D01*
X1229080D01*
Y404000D01*
X1237080D01*
Y412000D01*
X1235395D01*
Y416000D01*
X1237080D01*
Y418605D01*
X1268121D01*
X1270232Y416494D01*
X1270153Y415951D01*
X1269782Y415224D01*
X1267771D01*
X1267552Y415552D01*
X1266381Y416335D01*
X1265000Y416609D01*
X1263619Y416335D01*
X1262448Y415552D01*
X1261665Y414381D01*
X1261391Y413000D01*
X1261665Y411619D01*
X1262448Y410448D01*
X1263619Y409665D01*
X1265000Y409391D01*
X1266381Y409665D01*
X1267552Y410448D01*
X1267651Y410596D01*
X1286280D01*
Y409225D01*
X1283910D01*
X1283024Y409048D01*
X1282273Y408547D01*
X1275041Y401315D01*
X1211959D01*
X1204727Y408547D01*
X1203976Y409048D01*
X1203090Y409225D01*
X1193750D01*
Y410596D01*
X1209131D01*
X1210446Y409280D01*
X1210391Y409000D01*
X1210665Y407619D01*
X1211448Y406448D01*
X1212619Y405665D01*
X1214000Y405391D01*
X1215381Y405665D01*
X1216552Y406448D01*
X1216711Y406685D01*
X1218920D01*
Y404000D01*
X1226920D01*
Y412000D01*
X1223093D01*
X1222886Y412138D01*
X1222000Y412314D01*
X1221114Y412138D01*
X1220907Y412000D01*
X1218920D01*
Y411315D01*
X1216711D01*
X1216552Y411552D01*
X1215381Y412335D01*
X1214000Y412609D01*
X1213720Y412554D01*
X1211727Y414547D01*
X1210976Y415048D01*
X1210090Y415224D01*
X1203647D01*
X1203522Y416494D01*
X1204381Y416665D01*
X1205552Y417448D01*
X1205711Y417686D01*
X1218920D01*
Y416000D01*
X1226920D01*
Y424000D01*
X1218920D01*
Y422314D01*
X1205711D01*
X1205552Y422552D01*
X1204381Y423335D01*
X1203000Y423609D01*
X1201619Y423335D01*
X1201584Y423312D01*
X1200314Y423991D01*
Y425596D01*
X1277471D01*
X1277665Y424619D01*
X1278448Y423448D01*
X1279619Y422665D01*
X1281000Y422391D01*
X1282381Y422665D01*
X1283552Y423448D01*
X1284335Y424619D01*
X1284529Y425596D01*
X1285087D01*
X1286280Y425410D01*
D02*
G37*
%LPC*%
G36*
X1349470Y482250D02*
X1336700D01*
Y474980D01*
X1349470D01*
Y482250D01*
D02*
G37*
G36*
X1309370D02*
X1298100D01*
Y474980D01*
X1309370D01*
Y482250D01*
D02*
G37*
G36*
X1334160D02*
X1321390D01*
Y474980D01*
X1334160D01*
Y482250D01*
D02*
G37*
G36*
X1181900Y482150D02*
X1170630D01*
Y474880D01*
X1181900D01*
Y482150D01*
D02*
G37*
G36*
X1158610D02*
X1145840D01*
Y474880D01*
X1158610D01*
Y482150D01*
D02*
G37*
G36*
X1143300D02*
X1130530D01*
Y474880D01*
X1143300D01*
Y482150D01*
D02*
G37*
G36*
X1349470Y472440D02*
X1336700D01*
Y465170D01*
X1349470D01*
Y472440D01*
D02*
G37*
G36*
X1334160D02*
X1321390D01*
Y465170D01*
X1334160D01*
Y472440D01*
D02*
G37*
G36*
X1158610Y472340D02*
X1145840D01*
Y465070D01*
X1158610D01*
Y472340D01*
D02*
G37*
G36*
X1143300D02*
X1130530D01*
Y465070D01*
X1143300D01*
Y472340D01*
D02*
G37*
G36*
X1349470Y395750D02*
X1336700D01*
Y388480D01*
X1349470D01*
Y395750D01*
D02*
G37*
G36*
X1334160D02*
X1321390D01*
Y388480D01*
X1334160D01*
Y395750D01*
D02*
G37*
G36*
X1158610Y395650D02*
X1145840D01*
Y388380D01*
X1158610D01*
Y395650D01*
D02*
G37*
G36*
X1143300D02*
X1130530D01*
Y388380D01*
X1143300D01*
Y395650D01*
D02*
G37*
G36*
X1349470Y385940D02*
X1336700D01*
Y378670D01*
X1349470D01*
Y385940D01*
D02*
G37*
G36*
X1334160D02*
X1321390D01*
Y378670D01*
X1334160D01*
Y385940D01*
D02*
G37*
G36*
X1309370D02*
X1298100D01*
Y378670D01*
X1309370D01*
Y385940D01*
D02*
G37*
G36*
X1295560D02*
X1284290D01*
Y378670D01*
X1295560D01*
Y385940D01*
D02*
G37*
G36*
X1181900Y385840D02*
X1170630D01*
Y378570D01*
X1181900D01*
Y385840D01*
D02*
G37*
G36*
X1158610D02*
X1145840D01*
Y378570D01*
X1158610D01*
Y385840D01*
D02*
G37*
G36*
X1143300D02*
X1130530D01*
Y378570D01*
X1143300D01*
Y385840D01*
D02*
G37*
G36*
X1226920Y446000D02*
X1218920D01*
Y443315D01*
X1216711D01*
X1216552Y443552D01*
X1215381Y444335D01*
X1214000Y444609D01*
X1212619Y444335D01*
X1211448Y443552D01*
X1210665Y442381D01*
X1210391Y441000D01*
X1210665Y439619D01*
X1211448Y438448D01*
X1212619Y437665D01*
X1214000Y437391D01*
X1215381Y437665D01*
X1216552Y438448D01*
X1216711Y438685D01*
X1218920D01*
Y438000D01*
X1226920D01*
Y446000D01*
D02*
G37*
%LPD*%
D12*
X1233080Y408000D02*
D03*
X1222920D02*
D03*
X1233080Y442000D02*
D03*
X1222920D02*
D03*
X1233080Y454000D02*
D03*
X1222920D02*
D03*
X1233080Y420000D02*
D03*
X1222920D02*
D03*
D13*
X1293030Y461410D02*
D03*
X1293000Y453910D02*
D03*
X1293030Y406910D02*
D03*
Y399410D02*
D03*
X1186970Y399410D02*
D03*
X1187000Y406910D02*
D03*
X1186970Y453910D02*
D03*
Y461410D02*
D03*
D14*
X1293030Y447910D02*
D03*
Y442910D02*
D03*
Y437910D02*
D03*
X1293000Y432910D02*
D03*
X1293030Y427910D02*
D03*
Y422910D02*
D03*
Y417910D02*
D03*
Y412910D02*
D03*
X1186970D02*
D03*
Y417910D02*
D03*
Y422910D02*
D03*
X1187000Y427910D02*
D03*
X1186970Y432910D02*
D03*
Y437910D02*
D03*
Y442910D02*
D03*
Y447910D02*
D03*
D23*
X1253000Y325000D02*
Y368000D01*
X1240000D02*
X1253000D01*
X1265000Y447000D02*
X1266000Y448000D01*
X1265000Y412910D02*
X1293030D01*
X1214600Y360000D02*
X1240000D01*
X1296390Y473610D02*
X1296560Y473440D01*
X1297000Y473000D01*
X1240000Y368000D02*
Y380000D01*
X1214600Y325000D02*
X1253000D01*
X1214600Y312300D02*
Y325000D01*
X1240000Y337700D02*
Y360000D01*
X1214600D02*
Y385000D01*
X1208890Y387110D02*
X1212000Y384000D01*
X1183170Y387110D02*
X1208890D01*
X1293030Y469910D02*
X1296560Y473440D01*
X1183170Y473610D02*
X1296390D01*
X1233080Y420920D02*
X1244920D01*
X1232920D02*
X1233080D01*
X1272000Y418000D02*
X1278000D01*
X1269080Y420920D02*
X1272000Y418000D01*
X1244920Y420920D02*
X1269080D01*
X1211000Y399000D02*
X1276000D01*
X1203090Y406910D02*
X1211000Y399000D01*
X1190000Y406910D02*
X1203090D01*
X1221000Y409000D02*
X1222000Y410000D01*
X1214000Y409000D02*
X1214000D01*
X1210090Y412910D02*
X1214000Y409000D01*
X1186970Y412910D02*
X1210090D01*
X1214000Y409000D02*
X1221000D01*
X1212190Y462190D02*
X1238810D01*
X1203910Y453910D02*
X1212190Y462190D01*
X1186970Y453910D02*
X1203910D01*
X1247090D02*
X1293000D01*
X1238810Y462190D02*
X1247090Y453910D01*
X1233080Y420920D02*
Y421000D01*
Y411000D02*
Y420920D01*
X1278090Y417910D02*
X1293030D01*
X1292910Y432910D02*
X1293000Y433000D01*
X1203000Y432910D02*
X1292910D01*
X1203000D02*
Y437910D01*
X1203910Y442910D02*
X1215000Y454000D01*
X1186970Y442910D02*
X1203910D01*
X1186970Y432910D02*
X1198000D01*
Y427910D02*
Y432910D01*
X1171000Y406910D02*
Y453910D01*
X1222920Y454000D02*
X1224000D01*
X1215000D02*
X1222920D01*
X1176000Y427910D02*
Y437910D01*
Y427910D02*
X1187000D01*
X1214000Y441000D02*
X1222000D01*
X1203000Y420000D02*
X1221000D01*
X1222000Y421000D01*
X1233080Y442920D02*
X1234000Y442000D01*
X1269000Y441000D02*
X1270910Y442910D01*
X1234000Y441000D02*
X1269000D01*
X1198000Y427910D02*
X1293030D01*
X1293120Y438000D02*
X1308000D01*
X1293030Y437910D02*
X1293120Y438000D01*
X1270910Y442910D02*
X1293030D01*
X1280910Y447910D02*
X1293030D01*
X1280820Y448000D02*
X1280910Y447910D01*
X1266000Y448000D02*
X1280820D01*
X1244920Y420920D02*
X1245000Y421000D01*
X1233080D02*
X1245000D01*
X1233080Y442920D02*
Y452000D01*
X1233000Y443000D02*
X1233080Y442920D01*
X1265000Y447000D02*
Y448000D01*
X1276000Y399000D02*
X1283910Y406910D01*
X1287030D01*
X1292940Y438000D02*
X1293030Y437910D01*
Y427910D02*
X1293090D01*
X1293030Y391010D02*
X1296830Y387210D01*
X1293030Y391010D02*
Y399410D01*
Y461410D02*
Y469910D01*
X1183170Y473610D02*
X1186970Y469810D01*
Y461410D02*
Y469810D01*
X1183170Y387110D02*
X1186970Y390910D01*
Y399410D01*
X1171000Y453910D02*
X1186970D01*
X1171000Y406910D02*
X1187000D01*
X1189970Y437910D02*
X1203000D01*
X1198000Y422910D02*
Y427910D01*
X1293000Y432910D02*
X1303000D01*
Y422910D02*
Y432910D01*
X1293030Y422910D02*
X1303000D01*
X1186970D02*
X1198000D01*
X1176000Y437910D02*
X1186970D01*
Y399410D02*
Y399410D01*
D24*
X1189200Y337700D02*
D03*
X1214600D02*
D03*
X1240000D02*
D03*
X1265400D02*
D03*
X1290800D02*
D03*
Y312300D02*
D03*
X1265400D02*
D03*
X1240000D02*
D03*
X1214600D02*
D03*
X1189200D02*
D03*
D25*
X1265400Y385000D02*
D03*
X1240000D02*
D03*
X1214600D02*
D03*
D26*
X1296830Y473710D02*
D03*
Y387210D02*
D03*
X1183170Y387110D02*
D03*
Y473610D02*
D03*
D27*
X1335430Y473710D02*
D03*
Y387210D02*
D03*
X1144570Y387110D02*
D03*
Y473610D02*
D03*
D28*
X1265000Y413000D02*
D03*
X1214000Y409000D02*
D03*
X1203000Y420000D02*
D03*
X1214000Y441000D02*
D03*
X1215000Y454000D02*
D03*
X1308000Y438000D02*
D03*
X1265000Y448000D02*
D03*
X1281000Y426000D02*
D03*
M02*
