M48
;Layer_Color=9474304
;FILE_FORMAT=4:4
METRIC,LZ
;TYPE=PLATED
T1F00S00C0.2540
T3F00S00C0.9000
;TYPE=NON_PLATED
T4F00S00C0.6500
%
T01
X01203Y0042
X01214Y00409
Y00441
X01215Y00454
X01265Y00448
Y00413
X01281Y00426
X01308Y00438
T03
X011892Y003123
Y003377
X012146
X0124
X012654
X012908
Y003123
X012654
X0124
X012146
Y00385
X0124
X012654
T04
X01304Y0040041
Y0046041
X01176Y0046041
Y0040041
M30
