G04*
G04 #@! TF.GenerationSoftware,Altium Limited,Altium Designer,18.1.7 (191)*
G04*
G04 Layer_Color=8388736*
%FSLAX44Y44*%
%MOMM*%
G71*
G01*
G75*
%ADD16R,1.7532X0.5032*%
%ADD17R,2.9532X1.4032*%
%ADD18R,1.8032X1.8032*%
%ADD19C,1.7272*%
%ADD20C,0.2032*%
%ADD21R,1.8032X1.8032*%
%ADD22C,1.3552*%
D16*
X1862400Y1297500D02*
D03*
Y1412500D02*
D03*
Y1407500D02*
D03*
Y1402500D02*
D03*
Y1397500D02*
D03*
Y1392500D02*
D03*
Y1387500D02*
D03*
Y1357500D02*
D03*
Y1352500D02*
D03*
Y1347500D02*
D03*
Y1342500D02*
D03*
Y1337500D02*
D03*
Y1332500D02*
D03*
Y1327500D02*
D03*
Y1322500D02*
D03*
Y1317500D02*
D03*
Y1312500D02*
D03*
Y1307500D02*
D03*
X1787400Y1260000D02*
D03*
Y1405000D02*
D03*
Y1410000D02*
D03*
Y1395000D02*
D03*
Y1390000D02*
D03*
X1787397Y1365000D02*
D03*
Y1345000D02*
D03*
X1787399Y1355000D02*
D03*
X1787397Y1350000D02*
D03*
X1787400Y1325000D02*
D03*
X1787399Y1335000D02*
D03*
X1787397Y1330000D02*
D03*
X1787400Y1305000D02*
D03*
Y1315000D02*
D03*
Y1310000D02*
D03*
Y1285000D02*
D03*
Y1295000D02*
D03*
Y1290000D02*
D03*
X1787397Y1340000D02*
D03*
Y1360000D02*
D03*
X1787400Y1400000D02*
D03*
Y1300000D02*
D03*
Y1320000D02*
D03*
X1862400Y1292500D02*
D03*
Y1362500D02*
D03*
Y1302500D02*
D03*
X1787400Y1275000D02*
D03*
Y1270000D02*
D03*
Y1265000D02*
D03*
Y1280000D02*
D03*
X1862400Y1287500D02*
D03*
Y1282500D02*
D03*
Y1277500D02*
D03*
Y1272500D02*
D03*
Y1267500D02*
D03*
Y1262500D02*
D03*
Y1257500D02*
D03*
Y1252500D02*
D03*
Y1247500D02*
D03*
Y1242500D02*
D03*
Y1237500D02*
D03*
X1787400Y1255000D02*
D03*
Y1250000D02*
D03*
Y1245000D02*
D03*
Y1240000D02*
D03*
Y1235000D02*
D03*
X1862400Y1232500D02*
D03*
Y1227500D02*
D03*
X1787400Y1230000D02*
D03*
D17*
X1853900Y1422500D02*
D03*
Y1217500D02*
D03*
D18*
X965200Y1193800D02*
D03*
X939800D02*
D03*
X990600D02*
D03*
X1016000D02*
D03*
X1752600Y1447800D02*
D03*
X1727200D02*
D03*
X1701800D02*
D03*
X1676400D02*
D03*
X1651000D02*
D03*
X1625600D02*
D03*
X1600200D02*
D03*
X1574800D02*
D03*
X1549400D02*
D03*
X1524000D02*
D03*
X1498600D02*
D03*
X1473200D02*
D03*
X1447800D02*
D03*
X1422400D02*
D03*
X1397000D02*
D03*
X1371600D02*
D03*
X1346200D02*
D03*
X1320800D02*
D03*
X1295400D02*
D03*
X1270000D02*
D03*
X1244600D02*
D03*
X1219200D02*
D03*
X1193800D02*
D03*
X1168400D02*
D03*
X965200D02*
D03*
X939800D02*
D03*
X990600D02*
D03*
X1016000D02*
D03*
X1041400D02*
D03*
X1066800D02*
D03*
X1092200D02*
D03*
X1117600D02*
D03*
X1143000D02*
D03*
X1041400Y1193800D02*
D03*
X1066800D02*
D03*
X1092200D02*
D03*
X1117600D02*
D03*
X1143000D02*
D03*
X1168400D02*
D03*
X1193800D02*
D03*
X1219200D02*
D03*
X1244600D02*
D03*
X1270000D02*
D03*
X1295400D02*
D03*
X1320800D02*
D03*
X1346200D02*
D03*
X1371600D02*
D03*
X1397000D02*
D03*
X1422400D02*
D03*
X1447800D02*
D03*
X1473200D02*
D03*
X1498600D02*
D03*
X1524000D02*
D03*
X1549400D02*
D03*
X1574800D02*
D03*
X1600200D02*
D03*
X1625600D02*
D03*
X1651000D02*
D03*
X1676400D02*
D03*
X1701800D02*
D03*
X1727200D02*
D03*
X1752600D02*
D03*
D19*
X962400Y1320000D02*
D03*
X967400D02*
D03*
X972400D02*
D03*
X977400D02*
D03*
X997400D02*
D03*
X992400D02*
D03*
X987400D02*
D03*
X982400D02*
D03*
X1017400D02*
D03*
X1012400D02*
D03*
X1007400D02*
D03*
X1002400D02*
D03*
X1016400D02*
D03*
X988400Y1240000D02*
D03*
Y1400000D02*
D03*
X1122400Y1268000D02*
D03*
X1232400D02*
D03*
X1183400D02*
D03*
X1065400Y1265000D02*
D03*
Y1378000D02*
D03*
D20*
X1809900Y1420000D02*
D03*
Y1220000D02*
D03*
D21*
X1935400Y1371800D02*
D03*
Y1346400D02*
D03*
Y1321000D02*
D03*
Y1295600D02*
D03*
Y1270200D02*
D03*
X1910000D02*
D03*
Y1295600D02*
D03*
Y1321000D02*
D03*
Y1346400D02*
D03*
Y1371800D02*
D03*
D22*
X1865000Y1447000D02*
D03*
Y1195000D02*
D03*
X915000D02*
D03*
Y1447000D02*
D03*
M02*
