G04*
G04 #@! TF.GenerationSoftware,Altium Limited,Altium Designer,18.1.7 (191)*
G04*
G04 Layer_Color=16711935*
%FSLAX44Y44*%
%MOMM*%
G71*
G01*
G75*
%ADD18R,1.8032X1.8032*%
%ADD19C,1.7272*%
%ADD20C,0.2032*%
%ADD21R,1.8032X1.8032*%
%ADD22C,1.3552*%
D18*
X1473200Y1193800D02*
D03*
X1447800D02*
D03*
X965200D02*
D03*
X939800D02*
D03*
X990600D02*
D03*
X1016000D02*
D03*
X1752600Y1447800D02*
D03*
X1727200D02*
D03*
X1701800D02*
D03*
X1676400D02*
D03*
X1651000D02*
D03*
X1625600D02*
D03*
X1600200D02*
D03*
X1574800D02*
D03*
X1549400D02*
D03*
X1524000D02*
D03*
X1498600D02*
D03*
X1473200D02*
D03*
X1447800D02*
D03*
X1422400D02*
D03*
X1397000D02*
D03*
X1371600D02*
D03*
X1346200D02*
D03*
X1320800D02*
D03*
X1295400D02*
D03*
X1270000D02*
D03*
X1244600D02*
D03*
X1219200D02*
D03*
X1193800D02*
D03*
X1168400D02*
D03*
X965200D02*
D03*
X939800D02*
D03*
X990600D02*
D03*
X1016000D02*
D03*
X1041400D02*
D03*
X1066800D02*
D03*
X1092200D02*
D03*
X1117600D02*
D03*
X1143000D02*
D03*
X1041400Y1193800D02*
D03*
X1066800D02*
D03*
X1092200D02*
D03*
X1117600D02*
D03*
X1143000D02*
D03*
X1168400D02*
D03*
X1193800D02*
D03*
X1219200D02*
D03*
X1244600D02*
D03*
X1270000D02*
D03*
X1295400D02*
D03*
X1320800D02*
D03*
X1346200D02*
D03*
X1371600D02*
D03*
X1397000D02*
D03*
X1422400D02*
D03*
X1498600D02*
D03*
X1524000D02*
D03*
X1549400D02*
D03*
X1574800D02*
D03*
X1600200D02*
D03*
X1625600D02*
D03*
X1651000D02*
D03*
X1676400D02*
D03*
X1701800D02*
D03*
X1727200D02*
D03*
X1752600D02*
D03*
D19*
X1572400Y1419000D02*
D03*
X1162900D02*
D03*
X1065400Y1378000D02*
D03*
Y1265000D02*
D03*
X1183400Y1268000D02*
D03*
X1232400D02*
D03*
X1122400D02*
D03*
X988400Y1400000D02*
D03*
Y1240000D02*
D03*
X1016400Y1320000D02*
D03*
X1002400D02*
D03*
X1007400D02*
D03*
X1012400D02*
D03*
X1017400D02*
D03*
X982400D02*
D03*
X987400D02*
D03*
X992400D02*
D03*
X997400D02*
D03*
X977400D02*
D03*
X972400D02*
D03*
X967400D02*
D03*
X962400D02*
D03*
D20*
X1809900Y1220000D02*
D03*
Y1420000D02*
D03*
D21*
X2002700Y1370800D02*
D03*
Y1345400D02*
D03*
Y1320000D02*
D03*
Y1294600D02*
D03*
Y1269200D02*
D03*
X1977300D02*
D03*
Y1294600D02*
D03*
Y1320000D02*
D03*
Y1345400D02*
D03*
Y1370800D02*
D03*
X1932700D02*
D03*
Y1345400D02*
D03*
Y1320000D02*
D03*
Y1294600D02*
D03*
Y1269200D02*
D03*
X1907300D02*
D03*
Y1294600D02*
D03*
Y1320000D02*
D03*
Y1345400D02*
D03*
Y1370800D02*
D03*
D22*
X1865000Y1447000D02*
D03*
Y1195000D02*
D03*
X915000D02*
D03*
Y1447000D02*
D03*
M02*
