M48
;Layer_Color=9474304
;FILE_FORMAT=4:4
METRIC,LZ
;TYPE=PLATED
T1F00S00C0.2540
T2F00S00C0.7620
T3F00S00C0.9000
;TYPE=NON_PLATED
T4F00S00C1.1000
T5F00S00C1.1520
T6F00S00C1.6000
T7F00S00C2.0000
%
T01
X0163Y01425
X018274Y01413
X018324Y014075
Y013975
X018274Y013925
X018324Y013875
X018274Y01363
Y013525
X018324Y013575
Y013475
X018274Y013425
X018324Y013375
Y013275
X018274Y013325
Y013225
X018324Y013175
Y013075
X018274Y013025
Y013125
X018324Y012975
X018274Y012925
Y012825
X018324Y012875
Y012775
X018274Y012725
X018324Y012675
Y012575
Y012475
X018274Y012525
Y012625
Y012425
X018324Y012375
X018274Y012325
X018324Y012275
X0188Y01307
X0192Y0132
Y01385
X012534Y01397
T02
X016002Y011938
X016256
X01651
X016764
X017018
X017272
X017526
Y014478
X017272
X017018
X016764
X01651
X016256
X016002
X015748
X015494
X01524
X014986
X014732
X014478
X014224
X01397
X013716
X013462
X013208
X012954
X0127
X012446
X012192
X011938
Y011938
X012192
X012446
X0127
X012954
X013208
X013462
X013716
X01397
X014224
X014478
X014732
X014986
X01524
X015494
X015748
X011684
X01143
X011176
X010922
X010668
X010414
X01016
X009906
X009652
X009398
Y014478
X009652
X009906
X01016
X010414
X010668
X010922
X011176
X01143
X011684
T03
X020027Y012692
Y012946
Y0132
Y013454
Y013708
X019773
Y013454
Y0132
Y012946
Y012692
X019327
Y012946
Y0132
Y013454
Y013708
X019073
Y013454
Y0132
Y012946
Y012692
T04
X018099Y0142
T05
X01865Y01195
Y01447
X00915
Y01195
T06
X018099Y0122
T07
X012324Y01268
X011834
M30
