G04*
G04 #@! TF.GenerationSoftware,Altium Limited,Altium Designer,18.1.7 (191)*
G04*
G04 Layer_Physical_Order=2*
G04 Layer_Color=16711680*
%FSLAX44Y44*%
%MOMM*%
G71*
G01*
G75*
%ADD12C,0.2540*%
%ADD21R,1.6000X1.6000*%
%ADD22C,1.1520*%
%ADD23R,1.6000X1.6000*%
%ADD24C,0.5080*%
D12*
X1832000Y1207000D02*
Y1227500D01*
X1752500Y1193500D02*
Y1207000D01*
X1832000D01*
X1820000Y1413000D02*
Y1429000D01*
X1800000D02*
X1820000D01*
X1800000Y1413000D02*
Y1429000D01*
X1820000Y1413000D02*
X1827400D01*
X940000D02*
X1800000D01*
X940000Y1192000D02*
Y1413000D01*
X1832000Y1407000D02*
Y1407500D01*
X1832400D01*
X965000D02*
X1832000D01*
X965000Y1194000D02*
Y1407500D01*
X1832000Y1397000D02*
Y1397500D01*
X1832400D01*
X991000D02*
X1832000D01*
X991000Y1195000D02*
Y1397500D01*
X1828000Y1392500D02*
Y1393000D01*
X1016000Y1193000D02*
Y1392500D01*
X1827400D01*
X1832000Y1387000D02*
Y1387500D01*
X1832400D01*
X1042000D02*
X1832000D01*
X1042000Y1197000D02*
Y1387500D01*
X1827400Y1392500D02*
X1828000D01*
Y1232500D02*
Y1233000D01*
X1827400Y1232500D02*
X1828000D01*
X1727200D02*
X1827400D01*
X1833000Y1237000D02*
Y1237500D01*
X1832400D02*
X1833000D01*
X1701800D02*
X1832400D01*
X1827000Y1242500D02*
Y1243000D01*
X1676400Y1242500D02*
X1827000D01*
X1833000Y1247500D02*
Y1248000D01*
X1832400Y1247500D02*
X1833000D01*
X1651000D02*
X1832400D01*
X1827000Y1252000D02*
Y1252500D01*
X1625600D02*
X1827000D01*
X1832000Y1257000D02*
Y1257500D01*
X1600200D02*
X1832000D01*
X1828000Y1262000D02*
Y1262500D01*
X1827400D02*
X1828000D01*
X1574800D02*
X1827400D01*
X1832000Y1267000D02*
Y1267500D01*
X1549400D02*
X1832000D01*
X1827000Y1272000D02*
Y1272500D01*
X1524000D02*
X1827000D01*
X1833000Y1277000D02*
Y1277500D01*
X1832400D02*
X1833000D01*
X1498600D02*
X1832400D01*
X1422400Y1292500D02*
X1802000D01*
X1828000Y1292000D02*
Y1292500D01*
X1827400D02*
X1828000D01*
X1802000D02*
X1827400D01*
X1832000Y1297500D02*
Y1298000D01*
X1397000Y1297500D02*
X1832000D01*
X1827000Y1302500D02*
Y1303000D01*
X1371600Y1302500D02*
X1827000D01*
X1346200Y1307500D02*
X1832000D01*
Y1308000D01*
X1828000Y1312000D02*
Y1312500D01*
X1827400D02*
X1828000D01*
X1320800D02*
X1827400D01*
X1833000Y1317500D02*
Y1318000D01*
X1832400Y1317500D02*
X1833000D01*
X1295400D02*
X1832400D01*
X1828000Y1322500D02*
Y1323000D01*
X1827400Y1322500D02*
X1828000D01*
X1270000D02*
X1827400D01*
X1832000Y1327000D02*
Y1327500D01*
X1244600D02*
X1832000D01*
X1828000Y1332500D02*
Y1333000D01*
X1827400Y1332500D02*
X1828000D01*
X1219200D02*
X1827400D01*
X1832000Y1337000D02*
Y1337500D01*
X1193800D02*
X1832000D01*
X1828000Y1342500D02*
Y1343000D01*
X1827400Y1342500D02*
X1828000D01*
X1802000D02*
X1827400D01*
X1832000Y1347000D02*
Y1347500D01*
X1143000D02*
X1832000D01*
X1827000Y1352500D02*
Y1353000D01*
X1117600Y1352500D02*
X1827000D01*
X1832000Y1357000D02*
Y1357500D01*
X1092200D02*
X1832000D01*
X1168400Y1193800D02*
Y1342500D01*
X1802000Y1342500D01*
X1066800Y1363000D02*
X1827000D01*
X1066800Y1194000D02*
Y1363000D01*
X1092200Y1192000D02*
Y1357500D01*
X1117600Y1193000D02*
Y1352500D01*
X1143000Y1193000D02*
Y1347500D01*
X1193800Y1193000D02*
Y1337500D01*
X1219200Y1193500D02*
Y1332500D01*
X1244600Y1191000D02*
Y1327500D01*
X1270000Y1193000D02*
Y1322500D01*
X1295400Y1193500D02*
Y1317500D01*
X1320800Y1193800D02*
Y1312500D01*
X1346200Y1196500D02*
Y1307500D01*
X1371600Y1195000D02*
Y1302500D01*
X1397000Y1197500D02*
Y1297500D01*
X1422400Y1193800D02*
Y1292500D01*
X1498600Y1193000D02*
Y1277500D01*
X1524000Y1193000D02*
Y1272500D01*
X1549400Y1194000D02*
Y1267500D01*
X1574800Y1193000D02*
Y1262500D01*
X1600200Y1193500D02*
Y1257500D01*
X1625600Y1194000D02*
Y1252500D01*
X1651000Y1193500D02*
Y1247500D01*
X1676400Y1193800D02*
Y1242500D01*
X1701800Y1193000D02*
Y1237500D01*
X1727200Y1194000D02*
Y1232500D01*
D21*
X1935400Y1371800D02*
D03*
Y1346400D02*
D03*
Y1321000D02*
D03*
Y1295600D02*
D03*
Y1270200D02*
D03*
X1910000D02*
D03*
Y1295600D02*
D03*
Y1321000D02*
D03*
Y1346400D02*
D03*
Y1371800D02*
D03*
D22*
X1865000Y1447000D02*
D03*
Y1195000D02*
D03*
X915000D02*
D03*
Y1447000D02*
D03*
D23*
X1752600Y1447800D02*
D03*
X1727200D02*
D03*
X1701800D02*
D03*
X1676400D02*
D03*
X1651000D02*
D03*
X1625600D02*
D03*
X1600200D02*
D03*
X1574800D02*
D03*
X1549400D02*
D03*
X1524000D02*
D03*
X1498600D02*
D03*
X1473200D02*
D03*
X1447800D02*
D03*
X1422400D02*
D03*
X1397000D02*
D03*
X1371600D02*
D03*
X1346200D02*
D03*
X1320800D02*
D03*
X1295400D02*
D03*
X1270000D02*
D03*
X1244600D02*
D03*
X1219200D02*
D03*
X1193800D02*
D03*
X1168400D02*
D03*
X965200D02*
D03*
X939800D02*
D03*
X990600D02*
D03*
X1016000D02*
D03*
X1041400D02*
D03*
X1066800D02*
D03*
X1092200D02*
D03*
X1117600D02*
D03*
X1143000D02*
D03*
X939800Y1193800D02*
D03*
X965200D02*
D03*
X990600D02*
D03*
X1016000D02*
D03*
X1041400D02*
D03*
X1066800D02*
D03*
X1092200D02*
D03*
X1117600D02*
D03*
X1143000D02*
D03*
X1168400D02*
D03*
X1193800D02*
D03*
X1219200D02*
D03*
X1244600D02*
D03*
X1270000D02*
D03*
X1295400D02*
D03*
X1320800D02*
D03*
X1346200D02*
D03*
X1371600D02*
D03*
X1397000D02*
D03*
X1422400D02*
D03*
X1447800D02*
D03*
X1473200D02*
D03*
X1498600D02*
D03*
X1524000D02*
D03*
X1549400D02*
D03*
X1574800D02*
D03*
X1600200D02*
D03*
X1625600D02*
D03*
X1651000D02*
D03*
X1676400D02*
D03*
X1701800D02*
D03*
X1727200D02*
D03*
X1752600D02*
D03*
D24*
X1827400Y1413000D02*
D03*
X1832400Y1407500D02*
D03*
Y1397500D02*
D03*
X1827400Y1392500D02*
D03*
X1832400Y1387500D02*
D03*
X1827400Y1232500D02*
D03*
X1832400Y1237500D02*
D03*
Y1227500D02*
D03*
Y1257500D02*
D03*
X1827400Y1242500D02*
D03*
X1832400Y1247500D02*
D03*
X1827400Y1252500D02*
D03*
X1832400Y1307500D02*
D03*
X1827400Y1302500D02*
D03*
X1832400Y1297500D02*
D03*
X1827400Y1292500D02*
D03*
X1832400Y1277500D02*
D03*
X1827400Y1272500D02*
D03*
X1832400Y1267500D02*
D03*
X1827400Y1262500D02*
D03*
X1832400Y1337500D02*
D03*
X1827400Y1312500D02*
D03*
X1832400Y1317500D02*
D03*
X1827400Y1322500D02*
D03*
X1832400Y1327500D02*
D03*
X1827400Y1332500D02*
D03*
Y1342500D02*
D03*
X1832400Y1347500D02*
D03*
X1827400Y1352500D02*
D03*
X1832400Y1357500D02*
D03*
X1827400Y1363000D02*
D03*
M02*
