G04*
G04 #@! TF.GenerationSoftware,Altium Limited,Altium Designer,18.1.7 (191)*
G04*
G04 Layer_Physical_Order=2*
G04 Layer_Color=16711680*
%FSLAX44Y44*%
%MOMM*%
G71*
G01*
G75*
%ADD12C,0.2540*%
%ADD24R,1.6000X1.6000*%
%ADD25C,1.5240*%
%ADD26R,1.6000X1.6000*%
%ADD27C,1.1520*%
%ADD28C,0.5080*%
D12*
X1473000Y1194000D02*
Y1282500D01*
X1827400D01*
X1448000Y1194000D02*
Y1287500D01*
X1832400D01*
X1171000Y1445000D02*
X1183000Y1433000D01*
X1242000D01*
X1253400Y1421600D01*
Y1397000D02*
Y1421600D01*
X1575000Y1445000D02*
X1585000Y1435000D01*
X1620000D01*
X1630000Y1425000D01*
Y1425000D02*
Y1425000D01*
X1832000Y1397000D02*
Y1397500D01*
X1828000Y1392500D02*
Y1393000D01*
X1015000Y1193000D02*
X1050000Y1228000D01*
X1827400Y1375000D02*
Y1392500D01*
X1820000Y1375000D02*
X1827400D01*
X1810000Y1375100D02*
X1820100D01*
X1810000Y1380000D02*
Y1397500D01*
X1809900Y1375000D02*
X1810000Y1375100D01*
X1130000Y1380000D02*
X1810000D01*
Y1397500D02*
X1832000D01*
X1832400D01*
X965000Y1194000D02*
X986000Y1215000D01*
X1805000Y1407500D02*
X1832400D01*
X1805000Y1385000D02*
Y1407500D01*
X1125000Y1385000D02*
X1805000Y1385000D01*
X1125000Y1310000D02*
Y1385000D01*
X940000Y1192000D02*
X973000Y1225000D01*
X1800000Y1390000D02*
Y1429000D01*
X1120000Y1390000D02*
X1800000D01*
X1120000Y1315000D02*
Y1390000D01*
X1130000Y1305000D02*
Y1380000D01*
X1135000Y1375000D02*
X1809900Y1375000D01*
X1135000Y1300000D02*
Y1375000D01*
X1832000Y1370000D02*
Y1387000D01*
X1140000Y1370000D02*
X1832000D01*
X1140000Y1295000D02*
Y1370000D01*
X1964000Y1307000D02*
X1975000Y1318000D01*
X1880000Y1307000D02*
X1964000D01*
X1920000Y1320000D02*
Y1385000D01*
X1035000Y1235000D02*
Y1315000D01*
X1120000D01*
X1040000Y1310000D02*
X1125000D01*
X1040000Y1232000D02*
Y1310000D01*
X1045000Y1230000D02*
Y1305000D01*
X1130000D01*
X1050000Y1228000D02*
Y1300000D01*
X1135000D01*
X1080000Y1235000D02*
Y1295000D01*
X1140000D01*
X1145000Y1363000D02*
X1827000D01*
X1145000Y1290000D02*
Y1363000D01*
X1085000Y1212200D02*
Y1290000D01*
X1145000D01*
X1832000Y1357000D02*
Y1357500D01*
X1090000Y1285000D02*
X1150000D01*
X1090000Y1235575D02*
Y1285000D01*
X1150000D02*
Y1357500D01*
X1832000D01*
X1092200Y1193800D02*
Y1233375D01*
Y1192000D02*
Y1193800D01*
X1090000Y1235575D02*
X1092200Y1233375D01*
X1023000Y1215000D02*
X1040000Y1232000D01*
X986000Y1215000D02*
X1023000D01*
X1025000Y1210000D02*
X1045000Y1230000D01*
X1006000Y1210000D02*
X1025000D01*
X1025000Y1225000D02*
X1035000Y1235000D01*
X973000Y1225000D02*
X1025000D01*
X991000Y1195000D02*
X1006000Y1210000D01*
X1042000Y1197000D02*
X1080000Y1235000D01*
X1066800Y1194000D02*
X1085000Y1212200D01*
X1828000Y1342500D02*
Y1343000D01*
X1165000Y1342500D02*
X1802000Y1342500D01*
X1165000Y1197200D02*
Y1342500D01*
Y1197200D02*
X1168400Y1193800D01*
X1832000Y1347000D02*
Y1347500D01*
X1143000Y1193000D02*
X1150000Y1200000D01*
X1160000Y1347500D02*
X1832000D01*
X1160000Y1240000D02*
Y1347500D01*
X1150000Y1230000D02*
X1160000Y1240000D01*
X1150000Y1200000D02*
Y1230000D01*
X1827000Y1352500D02*
Y1353000D01*
X1117600Y1193800D02*
Y1212600D01*
Y1193000D02*
Y1193800D01*
X1155000Y1250000D02*
Y1352500D01*
X1117600Y1212600D02*
X1155000Y1250000D01*
Y1352500D02*
X1827000D01*
X1832000Y1337000D02*
Y1337500D01*
X1193800Y1193800D02*
Y1213800D01*
Y1193000D02*
Y1193800D01*
X1210000Y1230000D02*
Y1337500D01*
X1193800Y1213800D02*
X1210000Y1230000D01*
Y1337500D02*
X1832000D01*
Y1207000D02*
Y1227500D01*
X1752500Y1193500D02*
Y1207000D01*
X1832000D01*
X1820000Y1413000D02*
Y1429000D01*
X1800000D02*
X1820000D01*
Y1413000D02*
X1827400D01*
X1832000Y1387500D02*
X1832400D01*
X1827400Y1392500D02*
X1828000D01*
Y1232500D02*
Y1233000D01*
X1827400Y1232500D02*
X1828000D01*
X1727200D02*
X1827400D01*
X1833000Y1237000D02*
Y1237500D01*
X1832400D02*
X1833000D01*
X1701800D02*
X1832400D01*
X1827000Y1242500D02*
Y1243000D01*
X1676400Y1242500D02*
X1827000D01*
X1833000Y1247500D02*
Y1248000D01*
X1832400Y1247500D02*
X1833000D01*
X1651000D02*
X1832400D01*
X1827000Y1252000D02*
Y1252500D01*
X1625600D02*
X1827000D01*
X1832000Y1257000D02*
Y1257500D01*
X1600200D02*
X1832000D01*
X1828000Y1262000D02*
Y1262500D01*
X1827400D02*
X1828000D01*
X1574800D02*
X1827400D01*
X1832000Y1267000D02*
Y1267500D01*
X1549400D02*
X1832000D01*
X1827000Y1272000D02*
Y1272500D01*
X1524000D02*
X1827000D01*
X1833000Y1277000D02*
Y1277500D01*
X1832400D02*
X1833000D01*
X1498600D02*
X1832400D01*
X1422400Y1292500D02*
X1802000D01*
X1828000Y1292000D02*
Y1292500D01*
X1827400D02*
X1828000D01*
X1802000D02*
X1827400D01*
X1832000Y1297500D02*
Y1298000D01*
X1397000Y1297500D02*
X1832000D01*
X1827000Y1302500D02*
Y1303000D01*
X1371600Y1302500D02*
X1827000D01*
X1346200Y1307500D02*
X1832000D01*
Y1308000D01*
X1828000Y1312000D02*
Y1312500D01*
X1827400D02*
X1828000D01*
X1320800D02*
X1827400D01*
X1833000Y1317500D02*
Y1318000D01*
X1832400Y1317500D02*
X1833000D01*
X1295400D02*
X1832400D01*
X1828000Y1322500D02*
Y1323000D01*
X1827400Y1322500D02*
X1828000D01*
X1270000D02*
X1827400D01*
X1832000Y1327000D02*
Y1327500D01*
X1244600D02*
X1832000D01*
X1828000Y1332500D02*
Y1333000D01*
X1827400Y1332500D02*
X1828000D01*
X1219200D02*
X1827400D01*
Y1342500D02*
X1828000D01*
X1802000D02*
X1827400D01*
X1219200Y1193500D02*
Y1332500D01*
X1244600Y1191000D02*
Y1327500D01*
X1270000Y1193000D02*
Y1322500D01*
X1295400Y1193500D02*
Y1317500D01*
X1320800Y1193800D02*
Y1312500D01*
X1346200Y1196500D02*
Y1307500D01*
X1371600Y1195000D02*
Y1302500D01*
X1397000Y1197500D02*
Y1297500D01*
X1422400Y1193800D02*
Y1292500D01*
X1498600Y1193000D02*
Y1277500D01*
X1524000Y1193000D02*
Y1272500D01*
X1549400Y1194000D02*
Y1267500D01*
X1574800Y1193000D02*
Y1262500D01*
X1600200Y1193500D02*
Y1257500D01*
X1625600Y1194000D02*
Y1252500D01*
X1651000Y1193500D02*
Y1247500D01*
X1676400Y1193800D02*
Y1242500D01*
X1701800Y1193000D02*
Y1237500D01*
X1727200Y1194000D02*
Y1232500D01*
D24*
X1473200Y1193800D02*
D03*
X1447800D02*
D03*
X965200D02*
D03*
X939800D02*
D03*
X990600D02*
D03*
X1016000D02*
D03*
X1752600Y1447800D02*
D03*
X1727200D02*
D03*
X1701800D02*
D03*
X1676400D02*
D03*
X1651000D02*
D03*
X1625600D02*
D03*
X1600200D02*
D03*
X1574800D02*
D03*
X1549400D02*
D03*
X1524000D02*
D03*
X1498600D02*
D03*
X1473200D02*
D03*
X1447800D02*
D03*
X1422400D02*
D03*
X1397000D02*
D03*
X1371600D02*
D03*
X1346200D02*
D03*
X1320800D02*
D03*
X1295400D02*
D03*
X1270000D02*
D03*
X1244600D02*
D03*
X1219200D02*
D03*
X1193800D02*
D03*
X1168400D02*
D03*
X965200D02*
D03*
X939800D02*
D03*
X990600D02*
D03*
X1016000D02*
D03*
X1041400D02*
D03*
X1066800D02*
D03*
X1092200D02*
D03*
X1117600D02*
D03*
X1143000D02*
D03*
X1041400Y1193800D02*
D03*
X1066800D02*
D03*
X1092200D02*
D03*
X1117600D02*
D03*
X1143000D02*
D03*
X1168400D02*
D03*
X1193800D02*
D03*
X1219200D02*
D03*
X1244600D02*
D03*
X1270000D02*
D03*
X1295400D02*
D03*
X1320800D02*
D03*
X1346200D02*
D03*
X1371600D02*
D03*
X1397000D02*
D03*
X1422400D02*
D03*
X1498600D02*
D03*
X1524000D02*
D03*
X1549400D02*
D03*
X1574800D02*
D03*
X1600200D02*
D03*
X1625600D02*
D03*
X1651000D02*
D03*
X1676400D02*
D03*
X1701800D02*
D03*
X1727200D02*
D03*
X1752600D02*
D03*
D25*
X1572400Y1419000D02*
D03*
X1162900D02*
D03*
X1065400Y1378000D02*
D03*
Y1265000D02*
D03*
X1183400Y1268000D02*
D03*
X1232400D02*
D03*
X1122400D02*
D03*
X988400Y1400000D02*
D03*
Y1240000D02*
D03*
X1016400Y1320000D02*
D03*
X1002400D02*
D03*
X1007400D02*
D03*
X1012400D02*
D03*
X1017400D02*
D03*
X982400D02*
D03*
X987400D02*
D03*
X992400D02*
D03*
X997400D02*
D03*
X977400D02*
D03*
X972400D02*
D03*
X967400D02*
D03*
X962400D02*
D03*
D26*
X2002700Y1370800D02*
D03*
Y1345400D02*
D03*
Y1320000D02*
D03*
Y1294600D02*
D03*
Y1269200D02*
D03*
X1977300D02*
D03*
Y1294600D02*
D03*
Y1320000D02*
D03*
Y1345400D02*
D03*
Y1370800D02*
D03*
X1932700D02*
D03*
Y1345400D02*
D03*
Y1320000D02*
D03*
Y1294600D02*
D03*
Y1269200D02*
D03*
X1907300D02*
D03*
Y1294600D02*
D03*
Y1320000D02*
D03*
Y1345400D02*
D03*
Y1370800D02*
D03*
D27*
X1865000Y1447000D02*
D03*
Y1195000D02*
D03*
X915000D02*
D03*
Y1447000D02*
D03*
D28*
X1827400Y1282500D02*
D03*
X1832400Y1287500D02*
D03*
X1253400Y1397000D02*
D03*
X1630000Y1425000D02*
D03*
X1880000Y1307000D02*
D03*
X1920000Y1385000D02*
D03*
Y1320000D02*
D03*
X1827400Y1413000D02*
D03*
X1832400Y1407500D02*
D03*
Y1397500D02*
D03*
X1827400Y1392500D02*
D03*
X1832400Y1387500D02*
D03*
X1827400Y1232500D02*
D03*
X1832400Y1237500D02*
D03*
Y1227500D02*
D03*
Y1257500D02*
D03*
X1827400Y1242500D02*
D03*
X1832400Y1247500D02*
D03*
X1827400Y1252500D02*
D03*
X1832400Y1307500D02*
D03*
X1827400Y1302500D02*
D03*
X1832400Y1297500D02*
D03*
X1827400Y1292500D02*
D03*
X1832400Y1277500D02*
D03*
X1827400Y1272500D02*
D03*
X1832400Y1267500D02*
D03*
X1827400Y1262500D02*
D03*
X1832400Y1337500D02*
D03*
X1827400Y1312500D02*
D03*
X1832400Y1317500D02*
D03*
X1827400Y1322500D02*
D03*
X1832400Y1327500D02*
D03*
X1827400Y1332500D02*
D03*
Y1342500D02*
D03*
X1832400Y1347500D02*
D03*
X1827400Y1352500D02*
D03*
X1832400Y1357500D02*
D03*
X1827400Y1363000D02*
D03*
M02*
