M48
;Layer_Color=9474304
;FILE_FORMAT=4:4
METRIC,LZ
;TYPE=PLATED
;TYPE=NON_PLATED
T8F00S00C2.0000
%
G90
G05
T08
G00X015324Y01419
M15
G01X016124
M16
G00X010979Y01419
M15
G01X012279
M16
G00X010654Y01363
M15
G01Y01393
M16
G00X010134Y014
M15
G01X009634
M16
G00X009874Y0124
M15
G01Y014
M16
G00X009824Y0124
M15
G01Y014
M16
G00X009774Y0124
M15
G01Y014
M16
G00X009724Y0124
M15
G01Y014
M16
G00X009674Y0124
M15
G01Y014
M16
G00X009624Y0124
M15
G01Y014
M16
G00X009924Y0124
M15
G01Y014
M16
G00X009974Y0124
M15
G01Y014
M16
G00X010024Y0124
M15
G01Y014
M16
G00X010074Y0124
M15
G01Y014
M16
G00X010124Y0124
M15
G01Y014
M16
G00X010164Y0124
M15
G01Y014
M16
G00X010174Y0124
M15
G01Y014
M16
G00X010654Y0125
M15
G01Y0128
M16
G00X011074Y01268
M15
G01X011374
M16
G00X010134Y0124
M15
G01X009634
M16
M17
M30
