G04*
G04 #@! TF.GenerationSoftware,Altium Limited,Altium Designer,18.1.7 (191)*
G04*
G04 Layer_Physical_Order=1*
G04 Layer_Color=255*
%FSLAX44Y44*%
%MOMM*%
G71*
G01*
G75*
%ADD12C,0.2540*%
%ADD13R,1.5500X0.3000*%
%ADD14R,2.7500X1.2000*%
%ADD21R,1.6000X1.6000*%
%ADD22C,1.1520*%
%ADD23R,1.6000X1.6000*%
%ADD24C,0.5080*%
D12*
X1890000Y1327000D02*
X1910000Y1347000D01*
X991000Y1240000D02*
Y1448000D01*
X1890000Y1202000D02*
Y1327000D01*
X1873000Y1185000D02*
X1890000Y1202000D01*
X1825000Y1185000D02*
X1873000D01*
X1908000Y1370000D02*
X1910000D01*
X1880000Y1215000D02*
Y1342000D01*
X1871000Y1206000D02*
X1880000Y1215000D01*
X1835000Y1206000D02*
X1871000D01*
X1910000Y1347000D02*
Y1350000D01*
X1880000Y1342000D02*
X1908000Y1370000D01*
X1790000Y1405000D02*
Y1405000D01*
X1784000Y1410000D02*
Y1410000D01*
X1752000Y1410000D02*
Y1448000D01*
X1890000Y1385000D02*
X1923000D01*
X1880000Y1375000D02*
X1890000Y1385000D01*
X1828000Y1375000D02*
X1880000D01*
X1923000Y1321000D02*
X1935400D01*
X1910000D02*
X1923000D01*
Y1385000D01*
X1910000Y1320000D02*
Y1321000D01*
X1795000Y1215000D02*
X1825000Y1185000D01*
X1795000Y1215000D02*
Y1222000D01*
X1827400Y1292500D02*
X1862400D01*
X1910000Y1321000D02*
X1912000D01*
X1828000Y1213000D02*
Y1219000D01*
Y1213000D02*
X1835000Y1206000D01*
X1910000Y1321000D02*
Y1321000D01*
X1813000Y1390000D02*
X1828000Y1375000D01*
X1788000Y1390000D02*
X1813000D01*
X1752000Y1410000D02*
X1784000D01*
X1727500D02*
X1752000D01*
X1651000Y1447800D02*
Y1448000D01*
Y1395000D02*
Y1447800D01*
X1802000Y1245000D02*
X1828000Y1219000D01*
X1016000Y1447800D02*
Y1448000D01*
Y1245000D02*
Y1447800D01*
X1787400Y1245000D02*
X1802000D01*
X1795000Y1222000D02*
X1799000Y1226000D01*
Y1240000D01*
X1787400D02*
X1799000D01*
X1831900Y1227500D02*
X1862400D01*
X1827400Y1412500D02*
X1862400D01*
X1827400D02*
Y1413000D01*
X1832400Y1407500D02*
X1862400D01*
X1832400D02*
Y1407500D01*
X1862400Y1397500D02*
Y1397500D01*
X1832400D02*
X1862400D01*
X1827400Y1392500D02*
X1862400D01*
X1827400D02*
Y1392500D01*
X1862400Y1387500D02*
Y1387500D01*
X1832400D02*
X1862400D01*
X1783000Y1230000D02*
Y1230000D01*
X940000Y1230000D02*
X1783000D01*
X1787400Y1235000D02*
X1790000D01*
X965000D02*
X1787400D01*
X1762000Y1240000D02*
X1786000D01*
X1762000Y1240000D02*
Y1240000D01*
X1759000Y1245000D02*
X1762000D01*
X1016000D02*
X1759000D01*
Y1245000D02*
X1784000D01*
X1759000Y1245000D02*
Y1245000D01*
X1762000Y1250000D02*
X1786000D01*
X1762000Y1250000D02*
Y1250000D01*
X1760000Y1255000D02*
X1762000D01*
X1067000D02*
X1760000D01*
Y1255000D02*
X1785000D01*
X1760000Y1255000D02*
Y1255000D01*
X1761000Y1260000D02*
X1762000D01*
X1092000D02*
X1761000D01*
Y1260000D02*
X1783000D01*
X1761000Y1260000D02*
Y1260000D01*
X1762000Y1265000D02*
X1791000D01*
X1762000Y1265000D02*
Y1265000D01*
X1143000Y1270000D02*
X1781000D01*
Y1270000D01*
X1762000Y1275000D02*
X1783000D01*
X1762000Y1275000D02*
Y1275000D01*
X1786000Y1280000D02*
Y1280000D01*
X1194000Y1280000D02*
X1786000D01*
X1788000Y1285000D02*
Y1285000D01*
X1787400Y1285000D02*
X1788000D01*
X1219000D02*
X1787400D01*
X1245000Y1290000D02*
X1786000D01*
Y1290000D01*
X1762000Y1295000D02*
X1787000D01*
X1762000Y1295000D02*
Y1295000D01*
X1295000Y1300000D02*
X1787400D01*
X1789000D02*
Y1300000D01*
X1787400Y1300000D02*
X1789000D01*
X1321000Y1305000D02*
X1786000D01*
X1762000Y1310000D02*
X1783000D01*
X1762000Y1310000D02*
Y1310000D01*
Y1315000D02*
X1782000D01*
X1762000Y1315000D02*
Y1315000D01*
X1760000Y1320000D02*
X1762000D01*
X1397000D02*
X1760000D01*
Y1320000D02*
X1785000D01*
X1760000Y1320000D02*
Y1320000D01*
X1789000Y1325000D02*
Y1325000D01*
X1787400Y1325000D02*
X1789000D01*
X1422000D02*
X1787400D01*
X1757000Y1330000D02*
X1761998D01*
X1448000D02*
X1757000D01*
Y1330000D02*
X1783000D01*
X1757000Y1330000D02*
Y1330000D01*
X1761999Y1335000D02*
X1786000D01*
X1761999Y1335000D02*
Y1335000D01*
X1758000Y1340000D02*
X1761998D01*
X1499000D02*
X1758000D01*
Y1340000D02*
X1784000D01*
X1758000Y1340000D02*
Y1340000D01*
X1789000Y1345000D02*
Y1345000D01*
X1787397Y1345000D02*
X1789000D01*
X1524000D02*
X1787397D01*
X1785000Y1350000D02*
Y1350000D01*
X1549000Y1350000D02*
X1785000D01*
X1575000Y1355000D02*
X1785000D01*
Y1355000D01*
X1600000Y1360000D02*
X1786000D01*
Y1360000D01*
X1625500Y1390000D02*
X1782000D01*
X1753000Y1395000D02*
X1762000D01*
X1651000D02*
X1753000D01*
Y1395000D02*
X1784000D01*
X1753000Y1395000D02*
Y1395000D01*
X1761000Y1400000D02*
X1762000D01*
X1676500D02*
X1761000D01*
Y1400000D02*
X1787000D01*
X1761000Y1400000D02*
Y1400000D01*
X1702000Y1405000D02*
X1787400D01*
X1790000D01*
X1827400Y1362500D02*
X1862400D01*
X1827400Y1312500D02*
Y1313000D01*
Y1312500D02*
Y1312500D01*
X1727500Y1410000D02*
Y1447500D01*
X1702000Y1405000D02*
Y1447500D01*
X1676500Y1400000D02*
Y1447500D01*
X1625500Y1390000D02*
Y1447500D01*
X1832400Y1237500D02*
X1862400D01*
X1831900Y1227000D02*
Y1227500D01*
X1827400Y1232500D02*
X1862400D01*
Y1232500D02*
Y1232500D01*
X1832400Y1257500D02*
X1862400D01*
Y1257500D02*
Y1257500D01*
X1827400Y1242500D02*
Y1242500D01*
Y1242500D02*
X1862400D01*
X1832400Y1247500D02*
Y1247500D01*
Y1247500D02*
X1862400D01*
X1827400Y1252500D02*
Y1252500D01*
Y1252500D02*
X1862400D01*
X1832400Y1307500D02*
X1862400D01*
X1832400D02*
Y1307500D01*
X1827400Y1302500D02*
X1862400D01*
Y1297500D02*
Y1297500D01*
X1832400D02*
X1862400D01*
X1827400Y1292500D02*
Y1292500D01*
X1832400Y1277500D02*
X1862400D01*
X1832400D02*
Y1277500D01*
X1827400Y1272500D02*
X1862400D01*
X1827400D02*
Y1272500D01*
X1832400Y1267500D02*
X1862400D01*
X1832400D02*
Y1267500D01*
X1827400Y1262500D02*
X1862400D01*
X1827400D02*
Y1262500D01*
X1862400Y1287500D02*
Y1287500D01*
X1832400Y1337500D02*
X1862400D01*
Y1337500D02*
Y1337500D01*
X1827400Y1312500D02*
X1862400D01*
X1832400Y1317500D02*
Y1317500D01*
Y1317500D02*
X1862400D01*
X1827400Y1322500D02*
Y1322500D01*
Y1322500D02*
X1862400D01*
X1832400Y1327500D02*
Y1327500D01*
Y1327500D02*
X1862400D01*
X1827400Y1332500D02*
Y1332500D01*
Y1332500D02*
X1862400D01*
X1827400Y1342500D02*
Y1342500D01*
Y1342500D02*
X1862400D01*
X1832400Y1347500D02*
X1862400D01*
Y1347500D02*
Y1347500D01*
X1827400Y1352500D02*
X1862400D01*
X1832400Y1357500D02*
Y1357500D01*
Y1357500D02*
X1862400D01*
X1827400Y1362500D02*
Y1363000D01*
X1600000Y1360000D02*
Y1448000D01*
X1575000Y1355000D02*
Y1447000D01*
X1549000Y1350000D02*
Y1447000D01*
X1524000Y1345000D02*
Y1448000D01*
X1499000Y1340000D02*
Y1447000D01*
X1473000Y1335000D02*
Y1447000D01*
Y1335000D02*
X1761999D01*
X1448000Y1330000D02*
Y1447000D01*
X1422000Y1325000D02*
Y1448000D01*
X1397000Y1320000D02*
Y1447000D01*
X1371000Y1315000D02*
Y1448000D01*
Y1315000D02*
X1762000D01*
X1346000Y1310000D02*
Y1447000D01*
Y1310000D02*
X1762000D01*
X1321000Y1305000D02*
Y1448000D01*
X1295000Y1300000D02*
Y1448000D01*
X1270000Y1295000D02*
Y1447000D01*
Y1295000D02*
X1762000D01*
X1245000Y1290000D02*
Y1447000D01*
X1219000Y1285000D02*
Y1447000D01*
X1194000Y1280000D02*
Y1448000D01*
X1169000Y1275000D02*
Y1448000D01*
Y1275000D02*
X1762000D01*
X1143000Y1270000D02*
Y1448000D01*
X1118000Y1265000D02*
Y1448000D01*
Y1265000D02*
X1762000D01*
X1092000Y1260000D02*
Y1448000D01*
X1067000Y1255000D02*
Y1448000D01*
X1042000Y1250000D02*
Y1447000D01*
Y1250000D02*
X1762000D01*
X991000Y1240000D02*
X1762000D01*
X965000Y1235000D02*
Y1448000D01*
X940000Y1230000D02*
Y1448000D01*
D13*
X1787400Y1230000D02*
D03*
X1862400Y1227500D02*
D03*
Y1232500D02*
D03*
X1787400Y1235000D02*
D03*
Y1240000D02*
D03*
Y1245000D02*
D03*
Y1250000D02*
D03*
Y1255000D02*
D03*
X1862400Y1237500D02*
D03*
Y1242500D02*
D03*
Y1247500D02*
D03*
Y1252500D02*
D03*
Y1257500D02*
D03*
Y1262500D02*
D03*
Y1267500D02*
D03*
Y1272500D02*
D03*
Y1277500D02*
D03*
Y1282500D02*
D03*
Y1287500D02*
D03*
X1787400Y1280000D02*
D03*
Y1265000D02*
D03*
Y1270000D02*
D03*
Y1275000D02*
D03*
X1862400Y1302500D02*
D03*
Y1362500D02*
D03*
Y1292500D02*
D03*
X1787400Y1320000D02*
D03*
Y1300000D02*
D03*
Y1400000D02*
D03*
X1787397Y1360000D02*
D03*
Y1340000D02*
D03*
X1787400Y1290000D02*
D03*
Y1295000D02*
D03*
Y1285000D02*
D03*
Y1310000D02*
D03*
Y1315000D02*
D03*
Y1305000D02*
D03*
X1787397Y1330000D02*
D03*
X1787399Y1335000D02*
D03*
X1787400Y1325000D02*
D03*
X1787397Y1350000D02*
D03*
X1787399Y1355000D02*
D03*
X1787397Y1345000D02*
D03*
Y1365000D02*
D03*
X1787400Y1390000D02*
D03*
Y1395000D02*
D03*
Y1410000D02*
D03*
Y1405000D02*
D03*
Y1260000D02*
D03*
X1862400Y1307500D02*
D03*
Y1312500D02*
D03*
Y1317500D02*
D03*
Y1322500D02*
D03*
Y1327500D02*
D03*
Y1332500D02*
D03*
Y1337500D02*
D03*
Y1342500D02*
D03*
Y1347500D02*
D03*
Y1352500D02*
D03*
Y1357500D02*
D03*
Y1387500D02*
D03*
Y1392500D02*
D03*
Y1397500D02*
D03*
Y1402500D02*
D03*
Y1407500D02*
D03*
Y1412500D02*
D03*
Y1297500D02*
D03*
D14*
X1853900Y1217500D02*
D03*
Y1422500D02*
D03*
D21*
X1935400Y1371800D02*
D03*
Y1346400D02*
D03*
Y1321000D02*
D03*
Y1295600D02*
D03*
Y1270200D02*
D03*
X1910000D02*
D03*
Y1295600D02*
D03*
Y1321000D02*
D03*
Y1346400D02*
D03*
Y1371800D02*
D03*
D22*
X1865000Y1447000D02*
D03*
Y1195000D02*
D03*
X915000D02*
D03*
Y1447000D02*
D03*
D23*
X1752600Y1447800D02*
D03*
X1727200D02*
D03*
X1701800D02*
D03*
X1676400D02*
D03*
X1651000D02*
D03*
X1625600D02*
D03*
X1600200D02*
D03*
X1574800D02*
D03*
X1549400D02*
D03*
X1524000D02*
D03*
X1498600D02*
D03*
X1473200D02*
D03*
X1447800D02*
D03*
X1422400D02*
D03*
X1397000D02*
D03*
X1371600D02*
D03*
X1346200D02*
D03*
X1320800D02*
D03*
X1295400D02*
D03*
X1270000D02*
D03*
X1244600D02*
D03*
X1219200D02*
D03*
X1193800D02*
D03*
X1168400D02*
D03*
X965200D02*
D03*
X939800D02*
D03*
X990600D02*
D03*
X1016000D02*
D03*
X1041400D02*
D03*
X1066800D02*
D03*
X1092200D02*
D03*
X1117600D02*
D03*
X1143000D02*
D03*
X939800Y1193800D02*
D03*
X965200D02*
D03*
X990600D02*
D03*
X1016000D02*
D03*
X1041400D02*
D03*
X1066800D02*
D03*
X1092200D02*
D03*
X1117600D02*
D03*
X1143000D02*
D03*
X1168400D02*
D03*
X1193800D02*
D03*
X1219200D02*
D03*
X1244600D02*
D03*
X1270000D02*
D03*
X1295400D02*
D03*
X1320800D02*
D03*
X1346200D02*
D03*
X1371600D02*
D03*
X1397000D02*
D03*
X1422400D02*
D03*
X1447800D02*
D03*
X1473200D02*
D03*
X1498600D02*
D03*
X1524000D02*
D03*
X1549400D02*
D03*
X1574800D02*
D03*
X1600200D02*
D03*
X1625600D02*
D03*
X1651000D02*
D03*
X1676400D02*
D03*
X1701800D02*
D03*
X1727200D02*
D03*
X1752600D02*
D03*
D24*
X1827400Y1413000D02*
D03*
X1832400Y1407500D02*
D03*
Y1397500D02*
D03*
X1827400Y1392500D02*
D03*
X1832400Y1387500D02*
D03*
X1827400Y1232500D02*
D03*
X1832400Y1237500D02*
D03*
Y1227500D02*
D03*
Y1257500D02*
D03*
X1827400Y1242500D02*
D03*
X1832400Y1247500D02*
D03*
X1827400Y1252500D02*
D03*
X1832400Y1307500D02*
D03*
X1827400Y1302500D02*
D03*
X1832400Y1297500D02*
D03*
X1827400Y1292500D02*
D03*
X1832400Y1277500D02*
D03*
X1827400Y1272500D02*
D03*
X1832400Y1267500D02*
D03*
X1827400Y1262500D02*
D03*
X1832400Y1337500D02*
D03*
X1827400Y1312500D02*
D03*
X1832400Y1317500D02*
D03*
X1827400Y1322500D02*
D03*
X1832400Y1327500D02*
D03*
X1827400Y1332500D02*
D03*
Y1342500D02*
D03*
X1832400Y1347500D02*
D03*
X1827400Y1352500D02*
D03*
X1832400Y1357500D02*
D03*
X1827400Y1363000D02*
D03*
M02*
