M48
;Layer_Color=9474304
;FILE_FORMAT=4:4
METRIC,LZ
;TYPE=PLATED
T1F00S00C0.2540
T3F00S00C2.2000
;TYPE=NON_PLATED
T4F00S00C0.6500
%
T01
X00209Y00335
X00248Y00358
X00252Y0037
X0026Y00364
X00273Y00372
X00293Y00381
X00254Y00392
X00281Y00328
X00327Y00354
X00343Y00359
X00348Y00354
X00343Y00349
X00348Y00364
Y00374
Y00384
Y00394
X00342Y00389
Y00379
X00392Y00385
Y00367
X00376Y00352
X00372Y00345
X00399Y00385
X00437
X0048Y00389
X00485Y00394
Y00384
X0048Y00379
X00485Y00374
Y00364
X0048Y00369
Y00359
X004715Y00349
X00465Y00335
X0046Y00327
X00458Y0032
X00472Y00315
X00485Y00325
X00499Y00312
X00509Y00303
X00512Y00326
X00499Y00339
X00535Y00338
X00513Y00381
Y00388
X00449Y00349
X00442Y00325
X00437Y0032
X00432Y00325
X00422Y00322
X00423Y00315
X00399Y00425
X00402Y00457
X00407Y00462
X00434Y00441
X00464Y00449
X00483Y00455
X00505
X00502Y00429
X00494Y00425
X00503Y00416
X0051Y00407
X00491Y00399
X00486Y00404
X0048Y00399
Y00419
X00473Y00473
X00452Y00471
X00482Y00495
X00535Y00412
X00348Y00414
Y00404
X00342Y00399
X00332Y0042
X00326Y00437
X00316Y00446
X00306Y00451
X00292Y00457
X00342Y00449
X00317Y00411
X00242Y00409
X00237Y00415
X00242Y00421
X00238Y00427
X00235Y00402
T03
X00567Y00309
Y00481
T04
X00535Y00365
Y00425
M30
