G04*
G04 #@! TF.GenerationSoftware,Altium Limited,Altium Designer,18.1.7 (191)*
G04*
G04 Layer_Color=65535*
%FSLAX44Y44*%
%MOMM*%
G71*
G01*
G75*
%ADD10C,0.2500*%
%ADD11C,0.2000*%
%ADD12C,0.1500*%
%ADD13C,0.1000*%
G36*
X259850Y318340D02*
X259920Y318327D01*
X259989Y318299D01*
X260086Y318257D01*
X260169Y318202D01*
X260266Y318119D01*
X260280Y318105D01*
X260322Y318077D01*
X260377Y318035D01*
X260419Y317980D01*
X260433Y317966D01*
X260461Y317924D01*
X260488Y317869D01*
X260530Y317800D01*
X260516Y317786D01*
X260502Y317744D01*
X260474Y317689D01*
X260447Y317633D01*
X260433Y317619D01*
X260419Y317578D01*
X260377Y317522D01*
X260336Y317481D01*
X260322Y317467D01*
X260280Y317453D01*
X260211Y317411D01*
X260128Y317356D01*
X260017Y317300D01*
X259906Y317231D01*
X259656Y317078D01*
X259642Y317065D01*
X259601Y317051D01*
X259531Y317023D01*
X259448Y316968D01*
X259337Y316926D01*
X259226Y316857D01*
X258991Y316732D01*
X258977D01*
X258935Y316718D01*
X258880D01*
X258796Y316732D01*
X258769Y316746D01*
X258713Y316773D01*
X258658Y316815D01*
X258616Y316870D01*
Y316884D01*
X258602Y316912D01*
X258588Y316954D01*
Y317037D01*
Y317120D01*
X258602Y317231D01*
X258644Y317370D01*
X258699Y317522D01*
X258713Y317536D01*
X258741Y317592D01*
X258796Y317675D01*
X258852Y317772D01*
X259018Y317980D01*
X259115Y318091D01*
X259226Y318188D01*
X259240Y318202D01*
X259268Y318216D01*
X259323Y318243D01*
X259393Y318271D01*
X259559Y318327D01*
X259656Y318354D01*
X259795D01*
X259850Y318340D01*
D02*
G37*
G36*
X253346Y319672D02*
X253540Y319658D01*
X253568D01*
X253637Y319644D01*
X253734D01*
X253859Y319630D01*
X254026Y319603D01*
X254192Y319589D01*
X254553Y319547D01*
X254580D01*
X254636Y319533D01*
X254719Y319506D01*
X254830Y319464D01*
X254955Y319394D01*
X255066Y319325D01*
X255177Y319214D01*
X255274Y319089D01*
X255288Y319076D01*
X255315Y319020D01*
X255343Y318951D01*
X255385Y318854D01*
X255413Y318729D01*
X255440Y318590D01*
Y318438D01*
X255426Y318271D01*
Y318257D01*
X255413Y318243D01*
X255399Y318202D01*
X255385Y318146D01*
X255357Y318077D01*
X255329Y317994D01*
X255246Y317786D01*
X255121Y317550D01*
X254955Y317273D01*
X254747Y316968D01*
X254497Y316649D01*
X254483Y316635D01*
X254470Y316607D01*
X254414Y316565D01*
X254359Y316524D01*
X254289Y316454D01*
X254206Y316385D01*
X254095Y316302D01*
X253984Y316232D01*
X253707Y316080D01*
X253374Y315941D01*
X253194Y315900D01*
X252999Y315858D01*
X252791Y315830D01*
X252514D01*
X252431Y315844D01*
X252334Y315858D01*
X252209Y315886D01*
X252098Y315914D01*
X251973Y315969D01*
X251862Y316038D01*
X251848Y316052D01*
X251807Y316066D01*
X251751Y316108D01*
X251682Y316177D01*
X251599Y316246D01*
X251502Y316343D01*
X251418Y316454D01*
X251335Y316593D01*
Y316607D01*
X251321Y316635D01*
X251308Y316676D01*
X251294Y316732D01*
X251280Y316801D01*
Y316884D01*
X251294Y316968D01*
X251335Y317051D01*
Y317065D01*
X251363Y317092D01*
X251418Y317176D01*
X251529Y317286D01*
X251599Y317328D01*
X251682Y317370D01*
X251696D01*
X251723Y317384D01*
X251765D01*
X251821Y317397D01*
X251959Y317411D01*
X252112Y317397D01*
X252140D01*
X252181Y317384D01*
X252223Y317356D01*
X252264Y317314D01*
X252306Y317245D01*
X252334Y317162D01*
X252348Y317051D01*
Y317037D01*
X252362Y316995D01*
Y316954D01*
X252389Y316884D01*
X252445Y316773D01*
X252500Y316732D01*
X252556Y316704D01*
X252583D01*
X252667Y316690D01*
X252778D01*
X252930Y316704D01*
X252958D01*
X253013Y316732D01*
X253110Y316759D01*
X253221Y316815D01*
X253360Y316884D01*
X253512Y316995D01*
X253665Y317134D01*
X253804Y317314D01*
X253818Y317342D01*
X253873Y317411D01*
X253929Y317508D01*
X253998Y317633D01*
X254067Y317800D01*
X254123Y317966D01*
X254151Y318146D01*
Y318327D01*
Y318340D01*
Y318382D01*
X254137Y318438D01*
X254123Y318507D01*
X254095Y318576D01*
X254067Y318659D01*
X254012Y318729D01*
X253943Y318798D01*
X253929D01*
X253915Y318826D01*
X253873Y318840D01*
X253832Y318867D01*
X253693Y318909D01*
X253512Y318937D01*
X253346D01*
X253180Y318909D01*
X252985Y318881D01*
X252944D01*
X252889Y318867D01*
X252833Y318854D01*
X252667Y318812D01*
X252500Y318757D01*
X252486D01*
X252459Y318743D01*
X252417Y318729D01*
X252348Y318701D01*
X252278Y318673D01*
X252181Y318632D01*
X251973Y318535D01*
X251737Y318410D01*
X251474Y318271D01*
X251196Y318105D01*
X250933Y317924D01*
X250919D01*
X250905Y317897D01*
X250864Y317869D01*
X250808Y317827D01*
X250683Y317716D01*
X250503Y317564D01*
X250295Y317384D01*
X250073Y317176D01*
X249851Y316954D01*
X249615Y316704D01*
X249602Y316690D01*
X249588Y316662D01*
X249546Y316621D01*
X249491Y316565D01*
X249421Y316496D01*
X249352Y316413D01*
X249172Y316205D01*
X248950Y315941D01*
X248728Y315664D01*
X248492Y315359D01*
X248256Y315026D01*
Y315012D01*
X248229Y314984D01*
X248201Y314943D01*
X248146Y314873D01*
X248090Y314790D01*
X248034Y314693D01*
X247965Y314582D01*
X247882Y314457D01*
X247716Y314166D01*
X247521Y313847D01*
X247341Y313500D01*
X247161Y313126D01*
X247147Y313098D01*
X247119Y313043D01*
X247078Y312946D01*
X247022Y312821D01*
X246967Y312668D01*
X246897Y312488D01*
X246828Y312308D01*
X246772Y312114D01*
Y312086D01*
X246759Y312030D01*
X246745Y311919D01*
X246717Y311781D01*
X246703Y311614D01*
X246689Y311434D01*
Y311226D01*
Y311018D01*
Y310990D01*
X246703Y310921D01*
X246717Y310810D01*
X246745Y310671D01*
X246786Y310519D01*
X246842Y310338D01*
X246925Y310158D01*
X247036Y309992D01*
X247050Y309978D01*
X247092Y309922D01*
X247161Y309853D01*
X247258Y309770D01*
X247383Y309673D01*
X247521Y309590D01*
X247702Y309492D01*
X247910Y309423D01*
X247924D01*
X247951Y309409D01*
X247993Y309395D01*
X248048Y309382D01*
X248132Y309368D01*
X248215Y309354D01*
X248437Y309340D01*
X248686D01*
X248992Y309354D01*
X249310Y309423D01*
X249477Y309465D01*
X249643Y309534D01*
X249657D01*
X249685Y309548D01*
X249740Y309576D01*
X249796Y309603D01*
X249976Y309687D01*
X250184Y309798D01*
X250406Y309964D01*
X250628Y310144D01*
X250836Y310380D01*
X251016Y310644D01*
X251030Y310657D01*
X251058Y310713D01*
X251086Y310796D01*
X251127Y310893D01*
X251141Y310921D01*
X251155Y310976D01*
X251169Y311060D01*
X251183Y311157D01*
Y311171D01*
X251196Y311212D01*
X251183Y311295D01*
X251155Y311392D01*
X251141Y311406D01*
X251113Y311448D01*
X251072Y311503D01*
X251016Y311531D01*
X251002Y311545D01*
X250975Y311559D01*
X250905D01*
X250808Y311531D01*
X250781D01*
X250739Y311503D01*
X250669Y311476D01*
X250614Y311420D01*
X250600Y311406D01*
X250559Y311365D01*
X250517Y311282D01*
X250489Y311184D01*
X250475Y311171D01*
X250462Y311115D01*
X250420Y311032D01*
X250378Y310921D01*
Y310907D01*
X250351Y310865D01*
X250323Y310810D01*
X250281Y310755D01*
X250170Y310602D01*
X250101Y310546D01*
X250032Y310491D01*
X250018D01*
X249990Y310477D01*
X249935Y310463D01*
X249879Y310449D01*
X249796Y310436D01*
X249588D01*
X249477Y310463D01*
X249463D01*
X249435Y310477D01*
X249380Y310491D01*
X249310Y310519D01*
X249241Y310560D01*
X249172Y310616D01*
X249102Y310671D01*
X249047Y310755D01*
Y310768D01*
X249033Y310796D01*
X249005Y310838D01*
X248992Y310907D01*
X248964Y310990D01*
X248950Y311087D01*
Y311198D01*
Y311337D01*
Y311365D01*
X248964Y311420D01*
X248992Y311503D01*
X249019Y311614D01*
X249061Y311739D01*
X249130Y311864D01*
X249213Y312003D01*
X249324Y312114D01*
X249338Y312127D01*
X249394Y312155D01*
X249463Y312211D01*
X249560Y312266D01*
X249671Y312335D01*
X249810Y312419D01*
X250115Y312557D01*
X250142D01*
X250198Y312585D01*
X250281Y312599D01*
X250406Y312627D01*
X250531Y312641D01*
X250683Y312668D01*
X251030D01*
X251086Y312654D01*
X251169Y312627D01*
X251280Y312599D01*
X251405Y312544D01*
X251543Y312460D01*
X251682Y312363D01*
X251821Y312238D01*
X251835Y312225D01*
X251876Y312183D01*
X251945Y312114D01*
X252015Y312030D01*
X252098Y311919D01*
X252167Y311795D01*
X252209Y311656D01*
X252237Y311503D01*
Y311490D01*
Y311434D01*
X252250Y311351D01*
Y311254D01*
X252237Y311129D01*
X252223Y310976D01*
X252181Y310838D01*
X252140Y310671D01*
Y310657D01*
X252126Y310630D01*
X252112Y310588D01*
X252084Y310533D01*
X252015Y310380D01*
X251918Y310200D01*
X251793Y309992D01*
X251626Y309784D01*
X251432Y309590D01*
X251210Y309423D01*
X251196D01*
X251183Y309409D01*
X251141Y309382D01*
X251099Y309354D01*
X250961Y309271D01*
X250781Y309174D01*
X250572Y309063D01*
X250337Y308952D01*
X250073Y308841D01*
X249796Y308744D01*
X249782D01*
X249740Y308730D01*
X249671Y308702D01*
X249588Y308688D01*
X249491Y308660D01*
X249366Y308633D01*
X249102Y308605D01*
X249033D01*
X248964Y308591D01*
X248867D01*
X248756Y308577D01*
X248631Y308563D01*
X248367Y308522D01*
X248270D01*
X248146Y308536D01*
X247993Y308549D01*
X247799Y308577D01*
X247577Y308605D01*
X247341Y308660D01*
X247078Y308716D01*
X246814Y308799D01*
X246537Y308896D01*
X246259Y309007D01*
X245996Y309160D01*
X245746Y309326D01*
X245497Y309520D01*
X245289Y309742D01*
X245094Y309992D01*
X245081Y310006D01*
X245053Y310061D01*
X245025Y310144D01*
X244970Y310255D01*
X244914Y310394D01*
X244859Y310560D01*
X244817Y310755D01*
X244762Y310976D01*
X244734Y311226D01*
X244720Y311490D01*
Y311795D01*
X244748Y312100D01*
X244803Y312446D01*
X244886Y312793D01*
X245011Y313181D01*
X245178Y313570D01*
Y313584D01*
X245191Y313598D01*
X245233Y313681D01*
X245289Y313806D01*
X245386Y313958D01*
X245497Y314166D01*
X245635Y314402D01*
X245788Y314665D01*
X245968Y314943D01*
X246176Y315248D01*
X246398Y315553D01*
X246648Y315872D01*
X246911Y316191D01*
X247202Y316524D01*
X247507Y316829D01*
X247826Y317134D01*
X248173Y317425D01*
X248201Y317439D01*
X248256Y317495D01*
X248367Y317564D01*
X248506Y317675D01*
X248686Y317786D01*
X248908Y317938D01*
X249144Y318091D01*
X249435Y318257D01*
X249740Y318424D01*
X250073Y318604D01*
X250434Y318784D01*
X250822Y318965D01*
X251224Y319145D01*
X251654Y319311D01*
X252098Y319464D01*
X252556Y319603D01*
X252583D01*
X252639Y319616D01*
X252722Y319644D01*
X252847Y319658D01*
X252999Y319672D01*
X253166Y319686D01*
X253346Y319672D01*
D02*
G37*
G36*
X277602Y318132D02*
X277699Y318119D01*
X277796Y318091D01*
X277810D01*
X277838Y318077D01*
X277893Y318049D01*
X277962Y318008D01*
X278101Y317911D01*
X278157Y317841D01*
X278212Y317772D01*
Y317758D01*
X278226Y317716D01*
X278240Y317647D01*
Y317550D01*
Y317522D01*
Y317467D01*
X278212Y317411D01*
X278184Y317370D01*
X278171Y317356D01*
X278115Y317314D01*
X278046Y317259D01*
X277935Y317189D01*
X277824Y317106D01*
X277685Y317009D01*
X277394Y316815D01*
X277380Y316801D01*
X277325Y316773D01*
X277241Y316732D01*
X277130Y316690D01*
X276992Y316635D01*
X276839Y316579D01*
X276673Y316524D01*
X276493Y316468D01*
Y316496D01*
X276479Y316565D01*
X276465Y316676D01*
Y316815D01*
X276479Y316981D01*
X276493Y317162D01*
X276548Y317342D01*
X276617Y317522D01*
X276631Y317536D01*
X276659Y317592D01*
X276700Y317675D01*
X276784Y317772D01*
X276867Y317869D01*
X276992Y317966D01*
X277144Y318049D01*
X277311Y318119D01*
X277325D01*
X277352Y318132D01*
X277394D01*
X277449Y318146D01*
X277602Y318132D01*
D02*
G37*
G36*
X222877Y319880D02*
X222988Y319866D01*
X223127Y319852D01*
X223279Y319838D01*
X223446Y319811D01*
X223806Y319741D01*
X224209Y319644D01*
X224625Y319519D01*
X225041Y319339D01*
X225055D01*
X225082Y319311D01*
X225152Y319284D01*
X225221Y319242D01*
X225318Y319200D01*
X225429Y319131D01*
X225554Y319062D01*
X225693Y318979D01*
X225998Y318770D01*
X226317Y318521D01*
X226663Y318230D01*
X227010Y317897D01*
X227024Y317883D01*
X227066Y317841D01*
X227135Y317772D01*
X227218Y317689D01*
X227232Y317675D01*
X227274Y317633D01*
X227329Y317564D01*
X227384Y317481D01*
X227412Y317467D01*
X227440Y317453D01*
X227495D01*
X227523Y317439D01*
X227579Y317411D01*
X227648Y317370D01*
X227662Y317384D01*
X227676Y317397D01*
X227745Y317481D01*
X227842Y317592D01*
X227939Y317716D01*
X227953Y317730D01*
X227967Y317744D01*
X228036Y317827D01*
X228133Y317938D01*
X228258Y318063D01*
X228272Y318077D01*
X228300Y318105D01*
X228341Y318146D01*
X228397Y318202D01*
X228480Y318271D01*
X228577Y318354D01*
X228674Y318438D01*
X228799Y318535D01*
X229076Y318743D01*
X229382Y318965D01*
X229742Y319159D01*
X230117Y319339D01*
X230130D01*
X230158Y319353D01*
X230214Y319381D01*
X230297Y319408D01*
X230394Y319450D01*
X230505Y319478D01*
X230630Y319519D01*
X230768Y319575D01*
X231087Y319658D01*
X231462Y319741D01*
X231864Y319797D01*
X232294Y319838D01*
X232433D01*
X232544Y319852D01*
X232821D01*
X232987Y319838D01*
X233168D01*
X233376Y319824D01*
X233584Y319811D01*
X234055Y319769D01*
X234541Y319686D01*
X235026Y319575D01*
X235040D01*
X235081Y319561D01*
X235151Y319533D01*
X235248Y319506D01*
X235359Y319464D01*
X235497Y319408D01*
X235650Y319339D01*
X235816Y319270D01*
X236191Y319089D01*
X236593Y318867D01*
X237009Y318590D01*
X237425Y318271D01*
X237439Y318257D01*
X237467Y318243D01*
X237508Y318202D01*
X237564Y318146D01*
X237716Y318008D01*
X237911Y317813D01*
X238119Y317578D01*
X238354Y317314D01*
X238576Y317023D01*
X238798Y316704D01*
Y316690D01*
X238826Y316662D01*
X238854Y316621D01*
X238895Y316551D01*
X238937Y316482D01*
X238992Y316385D01*
X239103Y316149D01*
X239242Y315886D01*
X239367Y315567D01*
X239492Y315220D01*
X239603Y314846D01*
Y314832D01*
X239616Y314776D01*
X239630Y314707D01*
X239658Y314596D01*
X239672Y314457D01*
X239700Y314305D01*
Y314138D01*
X239713Y313944D01*
Y313736D01*
X239700Y313514D01*
X239672Y313292D01*
X239616Y313057D01*
X239561Y312821D01*
X239478Y312571D01*
X239367Y312322D01*
X239228Y312086D01*
X239214Y312072D01*
X239186Y312030D01*
X239145Y311975D01*
X239076Y311892D01*
X238992Y311795D01*
X238895Y311670D01*
X238770Y311559D01*
X238632Y311420D01*
X238479Y311295D01*
X238299Y311157D01*
X238105Y311032D01*
X237883Y310907D01*
X237661Y310796D01*
X237411Y310699D01*
X237148Y310616D01*
X236857Y310546D01*
X236843D01*
X236787Y310533D01*
X236718Y310519D01*
X236607Y310505D01*
X236482Y310491D01*
X236330Y310477D01*
X236163Y310463D01*
X235969Y310449D01*
X235553D01*
X235095Y310477D01*
X234624Y310546D01*
X234388Y310602D01*
X234152Y310671D01*
X234138D01*
X234097Y310685D01*
X234027Y310713D01*
X233944Y310755D01*
X233833Y310796D01*
X233695Y310865D01*
X233556Y310935D01*
X233389Y311018D01*
X233223Y311115D01*
X233043Y311226D01*
X232849Y311351D01*
X232654Y311490D01*
X232460Y311642D01*
X232266Y311822D01*
X232086Y312003D01*
X231892Y312211D01*
X231878Y312225D01*
X231836Y312280D01*
X231781Y312349D01*
X231698Y312460D01*
X231614Y312585D01*
X231531Y312724D01*
X231462Y312876D01*
X231392Y313043D01*
Y313057D01*
X231365Y313126D01*
X231337Y313209D01*
X231323Y313334D01*
X231295Y313473D01*
X231282Y313639D01*
X231268Y313806D01*
X231282Y314000D01*
Y314027D01*
X231295Y314097D01*
X231309Y314194D01*
X231351Y314319D01*
X231392Y314457D01*
X231448Y314610D01*
X231531Y314762D01*
X231628Y314901D01*
X231642Y314915D01*
X231684Y314957D01*
X231753Y315026D01*
X231836Y315095D01*
X231947Y315179D01*
X232086Y315276D01*
X232238Y315359D01*
X232405Y315428D01*
X232433D01*
X232488Y315442D01*
X232571Y315470D01*
X232682Y315484D01*
X232960D01*
X233112Y315470D01*
X233251Y315428D01*
X233265Y315414D01*
X233320Y315400D01*
X233389Y315359D01*
X233473Y315289D01*
X233584Y315220D01*
X233695Y315137D01*
X233806Y315026D01*
X233916Y314901D01*
X233930Y314887D01*
X233944Y314860D01*
X233986Y314818D01*
X234027Y314762D01*
X234125Y314610D01*
X234235Y314443D01*
X234249Y314430D01*
X234263Y314402D01*
X234305Y314360D01*
X234346Y314291D01*
X234443Y314138D01*
X234554Y313944D01*
X234568Y313916D01*
X234624Y313861D01*
X234693Y313764D01*
X234790Y313653D01*
X234915Y313528D01*
X235068Y313403D01*
X235234Y313306D01*
X235428Y313223D01*
X235456D01*
X235525Y313195D01*
X235622Y313181D01*
X235761Y313168D01*
X235914D01*
X236094Y313195D01*
X236274Y313251D01*
X236468Y313334D01*
X236496Y313348D01*
X236551Y313389D01*
X236649Y313445D01*
X236746Y313542D01*
X236870Y313653D01*
X236981Y313792D01*
X237078Y313958D01*
X237148Y314152D01*
X237162Y314180D01*
X237176Y314249D01*
X237189Y314360D01*
X237203Y314499D01*
Y314665D01*
X237176Y314860D01*
X237134Y315068D01*
X237051Y315276D01*
X237037Y315289D01*
X237023Y315345D01*
X236981Y315414D01*
X236926Y315525D01*
X236843Y315650D01*
X236746Y315789D01*
X236635Y315941D01*
X236496Y316122D01*
X236343Y316288D01*
X236177Y316468D01*
X235983Y316649D01*
X235761Y316829D01*
X235511Y317009D01*
X235248Y317176D01*
X234970Y317314D01*
X234652Y317453D01*
X234638Y317467D01*
X234568Y317481D01*
X234485Y317508D01*
X234360Y317550D01*
X234208Y317592D01*
X234027Y317633D01*
X233819Y317661D01*
X233598Y317703D01*
X233348Y317730D01*
X233098Y317744D01*
X232821D01*
X232557Y317716D01*
X232266Y317689D01*
X231989Y317619D01*
X231698Y317536D01*
X231420Y317425D01*
X231406D01*
X231392Y317411D01*
X231351Y317384D01*
X231295Y317356D01*
X231157Y317286D01*
X230990Y317176D01*
X230796Y317037D01*
X230602Y316870D01*
X230408Y316662D01*
X230228Y316441D01*
X230214Y316413D01*
X230158Y316330D01*
X230075Y316205D01*
X229978Y316038D01*
X229867Y315844D01*
X229756Y315608D01*
X229645Y315359D01*
X229562Y315081D01*
Y315068D01*
X229548Y315026D01*
X229534Y314970D01*
X229520Y314887D01*
X229492Y314790D01*
X229465Y314665D01*
X229437Y314541D01*
X229423Y314388D01*
X229368Y314055D01*
X229312Y313667D01*
X229284Y313265D01*
X229271Y312849D01*
Y312835D01*
Y312793D01*
Y312738D01*
Y312654D01*
X229284Y312557D01*
X229298Y312433D01*
Y312294D01*
X229326Y312141D01*
X229368Y311795D01*
X229437Y311420D01*
X229534Y311018D01*
X229659Y310602D01*
X229673Y310574D01*
X229687Y310519D01*
X229728Y310422D01*
X229770Y310325D01*
X229825Y310214D01*
X229881Y310103D01*
X229950Y310019D01*
X230006Y309964D01*
X230033D01*
X230075Y309950D01*
X230241D01*
X230352Y309964D01*
X230505Y309992D01*
X230699Y310033D01*
X230713D01*
X230741Y310047D01*
X230782D01*
X230838Y310061D01*
X230990Y310089D01*
X231184Y310103D01*
X231420Y310130D01*
X231684Y310144D01*
X231975Y310130D01*
X232266Y310117D01*
X232294D01*
X232335Y310103D01*
X232391Y310089D01*
X232544Y310061D01*
X232738Y310006D01*
X232960Y309950D01*
X233223Y309867D01*
X233500Y309770D01*
X233778Y309645D01*
X233792D01*
X233833Y309617D01*
X233861D01*
X233916Y309590D01*
X233930Y309576D01*
X233986Y309548D01*
X234069Y309492D01*
X234166Y309409D01*
X234291Y309326D01*
X234416Y309215D01*
X234679Y308979D01*
X234693Y308965D01*
X234735Y308924D01*
X234776Y308841D01*
X234846Y308744D01*
X234901Y308605D01*
X234943Y308452D01*
X234984Y308272D01*
X234998Y308078D01*
Y308050D01*
Y307981D01*
X234984Y307870D01*
X234957Y307745D01*
X234915Y307593D01*
X234846Y307440D01*
X234762Y307287D01*
X234652Y307149D01*
X234638Y307135D01*
X234582Y307093D01*
X234499Y307024D01*
X234402Y306955D01*
X234277Y306871D01*
X234125Y306774D01*
X233972Y306691D01*
X233806Y306608D01*
X233792D01*
X233764Y306594D01*
X233708Y306566D01*
X233639Y306539D01*
X233542Y306511D01*
X233431Y306469D01*
X233320Y306428D01*
X233181Y306400D01*
X232876Y306317D01*
X232544Y306261D01*
X232197Y306220D01*
X231795D01*
X231739Y306233D01*
X231670D01*
X231573Y306247D01*
X231476Y306261D01*
X231226Y306317D01*
X230935Y306400D01*
X230616Y306525D01*
X230283Y306691D01*
X230103Y306788D01*
X229936Y306899D01*
X229922Y306913D01*
X229895Y306927D01*
X229853Y306955D01*
X229784Y306996D01*
X229645Y307052D01*
X229576Y307066D01*
X229492D01*
X229479Y307052D01*
X229395Y307024D01*
X229354Y306982D01*
X229284Y306927D01*
X229229Y306857D01*
X229160Y306774D01*
Y306760D01*
X229132Y306733D01*
X229104Y306691D01*
X229063Y306622D01*
X229021Y306552D01*
X228965Y306455D01*
X228841Y306233D01*
X228702Y305970D01*
X228563Y305679D01*
X228425Y305346D01*
X228314Y305013D01*
Y304999D01*
X228300Y304971D01*
X228286Y304916D01*
X228272Y304847D01*
X228258Y304763D01*
X228244Y304666D01*
X228217Y304541D01*
X228203Y304417D01*
X228175Y304125D01*
X228161Y303779D01*
Y303418D01*
X228203Y303030D01*
Y303016D01*
Y303002D01*
X228217Y302960D01*
X228230Y302905D01*
X228258Y302780D01*
X228328Y302614D01*
X228397Y302420D01*
X228508Y302212D01*
X228647Y302003D01*
X228813Y301809D01*
X228841Y301796D01*
X228896Y301726D01*
X229007Y301657D01*
X229146Y301560D01*
X229326Y301449D01*
X229534Y301366D01*
X229770Y301282D01*
X230033Y301227D01*
X230269D01*
X230449Y301255D01*
X230644Y301296D01*
X230879Y301352D01*
X231129Y301449D01*
X231392Y301588D01*
X231406D01*
X231420Y301601D01*
X231503Y301671D01*
X231628Y301754D01*
X231781Y301879D01*
X231947Y302017D01*
X232100Y302198D01*
X232238Y302392D01*
X232349Y302600D01*
Y302614D01*
X232363Y302655D01*
X232377Y302711D01*
X232391Y302794D01*
Y302877D01*
Y302974D01*
X232363Y303085D01*
X232322Y303182D01*
X232308Y303196D01*
X232294Y303224D01*
X232252Y303252D01*
X232197Y303293D01*
X232114Y303335D01*
X232030Y303377D01*
X231919Y303390D01*
X231795Y303404D01*
X231767D01*
X231725Y303390D01*
X231670D01*
X231545Y303363D01*
X231392Y303321D01*
X231379D01*
X231365Y303307D01*
X231268Y303293D01*
X231143Y303266D01*
X231018Y303238D01*
X231004D01*
X230976Y303224D01*
X230921D01*
X230852Y303210D01*
X230699Y303196D01*
X230519Y303182D01*
X230477D01*
X230436Y303196D01*
X230380Y303210D01*
X230325Y303238D01*
X230255Y303279D01*
X230186Y303335D01*
X230117Y303404D01*
X230103Y303418D01*
X230089Y303446D01*
X230061Y303487D01*
X230033Y303557D01*
X229964Y303709D01*
X229950Y303806D01*
X229936Y303904D01*
Y303917D01*
Y303945D01*
X229950Y304001D01*
Y304070D01*
X229992Y304236D01*
X230061Y304431D01*
X230075Y304444D01*
X230089Y304486D01*
X230117Y304555D01*
X230172Y304639D01*
X230228Y304722D01*
X230311Y304819D01*
X230408Y304902D01*
X230519Y304971D01*
X230533Y304985D01*
X230574Y304999D01*
X230644Y305027D01*
X230727Y305068D01*
X230824Y305110D01*
X230935Y305152D01*
X231184Y305207D01*
X231226D01*
X231268Y305221D01*
X231323D01*
X231406Y305235D01*
X231490D01*
X231711Y305249D01*
X232238D01*
X232530Y305221D01*
X232821Y305179D01*
X232862D01*
X232904Y305166D01*
X232960Y305152D01*
X233098Y305110D01*
X233292Y305041D01*
X233514Y304944D01*
X233764Y304833D01*
X234014Y304680D01*
X234263Y304486D01*
X234291Y304458D01*
X234360Y304403D01*
X234457Y304306D01*
X234568Y304181D01*
X234693Y304028D01*
X234804Y303862D01*
X234901Y303668D01*
X234970Y303474D01*
Y303446D01*
X234984Y303377D01*
X234998Y303266D01*
X234984Y303113D01*
X234957Y302933D01*
X234901Y302739D01*
X234818Y302517D01*
X234679Y302281D01*
X234665Y302253D01*
X234610Y302184D01*
X234527Y302059D01*
X234430Y301907D01*
X234305Y301726D01*
X234152Y301518D01*
X234000Y301310D01*
X233833Y301088D01*
X233819Y301061D01*
X233750Y300991D01*
X233667Y300880D01*
X233542Y300742D01*
X233403Y300575D01*
X233237Y300381D01*
X232904Y299979D01*
X232890Y299965D01*
X232849Y299923D01*
X232793Y299840D01*
X232710Y299743D01*
X232599Y299618D01*
X232474Y299480D01*
X232322Y299313D01*
X232169Y299133D01*
X231989Y298925D01*
X231808Y298717D01*
X231392Y298273D01*
X230949Y297801D01*
X230491Y297316D01*
X230477Y297302D01*
X230436Y297260D01*
X230366Y297191D01*
X230269Y297094D01*
X230158Y296983D01*
X230019Y296845D01*
X229867Y296692D01*
X229701Y296512D01*
X229506Y296331D01*
X229312Y296137D01*
X228868Y295721D01*
X228383Y295277D01*
X227884Y294834D01*
X227870Y294820D01*
X227856Y294806D01*
X227773Y294723D01*
X227759D01*
X227717Y294695D01*
X227662Y294667D01*
X227593Y294625D01*
X227579Y294639D01*
X227509Y294695D01*
X227426Y294764D01*
X227301Y294861D01*
X227163Y294986D01*
X226996Y295111D01*
X226663Y295402D01*
X226649Y295416D01*
X226580Y295471D01*
X226497Y295541D01*
X226386Y295638D01*
X226247Y295763D01*
X226095Y295888D01*
X225762Y296179D01*
X225734Y296206D01*
X225665Y296262D01*
X225554Y296373D01*
X225415Y296512D01*
X225235Y296692D01*
X225013Y296914D01*
X224763Y297150D01*
X224500Y297413D01*
X224209Y297704D01*
X223904Y298023D01*
X223571Y298356D01*
X223238Y298703D01*
X222530Y299438D01*
X221823Y300215D01*
X221796Y300242D01*
X221740Y300312D01*
X221643Y300422D01*
X221504Y300575D01*
X221338Y300769D01*
X221130Y300991D01*
X220908Y301241D01*
X220658Y301532D01*
X220395Y301837D01*
X220104Y302184D01*
X219812Y302530D01*
X219507Y302919D01*
X219188Y303307D01*
X218869Y303709D01*
X218218Y304541D01*
X218204Y304555D01*
X218176Y304597D01*
X218134Y304652D01*
X218079Y304736D01*
X217996Y304833D01*
X217912Y304958D01*
X217815Y305096D01*
X217704Y305235D01*
X217469Y305582D01*
X217205Y305970D01*
X216928Y306372D01*
X216650Y306802D01*
X216637Y306816D01*
X216623Y306857D01*
X216581Y306913D01*
X216525Y307010D01*
X216470Y307107D01*
X216401Y307246D01*
X216318Y307384D01*
X216234Y307551D01*
X216137Y307731D01*
X216054Y307925D01*
X215860Y308341D01*
X215666Y308813D01*
X215485Y309298D01*
Y309312D01*
X215471Y309368D01*
X215444Y309451D01*
X215416Y309576D01*
X215374Y309714D01*
X215333Y309881D01*
X215291Y310075D01*
X215250Y310283D01*
X215194Y310505D01*
X215153Y310755D01*
X215083Y311268D01*
X215028Y311822D01*
X215000Y312377D01*
Y312391D01*
Y312405D01*
Y312446D01*
Y312502D01*
Y312641D01*
X215014Y312821D01*
X215028Y313043D01*
X215042Y313279D01*
X215069Y313542D01*
X215111Y313806D01*
Y313833D01*
X215125Y313903D01*
X215153Y314014D01*
X215194Y314166D01*
X215250Y314346D01*
X215319Y314568D01*
X215402Y314818D01*
X215513Y315095D01*
X215638Y315387D01*
X215777Y315706D01*
X215957Y316024D01*
X216151Y316371D01*
X216373Y316718D01*
X216637Y317065D01*
X216914Y317425D01*
X217233Y317772D01*
X217247Y317786D01*
X217288Y317827D01*
X217344Y317883D01*
X217427Y317966D01*
X217524Y318063D01*
X217649Y318160D01*
X217788Y318285D01*
X217954Y318410D01*
X218134Y318549D01*
X218314Y318687D01*
X218731Y318951D01*
X219202Y319200D01*
X219452Y319311D01*
X219701Y319408D01*
X219715D01*
X219757Y319436D01*
X219840Y319450D01*
X219937Y319492D01*
X220062Y319519D01*
X220215Y319561D01*
X220395Y319603D01*
X220575Y319658D01*
X220797Y319700D01*
X221019Y319741D01*
X221269Y319783D01*
X221518Y319824D01*
X222073Y319880D01*
X222655Y319894D01*
X222780D01*
X222877Y319880D01*
D02*
G37*
G36*
X266202Y316024D02*
X266299Y315997D01*
X266369Y315941D01*
X266382Y315927D01*
X266410Y315886D01*
X266452Y315816D01*
X266479Y315692D01*
Y315678D01*
Y315664D01*
X266493Y315595D01*
Y315497D01*
X266479Y315400D01*
Y315387D01*
X266466Y315373D01*
X266452Y315331D01*
X266424Y315276D01*
X266355Y315123D01*
X266271Y314929D01*
X266174Y314693D01*
X266063Y314443D01*
X265939Y314166D01*
X265814Y313889D01*
Y313875D01*
X265800Y313861D01*
X265786Y313819D01*
X265758Y313764D01*
X265689Y313611D01*
X265592Y313417D01*
X265495Y313181D01*
X265370Y312932D01*
X265245Y312654D01*
X265120Y312377D01*
X265107Y312349D01*
X265079Y312294D01*
X265037Y312197D01*
X264982Y312072D01*
X264912Y311919D01*
X264843Y311739D01*
X264760Y311559D01*
X264690Y311365D01*
X264677Y311337D01*
X264649Y311282D01*
X264607Y311184D01*
X264566Y311060D01*
X264496Y310907D01*
X264427Y310741D01*
X264274Y310380D01*
Y310352D01*
X264261Y310283D01*
X264247Y310200D01*
X264219Y310089D01*
Y310061D01*
X264205Y310006D01*
X264191Y309909D01*
Y309825D01*
Y309811D01*
Y309770D01*
Y309714D01*
X264205Y309659D01*
X264219Y309576D01*
X264261Y309506D01*
X264302Y309451D01*
X264371Y309395D01*
X264385D01*
X264399Y309368D01*
X264441Y309354D01*
X264482Y309326D01*
X264621Y309298D01*
X264704Y309312D01*
X264801Y309326D01*
X264815Y309340D01*
X264857Y309354D01*
X264871Y309368D01*
X264885Y309395D01*
X264898D01*
X264926Y309423D01*
X264954Y309451D01*
X265009Y309492D01*
X265162Y309603D01*
X265356Y309742D01*
X265592Y309909D01*
X265842Y310103D01*
X266119Y310297D01*
X266396Y310519D01*
X266410Y310533D01*
X266424Y310546D01*
X266466Y310574D01*
X266521Y310616D01*
X266660Y310741D01*
X266840Y310907D01*
X267048Y311101D01*
X267270Y311323D01*
X267506Y311573D01*
X267728Y311850D01*
X267742Y311864D01*
X267755Y311892D01*
X267783Y311933D01*
X267825Y311989D01*
X267880Y312141D01*
X267894Y312211D01*
X267908Y312294D01*
Y312308D01*
Y312335D01*
Y312377D01*
Y312446D01*
X267880Y312599D01*
X267852Y312779D01*
Y312793D01*
X267839Y312821D01*
Y312862D01*
X267825Y312918D01*
X267797Y313071D01*
X267769Y313279D01*
X267755Y313514D01*
Y313778D01*
X267769Y314041D01*
X267825Y314319D01*
Y314333D01*
X267839Y314346D01*
Y314388D01*
X267866Y314443D01*
X267922Y314582D01*
X268005Y314749D01*
X268116Y314957D01*
X268269Y315165D01*
X268463Y315387D01*
X268712Y315595D01*
X268726Y315608D01*
X268754Y315622D01*
X268796Y315664D01*
X268865Y315706D01*
X269017Y315789D01*
X269184Y315886D01*
X269198D01*
X269225Y315900D01*
X269281Y315914D01*
X269350Y315927D01*
X269433Y315941D01*
X269531D01*
X269628Y315927D01*
X269739Y315886D01*
X269752Y315872D01*
X269794Y315858D01*
X269849Y315816D01*
X269919Y315775D01*
X270058Y315636D01*
X270113Y315553D01*
X270168Y315456D01*
Y315442D01*
X270182Y315400D01*
X270196Y315345D01*
X270210Y315276D01*
X270224Y315179D01*
Y315081D01*
Y314846D01*
Y314832D01*
Y314790D01*
Y314735D01*
Y314652D01*
X270210Y314554D01*
X270196Y314443D01*
X270168Y314208D01*
Y314194D01*
X270155Y314152D01*
X270141Y314097D01*
X270127Y314014D01*
X270113Y313916D01*
X270085Y313806D01*
X270030Y313570D01*
Y313556D01*
X270016Y313514D01*
X269988Y313459D01*
X269974Y313376D01*
X269905Y313181D01*
X269822Y312960D01*
Y312946D01*
X269808Y312904D01*
X269780Y312849D01*
X269752Y312765D01*
X269711Y312668D01*
X269669Y312557D01*
X269586Y312322D01*
X269600Y312308D01*
X269641Y312280D01*
X269725Y312225D01*
X269808Y312183D01*
X269919Y312141D01*
X270058Y312114D01*
X270196D01*
X270349Y312141D01*
X270363D01*
X270418Y312155D01*
X270501Y312169D01*
X270598Y312183D01*
X270723Y312197D01*
X270862D01*
X271001Y312183D01*
X271153Y312141D01*
X271139Y312127D01*
X271098Y312072D01*
X271014Y311989D01*
X270917Y311892D01*
X270806Y311781D01*
X270668Y311670D01*
X270515Y311559D01*
X270349Y311476D01*
X270335Y311462D01*
X270266Y311448D01*
X270182Y311420D01*
X270058Y311392D01*
X269919Y311365D01*
X269586D01*
X269392Y311392D01*
X269378D01*
X269336Y311406D01*
X269031D01*
X268865Y311365D01*
X268851D01*
X268837Y311351D01*
X268740Y311295D01*
X268615Y311212D01*
X268490Y311073D01*
X268477Y311060D01*
X268435Y311004D01*
X268379Y310935D01*
X268296Y310838D01*
X268199Y310727D01*
X268088Y310616D01*
X267852Y310352D01*
X267839Y310338D01*
X267797Y310283D01*
X267728Y310214D01*
X267631Y310117D01*
X267533Y310019D01*
X267409Y309909D01*
X267145Y309673D01*
X267131Y309659D01*
X267117Y309645D01*
X267076Y309603D01*
X267020Y309562D01*
X266951Y309506D01*
X266868Y309451D01*
X266660Y309312D01*
X266410Y309160D01*
X266133Y309007D01*
X265828Y308855D01*
X265495Y308744D01*
X265481D01*
X265453Y308730D01*
X265412Y308716D01*
X265342Y308702D01*
X265259Y308688D01*
X265162Y308674D01*
X265051Y308647D01*
X264926Y308633D01*
X264649Y308605D01*
X264330D01*
X263983Y308633D01*
X263609Y308688D01*
X263581D01*
X263526Y308716D01*
X263428Y308744D01*
X263318Y308785D01*
X263082Y308910D01*
X262971Y308979D01*
X262888Y309076D01*
X262874Y309090D01*
X262860Y309118D01*
X262818Y309187D01*
X262777Y309271D01*
X262735Y309382D01*
X262693Y309520D01*
X262652Y309687D01*
X262624Y309881D01*
Y309895D01*
Y309950D01*
X262610Y310033D01*
Y310144D01*
Y310283D01*
Y310422D01*
X262652Y310727D01*
Y310741D01*
X262666Y310796D01*
X262693Y310879D01*
X262735Y310976D01*
X262777Y311087D01*
X262818Y311226D01*
X262943Y311503D01*
X262957Y311531D01*
X262985Y311600D01*
X263040Y311698D01*
X263109Y311836D01*
X263193Y311989D01*
X263276Y312155D01*
X263470Y312530D01*
X263484Y312557D01*
X263512Y312613D01*
X263553Y312710D01*
X263609Y312835D01*
X263692Y312987D01*
X263775Y313168D01*
X263858Y313348D01*
X263955Y313542D01*
X263969Y313570D01*
X264011Y313625D01*
X264066Y313722D01*
X264108Y313833D01*
X264122Y313861D01*
X264163Y313930D01*
X264219Y314041D01*
X264274Y314180D01*
X264233D01*
X264177Y314166D01*
X264108D01*
X263942Y314152D01*
X263720D01*
X263678Y314138D01*
X263623D01*
X263470Y314125D01*
X263318Y314097D01*
Y314111D01*
Y314152D01*
Y314235D01*
Y314249D01*
X263304Y314263D01*
Y314277D01*
X263318Y314291D01*
X263331D01*
X263345Y314305D01*
X263428Y314360D01*
X263539Y314457D01*
X263706Y314568D01*
X263886Y314693D01*
X264094Y314832D01*
X264316Y314984D01*
X264538Y315137D01*
X264552D01*
X264566Y315151D01*
X264649Y315206D01*
X264774Y315289D01*
X264940Y315400D01*
X265120Y315539D01*
X265328Y315678D01*
X265786Y315983D01*
X265814Y315997D01*
X265869Y316011D01*
X265966Y316024D01*
X266105Y316038D01*
X266133D01*
X266202Y316024D01*
D02*
G37*
G36*
X260072Y316135D02*
X260058Y316122D01*
X260045Y316080D01*
X260017Y316038D01*
X259947Y315900D01*
X259864Y315733D01*
X259753Y315525D01*
X259642Y315303D01*
X259407Y314846D01*
X259393Y314818D01*
X259351Y314735D01*
X259296Y314624D01*
X259226Y314471D01*
X259129Y314277D01*
X259032Y314069D01*
X258921Y313847D01*
X258796Y313625D01*
X258783Y313598D01*
X258755Y313528D01*
X258699Y313417D01*
X258630Y313279D01*
X258547Y313126D01*
X258450Y312946D01*
X258242Y312557D01*
X258228Y312530D01*
X258186Y312460D01*
X258131Y312363D01*
X258061Y312225D01*
X257978Y312058D01*
X257867Y311878D01*
X257770Y311684D01*
X257659Y311476D01*
Y311462D01*
X257645Y311448D01*
X257618Y311406D01*
X257590Y311351D01*
X257521Y311212D01*
X257451Y311046D01*
Y311032D01*
X257437Y311004D01*
X257410Y310963D01*
X257382Y310907D01*
X257326Y310768D01*
X257257Y310602D01*
X257243Y310588D01*
X257229Y310533D01*
X257201Y310463D01*
X257174Y310366D01*
X257104Y310144D01*
X257091Y310019D01*
X257077Y309909D01*
Y309895D01*
Y309867D01*
X257091Y309811D01*
X257104Y309742D01*
X257132Y309673D01*
X257160Y309603D01*
X257215Y309534D01*
X257285Y309479D01*
X257299Y309465D01*
X257340Y309451D01*
X257396Y309423D01*
X257479Y309409D01*
X257562Y309395D01*
X257659D01*
X257770Y309409D01*
X257867Y309451D01*
X257881D01*
X257909Y309465D01*
X257950Y309492D01*
X258006Y309534D01*
X258158Y309617D01*
X258325Y309742D01*
X258339Y309756D01*
X258394Y309798D01*
X258464Y309867D01*
X258561Y309950D01*
X258672Y310047D01*
X258810Y310158D01*
X259088Y310408D01*
X259102Y310422D01*
X259157Y310463D01*
X259226Y310533D01*
X259323Y310616D01*
X259434Y310727D01*
X259559Y310838D01*
X259837Y311073D01*
X259850D01*
X259864Y311101D01*
X259934Y311157D01*
X260031Y311240D01*
X260128Y311337D01*
X260156Y311351D01*
X260211Y311406D01*
X260308Y311490D01*
X260419Y311600D01*
X260433Y311587D01*
X260461Y311573D01*
X260530Y311490D01*
X260613Y311379D01*
X260627Y311309D01*
Y311240D01*
X260613Y311212D01*
X260599Y311157D01*
X260558Y311073D01*
X260502Y310990D01*
Y310976D01*
X260474Y310963D01*
X260461Y310921D01*
X260419Y310865D01*
X260322Y310741D01*
X260183Y310560D01*
X260017Y310366D01*
X259837Y310158D01*
X259629Y309936D01*
X259407Y309714D01*
X259379Y309687D01*
X259310Y309617D01*
X259185Y309520D01*
X259018Y309395D01*
X258810Y309243D01*
X258588Y309090D01*
X258325Y308938D01*
X258034Y308785D01*
X258020Y308771D01*
X257964Y308757D01*
X257881Y308730D01*
X257784Y308702D01*
X257659Y308660D01*
X257507Y308633D01*
X257368Y308619D01*
X257201Y308605D01*
X257118D01*
X257035Y308619D01*
X256910Y308633D01*
X256786Y308647D01*
X256633Y308688D01*
X256480Y308730D01*
X256328Y308785D01*
X256314Y308799D01*
X256259Y308813D01*
X256189Y308855D01*
X256092Y308924D01*
X255995Y308993D01*
X255884Y309090D01*
X255787Y309215D01*
X255690Y309354D01*
X255676Y309368D01*
X255662Y309437D01*
X255634Y309520D01*
X255593Y309645D01*
X255565Y309798D01*
X255551Y309964D01*
Y310144D01*
X255565Y310352D01*
Y310366D01*
X255579Y310422D01*
X255593Y310491D01*
X255620Y310588D01*
X255648Y310699D01*
X255676Y310810D01*
X255773Y311073D01*
Y311087D01*
X255787Y311129D01*
X255815Y311198D01*
X255842Y311295D01*
X255884Y311406D01*
X255926Y311531D01*
X256037Y311795D01*
X256050Y311808D01*
X256064Y311864D01*
X256106Y311933D01*
X256147Y312030D01*
X256203Y312141D01*
X256259Y312280D01*
X256411Y312557D01*
X256425Y312571D01*
X256453Y312627D01*
X256494Y312696D01*
X256550Y312793D01*
X256605Y312918D01*
X256674Y313057D01*
X256841Y313362D01*
X256147D01*
X256037Y313389D01*
X256009D01*
X255912Y313417D01*
X255787Y313459D01*
X255662Y313514D01*
X255648D01*
X255634Y313528D01*
X255537Y313570D01*
X255426Y313625D01*
X255315Y313708D01*
X255302Y313722D01*
X255288Y313750D01*
X255260Y313792D01*
X255218Y313833D01*
X255191Y313903D01*
X255177Y313972D01*
Y314041D01*
X255191Y314125D01*
Y314138D01*
X255205Y314166D01*
X255260Y314235D01*
X255302Y314277D01*
X255357Y314319D01*
X255440Y314333D01*
X255537Y314346D01*
X255634D01*
X255704Y314360D01*
X255787D01*
X255898Y314374D01*
X256134Y314402D01*
X256411Y314443D01*
X256716Y314527D01*
X257035Y314624D01*
X257340Y314762D01*
X257354D01*
X257382Y314776D01*
X257423Y314804D01*
X257479Y314832D01*
X257562Y314873D01*
X257645Y314915D01*
X257867Y315012D01*
X258117Y315137D01*
X258394Y315289D01*
X258685Y315442D01*
X258991Y315595D01*
X259004Y315608D01*
X259032Y315622D01*
X259074Y315650D01*
X259143Y315692D01*
X259296Y315775D01*
X259490Y315858D01*
X259504D01*
X259531Y315886D01*
X259587Y315914D01*
X259656Y315941D01*
X259739Y315983D01*
X259837Y316038D01*
X260072Y316149D01*
Y316135D01*
D02*
G37*
G36*
X285285Y320116D02*
X285452Y320102D01*
X285646Y320046D01*
X285673D01*
X285729Y320019D01*
X285812Y319991D01*
X285923Y319949D01*
X286034Y319880D01*
X286159Y319811D01*
X286270Y319713D01*
X286367Y319603D01*
X286381Y319589D01*
X286408Y319547D01*
X286450Y319492D01*
X286478Y319394D01*
X286519Y319284D01*
X286533Y319159D01*
Y318992D01*
X286506Y318826D01*
Y318812D01*
X286492Y318757D01*
X286478Y318673D01*
X286464Y318562D01*
X286422Y318438D01*
X286395Y318299D01*
X286284Y318008D01*
Y317994D01*
X286256Y317938D01*
X286228Y317869D01*
X286187Y317758D01*
X286131Y317647D01*
X286062Y317522D01*
X285923Y317259D01*
X285909Y317245D01*
X285895Y317203D01*
X285854Y317120D01*
X285798Y317023D01*
X285729Y316912D01*
X285646Y316759D01*
X285549Y316607D01*
X285452Y316427D01*
X285340Y316219D01*
X285216Y316011D01*
X284966Y315567D01*
X284689Y315081D01*
X284398Y314582D01*
X284384Y314568D01*
X284356Y314527D01*
X284314Y314457D01*
X284259Y314360D01*
X284189Y314235D01*
X284106Y314097D01*
X284009Y313930D01*
X283912Y313750D01*
X283801Y313556D01*
X283676Y313348D01*
X283413Y312904D01*
X283136Y312419D01*
X282858Y311919D01*
X282844Y311906D01*
X282830Y311864D01*
X282789Y311808D01*
X282761Y311725D01*
X282705Y311642D01*
X282664Y311531D01*
X282567Y311282D01*
Y311268D01*
X282553Y311226D01*
X282525Y311143D01*
X282498Y311060D01*
X282470Y310949D01*
X282442Y310838D01*
X282387Y310574D01*
Y310546D01*
X282373Y310491D01*
Y310408D01*
X282359Y310311D01*
X282373Y310186D01*
X282400Y310075D01*
X282456Y309964D01*
X282539Y309881D01*
X282553D01*
X282581Y309853D01*
X282636Y309839D01*
X282705Y309811D01*
X282803Y309798D01*
X282927D01*
X283066Y309811D01*
X283232Y309853D01*
X283246Y309867D01*
X283316Y309881D01*
X283399Y309922D01*
X283496Y309978D01*
X283621Y310047D01*
X283759Y310117D01*
X284009Y310311D01*
X284023Y310325D01*
X284065Y310366D01*
X284134Y310436D01*
X284217Y310519D01*
X284328Y310630D01*
X284439Y310741D01*
X284675Y310990D01*
X284689Y311004D01*
X284703Y311032D01*
X284744Y311073D01*
X284786Y311129D01*
X284911Y311268D01*
X285063Y311420D01*
X285077Y311434D01*
X285091Y311462D01*
X285133Y311490D01*
X285188Y311545D01*
X285327Y311656D01*
X285493Y311767D01*
X285507Y311781D01*
X285562Y311808D01*
X285660Y311822D01*
X285854D01*
X285937Y311808D01*
X286034Y311795D01*
X286076Y311767D01*
X286103Y311739D01*
X286117Y311725D01*
X286145Y311670D01*
X286173Y311573D01*
X286187Y311503D01*
Y311420D01*
Y311406D01*
Y311379D01*
X286173Y311295D01*
X286159Y311184D01*
X286131Y311143D01*
X286103Y311101D01*
Y311087D01*
X286076Y311073D01*
X286048Y311032D01*
X285992Y310976D01*
X285881Y310838D01*
X285715Y310671D01*
X285521Y310463D01*
X285313Y310241D01*
X285077Y310006D01*
X284827Y309770D01*
X284813D01*
X284800Y309742D01*
X284758Y309714D01*
X284716Y309659D01*
X284578Y309548D01*
X284384Y309395D01*
X284162Y309229D01*
X283898Y309063D01*
X283607Y308882D01*
X283288Y308716D01*
X283274D01*
X283246Y308702D01*
X283205Y308674D01*
X283136Y308660D01*
X283052Y308633D01*
X282969Y308605D01*
X282747Y308563D01*
X282484Y308549D01*
X282206Y308563D01*
X282068Y308591D01*
X281929Y308633D01*
X281776Y308702D01*
X281638Y308785D01*
X281624D01*
X281610Y308813D01*
X281527Y308868D01*
X281402Y308979D01*
X281263Y309132D01*
X281111Y309326D01*
X280972Y309562D01*
X280861Y309839D01*
X280819Y309992D01*
X280792Y310144D01*
Y310158D01*
X280778Y310214D01*
X280764Y310297D01*
Y310380D01*
Y310408D01*
Y310477D01*
X280750Y310574D01*
X280736Y310699D01*
Y310713D01*
Y310727D01*
X280750Y310768D01*
Y310824D01*
X280778Y310963D01*
X280806Y311143D01*
X280847Y311351D01*
X280889Y311587D01*
X280958Y311850D01*
X281028Y312114D01*
Y312127D01*
X281041Y312141D01*
Y312183D01*
X281069Y312238D01*
X281111Y312363D01*
X281166Y312544D01*
X281249Y312752D01*
X281346Y312987D01*
X281457Y313237D01*
X281582Y313487D01*
Y313500D01*
X281596Y313514D01*
X281624Y313556D01*
X281651Y313611D01*
X281735Y313736D01*
X281846Y313916D01*
X281971Y314125D01*
X282109Y314360D01*
X282276Y314610D01*
X282442Y314873D01*
Y314887D01*
X282470Y314901D01*
X282484Y314943D01*
X282525Y314998D01*
X282622Y315123D01*
X282733Y315303D01*
X282872Y315511D01*
X283038Y315733D01*
X283205Y315983D01*
X283371Y316232D01*
X283385Y316246D01*
X283413Y316302D01*
X283468Y316371D01*
X283538Y316468D01*
X283621Y316579D01*
X283718Y316690D01*
X283926Y316940D01*
X283940Y316954D01*
X283981Y316995D01*
X284037Y317065D01*
X284106Y317162D01*
X284189Y317259D01*
X284286Y317384D01*
X284481Y317633D01*
X284495Y317647D01*
X284536Y317703D01*
X284592Y317786D01*
X284647Y317869D01*
X284661Y317897D01*
X284689Y317952D01*
X284730Y318035D01*
X284772Y318119D01*
Y318132D01*
X284786Y318160D01*
Y318202D01*
Y318257D01*
X284772Y318396D01*
X284758Y318465D01*
X284716Y318535D01*
X284689Y318562D01*
X284619Y318590D01*
X284495Y318618D01*
X284425D01*
X284328Y318590D01*
X284314D01*
X284286Y318576D01*
X284245Y318562D01*
X284189Y318535D01*
X284051Y318451D01*
X283898Y318354D01*
X283884D01*
X283857Y318327D01*
X283815Y318299D01*
X283759Y318271D01*
X283621Y318174D01*
X283468Y318063D01*
X283454D01*
X283441Y318035D01*
X283357Y317966D01*
X283232Y317855D01*
X283080Y317716D01*
X283066D01*
X283052Y317689D01*
X282969Y317661D01*
X282914Y317647D01*
X282844D01*
X282761Y317675D01*
X282678Y317716D01*
X282664Y317730D01*
X282636Y317758D01*
X282609Y317800D01*
X282567Y317855D01*
X282539Y317924D01*
X282511Y318008D01*
X282498Y318091D01*
X282511Y318188D01*
Y318202D01*
X282525Y318230D01*
X282539Y318285D01*
X282553Y318340D01*
X282609Y318507D01*
X282678Y318701D01*
Y318715D01*
X282692Y318729D01*
X282719Y318770D01*
X282747Y318826D01*
X282844Y318951D01*
X282983Y319117D01*
X283149Y319297D01*
X283371Y319492D01*
X283635Y319672D01*
X283954Y319838D01*
X283968D01*
X283981Y319852D01*
X284065Y319880D01*
X284176Y319935D01*
X284328Y319991D01*
X284508Y320033D01*
X284703Y320088D01*
X284911Y320116D01*
X285119Y320130D01*
X285216D01*
X285285Y320116D01*
D02*
G37*
G36*
X277796Y315927D02*
X277782Y315914D01*
X277768Y315872D01*
X277741Y315830D01*
X277671Y315692D01*
X277588Y315511D01*
X277477Y315317D01*
X277366Y315081D01*
X277130Y314610D01*
X277117Y314582D01*
X277075Y314499D01*
X277020Y314374D01*
X276936Y314222D01*
X276839Y314027D01*
X276728Y313819D01*
X276493Y313362D01*
X276479Y313334D01*
X276451Y313279D01*
X276395Y313168D01*
X276326Y313043D01*
X276243Y312876D01*
X276160Y312710D01*
X275952Y312322D01*
X275938Y312294D01*
X275896Y312238D01*
X275841Y312127D01*
X275771Y311989D01*
X275688Y311836D01*
X275591Y311656D01*
X275397Y311282D01*
Y311268D01*
X275383Y311240D01*
X275355Y311198D01*
X275327Y311143D01*
X275258Y311004D01*
X275189Y310838D01*
Y310824D01*
X275175Y310810D01*
X275147Y310768D01*
X275119Y310713D01*
X275050Y310574D01*
X274981Y310408D01*
Y310394D01*
X274953Y310338D01*
X274925Y310269D01*
X274898Y310186D01*
X274870Y310075D01*
X274856Y309964D01*
X274842Y309839D01*
Y309714D01*
Y309701D01*
Y309673D01*
X274856Y309617D01*
X274870Y309548D01*
X274898Y309479D01*
X274925Y309423D01*
X274981Y309354D01*
X275050Y309298D01*
X275064Y309284D01*
X275106Y309271D01*
X275161Y309243D01*
X275244Y309215D01*
X275327Y309201D01*
X275411Y309187D01*
X275508Y309201D01*
X275591Y309243D01*
X275605D01*
X275633Y309257D01*
X275688Y309284D01*
X275744Y309326D01*
X275896Y309409D01*
X276063Y309534D01*
X276076Y309548D01*
X276132Y309590D01*
X276215Y309659D01*
X276312Y309756D01*
X276423Y309853D01*
X276562Y309978D01*
X276839Y310228D01*
X276853Y310241D01*
X276908Y310297D01*
X276978Y310366D01*
X277089Y310463D01*
X277200Y310574D01*
X277339Y310699D01*
X277630Y310963D01*
X277644Y310976D01*
X277713Y311032D01*
X277796Y311101D01*
X277921Y311184D01*
X277949Y311198D01*
X278004Y311254D01*
X278101Y311323D01*
X278212Y311420D01*
X278226Y311406D01*
X278240Y311379D01*
X278268Y311323D01*
X278295Y311254D01*
X278323Y311101D01*
X278337Y311032D01*
X278323Y310963D01*
Y310949D01*
X278309Y310935D01*
X278281Y310865D01*
X278226Y310768D01*
X278157Y310671D01*
X278129Y310644D01*
X278074Y310574D01*
X277976Y310449D01*
X277852Y310297D01*
X277713Y310130D01*
X277533Y309936D01*
X277352Y309728D01*
X277158Y309534D01*
X277130Y309506D01*
X277061Y309451D01*
X276950Y309354D01*
X276812Y309243D01*
X276631Y309104D01*
X276423Y308952D01*
X276201Y308799D01*
X275952Y308660D01*
X275938D01*
X275924Y308647D01*
X275841Y308619D01*
X275730Y308563D01*
X275591Y308522D01*
X275577D01*
X275563Y308508D01*
X275480Y308494D01*
X275369Y308452D01*
X275244Y308425D01*
X275203D01*
X275147Y308411D01*
X274884D01*
X274662Y308438D01*
X274398Y308480D01*
X274135Y308563D01*
X273996Y308633D01*
X273871Y308702D01*
X273760Y308785D01*
X273650Y308896D01*
Y308910D01*
X273622Y308924D01*
X273566Y309007D01*
X273483Y309146D01*
X273400Y309326D01*
X273317Y309562D01*
X273275Y309839D01*
Y309992D01*
X273289Y310158D01*
X273317Y310338D01*
X273358Y310519D01*
Y310533D01*
X273386Y310588D01*
X273414Y310671D01*
X273441Y310768D01*
X273497Y310893D01*
X273552Y311032D01*
X273677Y311337D01*
X273691Y311351D01*
X273719Y311406D01*
X273746Y311490D01*
X273802Y311587D01*
X273857Y311711D01*
X273927Y311850D01*
X274065Y312141D01*
Y312155D01*
X274079Y312183D01*
X274107Y312225D01*
X274135Y312294D01*
X274218Y312446D01*
X274315Y312641D01*
Y312654D01*
X274343Y312682D01*
X274357Y312738D01*
X274398Y312807D01*
X274440Y312904D01*
X274482Y313001D01*
X274579Y313223D01*
X274398D01*
X274218Y313209D01*
X274024Y313195D01*
X273746D01*
X273594Y313223D01*
X273580D01*
X273566Y313237D01*
X273483Y313265D01*
X273386Y313320D01*
X273275Y313389D01*
X273261Y313403D01*
X273247Y313417D01*
X273178Y313487D01*
X273081Y313584D01*
X272984Y313681D01*
X272970Y313708D01*
X272956Y313764D01*
X272942Y313861D01*
X272956Y313972D01*
Y313986D01*
X272970Y314000D01*
X273011Y314069D01*
X273053Y314097D01*
X273109Y314125D01*
X273164Y314138D01*
X273247Y314152D01*
X273358D01*
X273455Y314166D01*
X273552D01*
X273677Y314180D01*
X273816Y314194D01*
X273968Y314222D01*
X274301Y314291D01*
X274676Y314388D01*
X275050Y314527D01*
X275425Y314707D01*
X275438Y314721D01*
X275466Y314735D01*
X275522Y314762D01*
X275591Y314804D01*
X275674Y314860D01*
X275785Y314915D01*
X275896Y314984D01*
X276035Y315054D01*
X276326Y315220D01*
X276659Y315400D01*
X277020Y315581D01*
X277394Y315775D01*
X277408D01*
X277449Y315789D01*
X277505Y315816D01*
X277574Y315830D01*
X277588Y315844D01*
X277630Y315872D01*
X277685Y315900D01*
X277796Y315941D01*
Y315927D01*
D02*
G37*
G36*
X282678Y305193D02*
X282775Y305152D01*
X282858Y305096D01*
X282872Y305082D01*
X282886Y305055D01*
X282927Y305013D01*
X282969Y304944D01*
X282997Y304860D01*
X283025Y304750D01*
X283038Y304625D01*
X283025Y304486D01*
Y304458D01*
X283011Y304403D01*
X282983Y304320D01*
X282941Y304223D01*
X282927Y304209D01*
X282914Y304153D01*
X282872Y304070D01*
X282830Y303959D01*
X282817Y303945D01*
X282789Y303890D01*
X282761Y303806D01*
X282733Y303723D01*
X282719Y303709D01*
X282692Y303640D01*
X282650Y303543D01*
X282595Y303404D01*
X282650D01*
X282705Y303390D01*
X282789D01*
X282983Y303377D01*
X283205Y303349D01*
X283246D01*
X283302Y303335D01*
X283371D01*
X283552Y303321D01*
X283746Y303293D01*
X283787D01*
X283815Y303279D01*
X283871D01*
X283995Y303252D01*
X284134Y303210D01*
X284148D01*
X284162Y303196D01*
X284217Y303127D01*
X284286Y303030D01*
X284314Y302947D01*
X284328Y302863D01*
Y302850D01*
Y302822D01*
X284314Y302766D01*
X284300Y302711D01*
X284245Y302572D01*
X284203Y302517D01*
X284134Y302475D01*
X284120D01*
X284106Y302461D01*
X284065Y302447D01*
X284009Y302433D01*
X283884Y302392D01*
X283718Y302364D01*
X283552D01*
X283385Y302350D01*
X283177Y302336D01*
X283011D01*
X282844Y302350D01*
X282650Y302364D01*
X282442D01*
X282262Y302336D01*
X282165Y302295D01*
X282068Y302253D01*
X282054Y302239D01*
X282040Y302225D01*
X281998Y302184D01*
X281943Y302128D01*
X281832Y301976D01*
X281721Y301782D01*
X281707Y301754D01*
X281665Y301685D01*
X281610Y301574D01*
X281541Y301421D01*
X281444Y301241D01*
X281346Y301047D01*
X281111Y300631D01*
X281097Y300603D01*
X281055Y300534D01*
X281000Y300422D01*
X280930Y300284D01*
X280833Y300104D01*
X280736Y299923D01*
X280625Y299715D01*
X280501Y299493D01*
Y299480D01*
X280487Y299466D01*
X280459Y299424D01*
X280431Y299368D01*
X280362Y299230D01*
X280265Y299036D01*
X280154Y298814D01*
X280029Y298564D01*
X279890Y298287D01*
X279752Y298009D01*
Y297996D01*
X279738Y297982D01*
X279710Y297940D01*
X279682Y297885D01*
X279613Y297746D01*
X279516Y297552D01*
X279405Y297330D01*
X279280Y297080D01*
X279141Y296803D01*
X279016Y296525D01*
Y296512D01*
X278989Y296484D01*
X278975Y296428D01*
X278933Y296373D01*
X278864Y296206D01*
X278795Y296012D01*
Y295998D01*
X278781Y295971D01*
X278753Y295915D01*
X278725Y295846D01*
X278684Y295679D01*
X278642Y295485D01*
Y295471D01*
Y295416D01*
Y295347D01*
Y295250D01*
X278670Y295152D01*
X278711Y295056D01*
X278767Y294958D01*
X278850Y294889D01*
X278864D01*
X278892Y294861D01*
X278947Y294847D01*
X279030Y294834D01*
X279114Y294820D01*
X279225Y294834D01*
X279335Y294861D01*
X279460Y294917D01*
X279474D01*
X279516Y294944D01*
X279571Y294972D01*
X279641Y295014D01*
X279807Y295125D01*
X279974Y295277D01*
X279987Y295291D01*
X280015Y295319D01*
X280070Y295361D01*
X280140Y295416D01*
X280292Y295555D01*
X280473Y295721D01*
X280487Y295735D01*
X280528Y295777D01*
X280584Y295832D01*
X280653Y295915D01*
X280750Y295998D01*
X280847Y296110D01*
X281083Y296359D01*
X281097Y296373D01*
X281138Y296415D01*
X281194Y296484D01*
X281263Y296553D01*
X281360Y296650D01*
X281457Y296761D01*
X281665Y296997D01*
X281679D01*
X281721Y296969D01*
X281749Y296955D01*
X281804Y296914D01*
Y296900D01*
X281790Y296845D01*
X281776Y296761D01*
X281749Y296678D01*
Y296664D01*
X281735Y296609D01*
X281707Y296525D01*
X281665Y296442D01*
X281651Y296415D01*
X281610Y296345D01*
X281555Y296248D01*
X281471Y296110D01*
X281374Y295943D01*
X281263Y295777D01*
X281000Y295402D01*
X280986Y295374D01*
X280930Y295319D01*
X280847Y295222D01*
X280750Y295111D01*
X280611Y294972D01*
X280473Y294820D01*
X280306Y294667D01*
X280126Y294515D01*
X280112Y294501D01*
X280070Y294473D01*
X280001Y294417D01*
X279904Y294362D01*
X279793Y294293D01*
X279655Y294223D01*
X279516Y294168D01*
X279363Y294112D01*
X279349D01*
X279294Y294085D01*
X279211Y294071D01*
X279114Y294043D01*
X278989Y294015D01*
X278850Y293988D01*
X278711Y293974D01*
X278559Y293960D01*
X278365D01*
X278268Y293974D01*
X278157Y294002D01*
X278018Y294043D01*
X277866Y294098D01*
X277713Y294168D01*
X277574Y294279D01*
X277560Y294293D01*
X277505Y294348D01*
X277449Y294431D01*
X277366Y294542D01*
X277297Y294667D01*
X277241Y294834D01*
X277200Y295014D01*
Y295222D01*
Y295236D01*
Y295291D01*
Y295374D01*
X277214Y295485D01*
Y295610D01*
X277227Y295749D01*
X277255Y296040D01*
Y296054D01*
X277269Y296110D01*
X277283Y296179D01*
X277297Y296276D01*
X277325Y296387D01*
X277366Y296512D01*
X277449Y296789D01*
Y296803D01*
X277463Y296817D01*
X277491Y296900D01*
X277533Y297025D01*
X277588Y297191D01*
X277657Y297372D01*
X277754Y297579D01*
X277949Y298037D01*
X277962Y298065D01*
X278004Y298134D01*
X278060Y298259D01*
X278129Y298412D01*
X278226Y298606D01*
X278323Y298828D01*
X278420Y299063D01*
X278531Y299313D01*
X278503Y299299D01*
X278434Y299285D01*
X278309Y299258D01*
X278157Y299216D01*
X277976Y299174D01*
X277782Y299119D01*
X277366Y299022D01*
X277339D01*
X277269Y298994D01*
X277158Y298966D01*
X277020Y298939D01*
X276867Y298897D01*
X276687Y298841D01*
X276298Y298731D01*
Y298745D01*
X276285Y298772D01*
X276257Y298800D01*
X276229Y298828D01*
Y298841D01*
Y298855D01*
X276201Y298911D01*
X276215Y298925D01*
X276271Y298939D01*
X276340Y298980D01*
X276437Y299022D01*
X276562Y299077D01*
X276687Y299133D01*
X276964Y299258D01*
X276978Y299272D01*
X277033Y299285D01*
X277117Y299327D01*
X277214Y299368D01*
X277325Y299424D01*
X277449Y299493D01*
X277713Y299632D01*
X277727Y299646D01*
X277782Y299674D01*
X277852Y299715D01*
X277949Y299785D01*
X278060Y299854D01*
X278184Y299937D01*
X278448Y300131D01*
X278462Y300145D01*
X278517Y300173D01*
X278587Y300228D01*
X278670Y300298D01*
X278781Y300395D01*
X278906Y300492D01*
X279141Y300714D01*
X279155Y300728D01*
X279197Y300769D01*
X279252Y300825D01*
X279322Y300908D01*
X279405Y301005D01*
X279502Y301130D01*
X279599Y301269D01*
X279696Y301407D01*
X279710Y301421D01*
X279738Y301476D01*
X279793Y301546D01*
X279876Y301657D01*
X279960Y301782D01*
X280070Y301920D01*
X280195Y302087D01*
X280334Y302253D01*
X280265D01*
X280182Y302267D01*
X280084D01*
X279862Y302281D01*
X279585D01*
X279530Y302295D01*
X279460D01*
X279294Y302323D01*
X279114Y302336D01*
X279100D01*
X279044Y302364D01*
X278961Y302378D01*
X278878Y302420D01*
X278864Y302433D01*
X278808Y302475D01*
X278739Y302530D01*
X278670Y302572D01*
X278684Y302600D01*
X278711Y302655D01*
X278753Y302752D01*
X278822Y302863D01*
Y302877D01*
X278836Y302891D01*
X278864Y302947D01*
X278920Y303016D01*
X278989Y303057D01*
X279003D01*
X279030Y303085D01*
X279086Y303099D01*
X279155Y303127D01*
X279335Y303182D01*
X279543Y303238D01*
X279599D01*
X279655Y303252D01*
X279724D01*
X279904Y303266D01*
X280223D01*
X280306Y303279D01*
X280487Y303307D01*
X280681Y303377D01*
X280695Y303390D01*
X280709Y303404D01*
X280750Y303446D01*
X280806Y303487D01*
X280861Y303557D01*
X280917Y303640D01*
X280986Y303737D01*
X281055Y303848D01*
Y303862D01*
X281083Y303890D01*
X281097Y303945D01*
X281138Y304014D01*
X281236Y304181D01*
X281374Y304361D01*
X281388Y304375D01*
X281402Y304403D01*
X281444Y304444D01*
X281485Y304514D01*
X281596Y304666D01*
X281749Y304833D01*
X281763Y304847D01*
X281804Y304902D01*
X281887Y304971D01*
X281984Y305041D01*
X282012Y305055D01*
X282068Y305096D01*
X282165Y305152D01*
X282276Y305179D01*
X282290D01*
X282331Y305193D01*
X282400Y305207D01*
X282581D01*
X282678Y305193D01*
D02*
G37*
G36*
X300249Y305637D02*
X300235Y305582D01*
X300208Y305498D01*
X300166Y305387D01*
X300110Y305263D01*
X300055Y305124D01*
X299944Y304860D01*
Y304847D01*
X299916Y304805D01*
X299888Y304736D01*
X299847Y304639D01*
X299805Y304528D01*
X299750Y304417D01*
X299625Y304139D01*
X299667D01*
X299708Y304125D01*
X299764Y304111D01*
X299902Y304084D01*
X300041Y304042D01*
X300083D01*
X300124Y304028D01*
X300180D01*
X300332Y304001D01*
X300526Y303959D01*
X300513D01*
X300485Y303945D01*
X300443Y303917D01*
X300388Y303876D01*
X300305Y303834D01*
X300221Y303793D01*
X300013Y303682D01*
X299778Y303543D01*
X299514Y303390D01*
X298959Y303057D01*
X298945D01*
X298932Y303044D01*
X298890Y303016D01*
X298834Y302988D01*
X298682Y302905D01*
X298488Y302794D01*
X298266Y302655D01*
X298016Y302517D01*
X297753Y302364D01*
X297475Y302198D01*
X297461Y302212D01*
X297448Y302253D01*
X297434D01*
X297392Y302281D01*
X297406Y302295D01*
X297434Y302323D01*
X297475Y302378D01*
X297531Y302447D01*
X297656Y302628D01*
X297822Y302836D01*
X297836Y302850D01*
X297864Y302877D01*
X297905Y302933D01*
X297961Y303002D01*
X298030Y303085D01*
X298113Y303182D01*
X298294Y303404D01*
X298280D01*
X298266Y303418D01*
X298169Y303446D01*
X298044Y303487D01*
X297919Y303529D01*
X297891D01*
X297850Y303543D01*
X297794Y303557D01*
X297670Y303584D01*
X297503Y303640D01*
X297517D01*
X297531Y303668D01*
X297572Y303696D01*
X297614Y303723D01*
X297753Y303820D01*
X297933Y303945D01*
X298127Y304098D01*
X298363Y304264D01*
X298599Y304444D01*
X298848Y304625D01*
X298862D01*
X298876Y304652D01*
X298918Y304666D01*
X298959Y304708D01*
X299098Y304805D01*
X299278Y304930D01*
X299486Y305082D01*
X299722Y305263D01*
X299986Y305443D01*
X300263Y305651D01*
X300249Y305637D01*
D02*
G37*
G36*
X246689Y305984D02*
X246772Y305970D01*
X246856Y305942D01*
X246967Y305928D01*
X247202Y305859D01*
X247466Y305748D01*
X247702Y305609D01*
X247826Y305526D01*
X247924Y305429D01*
X248007Y305332D01*
X248076Y305207D01*
Y305193D01*
X248090Y305179D01*
X248104Y305138D01*
X248118Y305082D01*
X248159Y304944D01*
X248173Y304750D01*
X248187Y304514D01*
X248159Y304236D01*
X248118Y304070D01*
X248076Y303917D01*
X248021Y303737D01*
X247938Y303557D01*
X247924Y303543D01*
X247910Y303501D01*
X247868Y303432D01*
X247813Y303349D01*
X247743Y303238D01*
X247646Y303127D01*
X247549Y303016D01*
X247438Y302891D01*
X247424Y302877D01*
X247383Y302836D01*
X247327Y302780D01*
X247244Y302711D01*
X247147Y302628D01*
X247036Y302530D01*
X246800Y302364D01*
X246772Y302350D01*
X246717Y302309D01*
X246606Y302239D01*
X246467Y302156D01*
X246301Y302059D01*
X246121Y301962D01*
X245913Y301851D01*
X245705Y301754D01*
X245677Y301740D01*
X245608Y301712D01*
X245497Y301657D01*
X245344Y301588D01*
X245178Y301504D01*
X244984Y301407D01*
X244567Y301199D01*
X244554D01*
X244540Y301185D01*
X244457Y301158D01*
X244345Y301116D01*
X244221Y301061D01*
X244207D01*
X244193Y301047D01*
X244151Y301033D01*
X244110Y301005D01*
X243971Y300936D01*
X243791Y300853D01*
X243805D01*
X243832Y300825D01*
X243888Y300811D01*
X243943Y300769D01*
X244082Y300700D01*
X244221Y300631D01*
X244235D01*
X244249Y300617D01*
X244332Y300575D01*
X244429Y300520D01*
X244540Y300450D01*
X244554Y300436D01*
X244595Y300395D01*
X244651Y300339D01*
X244720Y300270D01*
X244789Y300187D01*
X244845Y300076D01*
X244886Y299979D01*
Y299868D01*
Y299854D01*
X244872Y299826D01*
X244845Y299771D01*
X244803Y299701D01*
X244748Y299632D01*
X244664Y299549D01*
X244567Y299480D01*
X244429Y299410D01*
X244415Y299396D01*
X244345Y299382D01*
X244262Y299355D01*
X244137Y299327D01*
X243999Y299299D01*
X243832Y299272D01*
X243666Y299258D01*
X243416D01*
X243319Y299272D01*
X243195Y299285D01*
X243056Y299313D01*
X242903Y299355D01*
X242751Y299410D01*
X242598Y299493D01*
X242570Y299507D01*
X242501Y299535D01*
X242390Y299577D01*
X242251Y299618D01*
X242085Y299660D01*
X241919Y299674D01*
X241738D01*
X241558Y299632D01*
X241544D01*
X241489Y299604D01*
X241392Y299577D01*
X241281Y299521D01*
X241156Y299452D01*
X241003Y299368D01*
X240851Y299272D01*
X240684Y299147D01*
X240657Y299133D01*
X240601Y299063D01*
X240504Y298980D01*
X240393Y298855D01*
X240254Y298717D01*
X240116Y298550D01*
X239977Y298356D01*
X239838Y298162D01*
X239824Y298134D01*
X239783Y298065D01*
X239727Y297954D01*
X239672Y297815D01*
X239603Y297635D01*
X239533Y297427D01*
X239478Y297191D01*
X239436Y296942D01*
Y296928D01*
Y296900D01*
Y296858D01*
Y296803D01*
Y296650D01*
X239450Y296442D01*
X239492Y296220D01*
X239575Y295985D01*
X239686Y295749D01*
X239838Y295513D01*
X239866Y295485D01*
X239935Y295416D01*
X240046Y295319D01*
X240199Y295208D01*
X240379Y295097D01*
X240615Y295000D01*
X240878Y294931D01*
X241170Y294889D01*
X241655D01*
X241821Y294903D01*
X242196Y294944D01*
X242224D01*
X242279Y294958D01*
X242376Y294986D01*
X242501Y295028D01*
X242640Y295083D01*
X242792Y295152D01*
X242959Y295236D01*
X243125Y295347D01*
X243139D01*
X243153Y295374D01*
X243236Y295444D01*
X243347Y295569D01*
X243472Y295721D01*
Y295735D01*
X243500Y295749D01*
X243527Y295791D01*
X243555Y295846D01*
X243624Y295985D01*
X243694Y296151D01*
Y296165D01*
X243708Y296179D01*
X243722Y296248D01*
X243735Y296359D01*
Y296498D01*
Y296512D01*
X243722Y296525D01*
X243694Y296609D01*
X243624Y296706D01*
X243555Y296789D01*
X243541Y296803D01*
X243472Y296817D01*
X243389Y296831D01*
X243264Y296817D01*
X243236D01*
X243139Y296803D01*
X243014Y296775D01*
X242889Y296733D01*
X242875Y296720D01*
X242820Y296692D01*
X242751Y296637D01*
X242681Y296567D01*
X242668Y296539D01*
X242626Y296484D01*
X242570Y296401D01*
X242515Y296331D01*
X242501Y296318D01*
X242459Y296290D01*
X242390Y296234D01*
X242307Y296179D01*
X242210Y296123D01*
X242099Y296068D01*
X241974Y296040D01*
X241849Y296012D01*
X241724D01*
X241641Y296026D01*
X241544Y296054D01*
X241447Y296082D01*
X241350Y296137D01*
X241267Y296206D01*
X241253Y296220D01*
X241225Y296248D01*
X241183Y296304D01*
X241142Y296373D01*
X241100Y296456D01*
X241073Y296553D01*
X241059Y296664D01*
Y296789D01*
Y296803D01*
X241073Y296845D01*
X241087Y296914D01*
X241114Y297011D01*
X241170Y297108D01*
X241225Y297233D01*
X241322Y297358D01*
X241433Y297482D01*
X241461Y297510D01*
X241530Y297566D01*
X241655Y297663D01*
X241808Y297774D01*
X242016Y297885D01*
X242251Y297996D01*
X242515Y298079D01*
X242806Y298134D01*
X243097D01*
X243291Y298106D01*
X243513Y298065D01*
X243763Y297996D01*
X244027Y297885D01*
X244276Y297746D01*
X244290D01*
X244304Y297718D01*
X244387Y297663D01*
X244512Y297552D01*
X244651Y297399D01*
X244803Y297219D01*
X244928Y296997D01*
X245039Y296733D01*
X245067Y296595D01*
X245094Y296442D01*
Y296428D01*
Y296415D01*
Y296373D01*
Y296318D01*
X245081Y296165D01*
X245039Y295985D01*
X244970Y295763D01*
X244845Y295541D01*
X244776Y295430D01*
X244678Y295305D01*
X244581Y295194D01*
X244457Y295083D01*
X244443D01*
X244429Y295056D01*
X244387Y295028D01*
X244318Y294986D01*
X244249Y294931D01*
X244165Y294875D01*
X243971Y294736D01*
X243722Y294598D01*
X243444Y294445D01*
X243153Y294307D01*
X242834Y294196D01*
X242820D01*
X242792Y294182D01*
X242751D01*
X242681Y294154D01*
X242598Y294140D01*
X242501Y294126D01*
X242279Y294085D01*
X242002Y294057D01*
X241683Y294029D01*
X241336D01*
X240975Y294043D01*
X240962D01*
X240920Y294057D01*
X240851D01*
X240754Y294071D01*
X240657Y294098D01*
X240532Y294112D01*
X240282Y294168D01*
X240268D01*
X240213Y294182D01*
X240143Y294196D01*
X240046Y294209D01*
X239935Y294237D01*
X239811Y294265D01*
X239547Y294334D01*
X239533D01*
X239478Y294362D01*
X239394Y294390D01*
X239284Y294431D01*
X239145Y294487D01*
X238992Y294556D01*
X238826Y294639D01*
X238659Y294750D01*
X238479Y294875D01*
X238299Y295000D01*
X238119Y295166D01*
X237938Y295333D01*
X237786Y295527D01*
X237647Y295749D01*
X237522Y295985D01*
X237425Y296234D01*
Y296248D01*
X237411Y296304D01*
X237397Y296373D01*
X237384Y296484D01*
X237370Y296609D01*
X237356Y296761D01*
Y296942D01*
X237370Y297136D01*
X237397Y297330D01*
X237439Y297552D01*
X237495Y297787D01*
X237578Y298023D01*
X237689Y298273D01*
X237827Y298523D01*
X237994Y298772D01*
X238188Y299022D01*
X238202Y299050D01*
X238257Y299105D01*
X238340Y299188D01*
X238451Y299299D01*
X238590Y299424D01*
X238757Y299563D01*
X238923Y299701D01*
X239117Y299840D01*
X239145Y299854D01*
X239200Y299895D01*
X239311Y299965D01*
X239450Y300048D01*
X239616Y300131D01*
X239797Y300228D01*
X240005Y300326D01*
X240213Y300422D01*
X240227D01*
X240268Y300436D01*
X240324Y300464D01*
X240393Y300492D01*
X240546Y300575D01*
X240615Y300631D01*
X240684Y300686D01*
Y300700D01*
X240698Y300714D01*
X240726Y300755D01*
X240740Y300811D01*
Y300894D01*
Y300991D01*
X240726Y301102D01*
X240684Y301227D01*
Y301241D01*
X240670Y301269D01*
X240657Y301310D01*
X240643Y301366D01*
X240629Y301518D01*
Y301698D01*
Y301712D01*
Y301740D01*
Y301796D01*
X240643Y301851D01*
X240670Y302003D01*
X240712Y302156D01*
X240726Y302170D01*
X240754Y302225D01*
X240795Y302323D01*
X240851Y302433D01*
X240906Y302558D01*
X240975Y302697D01*
X241142Y303002D01*
X241156Y303016D01*
X241183Y303071D01*
X241225Y303155D01*
X241281Y303266D01*
X241364Y303377D01*
X241447Y303487D01*
X241558Y303612D01*
X241669Y303723D01*
X241683Y303737D01*
X241710Y303765D01*
X241766Y303820D01*
X241835Y303876D01*
X241932Y303959D01*
X242043Y304056D01*
X242168Y304153D01*
X242307Y304264D01*
X242626Y304514D01*
X242986Y304763D01*
X243375Y305027D01*
X243791Y305263D01*
X243805Y305277D01*
X243846Y305290D01*
X243902Y305318D01*
X243999Y305360D01*
X244096Y305401D01*
X244235Y305457D01*
X244373Y305526D01*
X244540Y305582D01*
X244720Y305637D01*
X244914Y305706D01*
X245358Y305817D01*
X245830Y305914D01*
X246343Y305970D01*
X246357D01*
X246384Y305984D01*
X246453Y305998D01*
X246634D01*
X246689Y305984D01*
D02*
G37*
G36*
X288142Y301380D02*
X288197Y301352D01*
X288211Y301338D01*
X288225Y301310D01*
X288253Y301241D01*
X288281Y301144D01*
Y301116D01*
X288295Y301061D01*
Y300991D01*
X288281Y300908D01*
Y300894D01*
X288267Y300866D01*
X288253Y300811D01*
X288225Y300755D01*
X288142Y300589D01*
X288045Y300395D01*
Y300381D01*
X288031Y300353D01*
X288003Y300312D01*
X287976Y300242D01*
X287892Y300076D01*
X287809Y299868D01*
X287823D01*
X287837Y299882D01*
X287920Y299909D01*
X288031Y299951D01*
X288183Y300020D01*
X288364Y300090D01*
X288572Y300173D01*
X289002Y300367D01*
X289030Y300381D01*
X289099Y300409D01*
X289224Y300450D01*
X289376Y300506D01*
X289543Y300575D01*
X289751Y300644D01*
X289973Y300714D01*
X290194Y300797D01*
X290208D01*
X290236Y300811D01*
X290292D01*
X290361Y300825D01*
X290541Y300839D01*
X290749Y300853D01*
X290930D01*
X291110Y300839D01*
X291304Y300825D01*
X291332D01*
X291387Y300811D01*
X291470Y300783D01*
X291581Y300742D01*
X291692Y300686D01*
X291817Y300617D01*
X291928Y300534D01*
X292025Y300422D01*
X292039Y300409D01*
X292067Y300367D01*
X292094Y300298D01*
X292136Y300201D01*
X292178Y300090D01*
X292219Y299937D01*
X292233Y299785D01*
Y299604D01*
Y299577D01*
X292219Y299507D01*
X292205Y299410D01*
X292164Y299272D01*
X292108Y299105D01*
X292039Y298939D01*
X291942Y298745D01*
X291817Y298564D01*
X291803Y298536D01*
X291748Y298481D01*
X291665Y298398D01*
X291567Y298301D01*
X291429Y298176D01*
X291262Y298079D01*
X291082Y297982D01*
X290888Y297899D01*
X290874D01*
X290819Y297885D01*
X290735Y297871D01*
X290624Y297843D01*
X290333D01*
X290278Y297857D01*
X290208Y297871D01*
X290125Y297899D01*
X290028Y297940D01*
X289931Y297996D01*
X289834Y298051D01*
X289737Y298134D01*
X289723Y298148D01*
X289695Y298176D01*
X289667Y298218D01*
X289626Y298287D01*
X289584Y298370D01*
X289557Y298453D01*
X289529Y298564D01*
Y298675D01*
Y298689D01*
Y298717D01*
X289543Y298772D01*
X289557Y298828D01*
X289598Y298897D01*
X289640Y298966D01*
X289709Y299036D01*
X289792Y299091D01*
X289806D01*
X289834Y299105D01*
X289903Y299119D01*
X289973Y299147D01*
X290070Y299160D01*
X290181Y299174D01*
X290486D01*
X290555Y299160D01*
X290666Y299147D01*
X290777Y299119D01*
X290874D01*
X290916Y299133D01*
X290957Y299160D01*
X290985Y299216D01*
X291013Y299285D01*
X291027Y299313D01*
X291040Y299368D01*
X291054Y299466D01*
X291068Y299577D01*
Y299590D01*
Y299604D01*
Y299688D01*
X291040Y299771D01*
X291013Y299868D01*
Y299882D01*
X290999Y299895D01*
X290943Y299979D01*
X290860Y300062D01*
X290805Y300104D01*
X290749Y300131D01*
X290735D01*
X290721Y300145D01*
X290638Y300159D01*
X290527D01*
X290403Y300131D01*
X290389D01*
X290361Y300117D01*
X290319Y300104D01*
X290250Y300076D01*
X290111Y300020D01*
X289931Y299951D01*
X289917D01*
X289889Y299937D01*
X289848Y299923D01*
X289792Y299909D01*
X289654Y299840D01*
X289501Y299757D01*
X289487Y299743D01*
X289446Y299715D01*
X289376Y299674D01*
X289279Y299604D01*
X289154Y299521D01*
X289030Y299424D01*
X288877Y299313D01*
X288710Y299188D01*
X288336Y298883D01*
X287934Y298550D01*
X287518Y298176D01*
X287116Y297774D01*
X287102Y297760D01*
X287074Y297718D01*
X287019Y297663D01*
X286949Y297579D01*
X286852Y297469D01*
X286755Y297344D01*
X286644Y297191D01*
X286519Y297025D01*
X286381Y296845D01*
X286256Y296650D01*
X286103Y296428D01*
X285965Y296206D01*
X285687Y295707D01*
X285438Y295166D01*
Y295152D01*
X285424Y295139D01*
X285382Y295042D01*
X285327Y294917D01*
X285243Y294764D01*
X285146Y294612D01*
X285035Y294473D01*
X284925Y294348D01*
X284855Y294307D01*
X284800Y294279D01*
X284786D01*
X284744Y294265D01*
X284661Y294237D01*
X284536Y294223D01*
X284356Y294209D01*
X284259Y294196D01*
X283857D01*
X283704Y294209D01*
X283524Y294223D01*
X283538Y294237D01*
X283552Y294279D01*
X283579Y294362D01*
X283635Y294459D01*
X283690Y294584D01*
X283759Y294723D01*
X283829Y294889D01*
X283926Y295083D01*
X284023Y295277D01*
X284120Y295485D01*
X284356Y295943D01*
X284606Y296442D01*
X284883Y296942D01*
X284897Y296955D01*
X284911Y296997D01*
X284952Y297080D01*
X285008Y297177D01*
X285077Y297288D01*
X285160Y297441D01*
X285243Y297607D01*
X285354Y297787D01*
X285465Y297982D01*
X285576Y298204D01*
X285854Y298661D01*
X286145Y299174D01*
X286450Y299701D01*
X286422D01*
X286353Y299688D01*
X286256Y299660D01*
X286117Y299632D01*
X285979Y299590D01*
X285812Y299549D01*
X285646Y299507D01*
X285493Y299466D01*
X285479D01*
X285424Y299452D01*
X285340Y299438D01*
X285230Y299410D01*
X285091Y299382D01*
X284938Y299341D01*
X284619Y299258D01*
Y299272D01*
Y299313D01*
X284606Y299327D01*
X284592Y299382D01*
X284606D01*
X284633Y299410D01*
X284716Y299466D01*
X284730Y299480D01*
X284758Y299493D01*
X284800Y299521D01*
X284855Y299549D01*
X284869D01*
X284883Y299563D01*
X284925Y299590D01*
X284980Y299604D01*
X285105Y299674D01*
X285285Y299771D01*
X285493Y299868D01*
X285729Y299993D01*
X285979Y300117D01*
X286242Y300242D01*
X286256D01*
X286270Y300256D01*
X286311Y300284D01*
X286367Y300312D01*
X286492Y300395D01*
X286658Y300506D01*
X286852Y300658D01*
X287074Y300825D01*
X287282Y301019D01*
X287490Y301227D01*
X287504Y301241D01*
X287518Y301269D01*
X287560Y301310D01*
X287615Y301352D01*
X287629Y301366D01*
X287656Y301380D01*
X287698Y301393D01*
X287754Y301407D01*
X288073D01*
X288142Y301380D01*
D02*
G37*
G36*
X308889Y301796D02*
X309028Y301782D01*
X309319Y301726D01*
X309333D01*
X309361Y301712D01*
X309402Y301698D01*
X309444Y301685D01*
X309583Y301629D01*
X309749Y301546D01*
X309929Y301421D01*
X310096Y301269D01*
X310234Y301074D01*
X310290Y300949D01*
X310331Y300825D01*
Y300811D01*
X310345Y300797D01*
X310359Y300714D01*
X310373Y300603D01*
Y300478D01*
Y300450D01*
Y300395D01*
X310345Y300298D01*
X310317Y300173D01*
X310276Y300020D01*
X310193Y299868D01*
X310096Y299688D01*
X309957Y299521D01*
X309943Y299507D01*
X309929Y299493D01*
X309888Y299452D01*
X309832Y299410D01*
X309707Y299299D01*
X309555Y299174D01*
X309541D01*
X309513Y299147D01*
X309471Y299119D01*
X309430Y299077D01*
X309291Y298994D01*
X309125Y298883D01*
X309111D01*
X309083Y298869D01*
X309042Y298841D01*
X308972Y298828D01*
X308834Y298772D01*
X308653Y298731D01*
X308612D01*
X308570Y298745D01*
X308515Y298758D01*
X308445Y298786D01*
X308376Y298814D01*
X308293Y298869D01*
X308223Y298939D01*
X308209Y298953D01*
X308182Y298980D01*
X308154Y299022D01*
X308112Y299077D01*
X308043Y299230D01*
X308015Y299313D01*
Y299410D01*
Y299424D01*
Y299452D01*
X308029Y299507D01*
X308043Y299563D01*
X308099Y299715D01*
X308168Y299895D01*
Y299909D01*
X308182Y299923D01*
X308237Y300007D01*
X308321Y300104D01*
X308417Y300215D01*
X308431Y300228D01*
X308445Y300242D01*
X308515Y300312D01*
X308598Y300409D01*
X308681Y300506D01*
X308695Y300534D01*
X308723Y300589D01*
X308764Y300658D01*
X308806Y300742D01*
X308820Y300755D01*
X308848Y300811D01*
X308875Y300894D01*
X308917Y300977D01*
X308889D01*
X308834Y301005D01*
X308736Y301019D01*
X308653Y301061D01*
X308626Y301074D01*
X308570Y301088D01*
X308487Y301102D01*
X308390Y301088D01*
X308376D01*
X308321Y301074D01*
X308251Y301047D01*
X308154Y301019D01*
X308043Y300977D01*
X307918Y300936D01*
X307641Y300825D01*
X307627D01*
X307572Y300797D01*
X307502Y300769D01*
X307405Y300728D01*
X307294Y300686D01*
X307183Y300631D01*
X306920Y300506D01*
X306892Y300492D01*
X306836Y300450D01*
X306740Y300381D01*
X306615Y300284D01*
X306462Y300173D01*
X306323Y300048D01*
X306171Y299895D01*
X306018Y299729D01*
X306004Y299715D01*
X305963Y299646D01*
X305893Y299563D01*
X305810Y299438D01*
X305713Y299299D01*
X305602Y299133D01*
X305491Y298966D01*
X305380Y298772D01*
X305366Y298745D01*
X305325Y298661D01*
X305256Y298550D01*
X305172Y298398D01*
X305061Y298204D01*
X304964Y297996D01*
X304853Y297774D01*
X304742Y297552D01*
X304729Y297524D01*
X304701Y297441D01*
X304645Y297316D01*
X304576Y297164D01*
X304507Y296969D01*
X304451Y296733D01*
X304382Y296498D01*
X304326Y296234D01*
Y296220D01*
Y296206D01*
Y296165D01*
X304312Y296110D01*
Y295971D01*
X304326Y295804D01*
X304354Y295610D01*
X304410Y295416D01*
X304479Y295236D01*
X304590Y295083D01*
X304604Y295069D01*
X304659Y295028D01*
X304742Y294972D01*
X304867Y294931D01*
X305034Y294875D01*
X305228Y294847D01*
X305464D01*
X305727Y294889D01*
X305741D01*
X305796Y294917D01*
X305880Y294931D01*
X305977Y294972D01*
X306088Y295014D01*
X306226Y295069D01*
X306504Y295194D01*
X306518Y295208D01*
X306573Y295236D01*
X306642Y295277D01*
X306740Y295333D01*
X306850Y295402D01*
X306975Y295485D01*
X307239Y295638D01*
X307253Y295652D01*
X307294Y295679D01*
X307363Y295721D01*
X307447Y295777D01*
X307558Y295846D01*
X307669Y295929D01*
X307904Y296123D01*
X307918Y296137D01*
X307960Y296165D01*
X308029Y296220D01*
X308112Y296290D01*
X308223Y296373D01*
X308348Y296470D01*
X308626Y296678D01*
Y296664D01*
X308612Y296623D01*
X308584Y296539D01*
X308542Y296442D01*
X308487Y296331D01*
X308417Y296193D01*
X308348Y296054D01*
X308251Y295888D01*
X308126Y295721D01*
X308001Y295555D01*
X307849Y295388D01*
X307682Y295208D01*
X307488Y295042D01*
X307280Y294889D01*
X307045Y294736D01*
X306795Y294598D01*
X306781Y294584D01*
X306726Y294570D01*
X306656Y294529D01*
X306559Y294487D01*
X306434Y294445D01*
X306282Y294390D01*
X306115Y294334D01*
X305935Y294279D01*
X305741Y294237D01*
X305519Y294196D01*
X305297Y294168D01*
X305075Y294154D01*
X304839Y294140D01*
X304604Y294154D01*
X304368Y294196D01*
X304132Y294251D01*
X304118D01*
X304091Y294265D01*
X304049Y294279D01*
X303993Y294307D01*
X303855Y294362D01*
X303675Y294459D01*
X303466Y294570D01*
X303258Y294709D01*
X303064Y294889D01*
X302884Y295083D01*
Y295097D01*
X302870Y295111D01*
X302815Y295194D01*
X302745Y295319D01*
X302676Y295499D01*
X302607Y295707D01*
X302551Y295943D01*
X302523Y296220D01*
X302537Y296525D01*
Y296539D01*
Y296581D01*
X302551Y296650D01*
X302565Y296720D01*
X302579Y296817D01*
X302593Y296928D01*
X302648Y297164D01*
Y297177D01*
X302662Y297219D01*
X302676Y297288D01*
X302704Y297372D01*
X302718Y297482D01*
X302745Y297593D01*
X302787Y297871D01*
X302731D01*
X302676Y297885D01*
X302607Y297899D01*
X302510D01*
X302412Y297912D01*
X302177Y297954D01*
X302121D01*
X302066Y297968D01*
X301996Y297982D01*
X301816Y297996D01*
X301608Y298037D01*
Y298051D01*
Y298065D01*
Y298134D01*
Y298162D01*
Y298218D01*
X301622D01*
X301650Y298231D01*
X301705Y298245D01*
X301761Y298273D01*
X301913Y298328D01*
X302094Y298384D01*
X302107D01*
X302135Y298398D01*
X302191Y298412D01*
X302260Y298439D01*
X302426Y298495D01*
X302621Y298564D01*
X302648Y298578D01*
X302718Y298606D01*
X302815Y298661D01*
X302953Y298731D01*
X303106Y298814D01*
X303272Y298925D01*
X303439Y299036D01*
X303605Y299174D01*
X303619Y299188D01*
X303675Y299244D01*
X303772Y299327D01*
X303883Y299424D01*
X304007Y299549D01*
X304160Y299688D01*
X304479Y299979D01*
X304493Y299993D01*
X304507Y300007D01*
X304548Y300048D01*
X304590Y300090D01*
X304729Y300215D01*
X304909Y300367D01*
X305131Y300547D01*
X305366Y300742D01*
X305630Y300949D01*
X305921Y301144D01*
X305935D01*
X305963Y301171D01*
X306004Y301185D01*
X306060Y301227D01*
X306129Y301269D01*
X306213Y301310D01*
X306420Y301407D01*
X306670Y301518D01*
X306975Y301615D01*
X307294Y301698D01*
X307641Y301754D01*
X307655D01*
X307710Y301768D01*
X307807D01*
X307918Y301782D01*
X308043Y301796D01*
X308196D01*
X308515Y301809D01*
X308764D01*
X308889Y301796D01*
D02*
G37*
G36*
X273206Y301712D02*
X273386Y301698D01*
X273594Y301657D01*
X273802Y301615D01*
X274010Y301546D01*
X274204Y301463D01*
X274232Y301449D01*
X274287Y301407D01*
X274371Y301338D01*
X274468Y301241D01*
X274579Y301116D01*
X274676Y300977D01*
X274759Y300797D01*
X274814Y300589D01*
Y300561D01*
X274828Y300506D01*
Y300409D01*
Y300284D01*
X274800Y300131D01*
X274759Y299951D01*
X274690Y299771D01*
X274579Y299577D01*
X274565Y299549D01*
X274509Y299493D01*
X274440Y299410D01*
X274329Y299299D01*
X274190Y299160D01*
X274024Y299036D01*
X273816Y298897D01*
X273594Y298772D01*
X273580D01*
X273552Y298745D01*
X273511Y298731D01*
X273455Y298703D01*
X273441D01*
X273400Y298689D01*
X273344Y298675D01*
X273303Y298647D01*
X273081D01*
X272984Y298661D01*
X272873Y298689D01*
X272762Y298731D01*
X272665Y298800D01*
X272651Y298814D01*
X272623Y298841D01*
X272596Y298883D01*
X272554Y298953D01*
X272526Y299022D01*
X272512Y299133D01*
X272498Y299244D01*
X272526Y299382D01*
Y299396D01*
X272540Y299424D01*
X272568Y299480D01*
X272596Y299535D01*
X272665Y299688D01*
X272776Y299868D01*
X272790Y299882D01*
X272803Y299909D01*
X272845Y299951D01*
X272887Y300020D01*
X272984Y300173D01*
X273095Y300339D01*
X273109Y300353D01*
X273136Y300409D01*
X273192Y300492D01*
X273247Y300589D01*
X273261Y300617D01*
X273289Y300672D01*
X273330Y300755D01*
X273386Y300853D01*
X273358D01*
X273275Y300866D01*
X273164Y300894D01*
X273039Y300908D01*
X273011Y300922D01*
X272942Y300936D01*
X272845Y300949D01*
X272693D01*
X272637Y300936D01*
X272540Y300908D01*
X272401Y300880D01*
X272249Y300825D01*
X272082Y300769D01*
X271736Y300631D01*
X271722Y300617D01*
X271652Y300589D01*
X271569Y300534D01*
X271458Y300464D01*
X271333Y300381D01*
X271181Y300270D01*
X271042Y300159D01*
X270890Y300020D01*
X270876Y300007D01*
X270848Y299979D01*
X270806Y299937D01*
X270751Y299882D01*
X270682Y299799D01*
X270612Y299715D01*
X270418Y299493D01*
X270210Y299216D01*
X269988Y298911D01*
X269766Y298578D01*
X269558Y298218D01*
Y298204D01*
X269531Y298176D01*
X269517Y298120D01*
X269475Y298051D01*
X269433Y297968D01*
X269392Y297857D01*
X269336Y297732D01*
X269281Y297593D01*
X269170Y297288D01*
X269045Y296928D01*
X268934Y296539D01*
X268837Y296123D01*
Y296110D01*
X268823Y296082D01*
Y296040D01*
Y295985D01*
X268809Y295846D01*
X268837Y295666D01*
Y295652D01*
Y295624D01*
X268851Y295583D01*
X268865Y295513D01*
X268893Y295374D01*
X268948Y295194D01*
Y295180D01*
X268962Y295152D01*
X268990Y295111D01*
X269017Y295056D01*
X269114Y294931D01*
X269184Y294861D01*
X269267Y294806D01*
X269281D01*
X269309Y294792D01*
X269350Y294764D01*
X269406Y294750D01*
X269572Y294723D01*
X269655Y294709D01*
X269766Y294723D01*
X269780D01*
X269822Y294736D01*
X269877Y294750D01*
X269947Y294764D01*
X270141Y294792D01*
X270349Y294834D01*
X270363D01*
X270390Y294847D01*
X270446Y294861D01*
X270501Y294875D01*
X270654Y294944D01*
X270834Y295028D01*
X270862Y295042D01*
X270931Y295083D01*
X271042Y295152D01*
X271181Y295236D01*
X271347Y295333D01*
X271542Y295458D01*
X271944Y295721D01*
X271971Y295735D01*
X272027Y295791D01*
X272138Y295860D01*
X272276Y295957D01*
X272443Y296068D01*
X272623Y296193D01*
X272831Y296331D01*
X273039Y296470D01*
Y296456D01*
X273025Y296415D01*
X272998Y296345D01*
X272970Y296262D01*
X272914Y296165D01*
X272859Y296040D01*
X272790Y295901D01*
X272693Y295763D01*
X272596Y295610D01*
X272471Y295444D01*
X272332Y295277D01*
X272179Y295125D01*
X271999Y294958D01*
X271791Y294806D01*
X271583Y294653D01*
X271333Y294515D01*
X271320Y294501D01*
X271278Y294487D01*
X271209Y294445D01*
X271098Y294404D01*
X270987Y294348D01*
X270834Y294293D01*
X270682Y294237D01*
X270487Y294182D01*
X270293Y294140D01*
X270085Y294098D01*
X269849Y294057D01*
X269614Y294043D01*
X269378Y294029D01*
X269114Y294043D01*
X268865Y294085D01*
X268601Y294140D01*
X268587D01*
X268574Y294154D01*
X268532Y294168D01*
X268477Y294182D01*
X268338Y294237D01*
X268171Y294307D01*
X267977Y294404D01*
X267783Y294542D01*
X267589Y294695D01*
X267409Y294889D01*
X267395Y294917D01*
X267339Y294986D01*
X267270Y295097D01*
X267201Y295250D01*
X267117Y295430D01*
X267062Y295652D01*
X267020Y295901D01*
X267006Y296179D01*
Y296193D01*
Y296248D01*
X267020Y296318D01*
X267034Y296415D01*
Y296539D01*
X267048Y296664D01*
X267090Y296942D01*
Y296955D01*
X267104Y297011D01*
X267117Y297094D01*
X267145Y297191D01*
X267173Y297316D01*
X267201Y297455D01*
X267242Y297746D01*
X267201D01*
X267145Y297760D01*
X267076Y297774D01*
X266979Y297787D01*
X266882Y297801D01*
X266660Y297843D01*
X266646D01*
X266604Y297857D01*
X266549D01*
X266466Y297871D01*
X266382Y297885D01*
X266271Y297899D01*
X266022Y297926D01*
X266036Y297940D01*
X266050Y297982D01*
X266077Y298037D01*
X266105Y298065D01*
Y298079D01*
X266119Y298106D01*
X266147Y298120D01*
X266161Y298134D01*
X266174D01*
X266202Y298148D01*
X266244Y298162D01*
X266313Y298176D01*
X266382Y298190D01*
X266466Y298218D01*
X266688Y298301D01*
X266923Y298384D01*
X267173Y298509D01*
X267436Y298661D01*
X267700Y298828D01*
X267714D01*
X267728Y298855D01*
X267811Y298911D01*
X267950Y299008D01*
X268116Y299147D01*
X268310Y299313D01*
X268518Y299493D01*
X268740Y299701D01*
X268976Y299923D01*
X268990Y299937D01*
X269017Y299965D01*
X269059Y300007D01*
X269114Y300062D01*
X269198Y300117D01*
X269281Y300201D01*
X269503Y300381D01*
X269766Y300589D01*
X270071Y300811D01*
X270404Y301019D01*
X270751Y301227D01*
X270765D01*
X270793Y301255D01*
X270848Y301269D01*
X270917Y301310D01*
X271014Y301338D01*
X271125Y301380D01*
X271236Y301435D01*
X271389Y301476D01*
X271542Y301518D01*
X271708Y301574D01*
X272069Y301643D01*
X272484Y301698D01*
X272928Y301726D01*
X273067D01*
X273206Y301712D01*
D02*
G37*
G36*
X263498Y301671D02*
X263567D01*
X263650Y301657D01*
X263761Y301629D01*
X263886Y301601D01*
X264025Y301574D01*
X264177Y301518D01*
X264330Y301463D01*
X264344Y301449D01*
X264399Y301421D01*
X264469Y301380D01*
X264552Y301310D01*
X264635Y301213D01*
X264732Y301088D01*
X264815Y300949D01*
X264885Y300769D01*
X264898Y300742D01*
X264912Y300686D01*
X264940Y300589D01*
X264954Y300464D01*
X264968Y300326D01*
Y300173D01*
X264954Y300007D01*
X264912Y299840D01*
X264898Y299826D01*
X264885Y299771D01*
X264843Y299688D01*
X264788Y299590D01*
X264704Y299480D01*
X264621Y299355D01*
X264496Y299230D01*
X264371Y299119D01*
X264358Y299105D01*
X264302Y299063D01*
X264219Y299008D01*
X264108Y298925D01*
X263983Y298828D01*
X263845Y298731D01*
X263526Y298509D01*
X263512Y298495D01*
X263442Y298467D01*
X263359Y298412D01*
X263234Y298342D01*
X263096Y298273D01*
X262929Y298190D01*
X262596Y298037D01*
X262569Y298023D01*
X262485Y297996D01*
X262361Y297940D01*
X262194Y297871D01*
X261986Y297801D01*
X261764Y297718D01*
X261528Y297649D01*
X261265Y297579D01*
X261251D01*
X261237Y297566D01*
X261196D01*
X261140Y297552D01*
X261001Y297524D01*
X260821Y297496D01*
X260599Y297469D01*
X260364Y297455D01*
X260100Y297441D01*
X259837Y297455D01*
X259712D01*
X259629Y297441D01*
X259448Y297399D01*
X259254Y297316D01*
X259240Y297302D01*
X259226Y297288D01*
X259185Y297247D01*
X259143Y297177D01*
X259102Y297108D01*
X259060Y297025D01*
X259018Y296914D01*
X258991Y296789D01*
Y296775D01*
X258977Y296733D01*
Y296678D01*
X258963Y296609D01*
X258935Y296512D01*
X258921Y296415D01*
X258880Y296179D01*
Y296165D01*
X258866Y296123D01*
Y296068D01*
X258852Y295998D01*
X258838Y295804D01*
X258824Y295596D01*
Y295583D01*
Y295527D01*
X258838Y295444D01*
X258852Y295347D01*
X258907Y295125D01*
X258949Y295028D01*
X259018Y294944D01*
X259032Y294931D01*
X259060Y294917D01*
X259115Y294875D01*
X259199Y294847D01*
X259296Y294806D01*
X259421Y294764D01*
X259559Y294736D01*
X259726Y294723D01*
X259809D01*
X259906Y294736D01*
X260017Y294750D01*
X260156Y294764D01*
X260308Y294792D01*
X260474Y294834D01*
X260627Y294889D01*
X260641Y294903D01*
X260696Y294917D01*
X260780Y294958D01*
X260891Y295000D01*
X261015Y295056D01*
X261154Y295125D01*
X261459Y295277D01*
X261473Y295291D01*
X261515Y295305D01*
X261570Y295333D01*
X261639Y295374D01*
X261834Y295471D01*
X262042Y295569D01*
X262055Y295583D01*
X262097Y295596D01*
X262153Y295624D01*
X262236Y295666D01*
X262430Y295763D01*
X262652Y295860D01*
Y295846D01*
Y295832D01*
X262680Y295777D01*
Y295763D01*
X262693Y295749D01*
X262735Y295666D01*
X262721Y295652D01*
X262707Y295638D01*
X262666Y295596D01*
X262610Y295541D01*
X262458Y295402D01*
X262264Y295236D01*
X262028Y295042D01*
X261764Y294834D01*
X261459Y294625D01*
X261140Y294431D01*
X261126D01*
X261099Y294417D01*
X261043Y294390D01*
X260988Y294362D01*
X260891Y294320D01*
X260793Y294279D01*
X260683Y294251D01*
X260544Y294209D01*
X260253Y294126D01*
X259906Y294057D01*
X259531Y294015D01*
X259074D01*
X259032Y294029D01*
X258963Y294043D01*
X258949Y294057D01*
X258907Y294071D01*
X258852Y294085D01*
X258755D01*
X258699Y294098D01*
X258630D01*
X258533Y294126D01*
X258436Y294140D01*
X258214Y294209D01*
X257978Y294293D01*
X257729Y294431D01*
X257507Y294625D01*
X257396Y294736D01*
X257313Y294861D01*
Y294875D01*
X257299Y294889D01*
X257271Y294931D01*
X257243Y294986D01*
X257215Y295056D01*
X257188Y295139D01*
X257118Y295347D01*
X257049Y295583D01*
X256994Y295860D01*
X256980Y296165D01*
X256994Y296498D01*
Y296512D01*
X257007Y296539D01*
X257021Y296595D01*
X257035Y296664D01*
X257077Y296831D01*
X257132Y297025D01*
Y297039D01*
X257146Y297080D01*
X257174Y297122D01*
X257188Y297191D01*
X257201Y297358D01*
Y297441D01*
X257174Y297524D01*
Y297538D01*
X257160Y297552D01*
X257091Y297621D01*
X257049Y297663D01*
X256980Y297718D01*
X256910Y297774D01*
X256813Y297815D01*
X256799D01*
X256772Y297829D01*
X256716Y297857D01*
X256647Y297885D01*
X256480Y297968D01*
X256328Y298065D01*
X256314Y298079D01*
X256286Y298093D01*
X256245Y298120D01*
X256175Y298162D01*
X256037Y298273D01*
X255856Y298412D01*
X255842Y298426D01*
X255829Y298439D01*
X255787Y298495D01*
X255745Y298550D01*
X255690Y298633D01*
X255634Y298717D01*
X255565Y298841D01*
X255510Y298966D01*
X255523D01*
X255565Y298939D01*
X255634Y298911D01*
X255718Y298883D01*
X255926Y298800D01*
X256147Y298703D01*
X256161D01*
X256189Y298675D01*
X256245Y298647D01*
X256314Y298620D01*
X256494Y298536D01*
X256702Y298453D01*
X256730Y298439D01*
X256786Y298426D01*
X256883Y298384D01*
X256994Y298356D01*
X257257Y298301D01*
X257382Y298287D01*
X257493Y298301D01*
X257507D01*
X257534Y298314D01*
X257576Y298342D01*
X257645Y298384D01*
X257729Y298453D01*
X257826Y298550D01*
X257937Y298675D01*
X258061Y298828D01*
X258075Y298841D01*
X258103Y298869D01*
X258145Y298925D01*
X258200Y299008D01*
X258269Y299091D01*
X258367Y299202D01*
X258588Y299452D01*
X258852Y299729D01*
X259157Y300020D01*
X259490Y300312D01*
X259864Y300589D01*
X259878Y300603D01*
X259906Y300617D01*
X259961Y300658D01*
X260045Y300700D01*
X260142Y300769D01*
X260253Y300825D01*
X260391Y300908D01*
X260530Y300977D01*
X260696Y301061D01*
X260877Y301144D01*
X261279Y301310D01*
X261723Y301463D01*
X262194Y301588D01*
X262208D01*
X262250Y301601D01*
X262319D01*
X262388Y301615D01*
X262485Y301629D01*
X262596Y301643D01*
X262832Y301671D01*
X262888D01*
X262957Y301685D01*
X263262D01*
X263498Y301671D01*
D02*
G37*
G36*
X299029Y301726D02*
X298987Y301643D01*
X298932Y301518D01*
X298862Y301366D01*
X298765Y301171D01*
X298668Y300963D01*
X298432Y300506D01*
X298418Y300478D01*
X298391Y300395D01*
X298321Y300270D01*
X298252Y300117D01*
X298169Y299923D01*
X298058Y299715D01*
X297822Y299258D01*
Y299244D01*
X297808Y299230D01*
X297780Y299188D01*
X297753Y299133D01*
X297683Y298994D01*
X297586Y298814D01*
X297475Y298592D01*
X297351Y298356D01*
X297212Y298106D01*
X297073Y297843D01*
Y297829D01*
X297059Y297815D01*
X297032Y297774D01*
X297004Y297718D01*
X296935Y297579D01*
X296837Y297385D01*
X296726Y297164D01*
X296602Y296914D01*
X296463Y296650D01*
X296324Y296387D01*
Y296373D01*
X296310Y296359D01*
X296269Y296276D01*
X296213Y296165D01*
X296172Y296040D01*
Y296026D01*
X296158Y295998D01*
Y295971D01*
X296144Y295915D01*
X296116Y295777D01*
X296089Y295638D01*
Y295624D01*
Y295569D01*
Y295485D01*
X296102Y295388D01*
X296130Y295291D01*
X296172Y295180D01*
X296241Y295083D01*
X296324Y295000D01*
X296338D01*
X296366Y294972D01*
X296435Y294958D01*
X296505Y294944D01*
X296602D01*
X296713Y294958D01*
X296851Y294986D01*
X296990Y295056D01*
X297004Y295069D01*
X297059Y295097D01*
X297129Y295139D01*
X297212Y295208D01*
X297323Y295277D01*
X297448Y295361D01*
X297683Y295569D01*
X297697Y295583D01*
X297739Y295624D01*
X297808Y295679D01*
X297905Y295749D01*
X298002Y295846D01*
X298127Y295943D01*
X298377Y296151D01*
X298391Y296165D01*
X298418Y296193D01*
X298460Y296234D01*
X298515Y296276D01*
X298668Y296415D01*
X298821Y296567D01*
X298834Y296581D01*
X298848Y296609D01*
X298890Y296650D01*
X298945Y296706D01*
X299084Y296845D01*
X299251Y296997D01*
X299264Y297011D01*
X299292Y297025D01*
X299361Y297052D01*
X299459Y297080D01*
X299528D01*
X299597Y297094D01*
X299681Y297108D01*
Y297094D01*
Y297039D01*
X299694Y296969D01*
X299722Y296886D01*
Y296872D01*
Y296817D01*
X299708Y296747D01*
X299681Y296678D01*
Y296664D01*
X299653Y296637D01*
X299625Y296595D01*
X299583Y296539D01*
X299459Y296387D01*
X299306Y296193D01*
X299126Y295957D01*
X298918Y295721D01*
X298682Y295471D01*
X298432Y295222D01*
X298418Y295208D01*
X298405Y295194D01*
X298363Y295166D01*
X298307Y295111D01*
X298169Y295000D01*
X297961Y294847D01*
X297725Y294695D01*
X297448Y294529D01*
X297129Y294362D01*
X296782Y294223D01*
X296768D01*
X296740Y294209D01*
X296685Y294196D01*
X296616Y294182D01*
X296435Y294154D01*
X296227Y294140D01*
X296116D01*
X296047Y294154D01*
X295881Y294168D01*
X295686Y294196D01*
X295659D01*
X295589Y294209D01*
X295492Y294237D01*
X295381Y294279D01*
X295243Y294334D01*
X295104Y294404D01*
X294979Y294487D01*
X294868Y294598D01*
X294854Y294612D01*
X294827Y294653D01*
X294771Y294723D01*
X294716Y294820D01*
X294660Y294944D01*
X294605Y295083D01*
X294549Y295250D01*
X294521Y295430D01*
Y295458D01*
X294508Y295527D01*
Y295624D01*
X294494Y295763D01*
Y295915D01*
X294508Y296096D01*
X294535Y296262D01*
X294577Y296442D01*
X294591Y296470D01*
X294605Y296525D01*
X294632Y296623D01*
X294688Y296733D01*
X294729Y296872D01*
X294799Y297039D01*
X294951Y297372D01*
X294965Y297385D01*
X294993Y297441D01*
X295035Y297524D01*
X295090Y297635D01*
X295145Y297760D01*
X295229Y297899D01*
X295395Y298218D01*
X295409Y298231D01*
X295423Y298287D01*
X295464Y298370D01*
X295520Y298481D01*
X295589Y298606D01*
X295659Y298758D01*
X295742Y298925D01*
X295825Y299091D01*
X295367D01*
X295270Y299077D01*
X295159Y299091D01*
X295048Y299119D01*
X295007D01*
X294965Y299133D01*
X294924Y299147D01*
X294785Y299160D01*
X294632Y299202D01*
X294618D01*
X294605Y299216D01*
X294521Y299258D01*
X294410Y299313D01*
X294286Y299382D01*
X294272Y299396D01*
X294244Y299438D01*
X294202Y299507D01*
X294175Y299604D01*
Y299618D01*
X294161Y299632D01*
X294147Y299701D01*
Y299785D01*
Y299868D01*
Y299882D01*
X294175Y299923D01*
X294216Y299979D01*
X294286Y300048D01*
X294313Y300062D01*
X294369Y300090D01*
X294438Y300117D01*
X294521Y300131D01*
X294688D01*
X294785Y300145D01*
X294882D01*
X295132Y300173D01*
X295423Y300215D01*
X295742Y300284D01*
X296075Y300395D01*
X296408Y300534D01*
X296421D01*
X296449Y300547D01*
X296491Y300575D01*
X296560Y300617D01*
X296629Y300644D01*
X296726Y300700D01*
X296935Y300811D01*
X297198Y300949D01*
X297489Y301102D01*
X297794Y301269D01*
X298113Y301435D01*
X298127D01*
X298155Y301449D01*
X298197Y301476D01*
X298238Y301504D01*
X298377Y301574D01*
X298529Y301643D01*
X298543D01*
X298571Y301657D01*
X298613Y301671D01*
X298682Y301685D01*
X298834Y301726D01*
X299042Y301754D01*
X299029Y301726D01*
D02*
G37*
G36*
X253374Y306039D02*
X253568Y305998D01*
X253776Y305942D01*
X253998Y305859D01*
X254192Y305720D01*
X254359Y305554D01*
X254372Y305526D01*
X254414Y305457D01*
X254470Y305346D01*
X254525Y305193D01*
X254566Y304999D01*
X254580Y304777D01*
X254553Y304514D01*
X254511Y304375D01*
X254470Y304223D01*
Y304209D01*
X254456Y304167D01*
X254428Y304098D01*
X254386Y304014D01*
X254345Y303904D01*
X254303Y303793D01*
X254178Y303557D01*
X254164Y303543D01*
X254151Y303501D01*
X254109Y303446D01*
X254067Y303363D01*
X254012Y303266D01*
X253956Y303155D01*
X253832Y302919D01*
X253818Y302905D01*
X253790Y302863D01*
X253748Y302780D01*
X253693Y302683D01*
X253624Y302558D01*
X253540Y302406D01*
X253443Y302239D01*
X253332Y302045D01*
X253221Y301851D01*
X253097Y301629D01*
X252819Y301158D01*
X252542Y300672D01*
X252237Y300159D01*
X252223Y300145D01*
X252195Y300104D01*
X252153Y300020D01*
X252098Y299923D01*
X252029Y299799D01*
X251945Y299646D01*
X251848Y299480D01*
X251737Y299285D01*
X251613Y299091D01*
X251502Y298869D01*
X251224Y298398D01*
X250947Y297899D01*
X250669Y297372D01*
X250656Y297358D01*
X250642Y297316D01*
X250600Y297247D01*
X250572Y297164D01*
X250517Y297066D01*
X250475Y296955D01*
X250378Y296706D01*
Y296692D01*
X250364Y296650D01*
X250351Y296581D01*
X250323Y296484D01*
X250309Y296373D01*
X250281Y296262D01*
X250226Y295985D01*
Y295971D01*
Y295915D01*
Y295846D01*
Y295763D01*
X250240Y295666D01*
X250281Y295569D01*
X250337Y295471D01*
X250406Y295402D01*
X250420D01*
X250448Y295374D01*
X250489Y295361D01*
X250559Y295347D01*
X250656Y295333D01*
X250767D01*
X250891Y295347D01*
X251044Y295374D01*
X251072D01*
X251127Y295402D01*
X251224Y295430D01*
X251335Y295471D01*
X251474Y295527D01*
X251613Y295596D01*
X251751Y295693D01*
X251890Y295804D01*
X251904Y295818D01*
X251945Y295860D01*
X252015Y295929D01*
X252112Y296012D01*
X252209Y296110D01*
X252334Y296234D01*
X252583Y296498D01*
Y296512D01*
X252611Y296539D01*
X252639Y296567D01*
X252680Y296623D01*
X252791Y296747D01*
X252930Y296886D01*
X252944Y296900D01*
X252958Y296914D01*
X253041Y297011D01*
X253152Y297122D01*
X253277Y297260D01*
X253291Y297274D01*
X253318Y297288D01*
X253360Y297316D01*
X253416Y297358D01*
X253540Y297427D01*
X253707Y297482D01*
X253721D01*
X253748Y297496D01*
X253845D01*
X253915Y297482D01*
X253998Y297455D01*
X254067Y297413D01*
X254151Y297344D01*
X254164Y297330D01*
X254178Y297302D01*
X254220Y297274D01*
X254248Y297219D01*
X254275Y297150D01*
X254303Y297080D01*
Y297011D01*
X254289Y296942D01*
Y296928D01*
X254275Y296914D01*
X254234Y296817D01*
X254164Y296692D01*
X254067Y296567D01*
X254039Y296539D01*
X253970Y296470D01*
X253859Y296345D01*
X253721Y296193D01*
X253540Y296012D01*
X253346Y295804D01*
X253124Y295596D01*
X252902Y295374D01*
X252875Y295347D01*
X252805Y295277D01*
X252680Y295180D01*
X252528Y295042D01*
X252334Y294889D01*
X252112Y294723D01*
X251862Y294556D01*
X251599Y294404D01*
X251585Y294390D01*
X251543Y294376D01*
X251474Y294334D01*
X251377Y294293D01*
X251266Y294251D01*
X251127Y294196D01*
X250975Y294154D01*
X250822Y294112D01*
X250642Y294071D01*
X250475Y294043D01*
X250281Y294029D01*
X250101Y294043D01*
X249921Y294071D01*
X249740Y294126D01*
X249560Y294196D01*
X249394Y294307D01*
X249380Y294320D01*
X249352Y294334D01*
X249310Y294376D01*
X249255Y294431D01*
X249200Y294501D01*
X249130Y294598D01*
X249047Y294695D01*
X248964Y294820D01*
X248881Y294944D01*
X248811Y295097D01*
X248742Y295250D01*
X248673Y295430D01*
X248617Y295624D01*
X248561Y295832D01*
X248534Y296040D01*
X248520Y296276D01*
Y296290D01*
Y296304D01*
X248534Y296345D01*
X248548Y296401D01*
X248561Y296539D01*
X248603Y296733D01*
X248645Y296942D01*
X248700Y297191D01*
X248770Y297455D01*
X248839Y297718D01*
Y297732D01*
X248853Y297746D01*
X248867Y297787D01*
X248881Y297843D01*
X248922Y297996D01*
X248992Y298190D01*
X249075Y298412D01*
X249172Y298661D01*
X249283Y298911D01*
X249421Y299174D01*
Y299188D01*
X249435Y299202D01*
X249463Y299244D01*
X249491Y299299D01*
X249588Y299452D01*
X249699Y299632D01*
X249837Y299854D01*
X249990Y300104D01*
X250170Y300367D01*
X250351Y300631D01*
Y300644D01*
X250378Y300658D01*
X250392Y300700D01*
X250434Y300755D01*
X250531Y300894D01*
X250656Y301088D01*
X250808Y301296D01*
X250975Y301546D01*
X251155Y301809D01*
X251335Y302073D01*
X251349Y302087D01*
X251377Y302128D01*
X251432Y302198D01*
X251488Y302295D01*
X251571Y302392D01*
X251654Y302517D01*
X251862Y302766D01*
X251876Y302780D01*
X251904Y302822D01*
X251959Y302891D01*
X252029Y302988D01*
X252112Y303085D01*
X252209Y303210D01*
X252403Y303474D01*
X252417Y303487D01*
X252459Y303543D01*
X252514Y303626D01*
X252583Y303723D01*
Y303737D01*
X252597Y303751D01*
X252639Y303820D01*
X252680Y303917D01*
X252722Y304014D01*
Y304028D01*
X252736Y304056D01*
Y304111D01*
Y304167D01*
Y304236D01*
X252722Y304306D01*
X252680Y304375D01*
X252639Y304431D01*
X252611Y304444D01*
X252556Y304486D01*
X252431Y304500D01*
X252362D01*
X252264Y304486D01*
X252237D01*
X252167Y304458D01*
X252084Y304417D01*
X251973Y304361D01*
X251945Y304347D01*
X251876Y304320D01*
X251793Y304278D01*
X251682Y304223D01*
X251668Y304209D01*
X251613Y304167D01*
X251543Y304098D01*
X251474Y304014D01*
X251460Y304001D01*
X251418Y303959D01*
X251363Y303904D01*
X251280Y303848D01*
X251252Y303834D01*
X251183Y303779D01*
X251072Y303709D01*
X250933Y303640D01*
X250919D01*
X250905Y303626D01*
X250822Y303584D01*
X250711Y303557D01*
X250600D01*
X250572Y303584D01*
X250489Y303640D01*
X250448Y303696D01*
X250406Y303751D01*
X250378Y303820D01*
Y303904D01*
Y303917D01*
Y303945D01*
Y303987D01*
X250392Y304042D01*
X250420Y304181D01*
X250462Y304333D01*
Y304347D01*
X250475Y304375D01*
X250503Y304417D01*
X250517Y304472D01*
X250600Y304625D01*
X250697Y304777D01*
Y304791D01*
X250725Y304805D01*
X250781Y304902D01*
X250878Y305013D01*
X250989Y305152D01*
X251002Y305166D01*
X251058Y305221D01*
X251155Y305304D01*
X251266Y305401D01*
X251418Y305512D01*
X251571Y305623D01*
X251751Y305734D01*
X251945Y305817D01*
X251973Y305831D01*
X252043Y305845D01*
X252153Y305887D01*
X252292Y305928D01*
X252459Y305970D01*
X252653Y306012D01*
X252861Y306039D01*
X253069Y306053D01*
X253221D01*
X253374Y306039D01*
D02*
G37*
%LPC*%
G36*
X222378Y317786D02*
X222101Y317772D01*
X221823Y317758D01*
X221518Y317716D01*
X221213Y317661D01*
X221199D01*
X221158Y317647D01*
X221102Y317633D01*
X221019Y317605D01*
X220908Y317564D01*
X220797Y317522D01*
X220658Y317481D01*
X220520Y317425D01*
X220201Y317273D01*
X219868Y317092D01*
X219521Y316857D01*
X219202Y316593D01*
X219188Y316579D01*
X219160Y316551D01*
X219119Y316510D01*
X219063Y316454D01*
X218994Y316371D01*
X218911Y316288D01*
X218731Y316052D01*
X218509Y315789D01*
X218273Y315470D01*
X218037Y315137D01*
X217815Y314762D01*
Y314749D01*
X217788Y314707D01*
X217760Y314652D01*
X217718Y314568D01*
X217677Y314457D01*
X217621Y314346D01*
X217566Y314194D01*
X217496Y314041D01*
X217441Y313875D01*
X217372Y313695D01*
X217261Y313306D01*
X217164Y312876D01*
X217108Y312433D01*
Y312419D01*
Y312377D01*
X217094Y312308D01*
Y312225D01*
Y312114D01*
Y311989D01*
Y311836D01*
Y311670D01*
X217108Y311309D01*
X217136Y310907D01*
X217191Y310477D01*
X217288Y310033D01*
X217302Y310006D01*
X217316Y309922D01*
X217344Y309798D01*
X217399Y309617D01*
X217455Y309395D01*
X217538Y309146D01*
X217621Y308868D01*
X217732Y308549D01*
X217857Y308217D01*
X217996Y307856D01*
X218148Y307495D01*
X218314Y307121D01*
X218509Y306733D01*
X218717Y306344D01*
X218939Y305956D01*
X219174Y305582D01*
X219188Y305554D01*
X219244Y305498D01*
X219313Y305387D01*
X219424Y305249D01*
X219549Y305082D01*
X219701Y304874D01*
X219895Y304652D01*
X220104Y304403D01*
X220326Y304139D01*
X220575Y303862D01*
X220853Y303571D01*
X221144Y303266D01*
X221463Y302974D01*
X221782Y302669D01*
X222128Y302364D01*
X222489Y302073D01*
X222503Y302059D01*
X222530Y302031D01*
X222586Y301990D01*
X222655Y301934D01*
X222739Y301865D01*
X222836Y301809D01*
X223071Y301671D01*
X223085Y301657D01*
X223113Y301643D01*
X223169Y301601D01*
X223252Y301560D01*
X223432Y301463D01*
X223640Y301352D01*
X223654D01*
X223682Y301338D01*
X223737Y301324D01*
X223793Y301296D01*
X223876Y301269D01*
X223973Y301255D01*
X224209Y301213D01*
X224472Y301199D01*
X224763Y301213D01*
X224916Y301241D01*
X225082Y301296D01*
X225235Y301352D01*
X225387Y301435D01*
X225401D01*
X225429Y301463D01*
X225471Y301490D01*
X225526Y301532D01*
X225665Y301657D01*
X225817Y301823D01*
X225984Y302045D01*
X226122Y302309D01*
X226233Y302614D01*
X226275Y302794D01*
X226289Y302974D01*
Y303002D01*
Y303057D01*
Y303155D01*
Y303279D01*
Y303432D01*
X226275Y303584D01*
X226233Y303931D01*
Y303959D01*
X226206Y304014D01*
X226178Y304098D01*
X226150Y304223D01*
X226095Y304361D01*
X226053Y304514D01*
X225914Y304833D01*
Y304847D01*
X225901Y304874D01*
X225873Y304902D01*
X225845Y304958D01*
X225748Y305096D01*
X225609Y305277D01*
X225415Y305471D01*
X225179Y305679D01*
X225041Y305776D01*
X224888Y305873D01*
X224722Y305970D01*
X224541Y306053D01*
X224528D01*
X224500Y306067D01*
X224444Y306095D01*
X224375Y306109D01*
X224292Y306136D01*
X224181Y306164D01*
X223945Y306220D01*
X223668Y306247D01*
X223363Y306233D01*
X223210Y306220D01*
X223057Y306178D01*
X222891Y306122D01*
X222739Y306053D01*
X222725Y306039D01*
X222683Y306025D01*
X222628Y305998D01*
X222572Y305970D01*
X222558Y305956D01*
X222503Y305928D01*
X222433Y305901D01*
X222364Y305873D01*
X222336D01*
X222267Y305845D01*
X222142Y305831D01*
X221823D01*
X221629Y305859D01*
X221435Y305914D01*
X221241Y305998D01*
X221213Y306012D01*
X221158Y306053D01*
X221074Y306136D01*
X220963Y306233D01*
X220853Y306358D01*
X220755Y306525D01*
X220658Y306719D01*
X220603Y306927D01*
Y306941D01*
Y306955D01*
X220589Y307024D01*
Y307149D01*
X220575Y307301D01*
Y307468D01*
X220603Y307662D01*
X220631Y307856D01*
X220686Y308050D01*
X220700Y308078D01*
X220714Y308133D01*
X220769Y308230D01*
X220825Y308355D01*
X220922Y308508D01*
X221033Y308647D01*
X221158Y308799D01*
X221324Y308952D01*
X221352Y308965D01*
X221421Y309021D01*
X221518Y309090D01*
X221657Y309187D01*
X221823Y309271D01*
X222003Y309368D01*
X222212Y309437D01*
X222420Y309479D01*
X222447D01*
X222517Y309492D01*
X222794D01*
X222960Y309479D01*
X223169Y309465D01*
X223390Y309437D01*
X223612Y309395D01*
X223626D01*
X223654Y309382D01*
X223709Y309368D01*
X223779Y309354D01*
X223862Y309326D01*
X223959Y309298D01*
X224195Y309215D01*
X224472Y309118D01*
X224750Y308979D01*
X225041Y308813D01*
X225332Y308605D01*
X225346D01*
X225360Y308577D01*
X225401Y308549D01*
X225457Y308508D01*
X225595Y308383D01*
X225762Y308217D01*
X225970Y308009D01*
X226192Y307773D01*
X226414Y307509D01*
X226636Y307218D01*
Y307204D01*
X226649Y307176D01*
X226677Y307149D01*
X226705Y307093D01*
X226788Y306968D01*
X226899Y306830D01*
Y306816D01*
X226913Y306802D01*
X226941Y306760D01*
X226982Y306705D01*
X227066Y306566D01*
X227190Y306400D01*
X227204Y306428D01*
X227246Y306497D01*
X227301Y306608D01*
X227371Y306760D01*
X227468Y306941D01*
X227565Y307121D01*
X227773Y307537D01*
X227787Y307565D01*
X227814Y307634D01*
X227870Y307731D01*
X227925Y307870D01*
X228009Y308036D01*
X228092Y308217D01*
X228286Y308605D01*
X228300Y308619D01*
X228314Y308660D01*
X228328Y308744D01*
X228314Y308841D01*
Y308855D01*
Y308910D01*
X228286Y308993D01*
X228258Y309076D01*
X228244Y309104D01*
X228217Y309174D01*
X228175Y309284D01*
X228106Y309423D01*
X228022Y309590D01*
X227939Y309784D01*
X227842Y309978D01*
X227731Y310200D01*
X227717Y310228D01*
X227690Y310297D01*
X227634Y310422D01*
X227565Y310574D01*
X227495Y310741D01*
X227398Y310949D01*
X227301Y311171D01*
X227190Y311392D01*
X227163Y311379D01*
X227107Y311365D01*
X227010Y311323D01*
X226927Y311282D01*
X226899Y311268D01*
X226844Y311226D01*
X226747Y311171D01*
X226663Y311129D01*
X226649Y311115D01*
X226594Y311087D01*
X226511Y311046D01*
X226400Y310990D01*
X226261Y310935D01*
X226095Y310865D01*
X225914Y310796D01*
X225706Y310727D01*
X225471Y310671D01*
X225221Y310630D01*
X224971Y310588D01*
X224694Y310574D01*
X224403D01*
X224111Y310588D01*
X223806Y310644D01*
X223501Y310727D01*
X223487D01*
X223432Y310755D01*
X223349Y310782D01*
X223224Y310824D01*
X223099Y310879D01*
X222933Y310949D01*
X222766Y311032D01*
X222572Y311143D01*
X222378Y311254D01*
X222170Y311379D01*
X221962Y311517D01*
X221754Y311670D01*
X221546Y311850D01*
X221352Y312030D01*
X221171Y312238D01*
X221005Y312460D01*
X220991Y312474D01*
X220963Y312530D01*
X220922Y312613D01*
X220866Y312710D01*
X220797Y312835D01*
X220742Y312973D01*
X220672Y313126D01*
X220631Y313279D01*
Y313292D01*
X220617Y313348D01*
X220603Y313431D01*
X220575Y313542D01*
Y313667D01*
X220561Y313819D01*
X220575Y313986D01*
X220603Y314152D01*
Y314180D01*
X220617Y314249D01*
X220644Y314346D01*
X220686Y314471D01*
X220742Y314610D01*
X220811Y314749D01*
X220894Y314901D01*
X221005Y315026D01*
X221019Y315040D01*
X221061Y315081D01*
X221130Y315151D01*
X221213Y315220D01*
X221338Y315303D01*
X221476Y315387D01*
X221643Y315470D01*
X221823Y315539D01*
X221837D01*
X221907Y315553D01*
X221990Y315567D01*
X222101Y315581D01*
X222225D01*
X222350Y315553D01*
X222489Y315525D01*
X222628Y315456D01*
X222642Y315442D01*
X222697Y315414D01*
X222766Y315373D01*
X222850Y315303D01*
X222947Y315234D01*
X223057Y315137D01*
X223169Y315026D01*
X223266Y314901D01*
X223279Y314887D01*
X223307Y314860D01*
X223335Y314818D01*
X223390Y314749D01*
X223515Y314582D01*
X223640Y314374D01*
X223654Y314360D01*
X223668Y314333D01*
X223709Y314277D01*
X223751Y314208D01*
X223862Y314041D01*
X223987Y313833D01*
X224001Y313819D01*
X224042Y313764D01*
X224111Y313681D01*
X224209Y313584D01*
X224333Y313487D01*
X224472Y313389D01*
X224625Y313306D01*
X224805Y313251D01*
X224833D01*
X224888Y313237D01*
X224985Y313223D01*
X225096D01*
X225249Y313237D01*
X225401Y313251D01*
X225582Y313306D01*
X225762Y313389D01*
X225790Y313403D01*
X225859Y313445D01*
X225956Y313514D01*
X226067Y313611D01*
X226192Y313750D01*
X226317Y313903D01*
X226414Y314097D01*
X226483Y314319D01*
Y314333D01*
Y314346D01*
X226497Y314430D01*
X226511Y314541D01*
Y314707D01*
X226483Y314887D01*
X226441Y315109D01*
X226358Y315331D01*
X226233Y315567D01*
X226220Y315581D01*
X226192Y315622D01*
X226150Y315692D01*
X226081Y315775D01*
X225998Y315886D01*
X225901Y315997D01*
X225790Y316135D01*
X225651Y316274D01*
X225512Y316427D01*
X225346Y316579D01*
X224999Y316884D01*
X224583Y317176D01*
X224375Y317314D01*
X224139Y317425D01*
X224125Y317439D01*
X224084Y317453D01*
X224014Y317481D01*
X223917Y317508D01*
X223793Y317550D01*
X223654Y317605D01*
X223487Y317647D01*
X223307Y317689D01*
X223099Y317716D01*
X222877Y317758D01*
X222642Y317772D01*
X222378Y317786D01*
D02*
G37*
G36*
X232086Y308868D02*
X231961D01*
X231836Y308855D01*
X231670Y308827D01*
X231476Y308771D01*
X231282Y308716D01*
X231087Y308619D01*
X230907Y308494D01*
X230921Y308466D01*
X230976Y308411D01*
X231060Y308328D01*
X231171Y308217D01*
X231309Y308106D01*
X231476Y307981D01*
X231670Y307884D01*
X231892Y307787D01*
X231906D01*
X231919Y307773D01*
X232003Y307759D01*
X232114Y307717D01*
X232266Y307690D01*
X232446Y307676D01*
X232641Y307662D01*
X232835D01*
X233015Y307703D01*
X233029D01*
X233057Y307717D01*
X233112Y307745D01*
X233168Y307773D01*
X233279Y307856D01*
X233334Y307925D01*
X233362Y307995D01*
Y308009D01*
X233376Y308036D01*
Y308078D01*
Y308133D01*
X233362Y308189D01*
X233334Y308258D01*
X233292Y308341D01*
X233223Y308425D01*
X233209Y308438D01*
X233154Y308494D01*
X233057Y308563D01*
X232932Y308633D01*
X232765Y308716D01*
X232571Y308785D01*
X232349Y308841D01*
X232086Y308868D01*
D02*
G37*
G36*
X227593Y300561D02*
X227579Y300534D01*
X227523Y300478D01*
X227440Y300381D01*
X227329Y300256D01*
X227176Y300131D01*
X227024Y299979D01*
X226830Y299840D01*
X226636Y299701D01*
X226608Y299688D01*
X226539Y299646D01*
X226414Y299590D01*
X226247Y299521D01*
X226053Y299452D01*
X225817Y299368D01*
X225540Y299299D01*
X225235Y299230D01*
X225249D01*
X225263Y299202D01*
X225346Y299133D01*
X225457Y299022D01*
X225609Y298869D01*
X225776Y298703D01*
X225970Y298523D01*
X226372Y298134D01*
X226400Y298106D01*
X226469Y298051D01*
X226566Y297954D01*
X226691Y297829D01*
X226857Y297677D01*
X227024Y297496D01*
X227384Y297136D01*
X227412Y297122D01*
X227468Y297080D01*
X227551Y297025D01*
X227648Y296969D01*
X227787D01*
X227842Y296997D01*
X227884Y297025D01*
X227939Y297080D01*
X227967Y297108D01*
X228036Y297177D01*
X228133Y297274D01*
X228258Y297399D01*
X228425Y297566D01*
X228591Y297732D01*
X228952Y298093D01*
X228979Y298120D01*
X229035Y298190D01*
X229146Y298287D01*
X229271Y298412D01*
X229423Y298564D01*
X229590Y298731D01*
X229936Y299091D01*
X229909Y299105D01*
X229839Y299160D01*
X229714Y299230D01*
X229562Y299327D01*
X229382Y299438D01*
X229187Y299563D01*
X228757Y299840D01*
X228730Y299854D01*
X228660Y299895D01*
X228549Y299965D01*
X228397Y300062D01*
X228217Y300173D01*
X228022Y300298D01*
X227593Y300561D01*
D02*
G37*
G36*
X246301Y304902D02*
X246218D01*
X246107Y304888D01*
X245982Y304860D01*
X245830Y304833D01*
X245677Y304777D01*
X245663D01*
X245635Y304763D01*
X245580Y304736D01*
X245511Y304708D01*
X245427Y304666D01*
X245330Y304625D01*
X245108Y304500D01*
X244859Y304347D01*
X244595Y304153D01*
X244332Y303931D01*
X244082Y303668D01*
Y303654D01*
X244054Y303640D01*
X244027Y303598D01*
X243971Y303543D01*
X243916Y303474D01*
X243860Y303390D01*
X243708Y303196D01*
X243541Y302947D01*
X243375Y302669D01*
X243195Y302350D01*
X243028Y302017D01*
Y302003D01*
X243042Y301990D01*
X243097Y301907D01*
X243111Y301879D01*
X243153Y301809D01*
X243181Y301823D01*
X243250Y301837D01*
X243347Y301865D01*
X243486Y301907D01*
X243652Y301948D01*
X243832Y302003D01*
X244221Y302101D01*
X244249Y302115D01*
X244318Y302128D01*
X244429Y302156D01*
X244554Y302198D01*
X244720Y302239D01*
X244900Y302295D01*
X245261Y302420D01*
X245275Y302433D01*
X245316Y302447D01*
X245399Y302475D01*
X245483Y302517D01*
X245594Y302572D01*
X245718Y302628D01*
X245968Y302766D01*
X245982Y302780D01*
X246024Y302808D01*
X246079Y302850D01*
X246162Y302905D01*
X246357Y303057D01*
X246578Y303238D01*
X246592Y303252D01*
X246634Y303279D01*
X246689Y303335D01*
X246745Y303404D01*
X246814Y303501D01*
X246884Y303612D01*
X246939Y303751D01*
X246980Y303904D01*
Y303917D01*
X246994Y303973D01*
X247008Y304056D01*
X247022Y304167D01*
Y304278D01*
X247008Y304389D01*
X246980Y304500D01*
X246925Y304597D01*
X246911Y304611D01*
X246897Y304639D01*
X246856Y304680D01*
X246800Y304736D01*
X246731Y304791D01*
X246634Y304833D01*
X246537Y304874D01*
X246426Y304888D01*
X246370D01*
X246301Y304902D01*
D02*
G37*
G36*
X263054Y301074D02*
X262957D01*
X262860Y301061D01*
X262846D01*
X262818Y301047D01*
X262763Y301033D01*
X262707Y301019D01*
X262555Y300963D01*
X262388Y300880D01*
X262374D01*
X262347Y300866D01*
X262305Y300839D01*
X262250Y300797D01*
X262083Y300714D01*
X261875Y300575D01*
X261639Y300422D01*
X261390Y300228D01*
X261140Y300007D01*
X260904Y299757D01*
Y299743D01*
X260877Y299729D01*
X260849Y299688D01*
X260807Y299632D01*
X260696Y299493D01*
X260558Y299299D01*
X260377Y299077D01*
X260197Y298814D01*
X259989Y298523D01*
X259781Y298218D01*
X259864D01*
X259947Y298204D01*
X260350D01*
X260655Y298245D01*
X260669D01*
X260724Y298259D01*
X260793Y298287D01*
X260891Y298301D01*
X261001Y298342D01*
X261112Y298384D01*
X261376Y298481D01*
X261404Y298495D01*
X261473Y298523D01*
X261584Y298564D01*
X261723Y298620D01*
X261889Y298703D01*
X262069Y298786D01*
X262264Y298897D01*
X262444Y299022D01*
X262472Y299036D01*
X262527Y299091D01*
X262610Y299160D01*
X262721Y299272D01*
X262846Y299396D01*
X262985Y299549D01*
X263123Y299715D01*
X263262Y299895D01*
Y299909D01*
X263290Y299937D01*
X263304Y299979D01*
X263345Y300048D01*
X263415Y300201D01*
X263470Y300395D01*
Y300409D01*
Y300436D01*
X263484Y300492D01*
X263470Y300561D01*
Y300631D01*
X263442Y300714D01*
X263401Y300797D01*
X263345Y300880D01*
X263331Y300894D01*
X263304Y300922D01*
X263262Y300963D01*
X263207Y301005D01*
X263123Y301047D01*
X263054Y301074D01*
D02*
G37*
%LPD*%
D10*
X359750Y436000D02*
G03*
X359750Y436000I-1250J0D01*
G01*
X373500Y426500D02*
G03*
X373500Y426500I-1250J0D01*
G01*
X482250Y494000D02*
G03*
X482250Y494000I-1250J0D01*
G01*
X508300Y319500D02*
G03*
X508300Y319500I-1250J0D01*
G01*
D11*
X482500Y353000D02*
G03*
X482500Y353000I-500J0D01*
G01*
X510500Y301000D02*
G03*
X510500Y301000I-500J0D01*
G01*
X370500Y347500D02*
Y352500D01*
Y430500D02*
Y435500D01*
X375500D01*
X453500D02*
X458500D01*
Y347500D02*
Y352500D01*
Y430500D02*
Y435500D01*
X370500Y347500D02*
X375500D01*
X453500D02*
X458500D01*
X384000Y362000D02*
Y364500D01*
Y419500D02*
Y422000D01*
Y362000D02*
X386500D01*
X441500D02*
X444000D01*
Y364500D01*
Y419500D02*
Y422000D01*
X384000D02*
X386500D01*
X441500D02*
X444000D01*
X494000Y501000D02*
X531000D01*
X494000Y455000D02*
X531000D01*
X497900Y311500D02*
X500500Y314100D01*
Y339900D02*
Y342500D01*
X497900D02*
X500500D01*
X469500Y339900D02*
Y342500D01*
X472100D01*
X469500Y311500D02*
Y314100D01*
Y311500D02*
X472100D01*
X261300Y438500D02*
Y443500D01*
X263300Y441000D01*
X261300Y438500D02*
X263300Y441000D01*
X261300Y425500D02*
Y430500D01*
X263300Y428000D01*
X261300Y425500D02*
X263300Y428000D01*
X261300Y412500D02*
Y417500D01*
X263300Y415000D01*
X261300Y412500D02*
X263300Y415000D01*
D12*
X513500Y358000D02*
Y376000D01*
X482500Y358000D02*
Y376000D01*
X483000D01*
X482500Y358000D02*
X483000D01*
X513000Y376000D02*
X513500D01*
X513000Y358000D02*
X513500D01*
X541500Y306000D02*
Y324000D01*
X510500Y306000D02*
Y324000D01*
X511000D01*
X510500Y306000D02*
X511000D01*
X541000Y324000D02*
X541500D01*
X541000Y306000D02*
X541500D01*
X294600Y364000D02*
Y415000D01*
X326600Y364000D02*
Y415000D01*
X324600Y362000D02*
X326600Y364000D01*
X294600D02*
X296600Y362000D01*
X294600Y415000D02*
X296600Y417000D01*
X324600D02*
X326600Y415000D01*
X250000Y393000D02*
X274000D01*
X250000Y341000D02*
X274000D01*
X236000Y354000D02*
Y380000D01*
X288000Y354000D02*
Y380000D01*
X542001Y353680D02*
Y351014D01*
Y352347D01*
X548666D01*
X549999Y351014D01*
Y349681D01*
X548666Y348348D01*
X542001Y356346D02*
X549999D01*
Y361677D01*
X543334Y369675D02*
X542001Y368342D01*
Y365676D01*
X543334Y364343D01*
X548666D01*
X549999Y365676D01*
Y368342D01*
X548666Y369675D01*
X542001Y377672D02*
Y375006D01*
Y376339D01*
X548666D01*
X549999Y375006D01*
Y373674D01*
X548666Y372341D01*
X542001Y380338D02*
X549999D01*
Y385670D01*
X543334Y393667D02*
X542001Y392334D01*
Y389668D01*
X543334Y388335D01*
X548666D01*
X549999Y389668D01*
Y392334D01*
X548666Y393667D01*
X542001Y401665D02*
Y398999D01*
Y400332D01*
X548666D01*
X549999Y398999D01*
Y397666D01*
X548666Y396333D01*
X542001Y404330D02*
X549999D01*
Y409662D01*
X543334Y417659D02*
X542001Y416326D01*
Y413661D01*
X543334Y412328D01*
X548666D01*
X549999Y413661D01*
Y416326D01*
X548666Y417659D01*
X542001Y425657D02*
Y422991D01*
Y424324D01*
X548666D01*
X549999Y422991D01*
Y421658D01*
X548666Y420325D01*
X542001Y428323D02*
X549999D01*
Y433654D01*
X543334Y441652D02*
X542001Y440319D01*
Y437653D01*
X543334Y436320D01*
X548666D01*
X549999Y437653D01*
Y440319D01*
X548666Y441652D01*
D13*
X247300Y439000D02*
X242302D01*
Y441499D01*
X243135Y442332D01*
X244801D01*
X245634Y441499D01*
Y439000D01*
Y440666D02*
X247300Y442332D01*
X243135Y429332D02*
X242302Y428499D01*
Y426833D01*
X243135Y426000D01*
X246467D01*
X247300Y426833D01*
Y428499D01*
X246467Y429332D01*
X244801D01*
Y427666D01*
X243002Y414000D02*
X248000D01*
Y416499D01*
X247167Y417332D01*
X246334D01*
X245501Y416499D01*
Y414000D01*
Y416499D01*
X244668Y417332D01*
X243835D01*
X243002Y416499D01*
Y414000D01*
M02*
