G04*
G04 #@! TF.GenerationSoftware,Altium Limited,Altium Designer,18.1.7 (191)*
G04*
G04 Layer_Color=16711935*
%FSLAX44Y44*%
%MOMM*%
G71*
G01*
G75*
%ADD57C,0.2032*%
%ADD58R,2.2032X1.4032*%
%ADD59R,2.5032X1.4032*%
%ADD60R,4.2032X4.2032*%
%ADD78R,3.6250X19.8500*%
%ADD79R,3.2032X0.5532*%
D57*
X535000Y425000D02*
D03*
Y365000D02*
D03*
D58*
X527830Y438300D02*
D03*
Y351800D02*
D03*
D59*
X566430Y438300D02*
D03*
Y351800D02*
D03*
D60*
X567000Y309000D02*
D03*
Y481000D02*
D03*
D78*
X184125Y395000D02*
D03*
D79*
X184750Y325000D02*
D03*
Y460000D02*
D03*
Y455000D02*
D03*
Y450000D02*
D03*
Y445000D02*
D03*
Y485250D02*
D03*
Y465250D02*
D03*
Y475250D02*
D03*
Y470250D02*
D03*
Y480250D02*
D03*
Y440000D02*
D03*
Y430000D02*
D03*
Y410000D02*
D03*
Y390000D02*
D03*
Y370000D02*
D03*
Y350000D02*
D03*
Y310000D02*
D03*
Y435000D02*
D03*
Y415000D02*
D03*
Y425000D02*
D03*
Y420000D02*
D03*
Y395000D02*
D03*
Y405000D02*
D03*
Y400000D02*
D03*
Y375000D02*
D03*
Y385000D02*
D03*
Y380000D02*
D03*
Y355000D02*
D03*
Y365000D02*
D03*
Y360000D02*
D03*
Y315000D02*
D03*
Y320000D02*
D03*
Y305000D02*
D03*
M02*
