G04*
G04 #@! TF.GenerationSoftware,Altium Limited,Altium Designer,18.1.7 (191)*
G04*
G04 Layer_Color=8421504*
%FSLAX44Y44*%
%MOMM*%
G71*
G01*
G75*
G04:AMPARAMS|DCode=14|XSize=0.3mm|YSize=0.8mm|CornerRadius=0.075mm|HoleSize=0mm|Usage=FLASHONLY|Rotation=180.000|XOffset=0mm|YOffset=0mm|HoleType=Round|Shape=RoundedRectangle|*
%AMROUNDEDRECTD14*
21,1,0.3000,0.6500,0,0,180.0*
21,1,0.1500,0.8000,0,0,180.0*
1,1,0.1500,-0.0750,0.3250*
1,1,0.1500,0.0750,0.3250*
1,1,0.1500,0.0750,-0.3250*
1,1,0.1500,-0.0750,-0.3250*
%
%ADD14ROUNDEDRECTD14*%
G04:AMPARAMS|DCode=15|XSize=0.3mm|YSize=0.8mm|CornerRadius=0.075mm|HoleSize=0mm|Usage=FLASHONLY|Rotation=90.000|XOffset=0mm|YOffset=0mm|HoleType=Round|Shape=RoundedRectangle|*
%AMROUNDEDRECTD15*
21,1,0.3000,0.6500,0,0,90.0*
21,1,0.1500,0.8000,0,0,90.0*
1,1,0.1500,0.3250,0.0750*
1,1,0.1500,0.3250,-0.0750*
1,1,0.1500,-0.3250,-0.0750*
1,1,0.1500,-0.3250,0.0750*
%
%ADD15ROUNDEDRECTD15*%
%ADD16R,0.6000X0.6000*%
%ADD17R,2.2500X0.3500*%
%ADD18R,0.6000X0.2000*%
%ADD19R,0.5500X0.8000*%
%ADD20R,0.6000X0.6000*%
%ADD21R,1.3000X1.5000*%
%ADD22R,1.7000X0.9000*%
%ADD23R,2.5000X0.9000*%
%ADD24R,2.6000X1.7000*%
%ADD25R,2.4000X1.7000*%
%ADD26R,0.2800X0.2800*%
%ADD27O,0.2800X0.6600*%
%ADD28O,0.6600X0.2800*%
%ADD29R,1.2500X1.2500*%
%ADD30R,0.7000X1.1000*%
%ADD31R,0.8000X0.8000*%
%ADD32R,0.9300X0.9800*%
%ADD33R,1.1500X0.6000*%
%ADD34R,1.1500X0.3000*%
D14*
X452000Y448500D02*
D03*
X447000D02*
D03*
X442000D02*
D03*
X437000D02*
D03*
X432000D02*
D03*
X427000D02*
D03*
X422000D02*
D03*
X417000D02*
D03*
X412000D02*
D03*
X407000D02*
D03*
X402000D02*
D03*
X397000D02*
D03*
X392000D02*
D03*
X387000D02*
D03*
X382000D02*
D03*
X377000D02*
D03*
X452000Y334500D02*
D03*
X447000D02*
D03*
X442000D02*
D03*
X437000D02*
D03*
X432000D02*
D03*
X427000D02*
D03*
X422000D02*
D03*
X417000D02*
D03*
X412000D02*
D03*
X407000D02*
D03*
X402000D02*
D03*
X397000D02*
D03*
X392000D02*
D03*
X387000D02*
D03*
X382000D02*
D03*
X377000D02*
D03*
X441500Y433750D02*
D03*
X436500D02*
D03*
X431500D02*
D03*
X426500D02*
D03*
X421500D02*
D03*
X416500D02*
D03*
X411500D02*
D03*
X406500D02*
D03*
X401500D02*
D03*
X396500D02*
D03*
X391500D02*
D03*
X386500D02*
D03*
X441500Y350250D02*
D03*
X436500D02*
D03*
X431500D02*
D03*
X426500D02*
D03*
X421500D02*
D03*
X416500D02*
D03*
X411500D02*
D03*
X406500D02*
D03*
X401500D02*
D03*
X396500D02*
D03*
X391500D02*
D03*
X386500D02*
D03*
D15*
X471500Y354000D02*
D03*
Y359000D02*
D03*
Y364000D02*
D03*
Y369000D02*
D03*
Y374000D02*
D03*
Y379000D02*
D03*
Y384000D02*
D03*
Y389000D02*
D03*
Y394000D02*
D03*
Y399000D02*
D03*
Y404000D02*
D03*
Y409000D02*
D03*
Y414000D02*
D03*
Y419000D02*
D03*
Y424000D02*
D03*
Y429000D02*
D03*
X357080Y354000D02*
D03*
Y359000D02*
D03*
Y364000D02*
D03*
Y369000D02*
D03*
Y374000D02*
D03*
Y379000D02*
D03*
Y384000D02*
D03*
Y389000D02*
D03*
Y394000D02*
D03*
Y399000D02*
D03*
Y404000D02*
D03*
Y409000D02*
D03*
Y414000D02*
D03*
Y419000D02*
D03*
Y424000D02*
D03*
Y429000D02*
D03*
X455750Y364500D02*
D03*
Y369500D02*
D03*
Y374500D02*
D03*
Y379500D02*
D03*
Y384500D02*
D03*
Y389500D02*
D03*
Y394500D02*
D03*
Y399500D02*
D03*
Y404500D02*
D03*
Y409500D02*
D03*
Y414500D02*
D03*
Y419500D02*
D03*
X372250Y364500D02*
D03*
Y369500D02*
D03*
Y374500D02*
D03*
X372250Y379500D02*
D03*
X372250Y384500D02*
D03*
Y389500D02*
D03*
Y394500D02*
D03*
Y399500D02*
D03*
Y404500D02*
D03*
X372250Y409500D02*
D03*
X372250Y414500D02*
D03*
X372250Y419500D02*
D03*
D16*
X470920Y302000D02*
D03*
X481080D02*
D03*
X502080D02*
D03*
X491920D02*
D03*
X516920Y338000D02*
D03*
X527080D02*
D03*
X421080Y302000D02*
D03*
X410920D02*
D03*
X281920Y449000D02*
D03*
X292080D02*
D03*
X281920Y437000D02*
D03*
X292080D02*
D03*
X304920D02*
D03*
X315080D02*
D03*
X301920Y353000D02*
D03*
X312080D02*
D03*
X304920Y425000D02*
D03*
X315080D02*
D03*
X350920Y449000D02*
D03*
X361080D02*
D03*
D17*
X181000Y457500D02*
D03*
Y452500D02*
D03*
Y447500D02*
D03*
Y442500D02*
D03*
Y302500D02*
D03*
Y307500D02*
D03*
Y312500D02*
D03*
Y317500D02*
D03*
Y322500D02*
D03*
Y327500D02*
D03*
Y352500D02*
D03*
Y357500D02*
D03*
Y362500D02*
D03*
Y367500D02*
D03*
Y372500D02*
D03*
Y377500D02*
D03*
Y382500D02*
D03*
Y387500D02*
D03*
Y392500D02*
D03*
Y397500D02*
D03*
Y402500D02*
D03*
Y407500D02*
D03*
Y412500D02*
D03*
Y417500D02*
D03*
Y422500D02*
D03*
Y427500D02*
D03*
Y432500D02*
D03*
Y437500D02*
D03*
Y462500D02*
D03*
Y487500D02*
D03*
Y482500D02*
D03*
Y477500D02*
D03*
Y472500D02*
D03*
Y467500D02*
D03*
D18*
X492000Y387000D02*
D03*
Y391000D02*
D03*
D19*
X498000Y378500D02*
D03*
X507500Y355500D02*
D03*
X488500D02*
D03*
X526000Y326500D02*
D03*
X535500Y303500D02*
D03*
X516500D02*
D03*
D20*
X460000Y301920D02*
D03*
Y312080D02*
D03*
X511000Y426080D02*
D03*
Y415920D02*
D03*
X334000Y381920D02*
D03*
Y392080D02*
D03*
X495000Y447080D02*
D03*
Y436920D02*
D03*
X282000Y413920D02*
D03*
Y424080D02*
D03*
X506000Y447080D02*
D03*
Y436920D02*
D03*
X495000Y417080D02*
D03*
Y406920D02*
D03*
X437000Y301840D02*
D03*
Y312000D02*
D03*
X484000Y447080D02*
D03*
Y436920D02*
D03*
X334000Y370080D02*
D03*
Y359920D02*
D03*
X448000Y301920D02*
D03*
Y312080D02*
D03*
X462000Y473080D02*
D03*
Y462920D02*
D03*
D21*
X448500Y492000D02*
D03*
X467500D02*
D03*
D22*
X495000Y494000D02*
D03*
Y463000D02*
D03*
D23*
X499000Y478000D02*
D03*
D24*
X521000D02*
D03*
D25*
X310600Y370500D02*
D03*
Y407500D02*
D03*
D26*
X492500Y311850D02*
D03*
X487500D02*
D03*
X482500D02*
D03*
X477500D02*
D03*
X469850Y321786D02*
D03*
Y326786D02*
D03*
Y331786D02*
D03*
X477500Y342150D02*
D03*
X482500D02*
D03*
X487500D02*
D03*
X492500D02*
D03*
X500150Y332040D02*
D03*
Y327040D02*
D03*
Y322040D02*
D03*
D27*
X492500Y313750D02*
D03*
X487500D02*
D03*
X482500D02*
D03*
X477500D02*
D03*
Y340250D02*
D03*
X482500D02*
D03*
X487500D02*
D03*
X492500D02*
D03*
D28*
X471750Y321786D02*
D03*
Y326786D02*
D03*
Y331786D02*
D03*
X498250Y332040D02*
D03*
Y327040D02*
D03*
Y322040D02*
D03*
D29*
X485000Y327000D02*
D03*
D30*
X280500Y337500D02*
D03*
Y396500D02*
D03*
X243500D02*
D03*
Y337500D02*
D03*
D31*
X269300Y441000D02*
D03*
X255300D02*
D03*
X269300Y428000D02*
D03*
X255300D02*
D03*
X269300Y415000D02*
D03*
X255300D02*
D03*
D32*
X342300Y335000D02*
D03*
X357700D02*
D03*
D33*
X524030Y426000D02*
D03*
X524000Y418500D02*
D03*
X524030Y371500D02*
D03*
Y364000D02*
D03*
D34*
Y412500D02*
D03*
Y407500D02*
D03*
Y402500D02*
D03*
X524000Y397500D02*
D03*
X524030Y392500D02*
D03*
Y387500D02*
D03*
Y382500D02*
D03*
Y377500D02*
D03*
M02*
