G04*
G04 #@! TF.GenerationSoftware,Altium Limited,Altium Designer,18.1.7 (191)*
G04*
G04 Layer_Physical_Order=1*
G04 Layer_Color=255*
%FSLAX44Y44*%
%MOMM*%
G71*
G01*
G75*
%ADD11C,0.2000*%
%ADD12C,0.1500*%
G04:AMPARAMS|DCode=14|XSize=0.3mm|YSize=0.8mm|CornerRadius=0.075mm|HoleSize=0mm|Usage=FLASHONLY|Rotation=180.000|XOffset=0mm|YOffset=0mm|HoleType=Round|Shape=RoundedRectangle|*
%AMROUNDEDRECTD14*
21,1,0.3000,0.6500,0,0,180.0*
21,1,0.1500,0.8000,0,0,180.0*
1,1,0.1500,-0.0750,0.3250*
1,1,0.1500,0.0750,0.3250*
1,1,0.1500,0.0750,-0.3250*
1,1,0.1500,-0.0750,-0.3250*
%
%ADD14ROUNDEDRECTD14*%
G04:AMPARAMS|DCode=15|XSize=0.3mm|YSize=0.8mm|CornerRadius=0.075mm|HoleSize=0mm|Usage=FLASHONLY|Rotation=90.000|XOffset=0mm|YOffset=0mm|HoleType=Round|Shape=RoundedRectangle|*
%AMROUNDEDRECTD15*
21,1,0.3000,0.6500,0,0,90.0*
21,1,0.1500,0.8000,0,0,90.0*
1,1,0.1500,0.3250,0.0750*
1,1,0.1500,0.3250,-0.0750*
1,1,0.1500,-0.3250,-0.0750*
1,1,0.1500,-0.3250,0.0750*
%
%ADD15ROUNDEDRECTD15*%
%ADD16R,0.6000X0.6000*%
%ADD17R,2.2500X0.3500*%
%ADD18R,0.6000X0.2000*%
%ADD19R,0.5500X0.8000*%
%ADD20R,0.6000X0.6000*%
%ADD21R,1.3000X1.5000*%
%ADD22R,1.7000X0.9000*%
%ADD23R,2.5000X0.9000*%
%ADD24R,2.6000X1.7000*%
%ADD25R,2.4000X1.7000*%
%ADD26R,0.2800X0.2800*%
%ADD27O,0.2800X0.6600*%
%ADD28O,0.6600X0.2800*%
%ADD29R,1.2500X1.2500*%
%ADD30R,0.7000X1.1000*%
%ADD31R,0.8000X0.8000*%
%ADD32R,0.9300X0.9800*%
%ADD33R,1.1500X0.6000*%
%ADD34R,1.1500X0.3000*%
%ADD61C,0.5000*%
%ADD62C,0.4000*%
%ADD63C,0.2540*%
%ADD64R,0.6000X0.4000*%
%ADD65R,0.6000X0.8000*%
%ADD66R,0.7000X2.9000*%
%ADD67R,31.8000X0.9000*%
%ADD68R,1.9000X2.6000*%
%ADD69R,2.0000X1.2000*%
%ADD70R,2.3000X1.2000*%
%ADD71R,4.0000X4.0000*%
%ADD72C,0.5080*%
G36*
X545476Y459476D02*
X563857D01*
Y445824D01*
X553406D01*
Y430776D01*
X579454D01*
Y445824D01*
X569003D01*
Y459476D01*
X587000D01*
X587000Y330524D01*
X569003D01*
Y344276D01*
X579454D01*
Y359324D01*
X553406D01*
Y344276D01*
X563857D01*
Y330524D01*
X545476D01*
Y288000D01*
X529650D01*
X529650Y288000D01*
Y295922D01*
X530210Y296960D01*
X530790Y296960D01*
X534230D01*
Y303500D01*
Y310040D01*
X530863D01*
X530210Y310040D01*
X529593Y311054D01*
Y320976D01*
X530274D01*
X530274Y332024D01*
X531363Y332460D01*
X532620D01*
Y336730D01*
X527080D01*
Y339270D01*
X532620D01*
Y343006D01*
X532620Y343540D01*
X533585Y344276D01*
X539354D01*
Y359324D01*
X537912D01*
X537732Y359556D01*
X538010Y361269D01*
X538442Y361558D01*
X539497Y363137D01*
X539868Y365000D01*
X539497Y366863D01*
X538442Y368442D01*
X536863Y369497D01*
X535000Y369868D01*
X533590Y369587D01*
X532536Y370230D01*
X524030D01*
Y372770D01*
X532320D01*
Y377040D01*
X531304D01*
Y389427D01*
X534000D01*
X534985Y389622D01*
X535820Y390180D01*
X536378Y391015D01*
X536573Y392000D01*
Y402000D01*
X536378Y402985D01*
X535820Y403820D01*
X534985Y404378D01*
X534000Y404574D01*
X531304D01*
Y408105D01*
X532574Y408733D01*
X533414Y408172D01*
X535000Y407856D01*
X536586Y408172D01*
X537930Y409070D01*
X538828Y410414D01*
X539144Y412000D01*
X538828Y413586D01*
X537930Y414930D01*
X536586Y415828D01*
X535000Y416144D01*
X533560Y415857D01*
X533149Y415965D01*
X532290Y416424D01*
Y417230D01*
X524000D01*
Y419770D01*
X532477D01*
X533560Y420419D01*
X535000Y420132D01*
X536863Y420503D01*
X538442Y421558D01*
X539497Y423137D01*
X539868Y425000D01*
X539497Y426863D01*
X538442Y428442D01*
X536863Y429497D01*
X536817Y429506D01*
X536942Y430776D01*
X539354D01*
Y445824D01*
X518000D01*
Y466960D01*
X519730D01*
Y478000D01*
X521000D01*
Y479270D01*
X536540D01*
Y486000D01*
X545476D01*
Y459476D01*
D02*
G37*
G36*
X472000Y433000D02*
X465000D01*
X456000Y424000D01*
X451000Y424000D01*
X449000Y422000D01*
X449000Y420000D01*
X447000Y420000D01*
X407000D01*
X414000Y427000D01*
X444000D01*
X461000Y444000D01*
X472000D01*
Y433000D01*
D02*
G37*
G36*
X383000D02*
Y427000D01*
X387000D01*
Y420000D01*
Y419000D01*
X432000D01*
X403000Y390000D01*
X387000D01*
Y368000D01*
X380000Y362000D01*
Y419000D01*
X380000Y424000D01*
X371000Y424000D01*
X360000Y435000D01*
X360000Y444000D01*
X372000D01*
X383000Y433000D01*
D02*
G37*
G36*
X211000Y398000D02*
X242000Y367000D01*
Y362000D01*
X236000Y362000D01*
X207000Y391000D01*
X196000Y391000D01*
X196000Y398000D01*
X211000Y398000D01*
D02*
G37*
G36*
X449000Y398000D02*
X448000Y397000D01*
X425000D01*
X423000Y395000D01*
Y358000D01*
X384000D01*
Y360000D01*
X392000Y368000D01*
Y385000D01*
X404000D01*
X434000Y415000D01*
X449000D01*
Y398000D01*
D02*
G37*
G36*
X512396Y333476D02*
X514926D01*
Y309024D01*
X512226D01*
Y307260D01*
X510956Y306581D01*
X510586Y306828D01*
X509000Y307144D01*
X508270Y306998D01*
X507000Y307963D01*
X507000Y333000D01*
X509184Y335427D01*
X512396D01*
Y333476D01*
D02*
G37*
G36*
X238000Y298000D02*
Y288000D01*
X210000D01*
Y296000D01*
X205000Y301000D01*
X196000D01*
X196000Y328000D01*
X208000D01*
X238000Y298000D01*
D02*
G37*
%LPC*%
G36*
X536540Y476730D02*
X522270D01*
Y466960D01*
X536540D01*
Y476730D01*
D02*
G37*
G36*
X536770Y310040D02*
Y304770D01*
X540790D01*
Y310040D01*
X536770D01*
D02*
G37*
G36*
X540790Y302230D02*
X536770D01*
Y296960D01*
X540790D01*
Y302230D01*
D02*
G37*
%LPD*%
D11*
X513000Y382000D02*
X525530D01*
X481080Y302000D02*
Y302920D01*
X477500Y306500D02*
X481080Y302920D01*
X477500Y306500D02*
Y310850D01*
X482000Y495000D02*
X500000D01*
X510000Y425000D02*
X523000D01*
X472920Y473080D02*
X473000Y473160D01*
X434000Y415000D02*
X456000D01*
X523500Y355500D02*
X524000Y356000D01*
X562000Y306000D02*
X566430Y310430D01*
X501080Y303000D02*
X508000D01*
X471750Y327000D02*
X480000D01*
Y326000D02*
X482000Y324000D01*
X468000Y335000D02*
X471000Y332000D01*
X455000Y302000D02*
X469000D01*
X422000D02*
X454000D01*
X350500Y449000D02*
Y457000D01*
X302920Y437920D02*
X304000Y439000D01*
X304920Y436920D02*
X305000Y437000D01*
X329080Y391080D02*
X334000D01*
X302920Y437000D02*
Y437080D01*
X373000Y354000D02*
X379000D01*
X454000Y316000D02*
X458000Y320000D01*
X454000Y302000D02*
Y316000D01*
X473000Y462000D02*
X495000D01*
X461500D02*
X472000D01*
X499250Y332040D02*
Y340000D01*
X387000Y326000D02*
Y335500D01*
X449000Y313080D02*
X450000Y312080D01*
X361080Y449000D02*
X377000D01*
X360000Y430000D02*
Y449000D01*
X255000Y398000D02*
Y441000D01*
X243500Y398000D02*
X255000D01*
X177000Y397000D02*
X198000D01*
X178000Y392000D02*
X199000D01*
X449000Y317000D02*
X452000Y320000D01*
X449000Y313080D02*
Y317000D01*
X452000Y320000D02*
Y334000D01*
X447000Y322000D02*
Y329000D01*
X439000Y314000D02*
X447000Y322000D01*
X432064Y323226D02*
Y329936D01*
X411000Y302000D02*
Y307000D01*
X282000Y336000D02*
X282080Y336080D01*
X431936Y316936D02*
Y323098D01*
X425000Y310000D02*
X431936Y316936D01*
X414000Y310000D02*
X425000D01*
X411000Y307000D02*
X414000Y310000D01*
X465000Y335000D02*
Y336000D01*
X466000Y335000D02*
X468000D01*
X465000D02*
X466000D01*
X465000Y335000D02*
Y335000D01*
X472000Y349000D02*
Y354000D01*
X487000Y342150D02*
Y345000D01*
Y340150D02*
Y342150D01*
X472000Y349000D02*
X483000D01*
X487000Y345000D01*
X471750Y327000D02*
Y330750D01*
X472000Y317000D02*
Y321536D01*
X487000Y338000D02*
Y340150D01*
X509000Y376000D02*
X516000D01*
X506000Y379000D02*
X509000Y376000D01*
X506000Y379000D02*
Y391000D01*
X498000Y399000D02*
X506000Y391000D01*
X461000Y312080D02*
X469080D01*
X452000Y327000D02*
X460000D01*
X469080Y312080D02*
X472000Y315000D01*
X452000Y327000D02*
Y334500D01*
X447000Y329000D02*
X447000Y329000D01*
X495000Y447080D02*
Y455000D01*
Y446080D02*
Y447080D01*
X447000Y329000D02*
Y334500D01*
X491000Y399000D02*
X498000D01*
X506000Y397000D02*
X521500D01*
X496000Y407000D02*
X506000Y397000D01*
X496000Y407000D02*
Y409000D01*
X489000Y417000D02*
X492000D01*
X489000Y409000D02*
Y417000D01*
X504000Y436000D02*
X505000Y437000D01*
X504000Y431000D02*
Y436000D01*
X502000Y429000D02*
X504000Y431000D01*
X509000Y424000D02*
X510000Y425000D01*
X495000Y424000D02*
X509000D01*
Y415000D02*
X511500Y412500D01*
X524030D01*
X503000Y407000D02*
X508000Y402000D01*
X503000Y407000D02*
Y416000D01*
X494000Y425000D02*
X495000Y424000D01*
X494000Y436920D02*
X494540Y437460D01*
X495000Y435000D02*
Y437000D01*
X485000Y425000D02*
X495000Y435000D01*
X485000Y414000D02*
Y425000D01*
X490000Y386000D02*
X491000Y387000D01*
X490000Y359000D02*
Y386000D01*
X489000Y358000D02*
X490000Y359000D01*
X488500Y355500D02*
X489000Y356000D01*
Y358000D01*
X566430Y438300D02*
Y470570D01*
Y437300D02*
Y438300D01*
X524030Y428000D02*
Y433970D01*
X521500Y377500D02*
X522000Y377000D01*
X517500Y377500D02*
X521500D01*
X516000Y376000D02*
X517500Y377500D01*
X492500Y311750D02*
X499000D01*
X533000Y412000D02*
X534000Y411000D01*
X524530Y412000D02*
X533000D01*
X510000Y407000D02*
X523530D01*
X534000Y392000D02*
Y402000D01*
X524530D02*
X534000D01*
X508000D02*
X521530D01*
X513000Y388000D02*
Y396500D01*
X524530Y392000D02*
X534000D01*
X514000Y387000D02*
X523530D01*
X513000Y388000D02*
X514000Y387000D01*
X327000Y389000D02*
X329080Y391080D01*
X327000Y362000D02*
Y389000D01*
X471500Y394000D02*
X485000D01*
X488000D01*
X491000Y391000D01*
X507500Y355500D02*
X523500D01*
X498000Y349000D02*
Y380000D01*
X517500Y304500D02*
Y337500D01*
X516000Y338000D02*
X516500Y337500D01*
X515000Y339000D02*
X516000Y338000D01*
X516920D01*
X509000D02*
X516000D01*
X498000Y349000D02*
X509000Y338000D01*
X512000Y381000D02*
X513000D01*
X512500Y388000D02*
X513000D01*
X471500Y414000D02*
X485000D01*
X482000Y434000D02*
Y438000D01*
X480000Y432000D02*
X482000Y434000D01*
X480000Y424000D02*
Y432000D01*
Y424000D02*
X480000Y424000D01*
X471500D02*
X480000D01*
X471500Y409000D02*
X489000D01*
X496000Y437000D02*
X506000Y447000D01*
X496000Y435920D02*
Y436000D01*
X535000Y338000D02*
X543000D01*
X527080D02*
X535000D01*
X499000Y476000D02*
X511000D01*
X500000Y327000D02*
X511000D01*
X492500Y303500D02*
Y310850D01*
X472500Y314000D02*
X477000D01*
X535500Y330500D02*
X543000Y338000D01*
X535500Y305500D02*
Y330500D01*
X499000Y313000D02*
Y321000D01*
Y311750D02*
Y312000D01*
X525000Y371000D02*
X543000D01*
Y413000D01*
X493000Y339000D02*
X498250D01*
X569000Y493000D02*
Y494000D01*
X471000Y494000D02*
Y495000D01*
X482000D01*
X495000Y455000D02*
Y462000D01*
Y455000D02*
X505000D01*
X494000Y436000D02*
Y436920D01*
X543000Y338000D02*
Y371000D01*
X350920Y449000D02*
X351000D01*
X350500D02*
X350920D01*
X342000D02*
X350500D01*
X399000Y385000D02*
X404000D01*
X392000D02*
X399000D01*
X457000Y456000D02*
X463000Y450000D01*
X452000Y456000D02*
X457000D01*
X404000Y385000D02*
X434000Y415000D01*
X187000Y327000D02*
X202033D01*
X187000Y322000D02*
X202033D01*
X232000Y402000D02*
X235000D01*
X217000Y417000D02*
X232000Y402000D01*
X191000Y417000D02*
X217000D01*
X219000Y422000D02*
X232000Y409000D01*
Y409000D02*
Y409000D01*
Y409000D02*
X241000D01*
X189000Y422000D02*
X219000D01*
X310080Y353000D02*
X312000Y354920D01*
X233000Y415000D02*
X236000D01*
X221000Y427000D02*
X233000Y415000D01*
X190000Y427000D02*
X221000D01*
X316000Y408000D02*
X321000Y413000D01*
X234000Y421000D02*
X242000D01*
X223000Y432000D02*
X234000Y421000D01*
X191000Y432000D02*
X223000D01*
X235000Y427000D02*
X238000D01*
X225000Y437000D02*
X235000Y427000D01*
X192000Y437000D02*
X225000D01*
X293000Y343000D02*
Y381000D01*
Y343000D02*
X309000Y327000D01*
X320000D01*
X339000Y338000D02*
X342000D01*
X334000Y343000D02*
X339000Y338000D01*
X334000Y343000D02*
Y354000D01*
X350000Y327000D02*
Y342000D01*
X343000Y349000D02*
X350000Y342000D01*
X334000Y371000D02*
X341000D01*
X332000D02*
X334000D01*
X407000Y447500D02*
Y462000D01*
X469500Y399000D02*
X480000D01*
X243096Y306904D02*
X391904D01*
X223000Y327000D02*
X243096Y306904D01*
X391904D02*
X407000Y322000D01*
X390000Y311000D02*
X402000Y323000D01*
X244033Y311000D02*
X390000D01*
X227000Y328033D02*
X244033Y311000D01*
X388000Y315000D02*
X397000Y324000D01*
X246000Y315000D02*
X388000D01*
X231000Y330000D02*
X246000Y315000D01*
X392000Y325000D02*
Y330000D01*
X386000Y319000D02*
X392000Y325000D01*
X248000Y319000D02*
X386000D01*
X235000Y332000D02*
X248000Y319000D01*
X384000Y323000D02*
X387000Y326000D01*
X359000Y323000D02*
X384000D01*
X359000D02*
Y332000D01*
X372000Y344000D02*
X377000D01*
X281000Y328000D02*
Y336000D01*
X270000Y323000D02*
X359000D01*
X256000Y337000D02*
X270000Y323000D01*
X320000Y327000D02*
Y355000D01*
Y327000D02*
X350000D01*
X382000D02*
X382000Y327000D01*
X366000Y327000D02*
X382000D01*
X366000D02*
Y347000D01*
X494540Y437460D02*
X495000Y437920D01*
X494540Y437460D02*
X495000Y437000D01*
X494540Y437460D02*
X494540D01*
X253000Y391000D02*
X254000Y390000D01*
X327000Y354000D02*
X334000D01*
Y359920D01*
X385500Y344000D02*
X386500Y345000D01*
X377000Y344000D02*
X385500D01*
X377000Y334500D02*
Y344000D01*
X320000Y355000D02*
X327000Y362000D01*
X566430Y310430D02*
Y350800D01*
X565000Y472000D02*
X566430Y470570D01*
X452000Y456000D02*
Y471000D01*
X452000Y471000D02*
X452000Y471000D01*
X348000Y424000D02*
X358500D01*
X308000Y464000D02*
X308000D01*
X246000D02*
X308000D01*
X348000Y424000D01*
X224000Y442000D02*
X246000Y464000D01*
X292080Y437000D02*
X306000Y450920D01*
Y451000D01*
X310000Y446000D02*
X316000D01*
X306000Y442000D02*
X310000Y446000D01*
X306000Y440000D02*
Y442000D01*
X355500Y462000D02*
X377000D01*
X350500Y457000D02*
X355500Y462000D01*
X377000D02*
X382000Y457000D01*
X299920Y424920D02*
X301920D01*
X293000Y418000D02*
X299920Y424920D01*
X293000Y381000D02*
Y418000D01*
X304920Y425000D02*
Y436920D01*
X315000Y414000D02*
X315080Y414080D01*
Y425000D01*
X326000Y437000D02*
X328000D01*
X346000Y419000D01*
X316000Y436000D02*
X332000Y420000D01*
X357080Y414000D02*
X359500D01*
X348000D02*
X357080D01*
X347000D02*
X348000D01*
X346000Y419000D02*
X357080D01*
X255000Y398000D02*
X267000D01*
Y358000D02*
Y398000D01*
X243500Y396500D02*
Y398000D01*
X254000Y387000D02*
Y390000D01*
X239000Y387000D02*
X254000D01*
X260000Y364000D02*
Y376000D01*
X244000D02*
X260000D01*
X256000Y358000D02*
X267000D01*
X256000Y337000D02*
Y358000D01*
X255500Y337500D02*
X256000Y337000D01*
X243500Y337500D02*
X255500D01*
X294000Y353000D02*
X301920D01*
X310000Y367000D02*
X312000Y365000D01*
Y354920D02*
Y365000D01*
X302920Y437080D02*
Y437920D01*
Y437080D02*
X303000Y437000D01*
X311000Y413000D02*
X313000Y415000D01*
X392000Y367000D02*
Y385000D01*
X379000Y354000D02*
X392000Y367000D01*
X399000Y425000D02*
X406500D01*
X391500D02*
X399000D01*
X406500D02*
Y432000D01*
X391500Y425000D02*
Y433750D01*
X538500Y417500D02*
X543000Y413000D01*
X524000Y417500D02*
X538500D01*
X416936Y319936D02*
Y335436D01*
X396476Y299476D02*
X416936Y319936D01*
X395476Y299476D02*
X396476D01*
X412000Y321000D02*
Y334500D01*
X394000Y303000D02*
X412000Y321000D01*
X242016Y303000D02*
X394000D01*
X407000Y322000D02*
Y334500D01*
X402000Y323000D02*
Y334500D01*
X397000Y324000D02*
Y334500D01*
X240557Y299476D02*
X395476D01*
X215033Y325000D02*
X240557Y299476D01*
X187000Y442000D02*
X224000D01*
X244000Y468000D02*
X378000D01*
X224000Y448000D02*
X244000Y468000D01*
X189000Y448000D02*
X224000D01*
X242000Y472000D02*
X380000D01*
X223000Y453000D02*
X242000Y472000D01*
X189000Y453000D02*
X223000D01*
X412000Y447500D02*
Y458839D01*
X240000Y476000D02*
X402000D01*
X222000Y458000D02*
X240000Y476000D01*
X190000Y458000D02*
X222000D01*
X417000Y447500D02*
Y467000D01*
X238000Y480000D02*
X404000D01*
X220000Y462000D02*
X238000Y480000D01*
X190000Y462000D02*
X220000D01*
X216000Y477000D02*
X231000Y492000D01*
X191000Y477000D02*
X216000D01*
X231000Y492000D02*
X410000D01*
X218000Y472000D02*
X234000Y488000D01*
X191000Y472000D02*
X218000D01*
X234000Y488000D02*
X408000D01*
X236000Y484000D02*
X406000D01*
X219000Y467000D02*
X236000Y484000D01*
X190000Y467000D02*
X219000D01*
X228000Y496000D02*
X412000D01*
X214000Y482000D02*
X228000Y496000D01*
X191000Y482000D02*
X214000D01*
X226000Y500000D02*
X414000D01*
X213000Y487000D02*
X226000Y500000D01*
X191000Y487000D02*
X213000D01*
X250000Y364000D02*
X256000Y358000D01*
X238000Y364000D02*
X250000D01*
X244000Y370000D02*
X252000D01*
X211000Y403000D02*
X244000Y370000D01*
X190000Y403000D02*
X211000D01*
X213000Y407000D02*
X244000Y376000D01*
X205000Y382000D02*
X235000Y352000D01*
Y332000D02*
Y352000D01*
X204000Y377000D02*
X231000Y350000D01*
Y330000D02*
Y350000D01*
X203000Y372000D02*
X227000Y348000D01*
Y328033D02*
Y348000D01*
X210000Y359000D02*
X223000Y346000D01*
Y327000D02*
Y346000D01*
X219016Y326000D02*
X242016Y303000D01*
X219000Y326000D02*
X219016D01*
X219000D02*
Y344000D01*
X412000Y334500D02*
Y335500D01*
X201000Y362000D02*
X219000Y344000D01*
X215000Y325000D02*
X215033D01*
X215000D02*
Y342000D01*
X202000Y355000D02*
X215000Y342000D01*
X244000Y338000D02*
X245000D01*
X447000Y450000D02*
Y467000D01*
X414000Y500000D02*
X447000Y467000D01*
X442000Y457000D02*
Y466000D01*
X412000Y496000D02*
X442000Y466000D01*
X437000Y448500D02*
Y465000D01*
X410000Y492000D02*
X437000Y465000D01*
X432000Y459500D02*
Y464000D01*
X408000Y488000D02*
X432000Y464000D01*
X427000Y448500D02*
Y463000D01*
X406000Y484000D02*
X427000Y463000D01*
X404000Y480000D02*
X417000Y467000D01*
X412064Y458902D02*
Y465936D01*
X402000Y476000D02*
X412064Y465936D01*
X442000Y448500D02*
Y457000D01*
Y447500D02*
Y448500D01*
X437000Y447500D02*
Y448500D01*
X432000D02*
Y459500D01*
Y447500D02*
Y448500D01*
X427000Y447500D02*
Y448500D01*
X321000Y377000D02*
Y390000D01*
X336000Y405000D01*
X347000D01*
X348000Y404000D01*
X357080Y359000D02*
X359500D01*
X343000D02*
X357080D01*
X342000D02*
X343000D01*
X357080Y364000D02*
X359500D01*
X348000D02*
X357080D01*
X347000D02*
X348000D01*
X422000Y322000D02*
Y336000D01*
X427000Y324162D02*
Y335000D01*
X471500Y369000D02*
X481000D01*
X469500D02*
X471500D01*
Y359000D02*
X481000D01*
X468500D02*
X471500D01*
Y379000D02*
X481000D01*
X468500D02*
X471500D01*
X368500Y349500D02*
X373000Y354000D01*
X386000Y368000D02*
Y419500D01*
X376000Y358000D02*
X386000Y368000D01*
X371000Y358000D02*
X376000D01*
X366000Y347000D02*
X368500Y349500D01*
X386500Y345000D02*
Y349000D01*
X206000Y387000D02*
X235000Y358000D01*
X248000D01*
X190000Y387000D02*
X206000D01*
X386000Y419500D02*
X454500D01*
X372250D02*
X386000D01*
Y420000D01*
X357700Y344700D02*
X371000Y358000D01*
X357700Y335000D02*
Y344700D01*
X334000Y359920D02*
Y360000D01*
X357080Y354000D02*
X358500D01*
X348000D02*
X357080D01*
X347000D02*
X348000D01*
X334000Y371000D02*
Y380920D01*
Y370080D02*
Y371000D01*
Y370000D02*
Y370080D01*
Y370000D02*
X335000Y369000D01*
X321000Y409000D02*
Y413000D01*
X357080Y409000D02*
X358000D01*
X321000D02*
X357080D01*
Y394000D02*
X359500D01*
X348000D02*
X357080D01*
X347000D02*
X348000D01*
X357080Y389000D02*
X358500D01*
X342000D02*
X357080D01*
Y384000D02*
X359500D01*
X348000D02*
X357080D01*
X347000D02*
X348000D01*
X357080Y379000D02*
X359500D01*
X342000D02*
X357080D01*
X341000D02*
X342000D01*
X335000Y362000D02*
X338000D01*
X345000Y369000D01*
X357080D01*
X358500D01*
X357080Y424000D02*
X358500D01*
X351000D02*
X357080D01*
Y404000D02*
X358500D01*
X348000D02*
X357080D01*
X344000Y374000D02*
X348000D01*
X341000Y371000D02*
X344000Y374000D01*
X348000Y374000D02*
X357080D01*
X346000D02*
X348000D01*
X510000Y407000D02*
Y408000D01*
X452000Y448500D02*
Y456000D01*
X482500Y312850D02*
X487500D01*
X462000Y473080D02*
X472920D01*
X472000Y429500D02*
Y462000D01*
X483000Y448080D02*
Y455000D01*
X452000Y447500D02*
Y448500D01*
X471500Y404000D02*
X486000D01*
X469000D02*
X471500D01*
X402000Y448500D02*
Y457000D01*
Y446500D02*
Y448500D01*
X407000Y447500D02*
X407000Y447500D01*
X470500Y394000D02*
X471500D01*
Y384000D02*
X486000D01*
X470500D02*
X471500D01*
Y419000D02*
X480000D01*
X471500Y364000D02*
X486000D01*
X479000Y374000D02*
X486000D01*
X472500D02*
X479000D01*
X471500Y389000D02*
X481000D01*
X470500D02*
X471500D01*
X470500Y399000D02*
X471500D01*
X487000Y340150D02*
X487000Y340150D01*
X386500Y420000D02*
X386500Y420000D01*
Y433750D01*
X454500Y419500D02*
X454500Y419500D01*
X382000Y334500D02*
Y337500D01*
Y327000D02*
Y334500D01*
Y448500D02*
Y457000D01*
X360000Y449000D02*
X361080D01*
X358500Y429000D02*
X358807D01*
X377000Y448500D02*
Y449000D01*
Y447500D02*
Y448500D01*
X471500Y349000D02*
Y354000D01*
X437000Y334500D02*
X437500Y335000D01*
X437000Y319000D02*
Y334500D01*
X407000D02*
Y335500D01*
X406500Y347000D02*
X407000Y334500D01*
X402000D02*
Y335500D01*
X401500Y347500D02*
X402000Y334500D01*
X397000D02*
Y335500D01*
X396500Y347000D02*
X397000Y334500D01*
X391500Y347000D02*
X392000Y334500D01*
X357080Y374000D02*
X358500D01*
X387000Y445500D02*
X387000Y448500D01*
X470500Y364000D02*
X471500D01*
X387000Y448500D02*
Y459000D01*
X342000Y399000D02*
X357000D01*
X377000Y449000D02*
Y452000D01*
X392000Y450000D02*
Y460000D01*
X380000Y472000D02*
X392000Y460000D01*
X378000Y468000D02*
X387000Y459000D01*
X479000Y374000D02*
X479000Y374000D01*
X348000D02*
X348000Y374000D01*
X442000Y325000D02*
X443000Y324000D01*
X442000Y325000D02*
Y332000D01*
X273000Y372000D02*
Y404000D01*
X275000Y406000D01*
X214000Y412000D02*
X239000Y387000D01*
X192000Y412000D02*
X214000D01*
X209000Y335000D02*
Y342000D01*
X199000Y352000D02*
X209000Y342000D01*
X188000Y352000D02*
X199000D01*
X235000Y401000D02*
Y402000D01*
X202000Y355000D02*
Y355000D01*
X200000Y357000D02*
X202000Y355000D01*
X188000Y357000D02*
X200000D01*
X189000Y362000D02*
X201000D01*
X210000Y359000D02*
Y359000D01*
X202000Y367000D02*
X210000Y359000D01*
X188000Y367000D02*
X202000D01*
X189000Y372000D02*
X203000D01*
X191000Y377000D02*
X204000D01*
X190000Y382000D02*
X205000D01*
X191000Y407000D02*
X213000D01*
X275000Y406000D02*
X286000D01*
X243500Y396500D02*
Y396500D01*
X243000Y397000D02*
X243500Y396500D01*
X277300Y435000D02*
X282000D01*
X269300Y427000D02*
X277300Y435000D01*
X276300Y447000D02*
X280000D01*
X269300Y440000D02*
X276300Y447000D01*
X292000Y456000D02*
X292080Y455920D01*
Y449000D02*
Y455920D01*
X283000Y424000D02*
X289000Y418000D01*
Y409000D02*
Y418000D01*
X286000Y406000D02*
X289000Y409000D01*
X280000Y393000D02*
X280500Y392500D01*
Y337500D02*
Y392500D01*
Y393500D02*
X281000Y394000D01*
X187000Y302000D02*
X202033D01*
X187000Y307000D02*
X202033D01*
X187000Y312000D02*
X202033D01*
X187000Y317000D02*
X202033D01*
X424000Y315000D02*
X427064Y318064D01*
X427000Y324162D02*
X427064Y324098D01*
Y318064D02*
Y324098D01*
X416936Y335436D02*
X417000Y335500D01*
X431936Y323098D02*
X432064Y323226D01*
X432000Y330000D02*
X432064Y329936D01*
X358500Y424000D02*
X358500Y424000D01*
X412000Y458839D02*
X412064Y458902D01*
X524030Y354000D02*
Y361000D01*
Y361530D02*
Y363000D01*
X523500Y361000D02*
X524030Y361530D01*
X442000Y457000D02*
X442000Y457000D01*
X432000Y459500D02*
X432000Y459500D01*
X317000Y371000D02*
X317080D01*
X387000Y335500D02*
X387000Y335500D01*
D12*
X465500Y335500D02*
X466000Y335000D01*
X443000Y358000D02*
X465500Y335500D01*
X482000Y342000D02*
Y345000D01*
X481000Y346000D02*
X482000Y345000D01*
X477000Y346000D02*
X481000D01*
X482000Y338000D02*
X482000Y338000D01*
X473000Y344000D02*
X477000Y346000D01*
X466000Y340000D02*
X478000D01*
X466000Y335000D02*
X466000D01*
X466000Y344000D02*
X473000D01*
X431500Y390000D02*
X445000D01*
Y361000D02*
Y390000D01*
Y361000D02*
X466000Y340000D01*
X477250Y340750D02*
X478000Y340000D01*
X449000Y361000D02*
X466000Y344000D01*
X449000Y361000D02*
Y394000D01*
X426500D02*
X449000D01*
X426500Y353000D02*
Y394000D01*
X431500Y353000D02*
Y390000D01*
X436500Y358000D02*
Y384500D01*
Y350250D02*
Y358000D01*
X443000D01*
X449000Y361000D02*
Y361000D01*
X431500Y437500D02*
X431500Y437500D01*
X422000Y444500D02*
X431500Y437500D01*
Y438500D01*
Y433750D02*
Y437500D01*
Y438500D02*
X434000Y441000D01*
X458500Y419500D02*
X468500Y429500D01*
X455750Y419500D02*
X458500D01*
X361000Y429000D02*
X368500Y419500D01*
X368507Y419558D02*
X369000Y419500D01*
X361000Y424000D02*
X368500Y414500D01*
X377000Y444500D02*
X386500Y437500D01*
X382000Y444500D02*
X391500Y437500D01*
X402000Y444500D02*
X411500Y437500D01*
X397000Y444500D02*
X406500Y437500D01*
X426000Y352500D02*
X426500Y353000D01*
X441500Y346500D02*
X452000Y338500D01*
X431500Y346500D02*
X442000Y338500D01*
X426500Y346500D02*
X437000Y338500D01*
X421500Y346500D02*
X432000Y338500D01*
X416500Y346500D02*
X427000Y338500D01*
X411500Y346500D02*
X422000Y338500D01*
X411500Y346500D02*
X411500Y350250D01*
X361000Y354500D02*
X369000Y365000D01*
X360940Y374046D02*
X368905Y384500D01*
X372250D01*
X361000Y359500D02*
X369000Y370000D01*
X361000Y364500D02*
X369000Y375000D01*
X361000Y369500D02*
X369000Y380000D01*
X361000Y399000D02*
X368500Y389500D01*
X361000Y404000D02*
X368500Y394500D01*
X361000Y409000D02*
X368500Y399500D01*
X361000Y414000D02*
X368500Y404500D01*
X357080Y419000D02*
X361000D01*
X368500Y409500D01*
X441500Y437500D02*
X452000Y444500D01*
X441500Y433750D02*
Y437500D01*
X436500D02*
X447000Y444500D01*
X436500Y437500D02*
X436500Y433750D01*
X417000Y444500D02*
X426500Y437500D01*
X412000Y444500D02*
X421500Y437500D01*
X407000Y444500D02*
X416500Y437500D01*
X392000Y444500D02*
X401500Y437500D01*
Y433750D02*
Y437500D01*
X387000Y444500D02*
X396500Y437500D01*
Y433750D02*
Y437500D01*
X459500Y384500D02*
X468000Y394000D01*
X459500Y389500D02*
X468000Y399000D01*
X459500Y394500D02*
X468000Y404000D01*
X459500Y399500D02*
X468000Y409000D01*
X459500Y404500D02*
X468000Y414000D01*
X456500Y410000D02*
X459500Y409500D01*
X468000Y419000D01*
X471500D01*
X459500Y364000D02*
X468000Y354000D01*
X459500Y369000D02*
X468000Y359000D01*
X459044Y374537D02*
X468000Y364000D01*
X459044Y379537D02*
X468000Y369000D01*
X441500Y433750D02*
X442000Y437000D01*
X411000D02*
X411500Y433750D01*
X407000Y447500D02*
Y448500D01*
D14*
X452000D02*
D03*
X447000D02*
D03*
X442000D02*
D03*
X437000D02*
D03*
X432000D02*
D03*
X427000D02*
D03*
X422000D02*
D03*
X417000D02*
D03*
X412000D02*
D03*
X407000D02*
D03*
X402000D02*
D03*
X397000D02*
D03*
X392000D02*
D03*
X387000D02*
D03*
X382000D02*
D03*
X377000D02*
D03*
X452000Y334500D02*
D03*
X447000D02*
D03*
X442000D02*
D03*
X437000D02*
D03*
X432000D02*
D03*
X427000D02*
D03*
X422000D02*
D03*
X417000D02*
D03*
X412000D02*
D03*
X407000D02*
D03*
X402000D02*
D03*
X397000D02*
D03*
X392000D02*
D03*
X387000D02*
D03*
X382000D02*
D03*
X377000D02*
D03*
X441500Y433750D02*
D03*
X436500D02*
D03*
X431500D02*
D03*
X426500D02*
D03*
X421500D02*
D03*
X416500D02*
D03*
X411500D02*
D03*
X406500D02*
D03*
X401500D02*
D03*
X396500D02*
D03*
X391500D02*
D03*
X386500D02*
D03*
X441500Y350250D02*
D03*
X436500D02*
D03*
X431500D02*
D03*
X426500D02*
D03*
X421500D02*
D03*
X416500D02*
D03*
X411500D02*
D03*
X406500D02*
D03*
X401500D02*
D03*
X396500D02*
D03*
X391500D02*
D03*
X386500D02*
D03*
D15*
X471500Y354000D02*
D03*
Y359000D02*
D03*
Y364000D02*
D03*
Y369000D02*
D03*
Y374000D02*
D03*
Y379000D02*
D03*
Y384000D02*
D03*
Y389000D02*
D03*
Y394000D02*
D03*
Y399000D02*
D03*
Y404000D02*
D03*
Y409000D02*
D03*
Y414000D02*
D03*
Y419000D02*
D03*
Y424000D02*
D03*
Y429000D02*
D03*
X357080Y354000D02*
D03*
Y359000D02*
D03*
Y364000D02*
D03*
Y369000D02*
D03*
Y374000D02*
D03*
Y379000D02*
D03*
Y384000D02*
D03*
Y389000D02*
D03*
Y394000D02*
D03*
Y399000D02*
D03*
Y404000D02*
D03*
Y409000D02*
D03*
Y414000D02*
D03*
Y419000D02*
D03*
Y424000D02*
D03*
Y429000D02*
D03*
X455750Y364500D02*
D03*
Y369500D02*
D03*
Y374500D02*
D03*
Y379500D02*
D03*
Y384500D02*
D03*
Y389500D02*
D03*
Y394500D02*
D03*
Y399500D02*
D03*
Y404500D02*
D03*
Y409500D02*
D03*
Y414500D02*
D03*
Y419500D02*
D03*
X372250Y364500D02*
D03*
Y369500D02*
D03*
Y374500D02*
D03*
X372250Y379500D02*
D03*
X372250Y384500D02*
D03*
Y389500D02*
D03*
Y394500D02*
D03*
Y399500D02*
D03*
Y404500D02*
D03*
X372250Y409500D02*
D03*
X372250Y414500D02*
D03*
X372250Y419500D02*
D03*
D16*
X470920Y302000D02*
D03*
X481080D02*
D03*
X502080D02*
D03*
X491920D02*
D03*
X516920Y338000D02*
D03*
X527080D02*
D03*
X421080Y302000D02*
D03*
X410920D02*
D03*
X281920Y449000D02*
D03*
X292080D02*
D03*
X281920Y437000D02*
D03*
X292080D02*
D03*
X304920D02*
D03*
X315080D02*
D03*
X301920Y353000D02*
D03*
X312080D02*
D03*
X304920Y425000D02*
D03*
X315080D02*
D03*
X350920Y449000D02*
D03*
X361080D02*
D03*
D17*
X181000Y457500D02*
D03*
Y452500D02*
D03*
Y447500D02*
D03*
Y442500D02*
D03*
Y302500D02*
D03*
Y307500D02*
D03*
Y312500D02*
D03*
Y317500D02*
D03*
Y322500D02*
D03*
Y327500D02*
D03*
Y352500D02*
D03*
Y357500D02*
D03*
Y362500D02*
D03*
Y367500D02*
D03*
Y372500D02*
D03*
Y377500D02*
D03*
Y382500D02*
D03*
Y387500D02*
D03*
Y392500D02*
D03*
Y397500D02*
D03*
Y402500D02*
D03*
Y407500D02*
D03*
Y412500D02*
D03*
Y417500D02*
D03*
Y422500D02*
D03*
Y427500D02*
D03*
Y432500D02*
D03*
Y437500D02*
D03*
Y462500D02*
D03*
Y487500D02*
D03*
Y482500D02*
D03*
Y477500D02*
D03*
Y472500D02*
D03*
Y467500D02*
D03*
D18*
X492000Y387000D02*
D03*
Y391000D02*
D03*
D19*
X498000Y378500D02*
D03*
X507500Y355500D02*
D03*
X488500D02*
D03*
X526000Y326500D02*
D03*
X535500Y303500D02*
D03*
X516500D02*
D03*
D20*
X460000Y301920D02*
D03*
Y312080D02*
D03*
X511000Y426080D02*
D03*
Y415920D02*
D03*
X334000Y381920D02*
D03*
Y392080D02*
D03*
X495000Y447080D02*
D03*
Y436920D02*
D03*
X282000Y413920D02*
D03*
Y424080D02*
D03*
X506000Y447080D02*
D03*
Y436920D02*
D03*
X495000Y417080D02*
D03*
Y406920D02*
D03*
X437000Y301840D02*
D03*
Y312000D02*
D03*
X484000Y447080D02*
D03*
Y436920D02*
D03*
X334000Y370080D02*
D03*
Y359920D02*
D03*
X448000Y301920D02*
D03*
Y312080D02*
D03*
X462000Y473080D02*
D03*
Y462920D02*
D03*
D21*
X448500Y492000D02*
D03*
X467500D02*
D03*
D22*
X495000Y494000D02*
D03*
Y463000D02*
D03*
D23*
X499000Y478000D02*
D03*
D24*
X521000D02*
D03*
D25*
X310600Y370500D02*
D03*
Y407500D02*
D03*
D26*
X492500Y311850D02*
D03*
X487500D02*
D03*
X482500D02*
D03*
X477500D02*
D03*
X469850Y321786D02*
D03*
Y326786D02*
D03*
Y331786D02*
D03*
X477500Y342150D02*
D03*
X482500D02*
D03*
X487500D02*
D03*
X492500D02*
D03*
X500150Y332040D02*
D03*
Y327040D02*
D03*
Y322040D02*
D03*
D27*
X492500Y313750D02*
D03*
X487500D02*
D03*
X482500D02*
D03*
X477500D02*
D03*
Y340250D02*
D03*
X482500D02*
D03*
X487500D02*
D03*
X492500D02*
D03*
D28*
X471750Y321786D02*
D03*
Y326786D02*
D03*
Y331786D02*
D03*
X498250Y332040D02*
D03*
Y327040D02*
D03*
Y322040D02*
D03*
D29*
X485000Y327000D02*
D03*
D30*
X280500Y337500D02*
D03*
Y396500D02*
D03*
X243500D02*
D03*
Y337500D02*
D03*
D31*
X269300Y441000D02*
D03*
X255300D02*
D03*
X269300Y428000D02*
D03*
X255300D02*
D03*
X269300Y415000D02*
D03*
X255300D02*
D03*
D32*
X342300Y335000D02*
D03*
X357700D02*
D03*
D33*
X524030Y426000D02*
D03*
X524000Y418500D02*
D03*
X524030Y371500D02*
D03*
Y364000D02*
D03*
D34*
Y412500D02*
D03*
Y407500D02*
D03*
Y402500D02*
D03*
X524000Y397500D02*
D03*
X524030Y392500D02*
D03*
Y387500D02*
D03*
Y382500D02*
D03*
Y377500D02*
D03*
D61*
X495000Y494000D02*
X569000D01*
D62*
X526000Y294000D02*
Y328500D01*
X490000Y480000D02*
X491000Y479000D01*
X447500Y480000D02*
X490000D01*
X447500D02*
Y490000D01*
D63*
X272000Y414000D02*
X272080Y413920D01*
X282000D01*
D64*
X492000Y389000D02*
D03*
D65*
X369000Y446000D02*
D03*
D66*
X472500Y447500D02*
D03*
D67*
X369000Y292500D02*
D03*
D68*
X181500Y315000D02*
D03*
D69*
X527830Y438300D02*
D03*
Y351800D02*
D03*
D70*
X566430Y438300D02*
D03*
Y351800D02*
D03*
D71*
X567000Y309000D02*
D03*
Y481000D02*
D03*
D72*
X458000Y320000D02*
D03*
X423000Y315000D02*
D03*
X460000Y327000D02*
D03*
X442000Y325000D02*
D03*
X503000Y416000D02*
D03*
X502000Y429000D02*
D03*
X494000Y425000D02*
D03*
X465000Y335000D02*
D03*
X513000Y381000D02*
D03*
Y388000D02*
D03*
X491000Y399000D02*
D03*
X535000Y338000D02*
D03*
X512000Y326000D02*
D03*
X509000Y303000D02*
D03*
X472000Y315000D02*
D03*
X505000Y455000D02*
D03*
X483000D02*
D03*
X482000Y495000D02*
D03*
X342000Y449000D02*
D03*
X464000D02*
D03*
X399000Y385000D02*
D03*
X242000Y409000D02*
D03*
X281000Y328000D02*
D03*
X317000Y411000D02*
D03*
X372000Y345000D02*
D03*
X327000Y354000D02*
D03*
X343000Y349000D02*
D03*
X452000Y471000D02*
D03*
X306000Y451000D02*
D03*
X316000Y446000D02*
D03*
X326000Y437000D02*
D03*
X332000Y420000D02*
D03*
X392000Y385000D02*
D03*
X437000D02*
D03*
X392000Y367000D02*
D03*
X449000Y349000D02*
D03*
X399000Y425000D02*
D03*
X252000Y370000D02*
D03*
X376000Y352000D02*
D03*
X248000Y358000D02*
D03*
X293000Y381000D02*
D03*
X535000Y412000D02*
D03*
X499000Y339000D02*
D03*
X485000Y325000D02*
D03*
X499000Y312000D02*
D03*
X510000Y407000D02*
D03*
X473000Y473000D02*
D03*
X434000Y441000D02*
D03*
X407000Y462000D02*
D03*
X402000Y457000D02*
D03*
X480000Y419000D02*
D03*
X485000Y364000D02*
D03*
Y374000D02*
D03*
Y384000D02*
D03*
Y394000D02*
D03*
X486000Y404000D02*
D03*
X471500Y349000D02*
D03*
X348000Y414000D02*
D03*
Y404000D02*
D03*
X342000Y399000D02*
D03*
X348000Y394000D02*
D03*
X343000Y359000D02*
D03*
X342000Y389000D02*
D03*
Y379000D02*
D03*
X348000Y384000D02*
D03*
X480000Y399000D02*
D03*
Y389000D02*
D03*
Y379000D02*
D03*
Y369000D02*
D03*
Y359000D02*
D03*
X348000Y354000D02*
D03*
Y364000D02*
D03*
X273000Y372000D02*
D03*
X348000Y374000D02*
D03*
X437000Y320000D02*
D03*
X209000Y335000D02*
D03*
X260000Y364000D02*
D03*
X235000Y402000D02*
D03*
X237000Y415000D02*
D03*
X242000Y421000D02*
D03*
X254000Y392000D02*
D03*
X292000Y457000D02*
D03*
X432000Y325000D02*
D03*
X422000Y322000D02*
D03*
X238000Y427000D02*
D03*
M02*
