G04*
G04 #@! TF.GenerationSoftware,Altium Limited,Altium Designer,18.1.7 (191)*
G04*
G04 Layer_Color=16711935*
%FSLAX44Y44*%
%MOMM*%
G71*
G01*
G75*
%ADD78C,1.6012*%
%ADD79C,2.5582*%
%ADD80C,3.4532*%
%ADD81R,1.6012X1.6012*%
%ADD82C,1.7112*%
%ADD83R,1.7112X1.7112*%
%ADD84C,1.3552*%
%ADD85R,1.4032X2.2032*%
%ADD86R,1.4032X2.5032*%
%ADD87C,0.2032*%
%ADD145R,3.6250X19.8500*%
%ADD146R,3.2032X0.5532*%
D78*
X928700Y440500D02*
D03*
Y463400D02*
D03*
Y349100D02*
D03*
Y326200D02*
D03*
X977000Y359200D02*
D03*
X994800Y369400D02*
D03*
X977000Y379600D02*
D03*
X994800Y389800D02*
D03*
X977000Y400000D02*
D03*
X994800Y410200D02*
D03*
X977000Y420400D02*
D03*
D79*
X985900Y476100D02*
D03*
Y313500D02*
D03*
D80*
X1020200Y458300D02*
D03*
Y331300D02*
D03*
D81*
X994800Y430600D02*
D03*
D82*
X759200Y447680D02*
D03*
X810000D02*
D03*
X860800D02*
D03*
D83*
X886200D02*
D03*
D84*
X1040000Y299000D02*
D03*
Y489000D02*
D03*
X340000Y439000D02*
D03*
X1050000Y315000D02*
D03*
Y470000D02*
D03*
D85*
X630500Y441400D02*
D03*
X544000D02*
D03*
D86*
X630500Y480000D02*
D03*
X544000D02*
D03*
D87*
X617300Y448570D02*
D03*
X557300D02*
D03*
D145*
X184125Y395000D02*
D03*
D146*
X184750Y325000D02*
D03*
Y460000D02*
D03*
Y455000D02*
D03*
Y450000D02*
D03*
Y445000D02*
D03*
Y485250D02*
D03*
Y465250D02*
D03*
Y475250D02*
D03*
Y470250D02*
D03*
Y480250D02*
D03*
Y440000D02*
D03*
Y430000D02*
D03*
Y410000D02*
D03*
Y390000D02*
D03*
Y370000D02*
D03*
Y350000D02*
D03*
Y310000D02*
D03*
Y435000D02*
D03*
Y415000D02*
D03*
Y425000D02*
D03*
Y420000D02*
D03*
Y395000D02*
D03*
Y405000D02*
D03*
Y400000D02*
D03*
Y375000D02*
D03*
Y385000D02*
D03*
Y380000D02*
D03*
Y355000D02*
D03*
Y365000D02*
D03*
Y360000D02*
D03*
Y315000D02*
D03*
Y320000D02*
D03*
Y305000D02*
D03*
M02*
