G04*
G04 #@! TF.GenerationSoftware,Altium Limited,Altium Designer,18.1.7 (191)*
G04*
G04 Layer_Color=32896*
%FSLAX44Y44*%
%MOMM*%
G71*
G01*
G75*
G36*
X1083767Y564428D02*
X1092898Y562817D01*
X1100954Y561206D01*
X1107399Y559595D01*
X1112770Y558521D01*
X1115993Y557446D01*
X1116530Y556909D01*
X1117067D01*
X1125660Y553150D01*
X1134253Y548853D01*
X1141773Y543482D01*
X1148755Y538648D01*
X1154125Y534352D01*
X1158422Y530592D01*
X1161107Y527907D01*
X1162182Y526833D01*
X1168090Y520388D01*
X1173460Y513943D01*
X1177757Y507498D01*
X1182054Y501053D01*
X1189036Y488700D01*
X1193869Y477421D01*
X1197092Y467753D01*
X1198703Y463457D01*
X1199240Y460234D01*
X1200314Y457012D01*
Y454864D01*
X1200852Y453789D01*
Y453252D01*
X1201926Y444122D01*
X1202463Y439825D01*
Y436066D01*
X1203000Y432843D01*
Y430158D01*
Y428546D01*
Y428009D01*
X1202463Y417805D01*
X1201389Y407600D01*
X1200314Y397933D01*
X1198703Y389339D01*
X1197092Y381820D01*
X1195481Y375912D01*
X1194944Y373764D01*
Y372153D01*
X1194407Y371616D01*
Y371079D01*
X1191184Y361948D01*
X1187424Y353892D01*
X1184202Y345836D01*
X1180443Y338854D01*
X1177757Y332946D01*
X1175072Y328649D01*
X1173460Y325964D01*
X1172923Y324889D01*
X1162719Y309851D01*
X1157885Y302869D01*
X1153588Y296424D01*
X1149292Y291053D01*
X1146606Y287294D01*
X1144458Y284608D01*
X1143921Y283534D01*
X1132105Y268496D01*
X1120826Y253995D01*
X1109548Y240567D01*
X1099880Y228752D01*
X1095046Y223381D01*
X1091287Y218547D01*
X1087527Y214250D01*
X1084305Y210491D01*
X1081619Y207805D01*
X1080008Y205657D01*
X1078934Y204583D01*
X1078397Y204046D01*
X1065507Y190082D01*
X1052617Y176654D01*
X1040264Y164302D01*
X1028985Y153023D01*
X1024151Y148189D01*
X1019855Y143892D01*
X1015558Y140133D01*
X1012336Y136910D01*
X1009650Y134225D01*
X1007502Y132077D01*
X1006428Y131003D01*
X1005891Y130465D01*
X999983Y125094D01*
X994612Y120261D01*
X993001Y118112D01*
X991389Y116501D01*
X990315Y115964D01*
X989778Y115427D01*
X983333Y110593D01*
X977962Y106297D01*
X975814Y104685D01*
X974203Y103074D01*
X973129Y102537D01*
X972591Y102000D01*
X970443Y103611D01*
X969369Y104148D01*
X967758Y105222D01*
X967221Y105759D01*
X958090Y113816D01*
X948960Y121872D01*
X940903Y129391D01*
X933921Y136373D01*
X928014Y142281D01*
X923180Y147115D01*
X920494Y149800D01*
X919420Y150875D01*
X910827Y160005D01*
X902771Y168598D01*
X895251Y177192D01*
X888269Y184174D01*
X882898Y190619D01*
X878602Y195452D01*
X875916Y198675D01*
X874842Y199749D01*
X868397Y207268D01*
X863026Y214250D01*
X860878Y216936D01*
X859267Y219084D01*
X858193Y220158D01*
X857656Y220695D01*
X851748Y228752D01*
X846914Y235734D01*
X845303Y238419D01*
X843691Y240567D01*
X843154Y242179D01*
X842617Y242716D01*
X839932Y247012D01*
X838321Y250772D01*
X837246Y254531D01*
X836709Y257217D01*
Y259902D01*
Y262051D01*
X837246Y263125D01*
Y263662D01*
X838321Y267421D01*
X839932Y271181D01*
X844229Y277089D01*
X846377Y279774D01*
X848525Y281386D01*
X849599Y282460D01*
X850136Y282997D01*
X854433Y286756D01*
X859267Y289442D01*
X863564Y291590D01*
X867860Y293202D01*
X871083Y294276D01*
X873768Y295350D01*
X875916Y295887D01*
X876453D01*
X887195Y296961D01*
X892566Y297498D01*
X896863Y296961D01*
X903845D01*
X905993Y296424D01*
X906530D01*
X911364Y295350D01*
X915124Y293739D01*
X917809Y292664D01*
X918346Y292127D01*
X918883D01*
X922643Y288905D01*
X925328Y285145D01*
X926402Y282460D01*
X926939Y281923D01*
Y281386D01*
X928014Y278163D01*
X928551Y275478D01*
X929088Y273329D01*
Y272255D01*
X928551Y269033D01*
X927476Y265810D01*
X926402Y263662D01*
X925865Y263125D01*
X923717Y260439D01*
X921569Y259365D01*
X919420Y258828D01*
X912438D01*
X910290Y259365D01*
X909753D01*
X907067Y260439D01*
X904919Y260977D01*
X903308Y261514D01*
X902771D01*
X900085Y262051D01*
X897400Y262588D01*
X895251D01*
X890955Y262051D01*
X887732Y260439D01*
X886121Y258828D01*
X885584Y258291D01*
X884510Y255069D01*
Y251309D01*
Y248624D01*
X885047Y248086D01*
Y247549D01*
X887195Y243790D01*
X889343Y240567D01*
X895251Y234659D01*
X898474Y232511D01*
X900622Y231437D01*
X902234Y230363D01*
X902771Y229826D01*
X907604Y227140D01*
X912438Y225529D01*
X916735Y224455D01*
X919957Y223381D01*
X927476D01*
X932310Y224455D01*
X936607Y225529D01*
X940366Y227140D01*
X943589Y229289D01*
X946274Y230900D01*
X948423Y231974D01*
X949497Y233048D01*
X950034Y233585D01*
X953256Y237345D01*
X955405Y241104D01*
X957553Y244864D01*
X959164Y248086D01*
X960238Y251309D01*
X960776Y253994D01*
X961313Y255606D01*
Y256143D01*
X961850Y263125D01*
Y269570D01*
Y276015D01*
X961313Y281386D01*
X960776Y285682D01*
X959701Y288905D01*
X959164Y291590D01*
Y292127D01*
X957016Y298572D01*
X954868Y304480D01*
X952182Y309851D01*
X949497Y315222D01*
X947348Y318981D01*
X945200Y322204D01*
X944126Y324352D01*
X943589Y324889D01*
X941441Y327575D01*
X939292Y329186D01*
X937681Y330260D01*
X937144D01*
X934458Y329723D01*
X931773Y328649D01*
X929625Y327575D01*
X929088Y327038D01*
X922643Y323278D01*
X916735Y320056D01*
X910827Y317907D01*
X905456Y316296D01*
X901159Y315759D01*
X897937Y315222D01*
X895251Y314685D01*
X888269D01*
X881287Y315759D01*
X875379Y316833D01*
X870008Y317907D01*
X865175Y319519D01*
X861415Y320593D01*
X859267Y321130D01*
X858193Y321667D01*
X852285Y324889D01*
X847451Y328112D01*
X844229Y330797D01*
X843691Y331871D01*
X843154D01*
X841006Y334557D01*
X839395Y337242D01*
X837246Y342613D01*
Y345299D01*
X836709Y347447D01*
Y348521D01*
Y349058D01*
Y352281D01*
X837784Y355503D01*
X839395Y360874D01*
X841543Y364096D01*
X842080Y364633D01*
X842617Y365171D01*
X847451Y370004D01*
X851748Y373764D01*
X855507Y375912D01*
X856044Y376986D01*
X856581D01*
X857119Y377523D01*
X857656D01*
X858193Y378061D01*
X858730D01*
X868934Y381820D01*
X873768Y382894D01*
X878065Y383969D01*
X881287Y385043D01*
X883973D01*
X886121Y385580D01*
X886658D01*
X892029Y386117D01*
X901696D01*
X906530Y385580D01*
X910290Y385043D01*
X912975Y384506D01*
X915124Y383969D01*
X915661D01*
X918883Y383431D01*
X925328D01*
X927476Y383969D01*
X928014D01*
X929088Y385043D01*
X930162Y386117D01*
X932310Y389876D01*
X933921Y393636D01*
X934458Y394710D01*
Y395247D01*
X936607Y402766D01*
X938218Y410286D01*
X939829Y417268D01*
X940366Y423176D01*
X940903Y428546D01*
X941441Y432843D01*
Y434991D01*
Y436066D01*
X940366Y451104D01*
X939829Y458086D01*
X938755Y463994D01*
X937681Y469365D01*
X937144Y473661D01*
X936070Y475810D01*
Y476884D01*
X932847Y487089D01*
X930699Y491385D01*
X928550Y495145D01*
X926939Y498367D01*
X925328Y500516D01*
X924791Y502127D01*
X924254Y502664D01*
X921031Y506423D01*
X917272Y510183D01*
X910290Y515554D01*
X907067Y517702D01*
X904382Y519313D01*
X902770Y519851D01*
X902234Y520388D01*
X896863Y522536D01*
X892029Y524147D01*
X881287Y525758D01*
X871620Y526296D01*
X862489Y525758D01*
X854433Y524147D01*
X848525Y522536D01*
X846377Y521999D01*
X844766Y521462D01*
X843691Y520925D01*
X843154D01*
X831876Y516091D01*
X822745Y509646D01*
X814689Y503201D01*
X808781Y496756D01*
X803947Y490848D01*
X800725Y486014D01*
X799113Y482255D01*
X798576Y481718D01*
Y481180D01*
X796965Y476884D01*
X796428Y473124D01*
X795891Y466679D01*
X796428Y463994D01*
Y461846D01*
X796965Y460771D01*
Y460234D01*
X798039Y457012D01*
X800188Y453789D01*
X803947Y448955D01*
X807707Y446270D01*
X808781Y445196D01*
X809318D01*
X813078Y443585D01*
X816300Y443048D01*
X822745Y442510D01*
X827042D01*
X828116Y443048D01*
X828653D01*
X831876Y444659D01*
X835098Y446270D01*
X840469Y451104D01*
X842080Y453252D01*
X843691Y454864D01*
X844229Y455938D01*
X844766Y456475D01*
X846914Y459697D01*
X848525Y462920D01*
X850136Y465068D01*
X850674Y465605D01*
X852822Y468828D01*
X854433Y471513D01*
X856044Y473124D01*
X856581Y473661D01*
X860341Y477958D01*
X864101Y481180D01*
X867323Y482792D01*
X867860Y483329D01*
X868397D01*
X871083Y484403D01*
X873768Y484940D01*
X878602D01*
X880750Y484403D01*
X882361D01*
X883436Y483866D01*
X883973D01*
X889881Y481180D01*
X894714Y477958D01*
X897400Y475273D01*
X898474Y474736D01*
Y474198D01*
X901696Y468828D01*
X903845Y462920D01*
X904382Y460771D01*
Y458623D01*
X904919Y457549D01*
Y457012D01*
Y450567D01*
X904382Y445196D01*
X903845Y443048D01*
X903308Y441436D01*
X902771Y440362D01*
Y439825D01*
X900085Y433917D01*
X897400Y429084D01*
X894714Y425861D01*
X893640Y425324D01*
Y424787D01*
X886658Y417268D01*
X879676Y411360D01*
X872694Y406526D01*
X866249Y402766D01*
X860341Y399544D01*
X856044Y397933D01*
X853359Y396858D01*
X852285Y396321D01*
X843691Y394173D01*
X834561Y392562D01*
X826505Y392025D01*
X818448D01*
X812003Y392562D01*
X806633Y393099D01*
X805022D01*
X803410Y393636D01*
X802336D01*
X792132Y396858D01*
X783538Y400618D01*
X776019Y405452D01*
X770111Y410286D01*
X765277Y415119D01*
X761518Y418879D01*
X759369Y421564D01*
X758832Y422639D01*
X755610Y428546D01*
X753462Y434454D01*
X751313Y439825D01*
X750239Y444659D01*
X749702Y448955D01*
X749165Y452178D01*
Y454326D01*
Y454864D01*
X749702Y461308D01*
X750239Y467216D01*
X750776Y469365D01*
X751313Y470976D01*
X751850Y472050D01*
Y472587D01*
X753998Y479569D01*
X756147Y486014D01*
X758832Y491922D01*
X760981Y497293D01*
X763129Y501590D01*
X765277Y504812D01*
X766351Y506960D01*
X766889Y507498D01*
X774945Y518239D01*
X779241Y523073D01*
X783001Y527370D01*
X786224Y530592D01*
X788909Y533278D01*
X791057Y534889D01*
X791594Y535426D01*
X799113Y541334D01*
X807170Y546705D01*
X814689Y551001D01*
X821671Y554224D01*
X827579Y556909D01*
X831876Y558521D01*
X835098Y559595D01*
X835635Y560132D01*
X836172D01*
X845303Y562280D01*
X853896Y563891D01*
X862489Y564428D01*
X870008Y564966D01*
X886121D01*
X894177Y563891D01*
X901159Y562817D01*
X908141Y561206D01*
X914049Y559595D01*
X918883Y558521D01*
X922643Y556909D01*
X924791Y556372D01*
X925865Y555835D01*
X932847Y552613D01*
X939292Y548853D01*
X945200Y544556D01*
X950034Y540797D01*
X954331Y537037D01*
X957553Y534352D01*
X959701Y532203D01*
X960238Y531666D01*
X962387Y529518D01*
X964535Y527370D01*
X965609Y525758D01*
X966146Y525221D01*
X968295Y523073D01*
X969906Y521462D01*
X970980Y520388D01*
X971517Y519851D01*
X973665Y520388D01*
X974740D01*
X975814Y520925D01*
X976351Y521462D01*
X978499Y524147D01*
X979036Y524684D01*
X979573Y525221D01*
X982259Y527907D01*
X982796Y528444D01*
X983333Y528981D01*
X989241Y534889D01*
X995686Y540260D01*
X1001594Y545093D01*
X1007502Y548853D01*
X1012336Y552076D01*
X1016095Y554224D01*
X1018243Y555298D01*
X1019317Y555835D01*
X1026837Y559058D01*
X1034356Y561206D01*
X1041875Y563354D01*
X1048320Y564428D01*
X1054228Y564966D01*
X1059062Y565503D01*
X1073563D01*
X1083767Y564428D01*
D02*
G37*
G36*
X423876Y391936D02*
X424891Y391702D01*
X425282Y391545D01*
X425594Y391467D01*
X425828Y391311D01*
X425906D01*
X426766Y390843D01*
X427469Y390374D01*
X428093Y389905D01*
X428562Y389358D01*
X428875Y388968D01*
X429109Y388577D01*
X429265Y388343D01*
X429343Y388265D01*
X429577Y387718D01*
X429656Y387328D01*
X429812Y387015D01*
Y386859D01*
Y386390D01*
X429656Y386000D01*
X429421Y385688D01*
X429343Y385610D01*
X429109Y385453D01*
X428562D01*
X428328Y385531D01*
X428250Y385610D01*
X427859Y386000D01*
X427547Y386312D01*
X427312Y386469D01*
X427234Y386547D01*
X426844Y386859D01*
X426453Y387094D01*
X426141Y387250D01*
X426063Y387328D01*
X425672Y387562D01*
X425282Y387796D01*
X424969Y387874D01*
X424891Y387953D01*
X424422Y388031D01*
X424110Y387953D01*
X423954Y387874D01*
X423876Y387796D01*
X423720Y387406D01*
X423642Y387094D01*
X423720Y386781D01*
Y386703D01*
X423954Y386234D01*
X424032Y386078D01*
Y386000D01*
X424344Y385610D01*
X424422Y385453D01*
X424501Y385375D01*
X425047Y384750D01*
X425516Y384126D01*
X425828Y383735D01*
X425985Y383657D01*
Y383579D01*
X426531Y382954D01*
X427000Y382329D01*
X427312Y381860D01*
X427469Y381782D01*
Y381704D01*
X428406Y380376D01*
X428796Y379752D01*
X429187Y379205D01*
X429499Y378736D01*
X429734Y378346D01*
X429890Y378111D01*
X429968Y378033D01*
X430827Y376706D01*
X431218Y376081D01*
X431608Y375534D01*
X431921Y375065D01*
X432155Y374675D01*
X432233Y374440D01*
X432311Y374362D01*
X432858Y373035D01*
X433092Y372410D01*
X433326Y371863D01*
X433483Y371394D01*
X433639Y371004D01*
X433717Y370770D01*
Y370691D01*
X434029Y369286D01*
X434186Y368661D01*
X434342Y368036D01*
X434420Y367567D01*
Y367177D01*
X434498Y366942D01*
Y366864D01*
X434420Y366552D01*
Y366239D01*
Y366083D01*
Y366005D01*
X434342Y365615D01*
Y365458D01*
Y365380D01*
X434186Y364599D01*
X433873Y363896D01*
X433483Y363271D01*
X433092Y362725D01*
X432780Y362334D01*
X432467Y362022D01*
X432233Y361866D01*
X432155Y361787D01*
X431374Y361397D01*
X430593Y361241D01*
X429890Y361163D01*
X429187Y361241D01*
X428562Y361319D01*
X428093Y361475D01*
X427781Y361553D01*
X427703Y361631D01*
X426844Y362100D01*
X426063Y362569D01*
X425360Y363037D01*
X424735Y363428D01*
X424266Y363818D01*
X423876Y364131D01*
X423642Y364365D01*
X423563Y364443D01*
X422314Y365693D01*
X421767Y366239D01*
X421220Y366786D01*
X420830Y367255D01*
X420517Y367645D01*
X420283Y367880D01*
X420205Y367958D01*
X420049Y368192D01*
X419971Y368504D01*
Y368739D01*
Y368817D01*
Y369207D01*
X420049Y369520D01*
X420127Y369598D01*
X420205Y369676D01*
X420361Y369832D01*
X420673Y369910D01*
X421376D01*
X421611Y369832D01*
X421767Y369754D01*
X421845D01*
X422314Y369442D01*
X422626Y369129D01*
X422860Y368895D01*
X422938Y368817D01*
X423329Y368426D01*
X423642Y368036D01*
X423876Y367723D01*
X423954Y367645D01*
X424579Y366942D01*
X425204Y366396D01*
X425594Y366005D01*
X425672Y365927D01*
X425750Y365849D01*
X426453Y365302D01*
X427156Y364990D01*
X427391Y364833D01*
X427625Y364755D01*
X427781Y364677D01*
X427859D01*
X428328Y364599D01*
X428640Y364521D01*
X429265Y364599D01*
X429577Y364677D01*
X429734Y364755D01*
X429968Y364990D01*
X430124Y365224D01*
X430202Y365849D01*
X430124Y366317D01*
Y366474D01*
Y366552D01*
X429968Y367255D01*
X429812Y367880D01*
X429734Y368270D01*
X429656Y368348D01*
Y368426D01*
X429421Y369129D01*
X429109Y369676D01*
X428953Y369989D01*
X428875Y370145D01*
X428093Y371473D01*
X427391Y372800D01*
X426688Y373972D01*
X426063Y375065D01*
X425516Y375924D01*
X425126Y376627D01*
X424813Y377096D01*
X424735Y377252D01*
X423954Y378580D01*
X423173Y379908D01*
X422548Y381079D01*
X421923Y382173D01*
X421376Y383110D01*
X420986Y383813D01*
X420752Y384282D01*
X420673Y384438D01*
X420283Y385141D01*
X419971Y385766D01*
X419814Y386234D01*
X419736Y386312D01*
Y386390D01*
X419424Y387172D01*
X419268Y387874D01*
X419111Y388421D01*
Y388499D01*
Y388577D01*
X419033Y389046D01*
Y389437D01*
X419189Y390140D01*
X419424Y390530D01*
X419502Y390686D01*
X420049Y391233D01*
X420673Y391623D01*
X421220Y391780D01*
X421376Y391858D01*
X421455D01*
X421923Y392014D01*
X422392Y392092D01*
X422782D01*
X423876Y391936D01*
D02*
G37*
G36*
X591177Y391389D02*
X592661Y391233D01*
X593988Y391077D01*
X595160Y390843D01*
X596097Y390530D01*
X596878Y390374D01*
X597347Y390218D01*
X597425Y390140D01*
X597503D01*
X598831Y389593D01*
X600003Y388968D01*
X601174Y388187D01*
X602111Y387484D01*
X602971Y386859D01*
X603517Y386312D01*
X603908Y385922D01*
X604064Y385766D01*
X604923Y384828D01*
X605704Y383891D01*
X606329Y382954D01*
X606954Y382017D01*
X607969Y380220D01*
X608672Y378580D01*
X609219Y377174D01*
X609375Y376627D01*
X609531Y376081D01*
X609609Y375690D01*
X609688Y375378D01*
X609766Y375221D01*
Y375143D01*
X609922Y373816D01*
X610000Y373191D01*
Y372566D01*
X610078Y372097D01*
Y371707D01*
Y371473D01*
Y371394D01*
X610000Y369910D01*
X609844Y368426D01*
X609688Y367020D01*
X609375Y365771D01*
X609141Y364756D01*
X608985Y363896D01*
X608907Y363584D01*
X608828Y363350D01*
X608750Y363271D01*
Y363193D01*
X608282Y361866D01*
X607735Y360616D01*
X607266Y359522D01*
X606720Y358507D01*
X606329Y357648D01*
X605938Y357023D01*
X605704Y356632D01*
X605626Y356476D01*
X604142Y354289D01*
X603439Y353274D01*
X602814Y352337D01*
X602189Y351556D01*
X601799Y351009D01*
X601487Y350619D01*
X601408Y350462D01*
X599690Y348275D01*
X597972Y346088D01*
X596410Y344136D01*
X594926Y342417D01*
X594223Y341636D01*
X593676Y341012D01*
X593129Y340387D01*
X592661Y339840D01*
X592270Y339449D01*
X592036Y339137D01*
X591880Y338981D01*
X591801Y338903D01*
X589927Y336872D01*
X588052Y334919D01*
X586256Y333045D01*
X584616Y331405D01*
X583913Y330702D01*
X583288Y330077D01*
X582663Y329530D01*
X582195Y329062D01*
X581804Y328671D01*
X581492Y328358D01*
X581335Y328202D01*
X581257Y328124D01*
X580398Y327343D01*
X579695Y326640D01*
X579383Y326406D01*
X579148Y326172D01*
X578992Y326093D01*
X578914Y326015D01*
X577977Y325312D01*
X577196Y324688D01*
X576884Y324453D01*
X576649Y324219D01*
X576493Y324141D01*
X576415Y324063D01*
X576102Y324219D01*
X575946Y324297D01*
X575712Y324531D01*
X575634Y324609D01*
X574306Y325781D01*
X572978Y326953D01*
X571807Y328046D01*
X570791Y329062D01*
X569932Y329921D01*
X569229Y330546D01*
X568839Y331014D01*
X568683Y331170D01*
X567433Y332498D01*
X566261Y333748D01*
X565168Y334919D01*
X564152Y336013D01*
X563371Y336950D01*
X562747Y337653D01*
X562356Y338122D01*
X562200Y338200D01*
Y338278D01*
X561341Y339371D01*
X560560Y340309D01*
X560247Y340699D01*
X560013Y341012D01*
X559857Y341168D01*
X559779Y341246D01*
X558919Y342417D01*
X558138Y343433D01*
X557904Y343823D01*
X557670Y344136D01*
X557592Y344370D01*
X557513Y344448D01*
X557123Y345073D01*
X556889Y345620D01*
X556732Y346166D01*
X556654Y346635D01*
Y347026D01*
Y347338D01*
X556732Y347494D01*
Y347572D01*
X556889Y348119D01*
X557123Y348666D01*
X557748Y349525D01*
X558060Y349837D01*
X558373Y350072D01*
X558529Y350228D01*
X558607Y350306D01*
X559310Y350853D01*
X559935Y351243D01*
X560638Y351556D01*
X561184Y351790D01*
X561731Y351946D01*
X562122Y352102D01*
X562356Y352181D01*
X562434D01*
X563996Y352337D01*
X564777Y352415D01*
X565402Y352337D01*
X566417D01*
X566730Y352259D01*
X566808D01*
X567511Y352102D01*
X568058Y351868D01*
X568448Y351712D01*
X568526Y351634D01*
X568604D01*
X569151Y351243D01*
X569542Y350697D01*
X569776Y350306D01*
X569854Y350228D01*
Y350150D01*
X570010Y349603D01*
X570088Y349213D01*
X570166Y348900D01*
Y348744D01*
X570088Y348275D01*
X569932Y347807D01*
X569776Y347494D01*
X569698Y347416D01*
X569307Y347026D01*
X568995Y346869D01*
X568683Y346791D01*
X568136D01*
X567667Y346869D01*
X567355Y346948D01*
X567277D01*
X566886Y347026D01*
X566574Y347104D01*
X566339Y347182D01*
X566261D01*
X565871Y347260D01*
X565480Y347338D01*
X565246Y347416D01*
X565168D01*
X564543Y347338D01*
X564074Y347104D01*
X563840Y346869D01*
X563762Y346791D01*
X563606Y346245D01*
Y345776D01*
Y345385D01*
X563684Y345307D01*
Y345229D01*
X563996Y344683D01*
X564309Y344214D01*
X565168Y343355D01*
X565636Y343042D01*
X565949Y342808D01*
X566183Y342652D01*
X566261Y342574D01*
X566964Y342183D01*
X567667Y341949D01*
X568292Y341793D01*
X568839Y341715D01*
X569307Y341636D01*
X569932D01*
X570635Y341793D01*
X571182Y341949D01*
X571729Y342261D01*
X572197Y342495D01*
X572588Y342730D01*
X572900Y342964D01*
X573056Y343120D01*
X573134Y343199D01*
X573603Y343745D01*
X573915Y344292D01*
X574228Y344761D01*
X574462Y345307D01*
X574618Y345776D01*
X574697Y346088D01*
X574775Y346323D01*
Y346401D01*
X574853Y347416D01*
Y348432D01*
Y349291D01*
X574775Y350150D01*
X574697Y350775D01*
X574540Y351243D01*
X574462Y351634D01*
Y351712D01*
X574150Y352649D01*
X573837Y353508D01*
X573447Y354289D01*
X573056Y354992D01*
X572744Y355539D01*
X572431Y356008D01*
X572275Y356320D01*
X572197Y356398D01*
X571885Y356789D01*
X571572Y357023D01*
X571338Y357179D01*
X570947D01*
X570557Y356945D01*
X570245Y356789D01*
X570166Y356711D01*
X569229Y356164D01*
X568370Y355695D01*
X567511Y355383D01*
X566730Y355149D01*
X566027Y355070D01*
X565558Y354992D01*
X565168Y354914D01*
X564152D01*
X563215Y355070D01*
X562278Y355227D01*
X561497Y355383D01*
X560794Y355617D01*
X560325Y355773D01*
X559935Y355852D01*
X559857Y355930D01*
X558997Y356398D01*
X558216Y356867D01*
X557748Y357257D01*
X557670Y357414D01*
X557592D01*
X557279Y357804D01*
X557045Y358195D01*
X556732Y359054D01*
Y359366D01*
X556654Y359679D01*
Y359835D01*
Y359913D01*
Y360460D01*
X556810Y360928D01*
X557045Y361709D01*
X557201Y361944D01*
X557357Y362178D01*
X557435Y362256D01*
X557513Y362334D01*
X558216Y362959D01*
X558841Y363506D01*
X559388Y363818D01*
X559466Y363974D01*
X559544D01*
X559700Y364053D01*
X559779D01*
X559857Y364131D01*
X559935D01*
X561341Y364677D01*
X562043Y364912D01*
X562668Y365068D01*
X563137Y365146D01*
X563606Y365224D01*
X563840Y365302D01*
X563918D01*
X565480Y365380D01*
X566183Y365302D01*
X566808D01*
X567355Y365224D01*
X567745Y365146D01*
X568058Y365068D01*
X568136D01*
X568604Y364990D01*
X569073Y364912D01*
X570010D01*
X570166Y365068D01*
X570323Y365302D01*
X570635Y365849D01*
X570869Y366396D01*
X570947Y366552D01*
Y366630D01*
X571260Y367723D01*
X571494Y368817D01*
X571650Y369832D01*
X571729Y370770D01*
X571807Y371551D01*
X571885Y372097D01*
Y372488D01*
Y372644D01*
X571807Y374831D01*
X571650Y375846D01*
X571494Y376706D01*
X571416Y377487D01*
X571260Y378111D01*
X571182Y378424D01*
Y378580D01*
X570635Y379986D01*
X570401Y380611D01*
X570088Y381157D01*
X569776Y381626D01*
X569620Y381939D01*
X569464Y382173D01*
X569385Y382251D01*
X568917Y382876D01*
X568370Y383344D01*
X567823Y383813D01*
X567355Y384204D01*
X566886Y384438D01*
X566496Y384672D01*
X566261Y384828D01*
X566183D01*
X565402Y385141D01*
X564699Y385375D01*
X563137Y385610D01*
X561731Y385688D01*
X560403Y385610D01*
X559232Y385375D01*
X558373Y385141D01*
X558060Y385063D01*
X557826Y384985D01*
X557670Y384907D01*
X557592D01*
X555951Y384204D01*
X554624Y383266D01*
X553530Y382329D01*
X552593Y381392D01*
X551968Y380533D01*
X551499Y379830D01*
X551265Y379283D01*
X551187Y379205D01*
Y379127D01*
X550953Y378580D01*
X550874Y378033D01*
X550796Y377018D01*
X550874Y376627D01*
Y376315D01*
X550953Y376159D01*
Y376081D01*
X551109Y375612D01*
X551421Y375143D01*
X551968Y374519D01*
X552437Y374128D01*
X552593Y373972D01*
X552671D01*
X553218Y373737D01*
X553686Y373581D01*
X554624Y373503D01*
X554936Y373581D01*
X555248D01*
X555405Y373659D01*
X555483D01*
X555951Y373894D01*
X556420Y374128D01*
X557201Y374753D01*
X557670Y375300D01*
X557748Y375456D01*
X557826Y375534D01*
X558138Y376003D01*
X558373Y376471D01*
X558607Y376784D01*
X558685Y376862D01*
X558997Y377330D01*
X559232Y377721D01*
X559466Y378033D01*
X559544Y378111D01*
X560169Y378736D01*
X560716Y379205D01*
X561184Y379439D01*
X561263Y379517D01*
X561341D01*
X562043Y379674D01*
X562747D01*
X563059Y379595D01*
X563293D01*
X563449Y379517D01*
X563527D01*
X564387Y379127D01*
X565090Y378658D01*
X565480Y378268D01*
X565636Y378190D01*
Y378111D01*
X566105Y377330D01*
X566417Y376549D01*
X566496Y376237D01*
Y375924D01*
X566574Y375768D01*
Y375690D01*
Y374753D01*
X566496Y373972D01*
X566417Y373659D01*
X566339Y373425D01*
X566261Y373269D01*
Y373191D01*
X565871Y372332D01*
X565480Y371629D01*
X565090Y371082D01*
X564933Y371004D01*
Y370926D01*
X563918Y369910D01*
X562903Y368973D01*
X561887Y368270D01*
X560950Y367723D01*
X560091Y367333D01*
X559466Y367020D01*
X559076Y366864D01*
X558919Y366786D01*
X557670Y366474D01*
X556342Y366318D01*
X555170Y366240D01*
X553999D01*
X553061Y366318D01*
X552280Y366396D01*
X552046D01*
X551812Y366474D01*
X551656D01*
X550172Y366864D01*
X548922Y367489D01*
X547828Y368114D01*
X546969Y368817D01*
X546266Y369520D01*
X545720Y370067D01*
X545407Y370457D01*
X545329Y370613D01*
X544704Y371941D01*
X544314Y373191D01*
X544079Y374440D01*
X544001Y375612D01*
X544079Y376549D01*
X544157Y377330D01*
X544236Y377565D01*
Y377799D01*
X544314Y377877D01*
Y377955D01*
X544626Y378971D01*
X544939Y379908D01*
X545329Y380767D01*
X545642Y381470D01*
X545954Y382095D01*
X546266Y382563D01*
X546423Y382876D01*
X546501Y382954D01*
X547672Y384594D01*
X548297Y385297D01*
X548922Y385844D01*
X549390Y386390D01*
X549781Y386781D01*
X550093Y387015D01*
X550172Y387094D01*
X551265Y387953D01*
X552359Y388734D01*
X553452Y389280D01*
X554467Y389827D01*
X555326Y390140D01*
X555951Y390452D01*
X556420Y390530D01*
X556498Y390608D01*
X556576D01*
X557904Y390921D01*
X559154Y391155D01*
X560403Y391233D01*
X561497Y391311D01*
X563840D01*
X565011Y391233D01*
X566105Y391077D01*
X567042Y390843D01*
X567901Y390608D01*
X568683Y390374D01*
X569229Y390140D01*
X569542Y390061D01*
X569698Y389983D01*
X570713Y389515D01*
X571650Y388968D01*
X572431Y388421D01*
X573213Y387796D01*
X573759Y387328D01*
X574228Y386937D01*
X574540Y386625D01*
X574618Y386547D01*
X574931Y386234D01*
X575243Y385922D01*
X575400Y385688D01*
X575478Y385610D01*
X575790Y385297D01*
X576024Y384985D01*
X576180Y384750D01*
X576259Y384672D01*
X576571Y384828D01*
X576727Y384907D01*
X576884Y384985D01*
X576962D01*
X577274Y385375D01*
X577352Y385531D01*
X577430D01*
X577821Y385922D01*
X577899Y386078D01*
X577977D01*
X578914Y387015D01*
X579851Y387796D01*
X580711Y388421D01*
X581492Y388968D01*
X582195Y389437D01*
X582741Y389749D01*
X583054Y389905D01*
X583210Y389983D01*
X584304Y390452D01*
X585397Y390843D01*
X586490Y391077D01*
X587506Y391233D01*
X588365Y391389D01*
X588990Y391467D01*
X589615D01*
X591177Y391389D01*
D02*
G37*
G36*
X491046Y387250D02*
X491515Y387094D01*
X491827Y386937D01*
X491905Y386859D01*
X492452Y386312D01*
X492921Y385766D01*
X493233Y385297D01*
X493311Y385141D01*
Y385063D01*
X493467Y384672D01*
X493545Y384360D01*
X493624Y383813D01*
X493545Y383501D01*
Y383423D01*
X493467Y383266D01*
X493311Y383110D01*
X493155Y383032D01*
X492530D01*
X491905Y383344D01*
X491358Y383657D01*
X490968Y383891D01*
X490890Y383969D01*
X490812D01*
X490187Y384360D01*
X489562Y384672D01*
X489172Y384907D01*
X489094Y384985D01*
X489015D01*
X488859Y385063D01*
X488781Y385219D01*
X488703Y385297D01*
Y385375D01*
X488547Y385688D01*
X488469Y385844D01*
X488703Y386156D01*
X488781Y386312D01*
X489015Y386625D01*
X489094Y386703D01*
X489172D01*
X489718Y387094D01*
X490109Y387250D01*
X490421Y387328D01*
X490578D01*
X491046Y387250D01*
D02*
G37*
G36*
X443558Y386703D02*
X443636D01*
X444105Y386547D01*
X444496Y386312D01*
X445042Y385766D01*
X445433Y385297D01*
X445511Y385141D01*
Y385063D01*
X445667Y384594D01*
X445823Y384126D01*
X445901Y383266D01*
Y382876D01*
X445823Y382563D01*
Y382407D01*
Y382329D01*
X444886Y382641D01*
X444105Y382954D01*
X443793Y383032D01*
X443558Y383188D01*
X443480Y383266D01*
X443402D01*
X442621Y383813D01*
X441996Y384204D01*
X441527Y384516D01*
X441449Y384672D01*
X441371D01*
X441293Y384750D01*
X441215Y384907D01*
Y385063D01*
Y385141D01*
Y385610D01*
X441293Y385688D01*
Y385766D01*
X441606Y386156D01*
X441918Y386390D01*
X442152Y386547D01*
X442309Y386625D01*
X442855Y386703D01*
X443246Y386781D01*
X443558Y386703D01*
D02*
G37*
G36*
X442621Y380845D02*
X442777Y380689D01*
X442933Y380611D01*
X443246Y380533D01*
X443324Y380454D01*
X443402D01*
X445355Y379439D01*
X446292Y378970D01*
X447073Y378502D01*
X447776Y378111D01*
X448245Y377799D01*
X448557Y377643D01*
X448713Y377565D01*
X449729Y377096D01*
X450744Y376706D01*
X451681Y376471D01*
X452618Y376237D01*
X453400Y376159D01*
X453946Y376081D01*
X454493D01*
X454883Y376003D01*
X455118Y375846D01*
X455274Y375690D01*
Y375612D01*
X455352Y375300D01*
X455274Y375065D01*
X455196Y374909D01*
Y374831D01*
X454649Y374362D01*
X454493Y374206D01*
X454415Y374128D01*
X453868Y373816D01*
X453634Y373659D01*
X453556D01*
X453165Y373581D01*
X452384D01*
X451916Y373659D01*
X450978D01*
X451213Y373035D01*
X451447Y372566D01*
X451603Y372253D01*
X451681Y372097D01*
X451916Y371629D01*
X452150Y371160D01*
X452228Y370848D01*
X452306Y370770D01*
X452696Y369989D01*
X453009Y369286D01*
X453243Y368739D01*
X453321Y368661D01*
Y368583D01*
X453712Y367802D01*
X453946Y367099D01*
X454102Y366552D01*
X454180Y366474D01*
Y366396D01*
X454337Y365458D01*
X454415Y364599D01*
X454259Y363896D01*
X454102Y363271D01*
X453868Y362725D01*
X453634Y362412D01*
X453478Y362178D01*
X453400Y362100D01*
X452775Y361553D01*
X452150Y361241D01*
X451447Y361006D01*
X450744Y360850D01*
X449182D01*
X448869Y360928D01*
X448557Y361006D01*
X448323Y361085D01*
X448245D01*
X447932Y361241D01*
X447620Y361319D01*
X447385Y361475D01*
X447307D01*
X446058Y362256D01*
X445511Y362647D01*
X444964Y363037D01*
X444574Y363349D01*
X444261Y363584D01*
X444105Y363740D01*
X444027Y363818D01*
X443012Y364833D01*
X442230Y365771D01*
X441918Y366161D01*
X441684Y366474D01*
X441527Y366708D01*
X441449Y366786D01*
X441059Y367333D01*
X440981Y367489D01*
Y367567D01*
Y367958D01*
X441059Y368348D01*
X441215Y368661D01*
X441293Y368817D01*
X441840Y368348D01*
X441996Y368270D01*
X442074Y368192D01*
X442543Y367802D01*
X442699Y367645D01*
X442777Y367567D01*
X443558Y366864D01*
X444261Y366239D01*
X444730Y365771D01*
X444808Y365693D01*
X444886Y365615D01*
X445667Y364990D01*
X446292Y364365D01*
X446839Y363974D01*
X446917Y363896D01*
X446995Y363818D01*
X447385Y363506D01*
X447854Y363271D01*
X448088Y363115D01*
X448245Y363037D01*
X448479Y362959D01*
X448713Y362881D01*
X449182Y362959D01*
X449572Y363115D01*
X449650Y363193D01*
X449729D01*
X450041Y363506D01*
X450197Y363896D01*
X450275Y364131D01*
Y364287D01*
Y364912D01*
X450119Y365458D01*
X449963Y365927D01*
X449885Y366005D01*
Y366083D01*
X449729Y366552D01*
X449494Y366942D01*
X449416Y367177D01*
X449338Y367255D01*
X449182Y367723D01*
X448947Y368114D01*
X448869Y368348D01*
X448791Y368426D01*
X448245Y369442D01*
X447776Y370379D01*
X447620Y370691D01*
X447463Y371004D01*
X447307Y371160D01*
Y371238D01*
X446760Y372253D01*
X446292Y373191D01*
X446058Y373503D01*
X445979Y373816D01*
X445823Y373972D01*
Y374050D01*
X445198Y375221D01*
X444652Y376315D01*
X444417Y376706D01*
X444261Y377018D01*
X444105Y377252D01*
Y377330D01*
X443480Y378658D01*
X443168Y379205D01*
X442855Y379752D01*
X442621Y380220D01*
X442465Y380611D01*
X442387Y380845D01*
X442309Y380923D01*
X442621Y380845D01*
D02*
G37*
G36*
X509010Y390843D02*
X509323Y390764D01*
X509557D01*
X509713Y390686D01*
X509791D01*
X512212Y389905D01*
X514399Y388968D01*
X516430Y388031D01*
X518148Y387094D01*
X518852Y386625D01*
X519554Y386156D01*
X520101Y385844D01*
X520570Y385453D01*
X520960Y385219D01*
X521273Y384985D01*
X521429Y384907D01*
X521507Y384828D01*
X523303Y383266D01*
X524865Y381548D01*
X526193Y379908D01*
X527365Y378268D01*
X528302Y376784D01*
X528615Y376159D01*
X528927Y375612D01*
X529161Y375221D01*
X529318Y374909D01*
X529474Y374675D01*
Y374597D01*
X529864Y373503D01*
X530255Y372566D01*
X530411Y371551D01*
X530567Y370691D01*
X530645Y369051D01*
X530567Y367645D01*
X530333Y366474D01*
X530177Y366083D01*
X530020Y365693D01*
X529942Y365380D01*
X529786Y365146D01*
X529708Y365068D01*
Y364990D01*
X529161Y364287D01*
X528615Y363740D01*
X527287Y362803D01*
X525803Y362100D01*
X524397Y361631D01*
X523069Y361319D01*
X522444Y361241D01*
X521976Y361163D01*
X521585Y361085D01*
X520960D01*
X520257Y361163D01*
X519632Y361241D01*
X519164Y361319D01*
X519008D01*
X518305Y361397D01*
X517680Y361553D01*
X517289Y361631D01*
X517133Y361709D01*
X515649Y362256D01*
X515024Y362569D01*
X514478Y362881D01*
X514009Y363115D01*
X513618Y363349D01*
X513384Y363428D01*
X513306Y363506D01*
X512759Y363974D01*
X512212Y364521D01*
X511822Y364990D01*
X511510Y365536D01*
X511197Y366005D01*
X511041Y366396D01*
X510885Y366708D01*
Y366786D01*
X510650Y367645D01*
Y368348D01*
Y368661D01*
Y368895D01*
Y368973D01*
Y369051D01*
X510728Y369442D01*
X510885Y369832D01*
X511197Y370457D01*
X511588Y370848D01*
X511666Y371004D01*
X511744D01*
X512134Y371316D01*
X512447Y371629D01*
X513150Y371941D01*
X513618Y372175D01*
X514712D01*
X515493Y372019D01*
X515805D01*
X516040Y371941D01*
X516196Y371863D01*
X516274D01*
X517133Y371473D01*
X517758Y371082D01*
X518227Y370848D01*
X518305Y370691D01*
X518383D01*
X518930Y370067D01*
X519242Y369364D01*
X519320Y369051D01*
Y368817D01*
X519398Y368661D01*
Y368583D01*
Y367880D01*
X519320Y367411D01*
X519242Y367099D01*
X519164Y367020D01*
X518852Y366630D01*
X518461Y366396D01*
X518148Y366239D01*
X517992D01*
X517368Y366161D01*
X516899D01*
X516586Y366239D01*
X516508Y366317D01*
X516118Y366630D01*
X515805Y367020D01*
X515649Y367333D01*
X515571Y367489D01*
X515337Y367958D01*
X515259Y368114D01*
Y368192D01*
X515102Y368661D01*
X514946Y368739D01*
Y368817D01*
X514790Y368973D01*
X514634Y369051D01*
X514478Y369129D01*
X514399D01*
X514165Y369207D01*
X514009D01*
X513853Y369129D01*
X513697Y369051D01*
X513540Y368895D01*
X513462Y368817D01*
Y368739D01*
X513384Y368504D01*
Y368270D01*
Y368192D01*
Y368114D01*
X513462Y367645D01*
X513540Y367489D01*
Y367411D01*
X513775Y366942D01*
X513853Y366786D01*
Y366708D01*
X514321Y366005D01*
X514868Y365458D01*
X515493Y364912D01*
X516118Y364521D01*
X516665Y364209D01*
X517133Y363974D01*
X517446Y363896D01*
X517524Y363818D01*
X518461Y363506D01*
X519320Y363349D01*
X520101Y363271D01*
X520726D01*
X521351Y363349D01*
X521741Y363428D01*
X522054Y363506D01*
X522132D01*
X523147Y363974D01*
X523850Y364443D01*
X524319Y364833D01*
X524397Y364912D01*
X524475Y364990D01*
X524944Y365927D01*
X525256Y366786D01*
X525334Y367177D01*
X525412Y367489D01*
Y367645D01*
Y367723D01*
Y368817D01*
X525334Y369832D01*
X525256Y370145D01*
Y370457D01*
X525178Y370613D01*
Y370691D01*
X524865Y371707D01*
X524553Y372566D01*
X524397Y372957D01*
X524241Y373191D01*
X524163Y373347D01*
Y373425D01*
X523147Y375300D01*
X522679Y376159D01*
X522210Y376862D01*
X521819Y377486D01*
X521507Y378033D01*
X521351Y378346D01*
X521273Y378424D01*
X520023Y380142D01*
X519398Y380923D01*
X518852Y381626D01*
X518305Y382173D01*
X517914Y382563D01*
X517680Y382876D01*
X517602Y382954D01*
X516352Y384204D01*
X515805Y384750D01*
X515259Y385219D01*
X514790Y385610D01*
X514399Y385922D01*
X514165Y386078D01*
X514087Y386156D01*
X512681Y387094D01*
X511978Y387484D01*
X511275Y387796D01*
X510728Y388109D01*
X510338Y388265D01*
X510026Y388421D01*
X509948D01*
X509479Y388577D01*
X509010Y388656D01*
X508698Y388734D01*
X508620D01*
X508073Y388812D01*
X507682Y388890D01*
X507214D01*
X506745Y388812D01*
X506355Y388734D01*
X506120Y388577D01*
X506042Y388499D01*
X505730Y388109D01*
X505574Y387718D01*
X505495Y387406D01*
Y387328D01*
Y387250D01*
Y386781D01*
X505574Y386312D01*
X505886Y385453D01*
X506120Y385063D01*
X506277Y384828D01*
X506355Y384672D01*
X506433Y384594D01*
X506823Y384126D01*
X507214Y383735D01*
X507604Y383423D01*
X507995Y383266D01*
X508307Y383110D01*
X508542Y383032D01*
X508698Y382954D01*
X509791D01*
X510104Y383110D01*
X510260Y383423D01*
X510338Y383735D01*
Y383891D01*
X510416Y384204D01*
X510494Y384360D01*
X510650Y384672D01*
X510885Y384750D01*
X511744D01*
X511978Y384672D01*
X512056D01*
X512447Y384516D01*
X512759Y384204D01*
X512915Y383969D01*
X512994Y383891D01*
X513150Y383423D01*
X513072Y383032D01*
Y382720D01*
X512994Y382641D01*
X512525Y382017D01*
X512134Y381548D01*
X511822Y381236D01*
X511666Y381157D01*
X511041Y380845D01*
X510416Y380689D01*
X509869Y380611D01*
X509713D01*
X508620Y380689D01*
X507604Y380923D01*
X506745Y381236D01*
X505964Y381704D01*
X505339Y382095D01*
X504949Y382485D01*
X504636Y382720D01*
X504558Y382798D01*
X503855Y383657D01*
X503309Y384438D01*
X502840Y385141D01*
X502528Y385766D01*
X502293Y386312D01*
X502137Y386781D01*
X502059Y387015D01*
Y387094D01*
X501981Y387562D01*
Y387953D01*
X502137Y388656D01*
X502371Y389124D01*
X502449Y389202D01*
Y389280D01*
X502996Y389905D01*
X503621Y390296D01*
X504168Y390452D01*
X504324Y390530D01*
X504402D01*
X505417Y390686D01*
X506277Y390764D01*
X506589D01*
X506901Y390843D01*
X507136D01*
X508151Y390921D01*
X509010Y390843D01*
D02*
G37*
G36*
X490343Y381157D02*
X490812Y380923D01*
X491202Y380767D01*
X491280Y380689D01*
X491749Y380454D01*
X492140Y380220D01*
X492452Y380064D01*
X492530Y379986D01*
X494170Y379127D01*
X494873Y378736D01*
X495576Y378424D01*
X496123Y378111D01*
X496591Y377877D01*
X496904Y377799D01*
X496982Y377721D01*
X497841Y377330D01*
X498622Y377096D01*
X499481Y376862D01*
X500184Y376784D01*
X500887Y376706D01*
X501356Y376627D01*
X501825D01*
X502215Y376549D01*
X502528Y376315D01*
X502684Y376081D01*
Y376003D01*
X502762Y375612D01*
X502606Y375221D01*
X502449Y374987D01*
X502371Y374909D01*
X501825Y374597D01*
X501590Y374519D01*
X501512Y374440D01*
X501122Y374284D01*
X500809Y374206D01*
X500575Y374128D01*
X500497D01*
X500184Y374050D01*
X498310D01*
X498778Y373191D01*
X499091Y372488D01*
X499403Y372019D01*
X499481Y371941D01*
Y371863D01*
X499872Y371082D01*
X500184Y370457D01*
X500419Y369989D01*
X500497Y369910D01*
Y369832D01*
X500731Y369129D01*
X500965Y368504D01*
X501122Y368036D01*
X501200Y367958D01*
Y367880D01*
X501434Y367177D01*
X501590Y366552D01*
X501746Y366083D01*
Y366005D01*
Y365927D01*
Y364912D01*
X501668Y364131D01*
X501590Y363818D01*
X501512Y363584D01*
X501434Y363428D01*
Y363349D01*
X500887Y362647D01*
X500341Y362178D01*
X499872Y361866D01*
X499794Y361787D01*
X499716D01*
X498857Y361553D01*
X498154Y361397D01*
X497841Y361319D01*
X497373D01*
X496513Y361397D01*
X495811Y361553D01*
X495498Y361631D01*
X495264Y361709D01*
X495186Y361787D01*
X495107D01*
X494327Y362178D01*
X493624Y362647D01*
X493077Y363037D01*
X492530Y363428D01*
X492061Y363740D01*
X491749Y364053D01*
X491593Y364209D01*
X491515Y364287D01*
X490343Y365458D01*
X489406Y366552D01*
X489015Y366942D01*
X488781Y367333D01*
X488625Y367567D01*
X488547Y367645D01*
X488312Y368114D01*
X488234Y368270D01*
Y368348D01*
X488312Y368661D01*
X488469Y368973D01*
X488703Y369207D01*
X488781Y369286D01*
X489328Y368817D01*
X489484Y368661D01*
X489562Y368583D01*
X490109Y368114D01*
X490265Y367958D01*
X490343Y367880D01*
X491046Y367255D01*
X491671Y366630D01*
X492140Y366239D01*
X492218Y366161D01*
X492296Y366083D01*
X493077Y365458D01*
X493702Y364912D01*
X494170Y364521D01*
X494248Y364365D01*
X494327D01*
X494795Y364053D01*
X495186Y363818D01*
X495498Y363662D01*
X495576Y363584D01*
X495811Y363506D01*
X496123Y363428D01*
X496591Y363506D01*
X496982Y363584D01*
X497060Y363662D01*
X497138D01*
X497451Y363974D01*
X497607Y364365D01*
X497685Y364677D01*
Y364755D01*
X497607Y365380D01*
X497451Y366005D01*
X497295Y366474D01*
X497216Y366552D01*
Y366630D01*
X497060Y367099D01*
X496826Y367489D01*
X496748Y367723D01*
X496670Y367802D01*
X496513Y368270D01*
X496279Y368661D01*
X496201Y368895D01*
X496123Y368973D01*
X495576Y370067D01*
X495029Y371004D01*
X494873Y371316D01*
X494717Y371629D01*
X494561Y371785D01*
Y371863D01*
X494014Y372878D01*
X493545Y373816D01*
X493311Y374128D01*
X493233Y374440D01*
X493077Y374597D01*
Y374675D01*
X492452Y375846D01*
X491983Y376940D01*
X491749Y377330D01*
X491671Y377643D01*
X491515Y377877D01*
Y377955D01*
X490890Y379205D01*
X490265Y380298D01*
X490031Y380767D01*
X489874Y381157D01*
X489796Y381392D01*
X489718Y381470D01*
X490343Y381157D01*
D02*
G37*
G36*
X474175Y381079D02*
X474332Y381001D01*
X474410D01*
X475659Y380220D01*
X476675Y379439D01*
X477143Y379205D01*
X477456Y378970D01*
X477690Y378814D01*
X477768Y378736D01*
X478940Y377955D01*
X480033Y377174D01*
X480424Y376940D01*
X480736Y376706D01*
X480970Y376549D01*
X481049Y376471D01*
Y376393D01*
Y376315D01*
Y376081D01*
Y376003D01*
Y375924D01*
X480658Y376003D01*
X480268D01*
X479955Y376081D01*
X479408D01*
X478940Y376159D01*
X478471D01*
X478627Y375768D01*
X478784Y375456D01*
X478862Y375300D01*
X478940Y375221D01*
X479174Y374753D01*
X479252Y374597D01*
X479330Y374519D01*
X479799Y373503D01*
X480268Y372644D01*
X480424Y372253D01*
X480580Y372019D01*
X480658Y371863D01*
Y371785D01*
X481127Y370770D01*
X481595Y369910D01*
X481752Y369598D01*
X481908Y369286D01*
X481986Y369129D01*
Y369051D01*
X482298Y368270D01*
X482533Y367645D01*
X482689Y367099D01*
X482767Y367020D01*
Y366942D01*
X482845Y366161D01*
X482923Y365458D01*
X482845Y364912D01*
Y364833D01*
Y364755D01*
X482689Y363818D01*
X482454Y363115D01*
X482220Y362725D01*
X482142Y362569D01*
X481908Y362334D01*
X481674Y362100D01*
X481049Y361787D01*
X480502Y361631D01*
X480346Y361553D01*
X480268D01*
X479252Y361397D01*
X478315Y361319D01*
X477456D01*
X476675Y361397D01*
X476050Y361475D01*
X475581Y361631D01*
X475269Y361709D01*
X475191D01*
X474332Y362022D01*
X473473Y362412D01*
X472770Y362803D01*
X472067Y363193D01*
X471598Y363584D01*
X471129Y363896D01*
X470895Y364131D01*
X470817Y364209D01*
X470114Y364755D01*
X469489Y365302D01*
X469099Y365771D01*
X469021Y365849D01*
X468942Y365927D01*
X468317Y366630D01*
X467771Y367255D01*
X467380Y367723D01*
X467224Y367802D01*
Y367880D01*
X466833Y368270D01*
X466521Y368504D01*
X466287Y368583D01*
X466209Y368661D01*
X465740Y368739D01*
X465271Y368817D01*
X464959Y368739D01*
X464803D01*
X464256Y368661D01*
X463787D01*
X463006Y368739D01*
X462694Y368817D01*
X462460Y368895D01*
X462303Y368973D01*
X462225D01*
X461366Y369520D01*
X460741Y370067D01*
X460273Y370535D01*
X460195Y370691D01*
X460117Y370770D01*
X460898Y370926D01*
X461600D01*
X462069Y370848D01*
X462147Y370770D01*
X462225D01*
X462616Y370691D01*
X463006D01*
X463631Y370848D01*
X464100Y371082D01*
X464178Y371238D01*
X464256D01*
X464022Y371863D01*
X463787Y372410D01*
X463709Y372800D01*
X463631Y372957D01*
X463397Y373581D01*
X463241Y374050D01*
X463084Y374440D01*
Y374597D01*
X462928Y375221D01*
X462772Y375690D01*
X462694Y376081D01*
Y376237D01*
X462616Y376862D01*
X462538Y377408D01*
Y377799D01*
Y377955D01*
Y378580D01*
X462616Y379127D01*
X462694Y379439D01*
Y379595D01*
X463006Y380064D01*
X463397Y380454D01*
X463709Y380689D01*
X463787Y380767D01*
X463866D01*
X464412Y380923D01*
X464881D01*
X465193Y380845D01*
X465350Y380767D01*
X465818Y380533D01*
X466209Y380298D01*
X466521Y380064D01*
X466599Y379986D01*
X467224Y379439D01*
X467771Y378814D01*
X468239Y378268D01*
X468552Y377721D01*
X468786Y377252D01*
X468942Y376862D01*
X469021Y376627D01*
Y376549D01*
X469177Y375846D01*
Y375143D01*
Y374440D01*
Y373816D01*
X469099Y373269D01*
X469021Y372878D01*
X468942Y372566D01*
Y372488D01*
X468864Y372019D01*
X468786Y371551D01*
Y371238D01*
Y371160D01*
X468864Y370770D01*
X469021Y370379D01*
X469177Y370067D01*
X469255Y369989D01*
X470426Y368583D01*
X471051Y367958D01*
X471598Y367411D01*
X472067Y367020D01*
X472457Y366708D01*
X472691Y366474D01*
X472770Y366396D01*
X474254Y365302D01*
X474957Y364755D01*
X475581Y364365D01*
X476050Y363974D01*
X476440Y363662D01*
X476753Y363506D01*
X476831Y363428D01*
X476909Y363349D01*
X476987D01*
X477065Y363271D01*
X477534Y363193D01*
X477924Y363271D01*
X478159Y363349D01*
X478237Y363428D01*
X478549Y363740D01*
X478705Y364131D01*
Y364443D01*
Y364599D01*
X478627Y364990D01*
Y365146D01*
Y365224D01*
X478549Y365771D01*
X478471Y365927D01*
Y366005D01*
X478081Y367020D01*
X477690Y367802D01*
X477612Y368192D01*
X477456Y368426D01*
X477378Y368583D01*
Y368661D01*
X476987Y369676D01*
X476597Y370535D01*
X476440Y370926D01*
X476284Y371160D01*
X476206Y371316D01*
Y371394D01*
X475503Y372878D01*
X475191Y373581D01*
X474878Y374128D01*
X474644Y374675D01*
X474488Y375065D01*
X474410Y375300D01*
X474332Y375378D01*
X473629Y376862D01*
X473316Y377565D01*
X473082Y378190D01*
X472848Y378658D01*
X472691Y379127D01*
X472535Y379361D01*
Y379439D01*
Y379986D01*
Y380142D01*
Y380220D01*
X472613Y380533D01*
X472691Y380767D01*
X472770Y380923D01*
X472848D01*
X473082Y381079D01*
X473316Y381157D01*
X473941D01*
X474175Y381079D01*
D02*
G37*
G36*
X509479Y354367D02*
X510494Y354211D01*
X510885Y354055D01*
X511197Y353977D01*
X511353Y353899D01*
X511432D01*
X512369Y353352D01*
X513150Y352805D01*
X513462Y352493D01*
X513697Y352337D01*
X513853Y352180D01*
X513931Y352102D01*
X514243Y351712D01*
X514478Y351399D01*
X514634Y351165D01*
X514712Y351087D01*
X514946Y350696D01*
X515181Y350306D01*
X515259Y349994D01*
X515337Y349916D01*
X515493Y349525D01*
X515571Y349134D01*
Y348822D01*
Y348744D01*
X515493Y348353D01*
X515259Y348041D01*
X515024Y347885D01*
X514946Y347807D01*
X514712D01*
X514399Y347885D01*
X514165Y347963D01*
X514087Y348041D01*
X513697Y348197D01*
X513384Y348432D01*
X513228Y348510D01*
X513150Y348588D01*
X512759Y348900D01*
X512603Y348978D01*
Y349056D01*
X512212Y349447D01*
X512134Y349603D01*
X512056D01*
X511588Y349916D01*
X511432Y349994D01*
X511353D01*
X510807Y350228D01*
X510650Y350306D01*
X510572D01*
X510104Y350384D01*
X509791Y350306D01*
X509635Y350228D01*
X509557Y350150D01*
X509323Y349837D01*
Y349447D01*
Y349212D01*
Y349056D01*
X509557Y348510D01*
X509635Y348353D01*
X509713Y348275D01*
X510026Y347807D01*
X510104Y347650D01*
X510182Y347572D01*
X510728Y346869D01*
X511197Y346323D01*
X511510Y345854D01*
X511666Y345776D01*
Y345698D01*
X512134Y345073D01*
X512603Y344448D01*
X512915Y344058D01*
X512994Y343979D01*
Y343901D01*
X513931Y342495D01*
X514399Y341793D01*
X514790Y341246D01*
X515181Y340699D01*
X515415Y340309D01*
X515571Y340074D01*
X515649Y339996D01*
X516586Y338590D01*
X517055Y337965D01*
X517368Y337341D01*
X517680Y336872D01*
X517914Y336403D01*
X518070Y336169D01*
X518148Y336091D01*
X518852Y334763D01*
X519086Y334060D01*
X519320Y333513D01*
X519476Y332967D01*
X519632Y332576D01*
X519711Y332342D01*
Y332264D01*
X520101Y330858D01*
X520257Y330155D01*
X520336Y329608D01*
X520414Y329061D01*
X520492Y328671D01*
X520570Y328437D01*
Y328358D01*
X520414Y327187D01*
X520179Y326172D01*
X519789Y325234D01*
X519398Y324531D01*
X518930Y323985D01*
X518617Y323516D01*
X518305Y323282D01*
X518227Y323204D01*
X517758Y322891D01*
X517289Y322735D01*
X516274Y322501D01*
X515337D01*
X514399Y322657D01*
X513540Y322891D01*
X512915Y323125D01*
X512447Y323360D01*
X512291Y323438D01*
X510963Y324297D01*
X510338Y324688D01*
X509869Y325078D01*
X509479Y325469D01*
X509088Y325703D01*
X508932Y325859D01*
X508854Y325937D01*
X507682Y327109D01*
X506667Y328124D01*
X506277Y328515D01*
X505964Y328827D01*
X505808Y329061D01*
X505730Y329140D01*
X505495Y329530D01*
X505261Y329842D01*
X505183Y330077D01*
X505105Y330155D01*
Y330545D01*
X505261Y330936D01*
X505417Y331170D01*
X505495Y331248D01*
X505886Y331561D01*
X506277Y331639D01*
X506667D01*
X507136Y331483D01*
X507448Y331248D01*
X507761Y331092D01*
X507839Y331014D01*
X508151Y330624D01*
X508464Y330311D01*
X508698Y330077D01*
X508776Y329999D01*
X509166Y329608D01*
X509479Y329296D01*
X509635Y329061D01*
X509713Y328983D01*
X510416Y328280D01*
X510963Y327656D01*
X511432Y327265D01*
X511510Y327187D01*
X511588Y327109D01*
X512291Y326562D01*
X512994Y326172D01*
X513306Y326093D01*
X513540Y326015D01*
X513697Y325937D01*
X513775D01*
X514556Y325859D01*
X515102D01*
X515415Y325937D01*
X515493Y326015D01*
X515805Y326484D01*
X515962Y326953D01*
Y327421D01*
Y327499D01*
Y327577D01*
X515805Y328280D01*
X515727Y328905D01*
X515571Y329374D01*
Y329452D01*
Y329530D01*
X515337Y330233D01*
X515024Y330780D01*
X514868Y331170D01*
X514790Y331326D01*
X514009Y332732D01*
X513306Y334060D01*
X512603Y335310D01*
X511978Y336403D01*
X511432Y337341D01*
X511041Y338122D01*
X510728Y338590D01*
X510650Y338668D01*
Y338746D01*
X509869Y340152D01*
X509088Y341480D01*
X508307Y342652D01*
X507682Y343823D01*
X507136Y344761D01*
X506745Y345463D01*
X506433Y345932D01*
X506355Y346010D01*
Y346088D01*
X506042Y346713D01*
X505730Y347260D01*
X505495Y347650D01*
X505417Y347807D01*
X505105Y348432D01*
X504871Y349056D01*
X504715Y349447D01*
X504636Y349525D01*
Y349603D01*
X504402Y350384D01*
X504324Y351087D01*
X504402Y351712D01*
X504480Y352259D01*
X504636Y352649D01*
X504793Y352962D01*
X504871Y353118D01*
X504949Y353196D01*
X505417Y353665D01*
X505886Y353977D01*
X506511Y354211D01*
X507058Y354367D01*
X507526Y354446D01*
X507995Y354524D01*
X508385D01*
X509479Y354367D01*
D02*
G37*
G36*
X383808Y352415D02*
X384433Y351946D01*
X384980Y351478D01*
X385448Y351165D01*
X385839Y350931D01*
X386073Y350775D01*
X386151Y350696D01*
X387479Y349759D01*
X388104Y349291D01*
X388650Y348900D01*
X389041Y348510D01*
X389431Y348275D01*
X389666Y348119D01*
X389744Y348041D01*
X389275Y347885D01*
X388963Y347807D01*
X388728Y347729D01*
X388650D01*
X388260Y347650D01*
X387948Y347494D01*
X387713Y347416D01*
X387635D01*
X388104Y346791D01*
X388494Y346323D01*
X388807Y346010D01*
X388885Y345854D01*
X389353Y345307D01*
X389666Y344839D01*
X389978Y344526D01*
X390056Y344448D01*
X389978Y344370D01*
X389900D01*
X389822Y344292D01*
Y344214D01*
X388338Y344995D01*
X387713Y345385D01*
X387088Y345776D01*
X386620Y346088D01*
X386151Y346245D01*
X385917Y346401D01*
X385839Y346479D01*
X384355Y347338D01*
X383652Y347729D01*
X383027Y348119D01*
X382480Y348432D01*
X382090Y348666D01*
X381777Y348822D01*
X381699Y348900D01*
X382246Y348978D01*
X382636Y349056D01*
X382871Y349134D01*
X382949D01*
X383339Y349212D01*
X383652Y349291D01*
X383964Y349369D01*
X384042D01*
X383730Y350072D01*
X383417Y350696D01*
X383261Y351165D01*
X383183Y351243D01*
Y351321D01*
X382871Y352024D01*
X382636Y352727D01*
X382480Y353274D01*
X382402Y353352D01*
Y353430D01*
X383808Y352415D01*
D02*
G37*
G36*
X416065Y342027D02*
X416143Y341949D01*
X416378Y341715D01*
X416456Y341636D01*
X417627Y340543D01*
X418721Y339684D01*
X419111Y339371D01*
X419502Y339137D01*
X419736Y339059D01*
X419814Y338981D01*
X421142Y338278D01*
X421767Y337965D01*
X422314Y337731D01*
X422782Y337419D01*
X423173Y337262D01*
X423407Y337184D01*
X423485Y337106D01*
X423798Y336950D01*
X423876Y336872D01*
X424110Y336716D01*
X424188Y336638D01*
X424110Y336559D01*
Y336481D01*
Y336403D01*
Y336325D01*
X423251Y336559D01*
X422548Y336716D01*
X422236Y336794D01*
X422001Y336872D01*
X421845D01*
X420986Y337106D01*
X420127Y337341D01*
X419814Y337419D01*
X419502D01*
X419346Y337497D01*
X419268D01*
X420127Y336091D01*
X420830Y334763D01*
X421533Y333513D01*
X422158Y332420D01*
X422704Y331483D01*
X423095Y330780D01*
X423329Y330311D01*
X423407Y330233D01*
Y330155D01*
X424110Y328827D01*
X424813Y327499D01*
X425438Y326328D01*
X425985Y325234D01*
X426453Y324297D01*
X426766Y323594D01*
X427000Y323125D01*
X427078Y323047D01*
Y322969D01*
X426141Y322891D01*
X424813D01*
X424344Y322969D01*
X424032Y323047D01*
X423798D01*
X423642Y323125D01*
X423329Y323282D01*
X423017Y323594D01*
X422470Y324375D01*
X422314Y324766D01*
X422158Y325078D01*
X422001Y325312D01*
Y325391D01*
X421298Y326875D01*
X420595Y328202D01*
X419814Y329374D01*
X419111Y330389D01*
X418487Y331248D01*
X417940Y331873D01*
X417627Y332264D01*
X417471Y332420D01*
X416378Y333513D01*
X415284Y334451D01*
X414269Y335310D01*
X413254Y336091D01*
X412394Y336794D01*
X411769Y337262D01*
X411301Y337575D01*
X411145Y337653D01*
X410754Y337887D01*
X410364Y338044D01*
X410051Y338200D01*
X409973D01*
X409505Y338356D01*
X409114Y338512D01*
X408801Y338668D01*
X408723D01*
X408411Y338746D01*
X408099D01*
X407864Y338668D01*
X407786D01*
X407474Y338512D01*
X407239Y338278D01*
X407161Y338044D01*
X407083Y337965D01*
X406927Y337497D01*
Y337262D01*
Y337184D01*
Y336872D01*
X407005Y336638D01*
X407083Y336481D01*
Y336403D01*
X407239Y336091D01*
X407474Y335935D01*
X407708D01*
X408255Y336013D01*
X408489Y336091D01*
X409270D01*
X409895Y336013D01*
X410207Y335935D01*
X410364Y335857D01*
X410754Y335544D01*
X410989Y335232D01*
X411067Y334919D01*
Y334841D01*
X410989Y334216D01*
X410832Y333748D01*
X410598Y333435D01*
X410520Y333357D01*
X409973Y332967D01*
X409426Y332732D01*
X409036Y332576D01*
X408099D01*
X407630Y332654D01*
X407474Y332732D01*
X407396D01*
X406849Y332967D01*
X406380Y333201D01*
X405599Y333826D01*
X405287Y334060D01*
X405052Y334295D01*
X404974Y334451D01*
X404896Y334529D01*
X404584Y334997D01*
X404271Y335466D01*
X403959Y336403D01*
X403881Y336716D01*
X403803Y337028D01*
Y337184D01*
Y337262D01*
X403881Y338200D01*
X404037Y338825D01*
X404271Y339293D01*
X404350Y339449D01*
X404896Y339996D01*
X405521Y340309D01*
X406068Y340465D01*
X406224Y340543D01*
X406302D01*
X406849Y340621D01*
X408333D01*
X408801Y340543D01*
X409114Y340465D01*
X409270D01*
X410442Y340074D01*
X411457Y339684D01*
X411926Y339528D01*
X412238Y339371D01*
X412394Y339293D01*
X412472D01*
X413566Y338825D01*
X414581Y338356D01*
X414972Y338200D01*
X415284Y338044D01*
X415518Y337965D01*
X415597D01*
X415362Y338512D01*
X415128Y338981D01*
X415050Y339293D01*
X414972Y339371D01*
X414738Y339918D01*
X414503Y340309D01*
X414425Y340621D01*
X414347Y340777D01*
Y341168D01*
Y341324D01*
Y341402D01*
X414425Y341636D01*
X414503Y341793D01*
X414581Y341949D01*
X414738Y342027D01*
X414894Y342105D01*
X415753D01*
X416065Y342027D01*
D02*
G37*
G36*
X430359Y352180D02*
X430437D01*
X430749Y352102D01*
X430983Y351946D01*
X431139Y351868D01*
X431218Y351790D01*
X431686Y351399D01*
X431764Y351321D01*
X431842Y351243D01*
X432233Y350775D01*
X432545Y350384D01*
X432702Y350072D01*
X432780Y349994D01*
X433170Y349447D01*
X433405Y349056D01*
X433561Y348744D01*
X433639Y348588D01*
X434029Y348041D01*
X434342Y347650D01*
X434576Y347416D01*
X434654Y347338D01*
X435123Y347182D01*
X435670Y347104D01*
X436060Y347026D01*
X437232D01*
X437544Y346948D01*
X437700D01*
X438247Y346791D01*
X438716Y346635D01*
X439028Y346557D01*
X439184Y346479D01*
X439419Y346401D01*
X439497Y346166D01*
X439653Y346010D01*
Y345932D01*
X439965Y345385D01*
X440043Y345229D01*
Y345151D01*
X439653Y344917D01*
X439575Y344839D01*
X439497D01*
X439028Y344682D01*
X438950Y344604D01*
X438872D01*
X438325Y344526D01*
X437935D01*
X437622Y344448D01*
X436216D01*
X435748Y344370D01*
X435592D01*
X436295Y343511D01*
X436841Y342808D01*
X437154Y342261D01*
X437310Y342183D01*
Y342105D01*
X437857Y341324D01*
X438325Y340777D01*
X438638Y340387D01*
X438794Y340230D01*
X439419Y339606D01*
X440043Y339137D01*
X440512Y338825D01*
X440590Y338668D01*
X440668D01*
X441371Y338200D01*
X441918Y337731D01*
X442387Y337419D01*
X442465Y337341D01*
X442543D01*
X443246Y336950D01*
X443871Y336638D01*
X444417Y336403D01*
X444496Y336325D01*
X444574D01*
X445355Y336013D01*
X445979Y335700D01*
X446448Y335466D01*
X446526Y335388D01*
X446604D01*
X446526Y335232D01*
Y335154D01*
X446448Y335075D01*
X446370Y334997D01*
X445355Y335232D01*
X444417Y335466D01*
X444027Y335544D01*
X443714Y335622D01*
X443558Y335700D01*
X443480D01*
X442387Y335935D01*
X441449Y336247D01*
X441059Y336325D01*
X440746Y336403D01*
X440512Y336481D01*
X440434D01*
X440981Y335232D01*
X441293Y334607D01*
X441527Y334138D01*
X441684Y333748D01*
X441840Y333435D01*
X441996Y333201D01*
Y333123D01*
X442465Y331873D01*
X442855Y330858D01*
X443012Y330389D01*
X443168Y330077D01*
X443246Y329842D01*
Y329764D01*
X443480Y328983D01*
X443636Y328358D01*
X443793Y327890D01*
Y327812D01*
Y327734D01*
X443871Y326953D01*
X443949Y326250D01*
Y325703D01*
Y325625D01*
Y325547D01*
Y325078D01*
X443793Y324609D01*
X443480Y323828D01*
X443246Y323516D01*
X443090Y323282D01*
X443012Y323204D01*
X442933Y323125D01*
X442543Y322813D01*
X442152Y322657D01*
X441449Y322344D01*
X441137D01*
X440903Y322266D01*
X440356D01*
X439575Y322344D01*
X438872Y322501D01*
X438325Y322579D01*
X438247Y322657D01*
X438169D01*
X437388Y322969D01*
X436763Y323360D01*
X436295Y323594D01*
X436216Y323750D01*
X436138D01*
X435201Y324531D01*
X434498Y325312D01*
X434186Y325625D01*
X433951Y325781D01*
X433873Y325937D01*
X433795Y326015D01*
X433092Y327031D01*
X432545Y327890D01*
X432389Y328280D01*
X432233Y328593D01*
X432077Y328749D01*
Y328827D01*
X431921Y329296D01*
X431842Y329374D01*
Y329452D01*
X431764Y329921D01*
X431686Y329999D01*
Y330077D01*
X431842Y330155D01*
X431921Y330233D01*
X431999Y330311D01*
X432077D01*
X432623Y329686D01*
X433092Y329140D01*
X433405Y328749D01*
X433561Y328671D01*
Y328593D01*
X434186Y327968D01*
X434732Y327421D01*
X435045Y327031D01*
X435201Y326875D01*
X435670Y326406D01*
X436060Y326093D01*
X436373Y325781D01*
X436529Y325703D01*
X436997Y325312D01*
X437466Y325078D01*
X437779Y324922D01*
X437935Y324844D01*
X438247Y324688D01*
X438559Y324609D01*
X439106D01*
X439419Y324688D01*
X439575Y324766D01*
X439809Y324922D01*
X439965Y325156D01*
X440122Y325625D01*
Y326093D01*
Y326172D01*
Y326250D01*
X440043Y326796D01*
X439887Y327187D01*
X439809Y327499D01*
X439731Y327656D01*
X439497Y328202D01*
X439341Y328593D01*
X439184Y328905D01*
X439106Y329061D01*
X438403Y330545D01*
X438091Y331248D01*
X437779Y331795D01*
X437544Y332342D01*
X437310Y332732D01*
X437232Y332967D01*
X437154Y333045D01*
X436373Y334451D01*
X436060Y335154D01*
X435748Y335700D01*
X435513Y336247D01*
X435279Y336638D01*
X435201Y336872D01*
X435123Y336950D01*
X434498Y338122D01*
X433951Y339059D01*
X433795Y339449D01*
X433639Y339762D01*
X433483Y339918D01*
Y339996D01*
X432858Y341168D01*
X432389Y342183D01*
X432155Y342574D01*
X432077Y342886D01*
X431921Y343042D01*
Y343120D01*
X431608Y343667D01*
X431296Y344058D01*
X431061Y344292D01*
X430983Y344370D01*
X430437Y344604D01*
X429968Y344682D01*
X429421D01*
X428875Y344604D01*
X428015D01*
X427469Y344682D01*
X426531D01*
X426063Y344761D01*
X425750Y344839D01*
X425516Y344917D01*
X425438D01*
X425126Y345151D01*
X424969Y345542D01*
X424891Y345776D01*
Y345932D01*
X424969Y346401D01*
X425204Y346635D01*
X425360Y346791D01*
X425438Y346869D01*
X425828Y346948D01*
X426141Y347026D01*
X426375Y347104D01*
X426453D01*
X427000Y347182D01*
X427469D01*
X427781Y347260D01*
X427937D01*
X428484Y347338D01*
X429031D01*
X429421Y347416D01*
X429577D01*
X429421Y347807D01*
X429265Y348041D01*
X429187Y348197D01*
Y348275D01*
X429031Y348744D01*
X428953Y348822D01*
Y348900D01*
X428718Y349369D01*
X428640Y349525D01*
Y349603D01*
X428484Y350072D01*
X428406Y350228D01*
Y350306D01*
Y351009D01*
X428562Y351556D01*
X428796Y351868D01*
X428875Y351946D01*
X429109Y352102D01*
X429343Y352180D01*
X429890Y352259D01*
X430280D01*
X430359Y352180D01*
D02*
G37*
G36*
X526349Y354289D02*
X527677Y354133D01*
X529005Y353899D01*
X530177Y353586D01*
X531114Y353274D01*
X531973Y352962D01*
X532598Y352649D01*
X532989Y352493D01*
X533145Y352415D01*
X534238Y351790D01*
X535332Y351087D01*
X536269Y350384D01*
X537128Y349759D01*
X537831Y349134D01*
X538378Y348666D01*
X538690Y348353D01*
X538846Y348275D01*
X539393Y347650D01*
X539862Y347026D01*
X540174Y346557D01*
X540252Y346401D01*
Y346323D01*
X540721Y345542D01*
X541033Y344839D01*
X541346Y344292D01*
X541424Y344214D01*
Y344136D01*
X541502Y343745D01*
X541580Y343277D01*
Y343042D01*
Y342886D01*
Y342417D01*
Y342027D01*
X541502Y341715D01*
Y341636D01*
X541346Y341012D01*
Y340543D01*
X541424Y340230D01*
X541502Y340152D01*
X541814Y339918D01*
X542205Y339684D01*
X542517Y339528D01*
X542595Y339449D01*
X542673D01*
X543767Y338981D01*
X544704Y338434D01*
X545095Y338200D01*
X545407Y338044D01*
X545563Y337965D01*
X545642Y337887D01*
X546657Y337184D01*
X547438Y336481D01*
X547750Y336169D01*
X547906Y335935D01*
X548063Y335779D01*
X548141Y335700D01*
X548688Y335076D01*
X549156Y334373D01*
X549469Y333748D01*
X549781Y333045D01*
X550172Y331795D01*
X550328Y330702D01*
Y329686D01*
Y328983D01*
X550250Y328671D01*
X550172Y328437D01*
Y328358D01*
Y328280D01*
X549937Y327578D01*
X549625Y327031D01*
X548766Y325937D01*
X547828Y325078D01*
X546891Y324375D01*
X545954Y323907D01*
X545173Y323516D01*
X544860Y323438D01*
X544626Y323360D01*
X544548Y323282D01*
X544470D01*
X543767Y323047D01*
X543142Y322969D01*
X542673Y322813D01*
X542517D01*
X541814Y322657D01*
X541268Y322579D01*
X540877Y322501D01*
X540721D01*
X539706Y322422D01*
X538846Y322501D01*
X537987D01*
X537206Y322579D01*
X536581Y322735D01*
X536113Y322813D01*
X535800Y322891D01*
X535722D01*
X534863Y323204D01*
X534082Y323516D01*
X533301Y323907D01*
X532676Y324297D01*
X532129Y324609D01*
X531739Y324922D01*
X531505Y325078D01*
X531426Y325156D01*
X530802Y325781D01*
X530333Y326406D01*
X530020Y327031D01*
X529864Y327577D01*
X529786Y328046D01*
X529708Y328515D01*
Y328749D01*
Y328827D01*
X529864Y329608D01*
X530099Y330311D01*
X530489Y330936D01*
X530880Y331405D01*
X531192Y331795D01*
X531505Y332108D01*
X531739Y332264D01*
X531817Y332342D01*
X532520Y332732D01*
X533223Y332967D01*
X533848Y333201D01*
X534473Y333279D01*
X535019Y333357D01*
X535800D01*
X536581Y333201D01*
X537284Y332967D01*
X537909Y332732D01*
X538456Y332420D01*
X538846Y332108D01*
X539237Y331873D01*
X539393Y331717D01*
X539471Y331639D01*
X539784Y331326D01*
X540018Y330936D01*
X540330Y330389D01*
X540486Y329921D01*
Y329842D01*
Y329764D01*
Y329452D01*
Y329140D01*
X540252Y328671D01*
X540018Y328280D01*
X539940Y328202D01*
X539393Y327890D01*
X538924Y327734D01*
X538534Y327656D01*
X538378D01*
X537675Y327812D01*
X537128Y328124D01*
X536738Y328358D01*
X536581Y328515D01*
X536269Y328905D01*
X536113Y329061D01*
Y329140D01*
X535722Y329530D01*
X535644Y329608D01*
X535566D01*
X535175Y329686D01*
X534863Y329764D01*
X534629Y329842D01*
X534004D01*
X533848Y329764D01*
X533769D01*
X533535Y329530D01*
X533379Y329296D01*
X533301Y329061D01*
Y328983D01*
Y328593D01*
Y328280D01*
X533379Y328124D01*
Y328046D01*
X533535Y327577D01*
X533769Y327265D01*
X533926Y326953D01*
X534004Y326875D01*
X534316Y326484D01*
X534629Y326172D01*
X534863Y325937D01*
X534941Y325859D01*
X535800Y325391D01*
X536659Y325078D01*
X536972Y325000D01*
X537206D01*
X537362Y324922D01*
X537440Y324922D01*
X538456Y324766D01*
X540174D01*
X540955Y324844D01*
X541658Y325078D01*
X542283Y325312D01*
X542752Y325547D01*
X543142Y325859D01*
X543455Y326093D01*
X543611Y326250D01*
X543689Y326328D01*
X544079Y326953D01*
X544392Y327578D01*
X544626Y328202D01*
X544704Y328827D01*
X544782Y329374D01*
Y329764D01*
Y330077D01*
Y330155D01*
X544548Y331483D01*
X544314Y332029D01*
X544157Y332498D01*
X544001Y332889D01*
X543845Y333201D01*
X543689Y333357D01*
Y333435D01*
X542986Y334451D01*
X542205Y335310D01*
X541970Y335622D01*
X541736Y335857D01*
X541580Y335935D01*
X541502Y336013D01*
X540643Y336638D01*
X539862Y337028D01*
X539627Y337184D01*
X539393Y337262D01*
X539237Y337341D01*
X539159D01*
X538690Y337419D01*
X538222D01*
X537284Y337262D01*
X536894Y337184D01*
X536581Y337106D01*
X536425Y336950D01*
X536347D01*
X535488Y336559D01*
X534707Y336403D01*
X534394Y336325D01*
X532989D01*
X532207Y336481D01*
X531973Y336559D01*
X531739Y336638D01*
X531583Y336716D01*
X531505D01*
X531114Y336872D01*
X530880Y337106D01*
X530489Y337497D01*
X530255Y337809D01*
Y337965D01*
Y338278D01*
X530333Y338512D01*
X530723Y339059D01*
X531036Y339371D01*
X531114Y339528D01*
X531192D01*
X531739Y339840D01*
X531895Y339996D01*
X531973D01*
X532364Y340230D01*
X532754Y340387D01*
X532989Y340543D01*
X533145Y340621D01*
X532676Y340855D01*
X532285Y341012D01*
X532051Y341168D01*
X531973D01*
X531426Y341480D01*
X531192Y341558D01*
X531114D01*
X530020Y342105D01*
X529005Y342574D01*
X528615Y342808D01*
X528302Y342886D01*
X528146Y343042D01*
X528068D01*
X526974Y343589D01*
X525959Y344136D01*
X525647Y344370D01*
X525334Y344526D01*
X525178Y344604D01*
X525100Y344682D01*
X524475Y345073D01*
X523928Y345542D01*
X523538Y345854D01*
X523382Y346010D01*
X522835Y346635D01*
X522366Y347260D01*
X522132Y347650D01*
X522054Y347729D01*
Y347807D01*
X521663Y348744D01*
X521507Y349603D01*
X521429Y350384D01*
Y351009D01*
X521507Y351556D01*
X521585Y351946D01*
X521663Y352180D01*
Y352259D01*
X522054Y352883D01*
X522679Y353352D01*
X523303Y353743D01*
X524006Y353977D01*
X524631Y354211D01*
X525178Y354289D01*
X525569Y354367D01*
X526271D01*
X526349Y354289D01*
D02*
G37*
G36*
X386151Y342964D02*
X386620Y342886D01*
X386932Y342808D01*
X387010Y342730D01*
X387401Y342574D01*
X387791Y342339D01*
X388026Y342261D01*
X388104Y342183D01*
X389822Y341246D01*
X390603Y340855D01*
X391306Y340543D01*
X391853Y340230D01*
X392321Y339996D01*
X392634Y339840D01*
X392712Y339762D01*
X393571Y339371D01*
X394430Y339137D01*
X395289Y338903D01*
X396070Y338746D01*
X396695D01*
X397242Y338668D01*
X397945D01*
X398101Y338590D01*
X398257Y338512D01*
X398335Y338434D01*
X398492Y338278D01*
X398648Y338122D01*
X398726Y338044D01*
Y337965D01*
Y337731D01*
Y337497D01*
X398648Y337341D01*
Y337262D01*
X398492Y336794D01*
X398335Y336716D01*
Y336638D01*
X398023Y336481D01*
X397711Y336325D01*
X397476Y336247D01*
X397398Y336169D01*
X397008Y336091D01*
X396617Y336013D01*
X396383Y335935D01*
X396305D01*
X395992Y335857D01*
X394196D01*
X394664Y334997D01*
X394977Y334295D01*
X395133Y333982D01*
X395289Y333748D01*
X395368Y333670D01*
Y333591D01*
X395836Y332732D01*
X396148Y332029D01*
X396305Y331717D01*
X396461Y331483D01*
X396539Y331405D01*
Y331326D01*
X396930Y330389D01*
X397242Y329608D01*
X397398Y329296D01*
X397476Y329061D01*
X397554Y328905D01*
Y328827D01*
X397711Y327890D01*
X397789Y327031D01*
Y326640D01*
X397711Y326328D01*
Y326172D01*
Y326093D01*
X397476Y325234D01*
X397164Y324609D01*
X396930Y324141D01*
X396773Y324063D01*
Y323985D01*
X396148Y323438D01*
X395446Y323125D01*
X395055Y323047D01*
X394821Y322969D01*
X394664Y322891D01*
X394586D01*
X394040Y322813D01*
X393571Y322735D01*
X393102D01*
X392556Y322813D01*
X392165Y322891D01*
X391853Y322969D01*
X391697D01*
X390759Y323360D01*
X389900Y323750D01*
X389119Y324219D01*
X388494Y324609D01*
X387948Y325000D01*
X387557Y325312D01*
X387323Y325469D01*
X387244Y325547D01*
X385995Y326875D01*
X385370Y327577D01*
X384901Y328124D01*
X384511Y328671D01*
X384120Y329061D01*
X383964Y329374D01*
X383886Y329452D01*
X383808Y329842D01*
Y329921D01*
Y329999D01*
X383886Y330467D01*
Y330545D01*
Y330624D01*
X384277Y330545D01*
X384511D01*
X384745Y330467D01*
X384901Y330389D01*
X385058Y330311D01*
X385526Y329921D01*
X385839Y329530D01*
X386151Y329218D01*
X386229Y329140D01*
X386620Y328749D01*
X387010Y328358D01*
X387323Y328124D01*
X387401Y328046D01*
X388104Y327499D01*
X388650Y326953D01*
X389119Y326640D01*
X389197Y326484D01*
X389275D01*
X389900Y325937D01*
X390525Y325469D01*
X390994Y325156D01*
X391072Y325078D01*
X391150D01*
X391540Y324922D01*
X391853Y324844D01*
X392399Y324844D01*
X392712Y324922D01*
X392868Y325000D01*
X393259Y325469D01*
X393415Y326015D01*
X393493Y326484D01*
Y326562D01*
Y326640D01*
X393415Y327031D01*
X393337Y327421D01*
X393259Y327656D01*
Y327734D01*
X393102Y328046D01*
X393024Y328358D01*
X392868Y328593D01*
Y328671D01*
X392165Y330077D01*
X391853Y330780D01*
X391540Y331326D01*
X391306Y331873D01*
X391072Y332264D01*
X390994Y332498D01*
X390915Y332576D01*
X390134Y333982D01*
X389822Y334607D01*
X389510Y335154D01*
X389275Y335622D01*
X389041Y336013D01*
X388963Y336247D01*
X388885Y336325D01*
X388260Y337575D01*
X387713Y338590D01*
X387557Y339059D01*
X387401Y339371D01*
X387244Y339606D01*
Y339684D01*
X386620Y340933D01*
X386073Y341949D01*
X385917Y342417D01*
X385760Y342730D01*
X385604Y342964D01*
Y343042D01*
X386151Y342964D01*
D02*
G37*
G36*
X362017Y343120D02*
X362251D01*
X362485Y343042D01*
X362720D01*
X363657Y342886D01*
X364516Y342652D01*
X365219Y342417D01*
X365922Y342105D01*
X366469Y341871D01*
X366859Y341636D01*
X367172Y341480D01*
X367250Y341402D01*
X368734Y340308D01*
X369437Y339762D01*
X369983Y339293D01*
X370452Y338903D01*
X370843Y338590D01*
X371077Y338356D01*
X371155Y338278D01*
X372014Y337497D01*
X372717Y336794D01*
X373029Y336481D01*
X373264Y336247D01*
X373342Y336169D01*
X373420Y336091D01*
X374357Y335388D01*
X375216Y334919D01*
X375529Y334763D01*
X375841Y334607D01*
X375997Y334529D01*
X376076D01*
X376622Y334295D01*
X377013Y334216D01*
X377325Y334060D01*
X377481D01*
X377950Y333904D01*
X378341Y333748D01*
X378653Y333670D01*
X378809Y333591D01*
Y333435D01*
Y333357D01*
Y333201D01*
Y333123D01*
X378262Y333045D01*
X377716Y332967D01*
X377403Y332889D01*
X377247D01*
X376622Y332811D01*
X376076Y332732D01*
X375763Y332654D01*
X375607D01*
X375763Y331951D01*
X375841Y331326D01*
X375919Y330936D01*
X375997Y330858D01*
Y330780D01*
X376154Y330155D01*
X376232Y329608D01*
X376310Y329218D01*
Y329140D01*
Y329061D01*
Y328280D01*
X376232Y327499D01*
X376076Y326796D01*
X375919Y326250D01*
X375763Y325781D01*
X375529Y325469D01*
X375451Y325234D01*
X375373Y325156D01*
X374904Y324688D01*
X374357Y324219D01*
X373264Y323594D01*
X372795Y323360D01*
X372405Y323204D01*
X372170Y323047D01*
X372092D01*
X370843Y322813D01*
X369515Y322735D01*
X368343Y322891D01*
X367250Y323125D01*
X366312Y323438D01*
X365531Y323672D01*
X365063Y323907D01*
X364985Y323985D01*
X364907D01*
X363657Y324688D01*
X362563Y325547D01*
X361704Y326484D01*
X361079Y327343D01*
X360611Y328202D01*
X360298Y328827D01*
X360142Y329296D01*
X360064Y329374D01*
Y329452D01*
X360845Y328905D01*
X361470Y328437D01*
X361860Y328124D01*
X361939Y327968D01*
X362017D01*
X362641Y327421D01*
X363188Y327031D01*
X363579Y326718D01*
X363657Y326640D01*
X363735D01*
X364438Y326250D01*
X365063Y325859D01*
X365531Y325547D01*
X365610Y325469D01*
X365688D01*
X366469Y325156D01*
X367093Y324922D01*
X367640Y324844D01*
X367718Y324766D01*
X367796D01*
X368499Y324688D01*
X369124Y324609D01*
X369671Y324688D01*
X370061Y324766D01*
X370374Y324922D01*
X370686Y325000D01*
X370764Y325156D01*
X370843D01*
X371155Y325547D01*
X371311Y326093D01*
X371545Y327109D01*
Y327577D01*
Y327968D01*
Y328202D01*
Y328280D01*
X371233Y329608D01*
X371077Y330233D01*
X370843Y330780D01*
X370686Y331170D01*
X370608Y331483D01*
X370452Y331717D01*
Y331795D01*
X369827Y332967D01*
X369280Y333982D01*
X369046Y334451D01*
X368890Y334763D01*
X368812Y334919D01*
X368734Y334997D01*
X368109Y336013D01*
X367562Y336794D01*
X367328Y337106D01*
X367172Y337341D01*
X367093Y337497D01*
X367015Y337575D01*
X366234Y338434D01*
X365453Y339137D01*
X365063Y339371D01*
X364828Y339528D01*
X364672Y339684D01*
X364594D01*
X363891Y339996D01*
X363266Y340308D01*
X362876Y340465D01*
X362798Y340543D01*
X362720D01*
X361939Y340855D01*
X361314Y341012D01*
X360845Y341168D01*
X360767Y341246D01*
X360220D01*
X360064Y341168D01*
X359986D01*
X359517Y341012D01*
X359361Y340933D01*
X359283D01*
X359517Y340543D01*
X359595Y340387D01*
Y340308D01*
X359752Y339918D01*
X359830Y339762D01*
X359908Y339684D01*
X360376Y339137D01*
X360533Y338981D01*
X360611Y338903D01*
X361079Y338356D01*
X361236Y338122D01*
X361314Y338044D01*
X361470Y337575D01*
X361626Y337184D01*
X361704Y336872D01*
Y336716D01*
X361626Y336247D01*
X361470Y335857D01*
X361236Y335544D01*
X361157Y335466D01*
X360767Y335232D01*
X360376Y335075D01*
X360064Y334997D01*
X359986D01*
X359517Y335075D01*
X359127Y335154D01*
X358814Y335232D01*
X358736Y335310D01*
X358268Y335622D01*
X357877Y335857D01*
X357643Y336013D01*
X357565Y336091D01*
X357174Y336403D01*
X356784Y336716D01*
X356549Y336950D01*
X356471Y337028D01*
X356081Y337497D01*
X355846Y337965D01*
X355534Y338825D01*
X355456Y339137D01*
X355378Y339371D01*
Y339528D01*
Y339606D01*
Y339918D01*
Y340230D01*
X355456Y340465D01*
Y340543D01*
X355690Y341246D01*
X356081Y341714D01*
X356549Y342183D01*
X357018Y342495D01*
X357486Y342730D01*
X357799Y342886D01*
X358111Y342964D01*
X358190D01*
X358970Y343120D01*
X359674Y343198D01*
X361236D01*
X362017Y343120D01*
D02*
G37*
G36*
X482923Y342730D02*
X483470Y342652D01*
X483860Y342574D01*
X484017D01*
X485266Y342261D01*
X486438Y341871D01*
X487531Y341402D01*
X488469Y340933D01*
X489250Y340543D01*
X489796Y340230D01*
X490109Y339996D01*
X490265Y339918D01*
X491202Y339215D01*
X492140Y338356D01*
X492921Y337575D01*
X493624Y336872D01*
X494248Y336169D01*
X494639Y335622D01*
X494951Y335310D01*
X495029Y335154D01*
X495342Y334763D01*
X495654Y334451D01*
X496123Y334060D01*
X496513Y333904D01*
X496591Y333826D01*
X497216D01*
X497919Y333982D01*
X498232Y334060D01*
X498466Y334138D01*
X498622Y334216D01*
X498700D01*
X499247Y334451D01*
X499716Y334685D01*
X500028Y334841D01*
X500184Y334919D01*
X500731Y335154D01*
X501278Y335310D01*
X501668Y335466D01*
X501746Y335544D01*
X501825D01*
X501590Y334919D01*
X501278Y334529D01*
X501044Y334216D01*
X500965Y334138D01*
X500497Y333748D01*
X500106Y333435D01*
X499794Y333279D01*
X499716Y333201D01*
X499247Y332967D01*
X498857Y332732D01*
X498544Y332576D01*
X498388Y332498D01*
X497919Y332264D01*
X497685Y332029D01*
X497529Y331795D01*
X497451Y331717D01*
X497373Y331248D01*
Y330858D01*
X497451Y330545D01*
X497529Y330389D01*
X497685Y329842D01*
X497841Y329452D01*
X497919Y329140D01*
Y328983D01*
X497997Y328124D01*
X497919Y327265D01*
X497763Y326562D01*
X497607Y325937D01*
X497451Y325391D01*
X497216Y325000D01*
X497138Y324766D01*
X497060Y324688D01*
X496513Y324063D01*
X495967Y323516D01*
X495264Y323204D01*
X494639Y322891D01*
X494014Y322735D01*
X493545Y322657D01*
X493233Y322579D01*
X492764D01*
X492608Y322501D01*
X492296Y322422D01*
X491124D01*
X490109Y322501D01*
X489172Y322735D01*
X488391Y322891D01*
X487766Y323125D01*
X487219Y323360D01*
X486907Y323438D01*
X486828Y323516D01*
X485188Y324609D01*
X484407Y325078D01*
X483782Y325625D01*
X483236Y326093D01*
X482845Y326406D01*
X482611Y326640D01*
X482533Y326718D01*
X482611Y326953D01*
X482689Y327031D01*
X482767Y327187D01*
Y327265D01*
X483314Y326953D01*
X483860Y326718D01*
X484251Y326562D01*
X484329Y326484D01*
X484407D01*
X484954Y326172D01*
X485501Y325937D01*
X485813Y325781D01*
X485969Y325703D01*
X486750Y325312D01*
X487531Y325000D01*
X487766Y324922D01*
X488000Y324844D01*
X488156Y324766D01*
X488234D01*
X489094Y324531D01*
X489874Y324375D01*
X490187Y324297D01*
X490656D01*
X491437Y324453D01*
X491983Y324609D01*
X492374Y324844D01*
X492452Y324922D01*
X492608Y325078D01*
X492764Y325312D01*
X492921Y325859D01*
X492999Y326328D01*
Y326484D01*
Y326562D01*
Y327109D01*
X492921Y327656D01*
X492842Y327968D01*
Y328124D01*
X492686Y328749D01*
X492608Y329296D01*
X492530Y329608D01*
Y329764D01*
X492374Y330389D01*
X492140Y330858D01*
X491983Y331092D01*
X491905Y331170D01*
X491358Y331405D01*
X490890Y331483D01*
X490499Y331561D01*
X488234D01*
X487688Y331639D01*
X487219Y331717D01*
X486828Y331795D01*
X486594Y331873D01*
X486516D01*
X485188Y332264D01*
X484563Y332498D01*
X484017Y332654D01*
X483548Y332889D01*
X483236Y332967D01*
X483001Y333123D01*
X482923D01*
X482064Y333513D01*
X481283Y333904D01*
X480970Y334138D01*
X480736Y334216D01*
X480580Y334373D01*
X480502D01*
X479643Y334919D01*
X478940Y335388D01*
X478627Y335622D01*
X478393Y335779D01*
X478315Y335935D01*
X478237D01*
X477612Y336559D01*
X477143Y337184D01*
X476831Y337731D01*
X476753Y337809D01*
Y337887D01*
X476675Y338356D01*
X476597Y338746D01*
X476675Y339606D01*
Y339918D01*
X476753Y340152D01*
X476831Y340309D01*
Y340387D01*
X477221Y341246D01*
X477768Y341793D01*
X478159Y342183D01*
X478237Y342261D01*
X478315D01*
X479096Y342574D01*
X479877Y342730D01*
X480111D01*
X480346Y342808D01*
X482298D01*
X482923Y342730D01*
D02*
G37*
G36*
X456524Y342886D02*
X457617Y342730D01*
X458633Y342574D01*
X459492Y342339D01*
X460195Y342027D01*
X460741Y341871D01*
X461054Y341715D01*
X461210Y341636D01*
X463006Y340465D01*
X463787Y339918D01*
X464490Y339371D01*
X465037Y338903D01*
X465506Y338512D01*
X465818Y338200D01*
X465896Y338122D01*
X467146Y336950D01*
X468239Y336013D01*
X468708Y335700D01*
X469021Y335388D01*
X469255Y335232D01*
X469333Y335154D01*
X470739Y334373D01*
X471442Y334060D01*
X472067Y333826D01*
X472613Y333591D01*
X473004Y333435D01*
X473316Y333357D01*
X473394D01*
X473473Y333279D01*
X473551Y333201D01*
X473629Y333123D01*
X473707Y332967D01*
X473785Y332889D01*
Y332811D01*
X473082Y332732D01*
X472535Y332654D01*
X472223Y332576D01*
X472067D01*
X471520Y332498D01*
X471051Y332420D01*
X470739Y332342D01*
X470583D01*
X470739Y331561D01*
X470817Y330858D01*
X470895Y330311D01*
X470973Y330233D01*
Y330155D01*
X471051Y329374D01*
X471129Y328749D01*
X471207Y328280D01*
Y328202D01*
Y328124D01*
Y327343D01*
X471051Y326718D01*
X470895Y326172D01*
X470661Y325625D01*
X470504Y325312D01*
X470270Y325000D01*
X470192Y324844D01*
X470114Y324766D01*
X469645Y324219D01*
X469099Y323828D01*
X468552Y323438D01*
X468083Y323204D01*
X467615Y322969D01*
X467224Y322813D01*
X466990Y322735D01*
X466912D01*
X465506Y322501D01*
X464178D01*
X462928Y322579D01*
X461835Y322891D01*
X460976Y323125D01*
X460273Y323438D01*
X459804Y323672D01*
X459648Y323750D01*
X458398Y324453D01*
X457383Y325312D01*
X456602Y326172D01*
X455977Y327031D01*
X455508Y327734D01*
X455274Y328358D01*
X455118Y328749D01*
X455040Y328905D01*
X456133Y328124D01*
X457070Y327499D01*
X457461Y327265D01*
X457773Y327031D01*
X457930Y326953D01*
X458008Y326875D01*
X459101Y326172D01*
X460038Y325625D01*
X460429Y325391D01*
X460741Y325234D01*
X460898Y325078D01*
X460976D01*
X461444Y324844D01*
X461835Y324766D01*
X462147Y324609D01*
X462225D01*
X462772Y324531D01*
X463319Y324375D01*
X463631Y324297D01*
X464334D01*
X464725Y324375D01*
X465037Y324453D01*
X465115Y324531D01*
X465506Y324844D01*
X465740Y325156D01*
X465896Y325391D01*
X465974Y325469D01*
X466131Y325937D01*
X466209Y326328D01*
X466287Y326640D01*
Y326718D01*
X466365Y327187D01*
Y327577D01*
X466287Y327890D01*
Y327968D01*
X466053Y329061D01*
X465740Y330155D01*
X465428Y331092D01*
X465037Y331951D01*
X464803Y332654D01*
X464568Y333123D01*
X464412Y333513D01*
X464334Y333591D01*
X463787Y334529D01*
X463163Y335388D01*
X462616Y336247D01*
X462069Y336950D01*
X461522Y337497D01*
X461132Y337965D01*
X460898Y338278D01*
X460819Y338356D01*
X460038Y339059D01*
X459336Y339528D01*
X459023Y339762D01*
X458789Y339918D01*
X458633Y339996D01*
X458554D01*
X457617Y340387D01*
X456758Y340699D01*
X456446Y340777D01*
X456133D01*
X455977Y340855D01*
X455274D01*
X455118Y340777D01*
X455040D01*
X454727Y340699D01*
X454415D01*
X454180Y340621D01*
X454102D01*
X454415Y340152D01*
X454493Y339996D01*
Y339918D01*
X454805Y339449D01*
X454883Y339293D01*
Y339215D01*
X455196Y338746D01*
X455430Y338356D01*
X455664Y338044D01*
X455743Y337965D01*
X456055Y337497D01*
X456289Y337106D01*
X456367Y336794D01*
X456446Y336638D01*
X456524Y336247D01*
X456446Y335935D01*
X456367Y335466D01*
X456133Y335154D01*
X456055Y335075D01*
X455508Y334841D01*
X454962Y334763D01*
X454337D01*
X454102Y334841D01*
X453946Y334919D01*
X453634Y334997D01*
X453556D01*
X452462Y335700D01*
X451681Y336403D01*
X451369Y336716D01*
X451134Y336950D01*
X451056Y337106D01*
X450978Y337184D01*
X450666Y337731D01*
X450510Y338200D01*
X450353Y338668D01*
X450275Y339059D01*
Y339449D01*
X450353Y339684D01*
Y339840D01*
Y339918D01*
X450510Y340465D01*
X450744Y340933D01*
X451291Y341715D01*
X451759Y342105D01*
X451916Y342261D01*
X451994D01*
X452462Y342495D01*
X453009Y342652D01*
X454102Y342886D01*
X454571Y342964D01*
X455352D01*
X456524Y342886D01*
D02*
G37*
%LPC*%
G36*
X1068192Y526833D02*
X1059062Y526296D01*
X1051543Y525221D01*
X1045098Y523610D01*
X1040264Y521999D01*
X1037041Y520925D01*
X1035967Y520388D01*
X1027911Y516091D01*
X1020392Y510720D01*
X1013410Y504812D01*
X1008039Y499441D01*
X1003205Y494071D01*
X999983Y489774D01*
X997834Y487089D01*
X997297Y486551D01*
Y486014D01*
X995149Y481718D01*
X993538Y477421D01*
X993000Y473661D01*
X992463Y470439D01*
Y467216D01*
Y465068D01*
X993000Y463457D01*
Y462920D01*
X994075Y459160D01*
X995686Y455938D01*
X999983Y450567D01*
X1002131Y448956D01*
X1004279Y447344D01*
X1005353Y446807D01*
X1005891Y446270D01*
X1009113Y445196D01*
X1012336Y444122D01*
X1017706Y443585D01*
X1020392D01*
X1022003Y444122D01*
X1023614D01*
X1026837Y445196D01*
X1029522Y446807D01*
X1034356Y450030D01*
X1037578Y453252D01*
X1038115Y453789D01*
X1038653Y454326D01*
X1040801Y458086D01*
X1042949Y461309D01*
X1044560Y463457D01*
X1045098Y464531D01*
X1047783Y468291D01*
X1049931Y470976D01*
X1051543Y473124D01*
X1052080Y474198D01*
X1055839Y478495D01*
X1059599Y481718D01*
X1062284Y483866D01*
X1062821Y484403D01*
X1063358D01*
X1066044Y485477D01*
X1068192Y486014D01*
X1073026Y486551D01*
X1075174Y486014D01*
X1076785D01*
X1077860Y485477D01*
X1078397D01*
X1084842Y482792D01*
X1089675Y480106D01*
X1092361Y477421D01*
X1093435Y476884D01*
Y476347D01*
X1097195Y470976D01*
X1099343Y466142D01*
X1099880Y463457D01*
X1100417Y461846D01*
X1100954Y460771D01*
Y460234D01*
X1101491Y454326D01*
Y448956D01*
X1100954Y447344D01*
Y445733D01*
X1100417Y444659D01*
Y444122D01*
X1098269Y438751D01*
X1096120Y433917D01*
X1093972Y430695D01*
X1093435Y430158D01*
Y429621D01*
X1086990Y421564D01*
X1079471Y415119D01*
X1071952Y409748D01*
X1064970Y404915D01*
X1057988Y401692D01*
X1052617Y399544D01*
X1050468Y398470D01*
X1048857Y397933D01*
X1048320Y397396D01*
X1047783D01*
X1041875Y395784D01*
X1036504Y394710D01*
X1025763Y394173D01*
X1016095Y395247D01*
X1007502Y397396D01*
X999983Y399544D01*
X994612Y401692D01*
X992463Y402766D01*
X990852Y403841D01*
X990315Y404378D01*
X989778D01*
X986555Y406526D01*
X985481Y407063D01*
X984944D01*
X981722Y408674D01*
X980648Y409748D01*
X980110D01*
X976351Y401155D01*
X974740Y397396D01*
X973128Y394173D01*
X971517Y391488D01*
X970980Y389339D01*
X969906Y388265D01*
Y387728D01*
X966146Y380209D01*
X962924Y373227D01*
X961850Y370541D01*
X960776Y368393D01*
X960238Y367319D01*
Y366782D01*
X959164Y364096D01*
Y363022D01*
Y362485D01*
Y360874D01*
Y359800D01*
X959701Y359263D01*
Y358726D01*
X963461Y351207D01*
X966146Y344762D01*
X967758Y342613D01*
X968295Y340465D01*
X969369Y339391D01*
Y338854D01*
X973128Y331334D01*
X976888Y324352D01*
X977962Y321667D01*
X979036Y319519D01*
X980110Y318444D01*
Y317907D01*
X982259Y320593D01*
X983870Y323278D01*
X984944Y324889D01*
X985481Y325426D01*
X987093Y328112D01*
X988704Y330797D01*
X989778Y332409D01*
X990315Y332946D01*
X998371Y343150D01*
X1002131Y347447D01*
X1005891Y351207D01*
X1009113Y353892D01*
X1011798Y356040D01*
X1013410Y357651D01*
X1013947Y358189D01*
X1019318Y361948D01*
X1024688Y365171D01*
X1030059Y367856D01*
X1034893Y370004D01*
X1039190Y371616D01*
X1042412Y372690D01*
X1044560Y373227D01*
X1045635D01*
X1053691Y374301D01*
X1060673Y374838D01*
X1063358D01*
X1065507Y374301D01*
X1067118D01*
X1070878Y373764D01*
X1074637Y372690D01*
X1081082Y369467D01*
X1083767Y367856D01*
X1085916Y366245D01*
X1086990Y365708D01*
X1087527Y365171D01*
X1092898Y359263D01*
X1096657Y353892D01*
X1097732Y351207D01*
X1098806Y349595D01*
X1099343Y348521D01*
Y347984D01*
X1100954Y341002D01*
X1101491Y334557D01*
Y331871D01*
X1100954Y329723D01*
X1100954Y328112D01*
Y327575D01*
X1099880Y323278D01*
X1098269Y320056D01*
X1096121Y317370D01*
X1093972Y314685D01*
X1092361Y313074D01*
X1090750Y311999D01*
X1089676Y310925D01*
X1089138D01*
X1085379Y309314D01*
X1081619Y308240D01*
X1078397Y307703D01*
X1072489D01*
X1070340Y308240D01*
X1068729Y308777D01*
X1068192D01*
X1065507Y309314D01*
X1064433Y309851D01*
X1062284Y310925D01*
X1061210Y311462D01*
X1055839Y313611D01*
X1049931Y314685D01*
X1044560Y315222D01*
X1039190Y314685D01*
X1034893Y313611D01*
X1031671Y312537D01*
X1028985Y311999D01*
X1028448Y311462D01*
X1022003Y308240D01*
X1016632Y304480D01*
X1012336Y300721D01*
X1008576Y297498D01*
X1006428Y294276D01*
X1004279Y291590D01*
X1003742Y289979D01*
X1003205Y289442D01*
X1000520Y282997D01*
X998908Y277626D01*
X998371Y275478D01*
X997834Y273867D01*
X997297Y272792D01*
Y272255D01*
X996223Y265810D01*
Y260439D01*
Y257754D01*
Y256143D01*
Y255069D01*
Y254531D01*
X997297Y248086D01*
X999445Y242716D01*
X1002131Y237882D01*
X1004816Y234122D01*
X1008039Y230900D01*
X1010187Y228752D01*
X1012336Y227677D01*
X1012873Y227140D01*
X1018781Y224455D01*
X1024151Y222844D01*
X1029522Y222307D01*
X1034356Y222844D01*
X1038653Y223381D01*
X1042412Y223918D01*
X1044560Y224992D01*
X1045098D01*
X1048857Y227140D01*
X1052617Y229289D01*
X1054765Y230900D01*
X1055839Y231437D01*
X1059599Y234122D01*
X1062821Y236271D01*
X1064970Y237882D01*
X1066044Y238419D01*
X1078934Y249161D01*
X1090750Y260439D01*
X1100954Y271718D01*
X1110085Y281386D01*
X1117604Y290516D01*
X1120289Y294276D01*
X1122975Y297498D01*
X1124586Y299646D01*
X1126197Y301795D01*
X1126734Y302869D01*
X1127271Y303406D01*
X1135328Y316833D01*
X1142310Y330797D01*
X1148217Y344224D01*
X1153051Y357114D01*
X1155200Y362485D01*
X1156811Y367856D01*
X1157885Y372690D01*
X1158959Y376449D01*
X1160033Y379672D01*
X1160570Y381820D01*
X1161107Y383432D01*
Y383969D01*
X1162719Y392562D01*
X1163793Y400618D01*
X1164330Y408137D01*
X1164867Y414582D01*
Y420490D01*
X1164330Y424787D01*
Y427472D01*
Y428546D01*
X1163256Y436603D01*
X1161645Y444659D01*
X1159496Y451641D01*
X1157348Y458086D01*
X1155200Y463457D01*
X1153051Y467753D01*
X1151977Y469902D01*
X1151440Y470976D01*
X1147143Y477958D01*
X1142847Y484403D01*
X1139087Y490311D01*
X1134790Y495145D01*
X1131568Y499441D01*
X1128883Y502127D01*
X1127271Y504275D01*
X1126734Y504812D01*
X1120826Y510183D01*
X1114381Y513943D01*
X1108473Y517702D01*
X1102565Y520388D01*
X1097195Y521999D01*
X1093435Y523073D01*
X1090750Y524147D01*
X1089675D01*
X1078397Y526296D01*
X1068192Y526833D01*
D02*
G37*
G36*
X894714Y363022D02*
X889881D01*
X885047Y362485D01*
X880750Y361948D01*
X877528Y360337D01*
X874305Y359263D01*
X872157Y357651D01*
X870546Y356040D01*
X869471Y355503D01*
X868934Y354966D01*
X867323Y353355D01*
X866786Y352281D01*
X865712Y349595D01*
X866249Y347984D01*
Y347447D01*
X867860Y344762D01*
X870008Y343150D01*
X871620Y342076D01*
X872694Y341539D01*
X875916Y341002D01*
X879676Y340465D01*
X886121Y341539D01*
X888806Y342076D01*
X890955Y342613D01*
X892566Y343150D01*
X893103D01*
X901159Y346910D01*
X904382Y349058D01*
X907067Y351207D01*
X909216Y353355D01*
X910827Y354429D01*
X911364Y355503D01*
X911901Y356040D01*
X908679Y358726D01*
X904919Y360337D01*
X901159Y361411D01*
X897400Y362485D01*
X894714Y363022D01*
D02*
G37*
G36*
X972591Y211028D02*
X964535Y205657D01*
X957553Y201360D01*
X954868Y199749D01*
X952719Y198138D01*
X951645Y197601D01*
X951108Y197064D01*
X943052Y192230D01*
X936070Y187933D01*
X933384Y186322D01*
X931236Y184711D01*
X929625Y184174D01*
X929088Y183637D01*
X935533Y177192D01*
X941441Y171821D01*
X943589Y169135D01*
X945737Y167524D01*
X946811Y166450D01*
X947348Y165913D01*
X954331Y158931D01*
X960238Y152486D01*
X962387Y150337D01*
X964535Y148189D01*
X965609Y147115D01*
X966146Y146578D01*
X968295Y144967D01*
X971517D01*
X974740Y147115D01*
X975814Y147652D01*
X976351Y148189D01*
X982796Y154634D01*
X988704Y160542D01*
X991389Y162690D01*
X993001Y164839D01*
X994075Y165913D01*
X994612Y166450D01*
X1002131Y173432D01*
X1008576Y179877D01*
X1011261Y182562D01*
X1013410Y184711D01*
X1015021Y185785D01*
X1015558Y186322D01*
X1010187Y187396D01*
X1004816Y189007D01*
X1000520Y190082D01*
X997297Y191693D01*
X994075Y192767D01*
X991926Y193841D01*
X990852Y194915D01*
X990315D01*
X983333Y199749D01*
X977425Y205120D01*
X975277Y207268D01*
X973665Y209417D01*
X973129Y210491D01*
X972591Y211028D01*
D02*
G37*
G36*
X590317Y385766D02*
X588990Y385688D01*
X587896Y385531D01*
X586959Y385297D01*
X586256Y385063D01*
X585787Y384907D01*
X585631Y384828D01*
X584460Y384204D01*
X583366Y383423D01*
X582429Y382641D01*
X581570Y381782D01*
X580945Y381079D01*
X580476Y380455D01*
X580164Y380064D01*
X580086Y379986D01*
Y379908D01*
X579773Y379283D01*
X579539Y378658D01*
X579383Y378111D01*
X579305Y377565D01*
Y377174D01*
Y376862D01*
X579383Y376627D01*
Y376549D01*
X579539Y375924D01*
X579851Y375456D01*
X580164Y375065D01*
X580476Y374675D01*
X580789Y374440D01*
X581023Y374284D01*
X581179Y374128D01*
X581257D01*
X581726Y373894D01*
X582195Y373737D01*
X583054Y373659D01*
X583366D01*
X583601Y373737D01*
X583835D01*
X584304Y373894D01*
X584772Y374128D01*
X585397Y374597D01*
X585866Y375065D01*
X585944Y375143D01*
X586022Y375221D01*
X586334Y375768D01*
X586647Y376237D01*
X586881Y376549D01*
X586959Y376706D01*
X587350Y377252D01*
X587662Y377721D01*
X587896Y378033D01*
X587974Y378111D01*
X588521Y378736D01*
X589068Y379205D01*
X589537Y379517D01*
X589615Y379595D01*
X589693D01*
X590083Y379752D01*
X590396Y379830D01*
X591099Y379908D01*
X591567D01*
X591723Y379830D01*
X591801D01*
X592739Y379439D01*
X593442Y378971D01*
X593832Y378580D01*
X593988Y378502D01*
Y378424D01*
X594535Y377721D01*
X594848Y376940D01*
X594926Y376627D01*
X595004Y376315D01*
X595082Y376159D01*
Y376081D01*
X595160Y375221D01*
Y374519D01*
X595082Y373972D01*
X595004Y373894D01*
Y373816D01*
X594691Y372957D01*
X594379Y372253D01*
X594067Y371785D01*
X593988Y371707D01*
Y371629D01*
X593051Y370457D01*
X591958Y369520D01*
X590864Y368739D01*
X589849Y368036D01*
X588834Y367567D01*
X588052Y367255D01*
X587740Y367099D01*
X587506Y367020D01*
X587428Y366942D01*
X587350D01*
X586490Y366708D01*
X585709Y366552D01*
X584147D01*
X582741Y366708D01*
X581492Y366942D01*
X580398Y367333D01*
X579617Y367645D01*
X579305Y367802D01*
X579070Y367958D01*
X578992Y368036D01*
X578914D01*
X578446Y368270D01*
X578289Y368426D01*
X578211D01*
X577743Y368661D01*
X577586Y368739D01*
X577508D01*
X576962Y367567D01*
X576493Y366552D01*
X576259Y366083D01*
X576180Y365771D01*
X576024Y365615D01*
Y365536D01*
X575478Y364443D01*
X575009Y363506D01*
X574853Y363115D01*
X574697Y362803D01*
X574618Y362647D01*
Y362569D01*
X574462Y362178D01*
Y362022D01*
Y361944D01*
Y361709D01*
Y361475D01*
X574540Y361397D01*
Y361319D01*
X575087Y360303D01*
X575478Y359366D01*
X575712Y358976D01*
X575790Y358663D01*
X575946Y358507D01*
Y358429D01*
X576493Y357336D01*
X577040Y356320D01*
X577196Y355930D01*
X577352Y355617D01*
X577508Y355461D01*
Y355383D01*
X577821Y355852D01*
X578055Y356242D01*
X578211Y356476D01*
X578289Y356554D01*
X578524Y356945D01*
X578758Y357257D01*
X578914Y357492D01*
X578992Y357570D01*
X579617Y358351D01*
X580164Y359054D01*
X580789Y359757D01*
X581257Y360303D01*
X581726Y360694D01*
X582117Y361006D01*
X582351Y361241D01*
X582429Y361319D01*
X583210Y361866D01*
X583991Y362334D01*
X584772Y362647D01*
X585475Y362959D01*
X586100Y363193D01*
X586568Y363350D01*
X586881Y363428D01*
X587037D01*
X588209Y363662D01*
X590239D01*
X590786Y363506D01*
X591333Y363350D01*
X592270Y362881D01*
X592583Y362647D01*
X592895Y362412D01*
X593051Y362334D01*
X593129Y362256D01*
X593910Y361475D01*
X594457Y360694D01*
X594613Y360303D01*
X594770Y360069D01*
X594848Y359913D01*
Y359835D01*
X595082Y358741D01*
X595160Y357804D01*
Y357414D01*
X595082Y357101D01*
Y356867D01*
Y356789D01*
X594926Y356242D01*
X594691Y355695D01*
X594379Y355305D01*
X594067Y354992D01*
X593598Y354524D01*
X593442Y354446D01*
X593364Y354367D01*
X592817Y354133D01*
X592270Y353977D01*
X591333Y353899D01*
X590942Y353977D01*
X590630D01*
X590474Y354055D01*
X590396D01*
X590005Y354211D01*
X589927Y354289D01*
X589849D01*
X589537Y354446D01*
X589380Y354524D01*
X588521Y354836D01*
X587662Y354992D01*
X586881D01*
X586100Y354914D01*
X585475Y354836D01*
X585006Y354680D01*
X584616Y354602D01*
X584538Y354524D01*
X583601Y354055D01*
X582820Y353508D01*
X582195Y352962D01*
X581726Y352415D01*
X581335Y351946D01*
X581101Y351556D01*
X581023Y351321D01*
X580945Y351243D01*
X580554Y350384D01*
X580320Y349603D01*
X580242Y349291D01*
X580164Y349056D01*
X580086Y348900D01*
Y348822D01*
X579930Y347885D01*
Y347104D01*
Y346713D01*
Y346479D01*
Y346323D01*
Y346245D01*
X580086Y345307D01*
X580320Y344526D01*
X580711Y343823D01*
X581179Y343199D01*
X581570Y342808D01*
X581960Y342417D01*
X582195Y342261D01*
X582273Y342183D01*
X583132Y341793D01*
X583913Y341558D01*
X585397D01*
X586022Y341636D01*
X586568Y341793D01*
X586881Y341871D01*
X586959Y341949D01*
X587506Y342261D01*
X588052Y342495D01*
X588365Y342730D01*
X588521Y342808D01*
X589146Y343199D01*
X589615Y343511D01*
X589927Y343823D01*
X590083Y343901D01*
X591958Y345463D01*
X593598Y347104D01*
X595160Y348666D01*
X596410Y350150D01*
X597503Y351399D01*
X597894Y351946D01*
X598284Y352415D01*
X598519Y352727D01*
X598753Y353040D01*
X598831Y353196D01*
X598909Y353274D01*
X600159Y355305D01*
X601174Y357336D01*
X602033Y359288D01*
X602736Y361163D01*
X602971Y361944D01*
X603283Y362725D01*
X603439Y363428D01*
X603595Y363974D01*
X603752Y364443D01*
X603830Y364756D01*
X603908Y364990D01*
Y365068D01*
X604142Y366240D01*
X604298Y367411D01*
X604376Y368504D01*
X604454Y369520D01*
Y370379D01*
X604376Y371004D01*
Y371394D01*
Y371551D01*
X604220Y372722D01*
X603986Y373816D01*
X603674Y374909D01*
X603361Y375846D01*
X603049Y376627D01*
X602736Y377174D01*
X602580Y377565D01*
X602502Y377721D01*
X601877Y378736D01*
X601330Y379674D01*
X600705Y380455D01*
X600081Y381236D01*
X599612Y381782D01*
X599221Y382251D01*
X598909Y382563D01*
X598831Y382641D01*
X597972Y383344D01*
X597035Y383969D01*
X596175Y384438D01*
X595316Y384828D01*
X594535Y385063D01*
X593988Y385297D01*
X593598Y385453D01*
X593442D01*
X591801Y385688D01*
X590317Y385766D01*
D02*
G37*
G36*
X564699Y362022D02*
X564387D01*
X563684Y361944D01*
X563059Y361787D01*
X562590Y361631D01*
X562122Y361397D01*
X561809Y361241D01*
X561575Y361006D01*
X561419Y360928D01*
X561341Y360850D01*
X561106Y360382D01*
X561028Y360069D01*
Y359757D01*
Y359679D01*
X561263Y359366D01*
X561497Y359054D01*
X561809Y358976D01*
X561887Y358898D01*
X562434Y358820D01*
X562903Y358741D01*
X563918Y358898D01*
X564309Y358976D01*
X564621Y359054D01*
X564855Y359132D01*
X564933D01*
X566027Y359679D01*
X566886Y360303D01*
X567198Y360538D01*
X567433Y360772D01*
X567511Y360928D01*
X567589Y361006D01*
X567120Y361319D01*
X566574Y361631D01*
X565480Y361866D01*
X565090Y361944D01*
X564699Y362022D01*
D02*
G37*
G36*
X576415Y339840D02*
X575243Y339137D01*
X574228Y338512D01*
X573837Y338278D01*
X573525Y338044D01*
X573369Y337965D01*
X573291Y337887D01*
X572119Y337106D01*
X571104Y336481D01*
X570713Y336247D01*
X570401Y336013D01*
X570245Y335935D01*
X570166Y335857D01*
X571026Y334997D01*
X571885Y334138D01*
X572197Y333826D01*
X572510Y333513D01*
X572666Y333357D01*
X572744Y333279D01*
X573759Y332264D01*
X574618Y331405D01*
X574931Y331092D01*
X575243Y330780D01*
X575400Y330624D01*
X575478Y330546D01*
X575790Y330311D01*
X576024Y330233D01*
X576259D01*
X576727Y330546D01*
X576884Y330624D01*
X576962Y330702D01*
X577977Y331717D01*
X578836Y332498D01*
X579148Y332889D01*
X579461Y333123D01*
X579617Y333279D01*
X579695Y333357D01*
X580711Y334373D01*
X581726Y335310D01*
X582117Y335700D01*
X582429Y336013D01*
X582585Y336169D01*
X582663Y336247D01*
X581882Y336403D01*
X581179Y336638D01*
X580554Y336794D01*
X580008Y337028D01*
X579539Y337184D01*
X579227Y337341D01*
X579070Y337497D01*
X578992D01*
X577977Y338278D01*
X577118Y339059D01*
X576805Y339371D01*
X576571Y339606D01*
X576493Y339762D01*
X576415Y339840D01*
D02*
G37*
G36*
X526662Y351399D02*
X526115D01*
X525569Y351243D01*
X525100Y351009D01*
X524865Y350696D01*
X524787Y350618D01*
X524553Y350072D01*
Y349447D01*
Y348978D01*
X524631Y348822D01*
Y348744D01*
X524865Y347963D01*
X525256Y347416D01*
X525569Y347104D01*
X525647Y346948D01*
X525725D01*
X526271Y346479D01*
X526818Y346088D01*
X527209Y345776D01*
X527287Y345698D01*
X527365D01*
X528068Y345307D01*
X528615Y345073D01*
X529083Y344917D01*
X529161Y344839D01*
X529239D01*
X530255Y344526D01*
X531114Y344214D01*
X531426Y344136D01*
X531739Y344058D01*
X531895Y343979D01*
X531973D01*
X532989Y343667D01*
X533926Y343433D01*
X534316Y343355D01*
X534629Y343277D01*
X534785Y343199D01*
X534863D01*
X534941Y343355D01*
X535019Y343433D01*
X535097Y343667D01*
X535175Y343745D01*
X534707Y344604D01*
X534238Y345463D01*
X533769Y346166D01*
X533379Y346869D01*
X532989Y347338D01*
X532676Y347807D01*
X532442Y348041D01*
X532364Y348119D01*
X531739Y348822D01*
X531036Y349447D01*
X530333Y349916D01*
X529630Y350306D01*
X529083Y350696D01*
X528615Y350931D01*
X528224Y351009D01*
X528146Y351087D01*
X527365Y351321D01*
X526662Y351399D01*
D02*
G37*
G36*
X481986Y341246D02*
X481752Y341168D01*
X481361Y341012D01*
X481049Y340777D01*
X480970Y340699D01*
X480736Y340230D01*
X480658Y339840D01*
Y339528D01*
Y339371D01*
X480814Y338903D01*
X480970Y338434D01*
X481127Y338122D01*
X481205Y338044D01*
X481908Y337106D01*
X482611Y336325D01*
X482845Y336091D01*
X483079Y335857D01*
X483236Y335779D01*
X483314Y335700D01*
X484329Y335154D01*
X485266Y334685D01*
X485657Y334529D01*
X485969Y334373D01*
X486125Y334295D01*
X486204D01*
X486907Y334060D01*
X487531Y333826D01*
X488000Y333748D01*
X488078Y333670D01*
X488156D01*
X489015Y333591D01*
X489718Y333513D01*
X490031Y333591D01*
X490499D01*
X489406Y335154D01*
X488859Y335857D01*
X488391Y336481D01*
X488000Y336950D01*
X487688Y337341D01*
X487531Y337575D01*
X487453Y337653D01*
X486125Y338903D01*
X485501Y339449D01*
X484876Y339918D01*
X484329Y340230D01*
X483860Y340465D01*
X483548Y340621D01*
X483470Y340699D01*
X483079Y340933D01*
X482611Y341090D01*
X482298Y341168D01*
X482220D01*
X481986Y341246D01*
D02*
G37*
%LPD*%
M02*
