G04*
G04 #@! TF.GenerationSoftware,Altium Limited,Altium Designer,18.1.7 (191)*
G04*
G04 Layer_Physical_Order=2*
G04 Layer_Color=16711680*
%FSLAX44Y44*%
%MOMM*%
G71*
G01*
G75*
%ADD11C,0.2000*%
%ADD13C,0.1500*%
%ADD88C,0.4000*%
%ADD125C,1.3980*%
%ADD126C,2.3550*%
%ADD127C,3.2500*%
%ADD128R,1.3980X1.3980*%
%ADD129C,1.5080*%
%ADD130R,1.5080X1.5080*%
%ADD131C,1.1520*%
%ADD132R,1.2000X2.0000*%
%ADD133R,1.2000X2.3000*%
%ADD134C,0.5080*%
%ADD135C,1.0000*%
%ADD136R,3.0000X0.3500*%
%ADD137R,3.2000X0.7000*%
%ADD138R,0.4000X0.9000*%
%ADD139R,1.5000X3.1000*%
%ADD140R,2.3000X2.1000*%
%ADD141R,1.0000X7.5000*%
%ADD142R,4.4000X1.0000*%
%ADD143R,1.3000X5.4000*%
%ADD144R,37.7000X1.0000*%
G36*
X399448Y454448D02*
X399451Y454446D01*
Y429000D01*
X399645Y428024D01*
X400198Y427198D01*
X438778Y388617D01*
X439448Y387552D01*
X438665Y386381D01*
X438391Y385000D01*
X438665Y383619D01*
X439448Y382448D01*
X440619Y381665D01*
X442000Y381391D01*
X442050Y381401D01*
X443481Y380390D01*
X443521Y380126D01*
X438944Y375549D01*
X416554D01*
X416552Y375552D01*
X415381Y376335D01*
X414000Y376609D01*
X412619Y376335D01*
X411448Y375552D01*
X410665Y374381D01*
X410391Y373000D01*
X410665Y371619D01*
X411448Y370448D01*
X412619Y369665D01*
X414000Y369391D01*
X414129Y369416D01*
X415118Y368545D01*
Y367455D01*
X414129Y366584D01*
X414000Y366609D01*
X412619Y366335D01*
X411448Y365552D01*
X410665Y364381D01*
X410391Y363000D01*
X410665Y361619D01*
X411448Y360448D01*
X412619Y359665D01*
X414000Y359391D01*
X414388Y359468D01*
X415468Y358388D01*
X415391Y358000D01*
X415665Y356619D01*
X416448Y355448D01*
X417619Y354665D01*
X419000Y354391D01*
X420381Y354665D01*
X421552Y355448D01*
X421554Y355451D01*
X441187D01*
X441673Y354278D01*
X437944Y350549D01*
X412000D01*
X411025Y350355D01*
X410198Y349802D01*
X402944Y342549D01*
X375971D01*
X375374Y343819D01*
X375609Y345000D01*
X375335Y346381D01*
X374552Y347552D01*
X373381Y348335D01*
X372000Y348609D01*
X370619Y348335D01*
X369448Y347552D01*
X368778Y346549D01*
X347950D01*
X347424Y347819D01*
X349802Y350198D01*
X350355Y351025D01*
X350422Y351361D01*
X350552Y351448D01*
X351335Y352619D01*
X351609Y354000D01*
X351335Y355381D01*
X350552Y356552D01*
X349381Y357335D01*
X348000Y357609D01*
X347612Y357532D01*
X346532Y358612D01*
X346609Y359000D01*
X346532Y359388D01*
X347612Y360468D01*
X348000Y360391D01*
X349381Y360665D01*
X350552Y361448D01*
X351335Y362619D01*
X351609Y364000D01*
X351335Y365381D01*
X350552Y366552D01*
X349381Y367335D01*
X348000Y367609D01*
X347996Y367609D01*
X346479Y369125D01*
X346519Y369390D01*
X347950Y370401D01*
X348000Y370391D01*
X349381Y370665D01*
X350552Y371448D01*
X351335Y372619D01*
X351609Y374000D01*
X351335Y375381D01*
X350552Y376552D01*
X349381Y377335D01*
X348000Y377609D01*
X346619Y377335D01*
X346505Y377259D01*
X345423Y378063D01*
X345609Y379000D01*
X345423Y379937D01*
X346505Y380741D01*
X346619Y380665D01*
X348000Y380391D01*
X349381Y380665D01*
X350552Y381448D01*
X351335Y382619D01*
X351609Y384000D01*
X351335Y385381D01*
X350552Y386552D01*
X349381Y387335D01*
X348000Y387609D01*
X346619Y387335D01*
X346505Y387259D01*
X345423Y388063D01*
X345609Y389000D01*
X345423Y389937D01*
X346505Y390741D01*
X346619Y390665D01*
X348000Y390391D01*
X349381Y390665D01*
X350552Y391448D01*
X351335Y392619D01*
X351609Y394000D01*
X351374Y395181D01*
X351971Y396451D01*
X354000D01*
X354976Y396645D01*
X355802Y397198D01*
X357802Y399198D01*
X358355Y400024D01*
X358549Y401000D01*
Y406000D01*
X358355Y406976D01*
X357802Y407802D01*
X354802Y410802D01*
X353975Y411355D01*
X353000Y411549D01*
X351970D01*
X351374Y412819D01*
X351609Y414000D01*
X351335Y415381D01*
X350552Y416552D01*
X349381Y417335D01*
X348000Y417609D01*
X346619Y417335D01*
X345448Y416552D01*
X345446Y416549D01*
X338056D01*
X320802Y433802D01*
X319975Y434355D01*
X319000Y434549D01*
X297616D01*
X296573Y435819D01*
X296609Y436000D01*
X296335Y437381D01*
X295552Y438552D01*
X294381Y439335D01*
X293000Y439609D01*
X291619Y439335D01*
X290448Y438552D01*
X289665Y437381D01*
X289391Y436000D01*
X289427Y435819D01*
X288384Y434549D01*
X233950D01*
X233424Y435819D01*
X242056Y444451D01*
X323446D01*
X323448Y444448D01*
X324619Y443665D01*
X326000Y443391D01*
X327381Y443665D01*
X328552Y444448D01*
X329335Y445619D01*
X329609Y447000D01*
X329335Y448381D01*
X328552Y449552D01*
X327381Y450335D01*
X326000Y450609D01*
X324619Y450335D01*
X323448Y449552D01*
X323446Y449549D01*
X242813D01*
X242327Y450722D01*
X247056Y455451D01*
X398778D01*
X399448Y454448D01*
D02*
G37*
G36*
X313391Y411004D02*
X313391Y411000D01*
X313665Y409619D01*
X314200Y408819D01*
X313717Y407638D01*
X313637Y407549D01*
X252056D01*
X243802Y415802D01*
X243089Y416279D01*
X242920Y416646D01*
X242721Y417701D01*
X243335Y418619D01*
X243609Y420000D01*
X243609Y420004D01*
X245056Y421451D01*
X302944D01*
X313391Y411004D01*
D02*
G37*
G36*
X755000Y502000D02*
Y455184D01*
X754893Y455140D01*
X753109Y453771D01*
X751740Y451987D01*
X750880Y449909D01*
X750586Y447680D01*
X750880Y445451D01*
X751740Y443373D01*
X753109Y441589D01*
X754893Y440220D01*
X755000Y440176D01*
X755000Y296549D01*
X687056D01*
X622802Y360802D01*
X621976Y361355D01*
X621000Y361549D01*
X621000Y361549D01*
X584056D01*
X573802Y371802D01*
X572976Y372355D01*
X572000Y372549D01*
X562601D01*
X561900Y373181D01*
X562226Y374451D01*
X574000D01*
X574348Y374520D01*
X575000Y374391D01*
X576381Y374665D01*
X577552Y375448D01*
X578335Y376619D01*
X578609Y378000D01*
X578335Y379381D01*
X577552Y380552D01*
X576381Y381335D01*
X575000Y381609D01*
X573619Y381335D01*
X572448Y380552D01*
X571777Y379549D01*
X561822D01*
X561762Y379701D01*
X561611Y380819D01*
X562552Y381448D01*
X563335Y382619D01*
X563609Y384000D01*
X563335Y385381D01*
X562552Y386552D01*
X561381Y387335D01*
X560000Y387609D01*
X558619Y387335D01*
X557448Y386552D01*
X556665Y385381D01*
X556638Y385243D01*
X549198Y377802D01*
X548645Y376976D01*
X548451Y376000D01*
Y354000D01*
X548645Y353025D01*
X549198Y352198D01*
X550025Y351645D01*
X551000Y351451D01*
X563451D01*
Y331000D01*
X563645Y330024D01*
X564198Y329198D01*
X567392Y326004D01*
X567391Y326000D01*
X567665Y324619D01*
X568448Y323448D01*
X569619Y322665D01*
X571000Y322391D01*
X572381Y322665D01*
X573552Y323448D01*
X574335Y324619D01*
X574609Y326000D01*
X574335Y327381D01*
X573552Y328552D01*
X572381Y329334D01*
X571000Y329609D01*
X570996Y329608D01*
X569479Y331125D01*
X569520Y331414D01*
X570916Y332407D01*
X571000Y332391D01*
X572381Y332665D01*
X573552Y333448D01*
X574335Y334619D01*
X574609Y336000D01*
X574335Y337381D01*
X573552Y338552D01*
X573549Y338554D01*
Y357050D01*
X574819Y357576D01*
X579198Y353198D01*
X580024Y352645D01*
X581000Y352451D01*
X617944D01*
X681375Y289020D01*
X680849Y287750D01*
X233000Y287750D01*
Y295000D01*
X211000Y295000D01*
X203000Y303000D01*
X201000D01*
Y327000D01*
X213000D01*
X233000Y307000D01*
Y307736D01*
X234173Y308222D01*
X243198Y299198D01*
X244025Y298645D01*
X245000Y298451D01*
X432839D01*
X433814Y298645D01*
X434641Y299198D01*
X449802Y314359D01*
X450355Y315186D01*
X450549Y316161D01*
Y323944D01*
X453180Y326575D01*
X454558Y326157D01*
X454665Y325619D01*
X455448Y324448D01*
X456619Y323665D01*
X457454Y323499D01*
X461431Y319522D01*
Y308000D01*
X461703Y306634D01*
X462477Y305477D01*
X463634Y304703D01*
X465000Y304431D01*
X479000D01*
X480366Y304703D01*
X481523Y305477D01*
X482297Y306634D01*
X482569Y308000D01*
Y326522D01*
X485478Y329431D01*
X493000D01*
X494366Y329703D01*
X495523Y330477D01*
X499378Y334332D01*
X499552Y334448D01*
X500335Y335619D01*
X500609Y337000D01*
X500335Y338381D01*
X500259Y338495D01*
X501063Y339577D01*
X502000Y339391D01*
X503381Y339665D01*
X504552Y340448D01*
X505335Y341619D01*
X505609Y343000D01*
X505335Y344381D01*
X504552Y345552D01*
X503381Y346335D01*
X502165Y346576D01*
X501704Y347155D01*
X501366Y347778D01*
X501609Y349000D01*
X501335Y350381D01*
X500637Y351425D01*
X500578Y351711D01*
X500777Y352930D01*
X501552Y353448D01*
X502335Y354619D01*
X502353Y354709D01*
X503647D01*
X503665Y354619D01*
X504448Y353448D01*
X505619Y352665D01*
X507000Y352391D01*
X508381Y352665D01*
X509552Y353448D01*
X510335Y354619D01*
X510609Y356000D01*
X510335Y357381D01*
X509552Y358552D01*
X508381Y359335D01*
X508291Y359353D01*
Y360647D01*
X508381Y360665D01*
X509552Y361448D01*
X510335Y362619D01*
X510442Y363157D01*
X511820Y363575D01*
X515451Y359944D01*
Y327000D01*
X515645Y326025D01*
X516198Y325198D01*
X539198Y302198D01*
X540024Y301645D01*
X541000Y301451D01*
X584000D01*
X584976Y301645D01*
X585802Y302198D01*
X598056Y314451D01*
X615446D01*
X615448Y314448D01*
X616619Y313665D01*
X618000Y313391D01*
X619381Y313665D01*
X620552Y314448D01*
X621335Y315619D01*
X621609Y317000D01*
X621335Y318381D01*
X622003Y319667D01*
X622423Y319796D01*
X622619Y319665D01*
X624000Y319391D01*
X625381Y319665D01*
X626552Y320448D01*
X627335Y321619D01*
X627609Y323000D01*
X627335Y324381D01*
X626552Y325552D01*
X625381Y326335D01*
X624000Y326609D01*
X622619Y326335D01*
X622423Y326204D01*
X622003Y326333D01*
X621335Y327619D01*
X621609Y329000D01*
X621335Y330381D01*
X620552Y331552D01*
X620277Y331736D01*
Y333264D01*
X620552Y333448D01*
X621335Y334619D01*
X621609Y336000D01*
X621335Y337381D01*
X620552Y338552D01*
X619381Y339335D01*
X618000Y339609D01*
X616619Y339335D01*
X615448Y338552D01*
X615446Y338549D01*
X598000D01*
X597024Y338355D01*
X596198Y337802D01*
X576944Y318549D01*
X548056D01*
X532549Y334056D01*
Y367000D01*
X532355Y367975D01*
X531802Y368802D01*
X516802Y383802D01*
X515975Y384355D01*
X515000Y384549D01*
X497950D01*
X497424Y385819D01*
X500802Y389198D01*
X501355Y390024D01*
X501549Y391000D01*
Y391777D01*
X502552Y392448D01*
X503335Y393619D01*
X503609Y395000D01*
X503335Y396381D01*
X502552Y397552D01*
X501381Y398335D01*
X500000Y398609D01*
X498778Y398366D01*
X498156Y398704D01*
X497576Y399165D01*
X497335Y400381D01*
X496552Y401552D01*
X495381Y402335D01*
X494000Y402609D01*
X492619Y402335D01*
X492505Y402259D01*
X491507Y403000D01*
X491437Y403132D01*
X491609Y404000D01*
X491335Y405381D01*
X490552Y406552D01*
X489381Y407335D01*
X488000Y407609D01*
X486619Y407335D01*
X485448Y406552D01*
X485264Y406277D01*
X483736D01*
X483552Y406552D01*
X482381Y407335D01*
X481000Y407609D01*
X479619Y407335D01*
X478448Y406552D01*
X478446Y406549D01*
X464056D01*
X434425Y436180D01*
X434843Y437558D01*
X435381Y437665D01*
X436552Y438448D01*
X437335Y439619D01*
X437609Y441000D01*
X437335Y442381D01*
X436552Y443552D01*
X436549Y443554D01*
Y473000D01*
X436355Y473975D01*
X435802Y474802D01*
X424183Y486422D01*
X424669Y487595D01*
X428800D01*
X430198Y486198D01*
X431025Y485645D01*
X431361Y485578D01*
X431448Y485448D01*
X432619Y484665D01*
X434000Y484391D01*
X435381Y484665D01*
X436552Y485448D01*
X437335Y486619D01*
X437379Y486843D01*
X438618Y487256D01*
X439451Y486576D01*
Y457000D01*
X439645Y456025D01*
X440198Y455198D01*
X476391Y419004D01*
X476391Y419000D01*
X476665Y417619D01*
X477448Y416448D01*
X478619Y415665D01*
X480000Y415391D01*
X480004Y415391D01*
X483198Y412198D01*
X484025Y411645D01*
X485000Y411451D01*
X487446D01*
X487448Y411448D01*
X488619Y410665D01*
X490000Y410391D01*
X491381Y410665D01*
X492552Y411448D01*
X493335Y412619D01*
X493609Y414000D01*
X493335Y415381D01*
X492637Y416425D01*
X492578Y416711D01*
X492777Y417930D01*
X493552Y418448D01*
X494335Y419619D01*
X494371Y419800D01*
X494855Y420524D01*
X495049Y421500D01*
X494855Y422475D01*
X494302Y423302D01*
X493802Y423802D01*
X492975Y424355D01*
X492000Y424549D01*
X491304D01*
X491000Y424609D01*
X490696Y424549D01*
X488056D01*
X467222Y445383D01*
X466552Y446448D01*
X467335Y447619D01*
X467609Y449000D01*
X467335Y450381D01*
X466552Y451552D01*
X465381Y452335D01*
X464000Y452609D01*
X462619Y452335D01*
X461448Y451552D01*
X460665Y450381D01*
X460391Y449000D01*
X460665Y447619D01*
X461448Y446448D01*
X461451Y446446D01*
Y445000D01*
X461645Y444025D01*
X462198Y443198D01*
X481521Y423875D01*
X481481Y423610D01*
X480050Y422599D01*
X480000Y422609D01*
X479996Y422609D01*
X444549Y458056D01*
Y488000D01*
X444355Y488975D01*
X443802Y489802D01*
X440135Y493470D01*
X440621Y494643D01*
X444752D01*
X497451Y441944D01*
Y429304D01*
X497391Y429000D01*
X497665Y427619D01*
X498448Y426448D01*
X499619Y425665D01*
X501000Y425391D01*
X501388Y425468D01*
X502468Y424388D01*
X502391Y424000D01*
X502665Y422619D01*
X503448Y421448D01*
X503451Y421446D01*
Y415000D01*
X503645Y414025D01*
X504198Y413198D01*
X506451Y410944D01*
Y401554D01*
X506448Y401552D01*
X505665Y400381D01*
X505391Y399000D01*
X505665Y397619D01*
X506448Y396448D01*
X507619Y395665D01*
X509000Y395391D01*
X510381Y395665D01*
X511552Y396448D01*
X512335Y397619D01*
X512609Y399000D01*
X512335Y400381D01*
X511552Y401552D01*
X511549Y401554D01*
Y412000D01*
X511355Y412976D01*
X510802Y413802D01*
X508549Y416056D01*
Y421446D01*
X508552Y421448D01*
X509335Y422619D01*
X509609Y424000D01*
X509335Y425381D01*
X508552Y426552D01*
X508549Y426554D01*
Y443000D01*
X508355Y443975D01*
X507802Y444802D01*
X451778Y500827D01*
X452264Y502000D01*
X755000Y502000D01*
D02*
G37*
G36*
X329576Y382819D02*
X329050Y381549D01*
X290056D01*
X283424Y388181D01*
X283950Y389451D01*
X322944D01*
X329576Y382819D01*
D02*
G37*
G36*
X487448Y346448D02*
X488619Y345665D01*
X490000Y345391D01*
X490613Y344218D01*
X488944Y342549D01*
X484000D01*
X483025Y342355D01*
X482198Y341802D01*
X470198Y329802D01*
X469645Y328975D01*
X469451Y328000D01*
Y322750D01*
X468881Y322561D01*
X468181Y322539D01*
X467523Y323523D01*
X461523Y329523D01*
X460366Y330297D01*
X459000Y330569D01*
X458969D01*
X458443Y331839D01*
X467996Y341391D01*
X468000Y341391D01*
X469381Y341665D01*
X470552Y342448D01*
X471335Y343619D01*
X471609Y345000D01*
X471374Y346181D01*
X471970Y347451D01*
X486777D01*
X487448Y346448D01*
D02*
G37*
%LPC*%
G36*
X340000Y445818D02*
X338235Y445586D01*
X336591Y444905D01*
X335179Y443821D01*
X334095Y442409D01*
X333414Y440765D01*
X333182Y439000D01*
X333414Y437235D01*
X334095Y435591D01*
X335179Y434179D01*
X336591Y433095D01*
X338235Y432414D01*
X340000Y432182D01*
X341765Y432414D01*
X343409Y433095D01*
X344821Y434179D01*
X345905Y435591D01*
X346586Y437235D01*
X346818Y439000D01*
X346586Y440765D01*
X345905Y442409D01*
X344821Y443821D01*
X343409Y444905D01*
X341765Y445586D01*
X340000Y445818D01*
D02*
G37*
G36*
X639040Y494040D02*
X631770D01*
Y481270D01*
X639040D01*
Y494040D01*
D02*
G37*
G36*
X552540D02*
X545270D01*
Y481270D01*
X552540D01*
Y494040D01*
D02*
G37*
G36*
X629230D02*
X621960D01*
Y481270D01*
X629230D01*
Y494040D01*
D02*
G37*
G36*
X542730D02*
X535460D01*
Y481270D01*
X542730D01*
Y494040D01*
D02*
G37*
G36*
X639040Y478730D02*
X631770D01*
Y465960D01*
X639040D01*
Y478730D01*
D02*
G37*
G36*
X629230D02*
X621960D01*
Y465960D01*
X629230D01*
Y478730D01*
D02*
G37*
G36*
X552540D02*
X545270D01*
Y465960D01*
X552540D01*
Y478730D01*
D02*
G37*
G36*
X542730D02*
X535460D01*
Y465960D01*
X542730D01*
Y478730D01*
D02*
G37*
G36*
X668000Y499609D02*
X666619Y499335D01*
X665448Y498552D01*
X664665Y497381D01*
X664391Y496000D01*
X664665Y494619D01*
X665448Y493448D01*
X666451Y492777D01*
Y472000D01*
X666645Y471025D01*
X667198Y470198D01*
X681198Y456198D01*
X682025Y455645D01*
X683000Y455451D01*
X710446D01*
X710448Y455448D01*
X711619Y454665D01*
X713000Y454391D01*
X714381Y454665D01*
X715552Y455448D01*
X716335Y456619D01*
X716609Y458000D01*
X716335Y459381D01*
X715552Y460552D01*
X714381Y461335D01*
X713000Y461609D01*
X711619Y461335D01*
X710448Y460552D01*
X710446Y460549D01*
X684056D01*
X671549Y473056D01*
Y495000D01*
X671480Y495348D01*
X671609Y496000D01*
X671335Y497381D01*
X670552Y498552D01*
X669381Y499335D01*
X668000Y499609D01*
D02*
G37*
G36*
X629230Y453940D02*
X621960D01*
Y451532D01*
X620690Y451146D01*
X620364Y451634D01*
X618958Y452573D01*
X617300Y452903D01*
X615642Y452573D01*
X614236Y451634D01*
X613297Y450228D01*
X612967Y448570D01*
X613297Y446912D01*
X614236Y445506D01*
X615642Y444566D01*
X617300Y444237D01*
X618958Y444566D01*
X620364Y445506D01*
X620690Y445994D01*
X621960Y445608D01*
Y442670D01*
X629230D01*
Y453940D01*
D02*
G37*
G36*
X639040D02*
X631770D01*
Y442670D01*
X639040D01*
Y453940D01*
D02*
G37*
G36*
Y440130D02*
X631770D01*
Y428860D01*
X639040D01*
Y440130D01*
D02*
G37*
G36*
X629230D02*
X621960D01*
Y428860D01*
X629230D01*
Y440130D01*
D02*
G37*
G36*
X552540D02*
X545270D01*
Y428860D01*
X552540D01*
Y440130D01*
D02*
G37*
G36*
X508000Y497609D02*
X506619Y497335D01*
X505448Y496552D01*
X504665Y495381D01*
X504391Y494000D01*
X504520Y493348D01*
X504451Y493000D01*
Y464554D01*
X504448Y464552D01*
X503665Y463381D01*
X503391Y462000D01*
X503665Y460619D01*
X504448Y459448D01*
X505619Y458665D01*
X507000Y458391D01*
X507838Y458557D01*
X513451Y452944D01*
Y421000D01*
X513645Y420024D01*
X514198Y419198D01*
X518214Y415181D01*
X517852Y413884D01*
X517728Y413586D01*
X517500Y413357D01*
Y413034D01*
X517376Y412736D01*
Y390000D01*
X517852Y388852D01*
X519000Y388376D01*
X526376Y388376D01*
Y382000D01*
X526852Y380852D01*
X527303Y380665D01*
X527448Y380448D01*
X528619Y379665D01*
X530000Y379391D01*
X531381Y379665D01*
X532552Y380448D01*
X532698Y380665D01*
X533148Y380852D01*
X533624Y382000D01*
Y391000D01*
X533148Y392148D01*
X532698Y392335D01*
X532623Y392445D01*
Y398082D01*
X533000Y398391D01*
X534381Y398665D01*
X535552Y399448D01*
X536335Y400619D01*
X536609Y402000D01*
X536335Y403381D01*
X535552Y404552D01*
X535549Y404554D01*
Y428860D01*
X542730D01*
Y441400D01*
X544000D01*
Y442670D01*
X552540D01*
Y445758D01*
X553810Y446143D01*
X554236Y445506D01*
X555642Y444566D01*
X557300Y444237D01*
X558958Y444566D01*
X560364Y445506D01*
X561303Y446912D01*
X561633Y448570D01*
X561303Y450228D01*
X560364Y451634D01*
X560052Y451843D01*
X560359Y453165D01*
X561128Y453267D01*
X566391Y448004D01*
X566391Y448000D01*
X566665Y446619D01*
X567448Y445448D01*
X568619Y444665D01*
X570000Y444391D01*
X571381Y444665D01*
X572552Y445448D01*
X573053Y446198D01*
X574313Y446065D01*
X574398Y445003D01*
X555944Y426549D01*
X549000D01*
X548024Y426355D01*
X547198Y425802D01*
X544004Y422609D01*
X544000Y422609D01*
X542619Y422335D01*
X541448Y421552D01*
X540665Y420381D01*
X540391Y419000D01*
X540665Y417619D01*
X541448Y416448D01*
X542619Y415665D01*
X544000Y415391D01*
X544073Y415405D01*
X544837Y414262D01*
X544645Y413975D01*
X544451Y413000D01*
Y410554D01*
X544448Y410552D01*
X543665Y409381D01*
X543391Y408000D01*
X543665Y406619D01*
X544448Y405448D01*
X545619Y404665D01*
X547000Y404391D01*
X548381Y404665D01*
X549552Y405448D01*
X550335Y406619D01*
X550609Y408000D01*
X550335Y409381D01*
X549552Y410552D01*
X549549Y410554D01*
Y411944D01*
X552996Y415391D01*
X553000Y415391D01*
X554381Y415665D01*
X555552Y416448D01*
X556335Y417619D01*
X556609Y419000D01*
X556374Y420181D01*
X556722Y420922D01*
X557130Y421477D01*
X557975Y421645D01*
X558802Y422198D01*
X578802Y442198D01*
X579355Y443025D01*
X579549Y444000D01*
Y448446D01*
X579552Y448448D01*
X580335Y449619D01*
X580609Y451000D01*
X580335Y452381D01*
X579552Y453552D01*
X578381Y454335D01*
X577000Y454609D01*
X575619Y454335D01*
X574448Y453552D01*
X573665Y452381D01*
X573461Y451356D01*
X573375Y451279D01*
X572465Y450862D01*
X572158Y450816D01*
X571381Y451335D01*
X570000Y451609D01*
X569996Y451609D01*
X563802Y457802D01*
X562976Y458355D01*
X562000Y458549D01*
X537000D01*
X536025Y458355D01*
X535198Y457802D01*
X533797Y456402D01*
X532624Y456888D01*
Y466000D01*
X532148Y467148D01*
X531239Y467525D01*
X530552Y468552D01*
X529381Y469335D01*
X528000Y469609D01*
X526619Y469335D01*
X525885Y468844D01*
X525000Y468650D01*
X524115Y468844D01*
X523381Y469335D01*
X522000Y469609D01*
X520619Y469335D01*
X519448Y468552D01*
X518761Y467525D01*
X517852Y467148D01*
X517376Y466000D01*
Y457888D01*
X516203Y457402D01*
X510362Y463243D01*
X510335Y463381D01*
X509552Y464552D01*
X509549Y464554D01*
Y490778D01*
X510552Y491448D01*
X511335Y492619D01*
X511609Y494000D01*
X511335Y495381D01*
X510552Y496552D01*
X509381Y497335D01*
X508000Y497609D01*
D02*
G37*
G36*
X704000Y399609D02*
X702619Y399335D01*
X701448Y398552D01*
X701446Y398549D01*
X689554D01*
X689552Y398552D01*
X688381Y399335D01*
X687000Y399609D01*
X685619Y399335D01*
X684448Y398552D01*
X683665Y397381D01*
X683391Y396000D01*
X683665Y394619D01*
X684448Y393448D01*
X685619Y392665D01*
X687000Y392391D01*
X688381Y392665D01*
X689552Y393448D01*
X689554Y393451D01*
X701446D01*
X701448Y393448D01*
X701451Y393446D01*
Y372554D01*
X701448Y372552D01*
X700665Y371381D01*
X700391Y370000D01*
X700665Y368619D01*
X701448Y367448D01*
X702619Y366665D01*
X704000Y366391D01*
X705381Y366665D01*
X706552Y367448D01*
X707335Y368619D01*
X707609Y370000D01*
X707335Y371381D01*
X706552Y372552D01*
X706549Y372554D01*
Y393446D01*
X706552Y393448D01*
X707335Y394619D01*
X707609Y396000D01*
X707335Y397381D01*
X706552Y398552D01*
X705381Y399335D01*
X704000Y399609D01*
D02*
G37*
G36*
X551000D02*
X549619Y399335D01*
X548448Y398552D01*
X547665Y397381D01*
X547391Y396000D01*
X547665Y394619D01*
X548448Y393448D01*
X549619Y392665D01*
X551000Y392391D01*
X552381Y392665D01*
X553552Y393448D01*
X553554Y393451D01*
X596944D01*
X617391Y373004D01*
X617391Y373000D01*
X617665Y371619D01*
X618448Y370448D01*
X619619Y369665D01*
X621000Y369391D01*
X622381Y369665D01*
X623552Y370448D01*
X624335Y371619D01*
X624609Y373000D01*
X624335Y374381D01*
X623552Y375552D01*
X622381Y376335D01*
X621000Y376609D01*
X620996Y376609D01*
X599802Y397802D01*
X598975Y398355D01*
X598000Y398549D01*
X553554D01*
X553552Y398552D01*
X552381Y399335D01*
X551000Y399609D01*
D02*
G37*
G36*
X722000Y406609D02*
X720619Y406334D01*
X719448Y405552D01*
X718665Y404381D01*
X718391Y403000D01*
X718665Y401619D01*
X719448Y400448D01*
X719451Y400446D01*
Y376056D01*
X707198Y363802D01*
X706645Y362975D01*
X706451Y362000D01*
Y348056D01*
X683757Y325362D01*
X683619Y325335D01*
X682448Y324552D01*
X681665Y323381D01*
X681391Y322000D01*
X681665Y320619D01*
X682448Y319448D01*
X683619Y318665D01*
X683709Y318647D01*
Y317353D01*
X683619Y317335D01*
X682448Y316552D01*
X681665Y315381D01*
X681391Y314000D01*
X681665Y312619D01*
X682448Y311448D01*
X683619Y310665D01*
X685000Y310391D01*
X686381Y310665D01*
X687552Y311448D01*
X688335Y312619D01*
X688609Y314000D01*
X688609Y314004D01*
X715802Y341198D01*
X716355Y342025D01*
X716549Y343000D01*
Y356944D01*
X721162Y361557D01*
X722000Y361391D01*
X723381Y361665D01*
X724552Y362448D01*
X725335Y363619D01*
X725609Y365000D01*
X725335Y366381D01*
X724552Y367552D01*
X723381Y368335D01*
X722000Y368609D01*
X721950Y368599D01*
X720519Y369609D01*
X720479Y369874D01*
X723802Y373198D01*
X724355Y374025D01*
X724549Y375000D01*
Y400446D01*
X724552Y400448D01*
X725335Y401619D01*
X725609Y403000D01*
X725335Y404381D01*
X724552Y405552D01*
X723381Y406334D01*
X722000Y406609D01*
D02*
G37*
G36*
Y356609D02*
X721348Y356480D01*
X721000Y356549D01*
X720025Y356355D01*
X719198Y355802D01*
X718645Y354975D01*
X718451Y354000D01*
Y353303D01*
X718391Y353000D01*
X718665Y351619D01*
X719448Y350448D01*
X719451Y350446D01*
Y329554D01*
X719448Y329552D01*
X718665Y328381D01*
X718391Y327000D01*
X718665Y325619D01*
X719448Y324448D01*
X720619Y323665D01*
X722000Y323391D01*
X723381Y323665D01*
X724552Y324448D01*
X725335Y325619D01*
X725609Y327000D01*
X725335Y328381D01*
X724552Y329552D01*
X724549Y329554D01*
Y350446D01*
X724552Y350448D01*
X725335Y351619D01*
X725609Y353000D01*
X725335Y354381D01*
X724552Y355552D01*
X723381Y356334D01*
X722000Y356609D01*
D02*
G37*
G36*
X697000D02*
X695619Y356334D01*
X694448Y355552D01*
X693665Y354381D01*
X693391Y353000D01*
X693665Y351619D01*
X694448Y350448D01*
X695619Y349665D01*
X697000Y349391D01*
X698381Y349665D01*
X699552Y350448D01*
X700335Y351619D01*
X700609Y353000D01*
X700335Y354381D01*
X699552Y355552D01*
X698381Y356334D01*
X697000Y356609D01*
D02*
G37*
G36*
X547000Y336609D02*
X545619Y336335D01*
X544448Y335552D01*
X543665Y334381D01*
X543391Y333000D01*
X543665Y331619D01*
X544448Y330448D01*
X545619Y329665D01*
X547000Y329391D01*
X548381Y329665D01*
X549552Y330448D01*
X550335Y331619D01*
X550609Y333000D01*
X550335Y334381D01*
X549552Y335552D01*
X548381Y336335D01*
X547000Y336609D01*
D02*
G37*
G36*
X651000Y376609D02*
X649619Y376335D01*
X648448Y375552D01*
X647665Y374381D01*
X647391Y373000D01*
X647665Y371619D01*
X648448Y370448D01*
X649619Y369665D01*
X651000Y369391D01*
X652381Y369665D01*
X653552Y370448D01*
X653554Y370451D01*
X654944D01*
X662392Y363004D01*
X662391Y363000D01*
X662665Y361619D01*
X663448Y360448D01*
X663451Y360446D01*
Y350554D01*
X663448Y350552D01*
X662665Y349381D01*
X662391Y348000D01*
X662665Y346619D01*
X663448Y345448D01*
X663451Y345446D01*
Y331554D01*
X663448Y331552D01*
X662665Y330381D01*
X662391Y329000D01*
X662665Y327619D01*
X663448Y326448D01*
X664619Y325665D01*
X666000Y325391D01*
X667381Y325665D01*
X668552Y326448D01*
X669335Y327619D01*
X669609Y329000D01*
X669335Y330381D01*
X668552Y331552D01*
X668549Y331554D01*
Y345446D01*
X668552Y345448D01*
X669335Y346619D01*
X669609Y348000D01*
X669335Y349381D01*
X668552Y350552D01*
X668549Y350554D01*
Y360446D01*
X668552Y360448D01*
X669335Y361619D01*
X669609Y363000D01*
X669335Y364381D01*
X668552Y365552D01*
X667381Y366334D01*
X666000Y366609D01*
X665996Y366609D01*
X657802Y374802D01*
X656975Y375355D01*
X656000Y375549D01*
X653554D01*
X653552Y375552D01*
X652381Y376335D01*
X651000Y376609D01*
D02*
G37*
G36*
X510000Y341609D02*
X508619Y341335D01*
X507448Y340552D01*
X506665Y339381D01*
X506391Y338000D01*
X506557Y337162D01*
X497198Y327802D01*
X496645Y326975D01*
X496451Y326000D01*
Y314554D01*
X496448Y314552D01*
X495665Y313381D01*
X495391Y312000D01*
X495665Y310619D01*
X496448Y309448D01*
X497619Y308665D01*
X499000Y308391D01*
X500381Y308665D01*
X501552Y309448D01*
X502335Y310619D01*
X502609Y312000D01*
X502335Y313381D01*
X501552Y314552D01*
X501549Y314554D01*
Y324944D01*
X510802Y334198D01*
X511074Y334604D01*
X511381Y334665D01*
X512552Y335448D01*
X513335Y336619D01*
X513609Y338000D01*
X513335Y339381D01*
X512552Y340552D01*
X511381Y341335D01*
X510000Y341609D01*
D02*
G37*
%LPD*%
G36*
X531000Y453507D02*
X530645Y452976D01*
X530451Y452000D01*
Y439554D01*
X530448Y439552D01*
X529665Y438381D01*
X529391Y437000D01*
X529665Y435619D01*
X530448Y434448D01*
X530451Y434446D01*
Y404554D01*
X530448Y404552D01*
X529665Y403381D01*
X529391Y402000D01*
X529665Y400619D01*
X530448Y399448D01*
X531000Y399079D01*
Y390000D01*
X519000Y390000D01*
Y412736D01*
X520173Y413222D01*
X521451Y411944D01*
Y397554D01*
X521448Y397552D01*
X520665Y396381D01*
X520391Y395000D01*
X520665Y393619D01*
X521448Y392448D01*
X522619Y391665D01*
X524000Y391391D01*
X525381Y391665D01*
X526552Y392448D01*
X527335Y393619D01*
X527609Y395000D01*
X527335Y396381D01*
X526552Y397552D01*
X526549Y397554D01*
Y413000D01*
X526355Y413975D01*
X525802Y414802D01*
X519000Y421605D01*
Y466000D01*
X531000Y466000D01*
Y453507D01*
D02*
G37*
D11*
X462000Y461000D02*
X463000Y462000D01*
X533000Y437000D02*
Y446000D01*
Y452000D01*
X569000Y449000D02*
X570000D01*
X533000Y452000D02*
X537000Y456000D01*
X533000Y402000D02*
Y437000D01*
X506000Y415000D02*
X509000Y412000D01*
Y399000D02*
Y412000D01*
X506000Y415000D02*
Y424000D01*
X524000Y395000D02*
Y413000D01*
X516000Y421000D02*
X524000Y413000D01*
X516000Y421000D02*
Y454000D01*
X794000Y349000D02*
Y362000D01*
X784000Y339000D02*
X794000Y349000D01*
X784000Y302000D02*
Y339000D01*
X442000Y386000D02*
Y389000D01*
X402000Y429000D02*
X442000Y389000D01*
X402000Y429000D02*
Y457000D01*
X447000Y389000D02*
Y390000D01*
X407000Y430000D02*
X447000Y390000D01*
X407000Y430000D02*
Y461000D01*
X537000Y456000D02*
X562000D01*
X668000Y496000D02*
X669000Y495000D01*
Y472000D02*
Y495000D01*
Y472000D02*
X683000Y458000D01*
X713000D01*
X806000Y365000D02*
X822000D01*
X805000D02*
X806000D01*
X822000D02*
X848000Y391000D01*
X974000Y425000D02*
X978000Y421000D01*
X930000Y400000D02*
X955000Y425000D01*
X903000Y400000D02*
X930000D01*
X828000D02*
X903000D01*
X806000Y378000D02*
X828000Y400000D01*
X990000Y432000D02*
X992000Y434000D01*
X928000Y404000D02*
X956000Y432000D01*
X806000Y404000D02*
X928000D01*
X965000Y410000D02*
X997000D01*
X912000Y320000D02*
Y357000D01*
X826000Y320000D02*
X912000D01*
X806000Y340000D02*
X826000Y320000D01*
X916000Y315000D02*
Y355000D01*
X806000Y315000D02*
X916000D01*
X965000Y410000D02*
X965000D01*
X912000Y357000D02*
X965000Y410000D01*
X916000Y355000D02*
X941000Y380000D01*
X928000Y349000D02*
X940000Y337000D01*
Y305000D02*
Y337000D01*
X929000Y294000D02*
X940000Y305000D01*
X898000Y294000D02*
X929000D01*
X894000D02*
X898000D01*
X686000Y294000D02*
X898000Y294000D01*
X254000Y392000D02*
X324000D01*
X273000Y380000D02*
X283000Y370000D01*
X251000Y405000D02*
X348000D01*
X242000Y414000D02*
X251000Y405000D01*
X236000Y414000D02*
X242000D01*
X236000Y426000D02*
X238000Y428000D01*
X315000D02*
X329000Y414000D01*
X238000Y428000D02*
X315000D01*
X304000Y424000D02*
X317000Y411000D01*
X244000Y424000D02*
X304000D01*
X240000Y420000D02*
X244000Y424000D01*
X317000Y411000D02*
X317000D01*
X247000Y401000D02*
X327000D01*
X240000Y408000D02*
X247000Y401000D01*
X236000Y400000D02*
Y402000D01*
X239000Y397000D02*
X325000D01*
X236000Y400000D02*
X239000Y397000D01*
X329000Y414000D02*
X334000Y409000D01*
X319000Y432000D02*
X337000Y414000D01*
X293000Y432000D02*
X319000D01*
X293000D02*
Y436000D01*
X232000Y432000D02*
X293000D01*
X241000Y447000D02*
X326000D01*
X246000Y458000D02*
X401000D01*
X218000Y430000D02*
X246000Y458000D01*
X239000Y380000D02*
X273000D01*
X214000Y405000D02*
X239000Y380000D01*
Y462000D02*
X407000D01*
X315000Y387000D02*
X316000Y386000D01*
X304000Y387000D02*
X315000D01*
X332000Y384000D02*
X347000D01*
X324000Y392000D02*
X332000Y384000D01*
X333000Y389000D02*
X340000D01*
X325000Y397000D02*
X333000Y389000D01*
X289000Y379000D02*
X341000D01*
X281000Y387000D02*
X289000Y379000D01*
X243000Y387000D02*
X281000D01*
X261000Y364000D02*
X263000D01*
X348000Y352000D02*
Y354000D01*
X345000Y349000D02*
X348000Y352000D01*
X303000Y349000D02*
X345000D01*
X270000Y357000D02*
X295000D01*
X263000Y364000D02*
X270000Y357000D01*
X266000Y371000D02*
X270000Y367000D01*
X257000Y371000D02*
X266000D01*
X241500Y383500D02*
X278500D01*
X215000Y410000D02*
X241500Y383500D01*
X198000Y410000D02*
X215000D01*
X197000Y405000D02*
X214000D01*
X272484Y372516D02*
X279000Y366000D01*
X238000Y376000D02*
X269000D01*
X214000Y400000D02*
X238000Y376000D01*
X196000Y400000D02*
X214000D01*
X242000Y356000D02*
Y367000D01*
X214000Y395000D02*
X242000Y367000D01*
X197000Y395000D02*
X214000D01*
X215000Y415000D02*
X243000Y387000D01*
X196000Y415000D02*
X215000D01*
X275000Y362000D02*
X296000D01*
X270000Y367000D02*
X275000Y362000D01*
X270000Y367000D02*
X270000D01*
X304000Y354000D02*
X338000D01*
X401000Y458000D02*
X402000Y457000D01*
X219000Y425000D02*
X241000Y447000D01*
X341000Y452000D02*
X342000Y451000D01*
X306000Y452000D02*
X341000D01*
X515000Y382000D02*
X530000Y367000D01*
Y333000D02*
Y367000D01*
Y333000D02*
X547000Y316000D01*
X513000Y378000D02*
X526000Y365000D01*
Y331000D02*
Y365000D01*
Y331000D02*
X545000Y312000D01*
X511000Y374000D02*
X522000Y363000D01*
Y329000D02*
Y363000D01*
Y329000D02*
X543000Y308000D01*
X509000Y370000D02*
X518000Y361000D01*
Y327000D02*
Y361000D01*
Y327000D02*
X541000Y304000D01*
X449000Y382000D02*
X515000D01*
X451000Y378000D02*
X513000D01*
X453000Y374000D02*
X511000D01*
X455000Y370000D02*
X509000D01*
X399000Y425000D02*
X405000Y419000D01*
Y384000D02*
Y419000D01*
X487000Y422000D02*
X492000D01*
X492500Y421500D01*
X499000Y326000D02*
X509000Y336000D01*
X499000Y313000D02*
Y326000D01*
X540000Y347000D02*
X561000D01*
X547000Y408000D02*
Y413000D01*
X553000Y419000D01*
X492000Y421000D02*
X492500Y421500D01*
X491000Y421000D02*
X492000D01*
X464000Y445000D02*
X487000Y422000D01*
X464000Y445000D02*
Y449000D01*
X499000Y393000D02*
X500000Y394000D01*
X499000Y391000D02*
Y393000D01*
X495000Y387000D02*
X499000Y391000D01*
X500000Y394000D02*
Y395000D01*
X493000Y343000D02*
X502000D01*
X490000Y340000D02*
X493000Y343000D01*
X561000Y347000D02*
X561000D01*
Y347000D02*
Y347000D01*
Y328000D02*
Y347000D01*
X578000Y316000D02*
X598000Y336000D01*
X547000Y316000D02*
X578000D01*
X580000Y312000D02*
X597000Y329000D01*
X545000Y312000D02*
X580000D01*
X582000Y308000D02*
X597000Y323000D01*
X543000Y308000D02*
X582000D01*
X584000Y304000D02*
X597000Y317000D01*
X541000Y304000D02*
X584000D01*
X597000Y317000D02*
X618000D01*
X597000Y323000D02*
X623000D01*
X597000Y329000D02*
X617000D01*
X598000Y336000D02*
X618000D01*
X561000Y328000D02*
X568000Y321000D01*
X576000D01*
X603000Y348000D02*
X604000D01*
X576000Y321000D02*
X603000Y348000D01*
X210000Y336000D02*
X245000Y301000D01*
X533000Y401000D02*
Y402000D01*
X687000Y396000D02*
X704000D01*
X704000Y370000D02*
Y397000D01*
X459000Y362000D02*
X501000D01*
X459000Y362000D02*
Y362000D01*
X441000Y344000D02*
X459000Y362000D01*
X440000Y373000D02*
X449000Y382000D01*
X441000Y368000D02*
X451000Y378000D01*
X442000Y363000D02*
X453000Y374000D01*
X443000Y358000D02*
X455000Y370000D01*
X461000Y358000D02*
X497000D01*
X499000Y356000D01*
X506000Y364000D02*
X507000D01*
X504000Y366000D02*
X506000Y364000D01*
X457000Y366000D02*
X504000D01*
X501000Y362000D02*
X507000Y356000D01*
X498000Y349000D02*
Y349000D01*
X493000Y354000D02*
X498000Y349000D01*
X463000Y354000D02*
X493000D01*
X456000Y387000D02*
X495000D01*
X413000Y430000D02*
X456000Y387000D01*
X439000Y348000D02*
X457000Y366000D01*
X414000Y373000D02*
X440000D01*
X419000Y368000D02*
X441000D01*
X414000Y363000D02*
X442000D01*
X419000Y358000D02*
X443000D01*
X412000Y348000D02*
X439000D01*
X413000Y344000D02*
X441000D01*
X443000Y340000D02*
X461000Y358000D01*
X415000Y340000D02*
X443000D01*
X445000Y336000D02*
X463000Y354000D01*
X416000Y336000D02*
X445000D01*
X465000Y350000D02*
X489000D01*
X447000Y332000D02*
X465000Y350000D01*
X418000Y332000D02*
X447000D01*
X448000Y325000D02*
X468000Y345000D01*
X448000Y316161D02*
Y325000D01*
X489000Y350000D02*
X490000Y349000D01*
X492500Y399500D02*
X493000Y399000D01*
X488000Y395000D02*
X492500Y399500D01*
X460000Y395000D02*
X488000D01*
X493000Y399000D02*
X494000D01*
X493000Y392000D02*
Y393000D01*
X491000Y391000D02*
X493000Y393000D01*
X488000Y403000D02*
Y404000D01*
X484000Y399000D02*
X488000Y403000D01*
X458000Y391000D02*
X491000D01*
X484000Y340000D02*
X490000D01*
X472000Y328000D02*
X484000Y340000D01*
X417000Y432000D02*
X458000Y391000D01*
X421000Y434000D02*
X460000Y395000D01*
X462000Y399000D02*
X484000D01*
X463000Y404000D02*
X481000D01*
X404000Y340000D02*
X412000Y348000D01*
X405000Y336000D02*
X413000Y344000D01*
X407144Y332144D02*
X415000Y340000D01*
X408500Y328500D02*
X416000Y336000D01*
X411000Y325000D02*
X418000Y332000D01*
X411000Y325000D02*
Y325096D01*
X290904D02*
X411000D01*
X295856Y332144D02*
X407144D01*
X298000Y336000D02*
X405000D01*
X300000Y340000D02*
X404000D01*
X555000Y373000D02*
X559000Y377000D01*
X555000Y358000D02*
Y373000D01*
X559000Y384000D02*
X560000D01*
X551000Y376000D02*
X559000Y384000D01*
X551000Y354000D02*
Y376000D01*
X621000Y359000D02*
X686000Y294000D01*
X621000Y359000D02*
Y359000D01*
X583000Y359000D02*
X621000D01*
X561000Y364000D02*
X562000Y363000D01*
X684000Y290000D02*
X932000Y290000D01*
X619000Y355000D02*
X684000Y290000D01*
X581000Y355000D02*
X619000D01*
X472000Y315000D02*
Y328000D01*
X499000Y312000D02*
Y313000D01*
X714000Y343000D02*
Y358000D01*
X685000Y314000D02*
X714000Y343000D01*
X721000Y403000D02*
X722000Y402000D01*
X709000Y347000D02*
Y362000D01*
X685000Y323000D02*
X709000Y347000D01*
X721000Y353000D02*
Y354000D01*
X507000Y462000D02*
Y493000D01*
X220000Y420000D02*
X232000Y432000D01*
X212000Y435000D02*
X239000Y462000D01*
X197000Y435000D02*
X212000D01*
X238000Y467000D02*
X410000D01*
X211000Y440000D02*
X238000Y467000D01*
X199000Y440000D02*
X211000D01*
X236000Y471000D02*
X412000D01*
X210000Y445000D02*
X236000Y471000D01*
X195500Y445000D02*
X210000D01*
X234000Y475000D02*
X414000D01*
X209000Y450000D02*
X234000Y475000D01*
X195500Y450000D02*
X209000D01*
X232000Y479000D02*
X415572D01*
X208000Y455000D02*
X232000Y479000D01*
X196500Y455000D02*
X208000D01*
X196500Y460000D02*
X207000D01*
X230096Y483096D02*
X417904D01*
X207000Y460000D02*
X230096Y483096D01*
X433000Y441000D02*
X434000Y442000D01*
X227620Y486620D02*
X420380D01*
X206000Y465000D02*
X227620Y486620D01*
X193000Y465000D02*
X206000D01*
X225144Y490144D02*
X429856D01*
X205000Y470000D02*
X225144Y490144D01*
X197500Y470000D02*
X205000D01*
X222668Y493668D02*
X436332D01*
X204000Y475000D02*
X222668Y493668D01*
X198500Y475000D02*
X204000D01*
X500000Y429000D02*
Y443000D01*
X220192Y497192D02*
X445808D01*
X203000Y480000D02*
X220192Y497192D01*
X198500Y480000D02*
X203000D01*
X218000Y501000D02*
X448000D01*
X202000Y485000D02*
X218000Y501000D01*
X200000Y485000D02*
X202000D01*
X337000Y414000D02*
X347000D01*
X334000Y409000D02*
X353000D01*
X508000Y462000D02*
X516000Y454000D01*
X506000Y424000D02*
Y443000D01*
X448000Y501000D02*
X506000Y443000D01*
X507000Y462000D02*
X508000D01*
X436332Y493668D02*
X442000Y488000D01*
Y457000D02*
Y488000D01*
Y457000D02*
X480000Y419000D01*
X485000Y414000D02*
X490000D01*
X480000Y419000D02*
X485000Y414000D01*
X544000Y419000D02*
X549000Y424000D01*
X445808Y497192D02*
X500000Y443000D01*
X481000Y454000D02*
X494000Y441000D01*
X473000Y462000D02*
X481000Y454000D01*
X463000Y462000D02*
X473000D01*
X462000Y461000D02*
Y462000D01*
X432000Y488000D02*
X434000D01*
X429856Y490144D02*
X432000Y488000D01*
X427000Y309000D02*
X437000Y319000D01*
X248000Y309000D02*
X427000D01*
X442000Y316000D02*
Y325000D01*
X431000Y305000D02*
X442000Y316000D01*
X247000Y305000D02*
X431000D01*
X432839Y301000D02*
X448000Y316161D01*
X499000Y313000D02*
X499076Y312994D01*
X399000Y425000D02*
X400000Y426000D01*
X185750Y420000D02*
X220000D01*
X198000Y425000D02*
X219000D01*
X198000Y430000D02*
X218000D01*
X415572Y479000D02*
X425000Y469572D01*
X244000Y328000D02*
X281000D01*
X222000Y350000D02*
X244000Y328000D01*
X293000Y353000D02*
X302000Y344000D01*
X252000Y353000D02*
X293000D01*
X248000Y357000D02*
X252000Y353000D01*
X291000Y349000D02*
X300000Y340000D01*
X249000Y349000D02*
X291000D01*
X242000Y356000D02*
X249000Y349000D01*
X289000Y345000D02*
X298000Y336000D01*
X247000Y345000D02*
X289000D01*
X238000Y354000D02*
X247000Y345000D01*
X287000Y341000D02*
X295856Y332144D01*
X246000Y341000D02*
X287000D01*
X234000Y353000D02*
X246000Y341000D01*
X285000Y337000D02*
X293380Y328620D01*
X245000Y337000D02*
X285000D01*
X230000Y352000D02*
X245000Y337000D01*
X283000Y333000D02*
X290904Y325096D01*
X244000Y333000D02*
X283000D01*
X226000Y351000D02*
X244000Y333000D01*
X281000Y327000D02*
Y328000D01*
X334000Y394000D02*
X347000D01*
X327000Y401000D02*
X334000Y394000D01*
X296000Y362000D02*
X304000Y354000D01*
X295000Y357000D02*
X303000Y349000D01*
X302000Y344000D02*
X371000D01*
X372000Y345000D01*
X434000Y442000D02*
Y473000D01*
X420380Y486620D02*
X434000Y473000D01*
X429000Y438000D02*
Y472000D01*
X417904Y483096D02*
X429000Y472000D01*
X425000Y436000D02*
Y469572D01*
X421000Y434000D02*
Y468000D01*
X414000Y475000D02*
X421000Y468000D01*
X417000Y432000D02*
Y466000D01*
X412000Y471000D02*
X417000Y466000D01*
X413000Y430000D02*
Y464000D01*
X413000D02*
X413000D01*
X410000Y467000D02*
X413000Y464000D01*
X293380Y328620D02*
X408000D01*
X286904Y321096D02*
X385096D01*
X281000Y327000D02*
X286904Y321096D01*
X334000Y366000D02*
X341000Y359000D01*
X279000Y366000D02*
X334000D01*
X342000Y370000D02*
X348000Y364000D01*
X283000Y370000D02*
X342000D01*
X250000Y317000D02*
X417000D01*
X218000Y349000D02*
X250000Y317000D01*
X214000Y348000D02*
X249000Y313000D01*
X210000Y347000D02*
X248000Y309000D01*
X202000Y350000D02*
X247000Y305000D01*
X417000Y317000D02*
X418000Y318000D01*
X245000Y301000D02*
X432839D01*
X248000Y357000D02*
Y358000D01*
X425000Y436000D02*
X462000Y399000D01*
X429000Y438000D02*
X463000Y404000D01*
X402000Y457000D02*
Y458000D01*
X342000Y399000D02*
X354000D01*
X341000D02*
X342000D01*
X354000D02*
X356000Y401000D01*
Y406000D01*
X353000Y409000D02*
X356000Y406000D01*
X343000Y359000D02*
Y359000D01*
X288000Y374000D02*
X345000D01*
X385096Y321096D02*
X413096D01*
X385000Y321000D02*
X385096Y321096D01*
X278500Y383500D02*
X288000Y374000D01*
X197274Y325000D02*
X203967D01*
X197000Y350000D02*
X202000D01*
X210000Y347000D02*
Y351000D01*
X206000Y355000D02*
X210000Y351000D01*
X197000Y355000D02*
X206000D01*
X198000Y360000D02*
X210000D01*
X214000Y348000D02*
Y356000D01*
X210000Y360000D02*
X214000Y356000D01*
X218000Y349000D02*
Y359000D01*
X212000Y365000D02*
X218000Y359000D01*
X196000Y365000D02*
X212000D01*
X222000Y350000D02*
X224000Y348000D01*
X222000Y350000D02*
Y350000D01*
X226000Y351000D02*
Y363000D01*
X230000Y352000D02*
Y364000D01*
X234000Y353000D02*
Y365000D01*
X214000Y370000D02*
X222000Y362000D01*
Y350000D02*
Y362000D01*
X214000Y375000D02*
X226000Y363000D01*
X214000Y380000D02*
X230000Y364000D01*
X214000Y385000D02*
X234000Y365000D01*
X238000Y354000D02*
Y366000D01*
X214000Y390000D02*
X238000Y366000D01*
X194000Y375000D02*
X214000D01*
X196000Y380000D02*
X214000D01*
X193000Y390000D02*
X214000D01*
X269000Y376000D02*
X272484Y372516D01*
X272484D01*
X184750Y370000D02*
X214000D01*
X184750Y385000D02*
X214000D01*
X197274Y320000D02*
X203967D01*
X198274Y315000D02*
X204967D01*
X198274Y310000D02*
X204967D01*
X198274Y305000D02*
X204967D01*
X413096Y321096D02*
X420000Y328000D01*
X429000D01*
X432000Y325000D01*
X417572Y317572D02*
X422000Y322000D01*
X249000Y313000D02*
X421838D01*
X572000Y370000D02*
X583000Y359000D01*
X561000Y370000D02*
X572000D01*
X562000Y363000D02*
X573000D01*
X581000Y355000D01*
X598000Y396000D02*
X621000Y373000D01*
X551000Y396000D02*
X598000D01*
X559000Y377000D02*
X574000D01*
X950000Y442000D02*
X1004000D01*
X931000Y461000D02*
X950000Y442000D01*
X1004000D02*
X1007000Y439000D01*
X549000Y424000D02*
X557000D01*
X577000Y444000D01*
X932000Y290000D02*
X933000Y291000D01*
X933000D01*
X577000Y444000D02*
Y451000D01*
X562000Y456000D02*
X569000Y449000D01*
X551000Y354000D02*
X566000D01*
Y331000D02*
Y354000D01*
Y331000D02*
X571000Y326000D01*
Y336000D02*
Y358000D01*
X555000D02*
X571000D01*
X1007000Y365000D02*
Y439000D01*
X933000Y291000D02*
X1007000Y365000D01*
X941000Y380000D02*
X975000D01*
X955000Y425000D02*
X974000D01*
X956000Y432000D02*
X990000D01*
X697000Y353000D02*
X697000Y353000D01*
X722000Y375000D02*
Y402000D01*
X709000Y362000D02*
X722000Y375000D01*
X561000Y347000D02*
X561000Y347000D01*
X561000D02*
X561000Y347000D01*
X561000D01*
X714000Y358000D02*
X721000Y365000D01*
X704000Y397000D02*
X704000Y397000D01*
X704000D02*
X704000D01*
X666000Y328000D02*
Y329000D01*
Y348000D01*
Y363000D01*
X656000Y373000D02*
X666000Y363000D01*
X651000Y373000D02*
X656000D01*
X722000Y327000D02*
Y353000D01*
D13*
X403000Y381000D02*
X437000D01*
X403000D02*
X405000Y383000D01*
X394000Y384000D02*
X405000D01*
Y383000D02*
Y384000D01*
D88*
X479000Y328000D02*
X484000Y333000D01*
X479000Y308000D02*
Y328000D01*
X465000Y308000D02*
X479000D01*
X493000Y333000D02*
X497000Y337000D01*
X484000Y333000D02*
X493000D01*
X465000Y308000D02*
Y321000D01*
X459000Y327000D02*
X465000Y321000D01*
X458000Y327000D02*
X459000D01*
D125*
X928700Y440500D02*
D03*
Y463400D02*
D03*
Y349100D02*
D03*
Y326200D02*
D03*
X977000Y359200D02*
D03*
X994800Y369400D02*
D03*
X977000Y379600D02*
D03*
X994800Y389800D02*
D03*
X977000Y400000D02*
D03*
X994800Y410200D02*
D03*
X977000Y420400D02*
D03*
D126*
X985900Y476100D02*
D03*
Y313500D02*
D03*
D127*
X1020200Y458300D02*
D03*
Y331300D02*
D03*
D128*
X994800Y430600D02*
D03*
D129*
X759200Y447680D02*
D03*
X810000D02*
D03*
X860800D02*
D03*
D130*
X886200D02*
D03*
D131*
X1040000Y299000D02*
D03*
Y489000D02*
D03*
X340000Y439000D02*
D03*
X1050000Y315000D02*
D03*
Y470000D02*
D03*
D132*
X630500Y441400D02*
D03*
X544000D02*
D03*
D133*
X630500Y480000D02*
D03*
X544000D02*
D03*
D134*
X533000Y437000D02*
D03*
X509000Y399000D02*
D03*
X244500Y440500D02*
D03*
X745000Y427000D02*
D03*
X730000D02*
D03*
X715000D02*
D03*
X700000D02*
D03*
X685000D02*
D03*
X670000D02*
D03*
X655000D02*
D03*
X640000D02*
D03*
X423000Y400000D02*
D03*
X442000Y385000D02*
D03*
X447000Y389000D02*
D03*
X713000Y468000D02*
D03*
Y458000D02*
D03*
X689000Y468000D02*
D03*
X668000Y496000D02*
D03*
X806000Y365000D02*
D03*
X848000Y391000D02*
D03*
X254000Y392000D02*
D03*
X289000Y418000D02*
D03*
X240000Y408000D02*
D03*
X236000Y426000D02*
D03*
X240000Y420000D02*
D03*
X236000Y414000D02*
D03*
X300000Y440000D02*
D03*
X293000Y436000D02*
D03*
X277000Y376000D02*
D03*
X316000Y386000D02*
D03*
X304000Y387000D02*
D03*
X339000Y354000D02*
D03*
X257000Y371000D02*
D03*
X262000Y365000D02*
D03*
X329000Y414000D02*
D03*
X326000Y447000D02*
D03*
X306000Y452000D02*
D03*
X530000Y383000D02*
D03*
X462000Y424000D02*
D03*
X405000Y384000D02*
D03*
X394000Y371000D02*
D03*
Y384000D02*
D03*
X540000Y331000D02*
D03*
Y339000D02*
D03*
X510000Y338000D02*
D03*
X558000Y297000D02*
D03*
X549000D02*
D03*
X540000D02*
D03*
Y347000D02*
D03*
X547000Y408000D02*
D03*
X491000Y421000D02*
D03*
X500000Y395000D02*
D03*
X502000Y343000D02*
D03*
X618000Y317000D02*
D03*
X624000Y323000D02*
D03*
X618000Y329000D02*
D03*
X547000Y333000D02*
D03*
X618000Y336000D02*
D03*
X533000Y402000D02*
D03*
X530000Y390000D02*
D03*
X524000Y395000D02*
D03*
X687000Y396000D02*
D03*
X507000Y364000D02*
D03*
Y356000D02*
D03*
X499000D02*
D03*
X498000Y349000D02*
D03*
X414000Y373000D02*
D03*
X419000Y368000D02*
D03*
X414000Y363000D02*
D03*
X419000Y358000D02*
D03*
X494000Y399000D02*
D03*
X493000Y392000D02*
D03*
X488000Y404000D02*
D03*
X490000Y349000D02*
D03*
X468000Y345000D02*
D03*
X457000Y320000D02*
D03*
X464000Y331000D02*
D03*
X458000Y327000D02*
D03*
X481000Y404000D02*
D03*
X437000Y381000D02*
D03*
X497000Y337000D02*
D03*
X575000Y378000D02*
D03*
X685000Y314000D02*
D03*
Y322000D02*
D03*
X551000Y396000D02*
D03*
X508000Y494000D02*
D03*
X342000Y451000D02*
D03*
X507000Y462000D02*
D03*
X490000Y414000D02*
D03*
X544000Y419000D02*
D03*
X522000Y460000D02*
D03*
X528000D02*
D03*
Y466000D02*
D03*
X522000D02*
D03*
X506000Y424000D02*
D03*
X501000Y429000D02*
D03*
X488000Y324000D02*
D03*
X481000Y454000D02*
D03*
X479000Y494000D02*
D03*
X462000Y462000D02*
D03*
X434000Y488000D02*
D03*
X423000Y315000D02*
D03*
X442000Y325000D02*
D03*
X509000Y303000D02*
D03*
X472000Y315000D02*
D03*
X464000Y449000D02*
D03*
X281000Y328000D02*
D03*
X317000Y411000D02*
D03*
X372000Y345000D02*
D03*
X399000Y425000D02*
D03*
X248000Y358000D02*
D03*
X499000Y312000D02*
D03*
X434000Y441000D02*
D03*
X407000Y462000D02*
D03*
X402000Y457000D02*
D03*
X480000Y419000D02*
D03*
X348000Y414000D02*
D03*
Y404000D02*
D03*
X342000Y399000D02*
D03*
X348000Y394000D02*
D03*
X343000Y359000D02*
D03*
X342000Y389000D02*
D03*
Y379000D02*
D03*
X348000Y384000D02*
D03*
Y354000D02*
D03*
Y364000D02*
D03*
Y374000D02*
D03*
X437000Y320000D02*
D03*
X209000Y335000D02*
D03*
X235000Y402000D02*
D03*
X432000Y325000D02*
D03*
X422000Y322000D02*
D03*
X645000Y345000D02*
D03*
X635000Y357000D02*
D03*
X644000Y315000D02*
D03*
X611000Y342000D02*
D03*
X560000Y384000D02*
D03*
X621000Y373000D02*
D03*
X604000Y348000D02*
D03*
X560000Y363000D02*
D03*
Y370000D02*
D03*
X784000Y302000D02*
D03*
X619000Y423000D02*
D03*
X553000Y419000D02*
D03*
X806000Y315000D02*
D03*
Y340000D02*
D03*
Y404000D02*
D03*
X806000Y378000D02*
D03*
X704000Y396000D02*
D03*
X577000Y451000D02*
D03*
X570000Y448000D02*
D03*
X722000Y403000D02*
D03*
Y365000D02*
D03*
X704000Y370000D02*
D03*
X666000Y329000D02*
D03*
X651000Y373000D02*
D03*
X666000Y348000D02*
D03*
Y363000D02*
D03*
X561000Y347000D02*
D03*
X571000Y326000D02*
D03*
Y336000D02*
D03*
X722000Y327000D02*
D03*
Y353000D02*
D03*
X697000D02*
D03*
D135*
X820000Y419000D02*
D03*
X842000Y350000D02*
D03*
X891000Y331000D02*
D03*
X890000Y373000D02*
D03*
D136*
X184750Y325000D02*
D03*
Y460000D02*
D03*
Y455000D02*
D03*
Y450000D02*
D03*
Y445000D02*
D03*
Y485250D02*
D03*
Y465250D02*
D03*
Y475250D02*
D03*
Y470250D02*
D03*
Y480250D02*
D03*
Y440000D02*
D03*
Y430000D02*
D03*
Y410000D02*
D03*
Y390000D02*
D03*
Y370000D02*
D03*
Y350000D02*
D03*
Y310000D02*
D03*
Y435000D02*
D03*
Y415000D02*
D03*
Y425000D02*
D03*
Y420000D02*
D03*
Y395000D02*
D03*
Y405000D02*
D03*
Y400000D02*
D03*
Y375000D02*
D03*
Y385000D02*
D03*
Y380000D02*
D03*
Y355000D02*
D03*
Y365000D02*
D03*
Y360000D02*
D03*
Y315000D02*
D03*
Y320000D02*
D03*
Y305000D02*
D03*
D137*
X806000Y418500D02*
D03*
D138*
X530000Y386500D02*
D03*
D139*
X389500Y436500D02*
D03*
D140*
X184500Y314500D02*
D03*
D141*
X795000Y382500D02*
D03*
D142*
X821000Y350000D02*
D03*
D143*
X889500Y353000D02*
D03*
D144*
X398500Y293000D02*
D03*
M02*
