M48
;Layer_Color=9474304
;FILE_FORMAT=4:4
METRIC,LZ
;TYPE=PLATED
T1F00S00C0.2540
T3F00S00C0.6000
T4F00S00C0.8900
T5F00S00C1.0000
T6F00S00C1.5700
;TYPE=NON_PLATED
T7F00S00C0.6500
T8F00S00C1.1520
T9F00S00C3.2500
%
T01
X00209Y00335
X00248Y00358
X00262Y00365
X00257Y00371
X00254Y00392
X00277Y00376
X00304Y00387
X00316Y00386
X00342Y00389
Y00379
X00348Y00384
Y00394
Y00374
Y00364
X00343Y00359
X00339Y00354
X00348
X00372Y00345
X00394Y00371
Y00384
X00281Y00328
X00422Y00322
X00423Y00315
X00437Y0032
X00442Y00325
X00432
X00458Y00327
X00457Y0032
X00464Y00331
X00468Y00345
X0049Y00349
X00498
X00499Y00356
X00507
Y00364
X00502Y00343
X00497Y00337
X0051Y00338
X0054Y00339
Y00347
Y00331
X00547Y00333
X00571Y00336
Y00326
X00561Y00347
X0056Y00363
Y0037
X0056Y00384
X00575Y00378
X00551Y00396
X0053Y0039
Y00383
X00524Y00395
X005
X00493Y00392
X00447Y00389
X00442Y00385
X00437Y00381
X00414Y00373
X00419Y00368
X00414Y00363
X00419Y00358
X00405Y00384
X00472Y00315
X00488Y00324
X00499Y00312
X00509Y00303
X0054Y00297
X00549
X00558
X00618Y00317
Y00329
X00618Y00336
X00611Y00342
X00604Y00348
X00635Y00357
X00645Y00345
X00666Y00348
Y00363
X00651Y00373
X00621Y00373
X00624Y00323
X00644Y00315
X00666Y00329
X00685Y00322
Y00314
X00722Y00327
Y00353
Y00365
X00704Y0037
X00697Y00353
X00704Y00396
X00687
X00784Y00302
X00806Y00315
Y0034
Y00365
X00806Y00378
X00848Y00391
X00806Y00404
X00745Y00427
X0073
X00715
X007
X00685
X0067
X00655
X0064
X00619Y00423
X00553Y00419
X00544
X00547Y00408
X00533Y00402
X00509Y00399
X00494
X00488Y00404
X00481
X0048Y00419
X00491Y00421
X0049Y00414
X00506Y00424
X00501Y00429
X00507Y00462
X00522Y0046
Y00466
X00528
Y0046
X00533Y00437
X0057Y00448
X00577Y00451
X00481Y00454
X00464Y00449
X00462Y00462
Y00424
X00434Y00441
Y00488
X00479Y00494
X00508
X00407Y00462
X00402Y00457
X00399Y00425
X00423Y004
X00722Y00403
X00713Y00458
Y00468
X00689
X00668Y00496
X00342Y00451
X00326Y00447
X00306Y00452
X003Y0044
X00293Y00436
X00289Y00418
X00317Y00411
X00329Y00414
X00348
Y00404
X00342Y00399
X00235Y00402
X0024Y00408
X00236Y00414
X0024Y0042
X00236Y00426
X002445Y004405
T03
X00842Y0035
X00891Y00331
X0089Y00373
X0082Y00419
T04
X009287Y003262
Y003491
X00977Y003592
Y003796
X009948Y003694
Y003898
Y004102
Y004306
X00977Y004204
Y004
X009287Y004405
Y004634
T05
X0081Y0044768
X008608
X008862
X007592
T06
X009859Y003135
Y004761
T07
X005573Y0044857
X006173
T08
X0104Y00299
X0105Y00315
Y0047
X0104Y00489
X0034Y00439
T09
X010202Y003313
Y004583
M30
