G04*
G04 #@! TF.GenerationSoftware,Altium Limited,Altium Designer,18.1.7 (191)*
G04*
G04 Layer_Color=8421504*
%FSLAX44Y44*%
%MOMM*%
G71*
G01*
G75*
%ADD16R,0.6000X0.6000*%
%ADD17R,2.6000X1.7000*%
%ADD18R,1.7000X0.9000*%
%ADD19R,2.5000X0.9000*%
%ADD20R,0.4500X1.0000*%
%ADD21R,1.5000X1.3000*%
%ADD22R,0.6000X0.6000*%
%ADD23R,1.0000X0.5500*%
%ADD24R,1.0000X0.5500*%
%ADD25R,2.7000X0.8000*%
%ADD26R,0.8000X0.8000*%
%ADD27R,1.0000X0.4500*%
%ADD28R,0.2000X0.6000*%
%ADD29R,1.5000X1.2000*%
%ADD30R,0.9300X0.9800*%
%ADD31R,0.2800X0.2800*%
%ADD32O,0.2800X0.6600*%
%ADD33O,0.6600X0.2800*%
%ADD34R,1.2500X1.2500*%
%ADD35R,1.3000X1.5000*%
%ADD36R,2.2500X0.3500*%
%ADD37R,0.6000X1.1500*%
%ADD38R,0.3000X1.1500*%
%ADD39R,0.7000X1.1000*%
G04:AMPARAMS|DCode=40|XSize=0.3mm|YSize=0.8mm|CornerRadius=0.075mm|HoleSize=0mm|Usage=FLASHONLY|Rotation=180.000|XOffset=0mm|YOffset=0mm|HoleType=Round|Shape=RoundedRectangle|*
%AMROUNDEDRECTD40*
21,1,0.3000,0.6500,0,0,180.0*
21,1,0.1500,0.8000,0,0,180.0*
1,1,0.1500,-0.0750,0.3250*
1,1,0.1500,0.0750,0.3250*
1,1,0.1500,0.0750,-0.3250*
1,1,0.1500,-0.0750,-0.3250*
%
%ADD40ROUNDEDRECTD40*%
G04:AMPARAMS|DCode=41|XSize=0.3mm|YSize=0.8mm|CornerRadius=0.075mm|HoleSize=0mm|Usage=FLASHONLY|Rotation=90.000|XOffset=0mm|YOffset=0mm|HoleType=Round|Shape=RoundedRectangle|*
%AMROUNDEDRECTD41*
21,1,0.3000,0.6500,0,0,90.0*
21,1,0.1500,0.8000,0,0,90.0*
1,1,0.1500,0.3250,0.0750*
1,1,0.1500,0.3250,-0.0750*
1,1,0.1500,-0.3250,-0.0750*
1,1,0.1500,-0.3250,0.0750*
%
%ADD41ROUNDEDRECTD41*%
%ADD42R,2.4000X1.7000*%
%ADD43R,0.9800X0.9300*%
%ADD44R,0.6000X0.2000*%
%ADD45R,1.4000X1.2000*%
%ADD46R,1.6700X0.7600*%
D16*
X526080Y450000D02*
D03*
X515920D02*
D03*
X267080Y332000D02*
D03*
X256920D02*
D03*
X495920Y407000D02*
D03*
X506080D02*
D03*
X564080Y328000D02*
D03*
X553920D02*
D03*
X847080Y296000D02*
D03*
X836920D02*
D03*
X867080D02*
D03*
X856920D02*
D03*
X694920Y458000D02*
D03*
X705080D02*
D03*
X258420Y404000D02*
D03*
X268580D02*
D03*
X502080Y302000D02*
D03*
X491920D02*
D03*
X470920D02*
D03*
X481080D02*
D03*
X472080Y470000D02*
D03*
X461920D02*
D03*
X361080Y451000D02*
D03*
X350920D02*
D03*
X316080Y434000D02*
D03*
X305920D02*
D03*
Y423000D02*
D03*
X316080D02*
D03*
Y445000D02*
D03*
X305920D02*
D03*
X280920Y430000D02*
D03*
X291080D02*
D03*
X421080Y302000D02*
D03*
X410920D02*
D03*
X515920Y437000D02*
D03*
X526080D02*
D03*
X578080Y308000D02*
D03*
X567920D02*
D03*
X836920Y340000D02*
D03*
X847080D02*
D03*
X836920Y315000D02*
D03*
X847080D02*
D03*
X836920Y327000D02*
D03*
X847080D02*
D03*
X703920Y378000D02*
D03*
X714080D02*
D03*
X703920Y403000D02*
D03*
X714080D02*
D03*
X703920Y363000D02*
D03*
X714080D02*
D03*
X578080Y298000D02*
D03*
X567920D02*
D03*
X578080Y318000D02*
D03*
X567920D02*
D03*
Y370000D02*
D03*
X578080D02*
D03*
X567920Y360000D02*
D03*
X578080D02*
D03*
X703920Y353000D02*
D03*
X714080D02*
D03*
X715080Y314000D02*
D03*
X704920D02*
D03*
X714080Y342000D02*
D03*
X703920D02*
D03*
X714080Y388000D02*
D03*
X703920D02*
D03*
X564080Y338000D02*
D03*
X553920D02*
D03*
X578080Y348000D02*
D03*
X567920D02*
D03*
D17*
X518000Y478000D02*
D03*
D18*
X492000Y463000D02*
D03*
Y494000D02*
D03*
D19*
X496000Y478000D02*
D03*
D20*
X881000Y354000D02*
D03*
Y332000D02*
D03*
X901000Y354000D02*
D03*
Y332000D02*
D03*
Y318000D02*
D03*
Y296000D02*
D03*
X881000Y318000D02*
D03*
Y296000D02*
D03*
X901000Y406000D02*
D03*
Y428000D02*
D03*
X881000Y406000D02*
D03*
Y428000D02*
D03*
X901000Y370000D02*
D03*
Y392000D02*
D03*
X881000Y370000D02*
D03*
Y392000D02*
D03*
D21*
X700000Y490500D02*
D03*
Y471500D02*
D03*
X842000Y407500D02*
D03*
Y426500D02*
D03*
X862000Y407500D02*
D03*
Y426500D02*
D03*
D22*
X645000Y475080D02*
D03*
Y464920D02*
D03*
Y495080D02*
D03*
Y484920D02*
D03*
X448000Y312080D02*
D03*
Y301920D02*
D03*
X334000Y359920D02*
D03*
Y370080D02*
D03*
X482000Y436920D02*
D03*
Y447080D02*
D03*
X437000Y312000D02*
D03*
Y301840D02*
D03*
X695000Y448080D02*
D03*
Y437920D02*
D03*
X705000Y448080D02*
D03*
Y437920D02*
D03*
X645000Y438920D02*
D03*
Y449080D02*
D03*
X504000Y447080D02*
D03*
Y436920D02*
D03*
X294000Y446920D02*
D03*
Y457080D02*
D03*
X282000Y446920D02*
D03*
Y457080D02*
D03*
X493000Y447080D02*
D03*
Y436920D02*
D03*
X334000Y381920D02*
D03*
Y392080D02*
D03*
X460000Y301920D02*
D03*
Y312080D02*
D03*
X519000D02*
D03*
Y301920D02*
D03*
X837000Y390080D02*
D03*
Y379920D02*
D03*
X578000Y327920D02*
D03*
Y338080D02*
D03*
X689000Y367920D02*
D03*
Y378080D02*
D03*
X554000Y347920D02*
D03*
Y358080D02*
D03*
X604000Y395920D02*
D03*
Y406080D02*
D03*
X615000Y395920D02*
D03*
Y406080D02*
D03*
X626000D02*
D03*
Y395920D02*
D03*
X640000D02*
D03*
Y406080D02*
D03*
X654000Y395920D02*
D03*
Y406080D02*
D03*
X668000Y396000D02*
D03*
Y406160D02*
D03*
X689000Y346920D02*
D03*
Y357080D02*
D03*
D23*
X682000Y475500D02*
D03*
D24*
Y485000D02*
D03*
Y494500D02*
D03*
X658000D02*
D03*
Y475500D02*
D03*
Y485000D02*
D03*
D25*
X670000Y437000D02*
D03*
Y459000D02*
D03*
D26*
X269000Y416000D02*
D03*
X255000D02*
D03*
X269300Y430000D02*
D03*
X255300D02*
D03*
X269300Y443000D02*
D03*
X255300D02*
D03*
X269300Y456000D02*
D03*
X255300D02*
D03*
D27*
X298500Y331500D02*
D03*
X320500D02*
D03*
X298500Y349000D02*
D03*
X320500D02*
D03*
D28*
X605000Y335000D02*
D03*
X601000D02*
D03*
X605000Y323000D02*
D03*
X601000D02*
D03*
X613000Y330000D02*
D03*
X609000D02*
D03*
X613000Y317000D02*
D03*
X609000D02*
D03*
D29*
X862000Y390954D02*
D03*
Y363046D02*
D03*
Y310046D02*
D03*
Y337954D02*
D03*
D30*
X698300Y328000D02*
D03*
X713700D02*
D03*
X698300Y301000D02*
D03*
X713700D02*
D03*
X342300Y335000D02*
D03*
X357700D02*
D03*
D31*
X492350Y311810D02*
D03*
X487350D02*
D03*
X482350D02*
D03*
X477350D02*
D03*
X469700Y321746D02*
D03*
Y326746D02*
D03*
Y331746D02*
D03*
X477350Y342110D02*
D03*
X482350D02*
D03*
X487350D02*
D03*
X492350D02*
D03*
X500000Y332000D02*
D03*
Y327000D02*
D03*
Y322000D02*
D03*
D32*
X492350Y313710D02*
D03*
X487350D02*
D03*
X482350D02*
D03*
X477350D02*
D03*
Y340210D02*
D03*
X482350D02*
D03*
X487350D02*
D03*
X492350D02*
D03*
D33*
X471600Y321746D02*
D03*
Y326746D02*
D03*
Y331746D02*
D03*
X498100Y332000D02*
D03*
Y327000D02*
D03*
Y322000D02*
D03*
D34*
X484850Y326960D02*
D03*
D35*
X448500Y492000D02*
D03*
X467500D02*
D03*
D36*
X181000Y457500D02*
D03*
Y452500D02*
D03*
Y447500D02*
D03*
Y442500D02*
D03*
Y302500D02*
D03*
Y307500D02*
D03*
Y312500D02*
D03*
Y317500D02*
D03*
Y322500D02*
D03*
Y327500D02*
D03*
Y352500D02*
D03*
Y357500D02*
D03*
Y362500D02*
D03*
Y367500D02*
D03*
Y372500D02*
D03*
Y377500D02*
D03*
Y382500D02*
D03*
Y387500D02*
D03*
Y392500D02*
D03*
Y397500D02*
D03*
Y402500D02*
D03*
Y407500D02*
D03*
Y412500D02*
D03*
Y417500D02*
D03*
Y422500D02*
D03*
Y427500D02*
D03*
Y432500D02*
D03*
Y437500D02*
D03*
Y462500D02*
D03*
Y487500D02*
D03*
Y482500D02*
D03*
Y477500D02*
D03*
Y472500D02*
D03*
Y467500D02*
D03*
D37*
X618300Y437600D02*
D03*
X610800D02*
D03*
X563800Y437570D02*
D03*
X556300Y437600D02*
D03*
D38*
X604800D02*
D03*
X599800D02*
D03*
X594800D02*
D03*
X589800D02*
D03*
X584800Y437570D02*
D03*
X579800Y437600D02*
D03*
X574800D02*
D03*
X569800D02*
D03*
D39*
X280500Y337500D02*
D03*
Y396500D02*
D03*
X243500D02*
D03*
Y337500D02*
D03*
D40*
X452000Y448500D02*
D03*
X447000D02*
D03*
X442000D02*
D03*
X437000D02*
D03*
X432000D02*
D03*
X427000D02*
D03*
X422000D02*
D03*
X417000D02*
D03*
X412000D02*
D03*
X407000D02*
D03*
X402000D02*
D03*
X397000D02*
D03*
X392000D02*
D03*
X387000D02*
D03*
X382000D02*
D03*
X377000D02*
D03*
X452000Y334500D02*
D03*
X447000D02*
D03*
X442000D02*
D03*
X437000D02*
D03*
X432000D02*
D03*
X427000D02*
D03*
X422000D02*
D03*
X417000D02*
D03*
X412000D02*
D03*
X407000D02*
D03*
X402000D02*
D03*
X397000D02*
D03*
X392000D02*
D03*
X387000D02*
D03*
X382000D02*
D03*
X377000D02*
D03*
X386500Y350250D02*
D03*
X391500D02*
D03*
X396500D02*
D03*
X401500D02*
D03*
X406500D02*
D03*
X411500D02*
D03*
X416500D02*
D03*
X421500D02*
D03*
X426500D02*
D03*
X431500D02*
D03*
X436500D02*
D03*
X441500D02*
D03*
X386500Y433750D02*
D03*
X391500D02*
D03*
X396500D02*
D03*
X401500D02*
D03*
X406500D02*
D03*
X411500D02*
D03*
X416500D02*
D03*
X421500D02*
D03*
X426500D02*
D03*
X431500D02*
D03*
X436500D02*
D03*
X441500D02*
D03*
X661500Y382750D02*
D03*
X656500D02*
D03*
X651500D02*
D03*
X646500D02*
D03*
X641500D02*
D03*
X636500D02*
D03*
X631500D02*
D03*
X626500D02*
D03*
X621500D02*
D03*
X616500D02*
D03*
X611500D02*
D03*
X606500D02*
D03*
X661500Y299250D02*
D03*
X656500D02*
D03*
X651500D02*
D03*
X646500D02*
D03*
X641500D02*
D03*
X636500D02*
D03*
X631500D02*
D03*
X626500D02*
D03*
X621500D02*
D03*
X616500D02*
D03*
X611500D02*
D03*
X606500D02*
D03*
D41*
X471500Y354000D02*
D03*
Y359000D02*
D03*
Y364000D02*
D03*
Y369000D02*
D03*
Y374000D02*
D03*
Y379000D02*
D03*
Y384000D02*
D03*
Y389000D02*
D03*
Y394000D02*
D03*
Y399000D02*
D03*
Y404000D02*
D03*
Y409000D02*
D03*
Y414000D02*
D03*
Y419000D02*
D03*
Y424000D02*
D03*
Y429000D02*
D03*
X357080Y354000D02*
D03*
Y359000D02*
D03*
Y364000D02*
D03*
Y369000D02*
D03*
Y374000D02*
D03*
Y379000D02*
D03*
Y384000D02*
D03*
Y389000D02*
D03*
Y394000D02*
D03*
Y399000D02*
D03*
Y404000D02*
D03*
Y409000D02*
D03*
Y414000D02*
D03*
Y419000D02*
D03*
Y424000D02*
D03*
Y429000D02*
D03*
X372250Y419500D02*
D03*
X372250Y414500D02*
D03*
X372250Y409500D02*
D03*
X372250Y404500D02*
D03*
Y399500D02*
D03*
Y394500D02*
D03*
Y389500D02*
D03*
Y384500D02*
D03*
X372250Y379500D02*
D03*
X372250Y374500D02*
D03*
Y369500D02*
D03*
Y364500D02*
D03*
X455750Y419500D02*
D03*
Y414500D02*
D03*
Y409500D02*
D03*
Y404500D02*
D03*
Y399500D02*
D03*
Y394500D02*
D03*
Y389500D02*
D03*
Y384500D02*
D03*
Y379500D02*
D03*
Y374500D02*
D03*
Y369500D02*
D03*
Y364500D02*
D03*
X675750Y313500D02*
D03*
X675750Y318500D02*
D03*
X675750Y323500D02*
D03*
X675750Y328500D02*
D03*
Y333500D02*
D03*
Y338500D02*
D03*
Y343500D02*
D03*
Y348500D02*
D03*
X675750Y353500D02*
D03*
X675750Y358500D02*
D03*
Y363500D02*
D03*
Y368500D02*
D03*
X592250Y313500D02*
D03*
Y318500D02*
D03*
Y323500D02*
D03*
Y328500D02*
D03*
Y333500D02*
D03*
Y338500D02*
D03*
Y343500D02*
D03*
Y348500D02*
D03*
Y353500D02*
D03*
Y358500D02*
D03*
Y363500D02*
D03*
Y368500D02*
D03*
D42*
X310600Y407500D02*
D03*
Y370500D02*
D03*
D43*
X545000Y394700D02*
D03*
Y379300D02*
D03*
D44*
X615000Y413000D02*
D03*
Y417000D02*
D03*
D45*
X586000Y387000D02*
D03*
Y404000D02*
D03*
X564000D02*
D03*
Y387000D02*
D03*
D46*
X735350Y403450D02*
D03*
Y390750D02*
D03*
Y378050D02*
D03*
Y365350D02*
D03*
Y352650D02*
D03*
Y339950D02*
D03*
Y327250D02*
D03*
Y314550D02*
D03*
X820650D02*
D03*
Y327250D02*
D03*
Y339950D02*
D03*
Y352650D02*
D03*
Y365350D02*
D03*
Y378050D02*
D03*
Y390750D02*
D03*
Y403450D02*
D03*
M02*
