G04*
G04 #@! TF.GenerationSoftware,Altium Limited,Altium Designer,18.1.7 (191)*
G04*
G04 Layer_Physical_Order=1*
G04 Layer_Color=255*
%FSLAX44Y44*%
%MOMM*%
G71*
G01*
G75*
%ADD11C,0.2000*%
%ADD13C,0.1500*%
%ADD16R,0.6000X0.6000*%
%ADD17R,2.6000X1.7000*%
%ADD18R,1.7000X0.9000*%
%ADD19R,2.5000X0.9000*%
%ADD20R,0.4500X1.0000*%
%ADD21R,1.5000X1.3000*%
%ADD22R,0.6000X0.6000*%
%ADD23R,1.0000X0.5500*%
%ADD24R,1.0000X0.5500*%
%ADD25R,2.7000X0.8000*%
%ADD26R,0.8000X0.8000*%
%ADD27R,1.0000X0.4500*%
%ADD28R,0.2000X0.6000*%
%ADD29R,1.5000X1.2000*%
%ADD30R,0.9300X0.9800*%
%ADD31R,0.2800X0.2800*%
%ADD32O,0.2800X0.6600*%
%ADD33O,0.6600X0.2800*%
%ADD34R,1.2500X1.2500*%
%ADD35R,1.3000X1.5000*%
%ADD36R,2.2500X0.3500*%
%ADD37R,0.6000X1.1500*%
%ADD38R,0.3000X1.1500*%
%ADD39R,0.7000X1.1000*%
G04:AMPARAMS|DCode=40|XSize=0.3mm|YSize=0.8mm|CornerRadius=0.075mm|HoleSize=0mm|Usage=FLASHONLY|Rotation=180.000|XOffset=0mm|YOffset=0mm|HoleType=Round|Shape=RoundedRectangle|*
%AMROUNDEDRECTD40*
21,1,0.3000,0.6500,0,0,180.0*
21,1,0.1500,0.8000,0,0,180.0*
1,1,0.1500,-0.0750,0.3250*
1,1,0.1500,0.0750,0.3250*
1,1,0.1500,0.0750,-0.3250*
1,1,0.1500,-0.0750,-0.3250*
%
%ADD40ROUNDEDRECTD40*%
G04:AMPARAMS|DCode=41|XSize=0.3mm|YSize=0.8mm|CornerRadius=0.075mm|HoleSize=0mm|Usage=FLASHONLY|Rotation=90.000|XOffset=0mm|YOffset=0mm|HoleType=Round|Shape=RoundedRectangle|*
%AMROUNDEDRECTD41*
21,1,0.3000,0.6500,0,0,90.0*
21,1,0.1500,0.8000,0,0,90.0*
1,1,0.1500,0.3250,0.0750*
1,1,0.1500,0.3250,-0.0750*
1,1,0.1500,-0.3250,-0.0750*
1,1,0.1500,-0.3250,0.0750*
%
%ADD41ROUNDEDRECTD41*%
%ADD42R,2.4000X1.7000*%
%ADD43R,0.9800X0.9300*%
%ADD44R,0.6000X0.2000*%
%ADD45R,1.4000X1.2000*%
%ADD46R,1.6700X0.7600*%
%ADD88C,0.4000*%
%ADD89C,0.3000*%
%ADD90R,10.5000X0.4000*%
%ADD91R,0.5000X0.6000*%
%ADD92R,2.7000X1.2000*%
%ADD93R,1.1000X1.2000*%
%ADD94R,0.4000X2.0000*%
%ADD95R,2.0000X0.4000*%
%ADD96R,0.4000X5.2000*%
%ADD97R,0.4000X0.8000*%
%ADD98R,0.4000X0.6000*%
%ADD99R,2.1000X0.8000*%
%ADD100R,0.4000X1.7000*%
%ADD101R,1.6000X0.4000*%
%ADD102R,3.6000X0.4000*%
%ADD103R,1.5000X2.2000*%
%ADD104R,0.6000X0.8000*%
%ADD105R,0.4000X3.7000*%
%ADD106R,1.9000X1.1500*%
%ADD107R,1.6000X0.6000*%
%ADD108R,0.9000X4.3000*%
%ADD109R,4.6000X0.6000*%
%ADD110R,7.9000X0.3000*%
%ADD111R,0.6000X0.4000*%
%ADD112R,2.0000X2.9000*%
%ADD113R,18.5000X0.8000*%
%ADD114R,0.4000X2.0000*%
%ADD115R,0.4000X2.1000*%
%ADD116R,3.6000X1.3000*%
%ADD117R,8.1000X1.4000*%
%ADD118R,2.2000X0.7000*%
%ADD119R,4.1000X0.6000*%
%ADD120R,0.6000X5.6000*%
%ADD121R,0.6000X3.7000*%
%ADD122R,0.3000X1.7000*%
%ADD123R,7.4500X0.6000*%
%ADD124R,28.9000X0.3000*%
%ADD125C,1.3980*%
%ADD126C,2.3550*%
%ADD127C,3.2500*%
%ADD128R,1.3980X1.3980*%
%ADD129C,1.5080*%
%ADD130R,1.5080X1.5080*%
%ADD131C,1.1520*%
%ADD132R,1.2000X2.0000*%
%ADD133R,1.2000X2.3000*%
%ADD134C,0.5080*%
%ADD135C,1.0000*%
G36*
X472000Y432000D02*
X464000D01*
X455000Y423000D01*
X450000Y423000D01*
X450000Y420000D01*
X407000Y420000D01*
X414000Y427000D01*
X444000D01*
X461000Y444000D01*
X472000D01*
Y432000D01*
D02*
G37*
G36*
X447000Y416000D02*
X447000Y393000D01*
X421000Y393000D01*
X394000Y366000D01*
X390000Y366000D01*
Y388000D01*
X407000D01*
X435000Y416000D01*
X447000Y416000D01*
D02*
G37*
G36*
X795000Y304549D02*
X786554D01*
X786552Y304552D01*
X785381Y305335D01*
X784000Y305609D01*
X782619Y305335D01*
X781448Y304552D01*
X780665Y303381D01*
X780391Y302000D01*
X780665Y300619D01*
X781448Y299448D01*
X782619Y298665D01*
X784000Y298391D01*
X785381Y298665D01*
X786552Y299448D01*
X786554Y299451D01*
X795000D01*
Y295000D01*
X720579D01*
X719350Y295100D01*
X719350Y296270D01*
Y299451D01*
X735000D01*
X735040Y299459D01*
X735080Y299451D01*
X748000D01*
X748000Y299451D01*
X748976Y299645D01*
X749802Y300198D01*
X750355Y301024D01*
X750549Y302000D01*
Y327000D01*
X750355Y327975D01*
X749802Y328802D01*
X748976Y329355D01*
X748000Y329549D01*
X744700D01*
Y332050D01*
X726000D01*
Y329549D01*
X724555D01*
X724552Y329552D01*
X723381Y330335D01*
X722000Y330609D01*
X720619Y330335D01*
X719350Y331014D01*
Y333900D01*
X708050D01*
Y322100D01*
X719350D01*
Y322986D01*
X720619Y323665D01*
X722000Y323391D01*
X723381Y323665D01*
X724552Y324448D01*
X724555Y324451D01*
X726000D01*
Y322450D01*
X744700D01*
X745451Y321491D01*
Y320309D01*
X744700Y319350D01*
X744181Y319350D01*
X726000D01*
Y315549D01*
X719080D01*
Y318000D01*
X711080D01*
Y310000D01*
X712573D01*
X713105Y309645D01*
X714080Y309451D01*
X715055Y309645D01*
X715587Y310000D01*
X719080D01*
Y310451D01*
X726000D01*
Y309750D01*
X731868D01*
X732025Y309645D01*
X733000Y309451D01*
X733976Y309645D01*
X734133Y309750D01*
X744181D01*
X744700Y309750D01*
X745451Y308791D01*
Y304549D01*
X735080D01*
X735040Y304541D01*
X735000Y304549D01*
X719350D01*
Y306900D01*
X708050D01*
X708050Y295100D01*
X706821Y295000D01*
X705179D01*
X703950Y295100D01*
X703950Y296270D01*
Y306900D01*
X692650D01*
X692549Y308128D01*
Y311451D01*
X700920D01*
Y310000D01*
X702413D01*
X702945Y309645D01*
X703920Y309451D01*
X704895Y309645D01*
X705427Y310000D01*
X708920D01*
Y318000D01*
X700920D01*
Y316549D01*
X692549D01*
Y320872D01*
X692650Y322100D01*
X703950D01*
Y333900D01*
X702549D01*
Y336944D01*
X703605Y338000D01*
X707920D01*
Y346000D01*
X699920D01*
Y341525D01*
X698944Y340549D01*
X681045D01*
X680903Y340720D01*
X680496Y341784D01*
X680516Y341869D01*
X680648Y342067D01*
X680784Y342750D01*
Y344250D01*
X681713Y345451D01*
X685000D01*
Y342920D01*
X693000D01*
Y350920D01*
X694013Y351540D01*
X694540D01*
Y355810D01*
X689000D01*
Y358350D01*
X694540D01*
Y362620D01*
X691379D01*
X690700Y363890D01*
X690720Y363920D01*
X693000D01*
Y371270D01*
X693000Y371920D01*
X694013Y372540D01*
X694540D01*
Y376810D01*
X683460D01*
Y372540D01*
X683987D01*
X685000Y371920D01*
X685000Y371270D01*
Y366605D01*
X682054Y363659D01*
X680784Y364185D01*
Y364250D01*
X680648Y364933D01*
X680262Y365512D01*
Y366488D01*
X680648Y367067D01*
X680784Y367750D01*
Y369250D01*
X680648Y369933D01*
X680262Y370512D01*
X679683Y370898D01*
X679000Y371034D01*
X672500D01*
X671817Y370898D01*
X671238Y370512D01*
X670852Y369933D01*
X670716Y369250D01*
Y367750D01*
X670801Y367319D01*
X670331Y366442D01*
X670005Y366049D01*
X668549D01*
Y374944D01*
X670802Y377198D01*
X671355Y378024D01*
X671549Y379000D01*
Y392000D01*
X672000D01*
Y393451D01*
X684446D01*
X684448Y393448D01*
X685619Y392665D01*
X687000Y392391D01*
X688381Y392665D01*
X689552Y393448D01*
X690335Y394619D01*
X690609Y396000D01*
X690335Y397381D01*
X689552Y398552D01*
X688381Y399335D01*
X687000Y399609D01*
X685619Y399335D01*
X684448Y398552D01*
X684446Y398549D01*
X672898D01*
X672548Y398899D01*
X672699Y400428D01*
X673013Y400620D01*
X673540D01*
Y404890D01*
X662460D01*
Y400620D01*
X662987D01*
X664000Y400000D01*
X664000Y399350D01*
Y392000D01*
X666451D01*
Y380056D01*
X665189Y378793D01*
X664018Y379419D01*
X664034Y379500D01*
Y386000D01*
X663898Y386683D01*
X663512Y387262D01*
X662933Y387648D01*
X662250Y387784D01*
X660750D01*
X660101Y387655D01*
X659622Y388372D01*
X658534Y389099D01*
X657412Y389322D01*
X657173Y389481D01*
X656474Y390624D01*
X656549Y391000D01*
Y391920D01*
X658000D01*
Y399270D01*
X658000Y399920D01*
X659013Y400540D01*
X659540D01*
Y404810D01*
X648460D01*
Y400540D01*
X648987D01*
X650000Y399920D01*
X650000Y398507D01*
X649645Y397975D01*
X649451Y397000D01*
X649645Y396025D01*
X650000Y395493D01*
Y391920D01*
X650000D01*
X650385Y390990D01*
X649698Y390302D01*
X649145Y389476D01*
X647804Y389244D01*
X647770Y389251D01*
Y382750D01*
X645230D01*
Y389336D01*
X644049Y390231D01*
Y394500D01*
X644000Y394746D01*
X644000Y399920D01*
X645013Y400540D01*
X645540D01*
Y404810D01*
X634460D01*
Y400540D01*
X634987D01*
X636000Y399920D01*
X636000Y399270D01*
Y391920D01*
X638951D01*
Y388495D01*
X638558Y388169D01*
X637681Y387699D01*
X637250Y387784D01*
X635750D01*
X635101Y387655D01*
X634622Y388372D01*
X633534Y389099D01*
X632770Y389251D01*
Y382750D01*
X630230D01*
Y389336D01*
X629049Y390231D01*
Y391920D01*
X630000D01*
Y399920D01*
X631013Y400540D01*
X631540D01*
Y404810D01*
X626000D01*
Y406080D01*
X624730D01*
Y411620D01*
X620540D01*
Y416540D01*
X619624D01*
Y416999D01*
X619148Y418147D01*
X619586Y419340D01*
X620024Y419594D01*
X620381Y419665D01*
X620882Y420000D01*
X795000D01*
Y304549D01*
D02*
G37*
G36*
X996000Y396000D02*
X996000Y386000D01*
X988000Y386000D01*
X981000Y393000D01*
X973000D01*
X973000Y407000D01*
X985000D01*
X996000Y396000D01*
D02*
G37*
G36*
X383000Y433000D02*
Y427000D01*
X387000D01*
Y420000D01*
Y419000D01*
X432000D01*
X403000Y390000D01*
X387000D01*
Y368000D01*
X380000Y362000D01*
Y419000D01*
X380000Y424000D01*
X371000Y424000D01*
X360000Y435000D01*
X360000Y444000D01*
X372000D01*
X383000Y433000D01*
D02*
G37*
G36*
X996000Y363000D02*
X986000Y353000D01*
X977000D01*
X977833Y363833D01*
X990000Y376000D01*
X996000Y376000D01*
Y363000D01*
D02*
G37*
G36*
X660750Y377716D02*
X662250D01*
X662668Y377799D01*
X663311Y377257D01*
X663608Y376790D01*
X663451Y376000D01*
Y365554D01*
X663448Y365552D01*
X662665Y364381D01*
X662391Y363000D01*
X662665Y361619D01*
X663448Y360448D01*
X664619Y359665D01*
X666000Y359391D01*
X667381Y359665D01*
X668552Y360448D01*
X668812Y360836D01*
X670069Y360873D01*
X670331Y360558D01*
X670801Y359681D01*
X670716Y359250D01*
Y357750D01*
X670845Y357101D01*
X670128Y356622D01*
X669401Y355534D01*
X669249Y354770D01*
X675750D01*
Y352230D01*
X669164D01*
X668269Y351049D01*
X667809D01*
X667381Y351335D01*
X666000Y351609D01*
X664619Y351335D01*
X663448Y350552D01*
X662665Y349381D01*
X662391Y348000D01*
X662665Y346619D01*
X663448Y345448D01*
X664619Y344665D01*
X666000Y344391D01*
X667381Y344665D01*
X668552Y345448D01*
X668812Y345836D01*
X670069Y345873D01*
X670331Y345558D01*
X670801Y344681D01*
X670716Y344250D01*
Y342750D01*
X670852Y342067D01*
X671238Y341488D01*
Y340512D01*
X670852Y339933D01*
X670716Y339250D01*
Y337750D01*
X670852Y337067D01*
X671238Y336488D01*
Y335512D01*
X670852Y334933D01*
X670716Y334250D01*
Y332750D01*
X670801Y332319D01*
X670331Y331442D01*
X670069Y331127D01*
X668812Y331164D01*
X668552Y331552D01*
X667381Y332335D01*
X666000Y332609D01*
X664619Y332335D01*
X663448Y331552D01*
X662665Y330381D01*
X662391Y329000D01*
X662665Y327619D01*
X663448Y326448D01*
X664619Y325665D01*
X666000Y325391D01*
X667381Y325665D01*
X667809Y325951D01*
X668269D01*
X669164Y324770D01*
X675750D01*
Y322230D01*
X669249D01*
X669401Y321466D01*
X670128Y320378D01*
X670845Y319899D01*
X670716Y319250D01*
Y317750D01*
X670852Y317067D01*
X671238Y316488D01*
X671238Y315511D01*
X670852Y314933D01*
X670716Y314250D01*
Y312750D01*
X670852Y312067D01*
X671238Y311488D01*
X671817Y311101D01*
X672500Y310966D01*
X679000D01*
X679683Y311101D01*
X680206Y311451D01*
X682446D01*
X682448Y311448D01*
X683619Y310665D01*
X685000Y310391D01*
X686181Y310626D01*
X687451Y310029D01*
Y302000D01*
X687645Y301024D01*
X688198Y300198D01*
X689025Y299645D01*
X690000Y299451D01*
X692650D01*
X692650Y295100D01*
X691421Y295000D01*
X666407D01*
X665601Y295982D01*
X665604Y296000D01*
Y297980D01*
X661500D01*
Y299250D01*
X660230D01*
Y305751D01*
X659466Y305599D01*
X658378Y304872D01*
X657899Y304155D01*
X657250Y304284D01*
X656000D01*
Y376146D01*
X657250D01*
X658534Y376401D01*
X659622Y377128D01*
X660101Y377845D01*
X660750Y377716D01*
D02*
G37*
G36*
X650000Y310000D02*
X610000D01*
Y312376D01*
X613000D01*
X614148Y312852D01*
X614209Y313000D01*
X615000D01*
Y313220D01*
X616270Y313898D01*
X616619Y313665D01*
X618000Y313391D01*
X619381Y313665D01*
X620552Y314448D01*
X621335Y315619D01*
X621609Y317000D01*
X621335Y318381D01*
X622003Y319667D01*
X622423Y319796D01*
X622619Y319665D01*
X624000Y319391D01*
X625381Y319665D01*
X626552Y320448D01*
X627335Y321619D01*
X627609Y323000D01*
X627335Y324381D01*
X626552Y325552D01*
X625381Y326335D01*
X624000Y326609D01*
X622619Y326335D01*
X622423Y326204D01*
X622003Y326333D01*
X621335Y327619D01*
X621609Y329000D01*
X621335Y330381D01*
X620552Y331552D01*
X620277Y331736D01*
Y333264D01*
X620552Y333448D01*
X621335Y334619D01*
X621609Y336000D01*
X621335Y337381D01*
X620552Y338552D01*
X619381Y339335D01*
X618000Y339609D01*
X616619Y339335D01*
X615448Y338552D01*
X615446Y338549D01*
X610000D01*
Y365000D01*
X650000D01*
Y310000D01*
D02*
G37*
G36*
X207000Y328000D02*
X238000Y297000D01*
Y294000D01*
X224000Y294000D01*
X203000Y315000D01*
X196000D01*
X196000Y328000D01*
X207000Y328000D01*
D02*
G37*
%LPC*%
G36*
X673540Y411700D02*
X669270D01*
Y407430D01*
X673540D01*
Y411700D01*
D02*
G37*
G36*
X666730D02*
X662460D01*
Y407430D01*
X666730D01*
Y411700D01*
D02*
G37*
G36*
X631540Y411620D02*
X627270D01*
Y407350D01*
X631540D01*
Y411620D01*
D02*
G37*
G36*
X659540D02*
X655270D01*
Y407350D01*
X659540D01*
Y411620D01*
D02*
G37*
G36*
X652730D02*
X648460D01*
Y407350D01*
X652730D01*
Y411620D01*
D02*
G37*
G36*
X645540D02*
X641270D01*
Y407350D01*
X645540D01*
Y411620D01*
D02*
G37*
G36*
X638730D02*
X634460D01*
Y407350D01*
X638730D01*
Y411620D01*
D02*
G37*
G36*
X744700Y408250D02*
X726000D01*
Y405549D01*
X724555D01*
X724552Y405552D01*
X723381Y406334D01*
X722000Y406609D01*
X720619Y406334D01*
X719448Y405552D01*
X719446Y405549D01*
X718080D01*
Y407000D01*
X710080D01*
Y399000D01*
X718080D01*
Y400451D01*
X719446D01*
X719448Y400448D01*
X720619Y399665D01*
X722000Y399391D01*
X723381Y399665D01*
X724552Y400448D01*
X724555Y400451D01*
X726000D01*
Y398650D01*
X744700D01*
Y408250D01*
D02*
G37*
G36*
X707920Y407000D02*
X699920D01*
Y399000D01*
X700220D01*
X700898Y397730D01*
X700665Y397381D01*
X700391Y396000D01*
X700627Y394810D01*
X700075Y393540D01*
X698380D01*
Y389270D01*
X703920D01*
Y386730D01*
X698380D01*
Y382460D01*
X698841D01*
X699920Y382000D01*
X699920Y381190D01*
Y374000D01*
X701371D01*
Y372437D01*
X700665Y371381D01*
X700391Y370000D01*
X700665Y368619D01*
X700898Y368270D01*
X700220Y367000D01*
X699920D01*
X699920Y359000D01*
X698841Y358540D01*
X698380D01*
Y354270D01*
X703920D01*
Y353000D01*
X705190D01*
Y347460D01*
X709460D01*
Y347987D01*
X710080Y349000D01*
X710730Y349000D01*
X718080D01*
Y350451D01*
X719446D01*
X719448Y350448D01*
X720619Y349665D01*
X722000Y349391D01*
X723381Y349665D01*
X724552Y350448D01*
X724730Y350714D01*
X726000Y350329D01*
Y347850D01*
X744700D01*
Y357450D01*
X726000D01*
Y355671D01*
X724730Y355286D01*
X724552Y355552D01*
X723381Y356334D01*
X722000Y356609D01*
X720619Y356334D01*
X719448Y355552D01*
X719446Y355549D01*
X718080D01*
Y357000D01*
X710817Y357000D01*
X710002Y358234D01*
X710255Y358879D01*
X710330Y358910D01*
X710527Y358955D01*
X710794Y359000D01*
X711114Y359000D01*
X718080D01*
Y362451D01*
X719446D01*
X719448Y362448D01*
X720619Y361665D01*
X722000Y361391D01*
X723381Y361665D01*
X724552Y362448D01*
X724730Y362714D01*
X726000Y362329D01*
Y360550D01*
X744700D01*
Y370150D01*
X726000D01*
Y369063D01*
X724730Y368424D01*
X724549Y368558D01*
Y375451D01*
X726000D01*
Y373250D01*
X744700D01*
Y382850D01*
X726000D01*
Y380549D01*
X722000D01*
X721025Y380355D01*
X720198Y379802D01*
X719645Y378975D01*
X719451Y378000D01*
Y367554D01*
X719448Y367552D01*
X719446Y367549D01*
X713080D01*
X712105Y367355D01*
X711573Y367000D01*
X710080D01*
X710080Y360129D01*
X710080Y359897D01*
X710018Y359452D01*
X709622Y358805D01*
X709488Y358747D01*
X709375Y358724D01*
X709084Y358673D01*
X709054Y358671D01*
X707920Y359546D01*
Y367000D01*
X707780D01*
X707102Y368270D01*
X707335Y368619D01*
X707609Y370000D01*
X707335Y371381D01*
X706552Y372552D01*
X706469Y372608D01*
Y374000D01*
X707920D01*
X707920Y381454D01*
X709054Y382329D01*
X709084Y382327D01*
X709183Y382309D01*
X709476Y382257D01*
X709622Y382195D01*
X710018Y381548D01*
X710080Y381103D01*
X710080Y380947D01*
Y374000D01*
X718080D01*
Y382000D01*
X716629D01*
Y384000D01*
X718080D01*
Y386201D01*
X726000D01*
Y385950D01*
X744700D01*
Y395550D01*
X726000D01*
Y391299D01*
X718080D01*
Y392000D01*
X715587D01*
X715055Y392355D01*
X714080Y392549D01*
X713105Y392355D01*
X712573Y392000D01*
X710080Y392000D01*
X709460Y393013D01*
Y393540D01*
X707925D01*
X707373Y394810D01*
X707609Y396000D01*
X707335Y397381D01*
X707102Y397730D01*
X707780Y399000D01*
X707920D01*
Y407000D01*
D02*
G37*
G36*
X694540Y383620D02*
X690270D01*
Y379350D01*
X694540D01*
Y383620D01*
D02*
G37*
G36*
X687730D02*
X683460D01*
Y379350D01*
X687730D01*
Y383620D01*
D02*
G37*
G36*
X702650Y351730D02*
X698380D01*
Y347460D01*
X702650D01*
Y351730D01*
D02*
G37*
G36*
X718080Y346000D02*
X710080D01*
Y338000D01*
X711573D01*
X712105Y337645D01*
X713080Y337451D01*
X726000D01*
Y335150D01*
X744700D01*
Y344750D01*
X726000D01*
Y342549D01*
X718080D01*
Y346000D01*
D02*
G37*
G36*
X662770Y305751D02*
Y300520D01*
X665604D01*
Y302500D01*
X665349Y303784D01*
X664622Y304872D01*
X663534Y305599D01*
X662770Y305751D01*
D02*
G37*
%LPD*%
D11*
X930000Y446000D02*
X934000Y442000D01*
X929000Y440000D02*
Y443000D01*
X547000Y357000D02*
X560000D01*
X509000Y494000D02*
Y496000D01*
X472000Y429500D02*
Y470000D01*
X473000Y462000D02*
X498000D01*
X492000Y447080D02*
Y461000D01*
X578000Y348000D02*
X580000D01*
X578000D02*
Y353500D01*
X568000Y316000D02*
X570000Y318000D01*
X568000Y309920D02*
X569920Y308000D01*
X494000Y338000D02*
X497000Y335000D01*
X499250Y332000D02*
Y332040D01*
X361080Y451000D02*
X377000D01*
X360000Y449000D02*
X361080D01*
X177000Y397000D02*
X211000D01*
X387000Y326000D02*
Y335500D01*
X449000Y313080D02*
X450000Y312080D01*
X257000Y333420D02*
X258420Y332000D01*
X246000Y421000D02*
X253000Y428000D01*
X246000Y408000D02*
X251000Y403000D01*
Y398000D02*
Y403000D01*
Y398000D02*
X256000D01*
X270000Y430000D02*
X282920D01*
X288000Y440000D02*
X296000Y448000D01*
X275000Y440000D02*
X288000D01*
X272300D02*
X275000D01*
X269300Y443000D02*
X272300Y440000D01*
X280000Y445000D02*
Y448000D01*
X272000Y456000D02*
X280000Y448000D01*
X269300Y456000D02*
X272000D01*
X564500Y438000D02*
Y460000D01*
X527080Y450000D02*
X529000D01*
X632920Y483920D02*
X645000D01*
X689500Y467500D02*
X700000D01*
X705000Y449080D02*
X720000D01*
X695000D02*
X704920D01*
X479000Y494000D02*
X498000D01*
X481000Y450080D02*
X483000Y448080D01*
X602000Y348000D02*
X604000Y350000D01*
X561000Y347000D02*
X567920D01*
X554000Y326000D02*
Y346920D01*
X463000Y418000D02*
Y424000D01*
X501080Y303000D02*
X508000D01*
X480000Y326000D02*
X482000Y324000D01*
X350500Y449000D02*
X351000D01*
X350500D02*
Y457000D01*
X349500Y450000D02*
X350500Y449000D01*
X438000Y415000D02*
X456000D01*
X306000Y440000D02*
Y450000D01*
X329080Y391080D02*
X334000D01*
X299000Y440000D02*
X305920D01*
X290000Y393000D02*
Y418000D01*
X405000Y382000D02*
X423000Y400000D01*
X403000Y384000D02*
X405000Y382000D01*
X455000Y302000D02*
X469000D01*
X422000D02*
X454000D01*
X394000Y369000D02*
X395000Y370000D01*
X539000Y443000D02*
X540000Y444000D01*
X517000Y443000D02*
X539000D01*
X515920Y441920D02*
X517000Y443000D01*
X515920Y437000D02*
Y441920D01*
X492500Y311750D02*
X499000D01*
X527080Y437000D02*
X533000D01*
X507000Y406920D02*
X507080Y407000D01*
X506000Y405920D02*
X507000Y406920D01*
Y401000D02*
Y406920D01*
Y401000D02*
X509000Y399000D01*
X188000Y367000D02*
X202000D01*
X210000Y359000D01*
Y359000D02*
Y359000D01*
X406500Y347000D02*
X407000Y334500D01*
Y335500D01*
X223000Y327000D02*
Y346000D01*
X210000Y359000D02*
X223000Y346000D01*
X407000Y322000D02*
Y334500D01*
X391904Y306904D02*
X407000Y322000D01*
X223000Y327000D02*
X243096Y306904D01*
X391904D01*
X255300Y443000D02*
Y455200D01*
Y430000D02*
Y443000D01*
X255000Y455500D02*
X255300Y455200D01*
X246000Y408000D02*
Y421000D01*
X295500Y331500D02*
Y336000D01*
X267000Y333580D02*
X268580Y332000D01*
X267000Y340000D02*
X273000Y346000D01*
X267000Y333580D02*
Y340000D01*
X257000Y342000D02*
X265000Y350000D01*
X257000Y333420D02*
Y342000D01*
X287000Y350000D02*
X293500Y343500D01*
X265000Y350000D02*
X287000D01*
X309500Y358000D02*
X325000D01*
X268000D02*
X309500D01*
Y347000D02*
Y358000D01*
X306000Y343500D02*
X309500Y347000D01*
X293500Y343500D02*
X306000D01*
X321000Y331000D02*
Y349000D01*
X250500Y323000D02*
X321000D01*
X243500Y330000D02*
X250500Y323000D01*
X243500Y330000D02*
Y337500D01*
X285500Y346000D02*
X295500Y336000D01*
X273000Y346000D02*
X285500D01*
X178000Y392000D02*
X209000D01*
X293500Y354000D02*
X298500Y349000D01*
X260000Y354000D02*
X293500D01*
X298500Y349000D02*
X300000D01*
X780000Y365000D02*
X806000D01*
X689000Y354000D02*
X697000D01*
X661000Y406000D02*
X669000D01*
X614080Y406080D02*
X615000Y407000D01*
X662000Y298000D02*
Y323000D01*
X647000Y382750D02*
Y406000D01*
X697000Y419000D02*
X741000D01*
X687000Y456000D02*
X689000Y458000D01*
X687000Y439920D02*
Y456000D01*
X686000Y438920D02*
X687000Y439920D01*
X784000Y301000D02*
X785000Y302000D01*
X842000D01*
X847080Y296920D01*
Y296000D02*
Y296920D01*
X857000Y295000D02*
Y296000D01*
X850000Y288000D02*
X857000Y295000D01*
X216033Y288000D02*
X850000D01*
X218500Y291500D02*
X832500D01*
X836000Y295000D01*
X880000Y295000D02*
X900000D01*
X868000Y295000D02*
X880000D01*
X407000Y447500D02*
Y462000D01*
X423000Y400000D02*
Y400000D01*
X438000Y415000D01*
X713000Y468000D02*
X720000D01*
X703000D02*
X713000D01*
X704920Y449080D02*
X705000Y449000D01*
X720000Y449080D02*
Y468000D01*
X701000Y470000D02*
X703000Y468000D01*
X720000Y426000D02*
Y449080D01*
X713000Y458000D02*
X714000D01*
X705080D02*
X713000D01*
X686000Y438000D02*
Y438920D01*
X689000Y458000D02*
X694920D01*
X689000Y468000D02*
X689500Y467500D01*
X645000Y427000D02*
Y438920D01*
X661000Y496000D02*
X668000D01*
X659500Y494500D02*
X661000Y496000D01*
X658000Y494500D02*
X659500D01*
X632000Y483000D02*
X632920Y483920D01*
X656080Y494080D02*
X657000Y495000D01*
X645000Y494080D02*
X656080D01*
X627970Y438030D02*
X629000Y437000D01*
X618000Y438030D02*
X627970D01*
X556000D02*
X557000D01*
X545030D02*
X556000D01*
X617000Y433000D02*
X619000Y435000D01*
X617000Y430000D02*
Y433000D01*
X597000Y410000D02*
X617000Y430000D01*
X570000Y438530D02*
Y448000D01*
X584000Y428000D02*
X585094D01*
X584835Y436292D02*
X585094Y428000D01*
X605000Y427000D02*
Y433000D01*
X598000Y420000D02*
X605000Y427000D01*
X600000Y428000D02*
Y436530D01*
X596000Y424000D02*
X600000Y428000D01*
X595000Y429000D02*
Y437000D01*
X594000Y428000D02*
X595000Y429000D01*
X699500Y475500D02*
X700000Y475000D01*
X682000Y475500D02*
X699500D01*
X806000Y365000D02*
X806500Y364500D01*
X848000Y391000D02*
X848046Y390954D01*
X862000D01*
X806000Y379000D02*
X806950Y378050D01*
X805450Y403450D02*
X820650D01*
X837000Y363046D02*
X862000D01*
X837000D02*
Y379000D01*
X697000Y406000D02*
Y419000D01*
X881000Y392000D02*
X881000Y392000D01*
X881000Y379000D02*
Y392000D01*
Y395000D02*
X881000D01*
X836920Y391080D02*
X849000Y379000D01*
X881000D01*
X836920Y391000D02*
Y391080D01*
X820650Y340000D02*
X835000D01*
X837000Y314920D02*
Y315000D01*
X806000Y314000D02*
X806550Y314550D01*
X836920Y315000D02*
X837000D01*
X827000D02*
X836920D01*
X881000Y322000D02*
X881000D01*
Y317000D02*
Y322000D01*
X847080Y340000D02*
X875000D01*
X847000Y315000D02*
X847080Y315080D01*
X875000Y340000D02*
X880000Y335000D01*
X333000Y323000D02*
X359000D01*
X333000D02*
Y350000D01*
X251000Y363000D02*
X260000Y354000D01*
X248000Y386000D02*
X253000Y391000D01*
X248000Y386000D02*
Y386000D01*
X240000Y386000D02*
X248000D01*
X214000Y412000D02*
X240000Y386000D01*
X270000Y418000D02*
X289000D01*
X255000Y407000D02*
X258000Y404000D01*
X255000Y407000D02*
Y416000D01*
X256000Y398000D02*
X268000Y386000D01*
X270000Y390000D02*
Y404000D01*
Y390000D02*
X277000Y383000D01*
X233000Y415000D02*
X236000D01*
X316080Y444000D02*
X321000D01*
X316000Y408000D02*
X321000Y413000D01*
X290000Y393000D02*
X296000Y387000D01*
X290000Y418000D02*
X305920Y433920D01*
X277000Y376000D02*
Y383000D01*
X218000Y422000D02*
X232000Y408000D01*
X189000Y422000D02*
X218000D01*
X232000Y408000D02*
X240000D01*
X241000Y409000D01*
X268000Y358000D02*
Y386000D01*
X223000Y432000D02*
X235000Y420000D01*
X240000D01*
X299000Y440000D02*
X300000D01*
X299000Y440000D02*
X299000Y440000D01*
X291080Y435080D02*
X292000Y436000D01*
X291080Y430000D02*
Y435080D01*
X270000Y430000D02*
X270000Y430000D01*
X316920Y457080D02*
X326000Y448000D01*
X294000Y457080D02*
X316920D01*
X269300Y430000D02*
X270000D01*
X342000Y424000D02*
X358500D01*
X283000Y456000D02*
X284000Y455000D01*
X235000Y464000D02*
X283000D01*
X213000Y442000D02*
X235000Y464000D01*
X187000Y442000D02*
X213000D01*
X233000Y468000D02*
X378000D01*
X213000Y448000D02*
X233000Y468000D01*
X189000Y448000D02*
X213000D01*
X231000Y472000D02*
X380000D01*
X212000Y453000D02*
X231000Y472000D01*
X189000Y453000D02*
X212000D01*
X412000Y447500D02*
Y458839D01*
X229000Y476000D02*
X402000D01*
X211000Y458000D02*
X229000Y476000D01*
X190000Y458000D02*
X211000D01*
X417000Y447500D02*
Y467000D01*
X227000Y480000D02*
X404000D01*
X209000Y462000D02*
X227000Y480000D01*
X190000Y462000D02*
X209000D01*
X225000Y484000D02*
X406000D01*
X208000Y467000D02*
X225000Y484000D01*
X190000Y467000D02*
X208000D01*
X223000Y488000D02*
X408000D01*
X207000Y472000D02*
X223000Y488000D01*
X191000Y472000D02*
X207000D01*
X221000Y492000D02*
X410000D01*
X206000Y477000D02*
X221000Y492000D01*
X191000Y477000D02*
X206000D01*
X219000Y496000D02*
X412000D01*
X205000Y482000D02*
X219000Y496000D01*
X191000Y482000D02*
X205000D01*
X217000Y500000D02*
X414000D01*
X204000Y487000D02*
X217000Y500000D01*
X191000Y487000D02*
X204000D01*
X305920Y434000D02*
Y440000D01*
Y433920D02*
Y434000D01*
X283000Y464000D02*
X321000D01*
X283000Y456000D02*
Y464000D01*
X305920Y440000D02*
Y444000D01*
Y440000D02*
X306000D01*
X321000Y464000D02*
X331000Y454000D01*
Y435000D02*
Y454000D01*
X321000Y323000D02*
Y331000D01*
X321000Y331000D02*
X321000Y331000D01*
X342000Y338000D02*
X345000D01*
X334000Y359920D02*
X339000Y354920D01*
Y354000D02*
Y354920D01*
X325000Y358000D02*
X333000Y350000D01*
X304000Y387000D02*
X305000D01*
X296000D02*
X304000D01*
X316000Y386000D02*
X324000D01*
X329080Y391080D01*
X334000Y371000D02*
X341000D01*
X332000D02*
X334000D01*
X299000Y392000D02*
X320000D01*
X295000Y396000D02*
X299000Y392000D01*
X310000Y378000D02*
Y391000D01*
X333000Y405000D02*
X347000D01*
X320000Y392000D02*
X333000Y405000D01*
X307000Y432080D02*
Y433000D01*
X373000Y354000D02*
X379000D01*
X345000Y338000D02*
Y348000D01*
X339000Y354000D02*
X345000Y348000D01*
X209000Y392000D02*
X238000Y363000D01*
X251000D01*
X262000Y358000D02*
X268000D01*
X253000Y367000D02*
X262000Y358000D01*
X241000Y367000D02*
X253000D01*
X211000Y397000D02*
X241000Y367000D01*
X243000Y371000D02*
X257000D01*
X243000Y371000D02*
X243000Y371000D01*
X211000Y403000D02*
X243000Y371000D01*
X262000Y365000D02*
Y376000D01*
X244000D02*
X262000D01*
X307000Y432080D02*
X316080Y423000D01*
X320000Y413000D02*
X324000Y417000D01*
Y425000D01*
X316080Y432920D02*
X324000Y425000D01*
X316080Y432920D02*
Y433000D01*
X295000Y416000D02*
X302000Y423000D01*
X295000Y396000D02*
Y416000D01*
X302000Y423000D02*
X305920D01*
X329000Y414000D02*
Y425000D01*
X323000Y431000D02*
X329000Y425000D01*
X323000Y431000D02*
Y442000D01*
X321000Y444000D02*
X323000Y442000D01*
X327000Y433000D02*
Y446000D01*
X326000Y447000D02*
X327000Y446000D01*
X341000Y419000D02*
X357080D01*
X327000Y433000D02*
X341000Y419000D01*
X331000Y435000D02*
X342000Y424000D01*
X305500Y450500D02*
X306000Y450000D01*
Y452000D01*
X613000Y329000D02*
X618000D01*
X459500Y414500D02*
X463000Y418000D01*
X455750Y414500D02*
X459500D01*
X394000Y384000D02*
X403000D01*
X394000Y371000D02*
Y384000D01*
Y369000D02*
Y371000D01*
X379000Y354000D02*
X394000Y369000D01*
X403000Y384000D02*
X405000D01*
X394000Y371000D02*
X395000Y370000D01*
X494000Y419000D02*
X544000D01*
X492000Y421000D02*
X494000Y419000D01*
X515000Y351000D02*
Y399000D01*
X507000Y343000D02*
X515000Y351000D01*
X502000Y343000D02*
X507000D01*
X519000Y346000D02*
Y397000D01*
X511000Y338000D02*
X519000Y346000D01*
X524000Y341000D02*
Y395000D01*
X515000Y332000D02*
X524000Y341000D01*
X500000Y332000D02*
X515000D01*
X497000Y333100D02*
Y335000D01*
X493000Y338000D02*
X494000D01*
X497000Y333100D02*
X498100Y332000D01*
X499250D02*
X500000D01*
Y327000D02*
X519000D01*
X524000Y408000D02*
X547000D01*
X491000Y421000D02*
X492000D01*
X499000Y393000D02*
X500000Y394000D01*
X499000Y391000D02*
Y393000D01*
X492000Y384000D02*
X499000Y391000D01*
X500000Y394000D02*
Y395000D01*
X547000Y333000D02*
Y357000D01*
Y324000D02*
Y333000D01*
X613000Y317000D02*
X617000D01*
X605000Y323000D02*
X624000D01*
X606000Y336000D02*
X618000D01*
X487000Y340150D02*
Y345000D01*
X472000Y350000D02*
Y354000D01*
X525000Y396000D02*
X533000D01*
X536000Y393000D01*
Y388300D02*
Y393000D01*
Y388300D02*
X545000Y379300D01*
X519000Y397000D02*
X524000Y402000D01*
X533000D01*
X515000Y399000D02*
X524000Y408000D01*
X667000Y396000D02*
X687000D01*
X703920Y365000D02*
Y378000D01*
X472000Y349000D02*
Y350000D01*
X471500Y349500D02*
Y354000D01*
Y349000D02*
Y349500D01*
X472000Y350000D01*
X468000Y346000D02*
X471500Y349500D01*
X468000Y345000D02*
Y346000D01*
X506000Y364000D02*
X507000D01*
X504000Y366000D02*
X506000Y364000D01*
X496000Y366000D02*
X504000D01*
X505500Y356500D02*
Y357500D01*
X501000Y362000D02*
X505500Y357500D01*
X494000Y362000D02*
X501000D01*
X497000Y358000D02*
X498000Y357000D01*
X492000Y358000D02*
X497000D01*
X498000Y349000D02*
Y349000D01*
X493000Y354000D02*
X498000Y349000D01*
X490000Y354000D02*
X493000D01*
X483000Y379000D02*
X496000Y366000D01*
X482000Y374000D02*
X494000Y362000D01*
X481000Y369000D02*
X492000Y358000D01*
X407000Y368000D02*
X419000D01*
X396500Y357500D02*
X407000Y368000D01*
X396500Y350250D02*
Y357500D01*
X406000Y373000D02*
X414000D01*
X391500Y358500D02*
X406000Y373000D01*
X391500Y350250D02*
Y358500D01*
X409000Y358000D02*
X419000D01*
X414000Y363000D02*
X415000Y362000D01*
X485000Y399000D02*
X489000Y403000D01*
X471500Y399000D02*
X485000D01*
X492500Y399500D02*
X493000Y399000D01*
X487000Y394000D02*
X492500Y399500D01*
X471500Y394000D02*
X487000D01*
X493000Y399000D02*
X494000D01*
X493000Y392000D02*
Y393000D01*
X489000Y389000D02*
X493000Y393000D01*
X408000Y363000D02*
X414000D01*
X401500Y356500D02*
X408000Y363000D01*
X401500Y350250D02*
Y356500D01*
X471500Y379000D02*
X483000D01*
X481000Y374000D02*
X482000D01*
X481000Y374000D02*
X481000Y374000D01*
X479000Y359000D02*
X489000Y349000D01*
X480000Y364000D02*
X490000Y354000D01*
X471500Y369000D02*
X481000D01*
X471500Y364000D02*
X480000D01*
X489000Y349000D02*
X490000D01*
X471500Y359000D02*
X479000D01*
X464000Y331000D02*
X464746Y331746D01*
X469700D01*
X457000Y319000D02*
Y320000D01*
X454000Y316000D02*
X457000Y319000D01*
X452000Y327000D02*
X458000D01*
X406500Y355500D02*
X409000Y358000D01*
X406500Y350250D02*
Y355500D01*
X471500Y404000D02*
X481000D01*
X471500Y384000D02*
X492000D01*
X471500Y389000D02*
X489000D01*
X437000Y320000D02*
Y334500D01*
Y319000D02*
Y320000D01*
X479000Y374000D02*
X481000D01*
X472500D02*
X479000D01*
X575000Y378000D02*
Y394000D01*
X585000Y344000D02*
X593000D01*
X577080Y336080D02*
X585000Y344000D01*
X562080Y336080D02*
X577080D01*
X571000Y326000D02*
X585000D01*
X881000Y395000D02*
Y404000D01*
Y392000D02*
Y395000D01*
X881000D02*
Y398000D01*
X820650Y390750D02*
X835750D01*
X817650D02*
X820650D01*
X847080Y327000D02*
X880000D01*
X881000Y322000D02*
Y331000D01*
Y318000D02*
Y322000D01*
X847080Y315080D02*
Y327000D01*
Y315000D02*
Y315080D01*
X825500Y327000D02*
X835920D01*
X847000Y315000D02*
X847080D01*
X699000Y330000D02*
X700000Y331000D01*
Y338000D01*
X690000Y302000D02*
Y313000D01*
Y314000D02*
X703920D01*
Y312000D02*
Y314000D01*
X690000D02*
Y334000D01*
Y302000D02*
X701300D01*
X676750Y334000D02*
X690000D01*
X713080Y365000D02*
X722000D01*
X676750Y314000D02*
X685000D01*
X681000Y318000D02*
X685000Y322000D01*
X722000Y327000D02*
X748000D01*
X715000Y302000D02*
X735000D01*
X714080Y327000D02*
X722000D01*
Y327000D02*
Y327000D01*
X700000Y338000D02*
X703000Y341000D01*
X678750Y338000D02*
X700000D01*
X600500Y333500D02*
X601000Y333000D01*
X592250Y333500D02*
X600500D01*
X592250Y323500D02*
X600500D01*
X592250Y328500D02*
X608500D01*
X592250Y318500D02*
X597500D01*
X599000Y317000D01*
X608000D01*
X609000Y316000D01*
X820650Y339950D02*
Y340000D01*
X546000Y380000D02*
X547000Y379000D01*
Y357000D02*
Y379000D01*
Y324000D02*
X551000Y320000D01*
X492900Y437221D02*
X494992Y437920D01*
X492000Y436920D02*
X492900Y437221D01*
X491000Y434000D02*
Y436000D01*
X485000Y428000D02*
X491000Y434000D01*
X494992Y437920D02*
X504000Y447000D01*
X485000Y414000D02*
Y428000D01*
X509000Y496000D02*
X514000Y501000D01*
X377000Y451000D02*
Y452000D01*
Y448500D02*
Y451000D01*
X469500Y399000D02*
X471500D01*
X382000Y457000D02*
X382000Y457000D01*
X350500Y457000D02*
X382000D01*
X342000Y451000D02*
X349500D01*
X360000Y430000D02*
Y449000D01*
X491000Y436000D02*
X492000Y437000D01*
X497000Y463000D02*
X498000Y462000D01*
X507000D01*
X471500Y409000D02*
X497000D01*
X202500Y307500D02*
X218500Y291500D01*
X181000Y307500D02*
X202500D01*
X202033Y302000D02*
X216033Y288000D01*
X500000Y429000D02*
X501000D01*
X480000Y438000D02*
X482000D01*
X480000Y424000D02*
Y438000D01*
X471750Y327000D02*
X480000D01*
X544000Y436000D02*
Y437000D01*
X481000Y450080D02*
Y454000D01*
X545000Y438000D02*
X545030Y438030D01*
X542000Y448000D02*
X543000Y449000D01*
X471000Y495000D02*
X473000Y497000D01*
Y494000D02*
X479000D01*
X499000Y476000D02*
X511000D01*
X462000Y462000D02*
Y469000D01*
X472000Y470000D02*
X472080D01*
X434000Y486000D02*
Y488000D01*
Y486000D02*
X452000Y468000D01*
Y456000D02*
Y468000D01*
X481080Y302000D02*
Y302920D01*
X477500Y306500D02*
X481080Y302920D01*
X477500Y306500D02*
Y310850D01*
X454000Y302000D02*
Y316000D01*
X449000Y317000D02*
X452000Y320000D01*
X449000Y313080D02*
Y317000D01*
X452000Y320000D02*
Y334000D01*
X447000Y322000D02*
Y329000D01*
X439000Y314000D02*
X447000Y322000D01*
X432064Y323226D02*
Y329936D01*
X411000Y302000D02*
Y307000D01*
X282000Y336000D02*
X282080Y336080D01*
X431936Y316936D02*
Y323098D01*
X425000Y310000D02*
X431936Y316936D01*
X414000Y310000D02*
X425000D01*
X411000Y307000D02*
X414000Y310000D01*
X472000Y349000D02*
X483000D01*
X487000Y345000D01*
X471750Y327000D02*
Y330750D01*
X472000Y317000D02*
Y321536D01*
X487000Y338000D02*
Y340150D01*
X461000Y312080D02*
X469080D01*
X472000Y315000D01*
X452000Y327000D02*
Y334500D01*
X447000Y329000D02*
X447000Y329000D01*
Y334500D01*
X502000Y431000D02*
Y436000D01*
X471500Y414000D02*
X485000D01*
X480000Y424000D02*
X480000Y424000D01*
X471500D02*
X480000D01*
X492500Y303500D02*
Y310850D01*
X472500Y314000D02*
X477000D01*
X499000Y313000D02*
Y321000D01*
Y311750D02*
Y312000D01*
X471000Y494000D02*
Y495000D01*
X457000Y456000D02*
X463000Y450000D01*
X452000Y456000D02*
X457000D01*
X187000Y327000D02*
X202033D01*
X187000Y322000D02*
X202033D01*
X232000Y402000D02*
X235000D01*
X217000Y417000D02*
X232000Y402000D01*
X191000Y417000D02*
X217000D01*
X221000Y427000D02*
X233000Y415000D01*
X190000Y427000D02*
X221000D01*
X191000Y432000D02*
X223000D01*
X225000Y437000D02*
X235000Y427000D01*
X192000Y437000D02*
X225000D01*
X390000Y311000D02*
X402000Y323000D01*
X244033Y311000D02*
X390000D01*
X227000Y328033D02*
X244033Y311000D01*
X388000Y315000D02*
X397000Y324000D01*
X246000Y315000D02*
X388000D01*
X231000Y330000D02*
X246000Y315000D01*
X392000Y325000D02*
Y330000D01*
X386000Y319000D02*
X392000Y325000D01*
X248000Y319000D02*
X386000D01*
X235000Y332000D02*
X248000Y319000D01*
X384000Y323000D02*
X387000Y326000D01*
X359000Y323000D02*
X384000D01*
X359000D02*
Y332000D01*
X372000Y344000D02*
X377000D01*
X281000Y328000D02*
Y336000D01*
X382000Y327000D02*
X382000Y327000D01*
X366000Y327000D02*
X382000D01*
X366000D02*
Y347000D01*
X385500Y344000D02*
X386500Y345000D01*
X377000Y344000D02*
X385500D01*
X377000Y334500D02*
Y344000D01*
X315000Y414000D02*
X315080Y414080D01*
X357080Y414000D02*
X359500D01*
X348000D02*
X357080D01*
X347000D02*
X348000D01*
X311000Y413000D02*
X313000Y415000D01*
X399000Y425000D02*
X406500D01*
X391500D02*
X399000D01*
X406500D02*
Y432000D01*
X391500Y425000D02*
Y433750D01*
X416936Y319936D02*
Y335436D01*
X396476Y299476D02*
X416936Y319936D01*
X395476Y299476D02*
X396476D01*
X412000Y321000D02*
Y334500D01*
X394000Y303000D02*
X412000Y321000D01*
X242016Y303000D02*
X394000D01*
X402000Y323000D02*
Y334500D01*
X397000Y324000D02*
Y334500D01*
X240557Y299476D02*
X395476D01*
X215033Y325000D02*
X240557Y299476D01*
X190000Y403000D02*
X211000D01*
X213000Y407000D02*
X244000Y376000D01*
X205000Y382000D02*
X235000Y352000D01*
Y332000D02*
Y352000D01*
X204000Y377000D02*
X231000Y350000D01*
Y330000D02*
Y350000D01*
X203000Y372000D02*
X227000Y348000D01*
Y328033D02*
Y348000D01*
X219016Y326000D02*
X242016Y303000D01*
X219000Y326000D02*
X219016D01*
X219000D02*
Y344000D01*
X412000Y334500D02*
Y335500D01*
X201000Y362000D02*
X219000Y344000D01*
X215000Y325000D02*
X215033D01*
X215000D02*
Y342000D01*
X202000Y355000D02*
X215000Y342000D01*
X447000Y450000D02*
Y467000D01*
X414000Y500000D02*
X447000Y467000D01*
X442000Y457000D02*
Y466000D01*
X412000Y496000D02*
X442000Y466000D01*
X437000Y448500D02*
Y465000D01*
X410000Y492000D02*
X437000Y465000D01*
X432000Y459500D02*
Y464000D01*
X408000Y488000D02*
X432000Y464000D01*
X427000Y448500D02*
Y463000D01*
X406000Y484000D02*
X427000Y463000D01*
X404000Y480000D02*
X417000Y467000D01*
X412064Y458902D02*
Y465936D01*
X402000Y476000D02*
X412064Y465936D01*
X442000Y448500D02*
Y457000D01*
Y447500D02*
Y448500D01*
X437000Y447500D02*
Y448500D01*
X432000D02*
Y459500D01*
Y447500D02*
Y448500D01*
X427000Y447500D02*
Y448500D01*
X347000Y405000D02*
X348000Y404000D01*
X357080Y359000D02*
X359500D01*
X343000D02*
X357080D01*
X342000D02*
X343000D01*
X357080Y364000D02*
X359500D01*
X348000D02*
X357080D01*
X347000D02*
X348000D01*
X422000Y322000D02*
Y336000D01*
X427000Y324162D02*
Y335000D01*
X469500Y369000D02*
X471500D01*
X468500Y359000D02*
X471500D01*
X468500Y379000D02*
X471500D01*
X368500Y349500D02*
X373000Y354000D01*
X386000Y368000D02*
Y419500D01*
X376000Y358000D02*
X386000Y368000D01*
X371000Y358000D02*
X376000D01*
X366000Y347000D02*
X368500Y349500D01*
X386500Y345000D02*
Y349000D01*
X206000Y387000D02*
X235000Y358000D01*
X248000D01*
X190000Y387000D02*
X206000D01*
X386000Y419500D02*
X454500D01*
X372250D02*
X386000D01*
Y420000D01*
X357700Y344700D02*
X371000Y358000D01*
X357700Y335000D02*
Y344700D01*
X334000Y359920D02*
Y360000D01*
X357080Y354000D02*
X358500D01*
X348000D02*
X357080D01*
X347000D02*
X348000D01*
X334000Y371000D02*
Y380920D01*
Y370080D02*
Y371000D01*
Y370000D02*
Y370080D01*
Y370000D02*
X335000Y369000D01*
X321000Y409000D02*
Y413000D01*
X357080Y409000D02*
X358000D01*
X321000D02*
X357080D01*
Y394000D02*
X359500D01*
X348000D02*
X357080D01*
X347000D02*
X348000D01*
X357080Y389000D02*
X358500D01*
X342000D02*
X357080D01*
Y384000D02*
X359500D01*
X348000D02*
X357080D01*
X347000D02*
X348000D01*
X357080Y379000D02*
X359500D01*
X342000D02*
X357080D01*
X341000D02*
X342000D01*
X335000Y362000D02*
X338000D01*
X345000Y369000D01*
X357080D01*
X358500D01*
X357080Y424000D02*
X358500D01*
X351000D02*
X357080D01*
Y404000D02*
X358500D01*
X348000D02*
X357080D01*
X344000Y374000D02*
X348000D01*
X341000Y371000D02*
X344000Y374000D01*
X348000Y374000D02*
X357080D01*
X346000D02*
X348000D01*
X452000Y448500D02*
Y456000D01*
X482500Y312850D02*
X487500D01*
X452000Y447500D02*
Y448500D01*
X469000Y404000D02*
X471500D01*
X402000Y448500D02*
Y457000D01*
Y446500D02*
Y448500D01*
X407000Y447500D02*
X407000Y447500D01*
X470500Y394000D02*
X471500D01*
X470500Y384000D02*
X471500D01*
Y419000D02*
X480000D01*
X470500Y389000D02*
X471500D01*
X487000Y340150D02*
X487000Y340150D01*
X386500Y420000D02*
X386500Y420000D01*
Y433750D01*
X454500Y419500D02*
X454500Y419500D01*
X382000Y334500D02*
Y337500D01*
Y327000D02*
Y334500D01*
Y448500D02*
Y457000D01*
X358500Y429000D02*
X358807D01*
X377000Y447500D02*
Y448500D01*
X437000Y334500D02*
X437500Y335000D01*
X402000Y334500D02*
Y335500D01*
X401500Y347500D02*
X402000Y334500D01*
X397000D02*
Y335500D01*
X396500Y347000D02*
X397000Y334500D01*
X391500Y347000D02*
X392000Y334500D01*
X357080Y374000D02*
X358500D01*
X387000Y445500D02*
X387000Y448500D01*
X470500Y364000D02*
X471500D01*
X387000Y448500D02*
Y459000D01*
X342000Y399000D02*
X357000D01*
X392000Y450000D02*
Y460000D01*
X380000Y472000D02*
X392000Y460000D01*
X378000Y468000D02*
X387000Y459000D01*
X479000Y374000D02*
X479000Y374000D01*
X348000D02*
X348000Y374000D01*
X442000Y325000D02*
X443000Y324000D01*
X442000Y325000D02*
Y332000D01*
X192000Y412000D02*
X214000D01*
X209000Y335000D02*
Y342000D01*
X199000Y352000D02*
X209000Y342000D01*
X188000Y352000D02*
X199000D01*
X235000Y401000D02*
Y402000D01*
X202000Y355000D02*
Y355000D01*
X200000Y357000D02*
X202000Y355000D01*
X188000Y357000D02*
X200000D01*
X189000Y362000D02*
X201000D01*
X189000Y372000D02*
X203000D01*
X191000Y377000D02*
X204000D01*
X190000Y382000D02*
X205000D01*
X191000Y407000D02*
X213000D01*
X280000Y393000D02*
X280500Y392500D01*
Y393500D02*
X281000Y394000D01*
X187000Y302000D02*
X202033D01*
X187000Y317000D02*
X202033D01*
X424000Y315000D02*
X427064Y318064D01*
X427000Y324162D02*
X427064Y324098D01*
Y318064D02*
Y324098D01*
X416936Y335436D02*
X417000Y335500D01*
X431936Y323098D02*
X432064Y323226D01*
X432000Y330000D02*
X432064Y329936D01*
X358500Y424000D02*
X358500Y424000D01*
X412000Y458839D02*
X412064Y458902D01*
X442000Y457000D02*
X442000Y457000D01*
X432000Y459500D02*
X432000Y459500D01*
X317000Y371000D02*
X317080D01*
X387000Y335500D02*
X387000Y335500D01*
X575000Y394000D02*
X582000Y401000D01*
X580000Y371000D02*
X585000Y376000D01*
X595000D01*
X600000Y371000D01*
Y358500D02*
Y371000D01*
X592250Y358500D02*
X600000D01*
X602000Y348000D02*
X604000D01*
X602000Y348000D02*
X602000Y348000D01*
X604000Y350000D02*
Y373000D01*
X597000Y380000D02*
X604000Y373000D01*
X597000Y380000D02*
Y410000D01*
X579000Y360000D02*
X583000D01*
X585000Y362000D01*
Y366000D01*
X587500Y368500D01*
X592250D01*
X567000Y362000D02*
X568000Y361000D01*
X561000Y362000D02*
X567000D01*
X560000Y363000D02*
X561000Y362000D01*
X567000Y370000D02*
X567000Y370000D01*
X560000Y370000D02*
X567000D01*
X565920Y320000D02*
X567920Y318000D01*
X551000Y320000D02*
X565920D01*
X569000Y299000D02*
Y307000D01*
X568000Y298000D02*
X569000Y299000D01*
X567920Y307000D02*
X569000D01*
X567920Y318000D02*
X569920D01*
X568000Y309920D02*
Y316000D01*
X579000D02*
X585000D01*
X587500Y313500D02*
X592250D01*
X585000Y316000D02*
X587500Y313500D01*
X636000Y299000D02*
Y299250D01*
X578000Y307000D02*
X637000D01*
X1006000Y442000D02*
X1010000Y438000D01*
Y364000D02*
Y438000D01*
X972200Y326200D02*
X1010000Y364000D01*
X934000Y442000D02*
X1006000D01*
X514000Y501000D02*
X900000D01*
X915000Y457000D02*
Y486000D01*
X900000Y501000D02*
X915000Y486000D01*
Y457000D02*
X929000Y443000D01*
X928700Y326200D02*
X972200D01*
X637000Y300000D02*
Y307000D01*
X641500Y299250D02*
X646500D01*
X636500D02*
X641500D01*
X636000D02*
X636500D01*
X554000Y347000D02*
X561000D01*
X615000Y420000D02*
X618000Y423000D01*
X615000Y417000D02*
Y420000D01*
X620000Y424000D02*
X630000D01*
X619000Y423000D02*
X620000Y424000D01*
X614000Y417000D02*
X615000D01*
X697000Y388000D02*
Y406000D01*
X696840Y406160D02*
X697000Y406000D01*
X668000Y406160D02*
X696840D01*
X697000Y388000D02*
X701920D01*
X689000Y354000D02*
Y357080D01*
X614080Y406080D02*
X615000D01*
X604000D02*
X614080D01*
X614000Y406000D02*
X614080Y406080D01*
X615000Y407000D02*
Y413000D01*
X490000Y414000D02*
X582000D01*
X588000Y420000D01*
X553000Y419000D02*
X581000D01*
X588000Y420000D02*
X598000D01*
X580000Y424000D02*
X584000Y428000D01*
X507000Y424000D02*
X580000D01*
X501000Y429000D02*
X579000D01*
X580500Y430500D01*
X560000Y357000D02*
X563500Y353500D01*
X632000Y483000D02*
Y483080D01*
X586000Y424000D02*
X596000D01*
X581000Y419000D02*
X586000Y424000D01*
X580500Y430500D02*
Y437030D01*
X585781Y428000D02*
X594000D01*
X565000Y326000D02*
X571000D01*
X977000Y359200D02*
X979200D01*
X973000D02*
X977000D01*
X990000Y370000D02*
X991000D01*
X979200Y359200D02*
X990000Y370000D01*
X806550Y314550D02*
X820650D01*
X807000Y340000D02*
X807050Y339950D01*
X820650D01*
X806950Y378050D02*
X820650D01*
X805000Y403000D02*
X805450Y403450D01*
X900000Y397000D02*
X954000D01*
X901000Y392000D02*
Y406000D01*
X952000Y397000D02*
X956000Y401000D01*
X972000D01*
X950000Y359000D02*
X975000D01*
X901000Y316000D02*
Y318000D01*
Y356000D02*
Y369000D01*
Y406000D02*
Y407000D01*
X900000Y408000D02*
X901000Y407000D01*
X900000Y296000D02*
X900000Y296000D01*
X901000Y318000D02*
Y332000D01*
Y318000D02*
X901000Y318000D01*
X703920Y396080D02*
X704000Y396000D01*
X703920Y396080D02*
Y403000D01*
X722000D02*
X732000D01*
X714080D02*
X722000D01*
X721000Y327000D02*
X722000D01*
X733000Y312000D02*
X736000Y315000D01*
X714080Y313000D02*
X733000D01*
X714080Y312000D02*
Y314000D01*
X735080Y302000D02*
X748000D01*
X601500Y348500D02*
X602000Y348000D01*
X697000Y354000D02*
Y382080D01*
X680500Y358500D02*
X688000Y366000D01*
X675750Y358500D02*
X680500D01*
X677000Y354000D02*
X688500D01*
X666000Y328000D02*
X666500Y328500D01*
X652000Y397000D02*
X654000Y395000D01*
X651500Y373000D02*
Y382750D01*
X676750Y348000D02*
X688000D01*
X676750Y318000D02*
X681000D01*
X722000Y365000D02*
Y378000D01*
X575000Y443000D02*
X577000Y451000D01*
X590000Y441000D02*
Y447000D01*
X580500D02*
X590000D01*
X580500Y438030D02*
Y447000D01*
X713080Y403000D02*
X714080D01*
X697000Y378080D02*
X697000Y382080D01*
X690000Y378080D02*
X697000D01*
Y388000D01*
X661000Y406000D02*
Y406080D01*
Y392000D02*
Y406000D01*
X668000Y395000D02*
X669000Y394000D01*
Y379000D02*
Y394000D01*
X666000Y376000D02*
X669000Y379000D01*
X666000Y363000D02*
Y376000D01*
X578080Y299000D02*
X606000D01*
X592250Y348500D02*
X601500D01*
X656500Y328500D02*
X661500Y323500D01*
X662000Y323000D01*
X661500Y323500D02*
X675750D01*
X656500Y328500D02*
Y354000D01*
Y382750D01*
Y354000D02*
X673000D01*
X666500Y328500D02*
X675750D01*
X641500Y373000D02*
Y382750D01*
X621000Y373000D02*
Y382000D01*
Y373000D02*
X641500D01*
X651000D01*
X651500D01*
X666000Y348000D02*
X666500Y348500D01*
X675750D01*
X666000Y363000D02*
X666500Y363500D01*
X675750D01*
X633000Y406080D02*
X640000D01*
X651000D01*
X631000Y390000D02*
X633000Y392000D01*
Y406080D01*
X651500Y382750D02*
Y388500D01*
X654000Y391000D01*
Y395000D01*
X657000Y385000D02*
Y388000D01*
X661000Y392000D01*
X654000Y406080D02*
X661000D01*
X646500Y382750D02*
X647000D01*
X641000Y395000D02*
X641500Y394500D01*
Y382750D02*
Y394500D01*
X626000Y406080D02*
X633000D01*
X631000Y383000D02*
Y390000D01*
X615000Y406080D02*
X626000D01*
X626000Y396000D02*
X626500Y395500D01*
Y382750D02*
Y395500D01*
X617000Y394000D02*
X621500Y389500D01*
Y382750D02*
Y389500D01*
X606000Y394000D02*
X610000Y390000D01*
X615000D01*
X616500Y388500D01*
Y382750D02*
Y388500D01*
X563500Y353500D02*
X578000D01*
X592250D01*
X585000Y326000D02*
Y337000D01*
X586500Y338500D01*
X592250D01*
X562000Y336000D02*
X562080Y336080D01*
X748000Y302000D02*
Y327000D01*
X697000Y353000D02*
X703920D01*
X696000D02*
X697000D01*
X714080D02*
X720000D01*
X722000Y378000D02*
X732000D01*
X703920D02*
X705000D01*
X713080Y388750D02*
X734350D01*
X714080Y378000D02*
Y390000D01*
X713080Y340000D02*
X732000D01*
D13*
X443000Y363000D02*
Y386000D01*
X482000Y342000D02*
Y345000D01*
X447000Y389000D02*
Y390000D01*
Y363000D02*
Y389000D01*
X455750Y419500D02*
Y426750D01*
X473400Y345200D02*
X474800Y345900D01*
X473000Y344000D02*
X473400Y345200D01*
X474833Y346000D02*
X481000D01*
X474800Y345900D02*
X474833Y346000D01*
X449000Y361000D02*
X453000Y357000D01*
Y352000D02*
Y357000D01*
Y352000D02*
X466000Y339000D01*
X471000D01*
X473000Y341000D01*
Y344000D01*
X443000Y363000D02*
X450000Y356000D01*
X464000Y336000D02*
X475000D01*
X450000Y350000D02*
Y356000D01*
Y350000D02*
X464000Y336000D01*
X475000D02*
X477000Y338000D01*
X443000Y358000D02*
X447000Y354000D01*
Y348000D02*
Y354000D01*
Y348000D02*
X464000Y331000D01*
X436000Y381000D02*
X436001Y380978D01*
X436500Y358000D01*
X447000Y363000D02*
X449000Y361000D01*
X481000Y346000D02*
X482000Y345000D01*
X482000Y338000D02*
X482000Y338000D01*
X436500Y350250D02*
Y358000D01*
X443000D01*
X449000Y361000D02*
Y361000D01*
X431500Y437500D02*
X431500Y437500D01*
X422000Y444500D02*
X431500Y437500D01*
Y438500D01*
Y433750D02*
Y437500D01*
Y438500D02*
X434000Y441000D01*
X361000Y429000D02*
X368500Y419500D01*
X368507Y419558D02*
X369000Y419500D01*
X361000Y424000D02*
X368500Y414500D01*
X377000Y444500D02*
X386500Y437500D01*
X382000Y444500D02*
X391500Y437500D01*
X402000Y444500D02*
X411500Y437500D01*
X397000Y444500D02*
X406500Y437500D01*
X426000Y352500D02*
X426500Y353000D01*
X441500Y346500D02*
X452000Y338500D01*
X431500Y346500D02*
X442000Y338500D01*
X426500Y346500D02*
X437000Y338500D01*
X421500Y346500D02*
X432000Y338500D01*
X416500Y346500D02*
X427000Y338500D01*
X411500Y346500D02*
X422000Y338500D01*
X411500Y346500D02*
X411500Y350250D01*
X361000Y354500D02*
X369000Y365000D01*
X360940Y374046D02*
X368905Y384500D01*
X372250D01*
X361000Y359500D02*
X369000Y370000D01*
X361000Y364500D02*
X369000Y375000D01*
X361000Y369500D02*
X369000Y380000D01*
X361000Y399000D02*
X368500Y389500D01*
X361000Y404000D02*
X368500Y394500D01*
X361000Y409000D02*
X368500Y399500D01*
X361000Y414000D02*
X368500Y404500D01*
X357080Y419000D02*
X361000D01*
X368500Y409500D01*
X441500Y437500D02*
X452000Y444500D01*
X441500Y433750D02*
Y437500D01*
X436500D02*
X447000Y444500D01*
X436500Y437500D02*
X436500Y433750D01*
X417000Y444500D02*
X426500Y437500D01*
X412000Y444500D02*
X421500Y437500D01*
X407000Y444500D02*
X416500Y437500D01*
X392000Y444500D02*
X401500Y437500D01*
Y433750D02*
Y437500D01*
X387000Y444500D02*
X396500Y437500D01*
Y433750D02*
Y437500D01*
X459500Y384500D02*
X468000Y394000D01*
X459500Y389500D02*
X468000Y399000D01*
X459500Y394500D02*
X468000Y404000D01*
X459500Y399500D02*
X468000Y409000D01*
X459500Y404500D02*
X468000Y414000D01*
X456500Y410000D02*
X459500Y409500D01*
X468000Y419000D01*
X471500D01*
X459500Y364000D02*
X468000Y354000D01*
X459500Y369000D02*
X468000Y359000D01*
X459044Y374537D02*
X468000Y364000D01*
X459044Y379537D02*
X468000Y369000D01*
X441500Y433750D02*
X442000Y437000D01*
X411000D02*
X411500Y433750D01*
X407000Y447500D02*
Y448500D01*
D16*
X526080Y450000D02*
D03*
X515920D02*
D03*
X267080Y332000D02*
D03*
X256920D02*
D03*
X495920Y407000D02*
D03*
X506080D02*
D03*
X564080Y328000D02*
D03*
X553920D02*
D03*
X847080Y296000D02*
D03*
X836920D02*
D03*
X867080D02*
D03*
X856920D02*
D03*
X694920Y458000D02*
D03*
X705080D02*
D03*
X258420Y404000D02*
D03*
X268580D02*
D03*
X502080Y302000D02*
D03*
X491920D02*
D03*
X470920D02*
D03*
X481080D02*
D03*
X472080Y470000D02*
D03*
X461920D02*
D03*
X361080Y451000D02*
D03*
X350920D02*
D03*
X316080Y434000D02*
D03*
X305920D02*
D03*
Y423000D02*
D03*
X316080D02*
D03*
Y445000D02*
D03*
X305920D02*
D03*
X280920Y430000D02*
D03*
X291080D02*
D03*
X421080Y302000D02*
D03*
X410920D02*
D03*
X515920Y437000D02*
D03*
X526080D02*
D03*
X578080Y308000D02*
D03*
X567920D02*
D03*
X836920Y340000D02*
D03*
X847080D02*
D03*
X836920Y315000D02*
D03*
X847080D02*
D03*
X836920Y327000D02*
D03*
X847080D02*
D03*
X703920Y378000D02*
D03*
X714080D02*
D03*
X703920Y403000D02*
D03*
X714080D02*
D03*
X703920Y363000D02*
D03*
X714080D02*
D03*
X578080Y298000D02*
D03*
X567920D02*
D03*
X578080Y318000D02*
D03*
X567920D02*
D03*
Y370000D02*
D03*
X578080D02*
D03*
X567920Y360000D02*
D03*
X578080D02*
D03*
X703920Y353000D02*
D03*
X714080D02*
D03*
X715080Y314000D02*
D03*
X704920D02*
D03*
X714080Y342000D02*
D03*
X703920D02*
D03*
X714080Y388000D02*
D03*
X703920D02*
D03*
X564080Y338000D02*
D03*
X553920D02*
D03*
X578080Y348000D02*
D03*
X567920D02*
D03*
D17*
X518000Y478000D02*
D03*
D18*
X492000Y463000D02*
D03*
Y494000D02*
D03*
D19*
X496000Y478000D02*
D03*
D20*
X881000Y354000D02*
D03*
Y332000D02*
D03*
X901000Y354000D02*
D03*
Y332000D02*
D03*
Y318000D02*
D03*
Y296000D02*
D03*
X881000Y318000D02*
D03*
Y296000D02*
D03*
X901000Y406000D02*
D03*
Y428000D02*
D03*
X881000Y406000D02*
D03*
Y428000D02*
D03*
X901000Y370000D02*
D03*
Y392000D02*
D03*
X881000Y370000D02*
D03*
Y392000D02*
D03*
D21*
X700000Y490500D02*
D03*
Y471500D02*
D03*
X842000Y407500D02*
D03*
Y426500D02*
D03*
X862000Y407500D02*
D03*
Y426500D02*
D03*
D22*
X645000Y475080D02*
D03*
Y464920D02*
D03*
Y495080D02*
D03*
Y484920D02*
D03*
X448000Y312080D02*
D03*
Y301920D02*
D03*
X334000Y359920D02*
D03*
Y370080D02*
D03*
X482000Y436920D02*
D03*
Y447080D02*
D03*
X437000Y312000D02*
D03*
Y301840D02*
D03*
X695000Y448080D02*
D03*
Y437920D02*
D03*
X705000Y448080D02*
D03*
Y437920D02*
D03*
X645000Y438920D02*
D03*
Y449080D02*
D03*
X504000Y447080D02*
D03*
Y436920D02*
D03*
X294000Y446920D02*
D03*
Y457080D02*
D03*
X282000Y446920D02*
D03*
Y457080D02*
D03*
X493000Y447080D02*
D03*
Y436920D02*
D03*
X334000Y381920D02*
D03*
Y392080D02*
D03*
X460000Y301920D02*
D03*
Y312080D02*
D03*
X519000D02*
D03*
Y301920D02*
D03*
X837000Y390080D02*
D03*
Y379920D02*
D03*
X578000Y327920D02*
D03*
Y338080D02*
D03*
X689000Y367920D02*
D03*
Y378080D02*
D03*
X554000Y347920D02*
D03*
Y358080D02*
D03*
X604000Y395920D02*
D03*
Y406080D02*
D03*
X615000Y395920D02*
D03*
Y406080D02*
D03*
X626000D02*
D03*
Y395920D02*
D03*
X640000D02*
D03*
Y406080D02*
D03*
X654000Y395920D02*
D03*
Y406080D02*
D03*
X668000Y396000D02*
D03*
Y406160D02*
D03*
X689000Y346920D02*
D03*
Y357080D02*
D03*
D23*
X682000Y475500D02*
D03*
D24*
Y485000D02*
D03*
Y494500D02*
D03*
X658000D02*
D03*
Y475500D02*
D03*
Y485000D02*
D03*
D25*
X670000Y437000D02*
D03*
Y459000D02*
D03*
D26*
X269000Y416000D02*
D03*
X255000D02*
D03*
X269300Y430000D02*
D03*
X255300D02*
D03*
X269300Y443000D02*
D03*
X255300D02*
D03*
X269300Y456000D02*
D03*
X255300D02*
D03*
D27*
X298500Y331500D02*
D03*
X320500D02*
D03*
X298500Y349000D02*
D03*
X320500D02*
D03*
D28*
X605000Y335000D02*
D03*
X601000D02*
D03*
X605000Y323000D02*
D03*
X601000D02*
D03*
X613000Y330000D02*
D03*
X609000D02*
D03*
X613000Y317000D02*
D03*
X609000D02*
D03*
D29*
X862000Y390954D02*
D03*
Y363046D02*
D03*
Y310046D02*
D03*
Y337954D02*
D03*
D30*
X698300Y328000D02*
D03*
X713700D02*
D03*
X698300Y301000D02*
D03*
X713700D02*
D03*
X342300Y335000D02*
D03*
X357700D02*
D03*
D31*
X492350Y311810D02*
D03*
X487350D02*
D03*
X482350D02*
D03*
X477350D02*
D03*
X469700Y321746D02*
D03*
Y326746D02*
D03*
Y331746D02*
D03*
X477350Y342110D02*
D03*
X482350D02*
D03*
X487350D02*
D03*
X492350D02*
D03*
X500000Y332000D02*
D03*
Y327000D02*
D03*
Y322000D02*
D03*
D32*
X492350Y313710D02*
D03*
X487350D02*
D03*
X482350D02*
D03*
X477350D02*
D03*
Y340210D02*
D03*
X482350D02*
D03*
X487350D02*
D03*
X492350D02*
D03*
D33*
X471600Y321746D02*
D03*
Y326746D02*
D03*
Y331746D02*
D03*
X498100Y332000D02*
D03*
Y327000D02*
D03*
Y322000D02*
D03*
D34*
X484850Y326960D02*
D03*
D35*
X448500Y492000D02*
D03*
X467500D02*
D03*
D36*
X181000Y457500D02*
D03*
Y452500D02*
D03*
Y447500D02*
D03*
Y442500D02*
D03*
Y302500D02*
D03*
Y307500D02*
D03*
Y312500D02*
D03*
Y317500D02*
D03*
Y322500D02*
D03*
Y327500D02*
D03*
Y352500D02*
D03*
Y357500D02*
D03*
Y362500D02*
D03*
Y367500D02*
D03*
Y372500D02*
D03*
Y377500D02*
D03*
Y382500D02*
D03*
Y387500D02*
D03*
Y392500D02*
D03*
Y397500D02*
D03*
Y402500D02*
D03*
Y407500D02*
D03*
Y412500D02*
D03*
Y417500D02*
D03*
Y422500D02*
D03*
Y427500D02*
D03*
Y432500D02*
D03*
Y437500D02*
D03*
Y462500D02*
D03*
Y487500D02*
D03*
Y482500D02*
D03*
Y477500D02*
D03*
Y472500D02*
D03*
Y467500D02*
D03*
D37*
X618300Y437600D02*
D03*
X610800D02*
D03*
X563800Y437570D02*
D03*
X556300Y437600D02*
D03*
D38*
X604800D02*
D03*
X599800D02*
D03*
X594800D02*
D03*
X589800D02*
D03*
X584800Y437570D02*
D03*
X579800Y437600D02*
D03*
X574800D02*
D03*
X569800D02*
D03*
D39*
X280500Y337500D02*
D03*
Y396500D02*
D03*
X243500D02*
D03*
Y337500D02*
D03*
D40*
X452000Y448500D02*
D03*
X447000D02*
D03*
X442000D02*
D03*
X437000D02*
D03*
X432000D02*
D03*
X427000D02*
D03*
X422000D02*
D03*
X417000D02*
D03*
X412000D02*
D03*
X407000D02*
D03*
X402000D02*
D03*
X397000D02*
D03*
X392000D02*
D03*
X387000D02*
D03*
X382000D02*
D03*
X377000D02*
D03*
X452000Y334500D02*
D03*
X447000D02*
D03*
X442000D02*
D03*
X437000D02*
D03*
X432000D02*
D03*
X427000D02*
D03*
X422000D02*
D03*
X417000D02*
D03*
X412000D02*
D03*
X407000D02*
D03*
X402000D02*
D03*
X397000D02*
D03*
X392000D02*
D03*
X387000D02*
D03*
X382000D02*
D03*
X377000D02*
D03*
X386500Y350250D02*
D03*
X391500D02*
D03*
X396500D02*
D03*
X401500D02*
D03*
X406500D02*
D03*
X411500D02*
D03*
X416500D02*
D03*
X421500D02*
D03*
X426500D02*
D03*
X431500D02*
D03*
X436500D02*
D03*
X441500D02*
D03*
X386500Y433750D02*
D03*
X391500D02*
D03*
X396500D02*
D03*
X401500D02*
D03*
X406500D02*
D03*
X411500D02*
D03*
X416500D02*
D03*
X421500D02*
D03*
X426500D02*
D03*
X431500D02*
D03*
X436500D02*
D03*
X441500D02*
D03*
X661500Y382750D02*
D03*
X656500D02*
D03*
X651500D02*
D03*
X646500D02*
D03*
X641500D02*
D03*
X636500D02*
D03*
X631500D02*
D03*
X626500D02*
D03*
X621500D02*
D03*
X616500D02*
D03*
X611500D02*
D03*
X606500D02*
D03*
X661500Y299250D02*
D03*
X656500D02*
D03*
X651500D02*
D03*
X646500D02*
D03*
X641500D02*
D03*
X636500D02*
D03*
X631500D02*
D03*
X626500D02*
D03*
X621500D02*
D03*
X616500D02*
D03*
X611500D02*
D03*
X606500D02*
D03*
D41*
X471500Y354000D02*
D03*
Y359000D02*
D03*
Y364000D02*
D03*
Y369000D02*
D03*
Y374000D02*
D03*
Y379000D02*
D03*
Y384000D02*
D03*
Y389000D02*
D03*
Y394000D02*
D03*
Y399000D02*
D03*
Y404000D02*
D03*
Y409000D02*
D03*
Y414000D02*
D03*
Y419000D02*
D03*
Y424000D02*
D03*
Y429000D02*
D03*
X357080Y354000D02*
D03*
Y359000D02*
D03*
Y364000D02*
D03*
Y369000D02*
D03*
Y374000D02*
D03*
Y379000D02*
D03*
Y384000D02*
D03*
Y389000D02*
D03*
Y394000D02*
D03*
Y399000D02*
D03*
Y404000D02*
D03*
Y409000D02*
D03*
Y414000D02*
D03*
Y419000D02*
D03*
Y424000D02*
D03*
Y429000D02*
D03*
X372250Y419500D02*
D03*
X372250Y414500D02*
D03*
X372250Y409500D02*
D03*
X372250Y404500D02*
D03*
Y399500D02*
D03*
Y394500D02*
D03*
Y389500D02*
D03*
Y384500D02*
D03*
X372250Y379500D02*
D03*
X372250Y374500D02*
D03*
Y369500D02*
D03*
Y364500D02*
D03*
X455750Y419500D02*
D03*
Y414500D02*
D03*
Y409500D02*
D03*
Y404500D02*
D03*
Y399500D02*
D03*
Y394500D02*
D03*
Y389500D02*
D03*
Y384500D02*
D03*
Y379500D02*
D03*
Y374500D02*
D03*
Y369500D02*
D03*
Y364500D02*
D03*
X675750Y313500D02*
D03*
X675750Y318500D02*
D03*
X675750Y323500D02*
D03*
X675750Y328500D02*
D03*
Y333500D02*
D03*
Y338500D02*
D03*
Y343500D02*
D03*
Y348500D02*
D03*
X675750Y353500D02*
D03*
X675750Y358500D02*
D03*
Y363500D02*
D03*
Y368500D02*
D03*
X592250Y313500D02*
D03*
Y318500D02*
D03*
Y323500D02*
D03*
Y328500D02*
D03*
Y333500D02*
D03*
Y338500D02*
D03*
Y343500D02*
D03*
Y348500D02*
D03*
Y353500D02*
D03*
Y358500D02*
D03*
Y363500D02*
D03*
Y368500D02*
D03*
D42*
X310600Y407500D02*
D03*
Y370500D02*
D03*
D43*
X545000Y394700D02*
D03*
Y379300D02*
D03*
D44*
X615000Y413000D02*
D03*
Y417000D02*
D03*
D45*
X586000Y387000D02*
D03*
Y404000D02*
D03*
X564000D02*
D03*
Y387000D02*
D03*
D46*
X735350Y403450D02*
D03*
Y390750D02*
D03*
Y378050D02*
D03*
Y365350D02*
D03*
Y352650D02*
D03*
Y339950D02*
D03*
Y327250D02*
D03*
Y314550D02*
D03*
X820650D02*
D03*
Y327250D02*
D03*
Y339950D02*
D03*
Y352650D02*
D03*
Y365350D02*
D03*
Y378050D02*
D03*
Y390750D02*
D03*
Y403450D02*
D03*
D88*
X644000Y451000D02*
X650000D01*
X686000Y438920D02*
X704920D01*
X529000Y450000D02*
X538000Y459000D01*
X516920Y472920D02*
X517000Y473000D01*
X516920Y450000D02*
Y472920D01*
X530000Y383000D02*
Y390000D01*
Y338000D02*
Y383000D01*
X819000Y419000D02*
X826500Y426500D01*
X819000Y419000D02*
Y419000D01*
X704920Y438920D02*
X705000Y439000D01*
X680080Y438920D02*
X686000D01*
X680000Y439000D02*
X680080Y438920D01*
X683500Y494500D02*
X695500D01*
X650000Y451000D02*
X658000Y443000D01*
X630500Y464500D02*
X644000Y451000D01*
X655080Y464920D02*
X660000Y460000D01*
X645000Y464920D02*
X655080D01*
X654920Y475080D02*
X655000Y475000D01*
X645000Y475080D02*
X654920D01*
X760000Y450000D02*
Y470000D01*
X740500Y489500D02*
X760000Y470000D01*
X700000Y489500D02*
X740500D01*
X695500Y494500D02*
X700000Y490000D01*
X819000Y419000D02*
X820000D01*
X826500Y426500D02*
X842000D01*
X862000D01*
X519000Y327000D02*
X530000Y338000D01*
X459000Y479000D02*
X491000D01*
X448000Y490000D02*
X459000Y479000D01*
X447500Y490000D02*
X448000D01*
D89*
X670000Y484000D02*
X682000D01*
X670000Y460000D02*
Y484000D01*
X682000D02*
X682000Y484000D01*
X677500Y494500D02*
X682000D01*
X673000Y490000D02*
X677500Y494500D01*
X666000Y490000D02*
X673000D01*
X661000Y485000D02*
X666000Y490000D01*
X682000Y494500D02*
X683500D01*
X684000Y495000D01*
X658000Y485000D02*
X661000D01*
X670000Y459000D02*
Y460000D01*
X881000Y426500D02*
Y428000D01*
X862000Y407500D02*
X881000Y426500D01*
D90*
X579500Y464500D02*
D03*
D91*
X684500Y442000D02*
D03*
D92*
X670500Y439000D02*
D03*
D93*
X630500Y432000D02*
D03*
D94*
X860000Y433000D02*
D03*
D95*
X854000Y407000D02*
D03*
X549000Y297000D02*
D03*
D96*
X540000Y322000D02*
D03*
D97*
X519000Y298000D02*
D03*
D98*
X603000Y335000D02*
D03*
X603000Y323000D02*
D03*
X611000Y330000D02*
D03*
Y317000D02*
D03*
D99*
X890500Y428000D02*
D03*
D100*
X519000Y319500D02*
D03*
X609500Y450500D02*
D03*
D101*
X479000Y494000D02*
D03*
D102*
X490000Y462000D02*
D03*
D103*
X523500Y468000D02*
D03*
D104*
X369000Y446000D02*
D03*
D105*
X472000Y451500D02*
D03*
D106*
X181500Y322250D02*
D03*
D107*
X907000Y325000D02*
D03*
D108*
X910500Y343500D02*
D03*
D109*
X929000Y363000D02*
D03*
D110*
X829500Y306500D02*
D03*
D111*
X615000Y414999D02*
D03*
D112*
X800000Y440500D02*
D03*
D113*
X717500Y427000D02*
D03*
D114*
X882000Y440000D02*
D03*
D115*
X901000Y360500D02*
D03*
Y324500D02*
D03*
X881000Y359500D02*
D03*
D116*
X960000D02*
D03*
D117*
X939500Y400000D02*
D03*
D118*
X892000Y362500D02*
D03*
D119*
X862500Y351000D02*
D03*
D120*
X890000Y400000D02*
D03*
D121*
Y313500D02*
D03*
D122*
X564500Y450500D02*
D03*
D123*
X574250Y458000D02*
D03*
D124*
X375500Y295500D02*
D03*
D125*
X928700Y440500D02*
D03*
Y463400D02*
D03*
Y349100D02*
D03*
Y326200D02*
D03*
X977000Y359200D02*
D03*
X994800Y369400D02*
D03*
X977000Y379600D02*
D03*
X994800Y389800D02*
D03*
X977000Y400000D02*
D03*
X994800Y410200D02*
D03*
X977000Y420400D02*
D03*
D126*
X985900Y476100D02*
D03*
Y313500D02*
D03*
D127*
X1020200Y458300D02*
D03*
Y331300D02*
D03*
D128*
X994800Y430600D02*
D03*
D129*
X759200Y447680D02*
D03*
X810000D02*
D03*
X860800D02*
D03*
D130*
X886200D02*
D03*
D131*
X1040000Y299000D02*
D03*
Y489000D02*
D03*
X340000Y439000D02*
D03*
X1050000Y315000D02*
D03*
Y470000D02*
D03*
D132*
X630500Y441400D02*
D03*
X544000D02*
D03*
D133*
X630500Y480000D02*
D03*
X544000D02*
D03*
D134*
X533000Y437000D02*
D03*
X509000Y399000D02*
D03*
X244500Y440500D02*
D03*
X745000Y427000D02*
D03*
X730000D02*
D03*
X715000D02*
D03*
X700000D02*
D03*
X685000D02*
D03*
X670000D02*
D03*
X655000D02*
D03*
X640000D02*
D03*
X423000Y400000D02*
D03*
X442000Y385000D02*
D03*
X447000Y389000D02*
D03*
X713000Y468000D02*
D03*
Y458000D02*
D03*
X689000Y468000D02*
D03*
X668000Y496000D02*
D03*
X806000Y365000D02*
D03*
X848000Y391000D02*
D03*
X254000Y392000D02*
D03*
X289000Y418000D02*
D03*
X240000Y408000D02*
D03*
X236000Y426000D02*
D03*
X240000Y420000D02*
D03*
X236000Y414000D02*
D03*
X300000Y440000D02*
D03*
X293000Y436000D02*
D03*
X277000Y376000D02*
D03*
X316000Y386000D02*
D03*
X304000Y387000D02*
D03*
X339000Y354000D02*
D03*
X257000Y371000D02*
D03*
X262000Y365000D02*
D03*
X329000Y414000D02*
D03*
X326000Y447000D02*
D03*
X306000Y452000D02*
D03*
X530000Y383000D02*
D03*
X462000Y424000D02*
D03*
X405000Y384000D02*
D03*
X394000Y371000D02*
D03*
Y384000D02*
D03*
X540000Y331000D02*
D03*
Y339000D02*
D03*
X510000Y338000D02*
D03*
X558000Y297000D02*
D03*
X549000D02*
D03*
X540000D02*
D03*
Y347000D02*
D03*
X547000Y408000D02*
D03*
X491000Y421000D02*
D03*
X500000Y395000D02*
D03*
X502000Y343000D02*
D03*
X618000Y317000D02*
D03*
X624000Y323000D02*
D03*
X618000Y329000D02*
D03*
X547000Y333000D02*
D03*
X618000Y336000D02*
D03*
X533000Y402000D02*
D03*
X530000Y390000D02*
D03*
X524000Y395000D02*
D03*
X687000Y396000D02*
D03*
X507000Y364000D02*
D03*
Y356000D02*
D03*
X499000D02*
D03*
X498000Y349000D02*
D03*
X414000Y373000D02*
D03*
X419000Y368000D02*
D03*
X414000Y363000D02*
D03*
X419000Y358000D02*
D03*
X494000Y399000D02*
D03*
X493000Y392000D02*
D03*
X488000Y404000D02*
D03*
X490000Y349000D02*
D03*
X468000Y345000D02*
D03*
X457000Y320000D02*
D03*
X464000Y331000D02*
D03*
X458000Y327000D02*
D03*
X481000Y404000D02*
D03*
X437000Y381000D02*
D03*
X497000Y337000D02*
D03*
X575000Y378000D02*
D03*
X685000Y314000D02*
D03*
Y322000D02*
D03*
X551000Y396000D02*
D03*
X508000Y494000D02*
D03*
X342000Y451000D02*
D03*
X507000Y462000D02*
D03*
X490000Y414000D02*
D03*
X544000Y419000D02*
D03*
X522000Y460000D02*
D03*
X528000D02*
D03*
Y466000D02*
D03*
X522000D02*
D03*
X506000Y424000D02*
D03*
X501000Y429000D02*
D03*
X488000Y324000D02*
D03*
X481000Y454000D02*
D03*
X479000Y494000D02*
D03*
X462000Y462000D02*
D03*
X434000Y488000D02*
D03*
X423000Y315000D02*
D03*
X442000Y325000D02*
D03*
X509000Y303000D02*
D03*
X472000Y315000D02*
D03*
X464000Y449000D02*
D03*
X281000Y328000D02*
D03*
X317000Y411000D02*
D03*
X372000Y345000D02*
D03*
X399000Y425000D02*
D03*
X248000Y358000D02*
D03*
X499000Y312000D02*
D03*
X434000Y441000D02*
D03*
X407000Y462000D02*
D03*
X402000Y457000D02*
D03*
X480000Y419000D02*
D03*
X348000Y414000D02*
D03*
Y404000D02*
D03*
X342000Y399000D02*
D03*
X348000Y394000D02*
D03*
X343000Y359000D02*
D03*
X342000Y389000D02*
D03*
Y379000D02*
D03*
X348000Y384000D02*
D03*
Y354000D02*
D03*
Y364000D02*
D03*
Y374000D02*
D03*
X437000Y320000D02*
D03*
X209000Y335000D02*
D03*
X235000Y402000D02*
D03*
X432000Y325000D02*
D03*
X422000Y322000D02*
D03*
X645000Y345000D02*
D03*
X635000Y357000D02*
D03*
X644000Y315000D02*
D03*
X611000Y342000D02*
D03*
X560000Y384000D02*
D03*
X621000Y373000D02*
D03*
X604000Y348000D02*
D03*
X560000Y363000D02*
D03*
Y370000D02*
D03*
X784000Y302000D02*
D03*
X619000Y423000D02*
D03*
X553000Y419000D02*
D03*
X806000Y315000D02*
D03*
Y340000D02*
D03*
Y404000D02*
D03*
X806000Y378000D02*
D03*
X704000Y396000D02*
D03*
X577000Y451000D02*
D03*
X570000Y448000D02*
D03*
X722000Y403000D02*
D03*
Y365000D02*
D03*
X704000Y370000D02*
D03*
X666000Y329000D02*
D03*
X651000Y373000D02*
D03*
X666000Y348000D02*
D03*
Y363000D02*
D03*
X561000Y347000D02*
D03*
X571000Y326000D02*
D03*
Y336000D02*
D03*
X722000Y327000D02*
D03*
Y353000D02*
D03*
X697000D02*
D03*
D135*
X820000Y419000D02*
D03*
X842000Y350000D02*
D03*
X891000Y331000D02*
D03*
X890000Y373000D02*
D03*
M02*
