M48
;Layer_Color=9474304
;FILE_FORMAT=4:4
METRIC,LZ
;TYPE=PLATED
T1F00S00C0.2540
;TYPE=NON_PLATED
T3F00S00C0.6500
T4F00S00C3.2000
%
T01
X00218Y00293
X0023
X00209Y00335
X00247Y00359
X00253Y00354
X00272Y00356
X00262Y00366
X00257Y00371
X00254Y00392
X00284Y00378
X00304Y00387
X00316Y00386
X00342Y00389
Y00379
X00348Y00384
Y00394
Y00374
Y00364
X00343Y00359
X00348Y00354
X00327Y00359
X00315Y00328
X0037Y0035
X00376Y00355
X00386Y00359
X00394Y00371
Y00384
X00405
X00414Y00373
X00419Y00368
X00414Y00363
X00419Y00358
X00423Y00378
X00431Y00379
X00442Y00385
X00447Y00389
X00423
X00422Y00327
X00417Y00323
X00432Y00327
X00437Y00323
X00442Y00327
X00458
X00468Y00345
X00474Y00341
X00481Y00336
X0049Y00337
X00487Y00351
X0048Y003495
X004925Y003545
X00499Y003575
X004995Y00365
X005015Y00348
X00505Y00331
X00502Y003055
X00509Y00306
X00508Y00296
X00499
X00489Y00297
X00484Y00304
X00494Y00306
X00489Y00315
X00474Y0031
X0046Y00298
X00437
X00522Y003
Y00309
X00539Y00334
X00531Y00349
X00535Y00356
X00556
Y00367
Y00377
X00541Y00379
X00529Y00377
Y00394
X00512Y003915
X005065Y003955
X00501Y00392
X005085Y003855
X00552Y00395
X00542Y00409
X00546Y00422
X00533Y00424
Y00417
X005145Y004135
X00506Y00425
X00501Y0043
X004915Y004265
X004955Y00421
X0048Y004205
X00481Y00404
X00488Y004035
X00493Y00399
X005
X00463Y00427
X0045619Y0043871
X004455Y00441
X00434
X00432Y00458
X00407Y00462
X00402Y00457
X00399Y00425
X00423Y004
X0046685Y0044273
X00464Y00449
X00462Y00462
X00481Y00454
X00507Y00462
X00527Y0046
Y00466
X00535Y00484
X00541Y00495
X00518Y00493
X00507Y00494
X00473
X0045Y00479
X00434Y00488
X00558Y00472
X00583Y00468
X0063Y00458
Y00478
X00612Y00502
X00582Y00408
X00559Y00413
X00348Y00414
Y00404
X00342Y00399
X00329Y00414
X00317Y00411
X00289Y00418
X00293Y00436
X00306Y00453
X00326Y00447
X00342Y00452
X00346Y00429
X00249Y00442
X00236Y00426
X0024Y0042
X00236Y00414
X0024Y00408
X00235Y00402
T03
X00579Y00365
Y00425
T04
X00601Y00314
M30
