G04*
G04 #@! TF.GenerationSoftware,Altium Limited,Altium Designer,18.1.7 (191)*
G04*
G04 Layer_Color=16711935*
%FSLAX44Y44*%
%MOMM*%
G71*
G01*
G75*
%ADD61C,0.2032*%
%ADD62R,2.2032X1.4032*%
%ADD63R,2.5032X1.4032*%
%ADD79R,3.6250X19.8500*%
%ADD80R,3.2032X0.5532*%
D61*
X601000Y314000D02*
D03*
X579000Y365000D02*
D03*
Y425000D02*
D03*
D62*
X571830Y351800D02*
D03*
Y438300D02*
D03*
D63*
X610430Y351800D02*
D03*
Y438300D02*
D03*
D79*
X184125Y395000D02*
D03*
D80*
X184750Y305000D02*
D03*
Y320000D02*
D03*
Y315000D02*
D03*
Y360000D02*
D03*
Y365000D02*
D03*
Y355000D02*
D03*
Y380000D02*
D03*
Y385000D02*
D03*
Y375000D02*
D03*
Y400000D02*
D03*
Y405000D02*
D03*
Y395000D02*
D03*
Y420000D02*
D03*
Y425000D02*
D03*
Y415000D02*
D03*
Y435000D02*
D03*
Y310000D02*
D03*
Y350000D02*
D03*
Y370000D02*
D03*
Y390000D02*
D03*
Y410000D02*
D03*
Y430000D02*
D03*
Y440000D02*
D03*
Y480250D02*
D03*
Y470250D02*
D03*
Y475250D02*
D03*
Y465250D02*
D03*
Y485250D02*
D03*
Y445000D02*
D03*
Y450000D02*
D03*
Y455000D02*
D03*
Y460000D02*
D03*
Y325000D02*
D03*
M02*
