G04*
G04 #@! TF.GenerationSoftware,Altium Limited,Altium Designer,18.1.7 (191)*
G04*
G04 Layer_Physical_Order=1*
G04 Layer_Color=255*
%FSLAX44Y44*%
%MOMM*%
G71*
G01*
G75*
%ADD10C,0.2000*%
%ADD12C,0.1500*%
%ADD13R,2.2500X0.3500*%
%ADD14R,0.8000X0.8000*%
%ADD15R,0.6000X0.6000*%
%ADD16R,0.6000X0.6000*%
%ADD17R,2.0000X1.1000*%
%ADD18R,1.7000X0.6500*%
%ADD19O,1.7000X0.6500*%
%ADD20R,2.6000X1.7000*%
%ADD21R,1.7000X0.9000*%
%ADD22R,2.5000X0.9000*%
%ADD23R,1.0000X0.4500*%
%ADD24R,0.2800X0.2800*%
%ADD25O,0.2800X0.6600*%
%ADD26O,0.6600X0.2800*%
%ADD27R,1.2500X1.2500*%
%ADD28R,1.3000X1.5000*%
%ADD29R,1.1500X0.6000*%
%ADD30R,1.1500X0.3000*%
%ADD31R,0.9300X0.9800*%
%ADD32R,0.7000X1.1000*%
G04:AMPARAMS|DCode=33|XSize=0.3mm|YSize=0.8mm|CornerRadius=0.075mm|HoleSize=0mm|Usage=FLASHONLY|Rotation=180.000|XOffset=0mm|YOffset=0mm|HoleType=Round|Shape=RoundedRectangle|*
%AMROUNDEDRECTD33*
21,1,0.3000,0.6500,0,0,180.0*
21,1,0.1500,0.8000,0,0,180.0*
1,1,0.1500,-0.0750,0.3250*
1,1,0.1500,0.0750,0.3250*
1,1,0.1500,0.0750,-0.3250*
1,1,0.1500,-0.0750,-0.3250*
%
%ADD33ROUNDEDRECTD33*%
G04:AMPARAMS|DCode=34|XSize=0.3mm|YSize=0.8mm|CornerRadius=0.075mm|HoleSize=0mm|Usage=FLASHONLY|Rotation=90.000|XOffset=0mm|YOffset=0mm|HoleType=Round|Shape=RoundedRectangle|*
%AMROUNDEDRECTD34*
21,1,0.3000,0.6500,0,0,90.0*
21,1,0.1500,0.8000,0,0,90.0*
1,1,0.1500,0.3250,0.0750*
1,1,0.1500,0.3250,-0.0750*
1,1,0.1500,-0.3250,-0.0750*
1,1,0.1500,-0.3250,0.0750*
%
%ADD34ROUNDEDRECTD34*%
%ADD35R,2.4000X1.7000*%
%ADD64C,0.3000*%
%ADD65C,0.4000*%
%ADD66R,1.6000X0.4000*%
%ADD67R,3.6000X0.4000*%
%ADD68R,1.5000X2.2000*%
%ADD69R,0.6000X0.8000*%
%ADD70R,0.4000X3.7000*%
%ADD71R,1.9000X0.6000*%
%ADD72R,2.0000X1.2000*%
%ADD73R,2.3000X1.2000*%
%ADD74C,0.5080*%
G36*
X524222Y502827D02*
X518004Y496609D01*
X518000Y496609D01*
X516619Y496335D01*
X515448Y495552D01*
X514665Y494381D01*
X514391Y493000D01*
X514665Y491619D01*
X515448Y490448D01*
X516619Y489665D01*
X518000Y489391D01*
X519381Y489665D01*
X520552Y490448D01*
X521335Y491619D01*
X521609Y493000D01*
X521609Y493004D01*
X529056Y500451D01*
X532350D01*
X533029Y499181D01*
X532747Y498758D01*
X532417Y497100D01*
X532747Y495442D01*
X533686Y494036D01*
X535092Y493097D01*
X536750Y492767D01*
X538235D01*
X538448Y492448D01*
X539619Y491665D01*
X541000Y491391D01*
X542381Y491665D01*
X543552Y492448D01*
X543765Y492767D01*
X547250D01*
X548908Y493097D01*
X550314Y494036D01*
X551253Y495442D01*
X551583Y497100D01*
X551253Y498758D01*
X550971Y499181D01*
X551650Y500451D01*
X567706D01*
Y471950D01*
X557050Y461294D01*
X550829D01*
X550314Y462064D01*
X548908Y463003D01*
X547250Y463333D01*
X536750D01*
X535092Y463003D01*
X533686Y462064D01*
X532747Y460658D01*
X532417Y459000D01*
X532747Y457342D01*
X533686Y455936D01*
X535092Y454997D01*
X536750Y454667D01*
X547250D01*
X548908Y454997D01*
X550314Y455936D01*
X550829Y456706D01*
X558000D01*
X558878Y456881D01*
X559622Y457378D01*
X571622Y469378D01*
X572119Y470122D01*
X572294Y471000D01*
Y500706D01*
X586849D01*
X587448Y499586D01*
X587296Y499359D01*
X587099Y498370D01*
X598000D01*
Y495830D01*
X587099D01*
X587296Y494841D01*
X588576Y492926D01*
X590491Y491646D01*
X591740Y491397D01*
Y490103D01*
X590491Y489854D01*
X588576Y488574D01*
X587296Y486659D01*
X587099Y485670D01*
X598000D01*
Y484400D01*
X599270D01*
Y478497D01*
X603250D01*
X605509Y478946D01*
X606704Y479744D01*
X607514Y478758D01*
X604534Y475778D01*
X603250Y476033D01*
X592750D01*
X591092Y475703D01*
X589686Y474764D01*
X588747Y473358D01*
X588417Y471700D01*
X588747Y470042D01*
X589686Y468636D01*
X591092Y467697D01*
X592750Y467367D01*
X603250D01*
X604908Y467697D01*
X606314Y468636D01*
X607110Y469827D01*
X608102Y469721D01*
X608380Y469616D01*
Y469270D01*
X613920D01*
Y466730D01*
X608380D01*
Y464156D01*
X607500Y463250D01*
X607437Y463250D01*
X588500D01*
Y454750D01*
X607500D01*
Y455706D01*
X609920D01*
Y454000D01*
X617920D01*
Y458676D01*
X618907Y459662D01*
X620080Y459176D01*
Y454000D01*
X628080D01*
Y454000D01*
X629350Y454520D01*
X630000Y454391D01*
X630730Y454536D01*
X632000Y453668D01*
Y285000D01*
X423000D01*
Y300996D01*
X423486Y301443D01*
X424073Y301624D01*
X425080Y300832D01*
Y294000D01*
X426451D01*
Y293000D01*
X426645Y292024D01*
X427198Y291198D01*
X429198Y289198D01*
X430024Y288645D01*
X431000Y288451D01*
X521920D01*
Y288000D01*
X529920D01*
X530540Y286987D01*
Y286460D01*
X534810D01*
Y292000D01*
Y297540D01*
X531059D01*
Y312733D01*
X531163Y312837D01*
X531163Y312837D01*
X531826Y313829D01*
X532059Y315000D01*
X532059Y315000D01*
Y330733D01*
X543163Y341837D01*
X543163Y341837D01*
X543826Y342830D01*
X544059Y344000D01*
Y344920D01*
X545662D01*
X546198Y344118D01*
X547025Y343565D01*
X548000Y343371D01*
X552024D01*
X553451Y341944D01*
Y337500D01*
X544000D01*
Y324500D01*
X566000D01*
Y337500D01*
X558549D01*
Y342297D01*
X559194Y343135D01*
X559792Y343260D01*
X570560D01*
Y351800D01*
X571830D01*
Y353070D01*
X584370D01*
Y360340D01*
X581962D01*
X581576Y361610D01*
X582064Y361936D01*
X583003Y363342D01*
X583333Y365000D01*
X583003Y366658D01*
X582661Y367171D01*
X583340Y368441D01*
X584500D01*
X584500Y368441D01*
X585671Y368674D01*
X586663Y369337D01*
X592163Y374837D01*
X592826Y375830D01*
X593059Y377000D01*
Y419000D01*
X592826Y420171D01*
X592163Y421163D01*
X591171Y421826D01*
X590000Y422059D01*
X583493D01*
X582895Y423179D01*
X583003Y423342D01*
X583333Y425000D01*
X583003Y426658D01*
X582064Y428064D01*
X581427Y428490D01*
X581812Y429760D01*
X584370D01*
Y437030D01*
X571830D01*
X559290D01*
Y432695D01*
X558117Y432209D01*
X555059Y435267D01*
Y437000D01*
X555059Y437000D01*
X554826Y438171D01*
X554163Y439163D01*
X544163Y449163D01*
X543171Y449826D01*
X542000Y450059D01*
X542000Y450059D01*
X530080D01*
Y451000D01*
X522080D01*
Y443000D01*
X530080D01*
Y443941D01*
X540733D01*
X543008Y441667D01*
X542968Y441396D01*
X542000Y440294D01*
X508000D01*
X508000Y440294D01*
Y440920D01*
X503210D01*
X502722Y442092D01*
X503702Y443080D01*
X508000D01*
Y451080D01*
X500000D01*
Y446587D01*
X498174Y444747D01*
X497000Y445231D01*
Y451080D01*
X494549D01*
Y457500D01*
X498500D01*
Y458376D01*
X508000D01*
X509148Y458852D01*
X509335Y459302D01*
X509552Y459448D01*
X510106Y460277D01*
X511376Y459892D01*
Y457000D01*
X511852Y455852D01*
X513000Y455376D01*
X513351D01*
Y451000D01*
X511920D01*
Y443000D01*
X519920D01*
Y448190D01*
X520217Y448634D01*
X520489Y450000D01*
Y455376D01*
X528000D01*
X529148Y455852D01*
X529624Y457000D01*
Y457555D01*
X530335Y458619D01*
X530609Y460000D01*
X530335Y461381D01*
X529624Y462445D01*
Y463555D01*
X530335Y464619D01*
X530609Y466000D01*
X530335Y467381D01*
X529624Y468445D01*
Y471339D01*
X530894Y471464D01*
X531035Y470753D01*
X531296Y469441D01*
X532576Y467526D01*
X534491Y466246D01*
X536750Y465797D01*
X540730D01*
Y471700D01*
Y477603D01*
X536750D01*
X534491Y477154D01*
X532576Y475874D01*
X531296Y473959D01*
X531035Y472647D01*
X530894Y471936D01*
X529624Y472061D01*
Y479000D01*
X529148Y480148D01*
X529000Y480209D01*
Y487500D01*
X501310D01*
X501000Y487500D01*
X500040Y488248D01*
Y492730D01*
X489000D01*
Y494000D01*
X487730D01*
Y501040D01*
X478192Y501040D01*
X477540Y502040D01*
X477308Y502040D01*
X469770D01*
Y492000D01*
X468500D01*
Y490730D01*
X459460D01*
Y485246D01*
X458287Y484760D01*
X457000Y486047D01*
Y500500D01*
X442000D01*
Y483500D01*
X449453D01*
X456213Y476741D01*
X456380Y475540D01*
X456380Y475540D01*
X456380Y475540D01*
Y471270D01*
X461920D01*
Y470000D01*
X463190D01*
Y464460D01*
X467460D01*
Y464987D01*
X467560Y465151D01*
X469155Y465323D01*
X469376Y465102D01*
Y436644D01*
X453461D01*
X452749Y437695D01*
X453731Y440150D01*
X453802Y440198D01*
X454355Y441025D01*
X454549Y442000D01*
Y453451D01*
X455944D01*
X460391Y449004D01*
X460391Y449000D01*
X460665Y447619D01*
X461448Y446448D01*
X462619Y445665D01*
X464000Y445391D01*
X465381Y445665D01*
X466552Y446448D01*
X467335Y447619D01*
X467609Y449000D01*
X467335Y450381D01*
X466552Y451552D01*
X465381Y452335D01*
X464000Y452609D01*
X463996Y452609D01*
X458802Y457802D01*
X457976Y458355D01*
X457000Y458549D01*
X454549D01*
Y468000D01*
X454355Y468975D01*
X453802Y469802D01*
X437195Y486410D01*
X437335Y486619D01*
X437609Y488000D01*
X437335Y489381D01*
X436552Y490552D01*
X435381Y491335D01*
X434000Y491609D01*
X432619Y491335D01*
X431448Y490552D01*
X430665Y489381D01*
X430558Y488843D01*
X429180Y488425D01*
X423000Y494605D01*
Y504000D01*
X523736D01*
X524222Y502827D01*
D02*
G37*
G36*
X472000Y432000D02*
X462000Y432000D01*
X453000Y423000D01*
X450000Y423000D01*
X450000Y420000D01*
X407000Y420000D01*
X414000Y427000D01*
X444000D01*
X452020Y435020D01*
X472000D01*
Y432000D01*
D02*
G37*
G36*
X449164Y415770D02*
X455750D01*
Y413230D01*
X449249D01*
X449401Y412466D01*
X450128Y411378D01*
X450845Y410899D01*
X450716Y410250D01*
Y408750D01*
X450852Y408067D01*
X451238Y407488D01*
Y406512D01*
X450852Y405933D01*
X450716Y405250D01*
Y403750D01*
X450852Y403067D01*
X451238Y402488D01*
Y401512D01*
X450852Y400933D01*
X450716Y400250D01*
Y398750D01*
X450852Y398067D01*
X451238Y397488D01*
Y396512D01*
X450852Y395933D01*
X450716Y395250D01*
Y393750D01*
X450852Y393067D01*
X451123Y392660D01*
X450914Y391870D01*
X450214Y391555D01*
X449584Y391505D01*
X449552Y391552D01*
X448381Y392335D01*
X447000Y392609D01*
X445619Y392335D01*
X444448Y391552D01*
X443665Y390381D01*
X443391Y389000D01*
X442181Y388573D01*
X442000Y388609D01*
X440619Y388335D01*
X439448Y387552D01*
X438665Y386381D01*
X438391Y385000D01*
X438665Y383619D01*
X439448Y382448D01*
X440619Y381665D01*
X440706Y381648D01*
Y363000D01*
X440881Y362122D01*
X441378Y361378D01*
X447706Y355050D01*
Y350000D01*
X447881Y349122D01*
X448378Y348378D01*
X462378Y334378D01*
X463122Y333881D01*
X464000Y333706D01*
X478275D01*
X478448Y333448D01*
X479402Y332810D01*
X479291Y331804D01*
X479191Y331540D01*
X477350D01*
Y326000D01*
X474810D01*
Y331540D01*
X470540D01*
Y331013D01*
X469920Y330000D01*
X461920D01*
Y329549D01*
X460554D01*
X460552Y329552D01*
X459381Y330335D01*
X458000Y330609D01*
X456619Y330335D01*
X455819Y329800D01*
X454638Y330283D01*
X454549Y330363D01*
Y334500D01*
X454534Y334574D01*
Y337750D01*
X454398Y338433D01*
X454263Y338636D01*
X454273Y338807D01*
X453983Y339654D01*
X453390Y340325D01*
X444034Y347453D01*
Y353500D01*
X443899Y354183D01*
X443512Y354762D01*
X442933Y355149D01*
X442250Y355284D01*
X440750D01*
X440101Y355155D01*
X439622Y355872D01*
X438534Y356599D01*
X437770Y356751D01*
Y350250D01*
X435230D01*
Y357058D01*
X434549Y357617D01*
Y378697D01*
X434609Y379000D01*
X434549Y379304D01*
Y380000D01*
X434355Y380975D01*
X433802Y381802D01*
X432975Y382355D01*
X432000Y382549D01*
X431652Y382480D01*
X431000Y382609D01*
X429619Y382335D01*
X428448Y381552D01*
X427665Y380381D01*
X427531Y379703D01*
X426975Y379554D01*
X426209Y379569D01*
X425552Y380552D01*
X424381Y381335D01*
X423000Y381609D01*
Y393000D01*
X421000D01*
X394000Y366000D01*
X390000Y366000D01*
Y388000D01*
X404000D01*
X423000Y407000D01*
Y407704D01*
X432247Y416951D01*
X448269D01*
X449164Y415770D01*
D02*
G37*
G36*
X383000Y433000D02*
Y427000D01*
X387000D01*
Y420000D01*
Y419000D01*
X432000D01*
X403000Y390000D01*
X387000D01*
Y368000D01*
X380000Y362000D01*
Y419000D01*
X380000Y424000D01*
X371000Y424000D01*
X360000Y435000D01*
X360000Y444000D01*
X372000D01*
X383000Y433000D01*
D02*
G37*
G36*
X538236Y381988D02*
X538370Y381436D01*
X537665Y380381D01*
X537391Y379000D01*
X537665Y377619D01*
X537941Y377206D01*
Y359820D01*
X536671Y359141D01*
X536381Y359335D01*
X535000Y359609D01*
X533619Y359335D01*
X532448Y358552D01*
X531665Y357381D01*
X531391Y356000D01*
X531665Y354619D01*
X532448Y353448D01*
X533619Y352665D01*
X534706Y352449D01*
Y348950D01*
X530713Y344958D01*
X529540Y345444D01*
Y347650D01*
X524000D01*
Y350190D01*
X529540D01*
Y354460D01*
X529013D01*
X528000Y355080D01*
Y363080D01*
X526294D01*
Y364920D01*
X528000D01*
Y372920D01*
X529013Y373540D01*
X529540D01*
Y377810D01*
X524000D01*
Y380350D01*
X529540D01*
Y382706D01*
X537889D01*
X538236Y381988D01*
D02*
G37*
G36*
X432000Y323391D02*
X432181Y323427D01*
X433391Y323000D01*
X433665Y321619D01*
X434448Y320448D01*
X435619Y319665D01*
X437000Y319391D01*
X438381Y319665D01*
X439552Y320448D01*
X440335Y321619D01*
X440609Y323000D01*
X441819Y323427D01*
X442000Y323391D01*
X443181Y323626D01*
X443922Y323278D01*
X444477Y322870D01*
X444645Y322024D01*
X445198Y321198D01*
X451198Y315198D01*
X452024Y314645D01*
X453000Y314451D01*
X461920D01*
Y312000D01*
X469920D01*
X470540Y310987D01*
Y310460D01*
X474810D01*
Y316000D01*
X477350D01*
Y310088D01*
X477682Y309287D01*
X475944Y307549D01*
X432000D01*
X431025Y307355D01*
X430198Y306802D01*
X427278Y303882D01*
X426834Y303218D01*
X425625Y303538D01*
X425624Y303540D01*
Y313082D01*
X425616Y313099D01*
X425623Y313117D01*
X425380Y313671D01*
X425148Y314230D01*
X425131Y314237D01*
X425123Y314254D01*
X424206Y315133D01*
X424188Y315140D01*
X424180Y315157D01*
X423611Y315364D01*
X423048Y315584D01*
X423000Y316756D01*
Y319451D01*
X425000D01*
X425010Y319453D01*
X425020Y319451D01*
X425495Y319550D01*
X425975Y319645D01*
X425984Y319651D01*
X425994Y319653D01*
X426397Y319927D01*
X426802Y320198D01*
X426808Y320206D01*
X426817Y320212D01*
X428881Y322310D01*
X429148Y322717D01*
X429419Y323122D01*
X429529Y323186D01*
X430465Y323598D01*
X430602Y323625D01*
X430814Y323627D01*
X432000Y323391D01*
D02*
G37*
G36*
X524714Y314096D02*
X524941Y313901D01*
Y296000D01*
X521920D01*
Y293549D01*
X481620D01*
Y296730D01*
X476080D01*
Y299270D01*
X481620D01*
Y303540D01*
X480804D01*
X480318Y304713D01*
X484802Y309198D01*
X485355Y310025D01*
X485436Y310432D01*
X486706Y310307D01*
Y304000D01*
X486881Y303122D01*
X487378Y302378D01*
X490378Y299378D01*
X491122Y298881D01*
X492000Y298706D01*
X492000Y298706D01*
X507000D01*
X507000Y298706D01*
X513000Y298706D01*
X513878Y298881D01*
X514622Y299378D01*
X517622Y302378D01*
X518119Y303122D01*
X518294Y304000D01*
Y309050D01*
X523746Y314502D01*
X524714Y314096D01*
D02*
G37*
G36*
X207000Y328000D02*
X229381Y305619D01*
X231095Y305693D01*
X233410Y303378D01*
X233411Y303378D01*
X234155Y302881D01*
X235033Y302706D01*
X235033Y302706D01*
X326000D01*
X326878Y302881D01*
X327622Y303378D01*
X333950Y309706D01*
X399000D01*
X399878Y309881D01*
X400622Y310378D01*
X403355Y313111D01*
X423083Y313960D01*
X424000Y313082D01*
Y303540D01*
X420190D01*
Y298000D01*
X418920D01*
Y296730D01*
X413380D01*
Y293000D01*
X233609Y293000D01*
X233609Y293000D01*
X233335Y294381D01*
X232552Y295552D01*
X231381Y296335D01*
X230000Y296609D01*
X228639Y296339D01*
X218355Y301876D01*
X216231Y303882D01*
X216364Y304240D01*
X216062Y304442D01*
X213251Y306749D01*
X211965Y308035D01*
X211965D01*
X199000Y321000D01*
X196000D01*
X196000Y328000D01*
X207000Y328000D01*
D02*
G37*
%LPC*%
G36*
X490270Y501040D02*
Y495270D01*
X500040D01*
Y501040D01*
X490270D01*
D02*
G37*
G36*
X467230Y502040D02*
X459460D01*
Y493270D01*
X467230D01*
Y502040D01*
D02*
G37*
G36*
X547250Y488733D02*
X536750D01*
X535092Y488403D01*
X533686Y487464D01*
X533584Y487311D01*
X532448Y486552D01*
X531665Y485381D01*
X531391Y484000D01*
X531665Y482619D01*
X532448Y481448D01*
X533619Y480665D01*
X535000Y480391D01*
X535078Y480406D01*
X535092Y480397D01*
X536750Y480067D01*
X547250D01*
X548908Y480397D01*
X550314Y481336D01*
X551253Y482742D01*
X551583Y484400D01*
X551253Y486058D01*
X550314Y487464D01*
X548908Y488403D01*
X547250Y488733D01*
D02*
G37*
G36*
X596730Y483130D02*
X587099D01*
X587296Y482141D01*
X588576Y480226D01*
X590491Y478946D01*
X592750Y478497D01*
X596730D01*
Y483130D01*
D02*
G37*
G36*
X547250Y477603D02*
X543270D01*
Y472970D01*
X552901D01*
X552704Y473959D01*
X551424Y475874D01*
X549509Y477154D01*
X547250Y477603D01*
D02*
G37*
G36*
X552901Y470430D02*
X543270D01*
Y465797D01*
X547250D01*
X549509Y466246D01*
X551424Y467526D01*
X552704Y469441D01*
X552901Y470430D01*
D02*
G37*
G36*
X460650Y468730D02*
X456380D01*
Y464460D01*
X460650D01*
Y468730D01*
D02*
G37*
G36*
X624470Y446840D02*
X611700D01*
Y439570D01*
X624470D01*
Y446840D01*
D02*
G37*
G36*
X584370D02*
X573100D01*
Y439570D01*
X584370D01*
Y446840D01*
D02*
G37*
G36*
X570560D02*
X559290D01*
Y439570D01*
X570560D01*
Y446840D01*
D02*
G37*
G36*
X609160D02*
X596390D01*
Y439570D01*
X609160D01*
Y446840D01*
D02*
G37*
G36*
X624470Y437030D02*
X611700D01*
Y429760D01*
X624470D01*
Y437030D01*
D02*
G37*
G36*
X609160D02*
X596390D01*
Y429760D01*
X609160D01*
Y437030D01*
D02*
G37*
G36*
X624470Y360340D02*
X611700D01*
Y353070D01*
X624470D01*
Y360340D01*
D02*
G37*
G36*
X609160D02*
X596390D01*
Y353070D01*
X609160D01*
Y360340D01*
D02*
G37*
G36*
X624470Y350530D02*
X611700D01*
Y343260D01*
X624470D01*
Y350530D01*
D02*
G37*
G36*
X609160D02*
X596390D01*
Y343260D01*
X609160D01*
Y350530D01*
D02*
G37*
G36*
X584370D02*
X573100D01*
Y343260D01*
X584370D01*
Y350530D01*
D02*
G37*
G36*
X601000Y331082D02*
X597667Y330754D01*
X594463Y329782D01*
X591510Y328203D01*
X588921Y326079D01*
X586797Y323490D01*
X585218Y320537D01*
X584246Y317333D01*
X583918Y314000D01*
X584246Y310667D01*
X585218Y307463D01*
X586797Y304510D01*
X588921Y301921D01*
X591510Y299797D01*
X594463Y298218D01*
X597667Y297246D01*
X601000Y296918D01*
X604333Y297246D01*
X607537Y298218D01*
X610490Y299797D01*
X613079Y301921D01*
X615203Y304510D01*
X616782Y307463D01*
X617754Y310667D01*
X618082Y314000D01*
X617754Y317333D01*
X616782Y320537D01*
X615203Y323490D01*
X613079Y326079D01*
X610490Y328203D01*
X607537Y329782D01*
X604333Y330754D01*
X601000Y331082D01*
D02*
G37*
G36*
X567540Y303040D02*
X556270D01*
Y296270D01*
X567540D01*
Y303040D01*
D02*
G37*
G36*
Y293730D02*
X556270D01*
Y286960D01*
X567540D01*
Y293730D01*
D02*
G37*
G36*
X553730Y303040D02*
X542460D01*
Y298462D01*
X541620Y297540D01*
X541190Y297540D01*
X537350D01*
Y292000D01*
Y286460D01*
X541397D01*
X541620Y286460D01*
X542683Y286960D01*
X542890Y286960D01*
X553730D01*
Y295000D01*
Y303040D01*
D02*
G37*
G36*
X417650Y303540D02*
X413380D01*
Y299270D01*
X417650D01*
Y303540D01*
D02*
G37*
%LPD*%
D10*
X567000Y353000D02*
X568030Y354030D01*
Y364000D01*
X556080Y366920D02*
X556920D01*
X548000D02*
X556080D01*
X559000Y364000D01*
X556000Y367000D02*
X556080Y366920D01*
X559000Y364000D02*
X567000D01*
X559000Y413000D02*
X572000D01*
X492000Y337000D02*
X496000Y341000D01*
X488850Y331960D02*
X490000Y333110D01*
X535000Y330000D02*
X539000Y334000D01*
X473000Y494000D02*
X492000D01*
X471000Y495000D02*
X473000Y497000D01*
X471000Y494000D02*
Y495000D01*
X524000Y378000D02*
X525000Y377000D01*
X524000D02*
Y378000D01*
X481000Y450080D02*
X483000Y448080D01*
X524000Y349000D02*
X530000D01*
Y377000D01*
X536000Y294000D02*
X536080D01*
X505000Y328000D02*
X505786Y327214D01*
X476000Y316000D02*
Y333000D01*
X438000Y415000D02*
X456000D01*
X306000Y440000D02*
Y453000D01*
X315000Y424000D02*
Y425000D01*
X329080Y391080D02*
X334000D01*
X290000Y387000D02*
Y418000D01*
X405000Y382000D02*
X423000Y400000D01*
X403000Y384000D02*
X405000Y382000D01*
X394000Y369000D02*
X395000Y370000D01*
X272000Y355000D02*
X290000Y373000D01*
X253000Y335000D02*
X258000Y330000D01*
X555000Y292000D02*
X556000Y293000D01*
X536080Y292000D02*
X555000D01*
X556000Y333000D02*
Y343000D01*
X553080Y345920D02*
X556000Y343000D01*
X548000Y345920D02*
X553080D01*
X556920Y366920D02*
X557000Y367000D01*
X555080Y356080D02*
X556000Y357000D01*
X548000Y356080D02*
X555080D01*
X472000Y429500D02*
Y470000D01*
X492000Y447080D02*
Y461000D01*
X473000Y462000D02*
X498000D01*
X533920Y393920D02*
X534000Y394000D01*
X524000Y393920D02*
X533920D01*
X377000Y451000D02*
X377000D01*
X177000Y397000D02*
X211000D01*
X357700Y335000D02*
Y344700D01*
X536000Y294000D02*
Y296000D01*
Y293000D02*
Y294000D01*
X523960Y378040D02*
X524000Y378000D01*
X443920Y298000D02*
X444920D01*
X438000D02*
X443920D01*
X533000Y310000D02*
X535000Y312000D01*
X533000Y299000D02*
Y310000D01*
Y299000D02*
X536000Y296000D01*
X432000Y305000D02*
X477000D01*
X429080Y302080D02*
X432000Y305000D01*
X429080Y298000D02*
Y302080D01*
X429000Y293000D02*
Y297000D01*
Y293000D02*
X431000Y291000D01*
X483000Y298000D02*
X485000Y300000D01*
X476080Y298000D02*
X483000D01*
X431000Y291000D02*
X523920D01*
X483000Y311000D02*
Y324000D01*
X477000Y305000D02*
X483000Y311000D01*
X490000Y337000D02*
X492000D01*
X490000Y333110D02*
Y337000D01*
X487000Y351000D02*
Y357000D01*
X452000Y442000D02*
Y448500D01*
X471500Y419000D02*
X480000D01*
X513500Y413000D02*
Y413580D01*
X506000Y405920D02*
X507000Y406920D01*
X505920D02*
X507000D01*
X351000Y457080D02*
Y464000D01*
X350920Y457000D02*
X351000Y457080D01*
Y464000D02*
X375000D01*
X347000D02*
X351000D01*
X342000Y459000D02*
X347000Y464000D01*
X342000Y452000D02*
Y459000D01*
X361080Y457000D02*
X371000D01*
X361000D02*
X361080D01*
X371000D02*
X377000Y451000D01*
X375000Y464000D02*
X382000Y457000D01*
X407000Y447500D02*
Y462000D01*
X496000Y394000D02*
X500500Y398500D01*
X249000Y442000D02*
X254000D01*
X528000Y503000D02*
X569000D01*
X518000Y493000D02*
X528000Y503000D01*
X432000Y350750D02*
Y380000D01*
X529000Y377000D02*
X530000D01*
X525000D02*
X529000D01*
X524000Y378000D02*
Y378080D01*
X523960Y378040D02*
X524000Y378080D01*
X417000Y447500D02*
Y467000D01*
X472000Y350000D02*
Y354000D01*
X412000Y447500D02*
Y458839D01*
X494000Y362000D02*
X498750Y357250D01*
X432000Y448500D02*
Y459500D01*
X342000Y424000D02*
X358500D01*
X283000Y456000D02*
Y464000D01*
X471500Y409000D02*
X497000D01*
X513790Y413290D02*
X514000Y413500D01*
X513500Y413000D02*
X513790Y413290D01*
X492900Y437221D02*
X494992Y437920D01*
X492000Y436920D02*
X492900Y437221D01*
X342000Y338000D02*
X345000D01*
X327000Y359000D02*
X334000D01*
X334000Y372080D02*
Y380920D01*
Y371000D02*
Y372080D01*
Y371000D02*
X341000D01*
X332000D02*
X334000D01*
X316000Y408000D02*
X321000Y413000D01*
X302000Y423000D02*
X305920D01*
X233000Y415000D02*
X236000D01*
X270000Y392000D02*
Y404000D01*
X422000Y327000D02*
Y336000D01*
X427000Y324162D02*
Y335000D01*
X178000Y392000D02*
X209000D01*
X288000Y440000D02*
X296000Y448000D01*
X280000Y445000D02*
Y448000D01*
X268000Y430000D02*
X280920D01*
X453000Y317000D02*
X467000D01*
X480000Y438000D02*
X482000D01*
X480000Y428000D02*
Y438000D01*
X294000Y338000D02*
X299000D01*
X514000Y413500D02*
X514500D01*
X513250Y412750D02*
X513500Y413000D01*
X507290Y406790D02*
X513250Y412750D01*
X500000Y399000D02*
X500500Y398500D01*
X492500Y391000D02*
X500000D01*
X485500Y384000D02*
X492500Y391000D01*
X471500Y384000D02*
X485500D01*
X513500Y413580D02*
X513790Y413290D01*
X507080Y407000D02*
X507290Y406790D01*
X501000Y392000D02*
Y392000D01*
X500000Y391000D02*
X501000Y392000D01*
X471500Y389000D02*
X484500D01*
X489500Y394000D02*
X496000D01*
X484500Y389000D02*
X489500Y394000D01*
X488000Y403000D02*
X489000D01*
X484000Y399000D02*
X488000Y403000D01*
X471500Y399000D02*
X484000D01*
X492000Y398000D02*
X493000Y399000D01*
X488500Y398000D02*
X492000D01*
X484500Y394000D02*
X488500Y398000D01*
X471500Y394000D02*
X484500D01*
X471500Y424000D02*
X476000D01*
X480000Y428000D01*
X496000Y366000D02*
X499000D01*
X499500Y366500D01*
Y365000D02*
Y366500D01*
X492500Y354500D02*
Y357500D01*
Y353500D02*
Y354500D01*
X480000Y364000D02*
X487000Y357000D01*
X480000Y349500D02*
Y358000D01*
X479000Y359000D02*
X480000Y358000D01*
X431500Y350250D02*
X432000Y350750D01*
X310000Y430000D02*
X315000Y425000D01*
X306000Y430000D02*
X310000D01*
X306000D02*
Y435000D01*
X302000Y430000D02*
X306000D01*
X290000Y418000D02*
X302000Y430000D01*
X305920Y436000D02*
Y440000D01*
Y433920D02*
Y436000D01*
X320000Y445000D02*
X323000Y442000D01*
X317080Y445000D02*
X320000D01*
X315000Y459000D02*
X326000Y448000D01*
X295920Y459000D02*
X315000D01*
X294000Y457080D02*
X295920Y459000D01*
X294000Y346080D02*
Y351000D01*
Y346000D02*
Y346080D01*
X299000Y338000D02*
X304000Y343000D01*
X287000Y329000D02*
X299000D01*
X287000D02*
Y347000D01*
X299000Y329000D02*
X303000Y333000D01*
X276000Y330000D02*
X280000Y334000D01*
X268080Y330000D02*
X276000D01*
X269000Y351000D02*
X294000D01*
X474000Y312000D02*
X476080Y314080D01*
Y316000D01*
X535000Y312000D02*
Y330000D01*
X524000Y347920D02*
Y349000D01*
Y346920D02*
Y347920D01*
X306000Y343000D02*
Y349000D01*
X463000Y418000D02*
Y424000D01*
X506080Y407000D02*
X507080D01*
X506000D02*
X506080D01*
X505920Y406920D02*
X506000Y407000D01*
X418000Y322000D02*
X425000D01*
X427064Y324098D01*
X437000Y323000D02*
Y334500D01*
X447000Y329000D02*
Y334500D01*
X447000Y329000D02*
X447000Y329000D01*
X447000Y323000D02*
Y329000D01*
Y323000D02*
X453000Y317000D01*
X481000Y450080D02*
Y454000D01*
X377000Y334500D02*
Y336000D01*
X370000Y343000D02*
X377000Y336000D01*
X370000Y343000D02*
Y350000D01*
X386000Y368000D02*
Y419500D01*
X382000Y364000D02*
X386000Y368000D01*
X381000Y363000D02*
X382000Y364000D01*
X381000Y360000D02*
Y363000D01*
Y346000D02*
Y360000D01*
X373000D02*
X381000D01*
Y346000D02*
X387000Y340000D01*
X376000Y345000D02*
Y353000D01*
Y345000D02*
X382000Y339000D01*
X357700Y344700D02*
X373000Y360000D01*
X346000Y429000D02*
X357080D01*
X267000Y347000D02*
X287000D01*
X345000Y338000D02*
Y349000D01*
X334920Y359080D02*
X345000Y349000D01*
X334920Y359000D02*
Y359080D01*
X339000Y363000D02*
X345000Y369000D01*
X336000Y363000D02*
X339000D01*
X335000Y362000D02*
X336000Y363000D01*
X386000Y359000D02*
X386500Y358500D01*
Y350250D02*
Y358500D01*
X382000Y334500D02*
Y339000D01*
X382000Y364000D02*
Y366000D01*
X387000Y335500D02*
Y340000D01*
Y334500D02*
Y335500D01*
X483000Y324000D02*
X485960Y326960D01*
X488850D01*
X517250Y322214D02*
X519150D01*
X504786D02*
X517250D01*
X504000Y323000D02*
X504786Y322214D01*
X505786Y327214D02*
X517250D01*
X462000Y333000D02*
X476000D01*
X458000Y327000D02*
X465000D01*
X432000Y328000D02*
Y330000D01*
Y327000D02*
Y328000D01*
X431936Y328064D02*
X432000Y328000D01*
X431936Y328064D02*
Y333936D01*
X253000Y335000D02*
Y354000D01*
X234000Y359000D02*
X247000D01*
X206000Y387000D02*
X234000Y359000D01*
X290000Y373000D02*
Y387000D01*
X290000Y373000D02*
X290000D01*
X256000Y398000D02*
X267000Y387000D01*
Y354000D02*
Y387000D01*
X266000Y354000D02*
X267000D01*
X248000Y372000D02*
X266000Y354000D01*
X269000Y351000D01*
X246000Y368000D02*
X267000Y347000D01*
X233000Y368000D02*
X246000D01*
X209000Y392000D02*
X233000Y368000D01*
X236000Y372000D02*
X248000D01*
X211000Y397000D02*
X236000Y372000D01*
X238000Y376000D02*
X252000D01*
X238000Y376000D02*
X238000Y376000D01*
X211000Y403000D02*
X238000Y376000D01*
X252000Y376000D02*
X257000Y371000D01*
X262000Y366000D02*
Y380000D01*
X240000D02*
X262000D01*
X213000Y407000D02*
X240000Y380000D01*
X270000Y392000D02*
X284000Y378000D01*
X290000Y387000D02*
X304000D01*
X334000Y359920D02*
X334920Y359000D01*
X442000Y327000D02*
Y332000D01*
X437000Y334500D02*
X437500Y335000D01*
X422000Y336000D02*
X422000Y336000D01*
X431936Y333936D02*
X432000Y334000D01*
Y330000D02*
X432000Y330000D01*
X246000Y421000D02*
X253000Y428000D01*
X246000Y408000D02*
X251000Y403000D01*
Y398000D02*
Y403000D01*
Y398000D02*
X256000D01*
X272300Y440000D02*
X288000D01*
X269300Y443000D02*
X272300Y440000D01*
X272000Y456000D02*
X280000Y448000D01*
X269300Y456000D02*
X272000D01*
X507000Y406920D02*
X507080Y407000D01*
X255300Y443000D02*
Y455200D01*
Y430000D02*
Y443000D01*
X255000Y455500D02*
X255300Y455200D01*
X246000Y408000D02*
Y421000D01*
X423000Y400000D02*
Y400000D01*
X438000Y415000D01*
X248000Y386000D02*
X253000Y391000D01*
X248000Y386000D02*
Y386000D01*
X240000Y386000D02*
X248000D01*
X214000Y412000D02*
X240000Y386000D01*
X270000Y418000D02*
X289000D01*
X255000Y407000D02*
X258000Y404000D01*
X255000Y407000D02*
Y416000D01*
X218000Y422000D02*
X232000Y408000D01*
X189000Y422000D02*
X218000D01*
X232000Y408000D02*
X240000D01*
X241000Y409000D01*
X223000Y432000D02*
X235000Y420000D01*
X240000D01*
X291080Y435080D02*
X292000Y436000D01*
X291080Y430000D02*
Y435080D01*
X283000Y456000D02*
X284000Y455000D01*
X235000Y464000D02*
X283000D01*
X213000Y442000D02*
X235000Y464000D01*
X187000Y442000D02*
X213000D01*
X233000Y468000D02*
X378000D01*
X213000Y448000D02*
X233000Y468000D01*
X189000Y448000D02*
X213000D01*
X231000Y472000D02*
X380000D01*
X212000Y453000D02*
X231000Y472000D01*
X189000Y453000D02*
X212000D01*
X229000Y476000D02*
X402000D01*
X211000Y458000D02*
X229000Y476000D01*
X190000Y458000D02*
X211000D01*
X227000Y480000D02*
X404000D01*
X209000Y462000D02*
X227000Y480000D01*
X190000Y462000D02*
X209000D01*
X225000Y484000D02*
X406000D01*
X208000Y467000D02*
X225000Y484000D01*
X190000Y467000D02*
X208000D01*
X223000Y488000D02*
X408000D01*
X207000Y472000D02*
X223000Y488000D01*
X191000Y472000D02*
X207000D01*
X221000Y492000D02*
X410000D01*
X206000Y477000D02*
X221000Y492000D01*
X191000Y477000D02*
X206000D01*
X219000Y496000D02*
X412000D01*
X205000Y482000D02*
X219000Y496000D01*
X191000Y482000D02*
X205000D01*
X217000Y500000D02*
X414000D01*
X204000Y487000D02*
X217000Y500000D01*
X191000Y487000D02*
X204000D01*
X283000Y464000D02*
X321000D01*
X305920Y440000D02*
Y444000D01*
Y440000D02*
X306000D01*
X321000Y464000D02*
X331000Y454000D01*
Y435000D02*
Y454000D01*
X304000Y387000D02*
X305000D01*
X316000Y386000D02*
X324000D01*
X329080Y391080D01*
X299000Y392000D02*
X320000D01*
X295000Y396000D02*
X299000Y392000D01*
X310000Y378000D02*
Y391000D01*
X333000Y405000D02*
X347000D01*
X320000Y392000D02*
X333000Y405000D01*
X320000Y413000D02*
X324000Y417000D01*
Y425000D01*
X316080Y432920D02*
X324000Y425000D01*
X316080Y432920D02*
Y433000D01*
X295000Y416000D02*
X302000Y423000D01*
X295000Y396000D02*
Y416000D01*
X329000Y414000D02*
Y425000D01*
X323000Y431000D02*
X329000Y425000D01*
X323000Y431000D02*
Y442000D01*
X327000Y433000D02*
Y446000D01*
X326000Y447000D02*
X327000Y446000D01*
X341000Y419000D02*
X357080D01*
X327000Y433000D02*
X341000Y419000D01*
X331000Y435000D02*
X342000Y424000D01*
X459500Y414500D02*
X463000Y418000D01*
X455750Y414500D02*
X459500D01*
X394000Y384000D02*
X403000D01*
X394000Y371000D02*
Y384000D01*
Y369000D02*
Y371000D01*
X403000Y384000D02*
X405000D01*
X394000Y371000D02*
X395000Y370000D01*
X472000Y349000D02*
Y350000D01*
X471500Y349500D02*
Y354000D01*
Y349000D02*
Y349500D01*
X472000Y350000D01*
X468000Y346000D02*
X471500Y349500D01*
X468000Y345000D02*
Y346000D01*
X483000Y379000D02*
X496000Y366000D01*
X482000Y374000D02*
X494000Y362000D01*
X481000Y369000D02*
X492500Y357500D01*
X407000Y368000D02*
X419000D01*
X396500Y357500D02*
X407000Y368000D01*
X396500Y350250D02*
Y357500D01*
X406000Y373000D02*
X414000D01*
X391500Y358500D02*
X406000Y373000D01*
X391500Y350250D02*
Y358500D01*
X409000Y358000D02*
X419000D01*
X414000Y363000D02*
X415000Y362000D01*
X493000Y399000D02*
X494000D01*
X408000Y363000D02*
X414000D01*
X401500Y356500D02*
X408000Y363000D01*
X401500Y350250D02*
Y356500D01*
X471500Y379000D02*
X483000D01*
X481000Y374000D02*
X482000D01*
X481000Y374000D02*
X481000Y374000D01*
X471500Y369000D02*
X481000D01*
X471500Y364000D02*
X480000D01*
X471500Y359000D02*
X479000D01*
X452000Y327000D02*
X458000D01*
X406500Y355500D02*
X409000Y358000D01*
X406500Y350250D02*
Y355500D01*
X471500Y404000D02*
X481000D01*
X479000Y374000D02*
X481000D01*
X472500D02*
X479000D01*
X491000Y434000D02*
Y436000D01*
X485000Y428000D02*
X491000Y434000D01*
X494992Y437920D02*
X504000Y447000D01*
X485000Y414000D02*
Y428000D01*
X377000Y451000D02*
Y452000D01*
Y448500D02*
Y451000D01*
X469500Y399000D02*
X471500D01*
X360000Y430000D02*
Y456000D01*
X491000Y436000D02*
X492000Y437000D01*
X497000Y463000D02*
X498000Y462000D01*
X507000D01*
X499000Y476000D02*
X511000D01*
X462000Y462000D02*
Y469000D01*
X472000Y470000D02*
X472080D01*
X434000Y486000D02*
Y488000D01*
Y486000D02*
X452000Y468000D01*
Y456000D02*
Y468000D01*
Y327000D02*
Y334500D01*
X471500Y414000D02*
X485000D01*
X457000Y456000D02*
X463000Y450000D01*
X452000Y456000D02*
X457000D01*
X187000Y327000D02*
X202033D01*
X187000Y322000D02*
X202033D01*
X232000Y402000D02*
X235000D01*
X217000Y417000D02*
X232000Y402000D01*
X191000Y417000D02*
X217000D01*
X221000Y427000D02*
X233000Y415000D01*
X190000Y427000D02*
X221000D01*
X191000Y432000D02*
X223000D01*
X225000Y437000D02*
X235000Y427000D01*
X192000Y437000D02*
X225000D01*
X315000Y414000D02*
X315080Y414080D01*
X357080Y414000D02*
X359500D01*
X348000D02*
X357080D01*
X347000D02*
X348000D01*
X311000Y413000D02*
X313000Y415000D01*
X399000Y425000D02*
X406500D01*
X391500D02*
X399000D01*
X406500D02*
Y432000D01*
X391500Y425000D02*
Y433750D01*
X190000Y403000D02*
X211000D01*
X447000Y450000D02*
Y467000D01*
X414000Y500000D02*
X447000Y467000D01*
X442000Y457000D02*
Y466000D01*
X412000Y496000D02*
X442000Y466000D01*
X437000Y448500D02*
Y465000D01*
X410000Y492000D02*
X437000Y465000D01*
X432000Y459500D02*
Y464000D01*
X408000Y488000D02*
X432000Y464000D01*
X427000Y448500D02*
Y463000D01*
X406000Y484000D02*
X427000Y463000D01*
X404000Y480000D02*
X417000Y467000D01*
X412064Y458902D02*
Y465936D01*
X402000Y476000D02*
X412064Y465936D01*
X442000Y448500D02*
Y457000D01*
Y447500D02*
Y448500D01*
X437000Y447500D02*
Y448500D01*
X432000Y447500D02*
Y448500D01*
X427000Y447500D02*
Y448500D01*
X347000Y405000D02*
X348000Y404000D01*
X357080Y359000D02*
X359500D01*
X343000D02*
X357080D01*
X342000D02*
X343000D01*
X357080Y364000D02*
X359500D01*
X348000D02*
X357080D01*
X347000D02*
X348000D01*
X469500Y369000D02*
X471500D01*
X468500Y359000D02*
X471500D01*
X468500Y379000D02*
X471500D01*
X190000Y387000D02*
X206000D01*
X386000Y419500D02*
X454500D01*
X372250D02*
X386000D01*
Y420000D01*
X334000Y359920D02*
Y360000D01*
X357080Y354000D02*
X358500D01*
X348000D02*
X357080D01*
X347000D02*
X348000D01*
X334000Y370000D02*
Y371000D01*
X321000Y409000D02*
Y413000D01*
X357080Y409000D02*
X358000D01*
X321000D02*
X357080D01*
Y394000D02*
X359500D01*
X348000D02*
X357080D01*
X347000D02*
X348000D01*
X357080Y389000D02*
X358500D01*
X342000D02*
X357080D01*
Y384000D02*
X359500D01*
X348000D02*
X357080D01*
X347000D02*
X348000D01*
X357080Y379000D02*
X359500D01*
X342000D02*
X357080D01*
X341000D02*
X342000D01*
X345000Y369000D02*
X357080D01*
X358500D01*
X357080Y424000D02*
X358500D01*
X351000D02*
X357080D01*
Y404000D02*
X358500D01*
X348000D02*
X357080D01*
X344000Y374000D02*
X348000D01*
X341000Y371000D02*
X344000Y374000D01*
X348000Y374000D02*
X357080D01*
X346000D02*
X348000D01*
X452000Y448500D02*
Y456000D01*
X469000Y404000D02*
X471500D01*
X402000Y448500D02*
Y457000D01*
Y446500D02*
Y448500D01*
X407000Y447500D02*
X407000Y447500D01*
X470500Y394000D02*
X471500D01*
X470500Y384000D02*
X471500D01*
X470500Y389000D02*
X471500D01*
X386500Y420000D02*
X386500Y420000D01*
Y433750D01*
X454500Y419500D02*
X454500Y419500D01*
X382000Y448500D02*
Y457000D01*
X358500Y429000D02*
X358807D01*
X377000Y447500D02*
Y448500D01*
X357080Y374000D02*
X358500D01*
X387000Y445500D02*
X387000Y448500D01*
X470500Y364000D02*
X471500D01*
X387000Y448500D02*
Y459000D01*
X342000Y399000D02*
X357000D01*
X392000Y450000D02*
Y460000D01*
X380000Y472000D02*
X392000Y460000D01*
X378000Y468000D02*
X387000Y459000D01*
X479000Y374000D02*
X479000Y374000D01*
X348000D02*
X348000Y374000D01*
X192000Y412000D02*
X214000D01*
X209000Y335000D02*
Y342000D01*
X199000Y352000D02*
X209000Y342000D01*
X188000Y352000D02*
X199000D01*
X235000Y401000D02*
Y402000D01*
X191000Y407000D02*
X213000D01*
X280000Y393000D02*
X280500Y392500D01*
X427000Y324162D02*
X427064Y324098D01*
X358500Y424000D02*
X358500Y424000D01*
X412000Y458839D02*
X412064Y458902D01*
X442000Y457000D02*
X442000Y457000D01*
X432000Y459500D02*
X432000Y459500D01*
X317000Y371000D02*
X317080D01*
X387000Y335500D02*
X387000Y335500D01*
D12*
X567000Y383000D02*
X571000D01*
X518500Y367000D02*
X524000D01*
X511500Y340250D02*
X517750D01*
X520000Y385000D02*
X553000D01*
X518500Y383500D02*
X520000Y385000D01*
X518500Y367000D02*
Y383500D01*
X543000Y391000D02*
Y409000D01*
X519000Y388000D02*
X540000D01*
X515500Y384500D02*
X519000Y388000D01*
X515500Y357500D02*
Y384500D01*
X554750Y383250D02*
X555000Y383000D01*
X553000Y385000D02*
X554750Y383250D01*
X540000Y388000D02*
X543000Y391000D01*
X444346Y442731D02*
X444692Y442962D01*
X444346Y442731D02*
X444346Y442731D01*
X436500Y437500D02*
X444346Y442731D01*
X584000Y468000D02*
Y485000D01*
X570000Y436000D02*
X572300Y438300D01*
X462260Y438710D02*
X467130Y443580D01*
X523000Y303000D02*
Y309000D01*
X514000Y294000D02*
X523000Y303000D01*
X492000Y294000D02*
X514000D01*
X489000Y315000D02*
Y322000D01*
X489250Y313750D02*
X496500D01*
X460000Y298000D02*
X465920D01*
X456000D02*
X460000D01*
X484000Y302000D02*
Y304000D01*
Y302000D02*
X489000Y297000D01*
X450000Y437000D02*
X452000Y442000D01*
X580500Y407500D02*
X581000Y407000D01*
X446750Y433750D02*
X450000Y437000D01*
X547000Y402000D02*
X553000Y396000D01*
X538000Y429000D02*
X541000Y426000D01*
Y420000D02*
Y426000D01*
Y420000D02*
X547000Y414000D01*
X540000Y432000D02*
X546000Y426000D01*
Y422000D02*
Y426000D01*
Y422000D02*
X547000D01*
X502000Y432000D02*
X508000Y438000D01*
X542000D02*
X554000Y426000D01*
Y408000D02*
Y426000D01*
Y408000D02*
X559500Y402500D01*
X557000Y398000D02*
X571000D01*
X507000Y424000D02*
Y427000D01*
X550000Y426000D02*
X551000Y425000D01*
Y404000D02*
Y425000D01*
Y404000D02*
X557000Y398000D01*
X556000Y377000D02*
X556500Y377500D01*
X568030D01*
X570000Y503000D02*
X611000D01*
X569000D02*
X570000D01*
Y471000D02*
Y503000D01*
X581000Y441000D02*
Y466000D01*
X583000Y468000D01*
X572300Y438300D02*
X610430D01*
X611000Y503000D02*
X612000Y502000D01*
X558000Y459000D02*
X570000Y471000D01*
X542000Y459000D02*
X558000D01*
X542000Y471700D02*
X557700D01*
X624080Y458000D02*
X630000D01*
X624080Y478000D02*
X630000D01*
X506000Y397000D02*
X507500Y395500D01*
X512000Y309000D02*
Y313000D01*
X443000Y363000D02*
Y386000D01*
X601000Y459000D02*
X602000Y458000D01*
X613920D01*
X614000D02*
X624000Y468000D01*
X613920Y458000D02*
X614000D01*
X598000Y496000D02*
X598000Y496000D01*
Y484400D02*
Y496000D01*
X604000Y484000D02*
X608000Y488000D01*
X613920D01*
X614000D02*
X623000Y497000D01*
X613920Y488000D02*
X614000D01*
Y478000D02*
X624000Y488000D01*
X613920Y478000D02*
X614000D01*
X584000Y485000D02*
X594000D01*
X584000Y468000D02*
X587000Y465000D01*
X610920D01*
X613920Y468000D01*
X604000Y472000D02*
X610000Y478000D01*
X613920D01*
X520000Y404000D02*
X523000D01*
X518000Y402000D02*
X520000Y404000D01*
X518000Y391000D02*
Y402000D01*
X512500Y385500D02*
X518000Y391000D01*
X508500Y385500D02*
X512500D01*
X524000Y408000D02*
X532000Y416000D01*
X524000Y404080D02*
Y408000D01*
X534000Y424000D02*
X538000Y420000D01*
Y415000D02*
Y420000D01*
X535000Y412000D02*
X538000Y415000D01*
X535000Y405080D02*
Y412000D01*
X534000Y404080D02*
X535000Y405080D01*
X525250Y416250D02*
Y422250D01*
X506000Y397000D02*
X525250Y416250D01*
X555000Y383000D02*
X567000D01*
X554750Y383250D02*
X566750D01*
X567000Y383000D01*
X527000Y424000D02*
X532000D01*
X525250Y422250D02*
X527000Y424000D01*
X523000Y429000D02*
X538000D01*
X510000Y416000D02*
X523000Y429000D01*
X521000Y432000D02*
X540000D01*
X509000Y420000D02*
X521000Y432000D01*
X515000Y435000D02*
X541000D01*
X507000Y427000D02*
X515000Y435000D01*
X502000Y432000D02*
Y436000D01*
Y431000D02*
Y432000D01*
X501000Y431000D02*
X502000Y432000D01*
X508000Y438000D02*
X542000D01*
X501000Y430000D02*
Y431000D01*
X550000Y426000D02*
Y426000D01*
X541000Y435000D02*
X550000Y426000D01*
X547000Y402000D02*
Y414000D01*
X568030Y407500D02*
X580500D01*
X557000Y390000D02*
Y398000D01*
Y390000D02*
X559500Y387500D01*
X568030D01*
X559500Y402500D02*
X568030D01*
X576500D01*
X573000Y392000D02*
X577000D01*
X579000Y394000D01*
Y400000D01*
X576500Y402500D02*
X579000Y400000D01*
X416936Y329936D02*
Y335436D01*
X505850Y342150D02*
X507000Y341000D01*
X501500Y342150D02*
X505850D01*
X328500Y332500D02*
Y349500D01*
X245000Y329000D02*
Y339000D01*
X456190Y438710D02*
X462260D01*
X511000Y353000D02*
X515500Y357500D01*
X506500Y395500D02*
X507500D01*
X496000Y421000D02*
X501000Y416000D01*
X493500Y426000D02*
X493750Y426250D01*
X498250D01*
X504500Y420000D01*
X509000D01*
X444692Y442962D02*
X447000Y444500D01*
X501000Y416000D02*
X510000D01*
X499500Y353000D02*
X511000D01*
X497000Y350500D02*
X499500Y353000D01*
X497000Y344000D02*
Y350500D01*
X496500Y343500D02*
X497000Y344000D01*
X182000Y303000D02*
X200000D01*
X210000Y293000D01*
X509000Y306000D02*
X512000Y309000D01*
X502000Y306000D02*
X506500Y310500D01*
X201000Y307000D02*
X213000Y295000D01*
X181500Y307000D02*
X201000D01*
X181000Y307500D02*
X181500Y307000D01*
X506500Y310500D02*
Y311850D01*
X513000Y301000D02*
X516000Y304000D01*
X507000Y301000D02*
X513000Y301000D01*
X507000Y301000D02*
X507000Y301000D01*
X492000Y301000D02*
X507000D01*
X489000Y304000D02*
X492000Y301000D01*
X489000Y304000D02*
Y314000D01*
X501000Y311350D02*
X501500Y311850D01*
X501000Y311000D02*
Y311350D01*
X496000Y306000D02*
X501000Y311000D01*
X489000Y297000D02*
X492000Y294000D01*
X516000Y310000D02*
X525000Y319000D01*
X516000Y304000D02*
Y310000D01*
X489000Y314000D02*
Y315000D01*
X525000Y319000D02*
Y336000D01*
X537000Y348000D01*
Y354000D01*
X535000Y356000D02*
X537000Y354000D01*
X217000Y295000D02*
X218000Y293000D01*
X200000Y312000D02*
X217000Y295000D01*
X199000Y312000D02*
X200000D01*
X213000Y288000D02*
Y295000D01*
X210000Y285000D02*
Y293000D01*
X199000Y317000D02*
X217000Y300000D01*
X189000Y317000D02*
X199000D01*
X217000Y300000D02*
X230000Y293000D01*
X190000Y312000D02*
X199000D01*
X181000Y312500D02*
X199000Y312000D01*
X518500Y347000D02*
Y367000D01*
X518000Y340500D02*
X518500Y347000D01*
X503000D02*
X518500D01*
X496500Y342150D02*
Y343500D01*
X426500Y353000D02*
Y374500D01*
Y350250D02*
Y353000D01*
X424000Y377000D02*
X426500Y374500D01*
X423000Y389000D02*
X433000D01*
X436022Y385978D01*
X426000Y352500D02*
X426500Y353000D01*
X436022Y380000D02*
Y385978D01*
X441500Y433750D02*
X446750D01*
X306000Y343000D02*
X315000D01*
X304000D02*
X306000D01*
X315000Y328000D02*
Y343000D01*
X328500Y349500D02*
Y350500D01*
X328000Y331000D02*
Y332000D01*
X320000Y323000D02*
X328000Y331000D01*
X251000Y323000D02*
X320000D01*
X328000Y327000D02*
X388000D01*
X321000Y320000D02*
X328000Y327000D01*
X247000Y320000D02*
X321000D01*
X329000Y324000D02*
X391000D01*
X322000Y317000D02*
X329000Y324000D01*
X244000Y317000D02*
X322000D01*
X330000Y321000D02*
X393000D01*
X323000Y314000D02*
X330000Y321000D01*
X241033Y314000D02*
X323000D01*
X331000Y318000D02*
X395000D01*
X324000Y311000D02*
X331000Y318000D01*
X239000Y311000D02*
X324000D01*
X332000Y315000D02*
X397000D01*
X325000Y308000D02*
X332000Y315000D01*
X237016Y308000D02*
X325000D01*
X333000Y312000D02*
X399000D01*
X326000Y305000D02*
X333000Y312000D01*
X235033Y305000D02*
X326000D01*
X524000Y358080D02*
Y366920D01*
Y357080D02*
Y358080D01*
X517750Y340250D02*
X518000Y340500D01*
X399000Y312000D02*
X416936Y329936D01*
X397000Y315000D02*
X412000Y330000D01*
X395000Y318000D02*
X407000Y330000D01*
X393000Y321000D02*
X402000Y330000D01*
X391000Y324000D02*
X397000Y330000D01*
X215033Y325000D02*
X235033Y305000D01*
X219016Y326000D02*
X237016Y308000D01*
X223000Y327000D02*
X239000Y311000D01*
X227000Y328033D02*
X241033Y314000D01*
X231000Y330000D02*
X244000Y317000D01*
X235000Y332000D02*
X247000Y320000D01*
X501000Y430000D02*
X502000Y429000D01*
X500000D02*
X501000Y430000D01*
X392000Y331000D02*
Y333000D01*
X388000Y327000D02*
X392000Y331000D01*
X388000Y327000D02*
X388000D01*
X388000Y327000D02*
X388000Y327000D01*
X388000Y327000D02*
Y327000D01*
X328000Y351000D02*
X328500Y350500D01*
X517750Y340250D02*
X518000Y340000D01*
X473000D02*
X475000Y342000D01*
X465000Y340000D02*
X473000D01*
X453000Y352000D02*
X465000Y340000D01*
X489000Y314000D02*
X489250Y313750D01*
X518000Y333000D02*
Y340000D01*
X447000Y348000D02*
X462000Y333000D01*
X412000Y330000D02*
Y334500D01*
X407000Y330000D02*
Y334500D01*
X402000Y330000D02*
Y334500D01*
X397000Y330000D02*
Y334500D01*
X392000Y333000D02*
X392000Y333000D01*
X245000Y329000D02*
X251000Y323000D01*
X188000Y367000D02*
X202000D01*
X210000Y359000D01*
Y359000D02*
Y359000D01*
X406500Y347000D02*
X407000Y334500D01*
Y335500D01*
X223000Y327000D02*
Y346000D01*
X210000Y359000D02*
X223000Y346000D01*
X447000Y389000D02*
Y390000D01*
Y363000D02*
Y389000D01*
X455750Y419500D02*
Y426750D01*
X449000Y361000D02*
X453000Y357000D01*
Y352000D02*
Y357000D01*
X443000Y363000D02*
X450000Y356000D01*
X464000Y336000D02*
X481000D01*
X450000Y350000D02*
Y356000D01*
Y350000D02*
X464000Y336000D01*
X443000Y358000D02*
X447000Y354000D01*
Y348000D02*
Y354000D01*
X436000Y381000D02*
X436001Y380978D01*
X436500Y358000D01*
X447000Y363000D02*
X449000Y361000D01*
X436500Y350250D02*
Y358000D01*
X443000D01*
X449000Y361000D02*
Y361000D01*
X205000Y382000D02*
X235000Y352000D01*
Y332000D02*
Y352000D01*
X204000Y377000D02*
X231000Y350000D01*
Y330000D02*
Y350000D01*
X203000Y372000D02*
X227000Y348000D01*
Y328033D02*
Y348000D01*
X219000Y326000D02*
X219016D01*
X219000D02*
Y344000D01*
X412000Y334500D02*
Y335500D01*
X201000Y362000D02*
X219000Y344000D01*
X215000Y325000D02*
X215033D01*
X215000D02*
Y342000D01*
X202000Y355000D02*
X215000Y342000D01*
X431500Y437500D02*
X431500Y437500D01*
X422000Y444500D02*
X431500Y437500D01*
Y438500D01*
Y433750D02*
Y437500D01*
Y438500D02*
X434000Y441000D01*
X361000Y429000D02*
X368500Y419500D01*
X368507Y419558D02*
X369000Y419500D01*
X361000Y424000D02*
X368500Y414500D01*
X377000Y444500D02*
X386500Y437500D01*
X382000Y444500D02*
X391500Y437500D01*
X402000Y444500D02*
X411500Y437500D01*
X397000Y444500D02*
X406500Y437500D01*
X441500Y346500D02*
X452000Y338500D01*
X431500Y346500D02*
X442000Y338500D01*
X426500Y346500D02*
X437000Y338500D01*
X421500Y346500D02*
X432000Y338500D01*
X416500Y346500D02*
X427000Y338500D01*
X411500Y346500D02*
X422000Y338500D01*
X411500Y346500D02*
X411500Y350250D01*
X402000Y334500D02*
Y335500D01*
X401500Y347500D02*
X402000Y334500D01*
X397000D02*
Y335500D01*
X396500Y347000D02*
X397000Y334500D01*
X391500Y347000D02*
X392000Y334500D01*
X361000Y354500D02*
X369000Y365000D01*
X360940Y374046D02*
X368905Y384500D01*
X372250D01*
X361000Y359500D02*
X369000Y370000D01*
X361000Y364500D02*
X369000Y375000D01*
X361000Y369500D02*
X369000Y380000D01*
X361000Y399000D02*
X368500Y389500D01*
X361000Y404000D02*
X368500Y394500D01*
X361000Y409000D02*
X368500Y399500D01*
X361000Y414000D02*
X368500Y404500D01*
X357080Y419000D02*
X361000D01*
X368500Y409500D01*
X441500Y433750D02*
Y437500D01*
X436500D02*
X436500Y433750D01*
X417000Y444500D02*
X426500Y437500D01*
X412000Y444500D02*
X421500Y437500D01*
X407000Y444500D02*
X416500Y437500D01*
X392000Y444500D02*
X401500Y437500D01*
Y433750D02*
Y437500D01*
X387000Y444500D02*
X396500Y437500D01*
Y433750D02*
Y437500D01*
X459500Y384500D02*
X468000Y394000D01*
X459500Y389500D02*
X468000Y399000D01*
X459500Y394500D02*
X468000Y404000D01*
X459500Y399500D02*
X468000Y409000D01*
X459500Y404500D02*
X468000Y414000D01*
X456500Y410000D02*
X459500Y409500D01*
X468000Y419000D01*
X471500D01*
X459500Y364000D02*
X468000Y354000D01*
X459500Y369000D02*
X468000Y359000D01*
X459044Y374537D02*
X468000Y364000D01*
X459044Y379537D02*
X468000Y369000D01*
X441500Y433750D02*
X442000Y437000D01*
X411000D02*
X411500Y433750D01*
X407000Y447500D02*
Y448500D01*
X202000Y355000D02*
Y355000D01*
X200000Y357000D02*
X202000Y355000D01*
X188000Y357000D02*
X200000D01*
X189000Y362000D02*
X201000D01*
X189000Y372000D02*
X203000D01*
X191000Y377000D02*
X204000D01*
X190000Y382000D02*
X205000D01*
X416936Y335436D02*
X417000Y335500D01*
D13*
X181000Y467500D02*
D03*
Y472500D02*
D03*
Y477500D02*
D03*
Y482500D02*
D03*
Y487500D02*
D03*
Y462500D02*
D03*
Y437500D02*
D03*
Y432500D02*
D03*
Y427500D02*
D03*
Y422500D02*
D03*
Y417500D02*
D03*
Y412500D02*
D03*
Y407500D02*
D03*
Y402500D02*
D03*
Y397500D02*
D03*
Y392500D02*
D03*
Y387500D02*
D03*
Y382500D02*
D03*
Y377500D02*
D03*
Y372500D02*
D03*
Y367500D02*
D03*
Y362500D02*
D03*
Y357500D02*
D03*
Y352500D02*
D03*
Y327500D02*
D03*
Y322500D02*
D03*
Y317500D02*
D03*
Y312500D02*
D03*
Y307500D02*
D03*
Y302500D02*
D03*
Y442500D02*
D03*
Y447500D02*
D03*
Y452500D02*
D03*
Y457500D02*
D03*
D14*
X255300Y443000D02*
D03*
X269300D02*
D03*
X269000Y416000D02*
D03*
X255000D02*
D03*
X269300Y430000D02*
D03*
X255300D02*
D03*
X269300Y456000D02*
D03*
X255300D02*
D03*
D15*
X525920Y292000D02*
D03*
X536080D02*
D03*
X624080Y478000D02*
D03*
X613920D02*
D03*
X624080Y458000D02*
D03*
X613920D02*
D03*
X624080Y498000D02*
D03*
X613920D02*
D03*
Y468000D02*
D03*
X624080D02*
D03*
X613920Y488000D02*
D03*
X624080D02*
D03*
X454080Y298000D02*
D03*
X443920D02*
D03*
X526080Y447000D02*
D03*
X515920D02*
D03*
X495920Y407000D02*
D03*
X506080D02*
D03*
X258420Y404000D02*
D03*
X268580D02*
D03*
X461920Y470000D02*
D03*
X472080D02*
D03*
X476080Y326000D02*
D03*
X465920D02*
D03*
X350920Y457000D02*
D03*
X361080D02*
D03*
X476080Y316000D02*
D03*
X465920D02*
D03*
X316080Y436000D02*
D03*
X305920D02*
D03*
Y424000D02*
D03*
X316080D02*
D03*
Y447000D02*
D03*
X305920D02*
D03*
X280920Y430000D02*
D03*
X291080D02*
D03*
X257920Y330000D02*
D03*
X268080D02*
D03*
X476080Y298000D02*
D03*
X465920D02*
D03*
X429080D02*
D03*
X418920D02*
D03*
D16*
X534000Y393920D02*
D03*
Y404080D02*
D03*
X524000Y393920D02*
D03*
Y404080D02*
D03*
X548000Y359080D02*
D03*
Y348920D02*
D03*
X294000Y335920D02*
D03*
Y346080D02*
D03*
X524000Y379080D02*
D03*
Y368920D02*
D03*
X334000Y361920D02*
D03*
Y372080D02*
D03*
X482000Y447080D02*
D03*
Y436920D02*
D03*
X548000Y368920D02*
D03*
Y379080D02*
D03*
X504000Y447080D02*
D03*
Y436920D02*
D03*
X294000Y446920D02*
D03*
Y457080D02*
D03*
X282000Y446920D02*
D03*
Y457080D02*
D03*
X493000Y447080D02*
D03*
Y436920D02*
D03*
X334000Y382920D02*
D03*
Y393080D02*
D03*
X524000Y348920D02*
D03*
Y359080D02*
D03*
D17*
X555000Y331000D02*
D03*
Y295000D02*
D03*
D18*
X598000Y459000D02*
D03*
D19*
Y471700D02*
D03*
Y484400D02*
D03*
Y497100D02*
D03*
X542000Y459000D02*
D03*
Y471700D02*
D03*
Y484400D02*
D03*
Y497100D02*
D03*
D20*
X515000Y478000D02*
D03*
D21*
X489000Y463000D02*
D03*
Y494000D02*
D03*
D22*
X493000Y478000D02*
D03*
D23*
X306500Y349500D02*
D03*
X328500D02*
D03*
X306500Y333000D02*
D03*
X328500D02*
D03*
D24*
X496500Y342150D02*
D03*
X501500D02*
D03*
X506500D02*
D03*
X511500D02*
D03*
X519150Y332214D02*
D03*
Y327214D02*
D03*
Y322214D02*
D03*
X511500Y311850D02*
D03*
X506500D02*
D03*
X501500D02*
D03*
X496500D02*
D03*
X488850Y321960D02*
D03*
Y326960D02*
D03*
Y331960D02*
D03*
D25*
X496500Y340250D02*
D03*
X501500D02*
D03*
X506500D02*
D03*
X511500D02*
D03*
Y313750D02*
D03*
X506500D02*
D03*
X501500D02*
D03*
X496500D02*
D03*
D26*
X517250Y332214D02*
D03*
Y327214D02*
D03*
Y322214D02*
D03*
X490750Y321960D02*
D03*
Y326960D02*
D03*
Y331960D02*
D03*
D27*
X504000Y327000D02*
D03*
D28*
X449500Y492000D02*
D03*
X468500D02*
D03*
D29*
X568030Y364000D02*
D03*
Y371500D02*
D03*
X568000Y418500D02*
D03*
X568030Y426000D02*
D03*
D30*
Y377500D02*
D03*
Y382500D02*
D03*
Y387500D02*
D03*
Y392500D02*
D03*
X568000Y397500D02*
D03*
X568030Y402500D02*
D03*
Y407500D02*
D03*
Y412500D02*
D03*
D31*
X343300Y335000D02*
D03*
X358700D02*
D03*
D32*
X280500Y337500D02*
D03*
Y396500D02*
D03*
X243500D02*
D03*
Y337500D02*
D03*
D33*
X452000Y448500D02*
D03*
X447000D02*
D03*
X442000D02*
D03*
X437000D02*
D03*
X432000D02*
D03*
X427000D02*
D03*
X422000D02*
D03*
X417000D02*
D03*
X412000D02*
D03*
X407000D02*
D03*
X402000D02*
D03*
X397000D02*
D03*
X392000D02*
D03*
X387000D02*
D03*
X382000D02*
D03*
X377000D02*
D03*
X452000Y334500D02*
D03*
X447000D02*
D03*
X442000D02*
D03*
X437000D02*
D03*
X432000D02*
D03*
X427000D02*
D03*
X422000D02*
D03*
X417000D02*
D03*
X412000D02*
D03*
X407000D02*
D03*
X402000D02*
D03*
X397000D02*
D03*
X392000D02*
D03*
X387000D02*
D03*
X382000D02*
D03*
X377000D02*
D03*
X386500Y350250D02*
D03*
X391500D02*
D03*
X396500D02*
D03*
X401500D02*
D03*
X406500D02*
D03*
X411500D02*
D03*
X416500D02*
D03*
X421500D02*
D03*
X426500D02*
D03*
X431500D02*
D03*
X436500D02*
D03*
X441500D02*
D03*
X386500Y433750D02*
D03*
X391500D02*
D03*
X396500D02*
D03*
X401500D02*
D03*
X406500D02*
D03*
X411500D02*
D03*
X416500D02*
D03*
X421500D02*
D03*
X426500D02*
D03*
X431500D02*
D03*
X436500D02*
D03*
X441500D02*
D03*
D34*
X471500Y354000D02*
D03*
Y359000D02*
D03*
Y364000D02*
D03*
Y369000D02*
D03*
Y374000D02*
D03*
Y379000D02*
D03*
Y384000D02*
D03*
Y389000D02*
D03*
Y394000D02*
D03*
Y399000D02*
D03*
Y404000D02*
D03*
Y409000D02*
D03*
Y414000D02*
D03*
Y419000D02*
D03*
Y424000D02*
D03*
Y429000D02*
D03*
X357080Y354000D02*
D03*
Y359000D02*
D03*
Y364000D02*
D03*
Y369000D02*
D03*
Y374000D02*
D03*
Y379000D02*
D03*
Y384000D02*
D03*
Y389000D02*
D03*
Y394000D02*
D03*
Y399000D02*
D03*
Y404000D02*
D03*
Y409000D02*
D03*
Y414000D02*
D03*
Y419000D02*
D03*
Y424000D02*
D03*
Y429000D02*
D03*
X372250Y419500D02*
D03*
X372250Y414500D02*
D03*
X372250Y409500D02*
D03*
X372250Y404500D02*
D03*
Y399500D02*
D03*
Y394500D02*
D03*
Y389500D02*
D03*
Y384500D02*
D03*
X372250Y379500D02*
D03*
X372250Y374500D02*
D03*
Y369500D02*
D03*
Y364500D02*
D03*
X455750Y419500D02*
D03*
Y414500D02*
D03*
Y409500D02*
D03*
Y404500D02*
D03*
Y399500D02*
D03*
Y394500D02*
D03*
Y389500D02*
D03*
Y384500D02*
D03*
Y379500D02*
D03*
Y374500D02*
D03*
Y369500D02*
D03*
Y364500D02*
D03*
D35*
X310600Y407500D02*
D03*
Y370500D02*
D03*
D64*
X541000Y344000D02*
Y379000D01*
X545000D01*
X525920Y293000D02*
X528000D01*
Y314000D01*
X529000Y332000D02*
X541000Y344000D01*
X552000Y434000D02*
Y437000D01*
X542000Y447000D02*
X552000Y437000D01*
X526080Y447000D02*
X542000D01*
X590000Y377000D02*
Y419000D01*
X573000D02*
X590000D01*
X584500Y371500D02*
X590000Y377000D01*
X568030Y371500D02*
X584500D01*
X552000Y434000D02*
X559000Y427000D01*
X567000Y436000D02*
X568030Y434970D01*
Y426000D02*
Y434970D01*
X566000Y419000D02*
X567000Y418000D01*
X559000Y419000D02*
X566000D01*
X559000D02*
Y427000D01*
X528000Y314000D02*
X529000Y315000D01*
Y332000D01*
D65*
X516920Y450000D02*
Y472920D01*
X517000Y473000D01*
X459000Y479000D02*
X491000D01*
X448000Y490000D02*
X459000Y479000D01*
X447500Y490000D02*
X448000D01*
D66*
X479000Y494000D02*
D03*
D67*
X490000Y462000D02*
D03*
D68*
X520500Y468000D02*
D03*
D69*
X369000Y446000D02*
D03*
D70*
X473000Y451500D02*
D03*
D71*
X181500Y325000D02*
D03*
D72*
X571830Y351800D02*
D03*
Y438300D02*
D03*
D73*
X610430Y351800D02*
D03*
Y438300D02*
D03*
D74*
X541000Y379000D02*
D03*
X539000Y334000D02*
D03*
X556000Y356000D02*
D03*
X460000Y298000D02*
D03*
X484000Y304000D02*
D03*
X437000Y298000D02*
D03*
X490000Y337000D02*
D03*
X487000Y351000D02*
D03*
X474000Y341000D02*
D03*
X582000Y408000D02*
D03*
X546000Y422000D02*
D03*
X559000Y413000D02*
D03*
X342000Y452000D02*
D03*
X249000Y442000D02*
D03*
X556000Y377000D02*
D03*
X583000Y468000D02*
D03*
X558000Y472000D02*
D03*
X612000Y502000D02*
D03*
X630000Y458000D02*
D03*
Y478000D02*
D03*
X529000Y394000D02*
D03*
X542000Y409000D02*
D03*
X529000Y377000D02*
D03*
X541000Y495000D02*
D03*
X533000Y417000D02*
D03*
Y424000D02*
D03*
X552000Y395000D02*
D03*
X535000Y484000D02*
D03*
X518000Y493000D02*
D03*
X473000Y494000D02*
D03*
X466850Y442730D02*
D03*
X456190Y438710D02*
D03*
X508500Y385500D02*
D03*
X514500Y413500D02*
D03*
X500000Y399000D02*
D03*
X512000Y391500D02*
D03*
X506500Y395500D02*
D03*
X501000Y392000D02*
D03*
X480000Y420500D02*
D03*
X488000Y403500D02*
D03*
X445500Y441000D02*
D03*
X495500Y421000D02*
D03*
X491500Y426500D02*
D03*
X432000Y458000D02*
D03*
X499500Y365000D02*
D03*
X499000Y357500D02*
D03*
X501500Y348000D02*
D03*
X492500Y354500D02*
D03*
X480000Y349500D02*
D03*
X509000Y306000D02*
D03*
X502000Y305500D02*
D03*
X499000Y296000D02*
D03*
X508000D02*
D03*
X522000Y300000D02*
D03*
X494000Y306000D02*
D03*
X489000Y297000D02*
D03*
X522000Y309000D02*
D03*
X535000Y356000D02*
D03*
X218000Y293000D02*
D03*
X230000D02*
D03*
X423000Y389000D02*
D03*
Y378000D02*
D03*
X431000Y379000D02*
D03*
X306000Y453000D02*
D03*
X505000Y331000D02*
D03*
X474000Y310000D02*
D03*
X531000Y349000D02*
D03*
X434000Y441000D02*
D03*
X315000Y328000D02*
D03*
X463000Y427000D02*
D03*
X507000Y494000D02*
D03*
X450000Y479000D02*
D03*
X506000Y425000D02*
D03*
X501000Y430000D02*
D03*
X417000Y323000D02*
D03*
X437000D02*
D03*
X556000Y367000D02*
D03*
X376000Y355000D02*
D03*
X346000Y429000D02*
D03*
X370000Y350000D02*
D03*
X386000Y359000D02*
D03*
X489000Y315000D02*
D03*
X481000Y336000D02*
D03*
X247000Y359000D02*
D03*
X253000Y354000D02*
D03*
X272000Y356000D02*
D03*
X262000Y366000D02*
D03*
X284000Y378000D02*
D03*
X327000Y359000D02*
D03*
X442000Y327000D02*
D03*
X422000D02*
D03*
X432000D02*
D03*
X423000Y400000D02*
D03*
X442000Y385000D02*
D03*
X447000Y389000D02*
D03*
X254000Y392000D02*
D03*
X289000Y418000D02*
D03*
X240000Y408000D02*
D03*
X236000Y426000D02*
D03*
X240000Y420000D02*
D03*
X236000Y414000D02*
D03*
X293000Y436000D02*
D03*
X316000Y386000D02*
D03*
X304000Y387000D02*
D03*
X257000Y371000D02*
D03*
X329000Y414000D02*
D03*
X326000Y447000D02*
D03*
X405000Y384000D02*
D03*
X394000Y371000D02*
D03*
Y384000D02*
D03*
X414000Y373000D02*
D03*
X419000Y368000D02*
D03*
X414000Y363000D02*
D03*
X419000Y358000D02*
D03*
X493000Y399000D02*
D03*
X468000Y345000D02*
D03*
X458000Y327000D02*
D03*
X481000Y404000D02*
D03*
X507000Y462000D02*
D03*
X527000Y460000D02*
D03*
Y466000D02*
D03*
X481000Y454000D02*
D03*
X462000Y462000D02*
D03*
X434000Y488000D02*
D03*
X464000Y449000D02*
D03*
X317000Y411000D02*
D03*
X399000Y425000D02*
D03*
X407000Y462000D02*
D03*
X402000Y457000D02*
D03*
X348000Y414000D02*
D03*
Y404000D02*
D03*
X342000Y399000D02*
D03*
X348000Y394000D02*
D03*
X343000Y359000D02*
D03*
X342000Y389000D02*
D03*
Y379000D02*
D03*
X348000Y384000D02*
D03*
Y354000D02*
D03*
Y364000D02*
D03*
Y374000D02*
D03*
X209000Y335000D02*
D03*
X235000Y402000D02*
D03*
M02*
